<svg width="107" height="19" viewBox="0 0 107 19" fill="none" xmlns="http://www.w3.org/2000/svg">
<path d="M0 13.7925V0.189979H1.61482V12.2537H7.56117V13.7925H0Z" fill="#775DF9"/>
<path d="M9.26875 13.7925V4.10355H10.8836V13.7925H9.26875ZM10.0667 2.31774C9.75004 2.31774 9.47773 2.20376 9.24976 1.97578C9.02178 1.74781 8.90779 1.4755 8.90779 1.15887C8.90779 0.829575 9.02178 0.557272 9.24976 0.341963C9.47773 0.113988 9.75004 0 10.0667 0C10.396 0 10.6683 0.113988 10.8836 0.341963C11.1116 0.557272 11.2255 0.829575 11.2255 1.15887C11.2255 1.4755 11.1116 1.74781 10.8836 1.97578C10.6683 2.20376 10.396 2.31774 10.0667 2.31774Z" fill="#775DF9"/>
<path d="M13.239 13.7925V4.10355H14.7779V5.52839H14.8538C15.1071 5.05978 15.5188 4.65449 16.0887 4.31253C16.6713 3.97056 17.3046 3.79958 17.9885 3.79958C19.179 3.79958 20.0719 4.14788 20.6672 4.84447C21.2751 5.52839 21.5791 6.44029 21.5791 7.58017V13.7925H19.9643V7.82714C19.9643 6.88991 19.7363 6.23132 19.2804 5.85136C18.8371 5.45873 18.2608 5.26242 17.5515 5.26242C17.0196 5.26242 16.551 5.4144 16.1457 5.71837C15.7404 6.00967 15.4238 6.38963 15.1958 6.85825C14.9678 7.32686 14.8538 7.82081 14.8538 8.34008V13.7925H13.239Z" fill="#775DF9"/>
<path d="M28.1067 18.2C27.2834 18.2 26.5742 18.0607 25.9789 17.782C25.3963 17.5161 24.9214 17.1741 24.5541 16.7562C24.1994 16.3382 23.9461 15.9139 23.7941 15.4833L25.276 14.8564C25.4786 15.3883 25.8206 15.8316 26.3019 16.1862C26.7958 16.5535 27.3974 16.7372 28.1067 16.7372C29.1199 16.7372 29.8988 16.4395 30.4434 15.8443C30.988 15.2617 31.2603 14.4447 31.2603 13.3935V12.3106H31.1843C30.8804 12.7793 30.4434 13.1782 29.8735 13.5075C29.3035 13.8241 28.6386 13.9825 27.8787 13.9825C27.0428 13.9825 26.2765 13.7672 25.5799 13.3365C24.896 12.9059 24.3514 12.3106 23.9461 11.5507C23.5408 10.7781 23.3382 9.89158 23.3382 8.89102C23.3382 7.89047 23.5408 7.01023 23.9461 6.25031C24.3514 5.47773 24.896 4.87613 25.5799 4.44551C26.2765 4.01489 27.0428 3.79958 27.8787 3.79958C28.6386 3.79958 29.3035 3.96423 29.8735 4.29353C30.4434 4.61016 30.8804 5.00912 31.1843 5.4904H31.2603V4.10355H32.7992V13.4125C32.7992 14.4891 32.5902 15.382 32.1722 16.0912C31.7669 16.8005 31.2097 17.3261 30.5004 17.6681C29.8038 18.0227 29.0059 18.2 28.1067 18.2ZM28.1067 12.5196C28.6766 12.5196 29.2022 12.3803 29.6835 12.1017C30.1648 11.8104 30.5447 11.3924 30.8234 10.8478C31.1147 10.3032 31.2603 9.65094 31.2603 8.89102C31.2603 8.10578 31.1147 7.44718 30.8234 6.91524C30.5447 6.37063 30.1648 5.95901 29.6835 5.68038C29.2022 5.40174 28.6766 5.26242 28.1067 5.26242C27.5367 5.26242 27.0111 5.40807 26.5298 5.69937C26.0486 5.97801 25.6623 6.38963 25.371 6.93424C25.0797 7.46618 24.934 8.11844 24.934 8.89102C24.934 9.6636 25.0797 10.3222 25.371 10.8668C25.6623 11.3987 26.0486 11.8104 26.5298 12.1017C27.0111 12.3803 27.5367 12.5196 28.1067 12.5196Z" fill="#775DF9"/>
<path d="M38.6643 14.0965C37.4738 14.0965 36.5745 13.7482 35.9666 13.0516C35.3713 12.355 35.0737 11.4051 35.0737 10.2019V4.10355H36.6885V9.95491C36.6885 10.9175 36.9102 11.6077 37.3535 12.0257C37.7967 12.431 38.3477 12.6336 39.0063 12.6336C39.5762 12.6336 40.0702 12.488 40.4881 12.1967C40.9061 11.8927 41.229 11.5064 41.457 11.0378C41.685 10.5692 41.799 10.0816 41.799 9.57495V4.10355H43.4138V13.7925H41.875V12.3866H41.799C41.6343 12.6906 41.3873 12.9756 41.0581 13.2415C40.7414 13.4949 40.3741 13.6975 39.9562 13.8495C39.5509 14.0141 39.1203 14.0965 38.6643 14.0965Z" fill="#775DF9"/>
<path d="M48.8965 14.0965C48.1745 14.0965 47.5413 13.9571 46.9967 13.6785C46.4521 13.3999 46.0215 13.0199 45.7048 12.5386C45.4009 12.0447 45.2489 11.4874 45.2489 10.8668C45.2489 10.1576 45.4325 9.56228 45.7998 9.081C46.1671 8.58706 46.661 8.21976 47.2816 7.97912C47.9022 7.72582 48.5862 7.59917 49.3334 7.59917C49.764 7.59917 50.163 7.63716 50.5303 7.71315C50.8976 7.77648 51.2142 7.8588 51.4802 7.96013C51.7588 8.04878 51.9678 8.13744 52.1071 8.2261V7.63716C52.1071 6.90257 51.8475 6.31997 51.3282 5.88935C50.8089 5.45873 50.1757 5.24342 49.4284 5.24342C48.8965 5.24342 48.3962 5.36374 47.9276 5.60438C47.4716 5.83236 47.1107 6.15532 46.8447 6.57328L45.6288 5.66138C45.8821 5.28142 46.1988 4.95212 46.5787 4.67349C46.9587 4.39485 47.3893 4.17954 47.8706 4.02756C48.3645 3.87557 48.8838 3.79958 49.4284 3.79958C50.7456 3.79958 51.7778 4.14788 52.5251 4.84447C53.2723 5.54106 53.646 6.47829 53.646 7.65616V13.7925H52.1071V12.4056H52.0311C51.8665 12.6843 51.6322 12.9566 51.3282 13.2225C51.0242 13.4759 50.6633 13.6848 50.2453 13.8495C49.84 14.0141 49.3904 14.0965 48.8965 14.0965ZM49.0485 12.6716C49.6057 12.6716 50.1123 12.5323 50.5683 12.2537C51.0369 11.975 51.4105 11.6014 51.6892 11.1328C51.9678 10.6642 52.1071 10.1512 52.1071 9.59395C51.8158 9.3913 51.4485 9.22665 51.0052 9.1C50.5746 8.97335 50.0997 8.91002 49.5804 8.91002C48.6558 8.91002 47.9782 9.1 47.5476 9.47996C47.117 9.85992 46.9017 10.3285 46.9017 10.8858C46.9017 11.4177 47.1043 11.8484 47.5096 12.1777C47.9149 12.507 48.4279 12.6716 49.0485 12.6716Z" fill="#775DF9"/>
<path d="M56.2154 13.7925V0.189979H61.5348C62.3201 0.189979 63.023 0.354627 63.6436 0.683924C64.2769 1.00056 64.7771 1.42484 65.1444 1.95678C65.5117 2.48873 65.6954 3.08399 65.6954 3.74259C65.6954 4.45184 65.5181 5.05344 65.1634 5.54739C64.8215 6.04134 64.3909 6.41496 63.8716 6.66827V6.82025C64.5682 7.06089 65.1254 7.45985 65.5434 8.01712C65.974 8.56173 66.1893 9.22665 66.1893 10.0119C66.1893 10.7845 65.9867 11.4557 65.5814 12.0257C65.1888 12.583 64.6505 13.0199 63.9666 13.3365C63.2953 13.6405 62.5481 13.7925 61.7248 13.7925H56.2154ZM57.6403 7.94113V5.73737H61.3449C61.7375 5.73737 62.0668 5.66771 62.3327 5.52839C62.6114 5.37641 62.8204 5.17377 62.9597 4.92046C63.1117 4.66715 63.1877 4.39485 63.1877 4.10355C63.1877 3.79958 63.118 3.52728 62.9787 3.28664C62.8394 3.046 62.6367 2.85602 62.3707 2.7167C62.1048 2.56472 61.7881 2.48873 61.4208 2.48873H58.7801V11.4557H61.6298C62.0604 11.4557 62.4214 11.3798 62.7127 11.2278C63.004 11.0758 63.2256 10.8668 63.3776 10.6008C63.5296 10.3349 63.6056 10.0372 63.6056 9.70793C63.6056 9.36597 63.5296 9.06201 63.3776 8.79603C63.2256 8.53006 62.9977 8.32109 62.6937 8.1691C62.3897 8.01712 62.0098 7.94113 61.5538 7.94113H57.6403Z" fill="#775DF9"/>
<path d="M72.865 14.0965C71.8518 14.0965 70.9526 13.8748 70.1673 13.4315C69.3947 12.9756 68.7868 12.3613 68.3435 11.5887C67.9129 10.8035 67.6976 9.92324 67.6976 8.94802C67.6976 7.97279 67.9129 7.09889 68.3435 6.3263C68.7868 5.54106 69.3947 4.92679 70.1673 4.48351C70.9526 4.02756 71.8518 3.79958 72.865 3.79958C73.8782 3.79958 74.7711 4.02756 75.5437 4.48351C76.3163 4.93946 76.9179 5.55372 77.3485 6.3263C77.7918 7.09889 78.0134 7.97279 78.0134 8.94802C78.0134 9.92324 77.7918 10.8035 77.3485 11.5887C76.9179 12.3613 76.3163 12.9756 75.5437 13.4315C74.7711 13.8748 73.8782 14.0965 72.865 14.0965ZM72.865 11.7787C73.3463 11.7787 73.7832 11.6711 74.1759 11.4557C74.5812 11.2278 74.9041 10.9048 75.1448 10.4868C75.3981 10.0562 75.5247 9.54328 75.5247 8.94802C75.5247 8.35275 75.3981 7.84614 75.1448 7.42818C74.9041 7.01023 74.5812 6.68727 74.1759 6.45929C73.7832 6.23132 73.3526 6.11733 72.884 6.11733C72.4027 6.11733 71.9531 6.23132 71.5352 6.45929C71.1299 6.68727 70.8006 7.01023 70.5473 7.42818C70.3066 7.84614 70.1863 8.35275 70.1863 8.94802C70.1863 9.54328 70.3066 10.0562 70.5473 10.4868C70.8006 10.9048 71.1299 11.2278 71.5352 11.4557C71.9531 11.6711 72.3964 11.7787 72.865 11.7787Z" fill="#775DF9"/>
<path d="M84.5161 14.0965C83.5029 14.0965 82.6036 13.8748 81.8184 13.4315C81.0458 12.9756 80.4379 12.3613 79.9946 11.5887C79.564 10.8035 79.3486 9.92324 79.3486 8.94802C79.3486 7.97279 79.564 7.09889 79.9946 6.3263C80.4379 5.54106 81.0458 4.92679 81.8184 4.48351C82.6036 4.02756 83.5029 3.79958 84.5161 3.79958C85.5293 3.79958 86.4222 4.02756 87.1948 4.48351C87.9674 4.93946 88.569 5.55372 88.9996 6.3263C89.4429 7.09889 89.6645 7.97279 89.6645 8.94802C89.6645 9.92324 89.4429 10.8035 88.9996 11.5887C88.569 12.3613 87.9674 12.9756 87.1948 13.4315C86.4222 13.8748 85.5293 14.0965 84.5161 14.0965ZM84.5161 11.7787C84.9974 11.7787 85.4343 11.6711 85.8269 11.4557C86.2322 11.2278 86.5552 10.9048 86.7958 10.4868C87.0491 10.0562 87.1758 9.54328 87.1758 8.94802C87.1758 8.35275 87.0491 7.84614 86.7958 7.42818C86.5552 7.01023 86.2322 6.68727 85.8269 6.45929C85.4343 6.23132 85.0037 6.11733 84.5351 6.11733C84.0538 6.11733 83.6042 6.23132 83.1862 6.45929C82.7809 6.68727 82.4516 7.01023 82.1983 7.42818C81.9577 7.84614 81.8374 8.35275 81.8374 8.94802C81.8374 9.54328 81.9577 10.0562 82.1983 10.4868C82.4516 10.9048 82.7809 11.2278 83.1862 11.4557C83.6042 11.6711 84.0475 11.7787 84.5161 11.7787Z" fill="#775DF9"/>
<path d="M95.2172 14.0965C94.3813 14.0965 93.6657 13.9761 93.0705 13.7355C92.4879 13.4949 92.0129 13.1782 91.6456 12.7856C91.2783 12.393 91.006 11.9624 90.8287 11.4937L93.0515 10.5248C93.2668 10.9808 93.5581 11.3291 93.9254 11.5697C94.2927 11.7977 94.7233 11.9117 95.2172 11.9117C95.6225 11.9117 95.9898 11.8484 96.3191 11.7217C96.6484 11.5824 96.8131 11.3354 96.8131 10.9808C96.8131 10.7275 96.7244 10.5312 96.5471 10.3919C96.3824 10.2399 96.1735 10.1259 95.9202 10.0499C95.6669 9.96124 95.4072 9.89158 95.1413 9.84092L94.0014 9.59395C93.5328 9.49262 93.0895 9.31531 92.6715 9.062C92.2536 8.79603 91.9116 8.46674 91.6456 8.07411C91.3923 7.66882 91.2657 7.20654 91.2657 6.68726C91.2657 6.10466 91.4303 5.59805 91.7596 5.16743C92.1016 4.73681 92.5575 4.40118 93.1275 4.16054C93.7101 3.9199 94.3497 3.79958 95.0463 3.79958C95.6922 3.79958 96.2748 3.87557 96.7941 4.02756C97.3134 4.17954 97.763 4.41385 98.1429 4.73048C98.5229 5.03445 98.8269 5.42707 99.0548 5.90835L96.9271 6.83925C96.7244 6.45929 96.4584 6.19332 96.1291 6.04134C95.8125 5.88935 95.4706 5.81336 95.1033 5.81336C94.6726 5.81336 94.3307 5.89569 94.0774 6.06033C93.8241 6.22498 93.6974 6.42129 93.6974 6.64927C93.6974 6.88991 93.8241 7.09889 94.0774 7.2762C94.3307 7.45351 94.6346 7.5865 94.9893 7.67516L96.4141 8.01712C97.3767 8.24509 98.0986 8.61239 98.5799 9.119C99.0738 9.62561 99.3208 10.2335 99.3208 10.9428C99.3208 11.5761 99.1372 12.1333 98.7699 12.6146C98.4026 13.0832 97.9086 13.4505 97.288 13.7165C96.6674 13.9698 95.9772 14.0965 95.2172 14.0965Z" fill="#775DF9"/>
<path d="M100.179 6.23131V4.10355H101.965V6.23131H100.179ZM105.08 13.9445C104.08 13.9445 103.294 13.6595 102.725 13.0896C102.155 12.507 101.87 11.709 101.87 10.6958V1.36785H104.358V10.2399C104.358 10.7085 104.453 11.0568 104.643 11.2848C104.833 11.5001 105.144 11.6077 105.574 11.6077C105.777 11.6077 105.967 11.5824 106.144 11.5317C106.321 11.4684 106.543 11.3544 106.809 11.1898V13.6215C106.53 13.7228 106.245 13.7988 105.954 13.8495C105.676 13.9128 105.384 13.9445 105.08 13.9445ZM104.263 6.23131V4.10355H106.733V6.23131H104.263Z" fill="#775DF9"/>
</svg>
