<svg width="256" height="226" viewBox="0 0 256 226" fill="none" xmlns="http://www.w3.org/2000/svg">
<path d="M76.0749 65.0284C76.0749 65.0284 74.0339 55.838 82.5567 49.8354C91.0795 43.8334 88.1505 41.5253 94.4908 38.9992C100.83 36.473 105.492 42.4341 97.1111 48.0326C88.7293 53.6312 86.0989 53.4368 86.6037 56.1508C87.1078 58.8653 76.0749 65.0284 76.0749 65.0284Z" fill="#365241"/>
<path d="M54.717 57.0833C54.717 57.0833 52.1281 47.0066 49.9764 46.3443C47.8246 45.6813 41.799 46.3271 37.71 40.0864C33.621 33.8456 28.8264 39.2848 19.2799 37.6408C9.73337 35.9974 -0.811396 37.8949 0.0494137 41.0348C0.910223 44.1748 13.3917 48.8331 20.9239 47.0421C28.4561 45.2512 28.6712 50.5346 34.4818 51.8741C40.2918 53.2136 54.717 57.0833 54.717 57.0833Z" fill="#365241"/>
<path d="M63.2483 76.9603C63.2483 76.9603 52.793 67.4315 49.4588 67.7159C46.1246 68.0003 49.3634 71.1532 44.6429 70.2083C39.9223 69.2633 27.4249 65.752 26.8816 71.7581C26.3384 77.7642 15.8961 77.4093 17.2984 81.9711C18.7007 86.5329 25.8923 89.2474 29.137 85.1608C32.3818 81.0736 35.764 78.3454 37.7428 80.2021C39.7209 82.0582 42.798 82.2389 46.5055 79.5457C50.2124 76.853 61.2589 75.0663 63.2483 76.9603Z" fill="#365241"/>
<path d="M66.161 43.1925C66.161 43.1925 60.2782 41.4152 58.7799 37.7641C57.2822 34.1129 61.431 34.0513 55.762 32.0364C50.0936 30.0215 46.1586 27.6518 45.7943 25.5853C45.4299 23.5189 37.2164 20.3138 32.2938 19.3979C27.3719 18.482 30.9727 6.88331 46.1095 12.755C61.2462 18.6266 60.4778 21.3186 62.094 21.4892C63.7095 21.6593 65.8631 21.6456 65.9614 25.6375C66.0603 29.6287 72.8319 32.5909 66.161 43.1925Z" fill="#365241"/>
<path d="M70.4831 98.979C70.4831 98.979 71.5768 75.1405 54.9287 73.128" stroke="#6BB074" stroke-width="0.5" stroke-miterlimit="10"/>
<path d="M52.1973 149.923C52.1973 152.267 59.8592 154.167 69.3104 154.167C78.7615 154.167 86.4235 152.267 86.4235 149.923C86.4235 147.579 78.7615 145.679 69.3104 145.679C59.8592 145.679 52.1973 147.579 52.1973 149.923Z" fill="#D9D5D1"/>
<path d="M86.6895 119.912C86.6895 119.912 86.8193 135.714 82.3298 148.138C82.3298 150.285 76.502 152.026 69.3128 152.026C62.1236 152.026 56.2958 150.285 56.2958 148.138C56.2958 148.138 51.936 137.685 51.936 119.912H86.6895Z" fill="#593119"/>
<path d="M69.3108 124.166C78.9077 124.166 86.6876 122.259 86.6876 119.906C86.6876 117.554 78.9077 115.647 69.3108 115.647C59.7139 115.647 51.9341 117.554 51.9341 119.906C51.9341 122.259 59.7139 124.166 69.3108 124.166Z" fill="#915531"/>
<path d="M84.9743 121.753C82.1679 120.325 76.2086 119.341 69.3108 119.341C62.4131 119.341 56.4538 120.326 53.6474 121.753C52.549 121.194 51.9341 120.568 51.9341 119.906C51.9341 117.555 59.714 115.647 69.3108 115.647C78.9077 115.647 86.6876 117.554 86.6876 119.906C86.6882 120.568 86.0726 121.194 84.9743 121.753Z" fill="#593119"/>
<path d="M68.6759 120.128C68.6759 120.128 64.9631 76.5398 98.8036 71.9023" stroke="#6BB074" stroke-width="0.5" stroke-miterlimit="10"/>
<path d="M70.4135 100.302C70.4135 100.302 75.2721 57.9068 31.1113 42.8281" stroke="#6BB074" stroke-width="0.5" stroke-miterlimit="10"/>
<path d="M67.927 79.1319C67.927 79.1319 72.077 34.762 55.7607 22.5566" stroke="#6BB074" stroke-width="0.5" stroke-miterlimit="10"/>
<path d="M79.2485 82.0376C79.2485 82.0376 80.7545 72.7441 90.8941 70.3234C101.034 67.9021 99.1668 64.6745 105.991 64.6745C112.815 64.6745 114.94 71.9378 105.081 74.0356C95.2224 76.1334 92.8503 74.9793 92.3147 77.6879C91.7792 80.396 79.2485 82.0376 79.2485 82.0376Z" fill="#365241"/>
<path d="M69.8477 87.4601C69.8477 87.4601 72.9597 58.1285 89.3815 48.7278" stroke="#6BB074" stroke-width="0.5" stroke-miterlimit="10"/>
<path d="M179.14 58.8802C193.647 58.8802 205.407 50.4922 205.407 40.145C205.407 29.7978 193.647 21.4098 179.14 21.4098C164.633 21.4098 152.873 29.7978 152.873 40.145C152.873 50.4922 164.633 58.8802 179.14 58.8802Z" fill="#F0ECE7"/>
<path d="M164.327 54.9178C164.327 54.9178 159.43 59.6093 155.496 58.7804L160.102 48.1184L164.327 54.9178Z" fill="#F0ECE7"/>
<path d="M231.136 156.023L239.168 152.354L178.181 135.077L106.216 161.554C79.135 167.401 57.2729 172.587 57.2729 172.587L163.725 195.481C177.186 190.215 255.611 162.956 255.611 162.956L231.136 156.023Z" fill="#D9D5D1"/>
<path d="M156.532 193.514L71.0451 215.579C70.7797 202.257 71.6683 171.074 101.691 170.476C131.713 169.877 156.266 180.191 156.532 193.514Z" fill="#D9D5D1"/>
<path d="M181.223 221.123C182.204 218.949 176.349 214.184 168.145 210.478C159.941 206.773 152.494 205.53 151.513 207.704C150.531 209.877 156.386 214.643 164.59 218.349C172.795 222.054 180.241 223.296 181.223 221.123Z" fill="#D9D5D1"/>
<path d="M71.7575 174.744L163.726 195.484L221.925 164.121L183.349 158.471L157.161 172.103L95.2091 160.964L135.416 146.221L123.651 143.214L69.3789 161.659L71.7575 174.744Z" fill="#974F89"/>
<path d="M157.16 172.104L137.488 168.566L72.4844 173.399L164.702 194.598L221.924 164.121L189.024 159.922L176.537 162.017L157.16 172.104Z" fill="#974F89"/>
<path d="M163.726 195.481L163.683 196.335L71.8916 175.609L71.7612 174.741L163.726 195.481Z" fill="#974F89"/>
<path d="M163.682 196.338L221.851 165.188L221.904 164.121L163.725 195.485L163.682 196.338Z" fill="#974F89"/>
<path d="M74.0112 173.641L163.444 193.117L217.405 164.521L138.291 137.839L74.0112 173.641Z" fill="#BDBDBD"/>
<path d="M74.0112 173.641L162.259 191.076L216.072 162.956C215.576 161.876 215.175 160.754 214.875 159.604L214.807 159.341L74.0112 173.641Z" fill="white"/>
<path d="M76.0713 172.564L73.512 161.05L70.4248 162.371L72.5161 174.36L74.0102 173.643L76.0713 172.564Z" fill="#974F89"/>
<path d="M161.696 189.492L74.0117 173.642L72.0205 161.486L164.367 178.326L161.696 189.492Z" fill="#BDBDBD"/>
<path d="M72.0205 161.486C72.0205 161.486 78.1558 167.081 74.0117 173.642L72.0205 161.486Z" fill="#BDBDBD"/>
<path d="M162.259 191.078C162.259 191.078 162.612 192.605 163.444 193.119L217.406 164.523L216.072 162.958L162.259 191.078Z" fill="#DEDEDE"/>
<path d="M215.676 162.041C215.676 162.041 215.356 161.159 215.356 161.199L189.947 173.346L214.933 159.82C213.691 155.929 215.536 153.804 215.536 153.804L163.298 179.197C163.298 179.197 158.729 184.484 161.695 189.493" fill="#DEDEDE"/>
<path d="M164.487 180.231L216.95 152.886L138.027 137.839L69.3789 161.658L164.487 180.231Z" fill="#CC76BB"/>
<path d="M69.3789 161.654L69.6088 162.775L164.434 181.301L164.487 180.226L69.3789 161.654Z" fill="#974F89"/>
<path d="M164.433 181.302L164.487 180.227L216.949 152.883L216.897 153.92L164.433 181.302Z" fill="#974F89"/>
<path d="M169.635 174.053L200.59 149.767L138.027 137.839L69.3789 161.657L117.017 170.96L169.635 174.053Z" fill="#974F89"/>
<path d="M169.391 168.195L62.1465 158.301L95.2583 137.194L204.624 146.285L204.446 147.566L169.391 168.195Z" fill="#3C5947"/>
<path d="M169.392 168.197L62.1472 158.303L61.4014 143.719L170.589 152.258L169.077 157.895C168.139 161.392 168.95 164.617 169.392 168.197Z" fill="#3C5947"/>
<path d="M206.94 130.295L106.033 123.411L61.4014 143.716L170.589 152.256L206.94 130.295Z" fill="#6BB074"/>
<path d="M204.314 137.29L195.368 141.903L204.532 136.087C204.928 134.608 205.645 132.676 206.365 131.582L170.362 153.889L169.652 166.314L203.582 145.931C203.582 145.931 203.479 141.558 204.314 137.29Z" fill="#DEDEDE"/>
<path d="M206.94 130.296L206.669 132.247L170.363 153.89L170.589 152.257L206.94 130.296Z" fill="#3C5947"/>
<path d="M204.448 147.563L204.625 146.282L169.653 166.311L169.393 168.192L204.448 147.563Z" fill="#3C5947"/>
<path d="M170.362 153.89L169.652 166.315C169.652 166.315 171.311 161.081 170.362 153.89Z" fill="#BDBDBD"/>
<path d="M204.533 136.084L204.315 137.288L184.715 147.446L204.533 136.084Z" fill="white"/>
<path d="M125.472 143.722C144.924 143.722 160.693 140.6 160.693 136.75C160.693 132.899 144.924 129.777 125.472 129.777C106.019 129.777 90.25 132.899 90.25 136.75C90.25 140.6 106.019 143.722 125.472 143.722Z" fill="#466953"/>
<path d="M180.443 146.086C179.882 147.928 172.414 147.285 163.763 144.651C155.111 142.016 148.553 138.388 149.114 136.546C149.675 134.704 157.143 135.347 165.794 137.981C174.445 140.615 181.004 144.244 180.443 146.086Z" fill="#466953"/>
<path d="M153.459 205.064C153.459 205.064 161.983 191.07 162.836 195.952C163.238 198.251 170.872 213.172 178.726 217.009C178.726 217.009 180.121 221.332 167.406 216.351C154.69 211.369 150.99 209.174 153.459 205.064Z" fill="#C77B4E"/>
<path d="M153.965 204.263L155.664 197.289C155.664 197.289 159.427 193.175 162.191 194.972L153.965 204.263Z" fill="#C77B4E"/>
<path d="M180.891 221.834C168.403 222.363 157.994 212.673 157.994 212.673C151.803 211.08 150.991 209.174 153.461 205.064C153.461 205.064 153.532 204.947 153.658 204.744C153.688 204.777 153.718 204.809 153.748 204.841C155.799 207.055 159.501 206.091 160.258 203.17C160.803 201.07 161.511 199.044 162.345 198.232C162.773 197.815 163.235 197.753 163.697 197.894C163.856 198.189 164.032 198.502 164.231 198.842C164.25 198.873 164.27 198.907 164.288 198.938C164.471 199.248 164.659 199.563 164.871 199.903C167.987 204.938 174.176 213.111 179.744 216.445C180.82 217.089 181.76 217.958 182.342 219.068C183.249 220.796 182.688 221.757 180.891 221.834Z" fill="#25294D"/>
<path d="M157.992 212.674C157.992 212.674 168.401 222.365 180.889 221.835C182.685 221.758 183.247 220.797 182.34 219.069C181.758 217.959 180.818 217.089 179.742 216.445C178.868 215.922 177.979 215.269 177.089 214.538C174.396 215.789 172.807 218.407 172.807 218.407C165.607 216.371 156.929 210.151 156.929 210.151C156.074 208.042 154.614 206.312 153.417 205.139C151.003 209.197 151.839 211.091 157.992 212.674Z" fill="white"/>
<path d="M167.55 203.698C165.87 203.364 165.565 204.317 164.497 205.489C164.587 205.297 164.697 205.116 164.797 204.927C165.56 203.692 166.171 202.917 167.55 203.698Z" fill="white"/>
<path d="M168.466 205.019C166.56 204.745 166.561 205.841 165.218 207.104C166.159 205.44 166.637 204.163 168.466 205.019Z" fill="white"/>
<path d="M169.517 206.424C167.612 206.15 167.728 207.392 166.385 208.656C167.326 206.993 167.689 205.569 169.517 206.424Z" fill="white"/>
<path d="M162.547 204.245C163.563 204.274 164.47 203.666 165.065 202.919L165.161 203.094C163.839 203.175 162.093 203.244 161.244 201.989C160.903 201.318 160.91 200.248 161.684 199.889C162.451 199.662 163.154 200.162 163.757 200.52C164.532 201.035 165.224 201.632 165.878 202.284L165.497 202.417C165.632 201.833 165.963 197.399 166.957 198.351C167.359 199.145 167.083 199.861 166.979 200.642C166.828 201.363 166.642 202.07 166.407 202.766L166.362 202.656C166.516 202.729 166.752 202.731 166.955 202.698C167.603 202.588 168.178 202.23 168.714 201.858C168.038 202.395 167.196 203.07 166.272 202.821L166.205 202.795C166.391 202.066 166.57 201.329 166.689 200.589C166.804 199.993 166.872 198.987 166.686 198.594C166.294 199.642 166.088 201.212 165.942 202.468L165.891 202.916L165.56 202.601C164.895 202.025 162.14 199.256 161.519 200.643C160.927 202.696 163.687 202.971 165.139 202.879L165.403 202.867C164.705 203.699 163.666 204.383 162.547 204.245Z" fill="white"/>
<path d="M164.434 138.666C164.434 138.666 168.863 125.778 170.997 129.651C172.002 131.474 181.479 140.466 189.219 141.43C189.219 141.43 191.649 144.674 179.474 144.153C167.299 143.632 163.54 142.851 164.434 138.666Z" fill="#C77B4E"/>
<path d="M164.689 137.953L163.676 129.738C163.676 129.738 169.839 124.302 170.577 129.119L164.689 137.953Z" fill="#C77B4E"/>
<path d="M192.443 144.877C182.056 148.942 170.464 143.777 170.464 143.777C164.776 144.226 163.539 142.852 164.434 138.667C164.434 138.667 164.46 138.548 164.508 138.34C164.542 138.359 164.577 138.378 164.611 138.396C166.984 139.671 169.829 137.785 169.623 135.1C169.474 133.17 169.485 131.256 169.953 130.328C170.194 129.852 170.566 129.667 170.996 129.652V129.652C171.216 129.855 171.456 130.068 171.722 130.297C171.746 130.318 171.773 130.34 171.797 130.362C172.042 130.57 172.291 130.781 172.568 131.007C176.657 134.355 184.248 139.46 189.914 140.661C191.007 140.893 192.053 141.355 192.866 142.123C194.132 143.319 193.937 144.293 192.443 144.877Z" fill="#25294D"/>
<path d="M170.463 143.778C170.463 143.778 182.056 148.942 192.442 144.878C193.936 144.293 194.131 143.32 192.866 142.123C192.053 141.355 191.007 140.893 189.914 140.662C189.024 140.473 188.085 140.18 187.122 139.821C185.211 141.657 184.629 144.327 184.629 144.327C177.961 144.694 168.836 141.957 168.836 141.957C167.503 140.425 165.77 139.388 164.42 138.744C163.557 142.867 164.812 144.223 170.463 143.778Z" fill="white"/>
<path d="M177.185 133.51C175.268 133.466 174.023 134.992 173.038 136.428C173.105 136.208 173.195 135.997 173.275 135.778C173.912 134.331 175.524 132.937 177.185 133.51Z" fill="white"/>
<path d="M179.138 134.892C176.981 134.953 175.383 136.427 174.109 138.011C174.869 136.077 176.967 134.323 179.138 134.892Z" fill="white"/>
<path d="M180.694 136.324C178.537 136.385 176.939 137.859 175.665 139.443C176.426 137.508 178.524 135.755 180.694 136.324Z" fill="white"/>
<path d="M171.651 135.218C172.549 135.098 173.261 134.432 173.678 133.689L173.788 133.83C172.635 134.09 171.108 134.402 170.18 133.419C169.783 132.876 169.636 131.933 170.265 131.506C170.908 131.197 171.599 131.535 172.181 131.765C172.938 132.107 173.633 132.533 174.303 133.014L173.986 133.185C174.021 132.651 173.676 128.698 174.688 129.395C175.156 130.036 175.016 130.706 175.036 131.409C175.007 132.065 174.944 132.715 174.837 133.362L174.782 133.271C174.928 133.313 175.136 133.282 175.311 133.223C175.865 133.033 176.32 132.635 176.739 132.231C176.221 132.801 175.576 133.516 174.726 133.43L174.664 133.417C174.722 132.747 174.774 132.074 174.773 131.404C174.789 130.863 174.704 129.968 174.484 129.648C174.289 130.627 174.332 132.039 174.385 133.166L174.405 133.568L174.068 133.337C173.399 132.926 170.575 130.883 170.228 132.193C170.001 134.087 172.471 133.933 173.737 133.642L173.968 133.594C173.473 134.427 172.656 135.179 171.651 135.218Z" fill="white"/>
<path d="M110.741 103.743C110.741 103.743 161.397 64.8177 171.133 74.3707C174.352 77.529 171.209 128.487 171.209 128.487L163.163 132.215C163.163 132.215 156.502 104.471 160.211 95.234L138.266 123.747L110.741 103.743Z" fill="#8471F4"/>
<path d="M130.261 101.072C130.261 101.072 133.375 113.168 132.979 117.534L107.896 105.094L130.261 101.072Z" fill="#8471F4"/>
<path d="M145.652 109.303C145.056 109.713 144.416 110.068 143.744 110.373C140.548 111.825 136.766 110.629 134.869 107.676L131.571 102.538C134.439 107.911 135.996 112.25 136.413 113.581C129.166 111.321 119.674 108.72 119.674 108.72L138.267 123.747L160.211 95.2337L162.06 90.1695C162.06 90.1695 151.319 105.399 145.652 109.303Z" fill="#25294D"/>
<path d="M97.4067 101.724C97.4067 101.724 84.5017 125.823 93.3491 133.84C102.197 141.857 154.082 142.173 154.082 142.173L154.961 198.966H165.064C165.064 198.966 172.599 133.007 171.209 128.487C169.818 123.967 115.695 107.491 115.695 107.491L97.4067 101.724Z" fill="#8471F4"/>
<path d="M134.2 67.0903L134.852 82.6767C134.852 82.6767 132.422 85.9428 128.289 85.7176L121.552 66.0908L134.2 67.0903Z" fill="#C77B4E"/>
<path d="M139.894 86.8612C139.894 86.8612 130.726 93.8395 129.312 93.1013C127.898 92.3631 128.202 88.4951 128.202 88.4951C128.202 88.4951 126.34 81.992 130.796 82.4481C135.251 82.9043 139.894 82.678 139.894 82.678V86.8612H139.894Z" fill="#C77B4E"/>
<path d="M94.7658 21.1889C94.7658 21.1889 92.0418 33.9867 100.306 30.8231L102.517 31.675C102.735 31.4914 92.2634 39.6907 93.9631 21.4685L94.7658 21.1889Z" fill="#593119"/>
<path d="M126.143 47.968L113.723 43.6509L97.7249 43.9696L86.4574 50.6884C82.914 53.0582 82.1823 58.2088 82.2943 63.6794C82.3542 66.5841 82.6676 69.4781 83.1498 72.3432L84.4443 80.0395C84.4443 80.0395 94.1904 77.4482 103.45 76.3036L89.9883 74.4913L91.4943 84.0758L96.9198 103.227C96.9198 103.227 110.026 113.642 130.262 101.075L128.924 81.5632C128.924 81.5632 136.155 79.6165 132.98 70.2602C132.98 70.2602 136.226 68.0966 141.222 65.09C141.222 65.09 133.881 58.7675 130.704 52.4717C130.087 51.2507 127.42 48.4567 126.143 47.968Z" fill="#FDD501"/>
<path d="M129.727 89.684C129.898 89.6346 130.023 89.3645 130.005 89.0806C129.952 88.2033 128.655 67.5047 125.845 59.1742C125.763 58.9322 125.574 58.8605 125.422 59.0148C125.271 59.1692 125.214 59.4914 125.297 59.7343C128.048 67.8892 129.372 89.0469 129.385 89.2596C129.403 89.5442 129.555 89.7326 129.727 89.684Z" fill="#080200"/>
<path d="M104.674 75.4101C103.823 71.5373 102.483 67.8323 100.651 64.3156C101.497 68.1895 102.845 71.8922 104.674 75.4101Z" fill="#FDD501"/>
<path d="M91.9775 79.6367C106.53 87.0689 127.018 81.5491 127.018 81.5491L127.214 85.0878C127.214 85.0878 113.197 86.6441 104.355 84.8656C95.5138 83.0871 91.9775 79.6367 91.9775 79.6367Z" fill="#FDD501"/>
<path d="M97.7251 43.9683C97.7251 43.9683 100.038 43.5524 100.707 40.5482C101.287 37.9456 100.39 33.2043 98.6748 27.5015L111.444 29.6213C111.444 29.6213 111.573 42.9143 113.724 43.6502C116.272 48.9685 112.733 50.619 104.494 47.8653C102.802 47.3002 101.215 46.4601 99.7631 45.4239L97.7251 43.9683Z" fill="#C77B4E"/>
<path d="M111.071 33.473C111.071 33.473 111.026 36.4192 112.857 42.5473C103.878 42.1741 100.769 34.2675 100.769 34.2675L99.9876 33.1857C99.9876 33.1857 99.926 31.2525 99.7358 30.4794L111.071 33.473Z" fill="#915531"/>
<path d="M120.702 19.1044C120.702 19.1044 127.577 37.1909 115.834 42.0986C110.048 44.5169 98.1534 28.9607 96.9816 26.5697C95.8103 24.1786 93.4892 16.5753 98.0971 14.074C102.706 11.5721 115.157 7.34689 120.702 19.1044Z" fill="#C77B4E"/>
<path d="M109.558 21.9596C109.558 21.9596 111.365 19.7978 113.804 20.273C115.188 20.5425 114.342 21.5183 113.481 22.0136C112.621 22.5094 109.105 23.2689 109.558 21.9596Z" fill="#593119"/>
<path d="M130.807 57.6814C130.128 58.8455 129.573 60.0535 129.079 61.2881C129.663 62.835 130.256 64.3789 130.915 65.8961C131.546 67.3724 132.224 68.8304 132.978 70.2588C132.562 68.6983 132.07 67.1675 131.531 65.655C131 64.1395 130.407 62.6478 129.804 61.1601L129.807 61.4179C130.219 60.2022 130.57 58.9628 130.807 57.6814Z" fill="#FDD501"/>
<path d="M119.024 19.7472C119.024 19.7472 121.447 19.339 122.02 20.906C122.345 21.7947 121.239 21.9635 120.51 21.8249C119.781 21.6857 117.807 20.329 119.024 19.7472Z" fill="#593119"/>
<path d="M119.43 16.8632C119.43 16.8632 117.849 14.199 114.96 13.0384C114.375 12.8032 110.892 22.5766 101.823 23.4706L102.518 27.9257L96.954 29.4981C96.954 29.4981 97.3396 30.1936 96.1257 28.9376C94.9118 27.6817 87.6871 9.94886 106.848 10.2593C118.966 10.4554 119.43 16.8632 119.43 16.8632Z" fill="#593119"/>
<path d="M97.3278 31.8076C98.7514 33.7087 101.067 34.3799 102.5 33.307C103.933 32.2341 103.941 29.8229 102.518 27.9218C101.094 26.0207 98.7786 25.3494 97.3455 26.4223C95.9118 27.4958 95.9041 29.9065 97.3278 31.8076Z" fill="#C77B4E"/>
<path d="M97.9473 27.961C99.5694 28.4556 100.94 29.5345 101.29 31.1625L101.689 30.9451C101.018 30.4285 100.334 29.9278 99.5913 29.4906C100.287 30.3171 101.1 31.0517 101.895 31.7792L101.768 31.0795C101.551 29.291 99.7933 27.9112 97.9473 27.961Z" fill="#915531"/>
<path d="M116.076 25.5173C115.464 26.9415 113.96 28.3059 112.378 27.3254C111.921 27.0849 111.514 26.7721 111.162 26.4089C111.592 26.6731 112.023 26.9273 112.477 27.1121C113.985 27.8924 115.21 26.6518 116.076 25.5173Z" fill="#0A0604"/>
<path d="M119.137 25.0053C119.71 25.5948 120.844 27.0119 121.626 26.0539C121.821 25.7696 121.934 25.4094 122.079 25.0687C122.044 25.4396 121.983 25.8081 121.804 26.1629C120.951 27.3828 119.547 25.8898 119.137 25.0053Z" fill="#0A0604"/>
<path d="M119.367 24.9192L121.603 28.9004C121.906 30.1191 120.274 30.7814 120.274 30.7814C120.274 30.7814 118.235 30.0492 118.208 29.7269C118.032 27.6575 117.647 24.0472 118.562 24.2166C119.054 24.3084 119.367 24.9192 119.367 24.9192Z" fill="#915531"/>
<path d="M120.21 30.1754C120.455 30.5184 120.005 29.5753 118.64 30.0024L120.21 30.1754Z" fill="#29160B"/>
<path d="M111.684 31.2635C111.684 31.2635 114.084 32.8388 117.468 33.1771C117.468 33.1771 115.045 35.7666 112.816 34.6819C110.921 33.7595 111.684 31.2635 111.684 31.2635Z" fill="#593119"/>
<path d="M111.576 32.9463C111.68 33.601 112.002 34.2876 112.816 34.6839C113.447 34.9914 114.092 34.9979 114.695 34.8581C113.985 33.5346 112.601 33.0897 111.576 32.9463Z" fill="#CC76BB"/>
<path d="M103.767 81.7833C103.902 81.7501 103.988 81.5973 103.959 81.4421C103.869 80.9625 101.73 69.649 99.031 65.1785C98.9525 65.0486 98.7969 65.0161 98.6831 65.1063C98.5696 65.1965 98.5413 65.3754 98.6202 65.5057C101.263 69.882 103.448 81.4465 103.47 81.5628C103.499 81.7184 103.632 81.8162 103.767 81.7833Z" fill="#080200"/>
<path d="M102.313 76.1434L104.399 85.3955L95.5896 102.396L87.7671 79.1743L102.313 76.1434Z" fill="#C77B4E"/>
<path d="M102.313 76.1434L104.262 84.6538C104.262 84.6538 98.004 91.074 97.501 94.4331C97.501 94.4331 99.4122 88.5135 102.467 83.9002L99.8405 76.6583L102.313 76.1434Z" fill="#915531"/>
<path d="M125.121 71.433C125.121 71.433 125.744 71.0509 122.601 69.1071C121.893 68.6693 120.981 68.7504 120.359 69.3038C115.982 73.1996 99.0905 88.3654 97.6852 91.6131C95.3771 96.9486 94.944 100.282 95.5886 102.401C95.7474 102.922 96.309 103.264 96.9174 103.224C99.2339 103.073 104.698 101.116 110.136 95.8135C118.282 87.8731 125.121 71.433 125.121 71.433Z" fill="#C77B4E"/>
<path d="M108.116 10.3041C108.116 10.3041 109.924 10.1738 110.185 8.60914C110.445 7.04452 105.727 8.69623 106.13 8.60914C106.534 8.52205 108.849 8.69623 109.517 5.74057C110.185 2.7849 99.667 4.61079 101.405 5.74057C103.144 6.87034 109.076 4.61079 104.675 1.13378C100.275 -2.34322 90.0399 3.04617 93.777 5.65407C97.5135 8.26197 94.3641 -0.517337 86.9758 4.26303C81.8779 7.56172 85.8461 14.7811 89.6708 14.2592C93.4956 13.7379 97.1486 9.9131 91.4973 12.3468C85.8461 14.7806 86.8046 21.9289 91.4973 19.7019C96.19 17.475 92.7154 16.6929 91.4973 18.6053C90.2793 20.5177 93.5821 21.859 95.7552 19.9715L108.116 10.3041Z" fill="#593119"/>
<path d="M108.116 10.3039C108.116 10.3039 97.2171 8.42172 93.791 20.2065C93.791 20.2065 98.9191 10.8691 108.116 10.3039Z" fill="#CC76BB"/>
<path d="M143.9 139.439C132.503 138.922 106.116 138.733 93.3481 133.843C102.196 141.86 154.081 142.177 154.081 142.177L151.253 135.898C151.524 137.691 150.452 139.737 143.9 139.439Z" fill="#25294D"/>
<path d="M151.253 135.895C151.053 134.569 150.12 133.381 150.12 133.381L151.253 135.895Z" fill="#25294D"/>
<path d="M122.602 69.1113C122.602 69.1113 133.409 72.3554 133.591 72.8886C133.772 73.4218 125.362 77.4143 123.436 77.6246C120.62 77.932 117.594 72.9816 117.594 72.9816L122.602 69.1113Z" fill="#C77B4E"/>
<path d="M128.921 72.1552C128.921 72.1552 135.448 72.583 135.766 73.0877C136.085 73.5925 140.762 76.6779 140.557 76.9131C139.605 78.0026 138.199 77.284 137.358 76.6329C134.637 74.525 127.194 74.4367 127.194 74.4367L128.921 72.1552Z" fill="#C77B4E"/>
<path d="M133.479 73.2389C133.479 73.2389 134.146 77.3913 132.07 77.9802C132.07 77.9802 131.087 79.4785 129.546 79.3748C129.546 79.3748 128.344 81.0869 126.861 80.7226C126.861 80.7226 123.222 81.2279 123.409 77.3735L133.479 73.2389Z" fill="#C77B4E"/>
<path d="M158.084 78.069L156.638 72.0883C156.638 72.0883 156.491 71.7489 156.183 71.8472C155.997 71.9065 139.959 77.7562 137.819 78.537C137.668 78.5921 137.551 78.7094 137.494 78.8599L135.515 84.0698C135.435 84.2801 135.471 84.5176 135.611 84.6948L135.977 85.1599C136.067 85.2742 136.219 85.321 136.358 85.2772L157.848 78.4861C158.025 78.4304 158.127 78.2479 158.084 78.069Z" fill="#B5B3AE"/>
<path d="M136.224 84.1293L156.98 77.1782C157.179 77.1113 157.298 76.9063 157.257 76.6996L156.306 71.9719C156.29 71.8925 156.207 71.8457 156.131 71.8736L137.765 78.5574C137.65 78.5989 137.56 78.6884 137.517 78.8015L135.701 83.5842C135.575 83.9142 135.889 84.2413 136.224 84.1293Z" fill="#FDF9F3"/>
<path d="M136.81 83.9472L155.419 77.7L154.416 72.4954L139.008 78.1603L136.81 83.9472Z" fill="#25294D"/>
<path d="M156.165 74.3003C156.209 74.4401 156.033 74.6208 155.772 74.7032C155.512 74.7855 155.265 74.7387 155.22 74.5989C155.176 74.4585 155.351 74.2784 155.612 74.196C155.874 74.1137 156.12 74.1599 156.165 74.3003Z" fill="#B5B3AE"/>
<path d="M141.269 86.7047C141.269 86.7047 151.099 82.2442 151.392 81.8159C151.684 81.3875 151.754 74.8589 150.562 74.4596C149.371 74.0603 149.255 74.4969 149.162 78.2494C149.068 82.0019 148.577 80.7655 148.577 80.7655C148.577 80.7655 143.273 81.4006 142.185 81.0487C142.185 81.0487 139.7 82.9468 137.941 84.2289C137.079 84.8569 137.018 85.8681 137.79 86.572C138.68 87.3848 139.393 87.662 141.269 86.7047Z" fill="#C77B4E"/>
<path d="M148.578 80.7626C148.578 80.7626 149.07 81.999 149.163 78.2465C149.227 75.7091 149.301 74.6907 149.71 74.4188C149.616 76.1025 149.384 80.563 149.547 81.0286L148.47 81.3947L148.44 80.7792C148.522 80.7691 148.578 80.7626 148.578 80.7626Z" fill="#915531"/>
<path d="M146.346 83.1702C146.346 83.1702 147.443 79.1831 147.343 78.1019C147.243 77.0207 146.852 75.4264 146.913 75.0491C146.974 74.6717 148.086 73.9602 148.862 75.5201C149.637 77.0799 149.492 78.231 149.407 78.7832C149.323 79.3353 148.535 81.8088 148.535 81.8088L146.346 83.1702Z" fill="#C77B4E"/>
<path d="M143.719 84.4301C143.719 84.4301 144.816 80.443 144.716 79.3618C144.616 78.2806 144.226 76.6863 144.286 76.309C144.347 75.9316 145.459 75.2201 146.235 76.7799C147.01 78.3398 146.865 79.4909 146.78 80.0431C146.696 80.5952 145.908 83.0687 145.908 83.0687L143.719 84.4301Z" fill="#C77B4E"/>
<path d="M140.707 86.0844C140.707 86.0844 142.374 82.1157 142.186 81.0463C141.999 79.977 141.479 78.4118 141.509 78.0332C141.539 77.6546 142.596 76.8922 143.499 78.4041C144.402 79.916 144.349 81.0671 144.309 81.6204C144.269 82.1737 143.679 84.6714 143.679 84.6714L140.707 86.0844Z" fill="#C77B4E"/>
<path d="M134.773 80.7702C134.773 80.7702 131.474 83.012 131.179 85.2946L134.853 82.6778L134.773 80.7702Z" fill="#915531"/>
<path d="M71.0457 215.583L108.857 142.63L100.654 136.768L63.001 210.376L66.4389 212.853L71.0457 215.583Z" fill="#D6D3CE"/>
<path d="M19.2285 190.942L54.613 123.288L100.656 136.767L63.0024 210.376L19.2285 190.942Z" fill="#89B3D6"/>
<path d="M56.5118 128.838L25.4106 188.303L61.3638 204.265L94.2896 139.898L56.5118 128.838Z" fill="#6A89B8"/>
<path d="M56.1868 130.838L26.6313 187.348L60.7977 202.517L92.0873 141.349L56.1868 130.838Z" fill="#89B3D6"/>
<path d="M19.2285 190.942L20.4703 191.488L64.0416 210.833L63.0024 210.377L19.2285 190.942Z" fill="#3C5947"/>
<path d="M19.3345 191.03L23.1083 193.818L70.9084 215.599L63.9028 210.848L19.3345 191.03Z" fill="#D6D3CE"/>
<path d="M22.3135 190.223L55.8993 125.838C55.8993 125.838 30.687 171.135 22.3135 190.223Z" fill="#6A89B8"/>
<path d="M63.0005 210.375L64.4336 211.255L102.172 137.851L100.654 136.766L63.0005 210.375Z" fill="#6A89B8"/>
<path d="M69.895 214.716L71.2327 215.681L108.878 142.626L107.36 141.542L69.895 214.716Z" fill="#6A89B8"/>
<path d="M71.2333 215.683L23.0575 193.899C23.0575 193.899 19.7529 191.785 19.228 190.941L22.9918 193.631L69.8955 214.719L71.2333 215.683Z" fill="#6A89B8"/>
<path d="M64.4351 211.255L19.6552 191.196C19.6552 191.196 22.8028 193.656 23.1766 193.952L23.0575 193.899C23.0575 193.899 19.8999 191.993 19.228 190.941L63.002 210.375L64.4351 211.255Z" fill="#6A89B8"/>
<path d="M65.6601 126.428C65.6601 126.428 64.8028 126.253 63.5925 131.783C62.3822 137.314 59.9958 139.656 59.6895 139.691L58.3802 138.089L55.4897 138.461C55.4897 138.461 57.9726 135.661 58.542 133.686C59.718 129.609 61.0983 125.76 61.4805 125.222C61.6985 124.915 65.6601 126.428 65.6601 126.428Z" fill="#F0ECE7"/>
</svg>
