<svg width="188" height="202" viewBox="0 0 188 202" fill="none" xmlns="http://www.w3.org/2000/svg">
<path d="M140.045 30.4245C140.045 30.4245 135.774 30.1796 137.141 25.7795C138.507 21.3798 143.613 25.4388 143.613 25.4388C143.613 25.4388 146.725 24.6084 148.009 25.4388C149.292 26.2693 148.327 28.7837 148.327 28.7837C148.327 28.7837 152.817 27.3919 154.118 29.7937C155.42 32.1955 155.331 37.4035 160.202 36.483C165.073 35.5626 169.132 27.4478 176.321 32.2814C183.509 37.115 182.456 43.312 179.233 49.1992C176.011 55.0864 170.743 57.999 161.944 57.1932C153.144 56.3874 145.794 47.2782 145.689 45.605C145.584 43.9321 140.045 30.4245 140.045 30.4245Z" fill="#055A43"/>
<path d="M170.247 101.315C170.247 101.315 181.03 84.3347 186.235 91.7715C191.441 99.2078 174.337 135.894 161.695 143.702H105.551L107.034 122.632L170.247 101.315Z" fill="#080200"/>
<path d="M159.623 198.894L147.885 143.114C147.852 142.955 147.954 142.8 148.113 142.766C148.27 142.731 148.427 142.834 148.461 142.993L160.199 198.773C160.233 198.932 160.131 199.087 159.972 199.121C159.817 199.155 159.658 199.055 159.623 198.894Z" fill="#080200"/>
<path d="M111.563 199.121C111.404 199.087 111.302 198.932 111.335 198.773L123.073 142.993C123.107 142.834 123.265 142.731 123.421 142.766C123.581 142.8 123.682 142.955 123.649 143.114L111.911 198.894C111.877 199.055 111.718 199.155 111.563 199.121Z" fill="#080200"/>
<path d="M119.909 158.034C119.98 157.7 119.063 157.754 135.774 157.772C143.558 157.782 151.34 157.8 151.34 157.8C151.503 157.801 151.634 157.933 151.634 158.095C151.633 158.381 151.299 158.406 151.338 158.389C140.897 158.364 121.053 158.331 120.25 158.384C120.047 158.423 119.865 158.24 119.909 158.034Z" fill="#080200"/>
<path d="M152.877 165.696H118.659C118.497 165.696 118.365 165.564 118.365 165.401C118.365 165.239 118.497 165.107 118.659 165.107H152.877C153.039 165.107 153.171 165.239 153.171 165.401C153.171 165.564 153.039 165.696 152.877 165.696Z" fill="#080200"/>
<path d="M1.19906 130.997L35.8019 130.411C35.8019 130.411 34.3596 98.1654 34.2536 95.1168C34.1476 92.0682 28.6873 83.1715 16.2074 82.952C3.72749 82.7322 0.260527 88.4521 0.026305 89.8497C-0.207917 91.2476 1.19906 130.997 1.19906 130.997Z" fill="#04BE7D"/>
<path d="M82.454 145.302L32.3654 151.035L31.8028 128.399L31.6118 120.707L79.2887 115.343C83.1032 151.446 82.3546 144.361 82.454 145.302Z" fill="#E4AFDE"/>
<path d="M80.0645 122.695C64.1308 125.685 47.9941 127.591 31.8028 128.399L31.6118 120.707L79.2887 115.343L80.0645 122.695Z" fill="#C978AB"/>
<path d="M36.918 150.496L35.5078 120.251C35.5 120.089 35.6257 119.951 35.788 119.943C35.9573 119.935 36.088 120.061 36.0958 120.223L37.5061 150.468C37.5139 150.63 37.3881 150.768 37.2262 150.776C37.0573 150.782 36.9254 150.653 36.918 150.496Z" fill="#080200"/>
<path d="M42.9859 149.753L41.576 119.508C41.5682 119.346 41.694 119.208 41.8563 119.201C42.0248 119.192 42.1563 119.319 42.1641 119.48L43.5739 149.725C43.5817 149.887 43.456 150.025 43.2937 150.033C43.1248 150.04 42.9929 149.911 42.9859 149.753Z" fill="#080200"/>
<path d="M49.2141 148.915L47.8038 118.67C47.796 118.508 47.9218 118.37 48.0837 118.362C48.2526 118.358 48.3837 118.48 48.3915 118.643L49.8017 148.887C49.8095 149.05 49.6838 149.188 49.5219 149.195C49.3534 149.202 49.2215 149.072 49.2141 148.915Z" fill="#080200"/>
<path d="M55.7446 148.357L54.3347 118.112C54.3269 117.95 54.4527 117.812 54.6146 117.804C54.7822 117.796 54.9145 117.922 54.9223 118.084L56.3322 148.329C56.34 148.491 56.2142 148.629 56.0523 148.637C55.8838 148.643 55.752 148.514 55.7446 148.357Z" fill="#080200"/>
<path d="M62.2591 147.405L60.8493 117.161C60.8312 116.776 61.4184 116.738 61.4369 117.133L62.8468 147.378C62.8546 147.54 62.7288 147.678 62.5669 147.686C62.3984 147.692 62.2665 147.563 62.2591 147.405Z" fill="#080200"/>
<path d="M80.9353 12.53L10.3954 20.9265L22.5639 123.154L93.1037 114.757L80.9353 12.53Z" fill="white"/>
<path d="M22.2754 123.145L10.1033 20.9197C10.0839 20.7582 10.199 20.6119 10.3605 20.5926L80.8991 12.1935C81.0619 12.1729 81.2069 12.2896 81.2262 12.4507L93.3988 114.677C93.4078 114.754 93.3861 114.832 93.3376 114.894C93.2891 114.955 93.2188 114.995 93.1412 115.004L22.6026 123.403C22.4464 123.423 22.2952 123.31 22.2754 123.145ZM10.7225 21.1424L22.8253 122.784L92.78 114.454L80.6768 12.8123L10.7225 21.1424Z" fill="#080200"/>
<path d="M17.5653 42.1785L16.8503 36.1759C16.831 36.0132 16.9477 35.8677 17.1075 35.8488L24.2599 34.997C24.4226 34.9777 24.5677 35.0931 24.587 35.2542L25.302 41.2569C25.3213 41.4196 25.2046 41.5651 25.0447 41.584L17.8923 42.4358C17.7362 42.4559 17.585 42.3437 17.5653 42.1785ZM17.4695 36.3986L18.115 41.8169L24.6832 41.035L24.0376 35.6166L17.4695 36.3986Z" fill="#080200"/>
<path d="M26.0729 46.3986L17.8831 47.3735L18.7013 54.2473L26.8911 53.2725L26.0729 46.3986Z" fill="#EDD602"/>
<path d="M27.4215 57.6609L19.2318 58.6357L20.05 65.5095L28.2397 64.5347L27.4215 57.6609Z" fill="#01BC6B"/>
<path d="M29.7918 69.6344L20.8622 70.6973L21.7543 78.1918L30.6839 77.1289L29.7918 69.6344Z" fill="#1995E4"/>
<path d="M31.2431 82.339L22.3135 83.4019L23.4316 92.7946L32.3611 91.7317L31.2431 82.339Z" fill="#00C077"/>
<path d="M25.5535 108.902L24.6084 100.967C24.589 100.804 24.7057 100.659 24.8656 100.64C34.3191 99.5469 33.8306 99.4944 34.0118 99.6378C34.1938 99.7812 34.0462 99.4701 35.0665 107.769C35.0859 107.93 34.9704 108.077 34.8093 108.096L25.8801 109.16C25.7244 109.179 25.5732 109.067 25.5535 108.902ZM25.2276 101.189L26.1028 108.54L34.4474 107.546L33.5721 100.196L25.2276 101.189Z" fill="#080200"/>
<path d="M80.9353 12.53L10.3954 20.9265L11.4137 29.4811L81.9535 21.0845L80.9353 12.53Z" fill="#274AA0"/>
<path d="M11.1219 29.4737L10.1032 20.9192C10.0839 20.7565 10.2006 20.6115 10.3605 20.5921L80.8991 12.193C81.0656 12.1745 81.2073 12.2925 81.2262 12.4502L82.2448 21.0047C82.2642 21.1662 82.1487 21.3125 81.9876 21.3318L11.449 29.7309C11.2929 29.751 11.1416 29.6385 11.1219 29.4737ZM10.7225 21.1419L11.6717 29.1116L81.6257 20.782L80.6768 12.8119L10.7225 21.1419Z" fill="#080200"/>
<path d="M30.3947 35.3236C30.3754 35.1621 30.4909 35.0159 30.652 34.9965L53.6587 32.257C53.8215 32.2368 53.9665 32.3531 53.9858 32.5142C54.0051 32.6757 53.8896 32.822 53.7286 32.8413L30.7218 35.5809C30.5656 35.6006 30.4145 35.4884 30.3947 35.3236Z" fill="#080200"/>
<path d="M60.8742 31.6965C60.8549 31.535 60.9704 31.3887 61.1315 31.3694L75.4128 29.6691C75.5763 29.6493 75.7206 29.7648 75.7399 29.9263C75.7593 30.0878 75.6438 30.2341 75.4827 30.2534L61.2013 31.9542C61.0451 31.9739 60.894 31.8613 60.8742 31.6965Z" fill="#080200"/>
<path d="M31.3424 39.2838C31.3231 39.1223 31.4385 38.976 31.5996 38.9567L54.6064 36.2171C54.7683 36.1966 54.9142 36.3128 54.9335 36.4743C54.9528 36.6358 54.8374 36.7821 54.6763 36.8014L31.6695 39.541C31.5134 39.5611 31.3621 39.4486 31.3424 39.2838Z" fill="#080200"/>
<path d="M31.9273 46.3902C31.908 46.2287 32.0235 46.0824 32.1846 46.0631L77.4014 40.6789C77.5641 40.6575 77.7091 40.7746 77.7284 40.9361C77.7477 41.0976 77.6327 41.2439 77.4712 41.2632L32.2545 46.6474C32.0988 46.6676 31.9471 46.5554 31.9273 46.3902Z" fill="#080200"/>
<path d="M32.2806 50.3168C32.2613 50.1553 32.3764 50.009 32.5378 49.9897L63.1444 46.3453C63.3063 46.3251 63.4523 46.4415 63.4716 46.6025C63.4909 46.764 63.3758 46.9103 63.2143 46.9296L32.6077 50.574C32.4515 50.5942 32.3003 50.4816 32.2806 50.3168Z" fill="#080200"/>
<path d="M33.5054 57.6564C33.4844 57.4953 33.5982 57.3478 33.7593 57.3269L78.7607 51.519C78.9193 51.4955 79.0693 51.6118 79.0902 51.7729C79.1112 51.934 78.9974 52.0815 78.8363 52.1025L33.8349 57.9104C33.6775 57.9313 33.5267 57.8204 33.5054 57.6564Z" fill="#080200"/>
<path d="M33.9626 61.5794C33.9417 61.4183 34.0555 61.2708 34.2165 61.2499L65.0254 57.2739C65.1857 57.2525 65.3336 57.3667 65.355 57.5278C65.3759 57.6888 65.262 57.8364 65.1009 57.8573L34.2922 61.8334C34.1348 61.8547 33.984 61.7433 33.9626 61.5794Z" fill="#080200"/>
<path d="M35.5106 68.5436C35.4896 68.3825 35.6034 68.235 35.7645 68.214L79.8411 62.5257C80.0017 62.5023 80.1497 62.6186 80.1706 62.7797C80.1916 62.9408 80.0777 63.0883 79.9166 63.1092L35.8402 68.7979C35.6828 68.8185 35.532 68.7071 35.5106 68.5436Z" fill="#080200"/>
<path d="M36.105 72.2952C36.084 72.1341 36.1978 71.9866 36.3589 71.9657L66.073 68.1306C66.232 68.1076 66.3816 68.2235 66.4026 68.3845C66.4235 68.5456 66.3097 68.6931 66.1487 68.7141L36.4345 72.5492C36.2771 72.5701 36.1259 72.4592 36.105 72.2952Z" fill="#080200"/>
<path d="M36.2721 75.6372C36.2511 75.4757 36.3649 75.3286 36.526 75.3076L47.8377 73.8476C47.9971 73.8246 48.1463 73.9405 48.1673 74.1016C48.1882 74.2627 48.0744 74.4102 47.9134 74.4312L36.6016 75.8911C36.4443 75.9121 36.2934 75.8011 36.2721 75.6372Z" fill="#080200"/>
<path d="M37.6424 81.8398C37.6215 81.6783 37.7354 81.5312 37.8965 81.5102L82.4175 75.7644C82.5774 75.7414 82.7257 75.8573 82.7471 76.0184C82.7676 76.1798 82.6538 76.327 82.4932 76.3479L37.9724 82.0938C37.8146 82.1151 37.6638 82.0037 37.6424 81.8398Z" fill="#080200"/>
<path d="M37.9621 85.8646C37.9412 85.7031 38.055 85.556 38.2161 85.5351L82.7372 79.7892C82.8938 79.7666 83.0458 79.8821 83.0668 80.0432C83.0873 80.2042 82.9734 80.3518 82.8124 80.3727L38.2921 86.1185C38.1339 86.1399 37.9835 86.0286 37.9621 85.8646Z" fill="#080200"/>
<path d="M38.2821 89.8897C38.2611 89.7282 38.3749 89.5811 38.536 89.5602L60.4769 86.7286C60.6375 86.7056 60.7855 86.8214 60.8064 86.9825C60.8274 87.1436 60.7135 87.2911 60.5524 87.3121L38.6111 90.1437C38.4542 90.1651 38.3035 90.0537 38.2821 89.8897Z" fill="#080200"/>
<path d="M39.7513 98.7523C39.7304 98.5908 39.8442 98.4433 40.0052 98.4228L84.5259 92.6769C84.6841 92.6555 84.8345 92.7698 84.8555 92.9309C84.876 93.092 84.7622 93.2395 84.6011 93.2604L40.0805 99.0063C39.9231 99.0272 39.7723 98.9163 39.7513 98.7523Z" fill="#080200"/>
<path d="M40.0701 102.779C40.0491 102.618 40.1629 102.47 40.324 102.45L84.8446 96.7037C85.002 96.6827 85.1528 96.7966 85.1742 96.9577C85.1947 97.1187 85.0814 97.2663 84.9199 97.2872L40.3996 103.033C40.2422 103.054 40.0914 102.943 40.0701 102.779Z" fill="#080200"/>
<path d="M40.391 106.805C40.37 106.643 40.4839 106.496 40.645 106.475L62.5857 103.643C62.7448 103.62 62.8943 103.736 62.9153 103.897C62.9363 104.058 62.8225 104.206 62.6614 104.227L40.7205 107.059C40.5627 107.08 40.4119 106.969 40.391 106.805Z" fill="#080200"/>
<path d="M61.8219 35.6566C61.8026 35.4951 61.9176 35.3489 62.0791 35.3296L76.3605 33.6292C76.5228 33.6091 76.6683 33.7253 76.6876 33.8864C76.7069 34.0479 76.5918 34.1942 76.4304 34.2135L62.1489 35.9143C61.9928 35.9336 61.8416 35.8214 61.8219 35.6566Z" fill="#080200"/>
<path d="M21.5226 25.8976C21.5226 26.8731 20.732 27.6637 19.7565 27.6637C18.781 27.6637 17.9904 26.8731 17.9904 25.8976C17.9904 24.922 18.781 24.1315 19.7565 24.1315C20.732 24.1315 21.5226 24.922 21.5226 25.8976Z" fill="#080200"/>
<path d="M29.9658 24.6609C29.9658 25.6364 29.1752 26.427 28.1997 26.427C27.2242 26.427 26.4335 25.6364 26.4335 24.6609C26.4335 23.6854 27.2242 22.8948 28.1997 22.8948C29.1752 22.8948 29.9658 23.6854 29.9658 24.6609Z" fill="#080200"/>
<path d="M65.8511 21.1258C65.8511 22.1013 65.0605 22.8919 64.0849 22.8919C63.1094 22.8919 62.3188 22.1013 62.3188 21.1258C62.3188 20.1503 63.1094 19.3597 64.0849 19.3597C65.0605 19.3597 65.8511 20.1503 65.8511 21.1258Z" fill="#080200"/>
<path d="M74.2942 19.8868C74.2942 20.8623 73.5036 21.6529 72.5281 21.6529C71.5526 21.6529 70.762 20.8623 70.762 19.8868C70.762 18.9112 71.5526 18.1207 72.5281 18.1207C73.5036 18.1207 74.2942 18.9112 74.2942 19.8868Z" fill="#080200"/>
<path d="M18.993 24.319C18.9827 24.2947 17.955 21.8728 16.5488 20.1519C15.3966 18.7424 14.3656 16.5304 14.8246 15.0055C15.1829 13.8163 16.6372 13.0492 17.8182 13.714C19.8029 14.8313 20.962 19.3912 21.0101 19.5852C21.0496 19.743 20.9538 19.9024 20.796 19.9419C20.6387 19.9813 20.4788 19.8852 20.4394 19.7278C20.4279 19.683 19.2942 15.22 17.5293 14.2269C16.7107 13.7662 15.6502 14.3053 15.388 15.1753C15.0124 16.4224 15.9402 18.4782 17.0041 19.7796C18.4653 21.5675 19.4923 23.9886 19.5354 24.0905C19.5987 24.2405 19.528 24.4127 19.3784 24.4759C19.2255 24.5396 19.0554 24.4669 18.993 24.319Z" fill="#080200"/>
<path d="M27.5591 23.2069C27.5489 23.1827 26.5212 20.7607 25.115 19.0402C23.9628 17.6304 22.9318 15.4184 23.3908 13.8935C23.7499 12.7018 25.2058 11.9379 26.3843 12.602C28.369 13.7193 29.5278 18.2792 29.5763 18.4732C29.6157 18.6309 29.52 18.7904 29.3622 18.8298C29.204 18.8689 29.045 18.7731 29.0056 18.6157C28.9941 18.5709 27.8603 14.108 26.0958 13.1148C25.2794 12.6558 24.2172 13.1908 23.9546 14.0632C23.579 15.3099 24.5068 17.3662 25.5703 18.6675C27.0315 20.4554 28.0583 22.8761 28.1015 22.9784C28.1643 23.1284 28.0941 23.3006 27.9446 23.3639C27.7917 23.4271 27.6212 23.3548 27.5591 23.2069Z" fill="#080200"/>
<path d="M62.821 19.6698C62.8107 19.6455 61.783 17.2236 60.3769 15.5031C59.2247 14.0932 58.1936 11.8813 58.653 10.3564C59.0159 9.15117 60.496 8.38891 61.7255 9.06322C63.6609 10.125 64.7897 14.1845 64.8369 14.3566C64.8797 14.5132 64.7871 14.6751 64.6306 14.7178C64.4748 14.7622 64.3122 14.6685 64.269 14.5116C64.2583 14.4717 63.1595 10.5203 61.4419 9.57892C60.5654 9.09856 59.481 9.64714 59.2163 10.5257C58.8408 11.7724 59.7687 13.8286 60.8325 15.13C62.2937 16.9175 63.3206 19.3386 63.3637 19.4409C63.4266 19.5909 63.3564 19.7635 63.2068 19.8263C63.0581 19.8892 62.8847 19.821 62.821 19.6698Z" fill="#080200"/>
<path d="M71.2714 18.6242C71.2611 18.5999 70.2334 16.178 68.8273 14.4575C67.6751 13.0476 66.6441 10.8357 67.1031 9.31078C67.4667 8.10269 68.9473 7.34412 70.1755 8.01761C72.1113 9.07942 73.2401 13.1389 73.287 13.311C73.3297 13.4676 73.2372 13.6295 73.0806 13.6722C72.924 13.7166 72.7622 13.6229 72.719 13.466C72.7084 13.4265 71.6095 9.47472 69.8919 8.53331C69.0171 8.05377 67.9315 8.59989 67.6665 9.48007C67.2909 10.7272 68.2187 12.783 69.2825 14.0844C70.7438 15.8719 71.7706 18.293 71.8137 18.3953C71.877 18.5453 71.8064 18.7174 71.6568 18.7807C71.504 18.8448 71.3339 18.7721 71.2714 18.6242Z" fill="#080200"/>
<path d="M101.551 25.3917C104.761 24.0928 105.856 21.0089 106.228 19.1713C103.7 17.0513 102.309 14.223 102.309 11.1884C102.309 5.01935 108.187 0 115.411 0C122.637 0 128.516 5.01935 128.516 11.1884C128.516 18.9342 119.467 24.3427 110.959 21.7132C108.594 25.5894 101.962 25.9448 101.675 25.9584C101.343 25.9723 101.248 25.5146 101.551 25.3917ZM115.411 0.588434C108.511 0.588434 102.898 5.34356 102.898 11.1884C102.898 14.0969 104.261 16.8097 106.736 18.8282C106.819 18.8964 106.859 19.004 106.839 19.11C106.532 20.7599 105.656 23.5233 103.177 25.1928C105.314 24.851 109.095 23.8812 110.566 21.2189C110.634 21.0952 110.78 21.0381 110.915 21.0816C119.076 23.7514 127.928 18.6215 127.928 11.1884C127.928 5.34397 122.313 0.588434 115.411 0.588434Z" fill="#080200"/>
<path d="M109.256 12.6662L113.829 17.8754C113.829 17.8754 122.618 8.17242 122.538 8.01339C122.458 7.85437 120.59 5.66705 120.59 5.66705L113.392 13.3023L110.966 10.28L109.256 12.6662Z" fill="#FED70D"/>
<path d="M123.068 198.057L74.92 200.432C74.92 200.393 73.693 196.387 75.7254 191.501C76.8878 188.7 80.4846 187.165 83.3302 186.37C86.5999 185.452 89.6439 183.854 92.2984 181.735C95.3671 179.285 97.7763 176.926 98.6639 174.774L118.043 173.012C119.367 172.892 120.541 173.857 120.678 175.178C120.801 176.351 120.046 169.131 123.068 198.057Z" fill="#FBD604"/>
<path d="M123.172 198.768L74.9191 201.148C74.9191 201.148 74.4876 199 74.5645 196.816L122.74 194.932L123.172 198.768Z" fill="#303769"/>
<path d="M120.198 185.219C120.739 182.927 119.32 180.63 117.028 180.089C114.736 179.548 112.439 180.967 111.898 183.259C111.356 185.551 112.776 187.848 115.068 188.389C117.36 188.93 119.657 187.511 120.198 185.219Z" fill="#303769"/>
<path d="M90.7823 189.552L86.7466 185.376C86.6336 185.259 86.6366 185.072 86.7537 184.96C86.8708 184.847 87.0577 184.85 87.1699 184.967L91.2055 189.144C91.3185 189.26 91.3156 189.447 91.1985 189.56C91.0818 189.672 90.8949 189.669 90.7823 189.552Z" fill="#080200"/>
<path d="M94.1324 187.686L89.5585 183.757C89.4352 183.651 89.4208 183.465 89.5269 183.342C89.6329 183.218 89.8194 183.205 89.9419 183.311L94.5157 187.24C94.639 187.346 94.6534 187.531 94.5474 187.655C94.4414 187.778 94.2549 187.792 94.1324 187.686Z" fill="#080200"/>
<path d="M95.6806 186.382L91.3734 182.514C91.2522 182.405 91.2424 182.219 91.3513 182.098C91.4597 181.978 91.6459 181.968 91.7667 182.076L96.0739 185.944C96.1951 186.052 96.2049 186.238 96.0961 186.359C95.9884 186.48 95.8027 186.491 95.6806 186.382Z" fill="#080200"/>
<path d="M97.5798 184.934L93.7312 180.559C93.624 180.436 93.6359 180.25 93.7579 180.143C93.8803 180.036 94.0657 180.048 94.1733 180.169L98.0219 184.544C98.1292 184.666 98.1173 184.853 97.9953 184.96C97.8724 185.068 97.6867 185.054 97.5798 184.934Z" fill="#080200"/>
<path d="M100.091 183.527L95.8392 178.582C95.7332 178.458 95.7472 178.273 95.8701 178.167C95.9926 178.061 96.1787 178.074 96.2851 178.198L100.537 183.143C100.643 183.267 100.629 183.452 100.506 183.558C100.384 183.664 100.198 183.651 100.091 183.527Z" fill="#080200"/>
<path d="M102.58 180.165L96.9277 177.568C96.7802 177.501 96.7157 177.326 96.783 177.178C96.8513 177.03 97.0271 176.967 97.1734 177.033L102.825 179.63C102.973 179.698 103.038 179.872 102.97 180.02C102.902 180.168 102.728 180.233 102.58 180.165Z" fill="#080200"/>
<path d="M95.6637 178.866C92.9492 177.672 87.2182 174.594 89.378 172.55C91.4527 170.585 95.4213 175.157 97.0436 177.414C97.1381 177.546 97.1081 177.73 96.9762 177.825C96.8439 177.919 96.6602 177.889 96.5653 177.758C95.2475 175.918 91.424 171.425 89.7828 172.977C88.1938 174.481 93.903 177.449 95.9009 178.328C96.05 178.393 96.1174 178.567 96.0517 178.716C95.9851 178.865 95.8108 178.931 95.6637 178.866Z" fill="#080200"/>
<path d="M116.262 173.174C116.262 173.174 115.312 163.131 115.312 163.038C115.312 162.945 95.8763 166.415 95.8763 166.415L98.5953 174.933L116.262 173.174Z" fill="#1C345A"/>
<path d="M63.5495 193.217L19.3649 173.939C19.3851 173.898 20.0643 169.77 24.0572 166.297C26.3435 164.305 30.2477 164.529 33.1504 165.082C36.4866 165.714 39.9243 165.635 43.2445 164.917C47.082 164.087 50.2896 163.045 52.041 161.512L70.1833 168.549C71.4218 169.031 72.0456 170.417 71.5804 171.66L64.6462 190.271L63.5495 193.217Z" fill="#FBD604"/>
<path d="M63.5495 193.215L19.3649 173.937C19.3649 173.937 19.6155 172.462 20.6552 170.54L64.6458 190.27L63.5495 193.215Z" fill="#303769"/>
<path d="M67.2378 179.535C66.1908 181.644 63.6321 182.505 61.5224 181.458C59.4128 180.411 58.5516 177.853 59.5986 175.743C60.6456 173.633 63.2047 172.772 65.3144 173.819C67.4236 174.866 68.2848 177.425 67.2378 179.535Z" fill="#303769"/>
<path d="M38.4115 171.245L36.6532 165.71C36.6039 165.555 36.6898 165.39 36.8447 165.341C37 165.291 37.1648 165.377 37.2141 165.532L38.9724 171.067C39.0217 171.222 38.9362 171.387 38.7809 171.437C38.6268 171.485 38.4608 171.401 38.4115 171.245Z" fill="#080200"/>
<path d="M42.2409 171.064L39.8909 165.511C39.8276 165.361 39.8975 165.189 40.0471 165.125C40.1975 165.063 40.3696 165.132 40.4329 165.282L42.7829 170.835C42.8462 170.985 42.7764 171.157 42.6268 171.221C42.4752 171.284 42.3038 171.212 42.2409 171.064Z" fill="#080200"/>
<path d="M44.2065 170.584L42.0681 165.204C42.0081 165.053 42.0817 164.882 42.2329 164.822C42.3837 164.762 42.5546 164.836 42.6146 164.987L44.753 170.366C44.813 170.517 44.7395 170.689 44.5882 170.749C44.4383 170.809 44.2665 170.735 44.2065 170.584Z" fill="#080200"/>
<path d="M46.5528 170.132L45.0505 164.503C45.0086 164.346 45.1018 164.185 45.2588 164.143C45.4166 164.102 45.5769 164.194 45.6188 164.351L47.1211 169.981C47.163 170.138 47.0697 170.299 46.9128 170.341C46.7537 170.383 46.5943 170.288 46.5528 170.132Z" fill="#080200"/>
<path d="M49.428 169.987L47.8176 163.667C47.7774 163.51 47.8727 163.349 48.0301 163.31C48.1875 163.269 48.3477 163.365 48.3876 163.522L49.998 169.842C50.0383 170 49.9429 170.16 49.7855 170.2C49.631 170.24 49.4687 170.147 49.428 169.987Z" fill="#080200"/>
<path d="M53.1522 168.081L49.2436 163.242C49.1417 163.115 49.1615 162.93 49.2876 162.828C49.4142 162.726 49.599 162.746 49.7013 162.872L53.61 167.711C53.7119 167.837 53.6922 168.022 53.566 168.125C53.4395 168.227 53.2545 168.207 53.1522 168.081Z" fill="#080200"/>
<path d="M47.5333 163.844C45.632 161.567 41.8684 156.264 44.7111 155.392C47.4367 154.558 48.9583 160.373 49.4149 163.157C49.4412 163.317 49.3323 163.469 49.1721 163.495C49.0114 163.521 48.8602 163.412 48.8343 163.252C48.4743 161.027 47.0423 155.289 44.8837 155.955C42.791 156.595 46.5869 161.793 47.9853 163.467C48.0892 163.592 48.0729 163.778 47.948 163.882C47.8235 163.986 47.6377 163.969 47.5333 163.844Z" fill="#080200"/>
<path d="M70.1817 168.549C70.1817 168.549 73.7961 159.131 73.8372 159.047C73.8787 158.964 55.3341 152.564 55.3341 152.564L51.9079 161.623L70.1817 168.549Z" fill="#1C345A"/>
<path d="M50.1099 151.037C50.8192 150.93 78.4857 165.402 78.4857 165.402L88.9756 146.106L117.219 95.8428C117.219 95.8428 80.0652 94.0652 74.2573 101.687C69.9058 107.399 50.1099 151.037 50.1099 151.037Z" fill="#8471F4"/>
<path d="M90.2141 168.984C90.2141 168.984 72.336 132.239 76.4258 117.149C80.5157 102.059 96.9996 98.716 96.9996 98.716H138.395C138.395 98.716 164.546 99.6303 164.67 115.346C164.794 131.061 158.473 136.391 144.592 137.134C130.711 137.878 107.782 132.271 107.782 132.271L119.557 163.035C111.873 166.006 101.702 167.805 90.2141 168.984Z" fill="#8471F4"/>
<path d="M89.9502 169.113C89.2184 167.609 72.0704 132.096 76.1426 117.073C79.2364 105.658 90.3225 98.4222 102.062 98.4222H138.396C138.558 98.4222 138.69 98.5541 138.69 98.7164C138.69 98.8787 138.558 99.0107 138.396 99.0107H102.062C90.5785 99.0107 79.7311 106.082 76.7104 117.227C72.6962 132.038 90.3011 168.489 90.4798 168.856C90.5505 169.002 90.4898 169.178 90.3439 169.249C90.1984 169.32 90.0217 169.26 89.9502 169.113Z" fill="#080200"/>
<path d="M130.875 87.0376V99.8709H86.6462C83.1025 99.8709 80.2298 96.9982 80.2298 93.4544C80.2298 89.9103 83.098 87.038 86.6462 87.038L130.875 87.0376Z" fill="#FDD501"/>
<path d="M130.876 100.165H86.6467C82.9464 100.165 79.936 97.1548 79.936 93.4545C79.936 89.7435 82.934 86.7438 86.6467 86.7438H130.876C131.038 86.7438 131.17 86.8758 131.17 87.0381V99.871C131.17 100.033 131.038 100.165 130.876 100.165ZM86.6467 87.3319C83.2607 87.3319 80.5244 90.0669 80.5244 93.4541C80.5244 96.8298 83.271 99.5763 86.6467 99.5763H130.581V87.3315L86.6467 87.3319Z" fill="#080200"/>
<path d="M93.5876 98.1357C89.4349 98.1357 87.3409 93.0781 90.2765 90.143C91.16 89.2591 92.336 88.7726 93.5876 88.7726H130.876V98.1353L93.5876 98.1357Z" fill="white"/>
<path d="M130.876 98.4277H93.5874C90.8437 98.4277 88.6117 96.1956 88.6117 93.4519C88.6117 90.7004 90.8339 88.4761 93.5874 88.4761H130.876C131.038 88.4761 131.17 88.608 131.17 88.7703V98.1334C131.17 98.2962 131.038 98.4277 130.876 98.4277ZM93.5874 89.0649C92.4139 89.0649 91.3122 89.5211 90.4842 90.3491C87.7343 93.0977 89.6928 97.8396 93.5874 97.8396H130.581V89.0649H93.5874Z" fill="#080200"/>
<path d="M130.875 92.459H99.7909C99.6286 92.459 99.4967 92.3271 99.4967 92.1648C99.4967 92.0025 99.6286 91.8706 99.7909 91.8706H130.875C131.038 91.8706 131.17 92.0025 131.17 92.1648C131.17 92.3271 131.038 92.459 130.875 92.459Z" fill="#080200"/>
<path d="M130.875 95.3906H99.7909C99.6286 95.3906 99.4967 95.2586 99.4967 95.0963C99.4967 94.934 99.6286 94.8021 99.7909 94.8021H130.875C131.038 94.8021 131.17 94.934 131.17 95.0963C131.17 95.2586 131.038 95.3906 130.875 95.3906Z" fill="#080200"/>
<path d="M99.617 156.631C99.2328 155.686 98.8559 154.729 98.4968 153.786C98.4389 153.633 98.5153 153.463 98.6673 153.406C98.819 153.347 98.9891 153.424 99.0471 153.576C99.4046 154.515 99.7797 155.469 100.162 156.409C100.223 156.56 100.151 156.731 100 156.793C99.8488 156.854 99.6778 156.781 99.617 156.631ZM97.4412 150.916C97.0989 149.953 96.7665 148.98 96.4526 148.022C96.402 147.867 96.4862 147.701 96.6408 147.651C96.7944 147.6 96.9613 147.684 97.0122 147.839C97.3245 148.792 97.6552 149.761 97.9959 150.719C98.0505 150.872 97.9701 151.04 97.8172 151.094C97.6664 151.148 97.4963 151.071 97.4412 150.916ZM95.5395 145.102C95.2437 144.106 94.9659 143.114 94.714 142.156C94.6725 141.999 94.767 141.838 94.924 141.797C95.0801 141.756 95.242 141.849 95.2831 142.007C95.5329 142.958 95.809 143.944 96.1032 144.935C96.1497 145.091 96.0609 145.254 95.9052 145.3C95.7523 145.347 95.5864 145.26 95.5395 145.102ZM93.9912 139.179C93.7619 138.146 93.5613 137.136 93.3949 136.176C93.3673 136.015 93.4747 135.863 93.6349 135.835C93.7919 135.808 93.9472 135.915 93.9751 136.075C94.1395 137.026 94.3384 138.028 94.566 139.052C94.6013 139.211 94.5015 139.368 94.3425 139.403C94.1794 139.438 94.0261 139.335 93.9912 139.179ZM92.959 133.139C92.8398 132.069 92.7641 131.038 92.7349 130.074C92.7243 129.696 93.3111 129.651 93.3234 130.057C93.3518 131.004 93.4261 132.019 93.5432 133.074C93.5613 133.235 93.445 133.381 93.2835 133.399C93.1158 133.416 92.9758 133.296 92.959 133.139ZM93.0764 127.313C92.9145 127.299 92.7945 127.157 92.8081 126.995C92.9009 125.895 93.0723 124.867 93.3168 123.941C93.3587 123.785 93.5165 123.69 93.6764 123.732C93.8333 123.773 93.9274 123.935 93.8855 124.092C93.6497 124.985 93.4845 125.978 93.3941 127.044C93.3813 127.198 93.249 127.325 93.0764 127.313ZM94.5923 121.453C94.4522 121.371 94.4054 121.191 94.488 121.051C95.0415 120.108 95.7339 119.31 96.5458 118.68C96.6749 118.579 96.8589 118.604 96.9588 118.732C97.0582 118.86 97.0352 119.045 96.9066 119.144C96.1542 119.729 95.5111 120.471 94.9954 121.349C94.912 121.49 94.7312 121.535 94.5923 121.453ZM147.653 120.388C147.491 120.387 147.36 120.254 147.361 120.092C147.362 119.93 147.494 119.8 147.656 119.8C148.569 119.817 149.659 119.679 150.558 119.367C150.711 119.313 150.879 119.394 150.933 119.548C150.986 119.702 150.905 119.869 150.751 119.923C149.637 120.31 148.687 120.37 147.653 120.388ZM144.58 120.173C143.71 120.076 142.717 119.944 141.545 119.769C141.384 119.746 141.273 119.596 141.297 119.435C141.321 119.274 141.474 119.162 141.632 119.188C142.797 119.361 143.783 119.492 144.646 119.589C144.807 119.607 144.923 119.753 144.905 119.914C144.886 120.08 144.736 120.192 144.58 120.173ZM138.527 119.295C137.56 119.137 136.554 118.969 135.516 118.795C135.356 118.768 135.247 118.617 135.275 118.456C135.301 118.296 135.451 118.188 135.613 118.215C136.651 118.388 137.656 118.556 138.622 118.714C138.782 118.741 138.891 118.892 138.865 119.052C138.838 119.216 138.684 119.322 138.527 119.295ZM132.508 118.293C131.522 118.13 130.517 117.966 129.498 117.805C129.338 117.78 129.228 117.629 129.253 117.469C129.279 117.308 129.429 117.199 129.59 117.224C130.611 117.385 131.618 117.55 132.604 117.713C132.764 117.739 132.873 117.891 132.846 118.051C132.819 118.212 132.667 118.32 132.508 118.293ZM152.944 118.169C152.817 118.069 152.794 117.884 152.895 117.756C153.451 117.05 153.818 116.158 153.986 115.105C154.012 114.945 154.163 114.836 154.323 114.861C154.484 114.887 154.593 115.037 154.568 115.198C154.383 116.352 153.977 117.335 153.358 118.12C153.258 118.246 153.074 118.271 152.944 118.169ZM99.0947 117.521C99.0318 117.371 99.1021 117.198 99.2517 117.136C100.134 116.765 101.125 116.448 102.199 116.195C102.355 116.158 102.515 116.255 102.552 116.414C102.59 116.572 102.492 116.73 102.334 116.767C101.292 117.013 100.332 117.32 99.4797 117.678C99.3298 117.741 99.158 117.671 99.0947 117.521ZM126.488 117.345C125.488 117.199 124.481 117.057 123.471 116.925C123.31 116.904 123.197 116.756 123.218 116.595C123.239 116.434 123.384 116.319 123.548 116.342C124.561 116.474 125.571 116.616 126.574 116.763C126.955 116.819 126.878 117.402 126.488 117.345ZM120.447 116.558C119.399 116.442 118.38 116.342 117.419 116.26C117.258 116.246 117.138 116.104 117.151 115.942C117.165 115.78 117.309 115.659 117.469 115.674C118.434 115.756 119.459 115.856 120.512 115.973C120.674 115.991 120.79 116.137 120.772 116.298C120.754 116.456 120.614 116.575 120.447 116.558ZM104.976 115.991C104.956 115.83 105.071 115.683 105.233 115.663C106.189 115.546 107.219 115.462 108.293 115.413C108.451 115.404 108.593 115.531 108.6 115.694C108.608 115.856 108.482 115.994 108.32 116.001C107.261 116.049 106.246 116.132 105.304 116.248C105.136 116.266 104.995 116.148 104.976 115.991ZM114.386 116.05C113.335 115.995 112.313 115.962 111.35 115.952C111.188 115.95 111.058 115.817 111.059 115.655C111.061 115.492 111.203 115.354 111.356 115.364C112.327 115.373 113.357 115.407 114.417 115.462C114.579 115.471 114.704 115.609 114.696 115.771C114.688 115.925 114.56 116.056 114.386 116.05Z" fill="white"/>
<path d="M101.434 160.867C101.434 160.867 101.193 160.349 100.792 159.428C100.727 159.278 100.795 159.105 100.944 159.04C101.092 158.976 101.266 159.043 101.331 159.193C101.728 160.104 101.966 160.616 101.967 160.618C102.036 160.766 101.972 160.941 101.825 161.009C101.676 161.078 101.502 161.013 101.434 160.867Z" fill="white"/>
<path d="M106.772 159.287C106.456 158.396 106.105 157.397 105.732 156.313C105.679 156.159 105.761 155.992 105.915 155.939C106.07 155.887 106.236 155.968 106.289 156.122C106.661 157.204 107.01 158.201 107.327 159.09C107.381 159.243 107.301 159.412 107.148 159.466C106.997 159.52 106.827 159.443 106.772 159.287ZM104.723 153.329C104.403 152.367 104.076 151.365 103.747 150.335C103.697 150.18 103.783 150.014 103.937 149.965C104.093 149.915 104.258 150.001 104.307 150.156C104.636 151.183 104.963 152.184 105.282 153.143C105.333 153.297 105.25 153.464 105.096 153.516C104.942 153.566 104.775 153.484 104.723 153.329ZM102.806 147.328C102.501 146.333 102.2 145.323 101.906 144.309C101.861 144.153 101.951 143.99 102.107 143.945C102.266 143.898 102.427 143.99 102.472 144.146C102.765 145.157 103.065 146.164 103.369 147.157C103.416 147.312 103.329 147.477 103.174 147.524C103.021 147.571 102.854 147.486 102.806 147.328ZM101.057 141.273C100.771 140.212 100.506 139.186 100.27 138.223C100.231 138.065 100.328 137.906 100.485 137.867C100.641 137.83 100.803 137.925 100.841 138.083C101.077 139.041 101.34 140.063 101.625 141.12C101.667 141.277 101.574 141.438 101.417 141.481C101.261 141.523 101.099 141.431 101.057 141.273ZM99.5629 135.148C99.3291 134.051 99.1299 133.008 98.9692 132.046C98.9429 131.885 99.0505 131.734 99.2112 131.707C99.3694 131.681 99.5231 131.788 99.5498 131.949C99.7084 132.902 99.9065 133.938 100.138 135.026C100.172 135.185 100.071 135.341 99.9119 135.375C99.7541 135.409 99.597 135.308 99.5629 135.148ZM98.5538 128.905C98.4601 127.876 98.4087 126.744 98.4794 125.718C98.4905 125.555 98.631 125.43 98.7929 125.444C98.9552 125.455 99.0772 125.596 99.0662 125.758C98.9979 126.757 99.0489 127.855 99.1397 128.852C99.1545 129.014 99.0353 129.157 98.8734 129.172C98.7054 129.185 98.5682 129.062 98.5538 128.905ZM143.342 125.535C143.181 125.535 143.05 125.406 143.047 125.245C143.045 125.083 143.175 124.949 143.337 124.947C144.441 124.931 145.488 124.877 146.451 124.786C146.619 124.77 146.757 124.889 146.772 125.051C146.788 125.213 146.669 125.356 146.507 125.372C145.025 125.512 143.95 125.515 143.342 125.535ZM140.186 125.485C139.197 125.442 138.138 125.375 137.036 125.284C136.875 125.27 136.754 125.128 136.767 124.966C136.781 124.805 136.928 124.688 137.084 124.697C138.178 124.788 139.23 124.855 140.211 124.897C140.373 124.904 140.499 125.041 140.492 125.203C140.486 125.368 140.346 125.492 140.186 125.485ZM133.899 124.975C132.908 124.865 131.886 124.739 130.774 124.592C130.613 124.571 130.5 124.423 130.521 124.262C130.542 124.1 130.692 123.987 130.851 124.009C131.96 124.155 132.978 124.28 133.964 124.391C134.126 124.409 134.242 124.554 134.224 124.716C134.206 124.879 134.057 124.995 133.899 124.975ZM149.298 124.673C149.265 124.514 149.368 124.359 149.527 124.326C150.598 124.106 151.604 123.833 152.517 123.513C152.67 123.46 152.838 123.541 152.892 123.693C152.946 123.847 152.865 124.015 152.712 124.069C151.774 124.397 150.742 124.678 149.645 124.902C149.484 124.935 149.33 124.831 149.298 124.673ZM127.655 124.157C126.615 124.005 125.576 123.849 124.544 123.691C124.383 123.666 124.273 123.516 124.298 123.355C124.322 123.195 124.476 123.086 124.633 123.109C125.664 123.267 126.702 123.423 127.741 123.575C127.902 123.598 128.013 123.748 127.989 123.908C127.965 124.069 127.816 124.18 127.655 124.157ZM121.435 123.212C120.385 123.051 119.348 122.892 118.328 122.742C118.168 122.718 118.056 122.569 118.08 122.408C118.104 122.247 118.251 122.134 118.414 122.16C119.435 122.311 120.474 122.469 121.525 122.631C121.685 122.655 121.796 122.806 121.771 122.966C121.747 123.124 121.6 123.237 121.435 123.212ZM99.6929 123.107C99.5831 122.987 99.5917 122.8 99.7117 122.691C100.403 122.06 101.373 121.617 102.677 121.339C102.837 121.305 102.993 121.406 103.027 121.565C103.061 121.724 102.959 121.88 102.8 121.914C101.618 122.166 100.712 122.574 100.109 123.125C99.9891 123.235 99.8022 123.227 99.6929 123.107ZM155.211 122.636C155.129 122.496 155.175 122.316 155.315 122.233C156.242 121.685 157.046 121.05 157.707 120.346C157.818 120.228 158.004 120.222 158.122 120.333C158.241 120.445 158.247 120.631 158.136 120.749C157.437 121.494 156.589 122.163 155.614 122.739C155.474 122.822 155.293 122.775 155.211 122.636ZM115.219 122.302C114.076 122.15 113.057 122.027 112.105 121.926C111.943 121.908 111.826 121.764 111.843 121.602C111.86 121.441 112.008 121.324 112.167 121.341C113.125 121.443 114.148 121.566 115.296 121.719C115.458 121.74 115.57 121.888 115.549 122.049C115.527 122.212 115.379 122.324 115.219 122.302ZM108.985 121.661C107.069 121.548 105.821 121.594 105.86 121.594C105.701 121.594 105.57 121.467 105.566 121.307C105.562 121.145 105.69 121.01 105.852 121.006C106.807 120.981 107.855 121.004 109.02 121.074C109.182 121.083 109.305 121.223 109.296 121.385C109.286 121.547 109.147 121.671 108.985 121.661ZM159.521 118.207C159.371 118.143 159.302 117.97 159.365 117.821C159.753 116.912 159.987 115.919 160.061 114.871C160.073 114.709 160.217 114.584 160.375 114.598C160.538 114.61 160.66 114.751 160.648 114.913C160.569 116.026 160.319 117.083 159.907 118.052C159.842 118.203 159.668 118.27 159.521 118.207Z" fill="white"/>
<path d="M108.383 163.7C108.383 163.7 108.181 163.169 107.835 162.228C107.779 162.076 107.857 161.906 108.009 161.85C108.162 161.795 108.331 161.873 108.387 162.025C108.731 162.962 108.932 163.49 108.932 163.491C108.99 163.643 108.913 163.813 108.762 163.87C108.611 163.928 108.441 163.853 108.383 163.7Z" fill="white"/>
<path d="M174.153 93.5682C173.719 99.5175 171.302 111.601 155.872 112.717C144.266 113.555 129.468 101.247 122.847 95.0952C120.666 93.0677 119.372 91.7092 119.372 91.7092C118.93 85.7304 120.557 80.5175 124.205 76.0558C138.91 78.8776 153.229 87.0043 153.269 87.0195C153.269 87.0195 152.277 73.0565 151.162 66.7358C150.046 60.4147 157.979 50.9957 164.674 56.3249C171.367 61.654 174.587 87.619 174.153 93.5682Z" fill="#FDD501"/>
<path d="M169.337 85.8245C169.19 86.9426 165.591 95.871 162.066 97.7797C158.541 99.6909 153.693 97.3409 153.269 96.9941C152.845 96.6472 125.492 78.5394 125.492 78.5394C125.492 78.5394 130.117 58.0474 131.88 54.7133C135.225 48.3774 140.928 46.179 148.259 46.8853C148.976 46.9548 149.68 47.0661 150.369 47.2173C159.905 49.2871 166.56 58.4785 166.56 58.4785C166.56 58.4785 169.483 84.7064 169.337 85.8245Z" fill="#FDD501"/>
<path d="M136.383 63.4683C136.383 64.0954 129.001 84.5877 128.552 84.9444C128.106 85.3039 124.742 86.5802 123.721 86.8235C122.7 87.0688 111.999 84.409 107.971 81.9924C103.988 79.6017 98.379 69.1924 98.3531 69.1525C102.862 67.6329 107.173 65.2582 111.327 62.2171C111.359 62.2561 117.921 70.2422 118 70.3376L135.272 50.282C135.272 50.2812 136.383 62.8437 136.383 63.4683Z" fill="#FDD501"/>
<path d="M111.766 63.4744C111.766 63.4744 111.516 66.2732 106.813 69.3863C102.111 72.4994 101.281 73.0919 99.9944 70.3901C98.7078 67.6908 98.2989 65.5713 97.3073 65.3309C94.2144 63.6371 91.5205 61.3488 89.2415 58.4424C86.3215 54.2038 83.0869 54.1092 82.4249 51.5242C81.7629 48.9362 82.7199 48.0639 83.3495 48.3614C83.979 48.6564 88.4756 50.3888 91.1128 52.5432C93.7501 54.6972 96.1745 57.3345 98.2019 56.2813C100.227 55.2278 101.662 53.4259 100.475 50.7636C99.2876 48.1013 97.3912 48.0791 95.7081 47.4097C94.0275 46.7378 95.0239 45.035 92.8674 46.0836C90.7109 47.1348 85.8054 49.4125 84.1868 48.2377C82.5682 47.0629 83.976 45.925 85.5104 45.397C87.0472 44.869 90.349 44.4252 91.9873 43.1637C93.626 41.9022 93.9951 42.1919 96.6697 43.6099C99.3419 45.028 103.682 45.4143 104.681 47.1126C105.677 48.808 106.498 52.7096 108.409 56.7872C110.321 60.8667 111.672 62.2302 111.766 63.4744Z" fill="#FB9598"/>
<path d="M92.268 42.9554C92.268 42.9554 88.9395 41.1876 87.3772 42.2856C85.8149 43.3839 85.0301 46.211 85.2763 46.218C85.522 46.2254 91.0307 44.4511 92.268 42.9554Z" fill="#FB9598"/>
<path d="M83.2364 55.4953C83.3667 55.7965 83.5458 56.1125 83.8536 56.2251C84.1552 56.3356 84.5021 56.2115 84.7412 55.997C84.9804 55.7825 85.1328 55.4911 85.2807 55.206C85.3839 56.9408 86.4983 58.3104 87.065 58.4805C87.3707 58.5726 87.7014 58.476 87.9915 58.3433C88.5068 58.1074 88.7373 57.8005 88.5964 57.2318C88.4262 56.5439 88.1135 56.2928 85.3781 53.2586C84.7013 52.5079 84.4864 52.4467 83.5948 52.3514C83.4312 52.3337 83.2668 52.3156 83.1066 52.2766C82.9677 52.2429 82.7935 52.1307 82.722 52.2934C82.6648 52.4236 82.6977 52.6686 82.6965 52.8099C82.6883 53.7205 82.8682 54.6426 83.2364 55.4953Z" fill="#FB9598"/>
<path d="M77.8324 47.5919L77.7136 51.7159L115.224 52.7966L115.343 48.6726L77.8324 47.5919Z" fill="#135941"/>
<path d="M77.7228 51.7389L72.8222 49.5331L77.8416 47.6145L77.7228 51.7389Z" fill="#080200"/>
<path d="M114.582 66.1808C112.527 68.3275 107.284 73.3645 101.003 73.6542C99.4412 71.1805 98.3531 69.155 98.3531 69.155C102.862 67.6354 107.173 65.2608 111.327 62.2196L114.582 66.1808Z" fill="#1E2D3E"/>
<path d="M124.387 76.0566C124.387 76.0566 121.505 73.3375 119.22 72.7055C116.934 72.0736 114.082 70.8417 112.802 70.9875C111.521 71.1334 110.792 73.7587 112.478 74.8283L102.051 71.4769C102.051 71.4769 99.6689 70.9242 98.8044 71.6035C97.9398 72.2827 98.6191 73.1884 98.6191 73.1884C98.6191 73.1884 97.351 73.4789 97.0428 74.5756C96.7346 75.6724 98.497 76.7695 98.497 76.7695C98.497 76.7695 97.8913 77.6571 98.3544 78.7785C98.8175 79.8999 99.791 80.1834 99.791 80.1834C99.791 80.1834 98.8175 81.4034 99.4582 82.6361C100.099 83.8685 102.108 84.4972 102.108 84.4972C102.108 84.4972 102.207 86.9006 103.168 87.381C104.129 87.8618 119.311 90.5031 119.311 90.5031L124.387 76.0566Z" fill="#FB9598"/>
<path d="M116.808 77.0457C115.859 75.7131 112.462 75.1267 112.428 75.121C112.267 75.0938 112.159 74.9422 112.187 74.7819C112.214 74.6217 112.364 74.5149 112.526 74.5408C112.675 74.5662 116.197 75.1744 117.288 76.7046C117.382 76.837 117.351 77.0206 117.219 77.1152C117.083 77.2109 116.9 77.1755 116.808 77.0457Z" fill="#080200"/>
<path d="M107.873 77.7028L98.4973 73.4572C98.3494 73.3902 98.2837 73.216 98.3506 73.0676C98.418 72.9197 98.5923 72.854 98.7402 72.921L108.116 77.1665C108.264 77.2335 108.33 77.4077 108.263 77.5561C108.195 77.7044 108.022 77.7694 107.873 77.7028Z" fill="#080200"/>
<path d="M106.921 80.656L98.3825 77.0403C98.2325 76.977 98.1626 76.8045 98.2263 76.6549C98.2899 76.5049 98.4638 76.4359 98.6117 76.4987L107.151 80.1144C107.301 80.1777 107.37 80.3502 107.307 80.4998C107.242 80.6518 107.067 80.7188 106.921 80.656Z" fill="#080200"/>
<path d="M106.368 83.4686C104.63 82.837 99.8648 80.5462 99.6631 80.4488C99.5168 80.3781 99.4552 80.2023 99.5254 80.056C99.5957 79.9097 99.7715 79.8476 99.9182 79.9183C99.9675 79.9421 104.859 82.2939 106.568 82.9152C106.721 82.9706 106.8 83.1395 106.745 83.2924C106.688 83.4469 106.518 83.5237 106.368 83.4686Z" fill="#080200"/>
<path d="M147.102 37.394C147.102 37.394 148.155 45.9579 148.258 46.8857C148.361 47.8136 147.663 49.2703 144.901 49.5431C142.139 49.8164 141.229 45.962 141.745 42.3509C141.745 42.3509 137.374 42.1384 136.555 38.5877C135.736 35.037 136.009 31.0918 140.045 30.424C144.081 29.7563 145.72 32.1236 146.023 34.248C146.023 34.248 147.296 31.7928 148.973 32.3225C150.65 32.8517 150.991 36.7295 147.102 37.394Z" fill="#FE9CA4"/>
<path d="M141.745 42.3518C141.866 42.3757 145.553 39.9513 146.449 38.301C146.449 38.301 144.724 42.9185 141.645 45.2036C141.591 44.164 141.603 43.1913 141.745 42.3518Z" fill="#942428"/>
<path d="M136.925 36.1717C135.683 36.1717 134.674 35.1617 134.674 33.9203V33.5332C134.674 33.0706 135.051 32.6938 135.513 32.6938H138.336C138.798 32.6938 139.175 33.0706 139.175 33.5332V33.9224C139.175 35.1629 138.166 36.1717 136.925 36.1717ZM135.513 33.2826C135.375 33.2826 135.262 33.3952 135.262 33.5336V33.9207C135.262 34.8379 136.008 35.5837 136.925 35.5837C137.841 35.5837 138.586 34.8387 138.586 33.9228V33.5336C138.586 33.3952 138.474 33.2826 138.335 33.2826H135.513Z" fill="#080200"/>
<path d="M141.434 36.1717C140.193 36.1717 139.183 35.1617 139.183 33.9203V33.5332C139.183 33.0705 139.56 32.6937 140.023 32.6937H142.844C143.307 32.6937 143.684 33.0705 143.684 33.5332V33.9224C143.684 35.1629 142.675 36.1717 141.434 36.1717ZM140.023 33.2826C139.884 33.2826 139.771 33.3952 139.771 33.5336V33.9207C139.771 34.8379 140.517 35.5837 141.434 35.5837C142.35 35.5837 143.095 34.8387 143.095 33.9228V33.5336C143.095 33.3952 142.983 33.2826 142.844 33.2826H140.023Z" fill="#080200"/>
<path d="M145.69 33.2822H138.133C137.971 33.2822 137.839 33.1503 137.839 32.988C137.839 32.8257 137.971 32.6937 138.133 32.6937H145.69C145.852 32.6937 145.984 32.8257 145.984 32.988C145.984 33.1503 145.852 33.2822 145.69 33.2822Z" fill="#080200"/>
<path d="M142.325 34.2829C142.325 34.529 142.125 34.7288 141.879 34.7288C141.633 34.7288 141.433 34.529 141.433 34.2829C141.433 34.0368 141.633 33.8371 141.879 33.8371C142.125 33.8371 142.325 34.0368 142.325 34.2829Z" fill="#080200"/>
<path d="M137.885 34.2829C137.885 34.529 137.685 34.7288 137.439 34.7288C137.193 34.7288 136.993 34.529 136.993 34.2829C136.993 34.0368 137.193 33.8371 137.439 33.8371C137.685 33.8371 137.885 34.0368 137.885 34.2829Z" fill="#080200"/>
<path d="M147.716 35.2029C147.699 34.9478 147.69 34.9268 147.501 34.7957C147.277 34.6408 147.041 34.4995 146.801 34.3762C146.657 34.3018 146.6 34.1243 146.674 33.9801C146.748 33.8358 146.925 33.7783 147.07 33.8531C147.333 33.9883 147.59 34.1424 147.836 34.3121C148.187 34.5562 148.277 34.7427 148.303 35.166C148.313 35.3283 148.19 35.468 148.028 35.4783C147.866 35.4881 147.726 35.3657 147.716 35.2029Z" fill="#080200"/>
<path d="M138.845 38.3171C138.709 38.2283 138.671 38.0459 138.759 37.9099C138.848 37.7739 139.03 37.7357 139.167 37.8244C140.02 38.3825 141.188 38.0048 141.547 37.0433C141.604 36.8912 141.773 36.8144 141.926 36.8707C142.078 36.9274 142.156 37.0971 142.098 37.2495C141.612 38.5538 140.027 39.0896 138.845 38.3171Z" fill="#080200"/>
<path d="M150.369 47.2177C150.089 49.1042 148.673 52.205 144.807 53.1768C140.481 54.2649 139.745 49.2431 139.623 47.7334C143.006 46.5237 147.291 46.5426 150.369 47.2177Z" fill="#080200"/>
<path d="M129.473 77.2811C127.559 80.3252 122.909 88.4059 122.846 95.096C120.665 93.0685 119.371 91.71 119.371 91.71C118.93 85.7312 120.556 80.5183 124.205 76.0566C125.975 76.3964 127.74 76.8102 129.473 77.2811Z" fill="#1E2D3E"/>
<path d="M126.698 98.8159C126.631 98.8159 126.563 98.793 126.508 98.7457C123.365 96.0715 120.403 93.2312 119.158 91.913C119.111 91.8637 119.083 91.7996 119.078 91.7318C118.634 85.7242 120.283 80.3876 123.977 75.8704C124.045 75.7866 124.153 75.7463 124.26 75.7677C133.688 77.5765 144.653 81.9886 152.935 86.5C152.74 83.8677 151.847 72.3176 150.872 66.7875C150.843 66.6277 150.95 66.4748 151.11 66.4465C151.271 66.4177 151.423 66.5254 151.451 66.6852C152.556 72.9488 153.552 86.8595 153.562 86.9992C153.578 87.2326 153.327 87.3925 153.123 87.2758C153.012 87.2129 141.915 80.951 129.396 77.565C127.686 77.1003 125.98 76.7017 124.322 76.3787C120.825 80.7197 119.256 85.8339 119.657 91.5826C121.339 93.3233 124.042 95.875 126.888 98.297C127.097 98.4741 126.971 98.8159 126.698 98.8159Z" fill="#080200"/>
<path d="M160.557 92.7134C158.77 90.6071 153.175 87.3057 153.118 87.2729C152.978 87.1907 152.931 87.0103 153.014 86.8702C153.096 86.73 153.276 86.6828 153.417 86.7654C153.65 86.9026 159.155 90.1505 161.007 92.3325C161.112 92.4566 161.096 92.6419 160.973 92.7471C160.849 92.8523 160.663 92.8371 160.557 92.7134Z" fill="#080200"/>
<path d="M127.414 77.0556C127.255 77.0215 127.154 76.8649 127.188 76.7059C127.294 76.2144 129.812 64.6205 132.989 60.0392C133.082 59.906 133.265 59.8727 133.399 59.9652C133.532 60.0576 133.566 60.2409 133.473 60.3745C130.362 64.8592 127.79 76.7104 127.764 76.8296C127.73 76.989 127.573 77.0893 127.414 77.0556Z" fill="#080200"/>
<path d="M140.42 31.1956C140.822 31.1578 141.219 31.0267 141.622 31.0526C142.194 31.0887 142.944 31.5773 144.342 31.5987C144.519 31.6015 144.708 31.5925 144.853 31.4894C145.024 31.3669 145.091 31.1384 145.093 30.9264C145.096 30.34 144.699 29.8272 144.258 29.4459C142.98 28.3422 140.978 27.6917 138.264 28.17C137.939 28.2271 137.12 26.9068 136.927 27.2298C136.749 27.529 137.228 29.2223 137.387 29.4825C138.153 30.7403 139.353 31.2954 140.42 31.1956Z" fill="#055A43"/>
<path d="M88.9996 58.6074C86.0982 54.3959 82.8416 54.3421 82.1394 51.5947C81.5575 49.3186 82.2035 48.487 82.5084 48.2351C82.7968 47.9971 83.1584 47.9441 83.4752 48.0929C83.5184 48.113 83.58 48.1406 83.6589 48.1742C82.448 46.9711 83.6384 45.7293 85.4169 45.117C86.9738 44.5824 90.2328 44.1407 91.8094 42.9285C93.6014 41.5491 94.1463 41.932 96.8082 43.3472C99.4788 44.7636 103.856 45.1244 104.936 46.96C105.957 48.6973 106.776 52.6015 108.677 56.6601C108.746 56.8072 108.683 56.9827 108.535 57.0513C108.387 57.1203 108.213 57.0566 108.144 56.9099C106.23 52.8242 105.401 48.9139 104.429 47.2583C103.517 45.7071 99.1882 45.2757 96.5325 43.867C93.9149 42.4749 93.6713 42.239 92.1682 43.3945C90.4678 44.7028 87.1303 45.1499 85.6087 45.6734C84.565 46.0326 83.8426 46.5807 83.7695 47.0705C83.7251 47.3685 83.924 47.6803 84.3608 47.9976C85.0758 48.5165 87.1094 48.5589 92.7406 45.8172C94.1562 45.1281 94.5067 45.5329 94.8486 46.1797C95.2866 47.0097 95.5771 47.0853 96.8255 47.4761C98.2592 47.9252 99.741 48.3896 100.745 50.6405C101.83 53.0719 100.975 55.1668 98.338 56.5384C96.0669 57.7206 93.4112 54.7954 90.9272 52.7683C88.4087 50.7117 84.1984 49.0811 83.2249 48.6246C82.777 48.413 82.1784 49.3696 82.7101 51.4484C83.3265 53.8622 86.5596 54.0265 89.4845 58.2733C89.5769 58.4069 89.5432 58.5901 89.4092 58.6826C89.2753 58.7746 89.0921 58.7418 88.9996 58.6074ZM85.225 48.8494C86.9492 49.6166 89.5338 50.8715 91.2991 52.313C93.8032 54.359 96.2363 56.9691 98.0661 56.017C99.7073 55.1631 101.411 53.579 100.207 50.881C99.3111 48.872 98.018 48.4668 96.6492 48.0382C95.4029 47.647 94.8867 47.5156 94.3279 46.4546C94.0896 46.0042 94.0099 45.8538 92.9978 46.3465C89.3658 48.1151 86.8025 48.9423 85.225 48.8494Z" fill="#080200"/>
<path d="M89.2413 58.4407C86.3213 54.2021 83.0853 54.1089 82.4237 51.5217C81.7622 48.9346 82.7197 48.0626 83.3492 48.3589C83.9783 48.6552 88.4757 50.3876 91.1122 52.5408C93.749 54.694 96.1755 57.3317 98.2009 56.2781C100.227 55.2241 101.663 53.4231 100.475 50.7612C99.2874 48.0988 97.3905 48.077 95.7091 47.4068C94.0272 46.7366 95.025 45.0317 92.8685 46.082C90.712 47.1319 85.8048 49.4113 84.1866 48.2361C82.5684 47.0608 83.9754 45.9238 85.5114 45.3958C87.0478 44.8678 90.3483 44.4232 91.9875 43.1617C93.6266 41.9006 93.9947 42.189 96.669 43.6075C99.3432 45.026 103.683 45.4127 104.681 47.1097C105.678 48.8068 106.498 52.7068 108.409 56.7856" fill="#FB9598"/>
<path d="M88.9993 58.6065C86.0979 54.395 82.8413 54.3412 82.1391 51.5938C81.5572 49.3177 82.2031 48.486 82.508 48.2341C82.7965 47.9962 83.1581 47.9432 83.4749 48.092C83.5181 48.1121 83.5797 48.1396 83.6586 48.1733C82.4477 46.9702 83.6381 45.7284 85.4166 45.1161C86.9735 44.5815 90.2324 44.1398 91.8091 42.9276C93.6011 41.5481 94.146 41.9311 96.8079 43.3463C99.4785 44.7627 103.856 45.1235 104.935 46.9591C105.957 48.6964 106.776 52.6005 108.676 56.6591C108.745 56.8062 108.682 56.9817 108.535 57.0503C108.387 57.1194 108.212 57.0557 108.144 56.909C106.229 52.8233 105.401 48.913 104.428 47.2574C103.517 45.7062 99.1879 45.2747 96.5322 43.8661C93.9146 42.4739 93.671 42.238 92.1679 43.3935C90.4675 44.7019 87.13 45.149 85.6084 45.6725C84.5646 46.0316 83.8423 46.5798 83.7692 47.0696C83.7248 47.3675 83.9237 47.6794 84.3605 47.9966C85.0755 48.5156 87.1091 48.5579 92.7403 45.8163C94.1559 45.1272 94.5064 45.532 94.8483 46.1787C95.2863 47.0088 95.5768 47.0844 96.8252 47.4752C98.2589 47.9243 99.7407 48.3886 100.745 50.6396C101.83 53.071 100.975 55.1659 98.3377 56.5375C96.0666 57.7197 93.4109 54.7944 90.9269 52.7674C88.4084 50.7107 84.1981 49.0802 83.2246 48.6237C82.7767 48.4121 82.1781 49.3687 82.7098 51.4475C83.3262 53.8612 86.5593 54.0256 89.4842 58.2724C89.5766 58.406 89.5429 58.5892 89.4089 58.6817C89.275 58.7737 89.0918 58.7408 88.9993 58.6065ZM85.2246 48.8485C86.9488 49.6156 89.5335 50.8706 91.2988 52.3121C93.8029 54.358 96.236 56.9682 98.0658 56.0161C99.707 55.1622 101.411 53.5781 100.207 50.88C99.3108 48.8711 98.0177 48.4659 96.6489 48.0373C95.4026 47.6461 94.8864 47.5146 94.3276 46.4536C94.0893 46.0033 94.0096 45.8529 92.9975 46.3456C89.3655 48.1141 86.8022 48.9413 85.2246 48.8485Z" fill="#080200"/>
<path d="M93.9438 48.0766V52.2039L115.233 52.8178L115.351 48.6938L93.9438 48.0766Z" fill="#135941"/>
<path d="M118.912 50.8613C118.945 49.7227 118.048 48.7726 116.909 48.7398L115.351 48.695L115.232 52.8189L116.79 52.8637C117.929 52.8966 118.879 52 118.912 50.8613Z" fill="#F34C56"/>
</svg>
