<svg width="152" height="222" viewBox="0 0 152 222" fill="none" xmlns="http://www.w3.org/2000/svg">
<path d="M45.0476 188.985C45.0476 188.985 68.3912 187.528 70.0231 188.985C71.6544 190.442 70.9355 195.668 70.4931 196.249C70.0507 196.829 68.3455 196.829 68.3455 196.829L51.2744 196.94L45.0476 188.985Z" fill="#4977E6"/>
<path d="M107.314 188.985C107.314 188.985 83.9705 187.528 82.3387 188.985C80.7073 190.442 81.4262 195.668 81.8686 196.249C82.311 196.829 84.0162 196.829 84.0162 196.829L101.087 196.94L107.314 188.985Z" fill="#4977E6"/>
<path d="M29.8723 41.6406L33.6531 49.9847L55.9724 41.6406L45.3488 17.1574L23.7235 26.7068L29.8723 41.6406Z" fill="white"/>
<path d="M33.3577 50.1175C26.4786 34.9365 31.5273 46.1444 23.4235 26.8291C23.3564 26.6664 23.4312 26.4801 23.5926 26.4089L45.2183 16.8601C45.3815 16.7885 45.5745 16.8619 45.6471 17.0278L56.2702 41.5105C56.3441 41.6805 56.2602 41.879 56.0862 41.9439L33.7674 50.2879C33.6056 50.3473 33.4279 50.272 33.3577 50.1175ZM30.1702 41.51L33.8236 49.5726L55.5382 41.4547L45.1811 17.5853L24.1442 26.8744L30.1702 41.51Z" fill="#080200"/>
<path d="M47.7777 22.7566L26.2866 32.3309L27.8409 36.3456L49.6855 27.1535L47.7777 22.7566Z" fill="#2E3550"/>
<path d="M27.7142 36.6438C27.4812 36.545 27.6362 36.6172 25.984 32.4479C25.9214 32.287 25.9962 32.1047 26.1544 32.034L47.6459 22.4597C47.8136 22.3867 48.0044 22.4629 48.0756 22.627L49.9835 27.0239C50.0551 27.1889 49.979 27.3815 49.8117 27.4522C26.5397 37.2006 27.9553 36.7472 27.7142 36.6438ZM26.7001 32.5013L28.0229 35.9168L49.2573 26.9813L47.6105 23.1859L26.7001 32.5013Z" fill="#080200"/>
<path d="M27.0371 6.75369C27.0371 6.75369 20.2188 9.68189 21.6915 11.8912C23.1642 14.1005 26.7542 14.8674 26.7542 14.8674C26.7542 14.8674 26.4165 24.4099 29.1476 24.0414C31.8782 23.6729 35.1613 17.5676 35.1613 17.5676C35.1613 17.5676 40.5309 20.1758 43.3535 18.3042C46.1761 16.4326 39.5182 11.2471 39.5182 11.2471C39.5182 11.2471 43.5683 6.33808 41.267 4.22079C38.9657 2.10396 34.0566 3.66824 34.0566 3.66824C34.0566 3.66824 30.6815 -0.289909 28.3806 0.0169642C26.0793 0.323837 27.0371 6.75369 27.0371 6.75369Z" fill="#F3BF0E"/>
<path d="M124.872 45.0134L86.9558 37.4589L92.6631 5.18065L148.253 15.1216L141.579 48.559L124.872 45.0134Z" fill="#FDD20A"/>
<path d="M63.1313 60.2345L76.2356 60.1489L80.9806 120.12H55.9712C55.9712 120.12 56.4181 95.6192 57.3034 87.7656C58.1882 79.9125 63.1313 60.2345 63.1313 60.2345Z" fill="white"/>
<path d="M76.7082 69.0235C67.3525 75.7212 61.4738 67.0739 61.4738 67.0739C61.7539 65.7023 60.4598 72.0419 64.2117 53.6608L75.7228 52.4392C77.0192 74.2567 76.6348 67.7869 76.7082 69.0235Z" fill="#F79D89"/>
<path d="M75.9086 55.5628C72.4895 59.4361 67.2378 59.4511 63.8064 55.6408L64.2116 53.6608L75.7227 52.4392L75.9086 55.5628Z" fill="#080200"/>
<path d="M69.8221 56.5645C74.7756 56.5645 78.7913 51.6398 78.7913 45.5648C78.7913 39.4898 74.7756 34.5649 69.8221 34.5649C64.8686 34.5649 60.853 39.4898 60.853 45.5648C60.853 51.6398 64.8686 56.5645 69.8221 56.5645Z" fill="#F79D89"/>
<path d="M80.2029 50.8576C81.7049 50.8576 82.9226 49.4195 82.9226 47.6456C82.9226 45.8717 81.7049 44.4337 80.2029 44.4337C78.7008 44.4337 77.4832 45.8717 77.4832 47.6456C77.4832 49.4195 78.7008 50.8576 80.2029 50.8576Z" fill="#F79D89"/>
<path d="M60.3913 49.9835C61.8934 49.9835 63.111 48.5454 63.111 46.7714C63.111 44.9975 61.8934 43.5595 60.3913 43.5595C58.8893 43.5595 57.6716 44.9975 57.6716 46.7714C57.6716 48.5454 58.8893 49.9835 60.3913 49.9835Z" fill="#F79D89"/>
<path d="M45.6112 67.3471C45.6112 67.3471 36.182 77.6648 27.0565 74.6228C17.931 71.5808 25.5574 50.9301 25.5574 50.9301L5.64701 47.2798C5.64701 47.2798 -1.15586 68.8493 0.171809 77.6983C1.49902 86.5473 9.42827 101.621 38.8133 100.389L45.6112 67.3471Z" fill="#8471F4"/>
<path d="M76.5507 221.55C115.556 221.55 147.177 218.838 147.177 215.494C147.177 212.149 115.556 209.438 76.5507 209.438C37.545 209.438 5.92456 212.149 5.92456 215.494C5.92456 218.838 37.545 221.55 76.5507 221.55Z" fill="#E4EAFA"/>
<path d="M68.3462 196.831L69.008 212.488C69.0488 213.447 68.2782 214.245 67.3177 214.239L23.9294 213.946C23.9294 213.946 24.3591 206.417 29.779 204.021C35.1989 201.624 42.7574 199.707 43.5688 197.753C44.3797 195.799 43.5688 189.125 43.5688 189.125C43.5688 189.125 51.4591 187.982 52.4917 191.485C53.5243 194.987 51.2751 196.942 51.2751 196.942L68.3462 196.831Z" fill="#393742"/>
<path d="M65.5601 208.152C65.5601 209.648 64.3471 210.862 62.8504 210.862C61.3536 210.862 60.1406 209.649 60.1406 208.152C60.1406 206.655 61.3536 205.443 62.8504 205.443C64.3471 205.443 65.5601 206.655 65.5601 208.152Z" fill="white"/>
<path d="M41.4124 204.981C41.2352 204.954 41.1132 204.788 41.1409 204.611L42.0171 198.877C42.0443 198.7 42.2093 198.578 42.387 198.605C42.5642 198.632 42.6861 198.798 42.6585 198.975L41.7823 204.71C41.7551 204.885 41.591 205.008 41.4124 204.981Z" fill="#080200"/>
<path d="M45.322 204.415L42.7615 198.531C42.6899 198.367 42.7651 198.176 42.9296 198.105C43.0951 198.033 43.2855 198.108 43.3566 198.273L45.9172 204.157C45.9888 204.321 45.9136 204.512 45.7495 204.583C45.5895 204.654 45.3946 204.584 45.322 204.415Z" fill="#080200"/>
<path d="M49.224 201.269L43.548 198.101C43.3916 198.014 43.3354 197.816 43.4229 197.66C43.5103 197.503 43.7084 197.448 43.8644 197.534L49.5404 200.702C49.6967 200.79 49.7529 200.987 49.6655 201.144C49.5775 201.302 49.3794 201.356 49.224 201.269Z" fill="#080200"/>
<path d="M43.495 196.704C43.4864 196.525 43.6247 196.372 43.8037 196.364L50.0477 196.064C50.2286 196.046 50.379 196.193 50.3877 196.373C50.3963 196.552 50.258 196.704 50.079 196.713L43.835 197.012C43.6695 197.025 43.5041 196.891 43.495 196.704Z" fill="#080200"/>
<path d="M32.3177 198.239C31.7153 197.726 31.4143 197.042 31.4478 196.26C31.5145 194.704 32.0493 189.596 36.1438 189.188C39.8186 188.82 40.3911 190.222 41.8171 192.617C43.1602 194.878 43.6235 197.961 43.6425 198.091C43.6683 198.269 43.5455 198.433 43.3683 198.459C43.1892 198.481 43.026 198.362 42.9998 198.185C42.9952 198.155 42.5351 195.097 41.2587 192.948C39.8594 190.595 39.4909 189.505 36.2078 189.833C32.6332 190.19 32.1572 194.864 32.0964 196.288C32.0715 196.87 32.2878 197.36 32.7392 197.745C33.7999 198.649 36.0251 198.862 38.6904 198.317C41.0909 197.825 42.7899 198.302 42.8606 198.323C43.0328 198.372 43.1317 198.551 43.0823 198.724C43.0329 198.895 42.8533 198.994 42.6811 198.946C42.6652 198.941 41.0533 198.495 38.8204 198.952C36.8147 199.364 33.8824 199.573 32.3177 198.239Z" fill="#080200"/>
<path d="M41.6278 197.836C41.616 197.817 40.427 196.023 37.9231 194.701C35.4223 193.38 32.3255 193.592 32.2951 193.596C32.1165 193.61 31.9606 193.475 31.9475 193.296C31.9339 193.118 32.0681 192.962 32.2467 192.948C32.3808 192.939 35.557 192.717 38.2264 194.127C40.8885 195.533 42.1214 197.403 42.1726 197.482C42.2701 197.632 42.2271 197.833 42.077 197.93C41.9247 198.029 41.7252 197.985 41.6278 197.836Z" fill="#080200"/>
<path d="M67.867 188.337L64.7697 128.581L71.9044 128.912V120.119H46.6846V188.888L67.867 188.337Z" fill="#FA5A4C"/>
<path d="M84.017 196.831L83.3552 212.488C83.3148 213.447 84.0849 214.245 85.0454 214.239L128.434 213.946C128.434 213.946 128.004 206.417 122.584 204.021C117.164 201.624 109.606 199.707 108.794 197.753C107.983 195.799 108.794 189.125 108.794 189.125C108.794 189.125 100.904 187.982 99.8714 191.485C98.8389 194.987 101.088 196.942 101.088 196.942L84.017 196.831Z" fill="#393742"/>
<path d="M86.8018 208.152C86.8018 209.648 88.0148 210.861 89.5111 210.861C91.0073 210.861 92.2208 209.648 92.2208 208.152C92.2208 206.655 91.0078 205.442 89.5111 205.442C88.0148 205.442 86.8018 206.655 86.8018 208.152Z" fill="white"/>
<path d="M110.58 204.708L109.704 198.974C109.677 198.797 109.798 198.631 109.975 198.604C110.151 198.58 110.318 198.699 110.345 198.876L111.221 204.61C111.249 204.787 111.127 204.953 110.95 204.98C110.774 205.007 110.607 204.887 110.58 204.708Z" fill="#080200"/>
<path d="M106.614 204.583C106.449 204.512 106.374 204.32 106.446 204.157L109.007 198.273C109.079 198.108 109.272 198.033 109.434 198.105C109.598 198.176 109.673 198.367 109.602 198.531L107.041 204.415C106.967 204.584 106.771 204.654 106.614 204.583Z" fill="#080200"/>
<path d="M102.698 201.144C102.611 200.988 102.667 200.79 102.824 200.703L108.5 197.535C108.657 197.447 108.854 197.504 108.941 197.66C109.028 197.817 108.973 198.014 108.816 198.102L103.14 201.27C102.986 201.356 102.787 201.303 102.698 201.144Z" fill="#080200"/>
<path d="M108.529 197.013L102.285 196.713C102.106 196.704 101.968 196.553 101.976 196.373C101.985 196.194 102.138 196.061 102.316 196.064L108.56 196.364C108.739 196.373 108.877 196.524 108.869 196.704C108.86 196.893 108.693 197.025 108.529 197.013Z" fill="#080200"/>
<path d="M113.543 198.95C111.309 198.494 109.699 198.941 109.683 198.945C109.508 198.993 109.33 198.894 109.281 198.723C109.232 198.55 109.331 198.371 109.503 198.321C109.574 198.301 111.272 197.823 113.673 198.316C116.339 198.861 118.564 198.648 119.625 197.743C120.076 197.359 120.292 196.869 120.268 196.287C120.207 194.862 119.73 190.189 116.156 189.832C113.095 189.525 112.532 190.494 111.414 192.42C111.315 192.59 111.212 192.766 111.105 192.947C109.827 195.099 109.368 198.154 109.364 198.184C109.338 198.361 109.17 198.48 108.995 198.458C108.818 198.432 108.695 198.267 108.721 198.09C108.74 197.96 109.204 194.876 110.547 192.616C110.653 192.436 110.755 192.262 110.852 192.094C111.991 190.134 112.742 188.836 116.22 189.187C120.314 189.595 120.85 194.703 120.916 196.259C120.949 197.04 120.648 197.724 120.046 198.238C118.481 199.571 115.549 199.361 113.543 198.95Z" fill="#080200"/>
<path d="M110.286 197.931C110.135 197.833 110.093 197.633 110.19 197.482C110.241 197.403 111.474 195.533 114.136 194.127C116.805 192.717 119.981 192.938 120.116 192.949C120.294 192.962 120.428 193.118 120.415 193.296C120.401 193.475 120.245 193.609 120.067 193.596C120.036 193.592 116.94 193.38 114.439 194.701C111.934 196.024 110.746 197.818 110.734 197.836C110.639 197.984 110.439 198.03 110.286 197.931Z" fill="#080200"/>
<path d="M84.4963 188.338L71.804 128.582L64.7563 128.914L62.4541 120.12H87.6739L105.679 188.89L84.4963 188.338Z" fill="#FA5A4C"/>
<path d="M87.7777 187.281C88.4091 187.281 88.9209 186.769 88.9209 186.138C88.9209 185.506 88.4091 184.995 87.7777 184.995C87.1463 184.995 86.6345 185.506 86.6345 186.138C86.6345 186.769 87.1463 187.281 87.7777 187.281Z" fill="#CD2A2B"/>
<path d="M92.5155 180.588C93.1468 180.588 93.6587 180.076 93.6587 179.444C93.6587 178.813 93.1468 178.301 92.5155 178.301C91.8841 178.301 91.3723 178.813 91.3723 179.444C91.3723 180.076 91.8841 180.588 92.5155 180.588Z" fill="#CD2A2B"/>
<path d="M90.0635 168.844C90.6948 168.844 91.2066 168.332 91.2066 167.701C91.2066 167.069 90.6948 166.558 90.0635 166.558C89.4321 166.558 88.9203 167.069 88.9203 167.701C88.9203 168.332 89.4321 168.844 90.0635 168.844Z" fill="#CD2A2B"/>
<path d="M91.7602 150.648C92.3915 150.648 92.9033 150.137 92.9033 149.505C92.9033 148.874 92.3915 148.362 91.7602 148.362C91.1288 148.362 90.6169 148.874 90.6169 149.505C90.6169 150.137 91.1288 150.648 91.7602 150.648Z" fill="#CD2A2B"/>
<path d="M96.6808 173.657C97.3122 173.657 97.824 173.145 97.824 172.513C97.824 171.882 97.3122 171.37 96.6808 171.37C96.0495 171.37 95.5376 171.882 95.5376 172.513C95.5376 173.145 96.0495 173.657 96.6808 173.657Z" fill="#CD2A2B"/>
<path d="M80.5878 151.791C81.2192 151.791 81.731 151.279 81.731 150.648C81.731 150.017 81.2192 149.505 80.5878 149.505C79.9564 149.505 79.4446 150.017 79.4446 150.648C79.4446 151.279 79.9564 151.791 80.5878 151.791Z" fill="#CD2A2B"/>
<path d="M59.4223 114.617C59.8283 114.617 60.1575 114.288 60.1575 113.882C60.1575 113.476 59.8283 113.147 59.4223 113.147C59.0162 113.147 58.687 113.476 58.687 113.882C58.687 114.288 59.0162 114.617 59.4223 114.617Z" fill="#4C4A49"/>
<path d="M73.5793 99.6562C73.5793 100.062 73.2503 100.391 72.8441 100.391C72.438 100.391 72.1089 100.062 72.1089 99.6562C72.1089 99.25 72.438 98.921 72.8441 98.921C73.2503 98.921 73.5793 99.25 73.5793 99.6562Z" fill="#4C4A49"/>
<path d="M73.579 82.451C73.985 82.451 74.3142 82.1218 74.3142 81.7158C74.3142 81.3097 73.985 80.9805 73.579 80.9805C73.1729 80.9805 72.8438 81.3097 72.8438 81.7158C72.8438 82.1218 73.1729 82.451 73.579 82.451Z" fill="#4C4A49"/>
<path d="M62.2075 97.3804C62.2075 97.7865 61.8784 98.1156 61.4723 98.1156C61.0661 98.1156 60.7371 97.7865 60.7371 97.3804C60.7371 96.9742 61.0661 96.6451 61.4723 96.6451C61.8784 96.6451 62.2075 96.9742 62.2075 97.3804Z" fill="#4C4A49"/>
<path d="M71.7102 91.5125C71.7102 91.9186 71.3811 92.2476 70.975 92.2476C70.5689 92.2476 70.2397 91.9186 70.2397 91.5125C70.2397 91.1063 70.5689 90.7772 70.975 90.7772C71.3811 90.7772 71.7102 91.1063 71.7102 91.5125Z" fill="#4C4A49"/>
<path d="M64.2311 106.442C64.6372 106.442 64.9663 106.113 64.9663 105.707C64.9663 105.301 64.6372 104.972 64.2311 104.972C63.8251 104.972 63.4958 105.301 63.4958 105.707C63.4958 106.113 63.8251 106.442 64.2311 106.442Z" fill="#4C4A49"/>
<path d="M64.9585 86.4428C64.9585 86.8489 64.6294 87.1781 64.2232 87.1781C63.8171 87.1781 63.488 86.8489 63.488 86.4428C63.488 86.0367 63.8171 85.7076 64.2232 85.7076C64.6294 85.7076 64.9585 86.0367 64.9585 86.4428Z" fill="#4C4A49"/>
<path d="M73.579 114.929C73.985 114.929 74.3142 114.6 74.3142 114.194C74.3142 113.787 73.985 113.458 73.579 113.458C73.1729 113.458 72.8438 113.787 72.8438 114.194C72.8438 114.6 73.1729 114.929 73.579 114.929Z" fill="#4C4A49"/>
<path d="M62.7875 144.897C63.4188 144.897 63.9306 144.386 63.9306 143.754C63.9306 143.123 63.4188 142.611 62.7875 142.611C62.1561 142.611 61.6443 143.123 61.6443 143.754C61.6443 144.386 62.1561 144.897 62.7875 144.897Z" fill="#CD2A2B"/>
<path d="M61.6456 132.568C62.277 132.568 62.7888 132.056 62.7888 131.425C62.7888 130.793 62.277 130.281 61.6456 130.281C61.0142 130.281 60.5024 130.793 60.5024 131.425C60.5024 132.056 61.0142 132.568 61.6456 132.568Z" fill="#CD2A2B"/>
<path d="M51.8597 133.712C52.4911 133.712 53.0029 133.201 53.0029 132.569C53.0029 131.938 52.4911 131.426 51.8597 131.426C51.2284 131.426 50.7166 131.938 50.7166 132.569C50.7166 133.201 51.2284 133.712 51.8597 133.712Z" fill="#CD2A2B"/>
<path d="M53.4572 157.823C54.0885 157.823 54.6004 157.311 54.6004 156.68C54.6004 156.048 54.0885 155.536 53.4572 155.536C52.8258 155.536 52.314 156.048 52.314 156.68C52.314 157.311 52.8258 157.823 53.4572 157.823Z" fill="#CD2A2B"/>
<path d="M62.7876 157.427C63.4189 157.427 63.9307 156.916 63.9307 156.284C63.9307 155.653 63.4189 155.141 62.7876 155.141C62.1562 155.141 61.6444 155.653 61.6444 156.284C61.6444 156.916 62.1562 157.427 62.7876 157.427Z" fill="#CD2A2B"/>
<path d="M63.388 168.19C64.0194 168.19 64.5312 167.678 64.5312 167.047C64.5312 166.415 64.0194 165.903 63.388 165.903C62.7567 165.903 62.2449 166.415 62.2449 167.047C62.2449 167.678 62.7567 168.19 63.388 168.19Z" fill="#CD2A2B"/>
<path d="M52.6112 146.042C53.2425 146.042 53.7544 145.53 53.7544 144.899C53.7544 144.268 53.2425 143.756 52.6112 143.756C51.9798 143.756 51.468 144.268 51.468 144.899C51.468 145.53 51.9798 146.042 52.6112 146.042Z" fill="#CD2A2B"/>
<path d="M53.4572 169.989C54.0885 169.989 54.6004 169.477 54.6004 168.846C54.6004 168.214 54.0885 167.702 53.4572 167.702C52.8258 167.702 52.314 168.214 52.314 168.846C52.314 169.477 52.8258 169.989 53.4572 169.989Z" fill="#CD2A2B"/>
<path d="M63.1361 180.588C63.7674 180.588 64.2793 180.076 64.2793 179.444C64.2793 178.813 63.7674 178.301 63.1361 178.301C62.5047 178.301 61.9929 178.813 61.9929 179.444C61.9929 180.076 62.5047 180.588 63.1361 180.588Z" fill="#CD2A2B"/>
<path d="M53.1554 182.057C53.7867 182.057 54.2985 181.546 54.2985 180.914C54.2985 180.283 53.7867 179.771 53.1554 179.771C52.524 179.771 52.0122 180.283 52.0122 180.914C52.0122 181.546 52.524 182.057 53.1554 182.057Z" fill="#CD2A2B"/>
<path d="M94.802 161.878C95.4333 161.878 95.9451 161.366 95.9451 160.735C95.9451 160.103 95.4333 159.592 94.802 159.592C94.1706 159.592 93.6588 160.103 93.6588 160.735C93.6588 161.366 94.1706 161.878 94.802 161.878Z" fill="#CD2A2B"/>
<path d="M87.7777 156.68C88.4091 156.68 88.9209 156.168 88.9209 155.537C88.9209 154.905 88.4091 154.394 87.7777 154.394C87.1463 154.394 86.6345 154.905 86.6345 155.537C86.6345 156.168 87.1463 156.68 87.7777 156.68Z" fill="#CD2A2B"/>
<path d="M78.5416 139.752C79.173 139.752 79.6848 139.24 79.6848 138.609C79.6848 137.977 79.173 137.465 78.5416 137.465C77.9102 137.465 77.3984 137.977 77.3984 138.609C77.3984 139.24 77.9102 139.752 78.5416 139.752Z" fill="#CD2A2B"/>
<path d="M99.2254 184.719C99.8568 184.719 100.369 184.207 100.369 183.576C100.369 182.944 99.8568 182.432 99.2254 182.432C98.5941 182.432 98.0823 182.944 98.0823 183.576C98.0823 184.207 98.5941 184.719 99.2254 184.719Z" fill="#CD2A2B"/>
<path d="M80.981 120.445H55.9716C55.7925 120.445 55.647 120.299 55.647 120.12C55.647 119.941 55.7925 119.795 55.9716 119.795H80.981C81.16 119.795 81.3056 119.941 81.3056 120.12C81.3056 120.299 81.16 120.445 80.981 120.445Z" fill="#080200"/>
<path d="M143.988 56.0556C143.988 56.0556 138.856 66.9903 130.951 80.6989C128.974 84.1257 126.944 86.4138 125.95 88.3838C121.991 96.2324 110.435 92.976 102.452 92.6895L110.898 131.426C111.141 131.508 78.5397 128.198 78.5397 128.198L78.0506 106.246L76.1768 60.1488C76.1768 60.1488 104.619 69.5948 111.517 68.0849C118.414 66.5705 124.892 45.2027 124.892 45.2027L143.988 56.0556Z" fill="#8471F4"/>
<path d="M78.054 106.571C77.8813 106.571 77.7371 106.435 77.7303 106.26L75.856 60.1634C75.8483 59.9784 75.9965 59.8257 76.1806 59.8257C76.3533 59.8257 76.4974 59.9626 76.5042 60.1371L78.3786 106.234C78.3863 106.413 78.2466 106.564 78.0676 106.571C78.0635 106.571 78.059 106.571 78.054 106.571Z" fill="#080200"/>
<path d="M62.8689 60.2346C62.8689 60.2346 49.4594 63.3174 45.0168 67.9064C40.5742 72.4954 36.2295 122.926 37.5966 125.074C38.9637 127.222 55.3666 130.785 55.6109 128.198C55.8548 125.611 56.6362 96.3192 58.1493 85.5301C59.6628 74.7411 62.8689 60.2346 62.8689 60.2346Z" fill="#8471F4"/>
<path d="M55.5811 128.52C55.4025 128.503 55.2715 128.344 55.2883 128.166C55.5376 125.521 56.3123 96.2913 57.8285 85.4837C59.3262 74.8057 62.5204 60.3084 62.5526 60.1629C62.5916 59.9889 62.7652 59.8804 62.9393 59.9163C63.1143 59.9552 63.2249 60.1284 63.1864 60.3034C63.1542 60.4484 59.9658 74.9213 58.4713 85.5743C56.9646 96.3172 56.1781 125.643 55.9343 128.227C55.9184 128.399 55.7688 128.535 55.5811 128.52Z" fill="#080200"/>
<path d="M58.4115 82.1844C55.574 77.6335 54.0015 63.5019 53.9358 62.9026C53.9163 62.7245 54.045 62.564 54.2232 62.5445C54.4013 62.52 54.5613 62.6533 54.5812 62.8315C54.5971 62.977 56.2031 77.4154 58.9622 81.8412C59.057 81.9935 59.0107 82.1935 58.8589 82.2882C58.7084 82.382 58.5072 82.3381 58.4115 82.1844Z" fill="#080200"/>
<path d="M77.0807 85.3334C76.9184 85.2572 76.849 85.0636 76.9252 84.9013C81.4313 75.3176 85.141 62.9022 85.1781 62.778C85.2289 62.6071 85.408 62.5069 85.5816 62.5595C85.7534 62.6107 85.8512 62.7911 85.8 62.9629C85.7628 63.0876 82.0396 75.5488 77.5127 85.1779C77.4356 85.3411 77.2411 85.4095 77.0807 85.3334Z" fill="#080200"/>
<path d="M23.2114 59.9558C23.2109 59.9558 23.2109 59.9558 23.2114 59.9558C15.8029 59.944 3.49947 55.1936 3.37572 55.1455C3.20892 55.0802 3.12593 54.8926 3.19075 54.7253C3.25602 54.5585 3.44323 54.476 3.61094 54.5404C3.73288 54.588 15.9253 59.2953 23.2114 59.3066C23.3909 59.3071 23.5355 59.4526 23.5355 59.6316C23.5355 59.8111 23.3904 59.9558 23.2114 59.9558Z" fill="#080200"/>
<path d="M24.4147 54.8584C24.412 54.8584 24.4088 54.8584 24.4061 54.8584C14.6397 54.6018 5.71087 50.6605 4.72498 50.2122C4.5618 50.1379 4.48841 49.9447 4.56275 49.7815C4.63708 49.6183 4.82835 49.5458 4.99107 49.6202C10.2609 51.9913 17.9767 54.0401 24.4229 54.2092C24.6019 54.2137 24.7438 54.3629 24.7388 54.5424C24.7348 54.7183 24.5901 54.8584 24.4147 54.8584Z" fill="#080200"/>
<path d="M141.573 54.6802C141.573 54.6802 143.858 50.7099 147.84 42.7457C151.822 34.7816 152.431 29.5552 151.407 27.7303C150.384 25.9054 143.139 23.3334 140.595 24.1906C138.051 25.0477 137.581 34.0073 137.581 34.0073C137.581 34.0073 136.316 36.5788 137.581 38.2011C138.845 39.8234 142.877 41.0282 142.877 41.0282L141.579 48.5595L124.871 45.0139L141.573 54.6802Z" fill="#F79D89"/>
<path d="M144.964 42.3588C143.499 38.7996 141.907 39.2489 141.89 39.253C141.722 39.3056 141.539 39.2135 141.483 39.0454C141.428 38.8777 141.514 38.6972 141.681 38.6382C141.769 38.6088 143.845 37.9366 145.564 42.1118C145.633 42.2772 145.554 42.4672 145.388 42.5352C145.228 42.6027 145.034 42.5283 144.964 42.3588Z" fill="#080200"/>
<path d="M148.01 37.6754C143.452 32.5642 138.189 34.5676 137.967 34.656C137.8 34.7209 137.612 34.6407 137.546 34.4739C137.48 34.308 137.561 34.1194 137.727 34.0532C137.786 34.0297 143.625 31.7836 148.494 37.2434C148.614 37.3771 148.602 37.5824 148.468 37.7016C148.336 37.82 148.131 37.811 148.01 37.6754Z" fill="#080200"/>
<path d="M148.787 34.6728C145.289 30.2668 141.051 30.6403 141.01 30.6458C140.827 30.6634 140.673 30.5343 140.654 30.3562C140.636 30.1776 140.765 30.0189 140.943 29.9998C141.13 29.9826 145.567 29.5728 149.295 34.2684C149.407 34.4094 149.384 34.6134 149.243 34.7244C149.102 34.8368 148.897 34.8124 148.787 34.6728Z" fill="#080200"/>
<path d="M148.787 30.2461C145.715 26.3954 143.523 27.1429 143.501 27.1492C143.333 27.2104 143.147 27.1261 143.084 26.9602C143.021 26.7939 143.102 26.6084 143.268 26.5436C143.373 26.501 145.893 25.5782 149.294 29.8408C149.406 29.9809 149.384 30.1853 149.243 30.2968C149.101 30.4101 148.897 30.3852 148.787 30.2461Z" fill="#080200"/>
<path d="M122.15 33.9583L93.6621 28.3018C93.4862 28.2674 93.3719 28.096 93.4073 27.9201C93.4422 27.7443 93.6145 27.6314 93.789 27.6654L122.277 33.3219C122.453 33.3564 122.567 33.5277 122.532 33.7036C122.498 33.8754 122.33 33.9937 122.15 33.9583Z" fill="#080200"/>
<path d="M133.929 31.4396L94.6423 23.9831C94.466 23.9495 94.3504 23.7801 94.384 23.6037C94.4175 23.4269 94.5911 23.3118 94.7633 23.3449L134.05 30.8014C134.227 30.8354 134.342 31.0045 134.309 31.1808C134.275 31.359 134.103 31.4722 133.929 31.4396Z" fill="#080200"/>
<path d="M98.212 15.7197C99.1283 15.7197 99.871 14.9769 99.871 14.0606C99.871 13.1444 99.1283 12.4016 98.212 12.4016C97.2958 12.4016 96.553 13.1444 96.553 14.0606C96.553 14.9769 97.2958 15.7197 98.212 15.7197Z" fill="#080200"/>
<path d="M106.064 15.1119C106.064 16.028 105.321 16.7709 104.405 16.7709C103.489 16.7709 102.746 16.028 102.746 15.1119C102.746 14.1958 103.489 13.453 104.405 13.453C105.321 13.453 106.064 14.1958 106.064 15.1119Z" fill="#080200"/>
<path d="M110.325 18.0053C111.241 18.0053 111.984 17.2626 111.984 16.3464C111.984 15.4301 111.241 14.6873 110.325 14.6873C109.408 14.6873 108.666 15.4301 108.666 16.3464C108.666 17.2626 109.408 18.0053 110.325 18.0053Z" fill="#080200"/>
<path d="M75.7218 43.98C75.7218 44.6069 75.2136 45.1145 74.5867 45.1145C73.9598 45.1145 73.4521 44.6064 73.4521 43.98C73.4521 43.3531 73.9603 42.845 74.5867 42.845C75.2136 42.845 75.7218 43.3531 75.7218 43.98Z" fill="#080200"/>
<path d="M66.481 43.98C66.481 44.6069 65.9729 45.1145 65.346 45.1145C64.7191 45.1145 64.2114 44.6064 64.2114 43.98C64.2114 43.3531 64.7195 42.845 65.346 42.845C65.9729 42.845 66.481 43.3531 66.481 43.98Z" fill="#080200"/>
<path d="M64.5181 47.4513C64.5181 54.1001 73.1291 54.1001 73.1291 47.4513C70.175 48.0175 67.2994 48.0528 64.5181 47.4513Z" fill="#080200"/>
<path d="M66.4795 49.1802C66.4795 53.3354 72.7312 53.3354 72.7312 49.1802C70.5867 49.5342 68.4989 49.5564 66.4795 49.1802Z" fill="white"/>
<path d="M63.8886 36.5228C63.8886 36.5228 64.9905 39.4287 67.3113 39.0996C69.6322 38.7705 71.3991 37.2117 71.3991 37.2117C71.3991 37.2117 71.4857 41.022 74.9497 40.7622C74.9497 40.7622 76.755 45.4488 80.8582 43.9802C84.9608 42.5115 84.6494 35.9816 78.0501 34.9599C78.0501 34.9599 78.206 28.4992 72.6805 27.1656C67.1554 25.8321 66.7221 30.6124 66.7221 30.6124C66.7221 30.6124 62.2708 27.8237 61.2315 31.3743C60.251 34.7268 63.8886 36.5228 63.8886 36.5228Z" fill="white"/>
<path d="M79.3166 44.5903C76.5756 44.5903 75.1147 41.8943 74.7426 41.0974C72.6924 41.1622 71.4726 39.7928 71.1399 37.8246C70.4454 38.325 69.0516 39.1804 67.3563 39.4202C65.0559 39.7529 63.8765 37.3246 63.6313 36.7526C63.0003 36.3981 59.9769 34.5048 60.9197 31.2833C61.6653 28.7349 64.1339 28.8673 66.4819 30.1038C67.0653 27.57 69.1671 25.9853 72.7558 26.8497C77.7913 28.0654 78.3163 33.3901 78.3684 34.6843C82.1184 35.361 83.6645 37.7127 83.8558 39.7212C84.1151 42.43 81.9946 44.5903 79.3166 44.5903ZM75.2521 40.6446C75.3214 40.8236 76.9945 45.0173 80.7486 43.6738C84.5326 42.3189 84.2692 36.2503 78.0003 35.2799C77.8398 35.2549 77.7225 35.1145 77.7256 34.9517C77.7315 34.6988 77.8058 28.7363 72.6044 27.4808C70.9091 27.071 69.5538 27.2178 68.5784 27.9172C67.2185 28.8918 67.0472 30.6238 67.0458 30.641C67.0241 30.8812 66.7553 31.0154 66.5504 30.8871C66.5273 30.8726 64.2291 29.4557 62.7133 30.0322C62.1449 30.2489 61.7619 30.7177 61.5429 31.4656C60.6513 34.5121 63.8937 36.1625 64.0319 36.2314C64.1049 36.2676 64.162 36.3306 64.1915 36.4068C64.2015 36.4335 65.23 39.0634 67.2652 38.7779C69.4645 38.4656 71.1671 36.9829 71.1839 36.9675C71.3919 36.7835 71.7155 36.9303 71.7228 37.2028C71.7232 37.2195 71.7776 38.8808 72.8084 39.8132C73.3401 40.2937 74.0504 40.504 74.9252 40.4383C75.0811 40.4297 75.204 40.5199 75.2521 40.6446Z" fill="#080200"/>
<path d="M30.9771 27.8948C29.6494 28.3087 26.7538 25.3419 26.7538 25.3419L23.8261 26.6587C24.1012 27.1568 29.8702 41.6397 29.8702 41.6397C29.8702 41.6397 28.7374 44.9019 23.6208 45.7596L22.9581 50.4537L6.81348 47.4948C6.81348 47.4948 12.1445 25.2956 15.1598 23.8034C18.1727 22.3089 22.6525 22.1159 26.6904 23.3053C30.7282 24.4938 32.3052 27.4787 30.9771 27.8948Z" fill="#F79D89"/>
<path d="M19.6492 33.2227C19.1257 33.3659 17.7949 33.6438 16.1758 33.3293C15.9999 33.2953 15.8847 33.1248 15.9192 32.9485C15.9541 32.773 16.1263 32.6575 16.2999 32.6919C18.172 33.0559 19.6542 32.5437 19.6692 32.5387C19.8324 32.4816 20.0132 32.5618 20.0785 32.7227C20.0794 32.7227 20.4371 33.366 22.281 33.1312C22.9745 33.0437 23.4536 32.7313 23.7061 32.2037C24.1512 31.2722 23.8303 29.7673 22.8476 28.1767C21.2793 25.636 16.4268 27.9156 16.3779 27.9392C16.2161 28.0158 16.0225 27.9483 15.945 27.7865C15.868 27.6251 15.936 27.4311 16.0978 27.3536C16.3185 27.2484 21.5259 24.8016 23.3997 27.8354C24.5153 29.6413 24.8402 31.3357 24.2918 32.4839C23.9432 33.2132 23.276 33.6596 22.3626 33.7757C21.4728 33.8876 20.2557 33.8813 19.6492 33.2227Z" fill="#080200"/>
<path d="M19.5694 33.0931C19.4325 32.9775 19.4157 32.7728 19.5312 32.6359C19.7144 32.4187 20.1518 31.7483 19.9796 31.2579C19.8282 30.8268 19.2217 30.6232 18.7389 30.5276C18.5631 30.4931 18.4484 30.3222 18.4833 30.1464C18.5182 29.9705 18.69 29.8553 18.8645 29.8912C19.8091 30.0775 20.3907 30.466 20.5929 31.0453C20.9215 31.9877 20.063 33.0126 20.0263 33.0556C19.9102 33.1921 19.7058 33.2087 19.5694 33.0931Z" fill="#080200"/>
<path d="M25.5557 27.0447C25.4573 27.0447 25.3603 27.0003 25.2964 26.916C24.0929 25.3227 22.2979 24.6097 22.2798 24.6029C22.113 24.5376 22.03 24.35 22.0953 24.1827C22.1601 24.0154 22.3478 23.9334 22.5151 23.9978C22.5953 24.029 24.4968 24.7801 25.8149 26.5248C25.9772 26.7401 25.8199 27.0447 25.5557 27.0447Z" fill="#080200"/>
<path d="M22.0748 44.0018C21.5273 36.515 27.6216 35.2884 27.6833 35.277C27.8582 35.2448 28.0283 35.36 28.0614 35.5359C28.0945 35.7117 27.9788 35.8812 27.803 35.9148C27.5745 35.9583 22.2176 37.058 22.7221 43.9543C22.7353 44.1329 22.6011 44.2883 22.4221 44.3014C22.2294 44.3118 22.0871 44.1709 22.0748 44.0018Z" fill="#080200"/>
<path d="M141.812 60.4855L123.118 50.2414C122.961 50.1553 122.904 49.9581 122.99 49.8008C123.075 49.6435 123.273 49.5854 123.43 49.672L142.124 59.9163C142.281 60.0024 142.339 60.1995 142.253 60.3568C142.166 60.5155 141.967 60.5703 141.812 60.4855Z" fill="#080200"/>
<path d="M139.559 64.9277L121.248 54.9682C121.091 54.8825 121.033 54.6853 121.118 54.5281C121.204 54.3708 121.4 54.3131 121.558 54.3979L139.869 64.3574C140.026 64.4431 140.084 64.6404 139.999 64.7976C139.914 64.9531 139.719 65.0138 139.559 64.9277Z" fill="#080200"/>
<path d="M103.625 98.5322L99.6618 83.183C99.6169 83.0094 99.7212 82.8322 99.8952 82.7873C100.066 82.7442 100.246 82.8466 100.291 83.0207L104.254 98.3698C104.299 98.5434 104.195 98.7207 104.021 98.7651C103.842 98.81 103.669 98.7021 103.625 98.5322Z" fill="#080200"/>
<path d="M38.7708 100.71C38.5931 100.687 38.468 100.524 38.4907 100.346L40.9706 81.2457C40.9932 81.068 41.1573 80.943 41.3341 80.9656C41.5118 80.9888 41.6369 81.1515 41.6143 81.3296L39.1343 100.43C39.1121 100.601 38.9571 100.732 38.7708 100.71Z" fill="#080200"/>
<path d="M60.1491 72.6754C60.0194 72.5512 60.0149 72.3458 60.1391 72.2167C60.2624 72.0866 60.4686 72.0828 60.5978 72.2066C65.2372 76.6483 70.4858 77.4253 76.6427 74.5832C76.8046 74.5075 76.9985 74.5786 77.0733 74.7418C77.1486 74.9045 77.0774 75.0977 76.9147 75.1725C70.3294 78.2118 64.8823 77.2073 60.1491 72.6754Z" fill="#080200"/>
<path d="M57.7647 126.918C57.5857 126.918 57.4402 126.772 57.4402 126.593V120.323C57.4402 120.143 57.5857 119.998 57.7647 119.998C57.9438 119.998 58.0893 120.143 58.0893 120.323V126.593C58.0893 126.773 57.9438 126.918 57.7647 126.918Z" fill="#080200"/>
<path d="M61.6866 126.918C61.5076 126.918 61.3621 126.772 61.3621 126.593V120.323C61.3621 120.144 61.5076 119.998 61.6866 119.998C61.8657 119.998 62.0112 120.144 62.0112 120.323V126.593C62.0112 126.773 61.8657 126.918 61.6866 126.918Z" fill="#080200"/>
<path d="M65.6085 126.918C65.4294 126.918 65.2839 126.772 65.2839 126.593V120.323C65.2839 120.143 65.4294 119.998 65.6085 119.998C65.7875 119.998 65.933 120.143 65.933 120.323V126.593C65.9325 126.773 65.7875 126.918 65.6085 126.918Z" fill="#080200"/>
<path d="M69.5316 126.918C69.3525 126.918 69.207 126.772 69.207 126.593V120.323C69.207 120.144 69.3525 119.998 69.5316 119.998C69.7106 119.998 69.8561 120.144 69.8561 120.323V126.593C69.8561 126.773 69.7106 126.918 69.5316 126.918Z" fill="#080200"/>
<path d="M73.4525 126.918C73.2735 126.918 73.1279 126.772 73.1279 126.593V120.323C73.1279 120.144 73.2735 119.998 73.4525 119.998C73.6316 119.998 73.777 120.144 73.777 120.323V126.593C73.777 126.773 73.6316 126.918 73.4525 126.918Z" fill="#080200"/>
<path d="M77.3746 126.918C77.1956 126.918 77.05 126.772 77.05 126.593V120.323C77.05 120.143 77.1956 119.998 77.3746 119.998C77.5537 119.998 77.6992 120.143 77.6992 120.323V126.593C77.6992 126.773 77.5537 126.918 77.3746 126.918Z" fill="#080200"/>
<path d="M77.176 110.003L81.6789 135.526C81.6789 135.526 81.9418 142.892 87.7389 142.176C93.5359 141.461 137.504 130.62 137.692 130.62C137.88 130.62 141.758 130.13 141.005 124.371C140.252 118.612 134.178 95.6723 134.178 95.6723C134.178 95.6723 132.685 91.6349 126.878 92.3538C121.07 93.0727 79.9782 105.572 79.9782 105.572C76.8732 106.208 76.7617 107.441 77.176 110.003Z" fill="#394160"/>
<path d="M104.632 138.534C104.632 138.534 98.063 128.69 98.6899 127.916C99.3168 127.142 106.912 128.948 106.912 128.948C106.912 128.948 109.935 118.551 112.148 119.214C114.36 119.878 115.171 130.275 115.171 130.275C115.171 130.275 123.541 129.095 123.135 130.386C122.73 131.676 117.767 135.424 117.767 135.424L104.632 138.534Z" fill="#6289E0"/>
<path d="M124.426 111.067C124.426 111.067 116.634 110.146 117.273 111.964C117.912 113.783 122.656 116.168 122.656 116.168C122.656 116.168 118.87 123.566 120.197 123.837C121.525 124.107 126.22 121.157 126.22 121.157C126.22 121.157 131.75 127.303 132.733 126.024C133.717 124.746 132.414 118.061 132.414 118.061C132.414 118.061 138.117 115.455 137.871 114.251C137.625 113.046 131.455 111.388 131.455 111.388C131.455 111.388 129.931 103.731 128.899 103.853C127.866 103.976 124.426 111.067 124.426 111.067Z" fill="#E3C21C"/>
<path d="M86.2613 103.678C86.2613 103.678 78.914 111.205 80.345 111.663C81.7765 112.121 88.4751 108.151 88.4751 108.151C88.4751 108.151 90.5362 121.396 92.0438 120.48C93.5515 119.564 94.0859 109.888 94.0859 109.888C94.0859 109.888 104.945 110.823 105.67 110.06C106.396 109.296 96.7194 104.2 96.7194 104.2L98.6654 99.9913L86.2613 103.678Z" fill="#6289E0"/>
</svg>
