<svg width="198" height="231" viewBox="0 0 198 231" fill="none" xmlns="http://www.w3.org/2000/svg">
<path d="M53.5386 30.1669C53.5386 30.1669 53.756 40.4276 44.8171 47.1762C35.8782 53.9248 24.0636 56.0892 21.7715 67.7466C19.6616 78.4799 24.0636 88.3974 39.2895 89.4509C52.991 90.399 57.1516 68.7853 71.0585 78.5909C84.9654 88.3974 91.3088 84.1463 91.504 75.9973C91.7001 67.8483 83.8915 61.5021 83.5048 51.0647C83.1173 40.6274 86.8976 30.8939 86.8976 30.8939L53.5386 30.1669Z" fill="#272327"/>
<path d="M34.6474 230.917L100.002 230.236C118.884 229.337 126.423 230.477 132.543 229.978C137.804 229.549 153.418 214.273 156.127 200.344C165.883 150.196 126.289 104.149 75.2156 105.38C57.1482 105.815 36.736 109.351 23.0687 120.946C-6.66262 146.17 -8.70218 221.656 23.0761 228.775C26.9147 229.634 30.7792 230.34 34.6474 230.917Z" fill="#0E0F11"/>
<path d="M21.4341 123.762C15.1785 136.413 11.7608 150.355 11.178 164.444C10.5925 178.611 12.8448 192.918 17.873 206.181C20.6793 213.585 24.3505 220.643 28.8394 227.167C29.0808 227.518 29.6571 227.186 29.4138 226.831C21.4618 215.276 16.1248 202.049 13.5497 188.272C10.9708 174.479 11.1475 160.149 14.1722 146.442C15.8787 138.71 18.4983 131.196 22.0085 124.098C22.1972 123.716 21.6237 123.378 21.4341 123.762Z" fill="#D28022"/>
<path d="M44.5747 117.082C44.5747 117.082 19.817 123.675 24.6176 151.491C27.4822 168.085 54.3359 164.094 78.4397 164.424C102.015 164.747 117.268 148.718 108.634 140.103C100.001 131.488 44.5747 117.082 44.5747 117.082Z" fill="#D28022"/>
<path d="M72.906 52.5466C72.906 52.5466 81.4324 58.5996 87.7444 61.5058C93.8898 64.3353 87.588 72.0967 89.2261 74.6524C90.8652 77.2081 94.6317 82.917 93.8538 87.3578C93.0759 91.7986 86.7038 95.7454 87.4974 98.1966C88.291 100.648 93.7048 121.38 95.8924 127.938C97.9606 134.138 89.6803 140.524 78.071 140.588C66.4617 140.652 64.6812 142.142 52.0914 139.447C40.3508 136.933 34.6779 132.506 37.4584 127.435C40.2388 122.364 44.9469 115.301 46.9245 105.563C48.9021 95.825 43.6362 89.0745 39.2278 73.6636C33.6623 54.206 43.1645 51.8177 57.0798 50.2869C65.8494 49.3221 72.906 52.5466 72.906 52.5466Z" fill="#FDD501"/>
<path d="M89.861 63.2629C89.861 63.2629 98.6269 76.4419 99.4122 82.1979C100.198 87.954 88.7594 88.3934 88.7594 88.3934C88.7594 88.3934 85.2177 69.2363 89.861 63.2629Z" fill="#FDD501"/>
<path d="M90.4036 119.374C78.9109 127.494 64.9189 131.726 50.8528 131.351C50.333 131.337 50.3312 130.528 50.8528 130.542C64.7903 130.913 78.6093 126.719 89.9957 118.675C90.4221 118.375 90.8263 119.076 90.4036 119.374Z" fill="#141413"/>
<path d="M86.315 71.9679C83.8287 76.7722 76.5039 76.023 72.0243 75.8223C64.9464 75.505 57.9481 74.1305 51.2522 71.8264C50.7546 71.6553 51.0598 70.8959 51.5565 71.067C57.5365 73.1241 63.7513 74.4237 70.0596 74.8871C73.0029 75.1036 76.0229 75.2303 78.9662 74.9676C81.4645 74.7447 84.3069 74.075 85.5556 71.6627C85.7952 71.2011 86.5574 71.4999 86.315 71.9679Z" fill="#141413"/>
<path d="M85.5485 97.6706C76.087 96.7466 66.5561 97.3608 57.2907 99.4845C56.7764 99.602 56.6534 98.7935 57.163 98.677C66.4969 96.5384 76.1101 95.928 85.64 96.8585C86.1645 96.9094 86.0729 97.7215 85.5485 97.6706Z" fill="#141413"/>
<path d="M43.9559 70.2631C44.1196 74.8648 47.2968 78.9319 49.3318 82.8889C51.4305 86.969 53.237 91.2534 54.0288 95.7969C54.802 100.232 54.4626 104.677 52.8985 108.905C51.3269 113.153 48.8554 117.009 46.5855 120.905C45.3137 123.088 43.8264 125.169 42.7229 127.446C41.5879 129.789 41.1865 132.202 41.4621 134.79C41.5176 135.312 40.7101 135.441 40.6546 134.918C40.2329 130.955 41.4843 127.694 43.5202 124.363C45.964 120.363 48.5021 116.37 50.5842 112.166C52.8217 107.647 54.0288 102.911 53.4923 97.8512C52.9799 93.0146 51.2002 88.4406 49.0404 84.1191C46.8861 79.8088 43.325 75.3791 43.1483 70.3898C43.1289 69.8709 43.9374 69.7386 43.9559 70.2631Z" fill="#141413"/>
<path d="M52.0292 50.9429C52.7618 53.2655 54.2464 55.305 56.1102 56.9413C58.8425 59.3379 62.3695 61.3109 65.7835 62.5549C68.7665 63.6399 72.4082 63.7028 74.6706 61.1462C76.1654 59.4591 76.6593 57.3326 76.7611 55.158C76.4993 54.9887 76.2505 54.8222 76.0118 54.6622C75.9674 56.8137 75.5641 58.9392 74.1064 60.6042C71.7967 63.2468 68.0497 62.7002 65.1573 61.4746C60.3392 59.4295 54.4647 56.0885 52.7794 50.8254C52.5269 50.8633 52.2771 50.9022 52.0292 50.9429Z" fill="#141413"/>
<path d="M167.459 197.155L173.654 212.256C173.654 212.256 170.152 217.591 164.256 217.178L153.833 198.685L167.459 197.155Z" fill="#D5794A"/>
<path d="M197.312 215.997L166.147 228.127C165.913 227.669 165.706 227.19 165.513 226.693C165.428 226.475 165.361 226.255 165.272 226.039C163.53 221.799 160.135 212.826 162.601 213.382C165.835 216.031 170.297 212.651 170.297 212.651C170.297 212.651 171.821 207.345 174.422 207.761C177.023 208.177 175.52 211.478 179.065 212.527C181.78 213.327 184.033 211.381 187.349 210.771C188.363 210.582 189.469 210.523 190.724 210.703C193.648 211.125 195.339 212.662 196.281 213.97C197.053 215.064 197.312 215.997 197.312 215.997Z" fill="#272327"/>
<path d="M162.837 218.479C166.847 218.701 170.538 220.565 173.124 223.633C173.411 223.974 173.901 223.482 173.614 223.142C170.912 219.937 167.017 218.017 162.837 217.786C162.391 217.76 162.392 218.454 162.837 218.479Z" fill="white"/>
<path d="M178.411 211.735C178.362 211.746 178.318 211.747 178.276 211.743C177.59 212.213 177.017 212.86 176.608 213.669C176.417 214.046 177.018 214.308 177.207 213.933C177.555 213.244 178.048 212.686 178.639 212.278C178.907 212.093 178.74 211.663 178.422 211.732C178.418 211.733 178.414 211.734 178.411 211.735Z" fill="white"/>
<path d="M179.747 211.907C179.698 211.918 179.655 211.919 179.612 211.915C178.926 212.385 178.353 213.031 177.944 213.841C177.754 214.218 178.354 214.48 178.544 214.104C178.892 213.416 179.385 212.857 179.976 212.45C180.244 212.265 180.076 211.833 179.758 211.904C179.755 211.905 179.751 211.906 179.747 211.907Z" fill="white"/>
<path d="M181.443 211.967C181.394 211.978 181.351 211.979 181.308 211.976C180.623 212.446 180.049 213.092 179.64 213.901C179.45 214.279 180.05 214.541 180.24 214.165C180.588 213.477 181.081 212.918 181.672 212.51C181.94 212.325 181.772 211.895 181.454 211.965C181.451 211.965 181.447 211.966 181.443 211.967Z" fill="white"/>
<path d="M183.309 211.575C183.26 211.586 183.217 211.587 183.174 211.583C182.488 212.053 181.915 212.7 181.506 213.509C181.316 213.886 181.916 214.148 182.106 213.773C182.453 213.085 182.946 212.526 183.538 212.118C183.806 211.933 183.638 211.503 183.32 211.572C183.316 211.574 183.313 211.574 183.309 211.575Z" fill="white"/>
<path d="M196.279 213.971L188.927 216.832C187.035 214.586 186.941 212.41 187.349 210.771C188.363 210.582 189.468 210.523 190.723 210.704C193.647 211.126 195.339 212.662 196.279 213.971Z" fill="white"/>
<path d="M197.312 215.999L166.147 228.129C165.913 227.671 165.706 227.192 165.512 226.696L165.259 226.045L196.279 213.973C197.053 215.066 197.312 215.999 197.312 215.999Z" fill="white"/>
<path d="M62.2039 115.959C62.2039 115.959 89.151 100.088 126.276 102.133C140.367 102.909 174.061 201.101 174.061 201.101L155.623 209.248C146.827 189.439 124.747 167.609 121.283 145.159C120.985 143.232 95.4611 157.656 72.804 157.883C14.863 154.032 54.7986 130.339 62.2039 115.959Z" fill="#8471F4"/>
<path d="M119.22 139.088C121.708 139.281 124.195 139.474 126.681 139.666C126.565 139.562 126.448 139.457 126.331 139.352C126.434 148.318 128.608 157.199 132.624 165.215C134.757 169.472 137.492 173.196 140.355 176.976C143.444 181.054 146.238 185.333 149.473 189.301C152.848 193.443 155.353 198.145 157.994 202.767C158.207 203.139 158.767 202.779 158.554 202.408C156.273 198.417 154.117 194.327 151.359 190.637C149.889 188.671 148.287 186.812 146.835 184.83C145.317 182.76 143.863 180.644 142.356 178.566C139.633 174.808 136.707 171.28 134.433 167.213C132.219 163.253 130.473 159.033 129.227 154.671C127.8 149.675 127.057 144.509 126.996 139.316C126.994 139.119 126.818 139.015 126.645 139.001C124.158 138.809 121.671 138.615 119.184 138.423C118.76 138.391 118.798 139.055 119.22 139.088Z" fill="#323380"/>
<path d="M112.612 199.092L110.246 215.243C110.246 215.243 104.026 218.884 99.1635 215.524L100.108 193.464L112.612 199.092Z" fill="#D5794A"/>
<path d="M132.543 229.979L96.9733 229.98C96.9178 229.436 96.8974 228.881 96.8974 228.315C96.8974 228.065 96.9159 227.822 96.9113 227.573C96.8197 222.698 96.9159 212.495 99.146 213.997C101.329 217.87 107.056 216.241 107.056 216.241C107.056 216.241 110.614 211.569 113.032 212.985C115.449 214.401 112.687 217.092 115.795 219.5C118.177 221.34 121.161 220.281 124.684 220.956C125.761 221.159 126.88 221.527 128.054 222.19C130.789 223.737 131.873 225.912 132.302 227.572C132.647 228.954 132.543 229.979 132.543 229.979Z" fill="#272327"/>
<path d="M97.3732 219.093C101.258 220.853 104.249 224.115 105.626 228.157C105.769 228.577 106.439 228.397 106.295 227.973C104.863 223.769 101.773 220.329 97.7229 218.494C97.3196 218.311 96.9672 218.908 97.3732 219.093Z" fill="white"/>
<path d="M115.454 218.46C115.401 218.452 115.357 218.436 115.317 218.417C114.456 218.617 113.639 219.038 112.921 219.682C112.586 219.982 113.08 220.473 113.413 220.175C114.024 219.627 114.728 219.263 115.471 219.087C115.809 219.007 115.809 218.516 115.466 218.463C115.462 218.461 115.458 218.461 115.454 218.46Z" fill="white"/>
<path d="M116.712 219.145C116.659 219.137 116.616 219.121 116.575 219.101C115.714 219.302 114.897 219.723 114.18 220.367C113.845 220.666 114.34 221.159 114.673 220.86C115.283 220.312 115.987 219.948 116.731 219.772C117.068 219.692 117.068 219.201 116.725 219.148C116.72 219.146 116.716 219.146 116.712 219.145Z" fill="white"/>
<path d="M118.367 219.864C118.314 219.855 118.271 219.84 118.23 219.82C117.369 220.021 116.552 220.442 115.834 221.086C115.5 221.385 115.994 221.876 116.327 221.578C116.938 221.03 117.642 220.667 118.385 220.49C118.723 220.409 118.723 219.919 118.38 219.866C118.375 219.865 118.371 219.865 118.367 219.864Z" fill="white"/>
<path d="M120.369 220.191C120.316 220.184 120.273 220.167 120.232 220.148C119.371 220.348 118.554 220.769 117.836 221.413C117.501 221.713 117.995 222.204 118.329 221.906C118.94 221.358 119.644 220.994 120.387 220.818C120.725 220.738 120.725 220.248 120.382 220.194C120.376 220.192 120.373 220.191 120.369 220.191Z" fill="white"/>
<path d="M132.301 227.573H123.91C122.901 224.615 123.647 222.423 124.683 220.956C125.761 221.16 126.88 221.528 128.054 222.191C130.789 223.738 131.873 225.912 132.301 227.573Z" fill="white"/>
<path d="M132.544 229.979L96.9741 229.98C96.9186 229.436 96.8983 228.881 96.8983 228.315V227.573L132.302 227.572C132.647 228.954 132.544 229.979 132.544 229.979Z" fill="white"/>
<path d="M36.7806 129.545C36.7806 129.545 71.5437 115.575 108.256 109.681C144.968 103.787 115.828 201.423 115.828 201.423L95.7668 198.632C95.7668 198.632 98.3854 149.269 97.2792 147.057C96.4069 145.313 85.9908 164.357 56.8367 165.142C18.5643 166.142 30.8118 139.499 36.7806 129.545Z" fill="#8471F4"/>
<path d="M100.531 192.593C101.621 182.913 102.446 173.204 103.056 163.482C103.356 158.709 103.603 153.933 103.794 149.153C103.915 146.127 104.683 141.13 101.045 139.76C97.2232 138.319 94.1855 141.987 91.6937 144.227C88.5497 147.054 84.8951 149.265 81.0278 150.953C73.1101 154.408 64.2092 155.957 55.6227 156.451C50.4502 156.75 45.0271 156.403 40.3292 154.026C36.3204 151.999 32.9535 148.62 31.7492 144.21C31.6363 143.798 30.9944 143.973 31.1082 144.387C33.1524 151.875 40.6363 155.979 47.8825 156.919C52.4842 157.515 57.1563 157.107 61.7376 156.525C65.764 156.014 69.771 155.296 73.6873 154.219C77.5528 153.155 81.3405 151.737 84.8665 149.818C86.6776 148.832 88.4156 147.713 90.05 146.454C91.6585 145.216 93.0617 143.785 94.5675 142.433C96.1927 140.973 98.446 139.556 100.72 140.344C103.07 141.158 103.284 143.921 103.242 146.032C103.149 150.731 102.863 155.435 102.593 160.125C101.968 170.969 101.081 181.798 99.8649 192.592C99.8177 193.017 100.484 193.014 100.531 192.593Z" fill="#323380"/>
<path d="M54.8962 122.801C52.9686 127.075 50.3278 130.995 47.0534 134.355C45.4116 136.039 43.6218 137.607 41.6905 138.951C39.8119 140.258 36.457 141.578 35.0843 138.851C34.892 138.468 34.3175 138.805 34.5099 139.187C35.4469 141.048 37.7205 141.47 39.5677 140.844C41.9781 140.027 44.1444 138.016 45.986 136.32C50.0022 132.619 53.2267 128.112 55.4706 123.136C55.6455 122.75 55.072 122.411 54.8962 122.801Z" fill="#323380"/>
<path d="M126.468 151.17C127.214 143.491 127.959 135.811 128.704 128.132C129.244 122.569 129.788 114.707 123.373 112.231C122.973 112.077 122.8 112.719 123.196 112.873C130.017 115.505 128.374 124.688 127.828 130.306C127.153 137.261 126.479 144.216 125.803 151.17C125.762 151.597 126.428 151.594 126.468 151.17Z" fill="#323380"/>
<path d="M171.419 195.773C165.849 198.94 160.114 201.804 154.238 204.36C153.845 204.53 154.089 205.15 154.484 204.978C160.412 202.399 166.194 199.504 171.814 196.308C172.186 196.098 171.787 195.564 171.419 195.773Z" fill="#323380"/>
<path d="M116.902 194.05C110.257 193.452 103.611 192.855 96.9661 192.257C96.5397 192.219 96.5424 192.884 96.9661 192.922C103.611 193.52 110.257 194.117 116.902 194.715C117.327 194.754 117.326 194.088 116.902 194.05Z" fill="#323380"/>
<path d="M52.7659 74.2928C52.7659 74.2928 52.6382 98.2218 54.3189 101.74C55.9995 105.259 86.9971 106.623 86.9971 106.623L88.2856 111.27C88.2856 111.27 55.9635 122.634 43.7687 114.379C35.1165 108.523 34.766 71.4837 34.766 71.4837L52.7659 74.2928Z" fill="#D5794A"/>
<path d="M54.2467 102.477C52.5262 102.849 50.8816 103.414 49.299 104.188C48.8467 104.409 48.4489 103.733 48.9031 103.51C50.544 102.706 52.2515 102.107 54.0376 101.719C54.5306 101.613 54.7406 102.369 54.2467 102.477Z" fill="#A74E26"/>
<path d="M52.0743 102.799C50.5907 102.15 49.0941 101.736 47.4874 101.533C46.9935 101.47 46.987 100.685 47.4874 100.748C49.2384 100.969 50.8543 101.414 52.4712 102.12C52.9327 102.323 52.5331 103 52.0743 102.799Z" fill="#A74E26"/>
<path d="M38.5377 58.6297C35.3946 64.0908 32.5087 73.0333 33.4494 82.5365L55.2398 81.8418C55.2398 81.8418 57.7826 71.6727 56.9168 62.9225C56.3673 57.3755 53.623 54.7504 50.541 53.5942C45.5757 51.7304 41.1831 54.0336 38.5377 58.6297Z" fill="#FDD501"/>
<path d="M54.7233 62.1402C55.6807 68.5068 55.2635 74.9899 53.519 81.1862C53.4025 81.5988 54.0444 81.7754 54.1609 81.3629C55.9397 75.0463 56.3411 68.4522 55.3652 61.9635C55.3014 61.5408 54.6604 61.7203 54.7233 62.1402Z" fill="#D7CCB5"/>
<path d="M51.4362 39.5684C52.5378 36.5576 53.2537 33.397 53.5395 30.1578C53.7495 27.7843 54.1685 25.1361 54.9131 22.2965C55.6577 19.4587 57.0322 17.2017 58.6731 15.4175C64.0407 9.57538 72.8584 8.60231 79.6042 12.7785C82.9239 14.8375 87.1594 16.5487 88.3729 23.8264C89.1416 28.4392 83.3809 38.6823 80.1731 48.4083L51.4362 39.5684Z" fill="#272327"/>
<path d="M71.7072 11.2841C71.7072 11.2841 76.4967 3.96851 70.5815 0.977161C64.6663 -2.01419 62.5934 2.81692 62.5934 2.81692C62.5934 2.81692 58.0232 1.8013 56.3628 6.56397C54.7025 11.3266 59.1267 13.2885 60.5789 13.7279C62.0311 14.1672 71.7072 11.2841 71.7072 11.2841Z" fill="#272327"/>
<path d="M71.6312 10.908C68.0803 10.3826 64.471 11.3667 61.7183 13.6819C61.1846 14.1306 60.4456 13.3342 60.983 12.8818C63.9373 10.3974 67.837 9.25503 71.6636 9.82111C72.3471 9.92286 72.3212 11.0097 71.6312 10.908Z" fill="#272327"/>
<path d="M57.0809 50.2831C57.0809 50.2831 69.4496 64.622 72.6398 55.9948L72.4779 51.061L72.3004 45.6777L72.1764 41.9084L61.937 33.8723L57.0809 50.2831Z" fill="#D5794A"/>
<path d="M63.5032 40.2458C66.921 50.0089 71.0408 53.8863 72.5688 53.8965L72.2978 45.6754L63.5032 40.2458Z" fill="#272327"/>
<path d="M59.7898 30.2303C60.022 34.0615 60.7749 35.4776 62.6424 39.5715C64.3083 43.2261 68.0174 45.7207 70.0579 46.3553C77.4724 48.6612 81.6718 46.395 83.051 35.9447C83.9056 29.4561 86.4632 26.3047 85.4013 23.4845L85.3985 23.4836C85.3153 23.3457 85.2311 23.2107 85.146 23.0793C83.0935 19.9002 79.8321 17.6905 76.1498 16.8219C57.8446 12.5042 59.4568 24.7313 59.7898 30.2303Z" fill="#D5794A"/>
<path d="M78.7854 38.2053C78.7854 38.2053 76.9197 37.7808 73.2504 36.9687C73.2504 36.9687 72.8258 40.9377 75.5489 41.2402C77.8604 41.4964 78.7854 38.2053 78.7854 38.2053Z" fill="white"/>
<path d="M84.7801 31.1136C84.7801 31.1136 88.2542 26.4046 87.406 22.3033C86.5588 18.202 81.9052 14.6936 81.9052 14.6936C81.9052 14.6936 79.5651 14.3847 79.4772 19.1603C79.4772 19.1603 85.8308 23.4244 84.7801 31.1136Z" fill="#272327"/>
<path d="M81.552 19.8132C81.552 19.8132 80.9054 24.6813 76.1113 24.9912C76.1113 24.9912 78.851 22.2847 78.3164 19.7938C78.3164 19.7938 74.5888 27.0816 67.7958 25.0781C67.7958 25.0781 66.5073 30.9979 64.2319 31.2634C61.9556 31.5289 58.251 28.2212 58.5017 23.5436C58.7524 18.8661 64.2356 12.7317 72.6667 13.8065C81.0978 14.8813 81.552 19.8132 81.552 19.8132Z" fill="#272327"/>
<path d="M75.8482 42.8225C75.0417 42.9252 74.2369 42.7679 73.7411 42.076C73.4896 41.7245 74.0464 41.3527 74.2971 41.7024C74.6513 42.1972 75.2414 42.2259 75.7983 42.1547C76.2265 42.1001 76.2737 42.7688 75.8482 42.8225Z" fill="#A74E26"/>
<path d="M68.9771 33.3219C68.8688 33.8713 69.6356 34.4846 70.6901 34.6918C71.7436 34.899 72.6862 34.6215 72.7944 34.073C72.9026 33.5235 72.1358 32.9103 71.0814 32.7031C70.0269 32.495 69.0853 32.7725 68.9771 33.3219Z" fill="#A74E26"/>
<path d="M79.7852 36.0348C79.677 36.586 80.4447 37.1984 81.4973 37.4046C81.9931 37.5018 82.4648 37.4925 82.8348 37.3982C82.9134 36.9301 82.9874 36.4454 83.0531 35.9432C83.0577 35.9219 83.0586 35.9006 83.0623 35.8831C82.7599 35.6777 82.3501 35.5084 81.8876 35.4178C80.835 35.2106 79.8925 35.4872 79.7852 36.0348Z" fill="#A74E26"/>
<path d="M73.5647 31.836C73.463 32.3521 73.6942 32.8331 74.0818 32.909C74.4694 32.9848 74.8653 32.6278 74.967 32.1116C75.0687 31.5955 74.8366 31.1145 74.4499 31.0387C74.0624 30.9619 73.6655 31.3189 73.5647 31.836Z" fill="#272327"/>
<path d="M79.795 33.3572C79.6932 33.8733 79.9254 34.3543 80.312 34.4302C80.6996 34.506 81.0955 34.1499 81.1972 33.6329C81.299 33.1158 81.0668 32.6357 80.6802 32.5599C80.2926 32.484 79.8967 32.8402 79.795 33.3572Z" fill="#272327"/>
<path d="M66.4323 34.5685C67.1445 33.3272 67.188 31.8149 66.6515 30.4876C65.9559 28.768 64.5777 26.0607 62.7629 25.9543C60.0953 25.798 59.3276 28.0447 59.1148 30.4459C58.9021 32.8472 59.8345 36.2335 63.1727 36.3824C64.8432 36.4564 65.8495 35.5851 66.4323 34.5685Z" fill="#D5794A"/>
<path d="M61.7 34.2715C62.4086 34.8006 62.8119 35.9439 62.6463 37.1981C62.4308 38.8279 61.3375 40.0313 60.209 39.8824C59.0805 39.7335 58.3378 38.2868 58.5524 36.657C58.6921 35.6035 59.1989 34.7285 59.8446 34.2817C59.7771 34.1679 59.7104 34.0523 59.6559 33.9311C59.6365 33.8951 59.6198 33.8581 59.6013 33.822C58.8086 34.3455 58.1926 35.3611 58.0307 36.5876C57.7773 38.5042 58.7235 40.2163 60.1396 40.4031C61.5558 40.59 62.9145 39.1831 63.167 37.2666C63.39 35.5757 62.6796 34.0458 61.5373 33.5796C61.5373 33.5796 61.2875 33.8497 61.7 34.2715Z" fill="white"/>
<path d="M62.9603 33.548C63.2989 32.6194 63.5847 31.6324 63.4339 30.6344C63.2989 29.7427 62.6477 28.3479 61.5183 28.4579C61.14 28.4949 61.0169 27.9113 61.398 27.8743C62.4858 27.7679 63.3174 28.581 63.7336 29.5318C64.3339 30.9026 64.0148 32.3964 63.5227 33.745C63.3913 34.1039 62.8281 33.9097 62.9603 33.548Z" fill="#272327"/>
<path d="M80.1452 30.5021C81.109 30.1358 82.1653 30.6306 82.4456 31.6453C82.6269 32.3011 83.6832 32.142 83.5001 31.4807C83.033 29.7908 81.3726 28.8954 79.7151 29.5253C79.0713 29.7695 79.5051 30.7453 80.1452 30.5021Z" fill="#272327"/>
<path d="M72.512 28.3494C73.832 27.4669 75.4784 27.4864 76.6873 28.5612C77.1979 29.0153 76.5458 29.8608 76.0306 29.4029C75.1898 28.6555 74.103 28.5677 73.1595 29.1985C72.5897 29.5786 71.9395 28.7323 72.512 28.3494Z" fill="#272327"/>
<path d="M71.079 37.4183C68.6436 36.7514 67.2052 34.2281 67.8721 31.7927C68.539 29.3572 71.0624 27.9189 73.4978 28.5858C75.9332 29.2527 77.3716 31.776 76.7047 34.2115C76.0378 36.646 73.5135 38.0843 71.079 37.4183ZM73.36 29.0862C71.2011 28.4951 68.9636 29.7707 68.3725 31.9296C67.7815 34.0884 69.057 36.3259 71.2159 36.917C73.3748 37.508 75.6123 36.2325 76.2033 34.0736C76.7944 31.9148 75.5188 29.6773 73.36 29.0862Z" fill="white"/>
<path d="M81.7846 40.2645C79.3492 39.5976 77.9109 37.0743 78.5778 34.6389C79.2447 32.2034 81.768 30.7651 84.2034 31.432C86.6389 32.0989 88.0772 34.6222 87.4103 37.0577C86.7434 39.4922 84.2201 40.9305 81.7846 40.2645ZM84.0656 31.9324C81.9067 31.3414 79.6692 32.6169 79.0782 34.7758C78.4871 36.9347 79.7627 39.1722 81.9216 39.7641C84.0804 40.3552 86.3179 39.0797 86.909 36.9208C87.501 34.761 86.2254 32.5235 84.0656 31.9324Z" fill="white"/>
<path d="M77.0715 36.0256C77.1076 36.0321 77.1464 36.0284 77.1834 36.0136L78.9131 35.3365C78.9862 35.3079 79.038 35.2403 79.0472 35.1626C79.0565 35.084 79.0213 35.0072 78.9557 34.9629L77.7208 34.1174L77.6459 31.891C77.6422 31.7736 77.5432 31.682 77.4258 31.6857C77.3083 31.6894 77.2158 31.7884 77.2204 31.9058L77.299 34.2405C77.3018 34.308 77.336 34.3709 77.3915 34.4088L78.3831 35.0877L77.029 35.6177C76.9198 35.6603 76.8652 35.7842 76.9087 35.8934C76.9365 35.9655 77.0003 36.0136 77.0715 36.0256Z" fill="#272327"/>
<path d="M76.8577 33.9669C77.5699 33.8022 78.2673 34.0464 78.7372 34.6023C78.8991 34.7938 79.1766 34.52 79.0156 34.3304C78.4569 33.669 77.5967 33.3971 76.7569 33.5913C76.5127 33.6468 76.6135 34.0233 76.8577 33.9669Z" fill="white"/>
<path d="M65.6457 28.1045C66.9323 28.2608 68.0182 29.0387 68.5917 30.1986C68.7027 30.4234 69.0514 30.2514 68.9404 30.0257C68.305 28.7381 67.096 27.889 65.6725 27.7151C65.4237 27.6864 65.3978 28.074 65.6457 28.1045Z" fill="white"/>
<path d="M83.4465 35.1374C84.9533 35.3575 86.1659 36.4046 86.5766 37.8735C86.6441 38.1149 87.0206 38.015 86.953 37.7726C86.5072 36.1798 85.1901 35.0014 83.5501 34.7619C83.305 34.7267 83.1995 35.1013 83.4465 35.1374Z" fill="white"/>
<path d="M75.7145 116.256L74.3002 115.059L89.725 77.7157L115.245 81.9825L127.701 78.1809L128.602 79.3389L115.109 84.6955L90.983 80.1686L75.7145 116.256Z" fill="white"/>
<path d="M77.8803 106.007C77.835 106.007 77.7897 105.998 77.7453 105.979C77.5686 105.904 77.4863 105.701 77.5612 105.524L89.4073 77.5806C89.4683 77.4372 89.6191 77.3512 89.7708 77.3724L98.0511 78.4454C98.2407 78.4704 98.3749 78.6443 98.3508 78.8339C98.3258 79.0244 98.151 79.1585 97.9623 79.1336L89.9428 78.0939L78.1994 105.795C78.1439 105.927 78.0154 106.007 77.8803 106.007Z" fill="#D7CCB5"/>
<path d="M90.9838 80.1709L75.5497 116.683L99.9301 119.489L116.057 83.5628L90.9838 80.1709Z" fill="#B2B869"/>
<path d="M99.9296 119.487L111.545 114.308L129.007 79.2051L116.056 83.5617L99.9296 119.487Z" fill="#888F4F"/>
<path d="M117.046 103.767C116.34 103.647 112.564 101.542 113.62 100.592C114.478 99.8218 118.313 100.626 118.313 100.626C118.313 100.626 118.837 99.7145 118.841 99.6072L119.002 99.3278L120.386 96.4262C121.078 96.7185 121.659 97.1162 121.96 97.366C123.331 98.5037 121.628 102.014 121.628 102.014C121.628 102.014 123.319 103.544 122.645 104.966C121.972 106.389 120.284 105.947 120.284 105.947C120.284 105.947 121.672 107.412 120.651 108.436C119.63 109.46 118.006 108.37 118.006 108.37C118.006 108.37 119.207 110.773 118.192 111.375C117.178 111.976 115.983 111.509 115.983 111.509C115.983 111.509 116.884 113.242 115.158 113.657C113.432 114.073 111.546 112.593 110.472 111.638C109.396 110.683 110.191 109.832 113.792 110.81C113.792 110.81 110.387 108.731 110.307 108.034C110.114 106.371 113.601 106.453 115.687 107.01C114.09 106.471 110.133 105.087 110.876 103.581C111.501 102.314 116.341 103.647 117.046 103.767Z" fill="#D5794A"/>
</svg>
