<svg width="90" height="141" viewBox="0 0 90 141" fill="none" xmlns="http://www.w3.org/2000/svg">
<path d="M93.4285 53.8109C86.6624 52.0393 77.6964 50.2959 77.6964 50.2959L77.1556 51.7283L74.481 60.8485L74.2471 62.1931C74.2471 62.1931 93.0717 69.7641 99.7072 68.5947C106.343 67.4255 108.944 65.2915 110.347 61.3453C111.75 57.3991 109.733 48.3083 107.366 41.6435C104.998 34.9787 97.5441 28.3142 97.5441 28.3142C97.5441 28.3142 93.3347 41.2928 93.5102 46.7298L93.4285 53.8109Z" fill="#08C68E"/>
<path d="M98.7427 66.2853V71.1662H65.1859C65.1859 71.1662 64.3091 62.7477 64.7912 54.038C65.2737 45.3266 68.1534 33.0706 69.7092 30.9484C70.9106 29.3103 74.4235 25.964 79.708 24.5276C79.7336 24.5189 79.7834 24.5066 79.7834 24.5066C83.7917 23.4318 88.0296 23.7209 91.636 24.966C95.47 26.2902 97.5448 28.3141 97.5448 28.3141L98.7427 66.2853Z" fill="#08C68E"/>
<path d="M89.6449 32.3024C88.17 33.1356 80.5984 34.4736 78.6237 31.2081C76.6928 28.009 79.5901 24.6627 79.7077 24.5278C79.7094 24.526 79.7112 24.5243 79.7112 24.5243C80.586 24.3238 81.3861 24.1612 82.3823 23.9964C85.3602 23.6241 88.6176 23.9242 91.6357 24.9662C93.3351 27.8879 91.1216 31.471 89.6449 32.3024Z" fill="#193748"/>
<path d="M80.9589 24.2286C80.9589 24.2286 80.7121 25.7717 81.232 27.455C81.7518 29.1379 84.0288 30.9944 84.0288 30.9944C84.0288 30.9944 88.5947 27.7444 88.7811 25.9947C88.9675 24.245 88.7811 18.6435 88.7811 18.6435L81.2815 20.178L80.9589 24.2286Z" fill="white"/>
<path d="M83.8998 31.1538C83.8048 31.0764 81.5684 29.2384 81.0362 27.5157C80.5226 25.8526 80.7341 24.3446 80.7554 24.2045L81.0773 20.1616C81.0845 20.0702 81.1515 19.9945 81.2413 19.9764C89.1313 18.3898 88.7668 18.3691 88.9098 18.4816C88.9576 18.519 88.986 18.5756 88.9881 18.6363C88.9958 18.8656 89.1728 24.2727 88.9869 26.016C88.793 27.8371 84.3388 31.0269 84.1492 31.1619C84.0735 31.2159 83.9717 31.2125 83.8998 31.1538ZM81.4754 20.3489L81.1653 24.2451C81.165 24.2505 81.1642 24.2557 81.1633 24.2612C81.161 24.2761 80.9314 25.7804 81.4297 27.3941C81.8578 28.7804 83.5698 30.3279 84.0402 30.7332C85.3716 29.7672 88.4371 27.2873 88.5773 25.9726C88.7378 24.4643 88.6164 19.9899 88.5836 18.8941L81.4754 20.3489Z" fill="#080200"/>
<path d="M80.9003 4.85297C80.9003 4.85297 78.2334 7.72148 77.8779 12.266C77.5223 16.8106 78.1917 20.6314 81.3925 21.3031C84.5933 21.9749 88.0073 20.073 88.79 18.9294C89.5728 17.7859 89.889 16.3633 89.889 16.3633C89.889 16.3633 91.9528 15.5543 91.9528 14.5238C91.9528 13.4933 91.0101 12.6823 90.1551 12.7919C89.3001 12.9015 89.6948 10.2269 88.0723 8.03449C86.4497 5.84262 80.9003 4.85297 80.9003 4.85297Z" fill="white"/>
<path d="M82.7603 21.6469C82.2897 21.6469 81.817 21.6029 81.351 21.5053C78.4773 20.9021 77.24 17.7882 77.6732 12.2502C78.0302 7.68695 80.6392 4.83225 80.75 4.71286C80.7978 4.66165 80.8685 4.63864 80.937 4.65044C81.1669 4.69158 86.5863 5.68007 88.2382 7.9128C89.7934 10.0143 89.6018 12.6714 90.1291 12.5882C91.1104 12.4637 92.159 13.3713 92.159 14.5247C92.159 15.5603 90.5276 16.3201 90.0647 16.5149C89.9741 16.8727 89.6409 18.052 88.9603 19.0465C88.229 20.115 85.5351 21.6469 82.7603 21.6469ZM80.9781 5.07737C80.5498 5.57966 78.3962 8.28937 78.0837 12.2822C77.6692 17.5807 78.7966 20.5479 81.4353 21.1017C84.6757 21.7829 87.9407 19.8063 88.6202 18.8135C89.3716 17.7157 89.6849 16.3328 89.6881 16.3189C89.7028 16.2522 89.7499 16.197 89.8138 16.1719C90.3515 15.9608 91.7471 15.2531 91.7471 14.5247C91.7471 13.6075 90.9036 12.9047 90.1815 12.997C89.0126 13.1366 89.5863 10.4272 87.907 8.1579C86.4778 6.22609 81.771 5.23272 80.9781 5.07737Z" fill="#080200"/>
<path d="M86.8006 8.45163C86.8006 8.45163 80.0431 7.14927 78.9732 5.28075C77.9033 3.41224 78.645 0.987062 80.0572 1.22958C81.4695 1.4721 82.8817 3.55464 82.8817 3.55464C82.8817 3.55464 84.8788 -0.610739 86.9188 0.587469C88.9588 1.78568 88.4309 4.63864 88.4309 4.63864C88.4309 4.63864 91.783 3.69705 93.0099 4.90965C94.2366 6.12224 91.8546 7.84806 91.8546 7.84806C91.8546 7.84806 94.1512 8.81814 94.1227 10.1162C94.0942 11.4142 90.6849 12.1277 90.6849 12.1277C90.6849 12.1277 90.2568 12.5129 89.9288 13.3115C89.6006 14.1104 88.802 14.8664 88.802 14.8664C88.802 14.8664 88.9018 12.0704 88.0031 11.4286C87.1043 10.7868 86.5828 10.1959 86.8006 8.45163Z" fill="#08C68E"/>
<path d="M69.3641 126.338V130.915H57.4378L57.2373 125.396L69.3641 126.338Z" fill="white"/>
<path d="M69.3651 131.121H57.4388C57.328 131.121 57.2368 131.033 57.2328 130.923C57.0496 125.168 56.969 125.369 57.0956 125.247C57.2225 125.125 56.5527 125.162 69.3809 126.133C69.4882 126.141 69.5711 126.23 69.5711 126.338V130.915C69.5711 131.029 69.479 131.121 69.3651 131.121ZM57.6376 130.709H69.1594V126.529L57.4529 125.619L57.6376 130.709Z" fill="#080200"/>
<path d="M98.7415 71.1662L107.365 125.566L89.1251 126.443L76.0967 71.1662H98.7415Z" fill="#8471F4"/>
<path d="M81.0567 86.3672L70.709 126.443L53.7842 125.128L65.1843 71.1662H85.5291L81.0567 86.3672Z" fill="#8471F4"/>
<path d="M99.122 73.5638H64.6777L65.1846 71.1662H98.7414L99.122 73.5638Z" fill="#080200"/>
<path d="M69.9787 130.915V135.884H58.4324L57.4385 130.915C61.5095 130.915 65.9076 130.915 69.9787 130.915Z" fill="white"/>
<path d="M69.9779 136.091H58.4316C58.3335 136.091 58.2489 136.022 58.2297 135.925C57.2236 130.753 57.1612 130.928 57.2786 130.785C57.3965 130.641 56.6796 130.738 69.9779 130.709C70.0915 130.709 70.1838 130.802 70.1838 130.915V135.885C70.1838 135.998 70.0915 136.091 69.9779 136.091ZM58.6005 135.679H69.7719V131.121H57.6891L58.6005 135.679Z" fill="#080200"/>
<path d="M70.1139 135.3V140.62H47.0617C47.0617 140.62 47.0324 137.375 47.734 136.118C48.4357 134.861 51.7386 135.884 52.9664 135.036C54.194 134.189 57.4388 130.915 57.4388 130.915C57.4388 130.915 59.368 130.856 60.1571 131.616C60.9462 132.376 64.6879 135.767 64.6879 135.767L70.1139 135.3Z" fill="#08C68E"/>
<path d="M55.1576 140.826C55.1556 140.826 55.1536 140.826 55.1516 140.826C55.0379 140.823 54.9482 140.728 54.9516 140.614C54.9522 140.594 55.0092 138.56 54.9516 137.297C54.8987 136.136 53.1271 135.038 53.1093 135.027C53.0123 134.968 52.9816 134.841 53.0411 134.744C53.1007 134.647 53.227 134.616 53.3242 134.676C53.4048 134.725 55.3006 135.898 55.363 137.278C55.4211 138.557 55.3639 140.605 55.3633 140.625C55.3604 140.737 55.2687 140.826 55.1576 140.826Z" fill="#080200"/>
<path d="M104.285 135.3V140.62H81.2326C81.2326 140.62 81.2033 137.375 81.9049 136.118C82.6066 134.861 85.9095 135.884 87.1373 135.036C88.3652 134.189 91.6097 130.915 91.6097 130.915C91.6097 130.915 93.5389 130.856 94.3283 131.616C95.1174 132.376 98.8591 135.767 98.8591 135.767L104.285 135.3Z" fill="#08C68E"/>
<path d="M89.3302 140.826C89.3282 140.826 89.3262 140.826 89.3241 140.826C89.2105 140.823 89.1207 140.728 89.1242 140.614C89.1248 140.594 89.1817 138.56 89.1245 137.297C89.0716 136.136 87.3 135.038 87.2821 135.027C87.1852 134.968 87.1544 134.841 87.214 134.744C87.2735 134.647 87.4001 134.616 87.4971 134.676C87.5776 134.725 89.4735 135.898 89.5359 137.278C89.594 138.557 89.5367 140.605 89.5362 140.625C89.5327 140.737 89.4412 140.826 89.3302 140.826Z" fill="#080200"/>
<path d="M88.1663 122.244C88.1605 122.13 88.248 122.033 88.3616 122.028L103.908 121.25L95.6562 72.5522C95.6372 72.44 95.7126 72.3339 95.8248 72.3149C95.9378 72.2942 96.0434 72.3716 96.0624 72.4835L104.353 121.41C104.373 121.531 104.284 121.644 104.16 121.65L88.3823 122.439C88.2768 122.447 88.1723 122.362 88.1663 122.244Z" fill="#080200"/>
<path d="M71.5783 123.177L54.6886 120.924C54.5758 120.909 54.4964 120.805 54.5116 120.692C54.5266 120.579 54.6299 120.498 54.7432 120.516L71.6329 122.768C71.7457 122.783 71.8251 122.887 71.8099 123C71.7943 123.115 71.6873 123.192 71.5783 123.177Z" fill="#080200"/>
<path d="M69.3563 55.9154L74.8735 87.4233L46.5129 72.512L18.5784 88.3548L23.6678 55.9154L0 32.8434L32.3939 29.0601L46.5129 0.452347L60.6319 29.0601L92.2013 33.6475L69.3563 55.9154Z" fill="#DEA20D"/>
<path d="M69.2052 54.4559L74.5001 85.3274L46.7767 70.751L19.0516 85.3274L24.3465 54.4559L1.91797 32.5921L32.914 28.0881L46.7767 0L60.6391 28.0881L91.6354 32.5921L69.2052 54.4559Z" fill="#FFCC0D"/>
<path d="M52.7692 49.2569L54.5273 59.5077L45.3219 54.6677L36.116 59.5077L37.8741 49.2569L30.4268 41.9972L40.719 40.5018L45.3219 31.175L49.9249 40.5018L60.2171 41.9972L52.7692 49.2569Z" fill="#193748"/>
<path d="M74.4793 60.8483C74.4793 60.8483 70.9621 60.1973 66.364 58.815C61.766 57.4327 59.5422 57.8234 58.0393 55.5391C56.5367 53.2552 58.3399 52.8645 58.3399 52.8645C58.3399 52.8645 57.3353 51.6844 57.5764 50.6761C57.8175 49.6678 58.8261 49.7552 58.8261 49.7552C58.8261 49.7552 58.1903 48.9002 58.6288 48.089C59.0672 47.2777 60.4046 47.3217 60.4046 47.3217C60.4046 47.3217 60.3828 45.2389 61.0842 45.2389C61.7855 45.2389 62.5531 46.3349 63.8465 47.2121C65.1399 48.0889 71.169 50.9609 71.169 50.9609C71.169 50.9609 69.1739 44.3401 71.1908 45.0637C73.2078 45.7872 74.0409 48.9002 75.1151 50.2155C76.1894 51.5308 77.154 51.7281 77.154 51.7281L74.4793 60.8483Z" fill="white"/>
<path d="M74.4419 61.0509C74.4066 61.0446 70.8611 60.3821 66.3051 59.0121C61.7404 57.6401 59.4205 58.013 57.8675 55.6525C57.2818 54.7621 57.1017 54.0239 57.333 53.4583C57.4861 53.0838 57.7832 52.8769 58.0076 52.7687C56.783 51.0449 57.4081 49.7685 58.4806 49.5708C57.9113 48.3957 58.4685 47.2187 60.2009 47.1203C60.2196 46.389 60.3503 45.0335 61.0847 45.0335C61.8974 45.0335 62.6437 46.148 63.9627 47.0418C65.0326 47.7673 69.4612 49.9123 70.8442 50.5772C70.4805 49.2742 69.6057 45.7786 70.4399 44.9863C70.5829 44.8502 70.8413 44.7199 71.261 44.87C73.3815 45.6307 74.2083 48.7794 75.2754 50.0858C76.2817 51.3179 77.1879 51.5254 77.1971 51.5271C77.3156 51.5527 77.3855 51.6738 77.3524 51.7866L74.6778 60.9065C74.6468 61.0095 74.5435 61.0702 74.4419 61.0509ZM57.7769 50.7239C57.5632 51.6171 58.4878 52.7201 58.497 52.7311C58.5977 52.849 58.5358 53.0323 58.3836 53.0656C58.3796 53.0665 57.888 53.1824 57.7128 53.6171C57.541 54.0432 57.7136 54.6686 58.2116 55.4258C59.6555 57.6203 61.8474 57.2417 66.4236 58.6174C70.3721 59.8044 73.5559 60.4574 74.3346 60.6105L76.8996 51.8643C76.5403 51.7305 75.7756 51.3496 74.9557 50.3456C73.8669 49.0119 73.0421 45.9457 71.1215 45.257C70.8528 45.1606 70.7587 45.2507 70.7233 45.2841C70.129 45.8488 70.8024 49.0291 71.3666 50.9008C71.4175 51.0705 71.2437 51.2236 71.0806 51.1462C70.8338 51.0288 65.0228 48.2576 63.7311 47.3819C62.4823 46.5352 61.3442 45.1226 60.9702 45.5007C60.6978 45.776 60.6051 46.7622 60.6106 47.3188C60.6118 47.4382 60.5102 47.5326 60.3983 47.5269C60.3851 47.5266 59.1823 47.4984 58.81 48.1862C58.4383 48.8738 58.9858 49.6241 58.9915 49.6315C59.0968 49.7731 58.986 49.9753 58.8083 49.9595C58.3388 49.931 57.9035 50.1945 57.7769 50.7239Z" fill="#080200"/>
<path d="M64.7627 55.9004C61.7228 55.4818 58.3643 53.1328 58.2231 53.033C58.1299 52.9674 58.108 52.8389 58.1733 52.7456C58.2389 52.6524 58.3672 52.6309 58.4604 52.6962C58.4944 52.72 61.8796 55.0877 64.8191 55.4922C64.9319 55.5077 65.0104 55.6118 64.9952 55.7243C64.9796 55.8374 64.8749 55.9159 64.7627 55.9004Z" fill="#080200"/>
<path d="M65.7463 54.0106C62.8421 53.2626 58.864 50.0515 58.6963 49.9151C58.608 49.8435 58.5945 49.7137 58.6661 49.6254C58.7377 49.5371 58.8672 49.5233 58.9558 49.5955C58.9964 49.6283 63.0323 52.886 65.849 53.6116C65.9592 53.64 66.0254 53.7525 65.9972 53.8627C65.9696 53.97 65.8597 54.0388 65.7463 54.0106Z" fill="#080200"/>
<path d="M66.6151 52.2543C63.4989 51.3038 60.3778 47.439 60.2463 47.275C60.1753 47.1861 60.1897 47.0566 60.2783 46.9856C60.3669 46.9142 60.4969 46.9289 60.5677 47.0175C60.599 47.0567 63.7411 50.947 66.7351 51.8601C66.8438 51.8935 66.9054 52.0086 66.872 52.1173C66.8395 52.2235 66.7276 52.2874 66.6151 52.2543Z" fill="#080200"/>
<path d="M74.1701 62.3838C74.0798 62.3473 74.0274 62.2529 74.0441 62.1571L74.278 60.8124L76.9578 51.6698L77.5035 50.2225C77.5392 50.1287 77.6379 50.0757 77.7357 50.093C77.8243 50.1103 86.5604 51.8145 93.2255 53.5447L93.3043 46.7268C93.2097 43.8011 94.3935 38.6788 95.403 34.8983C95.4323 34.7884 95.5457 34.7229 95.655 34.7525C95.7649 34.7818 95.8302 34.8946 95.8009 35.0045C94.7983 38.7582 93.6228 43.8379 93.716 46.7222C93.6001 54.1595 93.7051 53.8577 93.5532 53.9742C93.5028 54.0125 93.4375 54.026 93.3763 54.0096C87.2046 52.3936 79.0999 50.7815 77.8274 50.5309L77.3482 51.8004L74.6784 60.9057L74.4782 62.0627C76.2955 62.7814 93.487 69.479 99.6714 68.3912C99.7839 68.3728 99.8903 68.4462 99.9102 68.5584C99.9297 68.6703 99.8549 68.7773 99.743 68.7969C94.0632 69.8003 79.4934 64.5245 74.1701 62.3838Z" fill="#080200"/>
<path d="M80.0175 86.0923C79.5279 82.8904 79.38 78.9071 79.5529 73.5573C79.5566 73.4439 79.6565 73.3553 79.7655 73.3579C79.8791 73.3616 79.9683 73.4569 79.9646 73.5705C79.5909 85.1406 80.8673 86.1708 80.2523 86.2646C80.2419 86.2663 80.0348 86.2051 80.0175 86.0923Z" fill="#080200"/>
<path d="M55.7815 135.418C55.4435 134.848 54.9599 134.374 54.3828 134.047C54.2838 133.99 54.249 133.865 54.3051 133.766C54.3615 133.667 54.4872 133.632 54.5859 133.688C55.2254 134.051 55.7614 134.576 56.136 135.208C56.1941 135.306 56.1619 135.432 56.0638 135.49C55.9639 135.549 55.8385 135.515 55.7815 135.418Z" fill="#080200"/>
<path d="M56.4396 134.169C56.4197 134.025 56.3049 133.89 56.1683 133.739C55.8596 133.42 55.6185 133.089 55.5213 133.096C55.4099 133.114 55.3038 133.036 55.2865 132.924C55.2695 132.811 55.3466 132.706 55.4591 132.689C55.7831 132.642 55.9424 132.88 56.4726 133.462C56.6145 133.617 56.8087 133.831 56.8475 134.113C56.863 134.226 56.7842 134.329 56.6714 134.345C56.5604 134.361 56.4551 134.283 56.4396 134.169Z" fill="#080200"/>
<path d="M57.1315 133.438C56.809 133.014 56.4606 132.604 56.0961 132.216C56.0182 132.134 56.0219 132.003 56.1047 131.925C56.1873 131.847 56.3179 131.851 56.3959 131.934C56.7702 132.331 57.128 132.754 57.4592 133.189C57.5282 133.279 57.5104 133.408 57.42 133.477C57.3291 133.547 57.2 133.528 57.1315 133.438Z" fill="#080200"/>
<path d="M90.0963 135.418C89.7582 134.848 89.2746 134.374 88.6973 134.047C88.5983 133.99 88.5635 133.865 88.6196 133.766C88.676 133.667 88.8017 133.632 88.9004 133.688C89.5402 134.051 90.0761 134.576 90.4507 135.208C90.5088 135.306 90.4766 135.432 90.3785 135.49C90.279 135.549 90.1532 135.515 90.0963 135.418Z" fill="#080200"/>
<path d="M90.7543 134.169C90.7347 134.025 90.6199 133.889 90.483 133.739C90.1671 133.412 89.9344 133.089 89.836 133.096C89.7238 133.114 89.6185 133.036 89.6012 132.924C89.5647 132.683 89.922 132.512 90.3339 132.963C90.8768 133.559 91.115 133.767 91.1625 134.113C91.178 134.226 91.0992 134.33 90.9864 134.345C90.8751 134.361 90.7698 134.283 90.7543 134.169Z" fill="#080200"/>
<path d="M83.2074 6.49611C83.0955 6.47655 83.0204 6.36981 83.0403 6.25761C83.0601 6.14541 83.1672 6.07004 83.2788 6.09047C83.7894 6.17965 84.3285 6.06602 84.7586 5.77776C84.8533 5.71418 84.981 5.7395 85.0443 5.83444C85.1076 5.9288 85.0823 6.05682 84.9879 6.12011C84.4845 6.45727 83.8386 6.60687 83.2074 6.49611Z" fill="#080200"/>
<path d="M85.7901 6.82331C85.6831 6.78447 85.6279 6.66652 85.6667 6.5595C85.7056 6.45248 85.8235 6.39812 85.9305 6.4361C86.5232 6.65157 87.2254 6.57935 87.7628 6.24794C87.8597 6.18867 87.9866 6.21802 88.0462 6.31526C88.106 6.41221 88.0758 6.53907 87.9791 6.59862C87.3419 6.9916 86.524 7.0897 85.7901 6.82331Z" fill="#080200"/>
<path d="M87.7522 8.68385C87.6434 8.65047 87.5822 8.53539 87.6155 8.42664C87.6489 8.31761 87.7643 8.25663 87.873 8.29C88.3296 8.42953 88.8457 8.33229 89.2197 8.03684C89.3089 7.96606 89.4386 7.98131 89.5091 8.0705C89.5796 8.15968 89.5646 8.28914 89.4754 8.35962C88.9947 8.73994 88.3333 8.86221 87.7522 8.68385Z" fill="#080200"/>
<path d="M88.5139 9.79607C88.4052 9.76299 88.3433 9.64821 88.3758 9.53946C88.4089 9.43043 88.5243 9.36943 88.6325 9.40136C88.9947 9.51068 89.4173 9.42583 89.7096 9.1859C89.7976 9.11369 89.9273 9.12692 89.9996 9.21466C90.0718 9.30269 90.0588 9.43244 89.9708 9.50465C89.5677 9.83462 89.0091 9.94423 88.5139 9.79607Z" fill="#080200"/>
<path d="M81.3293 14.497C81.4306 15.2142 81.2361 15.9685 80.8011 16.5476C80.6772 16.7128 80.6516 16.8017 80.8147 16.9576C81.2212 17.3468 81.7689 17.5853 82.3308 17.6175" fill="white"/>
<path d="M82.3182 17.8235C81.7112 17.7887 81.1108 17.5275 80.6715 17.1069C80.4313 16.8765 80.4488 16.6725 80.6344 16.4257C81.0406 15.8851 81.2186 15.1932 81.1243 14.5258C81.1085 14.413 81.1867 14.3091 81.2995 14.2933C81.4117 14.2729 81.5164 14.3555 81.5322 14.4685C81.725 15.8345 80.9292 16.6871 80.9056 16.7611C80.9074 16.755 80.9206 16.7749 80.9563 16.8094C81.3257 17.1633 81.8306 17.3828 82.3415 17.4121C82.4551 17.4187 82.5417 17.516 82.5354 17.6296C82.5291 17.7458 82.4275 17.8307 82.3182 17.8235Z" fill="#080200"/>
<path d="M86.2951 17.6688C85.8711 18.5762 84.9387 19.2246 83.9404 19.3063Z" fill="white"/>
<path d="M83.7341 19.3232C83.7249 19.2099 83.8092 19.1104 83.9225 19.1012C84.8541 19.0246 85.7116 18.4283 86.1078 17.5819C86.1558 17.4789 86.2784 17.4343 86.3814 17.4824C86.4844 17.5307 86.5289 17.6532 86.4806 17.7562C86.0232 18.7344 85.0324 19.4237 83.9559 19.5117C83.8474 19.522 83.7436 19.4398 83.7341 19.3232Z" fill="#080200"/>
<path d="M80.9011 11.8844C80.9011 12.2702 80.631 12.5806 80.2978 12.5806C79.9664 12.5806 79.6963 12.2702 79.6963 11.8844C79.6963 11.5004 79.9664 11.19 80.2978 11.19C80.631 11.19 80.9011 11.5004 80.9011 11.8844Z" fill="#080200"/>
<path d="M84.8728 12.3C84.8728 12.6858 84.6027 12.9962 84.2695 12.9962C83.9381 12.9962 83.668 12.6858 83.668 12.3C83.668 11.9159 83.9381 11.6055 84.2695 11.6055C84.6027 11.6055 84.8728 11.9159 84.8728 12.3Z" fill="#080200"/>
<path d="M83.0073 11.4839C82.9382 11.3938 82.9552 11.2644 83.0455 11.1951C83.5996 10.7707 84.307 10.7943 84.9537 10.83C85.0674 10.8363 85.1543 10.9335 85.1479 11.0469C85.1419 11.1602 85.0461 11.2448 84.9307 11.2414C84.3729 11.21 83.7455 11.1778 83.2958 11.5221C83.2058 11.5909 83.0763 11.5745 83.0073 11.4839Z" fill="#080200"/>
<path d="M81.5877 10.7668C81.2085 10.3733 80.5641 10.4604 80.0563 10.5324C79.9436 10.5493 79.8394 10.4699 79.8233 10.3575C79.8075 10.245 79.8857 10.1405 79.9982 10.1247C80.304 10.0813 80.6205 10.0364 80.945 10.0669C81.3285 10.1034 81.6619 10.2504 81.8843 10.4812C81.9634 10.5629 81.9608 10.6935 81.8788 10.7726C81.7971 10.8514 81.6668 10.8488 81.5877 10.7668Z" fill="#080200"/>
<path d="M66.487 102.239C66.7193 102.239 66.9076 102.05 66.9076 101.818C66.9076 101.586 66.7193 101.397 66.487 101.397C66.2547 101.397 66.0664 101.586 66.0664 101.818C66.0664 102.05 66.2547 102.239 66.487 102.239Z" fill="white"/>
<path d="M70.114 110.037C70.3462 110.037 70.5345 109.849 70.5345 109.617C70.5345 109.384 70.3462 109.196 70.114 109.196C69.8817 109.196 69.6934 109.384 69.6934 109.617C69.6934 109.849 69.8817 110.037 70.114 110.037Z" fill="white"/>
<path d="M65.8044 93.3149C66.0367 93.3149 66.225 93.1266 66.225 92.8943C66.225 92.662 66.0367 92.4737 65.8044 92.4737C65.5721 92.4737 65.3838 92.662 65.3838 92.8943C65.3838 93.1266 65.5721 93.3149 65.8044 93.3149Z" fill="white"/>
<path d="M60.0349 114.153C60.2671 114.153 60.4554 113.965 60.4554 113.733C60.4554 113.5 60.2671 113.312 60.0349 113.312C59.8026 113.312 59.6143 113.5 59.6143 113.733C59.6143 113.965 59.8026 114.153 60.0349 114.153Z" fill="white"/>
<path d="M86.6966 81.0063C86.6966 81.2387 86.5082 81.4272 86.2761 81.4272C86.0436 81.4272 85.8555 81.2387 85.8555 81.0063C85.8555 80.7738 86.0439 80.5854 86.2761 80.5854C86.5085 80.5857 86.6966 80.7741 86.6966 81.0063Z" fill="white"/>
<path d="M89.764 108.775C89.764 109.008 89.5756 109.196 89.3434 109.196C89.111 109.196 88.9229 109.008 88.9229 108.775C88.9229 108.543 89.1113 108.355 89.3434 108.355C89.5756 108.355 89.764 108.543 89.764 108.775Z" fill="white"/>
</svg>
