<svg preserveAspectRatio="none" width="100%" height="100%" overflow="visible" style="display: block;" viewBox="0 0 110.81 140.826" fill="none" xmlns="http://www.w3.org/2000/svg">
<g id="Group 480">
<path id="Vector" d="M104.151 130.915V135.884H92.6043L91.6104 130.915C95.6814 130.915 100.08 130.915 104.151 130.915Z" fill="var(--fill-0, white)"/>
<path id="Vector_2" d="M104.15 136.091H92.6035C92.5054 136.091 92.4208 136.022 92.4016 135.925C91.3955 130.752 91.3331 130.927 91.4505 130.785C91.5684 130.641 90.8515 130.738 104.15 130.709C104.263 130.709 104.356 130.802 104.356 130.915V135.885C104.356 135.998 104.263 136.091 104.15 136.091ZM92.7724 135.679H103.944V131.121H91.861L92.7724 135.679Z" fill="var(--fill-0, #080200)"/>
<path id="Vector_3" d="M93.4281 53.8109C86.662 52.0393 77.696 50.2959 77.696 50.2959L77.1552 51.7283L74.4806 60.8485L74.2467 62.1931C74.2467 62.1931 93.0714 69.7641 99.7068 68.5947C106.342 67.4255 108.944 65.2915 110.347 61.3453C111.75 57.3992 109.733 48.3083 107.365 41.6435C104.998 34.9787 97.5437 28.3142 97.5437 28.3142C97.5437 28.3142 93.3343 41.2928 93.5098 46.7298L93.4281 53.8109Z" fill="var(--fill-0, #08C68E)"/>
<path id="Vector_4" d="M98.7422 66.2853V71.1662H65.1855C65.1855 71.1662 64.3086 62.7477 64.7908 54.038C65.2732 45.3266 68.1529 33.0706 69.7087 30.9484C70.9101 29.3103 74.423 25.964 79.7075 24.5275C79.7331 24.5189 79.7829 24.5065 79.7829 24.5065C83.7912 23.4318 88.0291 23.7209 91.6355 24.966C95.4695 26.2902 97.5443 28.3141 97.5443 28.3141L98.7422 66.2853Z" fill="var(--fill-0, #08C68E)"/>
<path id="Vector_5" d="M89.6447 32.3024C88.1697 33.1356 80.5981 34.4736 78.6235 31.2081C76.6925 28.009 79.5898 24.6627 79.7075 24.5277C79.7092 24.526 79.7109 24.5243 79.7109 24.5243C80.5858 24.3238 81.3858 24.1612 82.3821 23.9964C85.3599 23.6241 88.6174 23.9242 91.6355 24.9662C93.3348 27.8879 91.1214 31.471 89.6447 32.3024Z" fill="var(--fill-0, #193748)"/>
<path id="Vector_6" d="M80.959 24.2286C80.959 24.2286 80.7122 25.7717 81.232 27.455C81.7518 29.1379 84.0289 30.9944 84.0289 30.9944C84.0289 30.9944 88.5947 27.7444 88.7811 25.9947C88.9676 24.245 88.7811 18.6435 88.7811 18.6435L81.2815 20.178L80.959 24.2286Z" fill="var(--fill-0, white)"/>
<path id="Vector_7" d="M83.8995 31.1538C83.8045 31.0764 81.5681 29.2384 81.0359 27.5157C80.5223 25.8526 80.7338 24.3446 80.7551 24.2045L81.077 20.1616C81.0842 20.0702 81.1512 19.9945 81.241 19.9764C89.131 18.3898 88.7665 18.3691 88.9095 18.4816C88.9573 18.519 88.9857 18.5756 88.9878 18.6363C88.9955 18.8656 89.1725 24.2727 88.9866 26.016C88.7927 27.8371 84.3385 31.0269 84.1489 31.1619C84.0732 31.2159 83.9714 31.2125 83.8995 31.1538ZM81.4751 20.3489L81.165 24.2451C81.1647 24.2505 81.1639 24.2557 81.163 24.2612C81.1607 24.2761 80.9311 25.7804 81.4294 27.3941C81.8575 28.7804 83.5695 30.3279 84.0399 30.7332C85.3713 29.7672 88.4369 27.2873 88.577 25.9726C88.7375 24.4643 88.6161 19.9899 88.5833 18.8941L81.4751 20.3489Z" fill="var(--fill-0, #080200)"/>
<path id="Vector_8" d="M80.9006 4.85297C80.9006 4.85297 78.2337 7.72148 77.8781 12.266C77.5226 16.8106 78.192 20.6314 81.3928 21.3031C84.5936 21.9748 88.0075 20.073 88.7903 18.9294C89.5731 17.7859 89.8893 16.3633 89.8893 16.3633C89.8893 16.3633 91.9531 15.5543 91.9531 14.5238C91.9531 13.4933 91.0104 12.6823 90.1554 12.7919C89.3004 12.9015 89.6951 10.2269 88.0725 8.03449C86.45 5.84262 80.9006 4.85297 80.9006 4.85297Z" fill="var(--fill-0, white)"/>
<path id="Vector_9" d="M82.7607 21.6469C82.29 21.6469 81.8173 21.6029 81.3513 21.5053C78.4776 20.9021 77.2403 17.7882 77.6735 12.2502C78.0306 7.68695 80.6396 4.83225 80.7503 4.71286C80.7981 4.66165 80.8688 4.63864 80.9373 4.65044C81.1672 4.69158 86.5866 5.68007 88.2385 7.9128C89.7937 10.0143 89.6021 12.6714 90.1294 12.5882C91.1107 12.4637 92.1593 13.3713 92.1593 14.5247C92.1593 15.5603 90.5279 16.3201 90.065 16.5149C89.9744 16.8727 89.6412 18.052 88.9606 19.0465C88.2293 20.115 85.5354 21.6469 82.7607 21.6469ZM80.9785 5.07737C80.5501 5.57966 78.3965 8.28937 78.0841 12.2822C77.6695 17.5807 78.7969 20.5479 81.4356 21.1017C84.6761 21.7829 87.941 19.8063 88.6205 18.8135C89.372 17.7157 89.6852 16.3328 89.6884 16.3189C89.7031 16.2522 89.7503 16.197 89.8141 16.1719C90.3518 15.9608 91.7474 15.2531 91.7474 14.5247C91.7474 13.6075 90.9039 12.9047 90.1818 12.997C89.0129 13.1366 89.5866 10.4272 87.9074 8.1579C86.4781 6.22609 81.7713 5.23272 80.9785 5.07737Z" fill="var(--fill-0, #080200)"/>
<path id="Vector_10" d="M86.8006 8.45163C86.8006 8.45163 80.0432 7.14927 78.9733 5.28075C77.9034 3.41224 78.645 0.987063 80.0573 1.22958C81.4695 1.4721 82.8817 3.55464 82.8817 3.55464C82.8817 3.55464 84.8789 -0.610739 86.9188 0.58747C88.9588 1.78568 88.4309 4.63864 88.4309 4.63864C88.4309 4.63864 91.783 3.69705 93.01 4.90965C94.2367 6.12224 91.8546 7.84806 91.8546 7.84806C91.8546 7.84806 94.1512 8.81814 94.1227 10.1162C94.0943 11.4142 90.6849 12.1277 90.6849 12.1277C90.6849 12.1277 90.2568 12.5129 89.9289 13.3115C89.6006 14.1104 88.802 14.8664 88.802 14.8664C88.802 14.8664 88.9018 12.0704 88.0031 11.4286C87.1044 10.7868 86.5828 10.1959 86.8006 8.45163Z" fill="var(--fill-0, #08C68E)"/>
<path id="Vector_11" d="M69.3642 126.338V130.915H57.438L57.2375 125.396L69.3642 126.338Z" fill="var(--fill-0, white)"/>
<path id="Vector_12" d="M69.3652 131.121H57.439C57.3282 131.121 57.237 131.033 57.233 130.923C57.0497 125.168 56.9692 125.369 57.0958 125.247C57.2226 125.125 56.5529 125.162 69.3811 126.133C69.4884 126.141 69.5712 126.23 69.5712 126.338V130.915C69.5712 131.029 69.4792 131.121 69.3652 131.121ZM57.6378 130.709H69.1596V126.529L57.4531 125.619L57.6378 130.709Z" fill="var(--fill-0, #080200)"/>
<path id="Vector_13" d="M103.536 125.75V130.915H91.6102L91.4097 125.396L103.536 125.75Z" fill="var(--fill-0, white)"/>
<path id="Vector_14" d="M103.535 131.121H91.6091C91.4984 131.121 91.4072 131.033 91.4031 130.923L91.2026 125.403C91.1989 125.296 91.2746 125.197 91.4147 125.19L103.541 125.544C103.653 125.547 103.741 125.639 103.741 125.75V130.915C103.741 131.029 103.649 131.121 103.535 131.121ZM91.8076 130.709H103.329V125.95L91.6226 125.608L91.8076 130.709Z" fill="var(--fill-0, #080200)"/>
<path id="Vector_15" d="M98.7416 71.1662L107.365 125.566L89.1252 126.443L76.0968 71.1662H98.7416Z" fill="var(--fill-0, #8471F4)"/>
<path id="Vector_16" d="M81.0565 86.3672L70.7088 126.443L53.784 125.128L65.1841 71.1662H85.5289L81.0565 86.3672Z" fill="var(--fill-0, #8471F4)"/>
<path id="Vector_17" d="M99.1223 73.5638H64.6781L65.185 71.1662H98.7417L99.1223 73.5638Z" fill="var(--fill-0, #080200)"/>
<path id="Vector_18" d="M69.9791 130.915V135.884H58.4329L57.4389 130.915C61.5099 130.915 65.9081 130.915 69.9791 130.915Z" fill="var(--fill-0, white)"/>
<path id="Vector_19" d="M69.9783 136.091H58.4321C58.334 136.091 58.2494 136.022 58.2301 135.925C57.2241 130.753 57.1617 130.928 57.279 130.785C57.397 130.641 56.6801 130.738 69.9783 130.709C70.092 130.709 70.1843 130.802 70.1843 130.915V135.885C70.1843 135.998 70.092 136.091 69.9783 136.091ZM58.601 135.679H69.7723V131.121H57.6896L58.601 135.679Z" fill="var(--fill-0, #080200)"/>
<path id="Vector_20" d="M70.1136 135.3V140.62H47.0614C47.0614 140.62 47.032 137.375 47.7337 136.118C48.4353 134.861 51.7382 135.884 52.9661 135.036C54.1936 134.189 57.4384 130.915 57.4384 130.915C57.4384 130.915 59.3677 130.856 60.1568 131.616C60.9459 132.376 64.6875 135.767 64.6875 135.767L70.1136 135.3Z" fill="var(--fill-0, #08C68E)"/>
<path id="Vector_21" d="M55.1579 140.826C55.1559 140.826 55.1539 140.826 55.1519 140.826C55.0382 140.823 54.9485 140.728 54.9519 140.614C54.9525 140.594 55.0095 138.56 54.9519 137.297C54.899 136.136 53.1274 135.038 53.1096 135.027C53.0126 134.968 52.9819 134.841 53.0414 134.744C53.101 134.647 53.2273 134.616 53.3245 134.676C53.405 134.725 55.3009 135.898 55.3633 137.278C55.4214 138.557 55.3642 140.605 55.3636 140.625C55.3607 140.737 55.269 140.826 55.1579 140.826Z" fill="var(--fill-0, #080200)"/>
<path id="Vector_22" d="M104.285 135.3V140.62H81.2328C81.2328 140.62 81.2035 137.375 81.9051 136.118C82.6068 134.861 85.9097 135.884 87.1375 135.036C88.3654 134.189 91.6099 130.915 91.6099 130.915C91.6099 130.915 93.5391 130.856 94.3285 131.616C95.1176 132.376 98.8593 135.767 98.8593 135.767L104.285 135.3Z" fill="var(--fill-0, #08C68E)"/>
<path id="Vector_23" d="M89.3299 140.826C89.3279 140.826 89.3259 140.826 89.3239 140.826C89.2102 140.823 89.1205 140.728 89.1239 140.614C89.1245 140.594 89.1815 138.56 89.1242 137.297C89.0713 136.136 87.2997 135.038 87.2819 135.027C87.1849 134.968 87.1541 134.841 87.2137 134.744C87.2732 134.647 87.3998 134.616 87.4968 134.676C87.5773 134.725 89.4732 135.898 89.5356 137.278C89.5937 138.557 89.5365 140.605 89.5359 140.625C89.5324 140.737 89.4409 140.826 89.3299 140.826Z" fill="var(--fill-0, #080200)"/>
<path id="Vector_24" d="M88.1662 122.244C88.1604 122.13 88.2479 122.033 88.3615 122.028L103.907 121.25L95.6561 72.5522C95.6371 72.44 95.7124 72.3339 95.8246 72.3149C95.9377 72.2942 96.0433 72.3716 96.0623 72.4835L104.352 121.41C104.373 121.531 104.283 121.644 104.16 121.65L88.3822 122.439C88.2767 122.447 88.1722 122.362 88.1662 122.244Z" fill="var(--fill-0, #080200)"/>
<path id="Vector_25" d="M71.5785 123.177L54.6888 120.924C54.576 120.909 54.4966 120.805 54.5119 120.692C54.5269 120.579 54.6301 120.498 54.7435 120.516L71.6332 122.768C71.746 122.783 71.8254 122.887 71.8101 123C71.7946 123.115 71.6876 123.192 71.5785 123.177Z" fill="var(--fill-0, #080200)"/>
<path id="Vector_26" d="M69.3563 55.9154L74.8735 87.4233L46.5129 72.512L18.5784 88.3548L23.6678 55.9154L0 32.8434L32.3939 29.0601L46.5129 0.452345L60.6319 29.0601L92.2013 33.6475L69.3563 55.9154Z" fill="var(--fill-0, #DEA20D)"/>
<path id="Vector_27" d="M69.2048 54.4559L74.4996 85.3274L46.7763 70.751L19.0512 85.3274L24.346 54.4559L1.91751 32.5921L32.9136 28.0881L46.7763 0L60.6386 28.0881L91.635 32.5921L69.2048 54.4559Z" fill="var(--fill-0, #FFCC0D)"/>
<path id="Vector_28" d="M52.7694 49.2569L54.5274 59.5077L45.3221 54.6677L36.1161 59.5077L37.8742 49.2569L30.4269 41.9972L40.7191 40.5018L45.3221 31.175L49.925 40.5018L60.2172 41.9972L52.7694 49.2569Z" fill="var(--fill-0, #193748)"/>
<path id="Vector_29" d="M74.4793 60.8483C74.4793 60.8483 70.9621 60.1973 66.364 58.815C61.7659 57.4327 59.5421 57.8233 58.0393 55.5391C56.5367 53.2552 58.3399 52.8645 58.3399 52.8645C58.3399 52.8645 57.3353 51.6844 57.5764 50.6761C57.8175 49.6677 58.8261 49.7552 58.8261 49.7552C58.8261 49.7552 58.1903 48.9002 58.6287 48.089C59.0672 47.2777 60.4046 47.3217 60.4046 47.3217C60.4046 47.3217 60.3827 45.2389 61.0841 45.2389C61.7855 45.2389 62.553 46.3349 63.8465 47.2121C65.1399 48.0889 71.1689 50.9609 71.1689 50.9609C71.1689 50.9609 69.1738 44.3401 71.1908 45.0637C73.2078 45.7872 74.0409 48.9002 75.1151 50.2155C76.1893 51.5308 77.1539 51.7281 77.1539 51.7281L74.4793 60.8483Z" fill="var(--fill-0, white)"/>
<path id="Vector_30" d="M74.4424 61.0509C74.407 61.0446 70.8616 60.3821 66.3055 59.0121C61.7408 57.6401 59.4209 58.013 57.868 55.6525C57.2823 54.7621 57.1022 54.0239 57.3335 53.4583C57.4865 53.0838 57.7837 52.8769 58.0081 52.7687C56.7834 51.0449 57.4086 49.7685 58.4811 49.5708C57.9117 48.3957 58.469 47.2187 60.2014 47.1203C60.2201 46.389 60.3507 45.0335 61.0852 45.0335C61.8979 45.0335 62.6441 46.148 63.9632 47.0418C65.0331 47.7673 69.4617 49.9123 70.8446 50.5772C70.481 49.2742 69.6061 45.7786 70.4404 44.9863C70.5834 44.8502 70.8417 44.7199 71.2615 44.87C73.382 45.6307 74.2088 48.7794 75.2758 50.0858C76.2821 51.3179 77.1884 51.5254 77.1976 51.5271C77.3161 51.5527 77.386 51.6738 77.3529 51.7866L74.6783 60.9065C74.6472 61.0095 74.5439 61.0702 74.4424 61.0509ZM57.7774 50.7239C57.5636 51.6171 58.4882 52.7201 58.4974 52.7311C58.5981 52.849 58.5363 53.0323 58.3841 53.0656C58.3801 53.0665 57.8884 53.1824 57.7132 53.6171C57.5415 54.0432 57.7141 54.6686 58.2121 55.4258C59.656 57.6203 61.8478 57.2417 66.424 58.6174C70.3725 59.8044 73.5563 60.4574 74.3351 60.6105L76.9001 51.8643C76.5408 51.7305 75.7761 51.3496 74.9562 50.3456C73.8673 49.0119 73.0425 45.9457 71.1219 45.257C70.8532 45.1606 70.7592 45.2507 70.7238 45.2841C70.1294 45.8488 70.8029 49.0291 71.367 50.9008C71.418 51.0705 71.2442 51.2236 71.0811 51.1462C70.8342 51.0288 65.0233 48.2576 63.7316 47.3819C62.4827 46.5352 61.3447 45.1226 60.9707 45.5007C60.6982 45.776 60.6056 46.7622 60.6111 47.3188C60.6122 47.4382 60.5107 47.5326 60.3988 47.5269C60.3855 47.5266 59.1827 47.4984 58.8104 48.1862C58.4388 48.8738 58.9862 49.6241 58.992 49.6315C59.0973 49.7731 58.9865 49.9753 58.8087 49.9595C58.3392 49.931 57.904 50.1945 57.7774 50.7239Z" fill="var(--fill-0, #080200)"/>
<path id="Vector_31" d="M64.7624 55.9004C61.7224 55.4818 58.364 53.1328 58.2227 53.033C58.1295 52.9674 58.1076 52.8389 58.1729 52.7456C58.2385 52.6524 58.3668 52.6309 58.46 52.6962C58.494 52.72 61.8792 55.0877 64.8187 55.4922C64.9315 55.5077 65.01 55.6119 64.9948 55.7243C64.9793 55.8374 64.8746 55.9159 64.7624 55.9004Z" fill="var(--fill-0, #080200)"/>
<path id="Vector_32" d="M65.7467 54.0106C62.8425 53.2626 58.8644 50.0514 58.6967 49.9151C58.6084 49.8435 58.5949 49.7137 58.6665 49.6254C58.7381 49.5371 58.8676 49.5233 58.9562 49.5955C58.9967 49.6283 63.0327 52.886 65.8494 53.6115C65.9596 53.64 66.0258 53.7525 65.9976 53.8627C65.9699 53.97 65.86 54.0388 65.7467 54.0106Z" fill="var(--fill-0, #080200)"/>
<path id="Vector_33" d="M66.6148 52.2543C63.4986 51.3038 60.3775 47.439 60.246 47.275C60.175 47.1861 60.1894 47.0566 60.278 46.9856C60.3666 46.9142 60.4966 46.9289 60.5674 47.0175C60.5987 47.0567 63.7408 50.947 66.7348 51.8601C66.8435 51.8935 66.9051 52.0086 66.8717 52.1173C66.8392 52.2235 66.7273 52.2874 66.6148 52.2543Z" fill="var(--fill-0, #080200)"/>
<path id="Vector_34" d="M74.1702 62.3838C74.0799 62.3473 74.0275 62.2529 74.0442 62.1571L74.2781 60.8124L76.9579 51.6698L77.5036 50.2225C77.5393 50.1287 77.638 50.0758 77.7358 50.093C77.8244 50.1103 86.5605 51.8145 93.2256 53.5447L93.3045 46.7268C93.2098 43.8011 94.3936 38.6788 95.4031 34.8983C95.4325 34.7885 95.5458 34.7229 95.6551 34.7525C95.765 34.7818 95.8303 34.8946 95.801 35.0045C94.7984 38.7582 93.6229 43.8379 93.7161 46.7222C93.6002 54.1595 93.7052 53.8577 93.5533 53.9742C93.503 54.0125 93.4377 54.026 93.3764 54.0096C87.2047 52.3936 79.1 50.7815 77.8276 50.5309L77.3483 51.8004L74.6786 60.9057L74.4783 62.0627C76.2957 62.7814 93.4871 69.479 99.6715 68.3912C99.784 68.3728 99.8904 68.4462 99.9103 68.5584C99.9298 68.6703 99.855 68.7773 99.7431 68.7969C94.0634 69.8003 79.4936 64.5245 74.1702 62.3838Z" fill="var(--fill-0, #080200)"/>
<path id="Vector_35" d="M100.902 56.6842C97.8985 54.8825 93.4345 54.0217 93.3896 54.0134C93.2777 53.9921 93.2044 53.8845 93.2257 53.7726C93.2469 53.6607 93.3537 53.5862 93.4664 53.6083C93.5119 53.6172 98.0484 54.4915 101.114 56.3307C101.211 56.3894 101.243 56.5157 101.184 56.6135C101.125 56.7119 100.998 56.7421 100.902 56.6842Z" fill="var(--fill-0, #080200)"/>
<path id="Vector_36" d="M80.0178 86.0923C79.5281 82.8903 79.3803 78.9071 79.5532 73.5573C79.5569 73.4439 79.6567 73.3553 79.7658 73.3579C79.8794 73.3616 79.9686 73.4569 79.9648 73.5705C79.5911 85.1406 80.8676 86.1708 80.2525 86.2646C80.2422 86.2663 80.035 86.2051 80.0178 86.0923Z" fill="var(--fill-0, #080200)"/>
<path id="Vector_37" d="M55.7813 135.418C55.4433 134.848 54.9597 134.374 54.3826 134.047C54.2837 133.99 54.2489 133.865 54.3049 133.766C54.3613 133.667 54.4871 133.632 54.5857 133.688C55.2253 134.051 55.7612 134.576 56.1358 135.208C56.1939 135.306 56.1617 135.432 56.0636 135.49C55.9637 135.549 55.8383 135.515 55.7813 135.418Z" fill="var(--fill-0, #080200)"/>
<path id="Vector_38" d="M56.44 134.169C56.4201 134.025 56.3053 133.89 56.1687 133.739C55.86 133.42 55.6189 133.089 55.5217 133.096C55.4103 133.114 55.3042 133.036 55.2869 132.924C55.27 132.811 55.347 132.706 55.4595 132.689C55.7835 132.642 55.9428 132.88 56.4731 133.462C56.6149 133.617 56.8091 133.831 56.8479 134.113C56.8634 134.226 56.7846 134.329 56.6718 134.345C56.5608 134.361 56.4555 134.283 56.44 134.169Z" fill="var(--fill-0, #080200)"/>
<path id="Vector_39" d="M57.1317 133.438C56.8092 133.014 56.4608 132.604 56.0963 132.216C56.0184 132.134 56.0221 132.003 56.105 131.925C56.1875 131.847 56.3181 131.851 56.3961 131.934C56.7704 132.331 57.1283 132.754 57.4594 133.189C57.5284 133.279 57.5106 133.408 57.4202 133.477C57.3293 133.547 57.2002 133.528 57.1317 133.438Z" fill="var(--fill-0, #080200)"/>
<path id="Vector_40" d="M90.0962 135.418C89.7581 134.848 89.2745 134.374 88.6971 134.047C88.5982 133.99 88.5634 133.865 88.6195 133.766C88.6759 133.667 88.8016 133.632 88.9003 133.688C89.5401 134.051 90.076 134.576 90.4506 135.208C90.5087 135.306 90.4765 135.432 90.3784 135.49C90.2788 135.549 90.1531 135.515 90.0962 135.418Z" fill="var(--fill-0, #080200)"/>
<path id="Vector_41" d="M90.7539 134.169C90.7343 134.025 90.6196 133.889 90.4826 133.739C90.1667 133.412 89.934 133.089 89.8356 133.096C89.7234 133.114 89.6181 133.036 89.6009 132.924C89.5643 132.683 89.9216 132.512 90.3336 132.963C90.8765 133.559 91.1147 133.767 91.1621 134.113C91.1777 134.226 91.0988 134.33 90.9861 134.345C90.8747 134.361 90.7694 134.283 90.7539 134.169Z" fill="var(--fill-0, #080200)"/>
<path id="Vector_42" d="M91.6105 133.519C91.3987 133.519 91.462 133.332 90.4108 132.216C90.3329 132.134 90.3366 132.003 90.4195 131.925C90.502 131.847 90.6326 131.851 90.7106 131.934C91.0849 132.331 91.4428 132.753 91.7742 133.189C91.8786 133.325 91.7782 133.519 91.6105 133.519Z" fill="var(--fill-0, #080200)"/>
<g id="Group">
<path id="Vector_43" d="M83.2065 6.49611C83.0946 6.47655 83.0195 6.36981 83.0394 6.25761C83.0592 6.14541 83.1662 6.07004 83.2779 6.09047C83.7885 6.17965 84.3276 6.06602 84.7577 5.77776C84.8524 5.71418 84.9801 5.73951 85.0434 5.83444C85.1067 5.9288 85.0814 6.05682 84.987 6.12011C84.4835 6.45727 83.8377 6.60687 83.2065 6.49611Z" fill="var(--fill-0, #080200)"/>
</g>
<g id="Group_2">
<path id="Vector_44" d="M85.7895 6.82331C85.6825 6.78447 85.6272 6.66652 85.6661 6.5595C85.7049 6.45249 85.8229 6.39813 85.9299 6.4361C86.5225 6.65158 87.2248 6.57935 87.7622 6.24794C87.8591 6.18868 87.986 6.21802 88.0455 6.31526C88.1054 6.41221 88.0752 6.53907 87.9785 6.59863C87.3413 6.9916 86.5234 7.08971 85.7895 6.82331Z" fill="var(--fill-0, #080200)"/>
</g>
<g id="Group_3">
<path id="Vector_45" d="M87.7527 8.68384C87.644 8.65047 87.5827 8.53538 87.6161 8.42664C87.6494 8.31761 87.7648 8.25662 87.8736 8.29C88.3301 8.42952 88.8462 8.33228 89.2202 8.03683C89.3094 7.96606 89.4391 7.98131 89.5096 8.07049C89.5801 8.15967 89.5651 8.28913 89.4759 8.35962C88.9952 8.73994 88.3338 8.86221 87.7527 8.68384Z" fill="var(--fill-0, #080200)"/>
</g>
<g id="Group_4">
<path id="Vector_46" d="M88.5142 9.79607C88.4054 9.76298 88.3436 9.64821 88.3761 9.53946C88.4091 9.43043 88.5245 9.36943 88.6327 9.40136C88.9949 9.51068 89.4175 9.42582 89.7098 9.18589C89.7978 9.11369 89.9276 9.12691 89.9998 9.21466C90.072 9.30269 90.059 9.43243 89.971 9.50464C89.5679 9.83462 89.0093 9.94422 88.5142 9.79607Z" fill="var(--fill-0, #080200)"/>
</g>
<g id="Group_5">
<path id="Vector_47" d="M90.526 14.6763C90.7435 14.6763 90.9198 14.4999 90.9198 14.2824C90.9198 14.0649 90.7435 13.8886 90.526 13.8886C90.3085 13.8886 90.1321 14.0649 90.1321 14.2824C90.1321 14.4999 90.3085 14.6763 90.526 14.6763Z" fill="var(--fill-0, #080200)"/>
</g>
<g id="Group_6">
<path id="Vector_48" d="M81.33 14.497C81.4313 15.2142 81.2368 15.9685 80.8018 16.5476C80.6778 16.7128 80.6522 16.8017 80.8153 16.9576C81.2218 17.3468 81.7696 17.5853 82.3314 17.6175" fill="var(--fill-0, white)"/>
<path id="Vector_49" d="M82.3187 17.8235C81.7117 17.7887 81.1113 17.5275 80.672 17.1069C80.4317 16.8765 80.4493 16.6725 80.6348 16.4257C81.0411 15.8851 81.2191 15.1932 81.1248 14.5258C81.1089 14.413 81.1872 14.3091 81.3 14.2933C81.4122 14.2729 81.5169 14.3555 81.5327 14.4685C81.7255 15.8345 80.9297 16.6872 80.9061 16.7611C80.9079 16.755 80.9211 16.7749 80.9568 16.8094C81.3262 17.1633 81.831 17.3828 82.342 17.4121C82.4556 17.4187 82.5422 17.516 82.5359 17.6296C82.5295 17.7458 82.428 17.8307 82.3187 17.8235Z" fill="var(--fill-0, #080200)"/>
</g>
<g id="Group_7">
<path id="Vector_50" d="M86.2947 17.6688C85.8707 18.5762 84.9383 19.2246 83.94 19.3063Z" fill="var(--fill-0, white)"/>
<path id="Vector_51" d="M83.7335 19.3232C83.7243 19.2099 83.8086 19.1104 83.9219 19.1012C84.8534 19.0246 85.711 18.4283 86.1072 17.5819C86.1552 17.4789 86.2778 17.4343 86.3808 17.4824C86.4837 17.5307 86.5283 17.6532 86.48 17.7562C86.0226 18.7344 85.0318 19.4237 83.9553 19.5117C83.8468 19.522 83.743 19.4398 83.7335 19.3232Z" fill="var(--fill-0, #080200)"/>
</g>
<g id="Group_8">
<path id="Vector_52" d="M80.9002 11.8844C80.9002 12.2702 80.63 12.5806 80.2969 12.5806C79.9655 12.5806 79.6953 12.2702 79.6953 11.8844C79.6953 11.5004 79.9655 11.19 80.2969 11.19C80.63 11.19 80.9002 11.5004 80.9002 11.8844Z" fill="var(--fill-0, #080200)"/>
</g>
<g id="Group_9">
<path id="Vector_53" d="M84.8733 12.3C84.8733 12.6858 84.6031 12.9962 84.27 12.9962C83.9386 12.9962 83.6684 12.6858 83.6684 12.3C83.6684 11.9159 83.9386 11.6055 84.27 11.6055C84.6031 11.6055 84.8733 11.9159 84.8733 12.3Z" fill="var(--fill-0, #080200)"/>
</g>
<g id="Group_10">
<path id="Vector_54" d="M83.0077 11.4839C82.9387 11.3938 82.9556 11.2644 83.046 11.1951C83.6 10.7707 84.3075 10.7943 84.9542 10.83C85.0678 10.8363 85.1547 10.9335 85.1484 11.0469C85.1423 11.1602 85.0465 11.2448 84.9312 11.2414C84.3733 11.21 83.7459 11.1778 83.2962 11.5221C83.2062 11.5909 83.0767 11.5745 83.0077 11.4839Z" fill="var(--fill-0, #080200)"/>
</g>
<g id="Group_11">
<path id="Vector_55" d="M81.5883 10.7668C81.2092 10.3733 80.5648 10.4605 80.057 10.5324C79.9442 10.5493 79.8401 10.47 79.824 10.3575C79.8082 10.245 79.8864 10.1405 79.9989 10.1247C80.3047 10.0813 80.6211 10.0364 80.9457 10.0669C81.3291 10.1034 81.6626 10.2504 81.885 10.4812C81.9641 10.5629 81.9615 10.6935 81.8795 10.7726C81.7978 10.8514 81.6675 10.8488 81.5883 10.7668Z" fill="var(--fill-0, #080200)"/>
</g>
<path id="Vector_56" d="M93.9781 101.397C94.2104 101.397 94.3987 101.209 94.3987 100.977C94.3987 100.744 94.2104 100.556 93.9781 100.556C93.7458 100.556 93.5575 100.744 93.5575 100.977C93.5575 101.209 93.7458 101.397 93.9781 101.397Z" fill="var(--fill-0, white)"/>
<path id="Vector_57" d="M66.4875 102.239C66.7198 102.239 66.9081 102.05 66.9081 101.818C66.9081 101.586 66.7198 101.397 66.4875 101.397C66.2552 101.397 66.0669 101.586 66.0669 101.818C66.0669 102.05 66.2552 102.239 66.4875 102.239Z" fill="var(--fill-0, white)"/>
<path id="Vector_58" d="M70.1136 110.037C70.3459 110.037 70.5342 109.849 70.5342 109.617C70.5342 109.384 70.3459 109.196 70.1136 109.196C69.8813 109.196 69.693 109.384 69.693 109.617C69.693 109.849 69.8813 110.037 70.1136 110.037Z" fill="var(--fill-0, white)"/>
<path id="Vector_59" d="M65.8042 93.3149C66.0365 93.3149 66.2248 93.1266 66.2248 92.8943C66.2248 92.662 66.0365 92.4737 65.8042 92.4737C65.5719 92.4737 65.3836 92.662 65.3836 92.8943C65.3836 93.1266 65.5719 93.3149 65.8042 93.3149Z" fill="var(--fill-0, white)"/>
<path id="Vector_60" d="M60.0352 114.153C60.2675 114.153 60.4558 113.965 60.4558 113.733C60.4558 113.5 60.2675 113.312 60.0352 113.312C59.8029 113.312 59.6146 113.5 59.6146 113.733C59.6146 113.965 59.8029 114.153 60.0352 114.153Z" fill="var(--fill-0, white)"/>
<path id="Vector_61" d="M99.122 113.098C99.122 113.331 98.9335 113.519 98.7014 113.519C98.4689 113.519 98.2805 113.331 98.2805 113.098C98.2805 112.866 98.4689 112.678 98.7014 112.678C98.9335 112.678 99.122 112.866 99.122 113.098Z" fill="var(--fill-0, white)"/>
<path id="Vector_62" d="M91.7316 94.5655C91.9639 94.5655 92.1522 94.3772 92.1522 94.1449C92.1522 93.9127 91.9639 93.7244 91.7316 93.7244C91.4993 93.7244 91.311 93.9127 91.311 94.1449C91.311 94.3772 91.4993 94.5655 91.7316 94.5655Z" fill="var(--fill-0, white)"/>
<path id="Vector_63" d="M86.6965 81.0063C86.6965 81.2387 86.5081 81.4272 86.2759 81.4272C86.0435 81.4272 85.8554 81.2387 85.8554 81.0063C85.8554 80.7738 86.0438 80.5854 86.2759 80.5854C86.5084 80.5857 86.6965 80.7741 86.6965 81.0063Z" fill="var(--fill-0, white)"/>
<path id="Vector_64" d="M89.7644 108.775C89.7644 109.008 89.576 109.196 89.3438 109.196C89.1113 109.196 88.9232 109.008 88.9232 108.775C88.9232 108.543 89.1116 108.355 89.3438 108.355C89.576 108.355 89.7644 108.543 89.7644 108.775Z" fill="var(--fill-0, white)"/>
</g>
</svg>
