<svg width="326" height="224" viewBox="0 0 326 224" fill="none" xmlns="http://www.w3.org/2000/svg">
<path d="M267.555 192.364C274.228 191.465 280.842 190.101 287.334 188.325C302.754 184.108 319.082 175.989 324.296 160.876C329.599 145.503 316.419 136.676 310.837 124.124C305.687 112.544 309.658 98.3004 303.912 87.0036C296.993 73.3998 278.765 69.7601 263.775 72.6328C256.829 73.9637 249.95 76.335 242.888 75.9427C232.063 75.3419 222.623 68.3333 215.253 60.3829C207.882 52.4331 201.813 43.2476 193.649 36.1134C184.398 28.0282 172.844 22.9525 160.993 19.7087C142.876 14.7494 122.126 14.2665 106.712 25.0003C89.6971 36.8497 82.9541 59.5283 66.1899 71.7304C51.5633 82.3766 31.4333 83.4455 17.3264 94.7715C7.77082 102.443 2.02247 114.266 0.424397 126.416C-2.27136 146.91 8.09535 168.06 25.2645 179.362C38.7976 188.271 55.3249 191.709 71.524 192.034C87.7232 192.359 103.818 189.766 119.863 187.517C141.805 184.44 164.068 181.994 186.08 184.519C203.732 186.545 220.938 191.739 238.646 193.195C248.276 193.985 257.976 193.655 267.555 192.364Z" fill="#F2E9DF"/>
<path d="M62.5139 182.902H288.03" stroke="#F2E9DF" stroke-miterlimit="10" stroke-linecap="round" stroke-linejoin="round"/>
<path d="M47.0582 166.526C57.4738 166.526 65.9172 164.853 65.9172 162.789C65.9172 160.725 57.4738 159.052 47.0582 159.052C36.6427 159.052 28.1992 160.725 28.1992 162.789C28.1992 164.853 36.6427 166.526 47.0582 166.526Z" fill="black"/>
<path d="M65.9741 110.924C69.8993 111.279 73.8599 110.506 77.497 108.957C76.7207 108.233 76.026 107.418 75.4892 106.501C75.3575 106.275 75.5185 106.021 75.741 105.953C76.9602 105.579 78.2101 106.453 79.0955 107.19C79.3442 107.397 79.5847 107.615 79.8174 107.841C80.3286 107.566 80.8331 107.278 81.3258 106.974C82.8029 106.062 84.1948 105.026 85.5089 103.896C85.4812 103.875 85.452 103.855 85.4238 103.833C84.2553 102.918 83.1048 101.889 82.4363 100.54C82.2994 100.264 82.5034 100.005 82.7849 99.9827C84.1723 99.874 85.4771 100.785 86.4799 101.64C86.7342 101.857 86.9813 102.087 87.2223 102.325C89.2746 100.329 91.1188 98.1052 92.7702 95.7648C95.8335 91.4233 89.9924 88.14 85.8124 86.9285C85.3838 87.6427 84.9403 88.3476 84.4235 89.0034C83.6693 89.9606 82.7106 90.9624 81.4524 91.1731C81.2668 91.2044 81.0223 91.1008 80.9971 90.887C80.8341 89.4899 81.6759 88.2712 82.6255 87.3315C82.9356 87.0243 83.2735 86.7398 83.6227 86.4665C80.1707 86.0148 76.6807 86.5096 73.3026 87.2469C71.7189 87.5924 70.2341 87.9005 68.795 88.3271C68.7304 88.4609 68.6678 88.5973 68.6043 88.7327C68.5089 89.0567 68.3607 89.3581 68.1772 89.6437C67.6286 90.7952 67.0144 91.9047 65.9726 92.6696C65.7434 92.8383 65.2804 92.746 65.3327 92.38C65.4999 91.2059 66.0408 90.0995 66.7119 89.132C66.7339 89.1003 66.7591 89.069 66.7816 89.0372C65.8121 89.4381 64.8523 89.9247 63.8895 90.5748C59.8402 93.3064 54.7984 97.7597 56.499 103.186C57.0014 104.789 57.5803 106.415 58.6605 107.701C60.4191 109.795 63.2512 110.677 65.9741 110.924ZM66.3668 104.974C66.3438 104.817 66.4115 104.665 66.5324 104.58C66.6299 104.455 66.7934 104.377 66.9436 104.433C67.1021 104.493 67.2564 104.56 67.4071 104.633C67.9613 104.807 68.4612 105.159 68.7739 105.642C69.1426 106.045 69.4333 106.52 69.604 107.074C69.6948 107.369 69.381 107.576 69.1251 107.523C67.8813 107.264 66.5617 106.303 66.3668 104.974Z" fill="#61BA89"/>
<path d="M20.4252 64.2198C21.0569 67.0258 22.0802 69.761 23.4624 72.2876C24.8252 71.6196 26.5847 71.6221 27.9034 72.3558C28.111 72.4711 28.2049 72.7813 28.0685 72.9854C27.4835 73.8595 26.3366 74.0554 25.3563 74.0538C25.0687 74.0533 24.7744 74.0333 24.4786 74.001C26.2294 76.7398 28.4325 79.1716 31.0621 81.0849C32.4782 82.1155 34.0281 83.0024 35.7246 83.4367C38.0312 84.0273 40.1014 83.5797 42.0564 82.3046C46.4676 79.4269 46.9511 73.5211 45.3402 68.8705C45.091 69.2083 44.8244 69.5339 44.5291 69.8292C44.1164 70.2424 43.6175 70.6424 43.0356 70.7751C42.7752 70.8346 42.4173 70.6449 42.4532 70.3317C42.6106 68.9725 43.4791 67.861 44.506 66.9258C44.5004 66.915 44.4953 66.9043 44.4896 66.8935C42.9474 63.9522 40.6413 61.4836 38.2101 59.2205C34.4397 55.7116 28.7478 54.6488 23.8572 53.5696C23.2507 53.4358 22.6195 53.302 22.0146 53.4419C18.5123 54.2556 19.8853 61.8209 20.4252 64.2198ZM33.1672 61.3226C33.2498 60.9785 33.4349 60.6397 33.7112 60.4136C33.804 60.3377 33.9101 60.2731 34.0363 60.2787C34.1573 60.2838 34.2752 60.3243 34.3613 60.4136C34.5684 60.6279 34.6587 60.8852 34.6843 61.177C34.7028 61.3887 34.6766 61.603 34.6756 61.8148C34.6746 62.0552 34.4649 62.2859 34.2157 62.2746C34.2131 62.2746 34.2111 62.2731 34.2085 62.2731C34.1296 62.4187 34.0347 62.5546 33.9132 62.6781C33.7984 62.795 33.623 62.8396 33.4656 62.7966C33.3267 62.7581 33.1657 62.6279 33.1442 62.4756C33.0914 62.088 33.075 61.7061 33.1672 61.3226Z" fill="#61BA89"/>
<path d="M15.3757 112.044C15.5377 112.026 15.6997 112.005 15.8607 111.976C16.5825 111.841 17.3465 111.514 17.7018 110.83C17.8438 110.556 17.6643 110.271 17.3675 110.247C16.7717 110.199 16.1703 110.277 15.5833 110.431C16.2114 106.157 17.5746 101.991 19.6105 98.181C19.7551 97.9108 19.9043 97.6416 20.0581 97.3745C20.2006 97.3791 20.3421 97.3817 20.4806 97.3817C21.7264 97.3817 23.2015 97.231 24.2069 96.4194C24.3904 96.2712 24.3412 95.9092 24.1284 95.8113C23.3071 95.434 22.4119 95.2376 21.5096 95.1771C23.0005 93.2258 24.8016 91.4047 27.3163 90.9489C29.2872 90.5916 31.3974 91.0838 33.0068 92.2763C33.7035 92.7926 34.3095 93.4355 34.7612 94.1758C35.8825 96.0138 35.9773 98.3338 35.4887 100.431C34.9273 102.84 33.4179 104.983 31.9675 106.951C31.5287 106.445 30.9698 106.042 30.3505 105.786C29.9101 105.605 29.3082 105.542 29.0441 105.939C28.9365 106.101 28.9149 106.304 28.9124 106.498C28.9006 107.435 29.2697 108.37 29.9183 109.046C30.0747 109.209 30.2618 109.401 30.2167 109.623C30.1926 109.742 30.1039 109.837 30.0188 109.924C29.5399 110.417 24.3371 116.661 24.0941 116.218C23.8228 115.723 23.5014 115.262 23.0738 114.889C22.8462 114.69 22.377 114.801 22.4129 115.163C22.475 115.786 22.6667 116.37 22.9113 116.935C22.899 116.942 22.8872 116.95 22.8749 116.956C21.3701 117.742 18.5139 119.099 16.882 118.079C16.6897 117.959 16.5144 117.805 16.36 117.615C15.1665 116.133 15.1942 113.851 15.3757 112.044Z" fill="#61BA89"/>
<path d="M61.0999 60.0027C61.1148 60.0356 61.1302 60.0684 61.145 60.1007C61.3071 60.4524 61.5147 60.8441 61.89 60.9399C62.9995 61.2245 61.8705 57.7059 61.687 57.1957C61.589 56.924 61.4701 56.6543 61.446 56.3667C61.3793 55.5782 62.0176 54.9235 62.6216 54.4123C65.6542 51.8452 69.1426 49.8175 72.8735 48.4517C72.3059 49.2269 72.8637 50.2989 73.4159 51.0854C73.5451 51.269 73.6943 51.4669 73.9142 51.514C74.3757 51.6125 74.6551 51.0177 74.7105 50.5497C74.8166 49.6555 74.2849 47.836 75.0581 47.1495C75.2811 46.9516 75.5964 46.9054 75.8922 46.868C77.8471 46.6193 79.8026 46.3712 81.7575 46.1225C85.1987 45.6852 85.4612 48.1251 85.2561 51.0408C85.1843 52.0631 84.9393 53.1813 84.3517 54.0406C83.7385 54.9378 83.4114 55.7222 83.0618 56.7892C82.5209 58.4406 81.9384 60.0914 81.2643 61.6967C81.2202 61.6941 81.1761 61.6905 81.132 61.689C80.3588 61.6536 79.5862 61.6757 78.8166 61.7562C78.5705 61.7818 78.385 62.0648 78.3783 62.2935C78.3711 62.5416 78.5413 62.7821 78.7802 62.8533C79.3862 63.0343 80.0025 63.1112 80.6229 63.1363C79.8282 64.8241 78.9048 66.4417 77.76 67.9167C77.0514 68.8293 76.2624 69.6763 75.4134 70.4597C73.621 69.5379 71.5159 68.936 69.6399 69.5527C69.2446 69.6824 69.0436 70.1572 69.3518 70.492C70.2449 71.461 71.5989 72.0624 72.8601 72.4889C72.4895 72.7412 72.1142 72.9873 71.7291 73.217C67.9762 75.4595 63.141 76.5628 59.244 74.5818C56.0806 72.9739 55.4234 69.4963 55.7761 66.2592C55.9581 64.5903 56.4349 62.9507 57.1804 61.4465C57.3834 61.0368 59.9889 57.589 60.0033 57.6202C60.3678 58.4139 60.7339 59.2086 61.0999 60.0027Z" fill="#61BA89"/>
<path d="M73.8625 97.2116C67.9229 99.0901 62.2289 101.651 56.6308 104.364C53.9473 105.665 50.8701 106.804 48.6635 108.88C46.5758 110.844 45.5822 113.991 45.1428 116.755C44.6834 119.642 44.7839 122.585 44.8859 125.507C45.0469 130.133 45.7319 134.556 45.8585 139.162C46.0077 144.591 46.1569 150.02 46.3066 155.449" stroke="black" stroke-width="2" stroke-miterlimit="10" stroke-linecap="round" stroke-linejoin="round"/>
<path d="M45.7518 105.801C45.9318 101.766 45.941 96.4259 45.5493 92.4053C44.9977 86.7441 43.1058 80.964 39.7379 76.3805C36.1839 71.5437 31.8116 67.3724 28.2899 62.509" stroke="black" stroke-width="2" stroke-miterlimit="10" stroke-linecap="round" stroke-linejoin="round"/>
<path d="M71.4272 59.8685C69.5574 65.039 65.0205 68.6945 60.7277 72.1301C55.4721 76.3358 51.5335 80.6301 49.3023 87.066C45.7026 97.4465 45.7524 104.858 45.0797 117.769" stroke="black" stroke-width="2" stroke-miterlimit="10" stroke-linecap="round" stroke-linejoin="round"/>
<path d="M46.2282 164.369C52.339 164.369 57.4429 159.713 58.0023 153.628L59.2696 139.844H33.1873L34.4546 153.628C35.0135 159.713 40.1174 164.369 46.2282 164.369Z" fill="#E86F7B"/>
<path d="M33.3354 139.938C33.3354 141.46 39.151 142.693 46.3251 142.693C53.4993 142.693 59.3148 141.46 59.3148 139.938C59.3148 138.417 53.4993 137.183 46.3251 137.183C39.1515 137.183 33.3354 138.417 33.3354 139.938Z" fill="black"/>
<path d="M45.5811 104.513C43.7687 101.146 42.3429 98.4653 40.5311 95.0984C39.8589 93.8495 39.1724 92.5816 38.1706 91.5778C37.1688 90.5739 35.7881 89.8536 34.3751 89.9746C32.6714 90.1202 31.2928 91.4224 30.3033 92.817C28.0305 96.0198 27.0359 100.031 24.5442 103.066" stroke="black" stroke-width="2" stroke-miterlimit="10" stroke-linecap="round" stroke-linejoin="round"/>
<path d="M270.529 140.137L274.445 112.126L225.96 111.511L235.965 140.137H270.529Z" fill="black"/>
<path d="M235.837 147.936L235.371 176.237L265.982 184.034L269.721 147.936H235.837Z" fill="#8471F4"/>
<path d="M267.888 163.819L272.046 123.678L229.995 120.249L234.331 163.819H267.888Z" fill="#8471F4"/>
<path d="M287.285 182.083L264.884 184.065L261.549 125.086C261.175 118.466 265.886 112.657 272.072 112.11C278.257 111.562 283.576 116.485 283.95 123.105L287.285 182.083Z" fill="#8196EF"/>
<path d="M285.024 182.284L267.146 183.866L263.843 125.442C263.544 120.159 267.303 115.522 272.24 115.085C277.177 114.649 281.421 118.577 281.72 123.86L285.024 182.284Z" fill="white"/>
<mask id="mask0_2079_8672" style="mask-type:luminance" maskUnits="userSpaceOnUse" x="263" y="115" width="23" height="69">
<path d="M285.024 182.282L267.146 183.863L263.843 125.44C263.544 120.157 267.303 115.52 272.24 115.083C277.177 114.646 281.421 118.575 281.72 123.858L285.024 182.282Z" fill="white"/>
</mask>
<g mask="url(#mask0_2079_8672)">
<path d="M264.809 116.799L268.593 183.719" stroke="black" stroke-miterlimit="10" stroke-linecap="round" stroke-linejoin="round"/>
<path d="M267.811 116.532L271.595 183.453" stroke="black" stroke-miterlimit="10" stroke-linecap="round" stroke-linejoin="round"/>
<path d="M270.812 116.27L274.596 183.19" stroke="black" stroke-miterlimit="10" stroke-linecap="round" stroke-linejoin="round"/>
<path d="M273.814 116.003L277.598 182.923" stroke="black" stroke-miterlimit="10" stroke-linecap="round" stroke-linejoin="round"/>
<path d="M276.815 115.736L280.6 182.656" stroke="black" stroke-miterlimit="10" stroke-linecap="round" stroke-linejoin="round"/>
<path d="M279.817 115.473L283.601 182.393" stroke="black" stroke-miterlimit="10" stroke-linecap="round" stroke-linejoin="round"/>
</g>
<path d="M133.232 183.142H98.2494V79.5042C98.2494 78.748 98.8626 78.1343 99.6193 78.1343H133.233L133.232 183.142Z" fill="#FECC00"/>
<path d="M164.421 78.1343H129.437V183.142H164.421V78.1343Z" fill="black"/>
<path d="M166.112 183.138H159.04V52.8372L166.112 55.0675V183.138Z" fill="black"/>
<path d="M187.882 183.141H163.91V34.877C163.91 32.739 165.644 31.0056 167.782 31.0056H184.01C186.148 31.0056 187.882 32.739 187.882 34.877V183.141Z" fill="#61BA89"/>
<path d="M159.47 183.138H132.3V58.0944C132.3 55.191 134.654 52.8372 137.557 52.8372H159.47V183.138Z" fill="#8471F4"/>
<path d="M210.596 183.139H204.278V75.1784L210.596 78.5232V183.139Z" fill="black"/>
<path d="M205.109 75.1784H187.302V183.139H205.109V75.1784Z" fill="#FECC00"/>
<path d="M250.712 183.14H237.549V90.7303H248.488C249.717 90.7303 250.712 91.7259 250.712 92.9539L250.712 183.14Z" fill="#B1C785"/>
<path d="M240.028 90.7303H226.865V183.14H240.028V90.7303Z" fill="black"/>
<path d="M156.006 165.234H135.213V174.764H156.006V165.234Z" fill="#FECC00"/>
<path d="M156.872 62.3115H136.079V64.9104H156.872V62.3115Z" fill="#FECC00"/>
<path d="M156.872 68.0333H136.079V72.3635H156.872V68.0333Z" fill="#FECC00"/>
<path d="M180.901 41.6363H171.082V63.5838H180.901V41.6363Z" fill="black"/>
<path d="M237.224 183.14H208.998V76.5872C208.998 74.4492 210.732 72.7158 212.87 72.7158H233.352C235.49 72.7158 237.224 74.4492 237.224 76.5872V183.14Z" fill="#853894"/>
<path d="M233.108 80.9163H212.827V86.2371H233.108V80.9163Z" fill="#F5AD98"/>
<path d="M233.108 113.132H212.827V118.453H233.108V113.132Z" fill="#F5AD98"/>
<path d="M237.522 142.59H208.746V157.394H237.522V142.59Z" fill="#F5AD98"/>
<path d="M126.687 89.5738H101.852V95.3493H126.687V89.5738Z" fill="#BA9632"/>
<path d="M126.687 99.3958H101.852V105.171H126.687V99.3958Z" fill="#BA9632"/>
<path d="M187.302 167.212C187.471 172.32 187.471 177.895 187.302 183.14" stroke="black" stroke-miterlimit="10" stroke-linecap="round" stroke-linejoin="round"/>
<path d="M187.302 75.1784C187.471 102.631 187.471 130.506 187.302 157.995" stroke="black" stroke-miterlimit="10" stroke-linecap="round" stroke-linejoin="round"/>
<path d="M237.55 75.1784V183.139" stroke="black" stroke-miterlimit="10" stroke-linecap="round" stroke-linejoin="round"/>
<path d="M250.41 133.415C250.47 150.022 250.47 166.189 250.256 183.142" stroke="black" stroke-miterlimit="10" stroke-linecap="round" stroke-linejoin="round"/>
<path d="M250.256 100.492C250.318 108.389 250.362 116.287 250.388 124.185" stroke="black" stroke-miterlimit="10" stroke-linecap="round" stroke-linejoin="round"/>
<path d="M122.432 171.516C126.379 167.569 126.379 161.169 122.432 157.222C118.485 153.275 112.085 153.275 108.138 157.222C104.191 161.169 104.191 167.569 108.138 171.516C112.085 175.463 118.485 175.463 122.432 171.516Z" fill="#BA9632"/>
<path d="M168.274 71.2358V73.9249" stroke="black" stroke-miterlimit="10" stroke-linecap="round" stroke-linejoin="round"/>
<path d="M168.005 76.6139V86.8386" stroke="black" stroke-miterlimit="10" stroke-linecap="round" stroke-linejoin="round"/>
<path d="M182.799 49.1777V58.3586" stroke="black" stroke-miterlimit="10" stroke-linecap="round" stroke-linejoin="round"/>
<path d="M180.378 104.859V120.191" stroke="black" stroke-miterlimit="10" stroke-linecap="round" stroke-linejoin="round"/>
<path d="M191.407 136.597V137.404" stroke="black" stroke-miterlimit="10" stroke-linecap="round" stroke-linejoin="round"/>
<path d="M191.138 145.206V153.818" stroke="black" stroke-miterlimit="10" stroke-linecap="round" stroke-linejoin="round"/>
<path d="M193.559 180.172H197.362" stroke="black" stroke-miterlimit="10" stroke-linecap="round" stroke-linejoin="round"/>
<path d="M199.745 180.98H202.704" stroke="black" stroke-miterlimit="10" stroke-linecap="round" stroke-linejoin="round"/>
<path d="M224.223 180.98H231.49" stroke="black" stroke-miterlimit="10" stroke-linecap="round" stroke-linejoin="round"/>
<path d="M124.161 113.468V119.391" stroke="black" stroke-miterlimit="10" stroke-linecap="round" stroke-linejoin="round"/>
<path d="M123.892 122.61V124.493" stroke="black" stroke-miterlimit="10" stroke-linecap="round" stroke-linejoin="round"/>
<path d="M212.457 136.297C212.35 140.005 213.099 145.274 217.238 143.781C219.246 143.057 220.069 140.705 220.536 138.623C221.316 135.14 221.812 131.593 222.016 128.029C222.112 126.353 222.594 124.715 222.925 123.074C223.205 121.688 223.485 120.254 223.176 118.875C222.867 117.496 221.802 116.181 220.395 116.051C219.249 115.945 218.148 116.648 217.462 117.573C216.778 118.499 216.43 119.625 216.095 120.726C214.791 125.013 213.484 129.312 212.694 133.723C212.585 134.333 212.487 135.253 212.457 136.297Z" fill="black"/>
<path d="M208.824 138.853C208.918 140.195 209.107 141.521 209.489 142.818C210.045 144.708 211.407 146.73 213.377 146.695C214.694 146.671 215.836 145.673 216.42 144.492C217.09 143.138 217.077 141.894 217.014 140.458C216.936 138.669 217.233 136.892 217.282 135.093C217.392 131.081 216.905 127.074 216.172 123.136C215.786 121.063 215.081 118.744 213.984 116.931C213.168 115.583 211.919 114.421 210.384 114.062C210.025 113.978 209.646 113.94 209.288 114.03C208.653 114.19 208.183 114.723 207.838 115.28C206.573 117.321 206.497 119.894 206.881 122.265C207.264 124.636 208.063 126.926 208.423 129.301C208.9 132.446 208.602 135.693 208.824 138.853Z" fill="black"/>
<path d="M216.644 143.907C216.769 139.115 216.894 134.324 217.02 129.532C217.078 127.297 216.104 125.944 214.539 124.443" stroke="#853894" stroke-miterlimit="10" stroke-linecap="round" stroke-linejoin="round"/>
<path d="M219.93 50.0998C222.37 50.4946 224.856 51.0268 227.064 52.1803C229.252 53.3237 229.901 54.7823 231.254 56.6593C234.421 61.051 235.951 65.9893 236.736 71.3142C236.991 73.0368 237.141 74.9497 236.133 76.3693C235.244 77.6213 233.674 78.1653 232.192 78.5688C224.667 80.6191 216.794 80.94 209.001 81.2492C203.485 81.4681 197.907 81.6829 192.493 80.6027C190.889 80.2828 189.185 79.7706 188.206 78.4617C187.433 77.4296 187.25 76.0735 187.241 74.7846C187.204 69.6084 189.615 64.7988 192.693 60.7844C195.778 56.7598 199.621 53.1555 204.252 50.9914C209.056 48.7468 214.785 49.2677 219.93 50.0998Z" fill="#8471F4"/>
<path d="M217.218 123.778C219.135 124.687 221.095 125.504 223.09 126.224C229.224 113.032 234.43 99.4086 238.654 85.4879C241.011 77.7226 241.309 64.9785 230.766 63.2933C223.314 62.1018 220.393 70.6177 219.165 76.1256C215.97 90.4518 212.251 104.498 208.299 118.655C211.133 120.592 214.118 122.306 217.218 123.778Z" fill="#8471F4"/>
<path d="M221.366 122.817C221.674 122.447 221.692 121.782 221.493 120.439C219.516 107.059 217.572 93.6736 215.612 80.2913C214.993 76.0697 214.586 72.2712 212.083 68.771C208.9 64.3198 204.5 63.9506 199.311 65.3457C198.603 65.5359 197.883 65.7574 197.306 66.2101C196.704 66.6828 196.31 67.3688 195.974 68.0563C194.134 71.8195 193.81 75.7067 194.436 79.7888C196.922 95.991 201.146 111.385 206.236 127.099C208.727 125.904 210.312 125.63 212.969 124.942C214.869 124.45 216.776 123.967 218.7 123.576C220.141 123.284 220.981 123.28 221.366 122.817Z" fill="#8471F4"/>
<path d="M197.471 66.1646C200.764 64.0477 205.173 63.7939 208.687 65.5196C212.201 67.2454 213.972 70.0647 214.561 73.935C216.952 89.644 219.228 105.37 221.389 121.113C221.445 121.526 221.501 121.617 221.212 121.918C220.924 122.218 220.518 122.369 220.126 122.51C218.417 123.13 215.196 124.598 213.487 125.218" stroke="black" stroke-miterlimit="10" stroke-linecap="round" stroke-linejoin="round"/>
<path d="M219.428 6.59403C220.112 7.00111 220.787 7.47177 221.224 8.13776C222.07 9.42616 221.849 11.1237 221.479 12.6203C221.302 13.3385 221.098 14.0502 220.867 14.7531C220.331 16.387 219.511 18.1256 217.925 18.7911C216.183 19.5222 214.077 18.6055 212.95 17.0899C211.378 14.9776 210.692 10.6853 211.774 8.19467C213.042 5.27794 217.079 5.19642 219.428 6.59403Z" fill="#EB9D83"/>
<path d="M219.326 9.81368C220.01 9.89058 220.668 10.2064 220.969 10.8683C221.275 11.5399 221.164 12.3977 221.652 12.9519C222.433 12.0439 222.274 10.028 222.016 8.9303C221.696 7.56602 220.93 6.28223 219.775 5.46755C218.415 4.5083 216.634 4.25862 215.033 4.64878C214.239 4.84207 213.493 5.19378 212.845 5.6916C212.25 6.14842 211.805 6.91233 211.429 7.56499C211.136 8.07359 211.027 8.66626 210.966 9.24971C210.834 10.5063 210.904 11.7835 211.172 13.018C211.345 13.8137 211.636 12.8986 211.673 12.6391C211.759 12.0244 211.894 11.4276 211.936 10.8047C211.966 10.3648 212.015 9.84649 212.396 9.62449C212.654 9.47427 212.977 9.52042 213.272 9.57117C214.204 9.73216 215.162 9.98236 216.111 10.0059C217.032 10.029 217.941 9.83265 218.859 9.79727C219.013 9.79061 219.17 9.79625 219.326 9.81368Z" fill="black"/>
<path d="M221.292 14.0644C221.966 14.0644 222.512 13.5185 222.512 12.845C222.512 12.1715 221.966 11.6255 221.292 11.6255C220.619 11.6255 220.073 12.1715 220.073 12.845C220.073 13.5185 220.619 14.0644 221.292 14.0644Z" fill="#EB9D83"/>
<path d="M213.035 13.0177C213.035 13.7461 212.445 14.3371 211.716 14.3371C210.987 14.3371 210.397 13.7466 210.397 13.0177C210.397 12.2893 210.987 11.6983 211.716 11.6983C212.445 11.6983 213.035 12.2893 213.035 13.0177Z" fill="#EB9D83"/>
<path d="M213.692 4.0504C213.315 3.05013 213.548 1.85247 214.254 1.04908C214.959 0.245685 216.101 -0.139348 217.153 0.0457352C217.579 0.120589 217.985 0.280549 218.377 0.464094C218.706 0.618416 219.033 0.794271 219.292 1.05011C219.838 1.58946 220.007 2.4431 219.813 3.18548C219.619 3.92787 219.102 4.55849 218.473 4.99787C217.789 5.47621 216.68 6.05351 215.819 5.86073C214.875 5.6495 214.035 4.95941 213.692 4.0504Z" fill="black"/>
<path d="M215.931 13.2318C215.931 14.3246 215.045 15.2104 213.952 15.2104C212.859 15.2104 211.973 14.3246 211.973 13.2318C211.973 12.1389 212.859 11.2526 213.952 11.2526C215.045 11.2531 215.931 12.1389 215.931 13.2318Z" stroke="black" stroke-miterlimit="10" stroke-linecap="round" stroke-linejoin="round"/>
<path d="M214.282 13.0662C214.282 13.2482 214.134 13.3964 213.952 13.3964C213.77 13.3964 213.622 13.2487 213.622 13.0662C213.622 12.8843 213.77 12.7366 213.952 12.7366C214.134 12.7366 214.282 12.8843 214.282 13.0662Z" fill="black"/>
<path d="M220.824 13.2318C220.824 14.3246 219.938 15.2104 218.845 15.2104C217.751 15.2104 216.866 14.3246 216.866 13.2318C216.866 12.1389 217.752 11.2526 218.845 11.2526C219.937 11.2526 220.824 12.1389 220.824 13.2318Z" stroke="black" stroke-miterlimit="10" stroke-linecap="round" stroke-linejoin="round"/>
<path d="M219.175 13.0662C219.175 13.2482 219.027 13.3964 218.845 13.3964C218.664 13.3964 218.516 13.2487 218.516 13.0662C218.516 12.8843 218.664 12.7366 218.845 12.7366C219.027 12.7366 219.175 12.8843 219.175 13.0662Z" fill="black"/>
<path d="M215.931 13.2344H216.866" stroke="black" stroke-miterlimit="10" stroke-linecap="round" stroke-linejoin="round"/>
<path d="M208.8 22.518C202.32 22.6226 197.776 25.4424 194.12 30.5965C189.985 36.4269 186.478 42.7033 183.685 49.2833C183.108 50.6434 182.559 52.1964 183.139 53.5555C183.868 55.2659 185.975 55.8181 187.802 56.1662C193.017 57.1598 198.219 58.2257 203.405 59.3644C208.19 60.4149 212.837 60.3221 217.724 60.3559C226.99 60.4206 236.833 58.5466 245.315 54.7753C245.958 54.4892 246.621 54.1723 247.056 53.6191C247.495 53.0613 247.648 52.3287 247.687 51.6196C247.797 49.5857 247.085 47.6042 246.317 45.7175C244.418 41.0509 242.117 36.5484 239.447 32.2761C237.161 28.6185 235.141 25.327 230.93 23.6203C229.23 22.9317 227.3 22.4805 225.462 22.4252C224.073 22.3831 222.818 22.824 221.401 22.7307C217.205 22.4554 213.004 22.4503 208.8 22.518Z" fill="black"/>
<path d="M228.376 13.1355C228.6 13.036 228.815 12.9171 229.013 12.7704C228.983 12.9391 228.975 13.1114 228.985 13.2821C229.088 13.238 229.192 13.1939 229.295 13.1498C229.247 13.1704 229.316 13.4277 229.359 13.4518C229.427 13.4903 229.622 13.3539 229.703 13.3375C229.664 13.4498 229.679 13.58 229.743 13.68C229.828 13.6441 229.913 13.6082 229.998 13.5723C229.829 13.6436 230.295 14.6059 230.35 14.7495C230.514 15.1822 230.51 15.7487 230.495 16.2045C230.463 17.1781 230.193 18.1379 229.774 19.0146C229.152 20.3199 228.218 21.4519 227.227 22.506C225.719 24.1097 223.866 25.1264 221.755 25.7124C217.337 26.9398 212.388 27.1449 208.361 24.9506C207.122 24.2759 205.983 23.3679 205.22 22.1815C204.417 20.9321 204.087 19.4647 203.926 18.0061C203.82 17.3688 203.847 16.7141 203.777 16.0737C203.716 15.517 203.601 14.9566 203.533 14.3931C203.515 14.2424 203.223 14.2783 203.278 14.2798C203.264 14.1358 203.376 13.5328 203.394 13.3888C203.471 13.3816 203.754 13.4436 203.801 13.5051C203.806 13.357 203.797 13.0914 203.801 12.9432C204.743 13.1545 205.638 13.5897 206.552 13.8733C208.206 14.3854 209.877 14.9053 211.6 15.073C212.641 15.1745 213.7 15.2145 214.695 15.537C215.759 15.882 216.967 16.711 217.108 17.9154C216.934 16.4275 218.437 15.5657 219.62 15.1006C221.288 14.4449 223.023 14.2983 224.777 14.0142C225.637 13.8753 226.493 13.7071 227.336 13.4831C227.687 13.3893 228.043 13.2831 228.376 13.1355Z" fill="#F2E9DF"/>
<path d="M217.89 38.8489L230.767 35.1216C230.855 35.0959 230.916 35.0154 230.916 34.9237V13.7165C230.916 13.5796 230.784 13.4807 230.653 13.5186L217.89 17.2126V38.8489H217.89Z" fill="#3B8AD4"/>
<path d="M215.81 17.0853C215.49 17.462 216.822 17.5481 216.953 17.5481C217.123 17.5481 218.327 17.481 218.228 17.1247C218.214 17.074 218.173 17.035 218.132 17.0022C217.789 16.7316 217.313 16.7244 216.876 16.7439C216.51 16.7603 216.114 16.7997 215.845 17.0489C215.832 17.0617 215.82 17.0735 215.81 17.0853Z" fill="#222221"/>
<path d="M215.878 38.8489L203.001 35.1216C202.913 35.0959 202.852 35.0154 202.852 34.9237V13.7165C202.852 13.5796 202.984 13.4807 203.115 13.5186L215.878 17.2126L215.878 38.8489Z" fill="#3F74B0"/>
<path d="M217.665 17.3334C217.277 17.4796 216.847 17.456 216.451 17.3647C216.348 17.3411 216.247 17.3088 216.148 17.2709C216.038 17.2289 215.912 17.1704 215.805 17.0894C215.776 17.1509 215.759 17.2191 215.759 17.2919V38.5898C215.759 38.9108 216.276 39.1138 216.531 39.1651C216.924 39.2435 217.51 39.2589 217.875 39.0707C218.211 38.8974 218.262 38.6267 218.262 38.3027C218.262 37.7593 218.262 37.2158 218.262 36.6723C218.262 35.7654 218.262 34.8579 218.262 33.951C218.262 32.8148 218.262 31.6782 218.262 30.5415C218.262 29.31 218.262 28.079 218.262 26.8475C218.262 25.6555 218.262 24.464 218.262 23.2725C218.262 22.2548 218.262 21.2371 218.262 20.2194C218.262 19.5104 218.262 18.8008 218.262 18.0912C218.262 17.8246 218.262 17.5585 218.262 17.2919C218.262 17.2371 218.253 17.1843 218.236 17.135C218.216 17.0792 218.151 17.054 218.103 17.0889C217.968 17.1889 217.823 17.2745 217.665 17.3334Z" fill="#222D57"/>
<path opacity="0.57" d="M213.355 31.148L205.39 28.9788C205.336 28.9639 205.298 28.9234 205.298 28.8793V18.6746C205.298 18.6085 205.38 18.5649 205.461 18.587L213.356 20.7367V31.148H213.355Z" fill="#223365"/>
<path d="M195.826 41.9106C196.453 42.2864 197.097 42.6663 197.815 42.8011C198.307 42.8939 198.745 43.1344 199.259 42.9898C199.924 42.8021 200.448 42.2771 200.815 41.6916C201.182 41.1061 201.42 40.4509 201.72 39.828C202.189 38.8528 202.814 37.9459 203.142 36.9143C203.482 35.8454 203.477 34.7041 203.313 33.6039C203.166 32.6195 202.799 31.6823 202.912 30.6753C202.96 30.2442 203.052 30.0632 202.939 29.6305C202.722 28.7927 202.4 27.9847 201.972 27.2321C201.824 26.9706 201.635 26.6271 201.385 26.4466C201.126 26.2585 200.751 26.2057 200.462 26.0457C200.26 25.9334 199.375 27.0275 199.27 27.19C198.814 27.897 198.693 28.6133 198.675 29.4444C198.643 30.863 198.612 32.2811 198.581 33.6997C198.574 33.9971 198.567 34.2991 198.479 34.5826C198.387 34.8789 198.21 35.1414 198.03 35.3942C197.4 36.2781 196.692 37.104 195.958 37.9044C195.542 38.3581 195.11 38.8149 194.854 39.3748C194.597 39.9346 194.546 40.6304 194.887 41.1431C195.108 41.4758 195.463 41.6921 195.806 41.8977C195.812 41.9024 195.819 41.9065 195.826 41.9106Z" fill="#EB9D83"/>
<path d="M207.463 30.3252C206.618 30.3462 205.881 29.7443 205.03 29.734C203.291 29.7125 201.618 30.3877 200.714 31.9294C200.431 32.4129 200.764 32.9922 201.298 33.0829C201.91 33.187 202.213 32.4831 202.58 32.1165C202.725 31.9719 202.896 31.8576 203.07 31.7499C203.44 31.5197 203.829 31.31 204.253 31.209C204.896 31.0557 205.51 31.2701 206.11 31.4782C206.626 31.6566 207.1 31.6997 207.638 31.6141C208.373 31.4967 208.191 30.3072 207.463 30.3252Z" fill="#EB9D83"/>
<path d="M208.678 29.511C208.715 29.3495 208.692 29.1885 208.565 29.0762C208.364 28.8999 207.956 28.8665 207.705 28.7783C207.392 28.6681 207.124 28.4794 206.841 28.3041C206.166 27.8868 205.545 27.349 204.698 27.3905C203.9 27.4294 203.108 27.8642 202.402 28.2046C201.607 28.5876 200.855 29.0296 200.158 29.5715C199.27 30.2621 200.404 31.6243 201.334 31.0962C202.024 30.704 202.687 30.2667 203.384 29.8853C203.598 29.7684 203.808 29.6453 204.025 29.5346C204.177 29.4566 204.316 29.3295 204.476 29.2752C204.889 29.1342 205.392 29.3623 205.763 29.5264C206.039 29.6489 206.315 29.7709 206.592 29.893C206.868 30.0155 207.148 30.139 207.447 30.1893C207.745 30.2395 208.068 30.2098 208.321 30.0442C208.472 29.9432 208.628 29.7268 208.678 29.511Z" fill="#EB9D83"/>
<path d="M209.098 27.9369C209.071 27.7277 208.945 27.5267 208.744 27.419C208.591 27.337 208.42 27.296 208.254 27.2422C208.057 27.1776 207.919 27.0653 207.746 26.9627C207.555 26.8494 207.332 26.7864 207.132 26.6895C206.384 26.329 205.562 25.7748 204.711 25.7364C203.851 25.6974 203.012 26.2357 202.283 26.6259C201.485 27.053 200.631 27.5041 199.951 28.1055C199.355 28.6321 200.113 29.4883 200.763 29.1586C201.53 28.77 202.234 28.2501 202.997 27.8471C203.389 27.64 203.832 27.3524 204.275 27.2714C204.694 27.1945 205.021 27.419 205.388 27.5959C206.134 27.9553 206.879 28.3849 207.674 28.6239C208.048 28.7361 208.556 28.7392 208.877 28.4885C209.058 28.3485 209.124 28.1389 209.098 27.9369Z" fill="#EB9D83"/>
<path d="M207.925 25.5917C207.882 25.4549 207.777 25.3369 207.653 25.2585C207.382 25.0857 207.023 25.0057 206.724 24.8827C206.37 24.7361 206.034 24.5515 205.699 24.3664C204.94 23.9486 204.192 23.601 203.329 23.9465C201.817 24.552 200.594 25.9147 199.401 26.9883C199.687 27.5046 199.936 28.0404 200.204 28.5669C200.314 28.4023 200.435 28.2511 200.595 28.1393C201.1 27.7861 201.515 27.3006 201.988 26.9037C202.562 26.4218 203.209 25.8081 203.883 25.4733C204.466 25.1842 205.362 25.9168 205.914 26.1296C206.502 26.3557 207.542 26.732 207.89 25.9599C207.924 25.883 207.947 25.7999 207.946 25.7158C207.945 25.6738 207.938 25.6323 207.925 25.5917Z" fill="#EB9D83"/>
<path d="M236.847 42.9938C236.662 43.0819 236.474 43.166 236.31 43.2809C235.783 43.6505 235.352 43.9479 234.704 44.1273C234.215 44.2632 233.7 44.3047 233.196 44.2494C232.588 44.1822 231.969 43.9551 231.579 43.4849C231.349 43.207 231.213 42.8646 231.087 42.5267C230.531 41.0322 230.091 39.4936 229.774 37.9309C229.69 37.5192 229.615 37.1013 229.642 36.682C229.689 35.955 230.038 35.3059 230.228 34.6143C230.375 34.0811 230.256 33.4002 230.49 32.9065C230.59 32.6963 230.716 32.4855 230.716 32.2533C230.717 32.0697 230.638 31.8965 230.596 31.717C230.452 31.1018 230.793 30.4153 231.064 29.8831C231.195 29.6257 231.395 29.3678 231.489 29.0971C231.607 28.7572 231.661 28.5311 231.915 28.2445C232.379 27.7241 232.962 27.6806 233.517 28.0846C233.765 28.2655 233.983 28.4732 234.231 28.6485C234.734 29.0043 234.869 29.7165 234.874 30.2851C234.886 31.5842 234.73 32.8849 234.41 34.1441C234.261 34.7281 234.076 35.3264 234.167 35.9216C234.268 36.5784 234.691 37.1336 235.099 37.6581C235.579 38.2744 236.059 38.8907 236.539 39.5074C237.066 40.1847 237.616 40.9168 237.679 41.773C237.692 41.9499 237.683 42.1314 237.621 42.2975C237.483 42.6708 237.172 42.8389 236.847 42.9938Z" fill="#EB9D83"/>
<path d="M226.033 32.1457C226.878 32.1667 227.615 31.5648 228.466 31.5546C230.205 31.533 231.878 32.2082 232.782 33.7499C233.065 34.2334 232.732 34.8127 232.198 34.9035C231.586 35.0071 231.283 34.3036 230.916 33.9371C230.772 33.7925 230.6 33.6781 230.426 33.5705C230.056 33.3403 229.667 33.1306 229.243 33.0296C228.6 32.8763 227.987 33.0906 227.386 33.2988C226.87 33.4772 226.396 33.5202 225.858 33.4346C225.123 33.3167 225.305 32.1272 226.033 32.1457Z" fill="#EB9D83"/>
<path d="M224.831 31.3618C224.794 31.2008 224.817 31.0399 224.944 30.9276C225.145 30.7517 225.551 30.7179 225.803 30.6297C226.116 30.5195 226.383 30.3313 226.666 30.156C227.34 29.7391 227.959 29.2018 228.806 29.2434C229.603 29.2823 230.393 29.7166 231.099 30.056C231.893 30.4385 232.644 30.8799 233.34 31.4213C234.226 32.1114 233.094 33.4716 232.165 32.9435C231.476 32.5518 230.814 32.115 230.118 31.734C229.905 31.6172 229.695 31.4946 229.479 31.3839C229.326 31.3059 229.187 31.1793 229.028 31.125C228.616 30.9845 228.113 31.2116 227.743 31.3757C227.467 31.4977 227.191 31.6197 226.915 31.7417C226.639 31.8638 226.359 31.9873 226.061 32.0376C225.764 32.0878 225.441 32.0581 225.188 31.8925C225.036 31.7935 224.88 31.5777 224.831 31.3618Z" fill="#EB9D83"/>
<path d="M224.398 29.7533C224.425 29.5442 224.551 29.3432 224.752 29.2355C224.905 29.1535 225.076 29.1125 225.242 29.0586C225.439 28.994 225.577 28.8818 225.75 28.7792C225.941 28.6659 226.164 28.6023 226.365 28.506C227.112 28.1455 227.934 27.5913 228.785 27.5529C229.645 27.5139 230.484 28.0522 231.213 28.4424C232.011 28.8695 232.865 29.3206 233.545 29.922C234.141 30.4486 233.383 31.3048 232.733 30.9751C231.966 30.5865 231.262 30.0666 230.499 29.6636C230.107 29.4565 229.664 29.1689 229.221 29.0879C228.802 29.011 228.475 29.235 228.108 29.4124C227.363 29.7718 226.617 30.2014 225.822 30.4404C225.448 30.5526 224.94 30.5557 224.619 30.305C224.438 30.1645 224.372 29.9554 224.398 29.7533Z" fill="#EB9D83"/>
<path d="M225.571 27.4088C225.615 27.2719 225.719 27.154 225.842 27.0755C226.113 26.9028 226.473 26.8228 226.771 26.6997C227.125 26.5531 227.462 26.3685 227.797 26.1834C228.383 25.861 229.027 25.4995 229.72 25.5651C230.132 25.6041 230.514 25.7974 230.859 26.0266C231.666 26.5634 233.112 27.6431 233.91 28.4414C234.121 28.6526 233.434 28.5177 233.446 28.8161C233.485 29.7359 232.823 29.7513 232.231 29.3083C232.04 29.1658 231.855 29.0063 231.704 28.8228C231.562 28.6516 231.384 28.5618 231.205 28.4306C230.778 28.1178 230.42 27.7241 230.017 27.3816C229.933 27.3103 229.846 27.2406 229.743 27.2027C229.543 27.1283 229.294 27.2396 229.099 27.2909C228.859 27.3539 228.615 27.4139 228.392 27.5277C228.126 27.6646 227.866 27.8523 227.58 27.9476C226.993 28.1737 225.953 28.55 225.605 27.7779C225.57 27.701 225.547 27.618 225.549 27.5339C225.551 27.4908 225.558 27.4488 225.571 27.4088Z" fill="#EB9D83"/>
<path d="M201.312 41.179C202.031 41.5984 202.776 42.0895 203.103 42.8545C203.689 44.2234 202.706 45.7184 201.777 46.8812C198.886 50.4988 195.919 54.1856 192.002 56.6537C190.017 57.9036 187.469 58.8126 185.369 57.7688C183.364 56.7721 182.496 54.2384 182.831 52.0245C183.166 49.8107 184.46 47.8661 185.849 46.1091C187.908 43.5046 190.295 40.8683 192.991 38.9036C195.312 37.2117 199.079 39.8767 201.312 41.179Z" fill="black"/>
<path d="M230.009 44.0998C230.026 44.8011 230.341 45.4569 230.66 46.0824C232.575 49.8471 234.828 53.4401 237.384 56.8033C238.837 58.7157 240.895 60.7501 243.249 60.2748C244.208 60.081 245.04 59.4776 245.714 58.768C247.648 56.7326 248.442 53.6795 247.745 50.9596C247.275 49.1247 246.201 47.5128 245.144 45.9409C243.601 43.6435 240.761 37.182 237.285 37.7229C235.837 37.9479 234.376 39.5588 233.175 40.3248C231.803 41.1994 229.964 42.2146 230.009 44.0998Z" fill="black"/>
<path d="M201.775 41.3342C201.99 41.8094 201.719 42.3519 201.453 42.8C198.713 47.4147 195.741 51.8911 192.549 56.2054" stroke="#B1C785" stroke-miterlimit="10" stroke-linecap="round" stroke-linejoin="round"/>
<path d="M195.482 38.1876C195.39 37.8354 194.934 37.6892 194.586 37.8C194.239 37.9107 193.982 38.1958 193.741 38.4696C191.423 41.1074 189.105 43.7452 186.787 46.383" stroke="#B1C785" stroke-miterlimit="10" stroke-linecap="round" stroke-linejoin="round"/>
<path d="M235.002 39.0879C235.442 38.5931 235.926 38.1199 236.511 37.8102C236.748 37.6851 237.024 37.5949 237.281 37.6692C237.643 37.7733 238.05 38.145 238.351 38.3645C240.608 40.0112 242.725 41.8785 244.438 44.0846" stroke="#B1C785" stroke-miterlimit="10" stroke-linecap="round" stroke-linejoin="round"/>
<path d="M231.032 41.965C230.737 42.1167 230.248 42.4064 230.193 42.7704C230.147 43.0734 230.396 43.4985 230.52 43.7589C232.661 48.2532 234.975 52.6655 237.454 56.9829" stroke="#B1C785" stroke-miterlimit="10" stroke-linecap="round" stroke-linejoin="round"/>
<path d="M194.784 80.683C194.368 78.2113 194.337 75.675 194.693 73.1941" stroke="black" stroke-miterlimit="10" stroke-linecap="round" stroke-linejoin="round"/>
<path d="M220.775 71.1156C219.566 74.1867 218.592 77.349 217.65 80.5103" stroke="black" stroke-miterlimit="10" stroke-linecap="round" stroke-linejoin="round"/>
<path d="M235.317 65.467C230.297 62.2652 223.629 64.4878 221.324 69.7885" stroke="black" stroke-miterlimit="10" stroke-linecap="round" stroke-linejoin="round"/>
<path d="M144.648 175.016C138.094 174.917 131.537 174.867 125.009 174.304C122.139 174.056 119.254 173.709 116.385 173.975C112.327 174.353 107.244 176.342 105.417 180.216C103.059 185.22 104.56 188.655 108.518 191.953C112.198 195.019 116.612 197.063 120.935 199.045C124.302 200.588 127.672 202.126 131.036 203.675C133.208 204.675 135.169 206.524 137.506 207.002C143.907 208.311 151.166 205.56 156.723 202.629C162.574 199.543 169.668 195.649 171.934 188.986C172.991 185.876 172.703 182.179 170.611 179.645C168.088 176.589 163.741 175.894 159.789 175.587C154.753 175.197 149.701 175.093 144.648 175.016Z" fill="#8471F4"/>
<path d="M135.735 111.576C136.082 111.225 136.503 110.961 136.986 110.869C137.751 110.726 138.518 111.036 139.248 111.306C140.306 111.698 141.391 112.018 142.493 112.263C143.459 112.478 144.649 112.457 145.533 112.861C147.145 113.597 148.234 115.219 148.699 116.886C149.059 118.174 149.097 119.525 148.995 120.852C148.902 122.05 148.769 123.087 147.896 123.99C147.461 124.439 146.914 124.763 146.35 125.034C143.897 126.211 140.997 126.425 138.398 125.621C137.672 125.397 137.159 125.289 136.772 124.569C135.988 123.111 135.857 121.395 135.875 119.739C135.882 119.141 135.906 118.543 135.947 117.946C135.984 117.42 136.129 116.998 135.762 116.573C135.148 115.861 134.611 115.003 134.616 114.062C134.619 113.524 134.801 112.999 135.053 112.522C135.233 112.18 135.462 111.852 135.735 111.576Z" fill="black"/>
<path d="M133.194 147.362C133.384 146.509 133.519 145.629 133.317 144.785C132.963 143.304 130.843 141.038 129.337 140.762C128.403 140.591 127.443 140.874 126.575 141.259C121.974 143.296 120.147 147.461 117.232 151.174C114.222 155.011 111.895 159.036 109.999 163.592C109.088 165.782 108.262 168.058 108.164 170.428C107.924 176.19 112.689 179.533 117.658 176.155C122.877 172.608 126 166.784 128.891 161.176C131.193 156.71 131.995 152.435 133.125 147.658C133.149 147.56 133.171 147.461 133.194 147.362Z" fill="#EB9D83"/>
<path d="M166.502 173.003C166.581 173.21 166.661 173.417 166.741 173.623C166.993 174.273 167.259 174.938 167.729 175.452C168.851 176.677 171.497 177.723 173.099 177.278C174.253 176.958 175.245 176.231 176.206 175.518C178.059 174.144 180.007 172.637 180.766 170.459C181.883 167.258 180.079 163.843 178.337 160.933C176.569 157.981 174.802 155.03 173.034 152.078C171.714 149.873 170.319 147.589 168.154 146.204C164.841 144.084 159.28 145.6 159.351 150.19C159.361 150.857 159.533 151.51 159.706 152.154C161.607 159.215 163.877 166.177 166.502 173.003Z" fill="#EB9D83"/>
<path d="M129.011 161.91C128.411 167.239 128.227 172.553 128.018 177.912C128.387 177.964 128.755 178.019 129.124 178.071C134.711 178.851 140.313 179.541 145.938 179.963C151.241 180.361 156.563 180.51 161.877 180.303C161.877 180.254 161.875 180.202 161.876 180.154C161.913 176.845 161.598 173.546 161.308 170.255C161.08 167.669 161.75 164.017 160.273 161.847C165.888 159.482 171.464 157.019 177.06 154.608C173.683 148.166 169.661 141.662 163.394 137.971C156.717 134.038 148.322 133.369 140.753 133.394C133.374 133.419 126.319 135.422 121.028 140.79C116.312 145.575 113.257 151.724 110.563 157.879C111.55 158.524 112.683 158.081 113.754 158.17C115.495 158.315 117.305 158.892 119.019 159.239C119.866 159.41 129.098 161.155 129.084 161.277C129.059 161.488 129.035 161.7 129.011 161.91Z" fill="#853894"/>
<path d="M137.668 137.001C137.745 137.118 137.83 137.232 137.925 137.345C138.893 138.497 140.447 139.083 141.951 139.018C143.454 138.953 144.896 138.279 146.03 137.289C146.642 136.754 147.189 136.098 147.396 135.311C147.551 134.726 147.507 134.109 147.463 133.506C147.308 131.412 147.128 129.32 147.05 127.221C146.925 123.845 147.386 120.202 145.731 117.093C144.73 115.211 142.791 113.813 140.881 114.218C138.784 114.663 137.412 117.084 137.077 119.465C136.742 121.846 137.181 124.267 137.335 126.671C137.411 127.857 137.466 129.044 137.415 130.231C137.32 132.415 136.375 135.046 137.668 137.001Z" fill="#EB9D83"/>
<path d="M185.881 174.102C185.673 173.584 185.411 173.064 185.09 172.542C183.958 170.703 182.748 168.787 180.867 167.727C178.816 166.571 176.226 166.641 174.04 167.516C170.524 168.924 167.696 172.272 164.95 174.779C163.772 175.854 162.486 176.639 161.372 177.83C159.014 180.353 156.592 182.817 154.11 185.218C149.147 190.021 143.943 194.574 138.523 198.855C138.253 199.07 137.981 199.283 137.709 199.496C137.307 199.81 136.865 200.201 136.879 200.71C136.89 201.102 137.171 201.425 137.437 201.712C139.269 203.688 141.1 205.664 142.931 207.641C143.781 208.559 144.671 209.504 145.832 209.967C148.191 210.908 152.159 207.47 154.122 206.195C159.743 202.545 165.72 199.469 171.259 195.689C174.095 193.754 176.53 191.494 179.148 189.304C183.718 185.483 188.229 179.939 185.881 174.102Z" fill="#8471F4"/>
<path d="M134.614 212.841C132.796 213.619 130.88 214.067 128.968 213.91C125.661 213.636 121.644 210.7 123.195 207.019C124.78 203.258 131.164 203.384 134.387 202.371C136.731 201.635 139.26 200.22 141.795 200.647C144.404 201.085 144.722 203.637 143.597 205.771C142.967 206.968 141.955 207.914 140.92 208.785C139.127 210.292 136.952 211.84 134.614 212.841Z" fill="black"/>
<path d="M160.4 200.447C158.421 200.255 156.385 200.459 154.584 199.918C152.655 199.338 151.495 197.042 149.388 196.805C147.06 196.543 145.258 199.375 144.279 201.293C143.402 203.01 142.935 205.136 143.851 206.832C145.062 209.076 148.012 209.562 150.552 209.791C152.255 209.944 153.959 210.098 155.663 210.252C156.118 210.293 156.6 210.343 156.969 210.614C157.271 210.835 157.458 211.176 157.635 211.507C158.939 213.931 160.242 216.355 161.546 218.78C162.602 220.744 164.031 222.832 166.309 223.496C167.151 223.742 168.202 223.507 168.618 222.735C168.915 222.184 168.828 221.514 168.728 220.896C167.737 214.771 166.282 208.721 164.379 202.815C164.232 202.358 164.073 201.885 163.742 201.537C163.395 201.171 162.9 200.988 162.419 200.835C161.761 200.628 161.084 200.514 160.4 200.447Z" fill="black"/>
<path d="M156.211 202.377C156.592 200.781 156.973 199.185 157.354 197.589C149.579 194.123 141.733 190.615 134.909 185.526C129.757 181.683 124.877 176.936 118.99 174.237C117.151 173.394 115.203 172.701 113.182 172.611C104.097 172.208 101.798 183.974 105.083 190.515C106.419 193.177 108.57 195.373 111.022 197.062C114.901 199.735 119.457 201.113 123.786 202.845C133.191 206.606 142.8 209.76 152.258 213.335C152.638 213.479 153.103 213.612 153.42 213.357C153.622 213.195 153.694 212.925 153.754 212.673C154.573 209.241 155.392 205.809 156.211 202.377Z" fill="#8471F4"/>
<path d="M144.272 149.026C144.305 149.034 144.339 149.041 144.374 149.046C144.846 149.108 145.261 148.777 145.602 148.471C146.529 147.639 147.416 147.105 148.508 146.487C150.981 145.09 153.62 143.647 156.521 143.645C157.682 143.644 158.924 143.926 159.679 144.738C159.758 144.823 159.831 144.913 159.888 145.012C160.074 145.334 160.075 145.717 160.066 146.082C160.046 146.941 159.864 154.065 159.087 154.242C158.73 154.324 144.464 157.575 144.464 157.575L127.886 150.284C127.927 150.302 127.449 148.25 127.412 148.045C127.182 146.808 127.193 145.559 127.528 144.338C127.58 144.149 127.646 143.952 127.803 143.822C127.985 143.671 128.248 143.643 128.492 143.627C133.958 143.265 139.554 145.101 143.538 148.564C143.756 148.752 143.988 148.954 144.272 149.026Z" fill="#FDFFD0"/>
<path d="M145.336 149.472L161.041 145.422L161.523 171.005L146.125 174.016L145.336 149.472Z" fill="#B1C785"/>
<path d="M146.126 149.034C145.337 148.662 145.064 148.589 144.464 148.662C143.97 148.722 142.719 148.662 142.518 149.278V173.777C142.388 174.08 142.434 174.455 142.784 174.625C143.469 174.956 144.406 175.091 145.13 174.802C145.48 174.662 145.807 174.373 145.936 174.017H146.126V149.034Z" fill="#12002C"/>
<path d="M126.142 144.613L127.183 169.328L142.518 174.018V152.145C142.518 151.468 142.756 150.183 142.536 149.512C137.67 147.877 126.142 144.613 126.142 144.613Z" fill="#B1C785"/>
<path d="M135.575 116.203C135.916 116.83 136.492 117.339 137.187 117.479C137.8 117.603 138.429 117.438 139.038 117.293C140.726 116.892 142.4 116.463 144.152 116.521C144.745 116.54 145.417 116.624 145.713 117.197C146.054 117.86 146.142 118.621 146.253 119.347C146.261 119.397 146.271 119.452 146.308 119.485C146.35 119.521 146.411 119.522 146.465 119.52C146.714 119.51 146.98 119.48 147.166 119.316C147.278 119.218 147.349 119.082 147.406 118.945C147.657 118.341 147.549 117.637 147.469 116.998C147.379 116.286 147.138 115.6 146.711 115.018C146.097 114.183 145.223 113.569 144.3 113.095C143.794 112.834 143.265 112.611 142.712 112.474C141.744 112.236 140.73 112.273 139.746 112.117C138.81 111.969 137.836 111.65 136.941 111.964C135.312 112.533 134.845 114.439 135.435 115.904C135.476 116.007 135.522 116.106 135.575 116.203Z" fill="black"/>
<path d="M148.451 121.173C148.488 122.168 147.679 123.2 146.64 123.2C145.167 123.2 144.176 121.055 145.303 120.024C145.739 119.624 146.359 119.428 146.944 119.524C147.528 119.62 148.06 120.012 148.306 120.55C148.397 120.749 148.444 120.96 148.451 121.173Z" fill="#EB9D83"/>
<path d="M138.384 121.171C138.384 122.291 137.581 123.198 136.59 123.198C135.599 123.198 134.795 122.291 134.795 121.171C134.795 120.052 135.599 119.144 136.59 119.144C137.581 119.144 138.384 120.052 138.384 121.171Z" fill="#EB9D83"/>
<mask id="mask1_2079_8672" style="mask-type:luminance" maskUnits="userSpaceOnUse" x="136" y="114" width="12" height="30">
<path d="M136.559 137.76C136.595 138.867 136.829 139.921 137.447 140.801C138.773 142.691 141.411 144.109 143.527 143.598C146.342 142.917 147.897 139.81 147.664 136.78C147.317 132.273 147.211 127.945 147.051 123.431C146.973 121.237 146.732 118.97 145.731 117.088C144.729 115.205 142.791 113.808 140.881 114.213C138.783 114.658 137.412 117.079 137.076 119.46C136.741 121.841 137.18 124.262 137.334 126.666C137.404 127.762 137.415 128.862 137.367 129.959C137.32 131.013 137.268 132.01 136.94 133.028C136.858 133.283 136.765 133.534 136.699 133.794C136.63 134.067 136.592 134.347 136.562 134.627C136.502 135.183 136.47 135.742 136.466 136.301C136.464 136.798 136.543 137.266 136.559 137.76Z" fill="white"/>
</mask>
<g mask="url(#mask1_2079_8672)">
<path d="M139.372 127.894C140.219 128.145 141.203 128.161 141.988 128.133C142.218 128.125 142.495 128.13 142.618 128.326C142.697 128.453 142.678 128.62 142.625 128.759C142.44 129.25 141.907 129.523 141.39 129.614C140.874 129.703 140.342 129.655 139.824 129.731C139.036 129.846 138.49 130.191 137.998 130.778C137.764 131.057 137.502 131.332 137.161 131.456C136.134 131.83 136.127 130.558 136.187 129.883C136.231 129.388 136.326 128.897 136.431 128.411C136.484 128.17 136.573 127.984 136.652 127.759C136.752 127.472 136.719 127.066 136.971 126.854C137.169 126.689 137.474 126.73 137.697 126.86C137.919 126.99 138.09 127.192 138.29 127.355C138.596 127.601 138.968 127.775 139.372 127.894Z" fill="black"/>
</g>
<path d="M147.621 120.606C147.03 120.434 146.336 120.783 146.122 121.36" stroke="black" stroke-miterlimit="10" stroke-linecap="round" stroke-linejoin="round"/>
<path d="M136.157 120.392C136.446 120.325 136.764 120.4 136.992 120.588C137.28 120.826 137.404 121.202 137.515 121.558" stroke="black" stroke-miterlimit="10" stroke-linecap="round" stroke-linejoin="round"/>
<path d="M140.11 123.935C140.588 124.388 141.249 124.641 141.907 124.624C142.565 124.606 143.212 124.318 143.665 123.841" stroke="black" stroke-miterlimit="10" stroke-linecap="round" stroke-linejoin="round"/>
<path d="M135.132 171.229C139.564 172.334 144.411 174.335 149.039 173.519C147.138 176.282 143.656 177.869 140.324 177.493C139.703 177.422 139.077 177.29 138.458 177.377C137.85 177.462 137.293 177.754 136.745 178.031C131.428 180.717 125.639 182.524 119.681 182.829C117.837 182.923 115.952 182.943 114.187 182.4C107.757 180.422 107.112 172.978 108.636 167.493C108.765 167.027 108.924 166.543 109.281 166.217C109.805 165.741 110.595 165.74 111.299 165.812C112.557 165.941 113.796 166.213 115.032 166.488C121.751 167.983 128.452 169.564 135.132 171.229Z" fill="#EB9D83"/>
<path d="M180.303 177.482C178.492 178.811 175.948 179.089 173.64 178.926C167.498 178.49 159.708 176.061 154.6 172.626C152.566 171.257 150.006 169.634 149.747 166.945C149.262 161.913 156.765 163.881 159.58 164.068C166.293 164.514 172.793 165.153 179.494 164.744C179.856 164.722 180.259 164.713 180.533 164.95C180.695 165.09 180.783 165.295 180.866 165.492C181.621 167.278 182.383 169.092 182.63 171.015C182.878 172.939 182.551 175.019 181.322 176.519C181.02 176.888 180.677 177.207 180.303 177.482Z" fill="#EB9D83"/>
<path d="M155.479 166.054C155.459 165.261 155.318 164.516 155.081 163.971C154.076 161.651 151.857 160.269 150.736 158.013C150.541 157.622 150.306 157.204 149.898 157.049C148.804 156.633 148.95 158.297 149.112 158.846C149.289 159.444 149.864 160.228 149.806 160.865C149.752 161.464 149.043 161.491 148.542 161.407C146.235 161.023 144.149 159.834 141.924 159.112C141.565 158.995 141.113 158.912 140.856 159.19C140.272 159.822 141.103 160.421 141.594 160.665C142.472 161.1 143.371 161.496 144.284 161.851C145.005 162.13 145.778 162.165 146.326 162.769C146.216 162.838 146.108 162.827 145.978 162.799C144.003 162.364 142.234 161.283 140.309 160.662C139.912 160.533 139.444 160.435 139.102 160.675C138.88 160.831 138.761 161.123 138.81 161.391C138.888 161.816 139.398 162.046 139.751 162.217C141.595 163.108 143.529 163.64 145.472 164.248C145.602 164.289 145.739 164.334 145.832 164.433C145.925 164.533 145.955 164.705 145.859 164.802C145.87 164.79 144.763 164.553 144.653 164.53C144.147 164.427 143.634 164.15 143.15 163.969C142.149 163.593 141.144 163.229 140.135 162.878C139.77 162.75 139.386 162.623 139.005 162.688C138.431 162.787 137.995 163.493 138.484 163.945C139.098 164.513 140.147 164.748 140.925 164.995C141.229 165.092 141.451 165.27 141.746 165.365C142.308 165.544 142.869 165.723 143.431 165.902C143.92 166.059 144.346 166.269 144.828 166.412C145.025 166.469 145.198 166.736 145.038 166.863C144.965 166.92 144.862 166.911 144.77 166.898C143.471 166.716 142.197 166.358 140.992 165.836C140.674 165.698 140.347 165.546 140 165.553C139.653 165.559 139.281 165.781 139.235 166.125C139.128 166.943 140.686 167.506 141.254 167.748C141.763 167.966 142.313 168.034 142.817 168.236C143.899 168.67 145.028 169.003 146.099 169.496C147.279 170.039 148.447 170.411 149.737 170.588C150.948 170.754 152.359 170.931 153.504 170.434C153.601 170.392 153.675 170.337 153.735 170.277C155.024 169.625 155.523 167.733 155.479 166.054Z" fill="#EB9D83"/>
<path d="M125.056 168.8C122.878 167.962 120.519 167.598 118.189 167.741" stroke="black" stroke-miterlimit="10" stroke-linecap="round" stroke-linejoin="round"/>
<path d="M163.379 164.251C166.655 164.133 169.941 164.264 173.197 164.644" stroke="black" stroke-miterlimit="10" stroke-linecap="round" stroke-linejoin="round"/>
<path d="M109.676 175.135C109.514 176.097 109.844 177.13 110.533 177.821" stroke="black" stroke-miterlimit="10" stroke-linecap="round" stroke-linejoin="round"/>
<path d="M180.694 172.802C181.15 173.929 180.714 175.348 179.703 176.024" stroke="black" stroke-miterlimit="10" stroke-linecap="round" stroke-linejoin="round"/>
<path d="M139.081 177.649C138.63 177.257 138.059 177.006 137.465 176.938" stroke="black" stroke-miterlimit="10" stroke-linecap="round" stroke-linejoin="round"/>
<path d="M138.059 169.688C138.989 169.452 139.826 168.952 140.654 168.47C140.983 168.279 141.356 168.082 141.724 168.176C142.222 168.302 142.45 168.939 142.29 169.428C142.131 169.916 141.697 170.263 141.248 170.513C140.8 170.763 140.31 170.948 139.903 171.261C139.495 171.574 139.17 172.062 139.234 172.572C139.266 172.832 139.396 173.08 139.379 173.34C139.342 173.897 138.257 173.921 137.854 173.95C136.483 174.049 134.782 173.978 133.542 173.335C132.959 173.032 132.391 172.399 132.747 171.69C132.928 171.327 133.401 171.155 133.714 170.926C134.248 170.536 134.722 170.228 135.382 170.083C136.262 169.889 137.18 169.91 138.059 169.688Z" fill="#EB9D83"/>
<path d="M131.215 183.327C135.163 185.06 138.905 187.265 142.332 189.88C144.767 191.739 147.108 193.833 149.88 195.188C150.493 195.488 157.727 197.076 157.7 197.244C157.554 198.188 157.158 199.479 157.013 200.422" stroke="black" stroke-miterlimit="10" stroke-linecap="round" stroke-linejoin="round"/>
<path d="M159.971 179.085C156.452 183.255 152.213 188.092 148.187 191.775C147.595 192.317 146.964 192.613 146.253 192.983" stroke="black" stroke-miterlimit="10" stroke-linecap="round" stroke-linejoin="round"/>
<path d="M159.36 211.912C158.772 212.425 158.292 213.06 157.958 213.765C157.836 214.023 157.732 214.322 157.834 214.589C157.997 215.019 158.571 215.105 159.027 215.036C159.629 214.945 160.208 214.702 160.696 214.338C159.985 214.733 159.466 215.457 159.321 216.258C159.261 216.59 159.308 217.01 159.615 217.151C159.755 217.214 159.915 217.202 160.067 217.182C160.629 217.105 161.177 216.925 161.674 216.653" stroke="#853894" stroke-miterlimit="10"/>
<path d="M17.6228 182.298C18.6641 182.051 19.7628 181.951 20.8266 181.817C22.1155 181.653 23.3957 181.423 24.6605 181.129C25.0589 181.036 25.4711 180.929 25.7849 180.666C27.3102 179.389 25.8274 175.493 25.7341 173.88C25.5834 171.276 25.7218 168.655 26.1453 166.081C26.4109 164.467 26.9154 162.5 28.3217 161.481C29.8306 160.387 31.5091 161.147 33.1287 161.864C34.1075 162.297 35.0688 162.862 35.6932 163.731C36.6141 165.012 36.6484 166.706 36.6474 168.285C36.6458 171.453 36.6961 174.512 36.4669 177.723C36.248 180.35 36.3464 182.959 36.4402 185.595C36.452 185.936 36.4628 186.287 36.3387 186.605C35.9901 187.499 34.8288 187.686 33.8706 187.727C27.1615 188.012 20.4508 187.685 13.7473 187.634C13.5791 187.632 13.4017 187.628 13.2587 187.54C12.9557 187.355 12.9603 186.916 13.0362 186.569C13.3305 185.226 14.1631 184.009 15.3085 183.248C16.0139 182.779 16.8004 182.492 17.6228 182.298Z" fill="black"/>
<path d="M12.0944 190.448C6.98842 190.492 2.31315 190.034 2.34698 188.126C2.36083 187.331 2.93761 186.668 3.51388 186.12C7.05866 182.75 11.9206 180.802 16.8122 180.792C17.0198 179.298 17.2275 177.803 17.4351 176.309C17.8422 173.377 18.3928 169.496 20.7174 167.41C21.8361 166.407 23.4772 165.885 24.8871 166.405C26.6375 167.051 27.5142 169.02 27.829 170.859C28.2581 173.37 27.992 175.943 27.6634 178.469C27.2384 181.735 26.7118 184.988 26.1848 188.239C26.114 188.677 26.0223 189.152 25.6834 189.438C25.3742 189.699 24.9384 189.732 24.5344 189.753C22.9871 189.832 17.3157 190.402 12.0944 190.448Z" fill="black"/>
<path d="M62.9067 143.543C61.1676 140.899 59.0917 138.572 55.8955 137.563C54.5759 137.146 53.0721 137.055 51.8616 137.726C49.9165 138.805 49.4176 141.523 50.1621 143.619C50.8906 145.671 51.6889 147.117 53.6971 147.985C55.6418 148.827 57.7669 149.208 59.6162 150.277C60.4713 150.771 61.245 151.399 62.1135 151.869C62.982 152.339 63.9941 152.648 64.9569 152.429C65.9198 152.211 66.777 151.337 66.7155 150.351C66.6811 149.798 66.3807 149.301 66.0884 148.83C65.0267 147.117 64.0382 145.262 62.9067 143.543Z" fill="#EB9D83"/>
<path d="M37.862 160.872C36.8679 154.216 35.4897 147.641 33.1534 141.345C35.9091 144.13 38.127 147.442 39.6692 151.043C41.2001 154.617 41.8713 158.058 44.5593 161.088C47.2376 164.107 49.5499 167.505 52.6384 170.187C55.6638 172.813 59.3711 174.816 63.363 175.158C65.85 175.371 68.3597 174.936 70.7381 174.178C72.8012 173.521 74.8397 172.584 76.3316 171.015C80.8146 166.3 75.7451 160.963 72.6617 157.053C66.675 149.462 60.6846 141.866 54.2877 134.618C52.3651 132.44 50.3959 130.283 48.1302 128.465C44.7198 125.727 40.6628 123.799 36.3859 122.883C34.0814 122.39 31.6666 122.191 29.3769 122.749C27.1677 123.287 25.1697 124.51 23.4629 126.013C17.2619 131.475 15.0188 140.268 15.0624 148.532C15.0875 153.312 15.7653 158.054 16.4723 162.772C16.8271 165.138 17.1947 167.502 17.4926 169.876C17.7243 171.721 17.6735 174.188 19.1337 175.589C20.4918 176.892 22.6062 176.94 24.3396 176.882C26.9733 176.795 29.5994 176.487 32.1818 175.964C32.8591 175.827 39.5226 174.371 39.4672 173.87C38.9904 169.539 38.5069 165.188 37.862 160.872Z" fill="black"/>
<path d="M25.3931 166.841C25.2398 167.025 25.0922 167.212 24.9512 167.402C23.5966 169.226 22.9142 171.449 21.8822 173.473C21.391 174.436 20.7384 175.425 19.7155 175.773C16.485 176.873 17.1526 171.303 19.188 170.423C20.1821 169.995 20.9839 169.988 21.714 169.167C22.4354 168.356 22.8409 167.051 23.469 166.138C24.3416 164.869 25.3413 163.747 26.0427 162.362C26.9789 160.513 27.5936 158.509 28.2273 156.542C28.7692 154.86 28.6364 153.057 30.0238 151.769C30.2637 151.546 30.5514 151.341 30.879 151.33C31.4342 151.312 31.8387 151.841 32.0956 152.333C33.1861 154.42 33.4563 156.832 34.2735 159.04C35.5737 162.555 37.7834 166.232 37.1826 170.14C36.5032 168.014 34.1941 166.893 32.9082 165.069C32.3022 164.209 31.9315 163.2 31.3076 162.353C31.2112 162.222 31.0974 162.087 30.9395 162.048C30.7098 161.991 30.4888 162.154 30.3083 162.307C28.6728 163.696 26.7933 165.159 25.3931 166.841Z" fill="black"/>
<path d="M76.1106 136.291C78.2147 131.774 80.3603 127.253 83.2642 123.187C84.4593 121.513 85.8098 119.897 87.556 118.81C88.2687 118.367 89.0751 118.01 89.9139 118.039C92.339 118.122 91.9211 121.324 92.6686 122.979C94.7153 127.511 97.2716 131.872 97.7587 136.921C98.3995 143.567 96.6487 150.194 94.7071 156.582C93.8694 159.338 93.6299 162.008 91.9749 164.392C90.1287 167.052 88.2312 169.675 86.283 172.26C85.638 173.116 84.8572 174.043 83.7882 174.126C83.1827 174.173 82.5962 173.932 82.0368 173.696C76.51 171.367 70.896 168.985 66.2725 165.164C64.9343 164.058 63.608 162.675 63.4711 160.945C63.2573 158.239 65.1189 155.602 66.5565 153.49C69.8762 148.614 72.6991 143.593 75.197 138.249C75.5025 137.599 75.8066 136.945 76.1106 136.291Z" fill="#8471F4"/>
<path d="M58.2057 110.01L52.4615 115.512C52.4133 115.558 52.3897 115.625 52.3984 115.691L53.1608 121.559C53.1736 121.657 53.252 121.732 53.3505 121.741L58.8025 122.232C58.9286 122.243 59.0363 122.141 59.0311 122.014L58.561 110.154C58.5538 109.973 58.3364 109.884 58.2057 110.01Z" fill="#853894"/>
<path d="M67.1543 116.9C67.1087 116.742 66.9805 116.622 66.8508 116.52C66.1391 115.956 65.2563 115.655 64.375 115.437C63.6305 115.253 62.8733 115.123 62.1104 115.046C61.6833 115.003 61.2532 115.001 60.8245 114.998C60.6184 114.997 60.4123 114.997 60.2062 114.991C60.0493 114.986 59.7453 115.081 59.6279 114.95C59.4915 114.798 59.5372 114.21 59.5202 114.007C59.4664 113.351 59.4362 112.694 59.43 112.035C59.4244 111.437 59.4321 110.811 59.1603 110.279C58.8348 110.608 58.5195 110.948 58.2144 111.297C57.9586 111.589 57.6735 111.813 57.3926 112.081C56.9521 112.5 56.4994 112.906 56.0595 113.326C55.231 114.116 54.0282 115.123 53.2459 115.959C53.0208 116.2 53.1315 116.295 53.2069 116.603C53.2418 116.747 53.4684 116.798 53.4879 116.945C53.5376 117.326 53.5868 117.707 53.6365 118.089C53.7545 118.996 53.8724 119.903 53.9903 120.811C54.058 121.331 54.1257 121.853 54.1933 122.374C56.3323 121.521 58.4713 120.667 60.6107 119.814C61.9919 119.263 63.3726 118.712 64.7538 118.161C65.1173 118.016 67.2958 117.394 67.1543 116.9Z" fill="white"/>
<path d="M53.797 116.344L68.4693 116.798L72.3807 145.046L57.7027 144.23L53.797 116.344Z" fill="#853894"/>
<path d="M52.6501 115.47C53.2079 116.076 53.8867 116.395 54.7096 116.372C54.7891 116.37 54.8588 116.426 54.868 116.505L57.9878 144.142C58.0006 144.255 57.8898 144.343 57.7827 144.304L55.2951 143.405C55.2392 143.385 55.2002 143.335 55.1941 143.276L52.385 115.586C52.3691 115.438 52.5496 115.36 52.6501 115.47Z" fill="black"/>
<path d="M59.693 114.687C57.8973 114.67 56.0986 114.998 54.4235 115.646" stroke="black" stroke-miterlimit="10" stroke-linecap="round" stroke-linejoin="round"/>
<path d="M68.5304 138.356C68.4873 138.274 68.4448 138.192 68.4027 138.109C67.7301 136.786 67.3071 135.309 66.4073 134.113C65.9028 133.442 65.2922 132.86 64.6846 132.28C64.3391 131.903 63.9007 131.633 63.5408 131.289C63.1445 130.91 62.8677 130.349 62.5631 129.894C62.4734 129.76 62.3801 129.622 62.2473 129.53C61.9884 129.35 61.5967 129.397 61.3885 129.634C60.8041 130.3 61.8484 131.409 62.2396 131.879C62.5139 132.209 63.0855 132.535 63.2547 132.918C63.3004 133.022 63.287 133.161 63.1932 133.226C63.0507 133.324 62.8666 133.19 62.7472 133.065C61.8756 132.158 61.0153 131.24 60.115 130.361C59.4034 129.667 58.7112 128.952 57.9529 128.308C57.6858 128.081 57.328 127.851 57.0106 127.998C56.2867 128.334 56.7881 129.141 57.1234 129.523C57.7228 130.205 58.3529 130.86 59.0112 131.487C59.53 131.98 60.1806 132.283 60.4375 132.993C60.318 133.013 60.2303 132.966 60.1288 132.896C58.5892 131.828 57.4536 130.278 56.0232 129.068C55.7279 128.818 55.3618 128.568 54.9844 128.654C54.7383 128.71 54.5338 128.918 54.482 129.164C54.3995 129.556 54.7558 129.934 54.9973 130.203C56.2636 131.617 57.7335 132.754 59.1855 133.96C59.2829 134.041 59.3839 134.127 59.429 134.245C59.4741 134.363 59.4387 134.522 59.3219 134.571C59.3352 134.565 58.4708 133.971 58.3846 133.913C57.9873 133.647 57.6448 133.229 57.2936 132.903C56.5682 132.229 55.835 131.563 55.0942 130.905C54.8065 130.65 54.4841 130.215 54.0759 130.659C53.8463 130.909 53.8457 131.306 53.9837 131.615C54.1216 131.925 54.3723 132.168 54.6174 132.403C55.7643 133.503 56.9112 134.603 58.0586 135.703C58.0006 135.871 57.7463 135.782 57.611 135.667C56.6984 134.89 55.7858 134.114 54.8732 133.337C54.5584 133.069 54.0765 132.8 53.776 133.083C53.6166 133.234 53.5981 133.49 53.673 133.696C53.7478 133.902 53.8986 134.07 54.0457 134.232C54.2098 134.232 54.7614 135.022 54.887 135.161C55.2182 135.527 55.5499 135.892 55.8811 136.258C56.5441 136.989 57.207 137.721 57.8699 138.452C58.4518 139.095 58.9937 139.715 59.6823 140.242C60.3898 140.783 61.1127 141.309 61.7443 141.941C62.9451 143.141 64.1494 144.344 65.5829 145.286C66.1202 145.64 66.7078 145.961 67.3491 146.005C67.9685 146.047 68.5724 145.826 69.1528 145.605C69.8024 145.358 70.4586 145.1 71.017 144.685C71.3143 144.464 71.5922 144.18 71.6788 143.82C71.827 143.201 71.3825 142.615 70.9857 142.118C70.0485 140.947 69.2256 139.685 68.5304 138.356Z" fill="#EB9D83"/>
<path d="M83.3647 155.186C83.7041 151.141 84.0476 147.091 84.6649 143.077C85.3052 138.913 86.5537 135.082 87.6795 131.052C88.7044 127.385 90.7911 118.711 95.7617 118.527C96.2559 118.509 96.7255 118.724 97.1736 118.934C99.0604 119.82 100.98 120.728 102.513 122.14C106.528 125.839 105.663 133.447 104.899 138.311C103.909 144.614 102.352 150.887 99.7223 156.719C98.0027 160.533 93.5243 170.754 88.2133 169.327C86.7295 168.929 85.5995 167.672 84.9576 166.276C83.459 163.015 83.0694 158.709 83.3647 155.186Z" fill="#8471F4"/>
<path d="M26.153 126.9C23.4383 130.072 22.1171 134.546 21.2875 138.605C20.5959 138.605 18.4959 154.209 18.2713 155.724C17.4279 161.403 16.2441 167.107 15.2885 172.794C15.248 173.035 15.2121 173.303 15.3438 173.51C15.4812 173.726 15.754 173.802 16.0027 173.862C21.5229 175.186 27.1287 176.154 32.7735 176.758C33.2887 176.812 33.8276 176.862 34.3085 176.669C35.4743 176.202 35.5805 173.702 35.8568 172.657C36.5966 169.856 37.3323 167.053 38.065 164.25C39.4185 159.071 40.5767 153.954 41.6031 148.685C43.1171 152.659 45.2858 156.347 47.4714 159.995C52.5225 168.426 56.015 176.515 65.222 181.163C72.3813 184.777 80.9787 182.004 85.3376 175.621C86.4763 173.954 87.5222 172.225 88.5343 170.479C89.331 169.105 90.724 167.877 91.1085 166.332C89.0521 166.098 87.0951 166.429 85.1069 165.687C82.7634 164.812 80.7003 163.282 78.9012 161.581C71.8542 154.915 66.2935 146.911 60.0191 139.557C53.5817 132.013 43.0571 119.819 31.707 123.232C29.385 123.931 27.5773 125.236 26.153 126.9Z" fill="#B1C785"/>
<path d="M95.5177 162.536C95.6125 159.887 94.3764 157.328 92.6533 155.314C89.8042 151.984 85.9892 149.757 82.2871 147.514C80.4424 146.396 78.5951 145.271 76.8761 143.963C74.7392 142.339 72.9606 140.228 70.8821 138.505C70.7678 138.41 70.636 138.309 70.4884 138.326C70.3638 138.339 70.2654 138.432 70.1767 138.521C68.5853 140.106 66.6873 141.183 65.0354 142.708C63.1927 144.172 61.6982 144.857 62.9907 147.132C64.6549 150.062 67.3225 152.067 69.341 154.7C73.3569 159.935 78.1029 164.69 83.7467 168.109C84.909 168.813 86.1451 169.471 87.4945 169.628C91.3628 170.078 95.3844 166.258 95.5177 162.536Z" fill="#8471F4"/>
<path d="M89.7416 114.344C89.8124 114.397 89.8698 114.463 89.9026 114.545C89.9893 114.761 89.9185 115.178 89.9047 115.416C89.8867 115.73 89.8324 116.043 89.7724 116.351C89.6622 116.922 89.5017 117.483 89.4048 118.056C89.2351 119.061 88.8224 120.155 88.9213 121.161C89.3581 121.507 89.8395 121.8 90.3512 122.026C92.4938 122.97 94.9988 123.017 97.2593 122.518C97.8848 122.379 98.5185 122.185 99.1352 121.94C99.487 119.265 99.7028 116.605 100.006 113.945C100.352 110.908 100.398 107.567 99.8315 104.549C99.7131 103.919 99.5633 103.283 99.2475 102.725C98.9789 102.25 98.5985 101.847 98.1873 101.488C95.834 99.4397 92.2923 98.8711 89.4156 100.08C88.9172 100.289 88.4266 100.557 88.0836 100.974C87.7144 101.423 87.5499 102.002 87.414 102.567C86.6655 105.677 86.5045 108.927 86.9428 112.096C87.0936 113.186 87.857 114.034 88.9885 114.164C89.1618 114.184 89.3386 114.186 89.5063 114.233C89.5894 114.255 89.6719 114.292 89.7416 114.344Z" fill="#EB9D83"/>
<path d="M100.846 113.069C101.262 110.538 101.841 107.911 101.345 105.325C101.16 104.362 100.68 103.481 100.147 102.658C99.1306 101.091 97.7771 99.5892 95.9678 99.1267C95.0665 98.8965 94.1154 98.9422 93.2069 98.7417C92.199 98.5192 91.2792 98.0014 90.2846 97.7266C89.2894 97.4517 88.1061 97.4707 87.3632 98.188C86.7967 98.735 86.6116 99.5707 86.5973 100.358C86.5896 100.786 86.6265 101.225 86.8034 101.615C87.2822 102.671 88.3799 102.827 89.3371 103.215C90.1743 103.554 90.5814 104.147 91.1879 104.778C91.654 105.263 92.3825 105.48 92.9049 105.906C94.703 107.375 94.0959 109.465 94.4159 111.443C94.4384 111.582 94.4635 111.727 94.5502 111.837C94.6297 111.938 94.7496 111.996 94.8635 112.055C96.1913 112.755 97.1101 114.194 98.5097 114.759C99.1921 115.034 100.043 114.949 100.476 114.272C100.704 113.916 100.777 113.486 100.846 113.069Z" fill="black"/>
<path d="M94.9157 107.082C95.8399 107.607 96.3438 108.796 96.0363 109.813C95.7287 110.831 94.6128 111.548 93.5665 111.361C92.5547 111.182 91.7642 110.19 91.7806 109.162C91.8047 107.665 93.5061 106.281 94.9157 107.082Z" fill="#EB9D83"/>
<path d="M94.76 108.066C94.309 107.816 93.5339 108.06 93.1756 108.376C92.8117 108.697 92.6169 109.199 92.6681 109.682" stroke="black" stroke-miterlimit="10" stroke-linecap="round" stroke-linejoin="round"/>
<path d="M87.3612 109.609C87.8933 110.15 88.6863 110.424 89.4393 110.325" stroke="black" stroke-miterlimit="10" stroke-linecap="round" stroke-linejoin="round"/>
<mask id="mask2_2079_8672" style="mask-type:luminance" maskUnits="userSpaceOnUse" x="86" y="99" width="15" height="24">
<path d="M89.7416 114.345C89.8124 114.398 89.8698 114.464 89.9026 114.546C89.9893 114.762 89.9185 115.179 89.9047 115.418C89.8867 115.731 89.8324 116.045 89.7724 116.353C89.6622 116.923 89.5017 117.484 89.4048 118.057C89.2351 119.062 88.8224 120.156 88.9213 121.162C89.3581 121.508 89.8395 121.801 90.3512 122.027C92.4938 122.972 94.9988 123.018 97.2593 122.519C97.8848 122.38 98.5185 122.186 99.1352 121.942C99.487 119.266 99.7028 116.606 100.006 113.946C100.352 110.909 100.398 107.569 99.8315 104.55C99.7131 103.92 99.5633 103.285 99.2475 102.726C98.9789 102.251 98.5985 101.848 98.1873 101.49C95.834 99.4409 92.2923 98.8723 89.4156 100.081C88.9172 100.29 88.4266 100.558 88.0836 100.975C87.7144 101.424 87.5499 102.003 87.414 102.568C86.6655 105.678 86.5045 108.928 86.9428 112.097C87.0936 113.187 87.857 114.035 88.9885 114.166C89.1618 114.186 89.3386 114.187 89.5063 114.234C89.5894 114.256 89.6719 114.294 89.7416 114.345Z" fill="white"/>
</mask>
<g mask="url(#mask2_2079_8672)">
<path d="M90.4799 115.622C90.3954 115.705 90.3113 115.788 90.2221 115.864C89.9351 116.107 89.5875 116.279 89.2195 116.358C89.0098 116.403 88.7797 116.416 88.592 116.313C88.4024 116.209 88.2876 115.999 88.2507 115.786C88.1358 115.118 88.6602 114.648 89.2502 114.435C89.7731 114.247 90.298 114.059 90.8403 113.939C91.2324 113.852 91.6466 113.796 91.9803 113.573C92.0326 113.537 92.0977 113.497 92.1541 113.525C92.1925 113.545 92.2105 113.589 92.2207 113.631C92.352 114.171 91.9706 114.81 91.4821 115.028C91.3278 115.097 91.1607 115.134 91.0084 115.208C90.8055 115.307 90.6419 115.464 90.4799 115.622Z" fill="black"/>
</g>
<path d="M94.2021 117.607C96.1837 118.026 98.9389 119.266 100.498 120.763C104.357 124.471 103.459 128.959 103.557 133.903C103.671 139.633 102.438 145.322 100.668 150.743C100.253 152.012 99.7874 153.288 98.9984 154.364C96.4139 157.891 93.1321 155.972 90.5461 153.566C87.6135 150.838 84.6808 148.108 81.7482 145.38C79.2857 143.089 79.2796 139.759 78.7341 136.498C78.1312 132.895 79.5072 129.257 81.2125 126.027C82.5619 123.472 84.1866 120.977 86.5101 119.259C88.8516 117.529 91.6022 117.058 94.2021 117.607Z" fill="#8471F4"/>
<path d="M91.9575 165.093C91.2967 166.211 89.824 166.775 88.5856 166.383" stroke="black" stroke-miterlimit="10" stroke-linecap="round" stroke-linejoin="round"/>
<path d="M91.4161 124.523C91.0767 125.661 90.7757 126.809 90.5009 127.964C88.8844 134.753 88.1964 141.765 85.982 148.408C85.577 149.622 85.3576 150.823 85.1904 152.1C83.6621 150.508 81.6795 149.403 80.0752 147.871C77.8753 145.77 75.965 143.388 74.0782 141.009" stroke="black" stroke-miterlimit="10" stroke-linecap="round" stroke-linejoin="round"/>
<path d="M85.2422 151.66C86.1004 153.716 86.9187 155.789 87.6954 157.876" stroke="black" stroke-miterlimit="10" stroke-linecap="round" stroke-linejoin="round"/>
<path d="M8.16199 181.503C8.17173 182.156 8.27581 182.808 8.4696 183.432C8.6106 183.887 8.98742 184.419 9.43501 184.258C9.70161 184.162 9.82312 183.86 9.90156 183.588C10.1666 182.666 10.2876 181.702 10.2584 180.743C10.5378 181.63 10.9598 182.473 11.5032 183.228C11.6417 183.421 11.8196 183.625 12.0564 183.635C12.4579 183.651 12.6388 183.141 12.6706 182.74C12.7347 181.93 12.6917 181.112 12.5425 180.313C12.7962 181.262 13.2879 182.145 13.9601 182.861" stroke="#E86F7B" stroke-miterlimit="10" stroke-linecap="round" stroke-linejoin="round"/>
<path d="M26.176 187.111C26.9282 183.575 27.4819 179.997 27.8325 176.399" stroke="#E86F7B" stroke-miterlimit="10" stroke-linecap="round" stroke-linejoin="round"/>
<path d="M41.6969 150.306C41.6287 146.557 41.3682 142.811 40.9181 139.088" stroke="black" stroke-miterlimit="10" stroke-linecap="round" stroke-linejoin="round"/>
<path d="M73.6887 179.46C71.6282 180.263 69.1349 179.816 67.481 178.348" stroke="black" stroke-miterlimit="10" stroke-linecap="round" stroke-linejoin="round"/>
<path d="M64.9201 176.474C64.0922 175.984 63.3966 175.273 62.925 174.434" stroke="black" stroke-miterlimit="10" stroke-linecap="round" stroke-linejoin="round"/>
<path d="M19.2207 161.421C19.1315 162.784 18.8978 164.138 18.5236 165.452" stroke="black" stroke-miterlimit="10" stroke-linecap="round" stroke-linejoin="round"/>
<path d="M20.8059 166.791C20.3625 167.317 20.0042 167.913 19.7484 168.551" stroke="black" stroke-miterlimit="10" stroke-linecap="round" stroke-linejoin="round"/>
<path d="M288.927 204.563C301.426 204.563 311.557 202.12 311.557 199.107C311.557 196.094 301.426 193.651 288.927 193.651C276.429 193.651 266.298 196.094 266.298 199.107C266.298 202.12 276.429 204.563 288.927 204.563Z" fill="black"/>
<path d="M283.8 138.642C283.7 136.809 282.946 135.081 282.149 133.427C279.449 127.831 272.102 128.05 266.833 128.899C265.58 129.101 264.451 129.43 263.379 129.835C263.42 129.843 263.464 129.849 263.505 129.858C264.763 130.128 266.021 130.605 267.032 131.416C267.347 131.669 267.047 132.088 266.738 132.125C265.336 132.294 264.017 131.869 262.719 131.361C262.36 131.27 262.016 131.141 261.698 130.954C261.546 130.893 261.394 130.832 261.242 130.773C259.777 131.509 258.363 132.373 256.842 133.281C253.599 135.218 250.448 137.432 248.034 140.372C248.516 140.329 248.999 140.303 249.475 140.316C250.934 140.356 252.516 140.698 253.43 141.933C253.57 142.122 253.453 142.387 253.281 142.501C252.121 143.274 250.608 143.192 249.291 142.992C248.39 142.856 247.509 142.625 246.634 142.376C244.207 146.466 242.005 153.449 247.692 154.62C250.757 155.251 253.889 155.645 257.017 155.702C257.031 155.332 257.056 154.964 257.096 154.601C257.256 153.17 257.616 151.469 258.803 150.518C259.044 150.326 259.399 150.38 259.497 150.702C259.972 152.278 259.825 153.958 259.577 155.559C259.571 155.598 259.562 155.635 259.557 155.674C261.449 155.592 263.332 155.377 265.191 155C265.812 154.875 266.428 154.727 267.041 154.564C267.058 154.21 267.087 153.857 267.13 153.506C267.285 152.256 267.628 150.625 268.879 150.012C269.108 149.901 269.426 149.982 269.489 150.261C269.747 151.393 269.802 152.562 269.725 153.719C273.782 152.235 277.516 149.891 280.379 146.675C282.366 144.445 283.963 141.625 283.8 138.642ZM275.326 146.321C275.161 146.555 274.757 146.624 274.608 146.321C274.33 145.751 274.208 145.156 274.2 144.559C274.089 143.941 274.223 143.286 274.535 142.733C274.6 142.562 274.674 142.394 274.756 142.228C274.833 142.07 275.022 142.01 275.192 142.036C275.352 142.014 275.52 142.085 275.619 142.228C276.457 143.433 276.124 145.185 275.326 146.321Z" fill="#61BA89"/>
<path d="M322.41 96.8527C321.922 96.3815 321.255 96.1523 320.611 95.9375C316.116 94.4343 311.207 92.8393 306.378 92.9157C306.171 94.2559 305.788 95.5427 304.859 96.5035C304.603 96.7686 304.105 96.6496 304.019 96.282C303.771 95.2207 303.937 94.1174 304.231 93.0664C303.088 93.213 301.953 93.4627 300.834 93.8549C298.121 94.8065 295.213 96.1928 292.737 98.0324C293.012 99.4828 292.93 101.016 292.81 102.467C292.771 102.939 292.135 103.182 291.873 102.721C291.297 101.706 291.124 100.513 291.125 99.3587C290.019 100.369 289.048 101.487 288.299 102.724C286.506 105.687 285.902 109.535 287.418 112.649C290.513 119.01 298.967 117.564 304.379 115.679C308.212 114.345 311.94 112.397 315.058 109.758C314.87 109.713 314.678 109.677 314.493 109.626C312.968 109.211 310.9 108.422 310.762 106.582C310.74 106.299 311.009 106.092 311.264 106.079C313.37 105.969 315.401 106.696 317.197 107.76C319.353 105.603 322.167 102.813 323.021 99.9647C323.34 98.8993 323.21 97.6253 322.41 96.8527Z" fill="#61BA89"/>
<path d="M320.168 150.733C319.957 150.71 319.747 150.683 319.539 150.644C318.601 150.469 317.61 150.044 317.149 149.157C316.964 148.801 317.198 148.432 317.583 148.4C318.356 148.337 319.137 148.438 319.899 148.639C319.083 143.091 317.314 137.683 314.671 132.736C314.483 132.385 314.289 132.035 314.09 131.689C313.904 131.695 313.721 131.698 313.542 131.698C311.924 131.698 310.009 131.502 308.704 130.449C308.466 130.257 308.53 129.787 308.806 129.659C309.872 129.169 311.034 128.914 312.206 128.836C311.088 127.372 309.792 126.068 308.226 125.105C305.356 123.34 301.433 122.954 298.692 124.913C295.982 126.851 294.645 131.055 294.749 134.295C294.849 137.396 296.89 140.85 298.404 143.491C298.636 143.894 298.877 144.306 299.125 144.72C299.733 143.706 300.56 142.742 301.725 142.393C301.999 142.311 302.256 142.492 302.343 142.744C302.736 143.884 302.211 145.223 301.668 146.221C301.441 146.639 301.167 147.069 300.852 147.469C303.041 150.759 305.711 154.026 308.849 156.151C309.202 155.509 309.619 154.91 310.174 154.426C310.469 154.168 311.079 154.311 311.032 154.781C310.951 155.591 310.702 156.348 310.385 157.082C310.401 157.091 310.416 157.101 310.433 157.11C312.387 158.13 316.094 159.891 318.213 158.567C318.462 158.411 318.69 158.212 318.891 157.964C320.44 156.041 320.404 153.078 320.168 150.733Z" fill="#61BA89"/>
<path d="M282.463 93.3428C282.103 94.136 281.715 94.9163 281.279 95.669C280.997 96.155 280.177 95.8279 280.36 95.2819C280.78 94.0329 281.306 92.822 281.884 91.6387C281.554 90.7486 281.224 89.9791 280.938 89.4018C279.013 85.5078 276.202 82.0984 273.015 79.1473C272.343 78.5249 271.599 77.9158 270.81 77.398C270.596 78.3644 270.371 79.3273 269.964 80.2399C269.809 80.5865 269.262 80.549 269.096 80.2399C268.694 79.4949 268.894 78.6008 269.167 77.8466C269.305 77.4636 269.469 77.0924 269.644 76.7259C268.87 76.349 268.066 76.0917 267.25 76.0348C266.71 75.9973 266.165 76.0455 265.621 76.2014C265.388 76.2685 265.152 76.3593 264.978 76.53C264.718 76.7864 264.645 77.1719 264.592 77.5329C264.228 79.9953 264.205 82.4947 264.251 84.9833C264.28 86.5184 264.344 88.0636 264.498 89.5945C264.536 89.6038 264.574 89.6125 264.612 89.6222C265.274 89.7924 265.921 90.0119 266.55 90.279C266.752 90.3646 266.835 90.6512 266.782 90.8465C266.724 91.0583 266.517 91.2172 266.297 91.2157C265.739 91.2116 265.198 91.1167 264.667 90.9773C264.901 92.6092 265.262 94.2144 265.846 95.7571C266.208 96.7113 266.655 97.6316 267.17 98.5134C268.923 98.1991 270.857 98.2365 272.282 99.2435C272.582 99.4557 272.629 99.909 272.282 100.111C271.276 100.699 269.976 100.855 268.801 100.889C269.049 101.199 269.302 101.503 269.568 101.798C272.157 104.665 275.955 106.85 279.76 106.186C284.896 105.29 284.007 98.3222 282.463 93.3428Z" fill="#61BA89"/>
<path d="M264.937 141.396L276.617 136.253C283.067 133.414 290.278 138.26 290.084 145.305L288.842 190.474" stroke="black" stroke-width="2" stroke-miterlimit="10" stroke-linecap="round" stroke-linejoin="round"/>
<path d="M288.429 128.477C288.615 125.881 288.846 123.287 289.123 120.699C289.758 114.755 292.318 110.232 297.32 106.738C301.447 103.855 306.279 102.19 311.042 100.56" stroke="black" stroke-width="2" stroke-miterlimit="10" stroke-linecap="round" stroke-linejoin="round"/>
<path d="M273.896 92.1326C276.487 97.1252 278.91 102.205 281.159 107.36C283.178 111.99 285.7 115.895 286.942 120.92C289.252 130.267 289.674 136.831 290.103 146.405" stroke="black" stroke-width="2" stroke-miterlimit="10" stroke-linecap="round" stroke-linejoin="round"/>
<path d="M311.939 145.663C308.841 140.757 305.982 135.7 303.375 130.516C302.485 128.748 301.523 126.693 300.105 125.284C299.157 124.342 297.825 123.69 296.503 123.88C295.172 124.072 294.096 125.06 293.275 126.125C291.247 128.757 290.28 132.03 289.352 135.22" stroke="black" stroke-width="2" stroke-miterlimit="10" stroke-linecap="round" stroke-linejoin="round"/>
<path d="M288.928 200.215C282.251 200.215 276.674 195.128 276.063 188.479L274.678 173.418H303.177L301.792 188.479C301.181 195.127 295.604 200.215 288.928 200.215Z" fill="#FECC00"/>
<path d="M303.014 173.525C303.014 175.188 296.659 176.536 288.821 176.536C280.982 176.536 274.628 175.188 274.628 173.525C274.628 171.863 280.982 170.515 288.821 170.515C296.659 170.515 303.014 171.863 303.014 173.525Z" fill="black"/>
<path d="M300.18 181.61C300.248 184.198 299.999 186.793 299.44 189.32" stroke="black" stroke-miterlimit="10" stroke-linecap="round" stroke-linejoin="round"/>
<path d="M298.374 192.371C298.254 193.037 297.937 193.667 297.475 194.162" stroke="black" stroke-miterlimit="10" stroke-linecap="round" stroke-linejoin="round"/>
<path d="M269.224 54.6379L259.935 63.9264" stroke="black" stroke-miterlimit="10" stroke-linecap="round" stroke-linejoin="round"/>
<path d="M268.416 60.6872L264.579 64.525" stroke="black" stroke-miterlimit="10" stroke-linecap="round" stroke-linejoin="round"/>
<path d="M81.2043 195.045L75.5554 200.694" stroke="black" stroke-miterlimit="10" stroke-linecap="round" stroke-linejoin="round"/>
<path d="M236.407 188.859L230.957 194.309" stroke="black" stroke-miterlimit="10" stroke-linecap="round" stroke-linejoin="round"/>
<path d="M93.9135 64.4693L99.0923 59.2905" stroke="black" stroke-miterlimit="10" stroke-linecap="round" stroke-linejoin="round"/>
<path d="M97.9176 65.0435L106.825 56.1365" stroke="black" stroke-miterlimit="10" stroke-linecap="round" stroke-linejoin="round"/>
<path d="M106.017 49.391C106.017 50.1707 105.385 50.8027 104.605 50.8027C103.826 50.8027 103.193 50.1707 103.193 49.391C103.193 48.6113 103.825 47.9793 104.605 47.9793C105.385 47.9793 106.017 48.6113 106.017 49.391Z" stroke="black" stroke-miterlimit="10" stroke-linecap="round" stroke-linejoin="round"/>
<path d="M315.004 169.282C315.004 170.619 313.92 171.702 312.584 171.702C311.247 171.702 310.163 170.619 310.163 169.282C310.163 167.945 311.247 166.861 312.584 166.861C313.92 166.861 315.004 167.945 315.004 169.282Z" stroke="black" stroke-miterlimit="10" stroke-linecap="round" stroke-linejoin="round"/>
<path d="M227.867 192.622C228.424 192.622 228.876 192.171 228.876 191.614C228.876 191.057 228.424 190.606 227.867 190.606C227.311 190.606 226.859 191.057 226.859 191.614C226.859 192.171 227.311 192.622 227.867 192.622Z" stroke="black" stroke-miterlimit="10" stroke-linecap="round" stroke-linejoin="round"/>
<path d="M92.0981 189.798C92.0981 191.581 90.6528 193.026 88.8701 193.026C87.0875 193.026 85.6422 191.581 85.6422 189.798C85.6422 188.015 87.0875 186.57 88.8701 186.57C90.6528 186.571 92.0981 188.015 92.0981 189.798Z" stroke="black" stroke-miterlimit="10" stroke-linecap="round" stroke-linejoin="round"/>
<path d="M69.5025 197.465C69.5025 198.133 68.9607 198.675 68.2923 198.675C67.6239 198.675 67.082 198.133 67.082 197.465C67.082 196.796 67.6239 196.255 68.2923 196.255C68.9607 196.255 69.5025 196.796 69.5025 197.465Z" stroke="black" stroke-miterlimit="10" stroke-linecap="round" stroke-linejoin="round"/>
<path d="M286.573 80.0536C286.573 80.6108 286.121 81.0619 285.565 81.0619C285.008 81.0619 284.556 80.6103 284.556 80.0536C284.556 79.4964 285.008 79.0453 285.565 79.0453C286.121 79.0453 286.573 79.4964 286.573 80.0536Z" stroke="black" stroke-miterlimit="10" stroke-linecap="round" stroke-linejoin="round"/>
<path d="M5.78079 134.559C4.92936 134.559 4.23889 133.869 4.23889 133.017C4.23889 132.166 4.92936 131.475 5.78079 131.475" stroke="black" stroke-miterlimit="10" stroke-linecap="round" stroke-linejoin="round"/>
<path d="M291.415 76.425C292.752 76.425 293.835 77.5087 293.835 78.8455C293.835 80.1824 292.752 81.266 291.415 81.266" stroke="black" stroke-miterlimit="10" stroke-linecap="round" stroke-linejoin="round"/>
<path d="M185.301 197.563L188.88 201.664L192.46 197.563L196.039 201.664L199.62 197.563L203.198 201.664L206.779 197.563L210.364 201.664L213.947 197.563" stroke="black" stroke-miterlimit="10" stroke-linecap="round" stroke-linejoin="round"/>
<path d="M110.254 36.4456L113.38 40.5472L116.505 36.4456L119.631 40.5472L122.758 36.4456L125.883 40.5472L129.01 36.4456L132.14 40.5472L135.27 36.4456" stroke="black" stroke-miterlimit="10" stroke-linecap="round" stroke-linejoin="round"/>
</svg>
