<svg width="26" height="26" viewBox="0 0 26 26" fill="none" xmlns="http://www.w3.org/2000/svg">
<path d="M24.0145 2.80192L23.5805 2.36796L22.2775 1.06492C21.8775 0.663916 21.4025 0.381964 20.8965 0.213964C19.7875 -0.153036 18.5295 0.0419479 17.5785 0.797948C17.4745 0.879948 17.3745 0.968939 17.2785 1.06394L1.06445 17.2779C-0.310547 18.6529 -0.310547 20.902 1.06445 22.277L2.80145 24.014C2.80345 24.016 2.80547 24.0179 2.80847 24.0199C2.88647 24.0969 2.96748 24.1699 3.05048 24.2389C3.16648 24.3349 3.2865 24.421 3.4115 24.5C3.4595 24.531 3.50847 24.5599 3.55847 24.5879C3.64147 24.6349 3.72546 24.679 3.81146 24.719C4.22946 24.912 4.67947 25.0199 5.13147 25.0409C5.18847 25.0439 5.24445 25.045 5.30145 25.045C6.20745 25.045 7.11348 24.701 7.80048 24.014L18.6095 13.2049L24.0145 7.79996C24.2135 7.60096 24.3825 7.38397 24.5235 7.15397C24.6265 6.98597 24.7155 6.81193 24.7885 6.63193C24.8165 6.56193 24.8425 6.48992 24.8655 6.41892C25.2725 5.18992 24.9895 3.77692 24.0145 2.80192Z" fill="#FFC853"/>
<path d="M1.014 2.85397C-0.338 4.20597 -0.338 6.39802 1.014 7.75002L4.46401 11.2C4.89501 11.631 5.62897 11.601 6.09597 11.135L11.135 6.09597C11.602 5.62897 11.631 4.89501 11.2 4.46401L7.74996 1.014C6.39796 -0.338 4.20597 -0.338 2.85397 1.014L1.014 2.85397Z" fill="#EAA936"/>
<path d="M24.0673 22.227C25.4193 20.875 25.4193 18.683 24.0673 17.331L20.6173 13.881C20.1863 13.45 19.4523 13.48 18.9853 13.946L13.9463 18.985C13.4793 19.452 13.4503 20.186 13.8813 20.617L17.3314 24.067C18.6834 25.419 20.8754 25.419 22.2274 24.067L24.0673 22.227Z" fill="#EAA936"/>
<path d="M17.9699 10.9849L14.0949 7.1099C13.7039 6.7189 13.0709 6.7189 12.6809 7.1099L7.30887 12.4819C6.91787 12.8729 6.91787 13.5059 7.30887 13.8959L11.1839 17.7709C11.5749 18.1619 12.2079 18.1619 12.5979 17.7709L17.4059 12.9629L17.9699 12.3989C18.3609 12.0089 18.3609 11.3759 17.9699 10.9849ZM9.62388 14.4689C9.13388 14.4689 8.73685 14.0719 8.73685 13.5819C8.73685 13.0919 9.13388 12.6949 9.62388 12.6949C10.1139 12.6949 10.5109 13.0919 10.5109 13.5819C10.5119 14.0719 10.1139 14.4689 9.62388 14.4689ZM11.4749 16.3579C10.9849 16.3579 10.5879 15.9609 10.5879 15.4699C10.5879 14.9799 10.9849 14.5829 11.4749 14.5829C11.9649 14.5829 12.3619 14.9799 12.3619 15.4699C12.3619 15.9599 11.9649 16.3579 11.4749 16.3579ZM11.8149 12.2789C11.3249 12.2789 10.9269 11.8819 10.9269 11.3919C10.9269 10.9019 11.3239 10.5039 11.8149 10.5039C12.3059 10.5039 12.7019 10.9009 12.7019 11.3919C12.7019 11.8829 12.3049 12.2789 11.8149 12.2789ZM13.6649 14.1669C13.1749 14.1669 12.7779 13.7699 12.7779 13.2799C12.7779 12.7899 13.1749 12.3929 13.6649 12.3929C14.1549 12.3929 14.5529 12.7899 14.5529 13.2799C14.5529 13.7699 14.1549 14.1669 13.6649 14.1669ZM14.0049 10.0889C13.5149 10.0889 13.1179 9.6919 13.1179 9.2009C13.1179 8.7099 13.5149 8.31388 14.0049 8.31388C14.4949 8.31388 14.8919 8.7109 14.8919 9.2009C14.8919 9.6909 14.4949 10.0889 14.0049 10.0889ZM15.8549 11.9769C15.3649 11.9769 14.9669 11.5799 14.9669 11.0899C14.9669 10.5999 15.3639 10.2019 15.8549 10.2019C16.3459 10.2019 16.7419 10.5989 16.7419 11.0899C16.7429 11.5799 16.3449 11.9769 15.8549 11.9769Z" fill="#8471F4"/>
<g opacity="0.1">
<path d="M23.5813 2.36804L23.2013 1.98804L1.98828 23.201L2.80225 24.015C2.80425 24.017 2.80627 24.0191 2.80927 24.0211C2.88727 24.0981 2.96827 24.1711 3.05127 24.2401C3.16727 24.3361 3.28729 24.422 3.41229 24.501C3.46029 24.532 3.50927 24.5611 3.55927 24.5891C3.64227 24.6361 3.72626 24.68 3.81226 24.72C4.23026 24.913 4.68026 25.0211 5.13226 25.0421C5.18926 25.0451 5.24525 25.046 5.30225 25.046C6.20825 25.046 7.11427 24.702 7.80127 24.015L18.6103 13.2061L24.0153 7.80103C24.2143 7.60203 24.3833 7.38503 24.5243 7.15503C24.6273 6.98703 24.7162 6.81306 24.7892 6.63306C24.8172 6.56306 24.8433 6.49104 24.8663 6.42004C25.2733 5.19004 24.9903 3.776 24.0153 2.802L23.5813 2.36804Z" fill="#231F20"/>
</g>
</svg>
