<svg width="29" height="26" viewBox="0 0 29 26" fill="none" xmlns="http://www.w3.org/2000/svg">
<path d="M14.4766 2.31934L1.97656 8.25433V25.7194H26.9766V8.25433L14.4766 2.31934Z" fill="#1FAB89"/>
<path d="M27.953 6.79131L14.878 0.583366C14.748 0.521366 14.6101 0.495358 14.4751 0.500358C14.3401 0.495358 14.2021 0.521366 14.0721 0.583366L0.997055 6.79131C0.564055 6.99731 0.37803 7.51935 0.58403 7.95135C0.79003 8.38435 1.31206 8.57037 1.74406 8.36437L14.4751 2.31933L27.206 8.36437C27.639 8.57037 28.1611 8.38435 28.3661 7.95135C28.5721 7.51835 28.386 6.99631 27.953 6.79131Z" fill="#8971D0"/>
<path d="M27.5782 8.94837C27.3812 8.94837 27.1822 8.90538 26.9922 8.81538L14.4753 2.87239L1.95825 8.81538C1.27525 9.13938 0.456259 8.84735 0.132259 8.16535C-0.191741 7.48235 0.100222 6.66337 0.782222 6.33937L13.8572 0.131357C14.0482 0.0403571 14.2613 -0.00462436 14.4753 0.000375637C14.6883 -0.00462436 14.9013 0.0403571 15.0933 0.131357L28.1683 6.33937C28.8513 6.66337 29.1422 7.48235 28.8182 8.16535C28.5842 8.65935 28.0912 8.94837 27.5782 8.94837ZM14.4753 1.81935C14.5483 1.81935 14.6223 1.83538 14.6893 1.86738L27.4202 7.91236C27.6052 8.00036 27.8262 7.92134 27.9142 7.73634C28.0022 7.55134 27.9233 7.33038 27.7383 7.24238L14.6633 1.03437C14.6103 1.00937 14.5522 0.997376 14.4932 1.00038C14.4802 1.00038 14.4682 1.00038 14.4562 1.00038C14.3962 0.998376 14.3393 1.00937 14.2863 1.03437L1.21124 7.24238C1.02624 7.33038 0.947274 7.55134 1.03527 7.73634C1.12327 7.92134 1.34423 8.00036 1.52923 7.91236L14.2603 1.86738C14.3283 1.83538 14.4023 1.81935 14.4753 1.81935Z" fill="#8971D0"/>
<path d="M7.83789 21.4153C7.56189 21.4153 7.33789 21.1913 7.33789 20.9153V10.0413C7.33789 9.76526 7.56189 9.54126 7.83789 9.54126C8.11389 9.54126 8.33789 9.76526 8.33789 10.0413V20.9153C8.33789 21.1913 8.11389 21.4153 7.83789 21.4153Z" fill="white"/>
<path d="M21.1113 21.4153C20.8353 21.4153 20.6113 21.1913 20.6113 20.9153V10.0413C20.6113 9.76526 20.8353 9.54126 21.1113 9.54126C21.3873 9.54126 21.6113 9.76526 21.6113 10.0413V20.9153C21.6113 21.1913 21.3873 21.4153 21.1113 21.4153Z" fill="white"/>
<path d="M21.113 15.9783H8.04102C7.76502 15.9783 7.54102 15.7543 7.54102 15.4783C7.54102 15.2023 7.76502 14.9783 8.04102 14.9783H21.113C21.389 14.9783 21.613 15.2023 21.613 15.4783C21.613 15.7543 21.389 15.9783 21.113 15.9783Z" fill="white"/>
</svg>
