<svg width="33" height="33" viewBox="0 0 33 33" fill="none" xmlns="http://www.w3.org/2000/svg">
<path d="M19.8898 27.9116C25.8975 25.4231 28.7504 18.5356 26.2619 12.5278C23.7733 6.52005 16.8857 3.66717 10.878 6.15572C4.87023 8.64426 2.01736 15.5319 4.5059 21.5396C6.99445 27.5474 13.882 30.4002 19.8898 27.9116Z" fill="#8471F4"/>
<path d="M18.2956 24.0633C22.1776 22.4553 24.021 18.0047 22.413 14.1226C20.805 10.2406 16.3544 8.39716 12.4724 10.0052C8.59034 11.6132 6.74693 16.0638 8.35495 19.9458C9.96298 23.8278 14.4135 25.6713 18.2956 24.0633Z" fill="#FFD550"/>
<path d="M18.3209 17.0259C18.3209 18.6659 16.9909 19.9959 15.3509 19.9959C13.7109 19.9959 12.3809 18.6659 12.3809 17.0259C12.3809 15.3849 13.7109 14.0559 15.3509 14.0559C16.9909 14.0559 18.3209 15.3859 18.3209 17.0259Z" fill="#8471F4"/>
<path d="M28.5539 2.66827L14.7188 16.5034L15.7794 17.5641L29.6145 3.72892L28.5539 2.66827Z" fill="#A792FC"/>
<path d="M28.1592 7.4649H25.6172V5.9649H27.5382L28.6562 4.84692H28.3572V3.34692H32.2772L28.1592 7.4649Z" fill="#A792FC"/>
<path d="M26.3125 6.659H24.8125V4.11798L28.9305 0V3.91998H27.4305V3.62097L26.3125 4.73901V6.659Z" fill="#A792FC"/>
<g opacity="0.15">
<path d="M28.1603 7.46497L32.2783 3.34698H29.2463L28.9313 3.03198V0L24.8133 4.11798V6.42401L23.0863 8.151C21.0393 6.366 18.3693 5.27697 15.4453 5.25397V28.7999C21.9043 28.7489 27.1243 23.498 27.1243 17.027C27.1243 14.025 26.0003 11.287 24.1513 9.20697L25.8933 7.46497H28.1603ZM28.6573 4.84698L27.5393 5.96497H27.3933L28.5113 4.84698H28.6573ZM26.3133 4.73901L27.4313 3.62097V3.80499L26.3133 4.92297V4.73901Z" fill="#FFD550"/>
</g>
</svg>
