<svg width="15" height="27" viewBox="0 0 15 27" fill="none" xmlns="http://www.w3.org/2000/svg">
<path d="M14.186 7.09302C14.186 11.01 11.01 14.186 7.09302 14.186C3.17602 14.186 0 11.01 0 7.09302C0 3.17602 3.17602 0 7.09302 0C11.01 0 14.186 3.17602 14.186 7.09302Z" fill="#FFD550"/>
<path d="M8.25635 4.849L7.19531 3.78796L7.74634 3.23694L7.22736 2.71802L8.28833 1.65698L8.85333 2.22192C9.41233 2.78092 9.41233 3.69098 8.85333 4.25098L8.25635 4.849Z" fill="white"/>
<path d="M8.25635 8.6228L7.19531 7.56189L7.74634 7.01086L7.22736 6.49182L8.28833 5.43091L8.85333 5.99585C9.41233 6.55485 9.41233 7.4649 8.85333 8.0249L8.25635 8.6228Z" fill="white"/>
<path d="M8.25635 12.3978L7.19531 11.3369L7.74634 10.7859L7.22736 10.2668L8.28833 9.20581L8.85333 9.77087C9.41233 10.3299 9.41233 11.2398 8.85333 11.7998L8.25635 12.3978Z" fill="white"/>
<path d="M11.1938 7.1228L10.1328 6.06189L10.6838 5.51086L10.1648 4.99182L11.2258 3.93091L11.7908 4.49585C12.3498 5.05485 12.3498 5.9648 11.7908 6.5238L11.1938 7.1228Z" fill="white"/>
<path d="M11.1938 10.8969L10.1328 9.83582L10.6838 9.28491L10.1648 8.76587L11.2258 7.70483L11.7908 8.2699C12.3498 8.8289 12.3498 9.73883 11.7908 10.2988L11.1938 10.8969Z" fill="white"/>
<path d="M13.7537 13.4958H0.431641V14.9958H4.79767L6.87067 26.6008C6.91467 26.8488 7.27064 26.8488 7.31464 26.6008L9.38763 14.9958H13.7537V13.4958Z" fill="#FFD550"/>
<g opacity="0.15">
<path d="M14.1866 7.09302C14.1866 3.17602 11.0106 0 7.09363 0C7.05363 0 7.01461 0.00192969 6.97461 0.00292969V26.7529C7.09761 26.8259 7.28461 26.776 7.31561 26.6L9.38861 14.995H13.7546V13.495H10.1486C12.5366 12.354 14.1866 9.91702 14.1866 7.09302Z" fill="#FFD550"/>
</g>
</svg>
