<svg width="27" height="24" viewBox="0 0 27 24" fill="none" xmlns="http://www.w3.org/2000/svg">
<path d="M14.7781 4.67245e-05C9.04008 0.0160467 4.27708 4.18005 3.33008 9.65105L8.26312 10.8841C8.26312 10.8841 9.2031 17.1961 9.2121 17.5771C9.2751 20.2681 11.5141 22.4441 14.2051 22.4331C15.2301 22.4291 16.1811 22.1151 16.9701 21.5801C18.5711 20.4951 20.4981 19.9971 22.4141 20.2691L22.6221 20.2981C25.0061 18.1431 26.4951 15.0161 26.4631 11.5411C26.4041 5.16706 21.1541 -0.0179533 14.7781 4.67245e-05Z" fill="#FFD550"/>
<path d="M21.8374 11.441C21.8024 7.61504 18.6654 4.51001 14.8394 4.51001C14.8334 4.51001 14.8264 4.51001 14.8204 4.51001L14.8164 3.01001C14.8244 3.01001 14.8324 3.01001 14.8404 3.01001C19.4864 3.01001 23.2954 6.78104 23.3374 11.428L21.8374 11.441Z" fill="white"/>
<path d="M14.114 15.5452C13.737 15.5452 13.383 15.6391 13.072 15.8041V15.8001L7.17999 16.2501L6.99103 10.5641L5.46899 10.1912L5.68304 16.3641L0 16.7982L0.392029 23.4542L2.245 23.6082C2.374 23.6192 2.502 23.6241 2.63 23.6241C3.819 23.6241 4.97 23.1671 5.836 22.3391C6.796 21.4221 7.31801 20.1361 7.26801 18.8121L7.23102 17.7501L11.917 17.3922C11.896 17.5172 11.884 17.6441 11.884 17.7751C11.884 19.0071 12.883 20.0051 14.114 20.0051C15.346 20.0051 16.344 19.0071 16.344 17.7751C16.344 16.5431 15.345 15.5452 14.114 15.5452ZM4.79901 21.2551C4.15001 21.8761 3.26302 22.1881 2.36902 22.1141L1.81201 22.0681L1.58301 18.1821L5.73303 17.8651L5.76801 18.8671C5.80201 19.7641 5.44901 20.6341 4.79901 21.2551Z" fill="#FFD550"/>
<g opacity="0.15">
<path d="M15.2266 0.00805664V22.3241C15.8606 22.1891 16.4505 21.9331 16.9705 21.5811C18.5715 20.4961 20.4986 19.9981 22.4146 20.2701L22.6226 20.2991C25.0066 18.1441 26.4956 15.0171 26.4636 11.5421C26.4056 5.31705 21.3986 0.229057 15.2266 0.00805664Z" fill="#FFD550"/>
</g>
</svg>
