<svg width="30" height="30" viewBox="0 0 30 30" fill="none" xmlns="http://www.w3.org/2000/svg">
<path d="M21.8325 16.822L21.7815 16.781C21.3325 16.447 20.7765 16.262 20.2175 16.262H12.3185C10.9985 16.262 9.8865 17.3031 9.8625 18.6231C9.8385 19.9741 10.9265 20.8051 12.2665 20.8051H17.3945C17.4715 20.8051 17.5335 20.8671 17.5335 20.9441C17.5335 21.0211 17.4715 21.083 17.3945 21.083H11.8315C11.3275 21.083 10.8475 20.893 10.4805 20.547L3.76247 14.2171C2.89947 13.3661 1.5055 13.3691 0.6465 14.2281C-0.2155 15.0901 -0.2155 16.492 0.6465 17.354L9.34651 26.054C10.0535 26.761 11.0125 27.158 12.0125 27.158H22.7045L25.1935 29.6471L29.7175 23.637L21.8325 16.822Z" fill="#68B8BC"/>
<path d="M17.2452 0C16.3352 0 15.4632 0.231016 14.6952 0.666016C13.9272 0.231016 13.0542 0 12.1452 0C10.7602 0 9.4602 0.537024 8.4842 1.51202C6.4662 3.53002 6.4662 6.81401 8.4842 8.83301L8.64717 8.99603L13.4222 13.7711L14.6952 15.044L15.9682 13.7711L20.7432 8.99603L20.9062 8.83301C21.8812 7.85801 22.4182 6.55803 22.4182 5.17303C22.4182 3.78803 21.8812 2.488 20.9062 1.513C19.9312 0.537 18.6312 0 17.2452 0Z" fill="#8471F4"/>
<g opacity="0.1">
<path d="M17.2453 0C16.3353 0 15.4633 0.231016 14.6953 0.666016V15.043L15.9683 13.77L20.7433 8.99506L20.9063 8.83203C21.8813 7.85703 22.4183 6.557 22.4183 5.172C22.4183 3.787 21.8813 2.48702 20.9063 1.51202C19.9313 0.537024 18.6313 0 17.2453 0Z" fill="black"/>
</g>
</svg>
