<svg width="35" height="35" viewBox="0 0 35 35" fill="none" xmlns="http://www.w3.org/2000/svg">
<path d="M30.8303 20.2986C32.6283 12.684 27.9131 5.05361 20.2985 3.2556C12.684 1.4576 5.05358 6.17286 3.25557 13.7874C1.45757 21.4019 6.17285 29.0323 13.7874 30.8303C21.4019 32.6283 29.0323 27.9131 30.8303 20.2986Z" fill="#A792FC"/>
<path d="M20.6053 19.0637V14.7377L16.8593 12.5747L13.1133 14.7377V19.0637L16.8593 21.2267L20.6053 19.0637Z" fill="#FFD550"/>
<path d="M16.8593 3.49487C15.5593 3.49487 14.3023 3.68088 13.1133 4.02588V4.67987L16.8593 6.8429L20.6053 4.67987V4.02588C19.4163 3.68088 18.1593 3.49487 16.8593 3.49487Z" fill="#FFD550"/>
<path d="M13.1133 29.2008V29.7769C14.3023 30.1219 15.5593 30.3079 16.8593 30.3079C18.1593 30.3079 19.4163 30.1219 20.6053 29.7769V29.2008L16.8593 27.0378L13.1133 29.2008Z" fill="#FFD550"/>
<path d="M28.4693 23.6049C27.8193 24.7309 27.0293 25.7269 26.1363 26.5839L25.5703 26.2568V21.9308L29.3163 19.7678L29.8823 20.0948C29.5873 21.2968 29.1203 22.4779 28.4693 23.6049Z" fill="#FFD550"/>
<path d="M4.33392 13.9958L3.83594 13.7078C4.13094 12.5058 4.59896 11.3238 5.24896 10.1978C5.89896 9.07175 6.68891 8.07575 7.58191 7.21875L8.07996 7.50677V11.8328L4.33392 13.9958Z" fill="#FFD550"/>
<path d="M28.4693 10.1978C29.1193 11.3238 29.5873 12.5058 29.8823 13.7078L29.3163 14.0348L25.5703 11.8718V7.54578L26.1363 7.21875C27.0303 8.07575 27.8193 9.07175 28.4693 10.1978Z" fill="#FFD550"/>
<path d="M8.07996 26.2957L7.58191 26.5837C6.68791 25.7267 5.89896 24.7307 5.24896 23.6047C4.59896 22.4787 4.13094 21.2967 3.83594 20.0947L4.33392 19.8066L8.07996 21.9697V26.2957Z" fill="#FFD550"/>
<g opacity="0.15">
<path d="M17.0555 2.7998C16.9455 2.7998 16.8356 2.80183 16.7266 2.80383V31.1288C16.8356 31.1318 16.9455 31.1328 17.0555 31.1328C24.8795 31.1328 31.2226 24.7898 31.2226 16.9658C31.2216 9.14282 24.8795 2.7998 17.0555 2.7998Z" fill="#FFD550"/>
</g>
</svg>
