<svg width="29" height="25" viewBox="0 0 29 25" fill="none" xmlns="http://www.w3.org/2000/svg">
<path d="M27.986 1.84702C27.462 1.65802 22.81 0 20.986 0C19.335 0 15.367 1.35901 14.241 1.75601C13.115 1.35801 9.14703 0 7.49603 0C5.67203 0 1.02103 1.65802 0.496033 1.84702C0.199033 1.95402 0 2.23601 0 2.55301V18.915C0 19.159 0.119031 19.388 0.319031 19.529C0.447031 19.619 0.598 19.665 0.75 19.665C0.836 19.665 0.922028 19.65 1.00403 19.621C2.36003 19.132 6.17106 17.863 7.49506 17.863C8.81806 17.863 12.629 19.132 13.986 19.621C13.997 19.625 14.008 19.627 14.019 19.631C14.034 19.635 14.048 19.64 14.063 19.644C14.077 19.647 14.092 19.65 14.106 19.652C14.121 19.655 14.136 19.658 14.151 19.659C14.166 19.661 14.18 19.661 14.195 19.662C14.21 19.663 14.2251 19.664 14.2401 19.664C14.2551 19.664 14.27 19.663 14.285 19.662C14.3 19.661 14.315 19.661 14.329 19.659C14.344 19.657 14.359 19.654 14.374 19.652C14.388 19.649 14.4031 19.647 14.4171 19.644C14.4321 19.64 14.446 19.635 14.461 19.631C14.472 19.628 14.483 19.625 14.494 19.621C15.851 19.132 19.661 17.863 20.985 17.863C22.309 17.863 26.119 19.132 27.476 19.621C27.559 19.651 27.645 19.665 27.73 19.665C27.882 19.665 28.033 19.619 28.161 19.529C28.361 19.388 28.48 19.16 28.48 18.915V2.552C28.481 2.236 28.283 1.95402 27.986 1.84702Z" fill="#8471F4"/>
<path d="M28.162 19.5271C28.034 19.6171 27.883 19.6631 27.731 19.6631C27.645 19.6631 27.559 19.6481 27.477 19.6191C26.251 19.1771 23.0229 18.0991 21.4349 17.8951L20.7839 17.8701C19.3109 17.9791 15.789 19.1531 14.496 19.6191C14.485 19.6231 14.474 19.6251 14.463 19.6291C14.448 19.6331 14.4339 19.6381 14.4189 19.6421C14.4049 19.6451 14.39 19.6481 14.376 19.6501C14.361 19.6531 14.346 19.6561 14.331 19.6571C14.316 19.6591 14.302 19.6591 14.287 19.6601C14.272 19.6611 14.2569 19.6621 14.2419 19.6621C14.2269 19.6621 14.212 19.6611 14.197 19.6601C14.182 19.6591 14.167 19.6591 14.153 19.6571C14.138 19.6551 14.123 19.6521 14.108 19.6501C14.093 19.6471 14.0789 19.6451 14.0649 19.6421C14.0499 19.6381 14.0349 19.6331 14.0209 19.6291C14.0099 19.6261 13.999 19.6231 13.988 19.6191C12.631 19.1301 8.82095 17.8611 7.49695 17.8611C6.17295 17.8611 2.36198 19.1301 1.00598 19.6191C0.922981 19.6491 0.836953 19.6631 0.751953 19.6631C0.599953 19.6631 0.448984 19.6171 0.320984 19.5271C0.120984 19.3861 0.00195312 19.1581 0.00195312 18.9131V22.3141C0.00195312 22.5581 0.120984 22.7871 0.320984 22.9281C0.448984 23.0181 0.599953 23.0641 0.751953 23.0641C0.837953 23.0641 0.923981 23.0491 1.00598 23.0201C2.36198 22.5311 6.17295 21.2621 7.49695 21.2621C8.81995 21.2621 12.631 22.5311 13.988 23.0201C14.152 23.0791 14.3319 23.0791 14.4969 23.0201C15.8539 22.5311 19.664 21.2621 20.988 21.2621C22.312 21.2621 26.1219 22.5311 27.4789 23.0201C27.7089 23.1031 27.965 23.0691 28.165 22.9281C28.365 22.7881 28.4839 22.5591 28.4839 22.3141V18.9131C28.4809 19.1581 28.362 19.3871 28.162 19.5271Z" fill="#A792FC"/>
<path d="M7.4953 19.7051C6.8003 19.7051 5.42031 20.0551 4.07031 20.4571V23.3741C4.07031 23.6771 4.25326 23.9511 4.53326 24.0671C4.81326 24.1831 5.13628 24.1191 5.35028 23.9041L6.48132 22.7731L7.63928 23.9311C7.78328 24.0741 7.97429 24.1511 8.17029 24.1511C8.26729 24.1511 8.36428 24.1321 8.45728 24.0941C8.73728 23.9781 8.92029 23.7041 8.92029 23.4011V19.9211C8.33729 19.7881 7.8343 19.7051 7.4953 19.7051Z" fill="#FFD550"/>
<g opacity="0.1">
<path d="M27.9843 1.84702C27.4603 1.65802 22.8083 0 20.9843 0C19.3333 0 15.3653 1.35901 14.2393 1.75601C14.2253 1.75101 14.2103 1.746 14.1953 1.741V23.061C14.2963 23.067 14.3973 23.055 14.4933 23.02C15.8503 22.531 19.6603 21.262 20.9843 21.262C22.3083 21.262 26.1183 22.531 27.4753 23.02C27.7053 23.103 27.9613 23.069 28.1613 22.928C28.3613 22.788 28.4803 22.559 28.4803 22.314V18.913V2.552C28.4793 2.236 28.2813 1.95402 27.9843 1.84702Z" fill="#231F20"/>
</g>
</svg>
