<svg width="27" height="31" viewBox="0 0 27 31" fill="none" xmlns="http://www.w3.org/2000/svg">
<path d="M18.1026 7.79598C16.6986 6.42498 14.8436 5.69299 12.8786 5.74099C8.94863 5.83299 5.78361 9.10899 5.82461 13.043C5.84061 14.603 6.34659 16.084 7.28659 17.326C7.95659 18.21 8.32559 19.306 8.32559 20.411C8.32559 20.825 8.66159 21.161 9.07559 21.161H17.0286C17.4426 21.161 17.7786 20.825 17.7786 20.411C17.7786 19.3 18.1436 18.21 18.8046 17.342C19.7696 16.075 20.2796 14.563 20.2796 12.967C20.2806 11.004 19.5066 9.16698 18.1026 7.79598Z" fill="#FFD550"/>
<path d="M17.448 13.8719C17.034 13.8719 16.698 13.5359 16.698 13.1219C16.698 11.7689 15.955 10.5339 14.758 9.89988C14.392 9.70588 14.253 9.25187 14.447 8.88587C14.641 8.51987 15.095 8.3809 15.461 8.5749C17.149 9.4699 18.198 11.2129 18.198 13.1219C18.198 13.5359 17.862 13.8719 17.448 13.8719Z" fill="#FFFBE2"/>
<path d="M17.0212 25.512H9.07617C8.66217 25.512 8.32617 25.176 8.32617 24.762C8.32617 24.348 8.66217 24.011 9.07617 24.011H17.0212C17.4352 24.011 17.7712 24.347 17.7712 24.761C17.7712 25.175 17.4362 25.512 17.0212 25.512Z" fill="#8471F4"/>
<path d="M17.0212 23.437H9.07617C8.66217 23.437 8.32617 23.101 8.32617 22.687C8.32617 22.273 8.66217 21.936 9.07617 21.936H17.0212C17.4352 21.936 17.7712 22.272 17.7712 22.686V22.687C17.7712 23.102 17.4362 23.437 17.0212 23.437Z" fill="#8471F4"/>
<path d="M17.3744 26.3329C17.2334 26.1389 17.0074 26.0249 16.7684 26.0249H9.39236C9.15236 26.0249 8.92734 26.1399 8.78634 26.3329C8.64534 26.5269 8.60537 26.7759 8.67837 27.0049C9.29637 28.9219 11.0653 30.2099 13.0803 30.2099C15.0953 30.2099 16.8644 28.9219 17.4824 27.0049C17.5554 26.7759 17.5154 26.5269 17.3744 26.3329Z" fill="#8471F4"/>
<path d="M4.24902 13.053C4.24902 12.639 3.91302 12.303 3.49902 12.303H0.75C0.336 12.303 0 12.639 0 13.053C0 13.467 0.336 13.803 0.75 13.803H3.49902C3.91302 13.803 4.24902 13.467 4.24902 13.053Z" fill="#A792FC"/>
<path d="M25.3564 12.303H22.6074C22.1934 12.303 21.8574 12.639 21.8574 13.053C21.8574 13.467 22.1934 13.803 22.6074 13.803H25.3564C25.7704 13.803 26.1064 13.467 26.1064 13.053C26.1064 12.639 25.7704 12.303 25.3564 12.303Z" fill="#A792FC"/>
<path d="M4.88229 3.82302C4.58929 3.53002 4.11431 3.53002 3.82131 3.82302C3.52831 4.11602 3.52831 4.59103 3.82131 4.88403L5.76528 6.82803C5.91128 6.97403 6.10331 7.04803 6.29531 7.04803C6.48731 7.04803 6.67928 6.97503 6.82528 6.82803C7.11828 6.53503 7.11828 6.06002 6.82528 5.76702L4.88229 3.82302Z" fill="#A792FC"/>
<path d="M20.3393 19.2779C20.0463 18.9849 19.5713 18.9849 19.2783 19.2779C18.9853 19.5709 18.9853 20.0459 19.2783 20.3389L21.2223 22.2829C21.3683 22.4289 21.5603 22.5029 21.7523 22.5029C21.9443 22.5029 22.1364 22.4299 22.2824 22.2829C22.5754 21.9899 22.5754 21.5149 22.2824 21.2219L20.3393 19.2779Z" fill="#A792FC"/>
<path d="M13.0527 0C12.6387 0 12.3027 0.336 12.3027 0.75V3.49899C12.3027 3.91299 12.6387 4.24899 13.0527 4.24899C13.4667 4.24899 13.8027 3.91299 13.8027 3.49899V0.75C13.8027 0.336 13.4667 0 13.0527 0Z" fill="#A792FC"/>
<path d="M19.8073 7.04705C19.9993 7.04705 20.1914 6.97405 20.3374 6.82705L22.2814 4.88305C22.5744 4.59005 22.5744 4.11504 22.2814 3.82204C21.9884 3.52904 21.5134 3.52904 21.2204 3.82204L19.2764 5.76605C18.9834 6.05905 18.9834 6.53405 19.2764 6.82705C19.4234 6.97405 19.6153 7.04705 19.8073 7.04705Z" fill="#A792FC"/>
<path d="M5.7673 19.2779L3.82327 21.2219C3.53027 21.5149 3.53027 21.9899 3.82327 22.2829C3.97027 22.4289 4.16129 22.5029 4.35329 22.5029C4.54529 22.5029 4.73726 22.4299 4.88326 22.2829L6.82729 20.3389C7.12029 20.0459 7.12029 19.5709 6.82729 19.2779C6.53529 18.9849 6.0603 18.9849 5.7673 19.2779Z" fill="#A792FC"/>
</svg>
