<svg width="22" height="22" viewBox="0 0 22 22" fill="none" xmlns="http://www.w3.org/2000/svg">
<path d="M20.2137 0.015428C20.8177 0.036428 21.3007 0.51946 21.3217 1.12346C21.4177 3.93346 21.2167 11.7495 16.4827 16.4825C11.7487 21.2165 3.93272 21.4175 1.12372 21.3215C0.519721 21.3005 0.0366891 20.8174 0.0156891 20.2134C-0.0803109 17.4034 0.120678 9.58748 4.85468 4.85448C9.58868 0.121479 17.4047 -0.079572 20.2137 0.015428Z" fill="#A792FC"/>
<path d="M0.0155456 20.2145C0.0365456 20.8185 0.519578 21.3014 1.12358 21.3224C2.53558 21.3704 5.21352 21.3435 8.12852 20.7035C7.66352 18.9635 6.74956 17.3185 5.38456 15.9535C4.01956 14.5885 2.37456 13.6735 0.634564 13.2095C-0.00543582 16.1245 -0.0324544 18.8015 0.0155456 20.2145Z" fill="#8471F4"/>
<path d="M13.209 0.634564C13.674 2.37456 14.588 4.01956 15.953 5.38456C17.318 6.74956 18.963 7.66458 20.703 8.12858C21.343 5.21358 21.37 2.53558 21.322 1.12358C21.301 0.519578 20.818 0.0365456 20.214 0.0155456C18.802 -0.0324544 16.124 -0.00543582 13.209 0.634564Z" fill="#8471F4"/>
<path d="M14.1735 10.4525L15.2335 9.39154L14.1205 8.27753L14.8415 7.55652L13.7805 6.49554L13.0595 7.21753L11.9465 6.10352L10.8855 7.16455L11.9995 8.27753L10.6685 9.60852L9.5545 8.49451L8.49451 9.55554L9.60748 10.6685L8.27753 11.9995L7.16351 10.8855L6.10352 11.9465L7.21649 13.0595L6.49548 13.7815L7.55652 14.8416L8.27753 14.1205L9.3905 15.2345L10.4515 14.1735L9.3385 13.0595L10.6685 11.7296L11.7825 12.8435L12.8425 11.7825L11.7295 10.6685L13.0595 9.3385L14.1735 10.4525Z" fill="#FFD550"/>
<g opacity="0.15">
<path d="M20.987 0.350525C20.985 0.348525 20.982 0.346543 20.98 0.344543C20.945 0.310543 20.907 0.278512 20.868 0.249512L0.333984 20.9685C0.336984 20.9725 0.340994 20.9766 0.343994 20.9796C0.345994 20.9816 0.347976 20.9845 0.349976 20.9865C0.548976 21.1855 0.820986 21.3115 1.12299 21.3215C3.93299 21.4175 11.749 21.2165 16.482 16.4825C21.216 11.7485 21.417 3.93254 21.321 1.12354C21.312 0.821535 21.186 0.549525 20.987 0.350525Z" fill="#FFD550"/>
</g>
</svg>
