<svg width="28" height="27" viewBox="0 0 28 27" fill="none" xmlns="http://www.w3.org/2000/svg">
<path d="M13.8932 6.27197C9.30625 6.27197 5.57422 10.0039 5.57422 14.5909V23.286C5.57422 23.562 5.79822 23.786 6.07422 23.786H21.7122C21.9882 23.786 22.2122 23.562 22.2122 23.286V14.5909C22.2122 10.0039 18.4802 6.27197 13.8932 6.27197Z" fill="#8471F4"/>
<path d="M13.8938 6.27197C13.2308 6.27197 12.5858 6.352 11.9668 6.5C15.6278 7.372 18.3598 10.668 18.3598 14.592V23.287C18.3598 23.563 18.1358 23.787 17.8598 23.787H21.7137C21.9897 23.787 22.2137 23.563 22.2137 23.287V14.592C22.2127 10.004 18.4808 6.27197 13.8938 6.27197Z" fill="#8471F4"/>
<path d="M24.1938 22.7859H3.5918C3.3158 22.7859 3.0918 23.0099 3.0918 23.2859V25.5789C3.0918 25.8549 3.3158 26.0789 3.5918 26.0789H24.1938C24.4698 26.0789 24.6938 25.8549 24.6938 25.5789V23.2859C24.6938 23.0099 24.4698 22.7859 24.1938 22.7859Z" fill="#FFD550"/>
<path d="M24.1942 22.7859H20.1582C20.4342 22.7859 20.6582 23.0099 20.6582 23.2859V25.5789C20.6582 25.8549 20.4342 26.0789 20.1582 26.0789H24.1942C24.4702 26.0789 24.6942 25.8549 24.6942 25.5789V23.2859C24.6942 23.0099 24.4702 22.7859 24.1942 22.7859Z" fill="#80D1ED"/>
<path d="M26.118 26.0789H1.66797C1.39197 26.0789 1.16797 25.8549 1.16797 25.5789C1.16797 25.3029 1.39197 25.0789 1.66797 25.0789H26.118C26.394 25.0789 26.618 25.3029 26.618 25.5789C26.618 25.8549 26.395 26.0789 26.118 26.0789Z" fill="#8471F4"/>
<path d="M8.55273 19.8199C8.27673 19.8199 8.05273 19.5959 8.05273 19.3199V14.7299C8.05273 13.1259 8.72276 11.575 9.89276 10.476C10.0938 10.287 10.4107 10.2959 10.5997 10.4979C10.7887 10.6989 10.7788 11.016 10.5778 11.205C9.59476 12.13 9.05273 13.3819 9.05273 14.7309V19.321C9.05273 19.596 8.82873 19.8199 8.55273 19.8199Z" fill="white"/>
<path d="M13.8945 4.742C13.6185 4.742 13.3945 4.518 13.3945 4.242V0.5C13.3945 0.224 13.6185 0 13.8945 0C14.1705 0 14.3945 0.224 14.3945 0.5V4.242C14.3945 4.518 14.1705 4.742 13.8945 4.742Z" fill="#FFD550"/>
<path d="M20.7171 7.01899C20.5891 7.01899 20.461 6.97 20.363 6.873C20.168 6.678 20.168 6.36103 20.363 6.16603L23.009 3.52003C23.204 3.32503 23.521 3.32503 23.716 3.52003C23.911 3.71503 23.911 4.032 23.716 4.227L21.07 6.873C20.973 6.97 20.8451 7.01899 20.7171 7.01899Z" fill="#FFD550"/>
<path d="M27.285 13.843H23.543C23.267 13.843 23.043 13.619 23.043 13.343C23.043 13.067 23.267 12.843 23.543 12.843H27.285C27.561 12.843 27.785 13.067 27.785 13.343C27.785 13.619 27.562 13.843 27.285 13.843Z" fill="#FFD550"/>
<path d="M4.242 13.843H0.5C0.224 13.843 0 13.619 0 13.343C0 13.067 0.224 12.843 0.5 12.843H4.242C4.518 12.843 4.742 13.067 4.742 13.343C4.742 13.619 4.518 13.843 4.242 13.843Z" fill="#FFD550"/>
<path d="M7.06904 7.01899C6.94104 7.01899 6.81307 6.97 6.71607 6.873L4.07008 4.227C3.87508 4.032 3.87508 3.71503 4.07008 3.52003C4.26508 3.32503 4.58205 3.32503 4.77705 3.52003L7.42304 6.16603C7.61804 6.36103 7.61804 6.678 7.42304 6.873C7.32504 6.97 7.19704 7.01899 7.06904 7.01899Z" fill="#FFD550"/>
</svg>
