<svg width="29" height="29" viewBox="0 0 29 29" fill="none" xmlns="http://www.w3.org/2000/svg">
<path d="M2.57733 15.4252L2.44531 13.9312C2.83431 13.8972 3.22631 13.8442 3.60931 13.7732L3.87933 15.2492C3.45033 15.3282 3.01233 15.3872 2.57733 15.4252ZM5.1593 14.9532L4.75433 13.5092C5.13033 13.4042 5.50532 13.2792 5.86932 13.1392L6.40729 14.5392C6.00029 14.6962 5.5803 14.8352 5.1593 14.9532ZM7.61133 14.0112L6.94531 12.6672C7.29431 12.4942 7.64029 12.3022 7.97229 12.0972L8.76129 13.3732C8.38929 13.6022 8.00233 13.8172 7.61133 14.0112ZM9.84534 12.6302L8.94128 11.4332C9.25228 11.1982 9.55634 10.9452 9.84534 10.6822L10.8563 11.7902C10.5323 12.0852 10.1923 12.3672 9.84534 12.6302ZM11.7843 10.8622L10.6763 9.8512C10.9393 9.5622 11.1923 9.2582 11.4283 8.9472L12.6243 9.85217C12.3613 10.2002 12.0783 10.5392 11.7843 10.8622ZM13.3673 8.76721L12.0923 7.97821C12.2983 7.64621 12.4903 7.30117 12.6633 6.95117L14.0073 7.61823C13.8123 8.00923 13.5983 8.39521 13.3673 8.76721ZM14.5353 6.41418L13.1353 5.87518C13.2753 5.51018 13.4003 5.13519 13.5053 4.76019L14.9493 5.16522C14.8313 5.58622 14.6923 6.00618 14.5353 6.41418ZM15.2463 3.88617L13.7713 3.61621C13.8413 3.23321 13.8943 2.84117 13.9293 2.45117L15.4233 2.58417C15.3843 3.01917 15.3243 3.45817 15.2463 3.88617Z" fill="#231F20"/>
<path d="M24.0012 24.0022C18.5102 29.4932 9.60825 29.4932 4.11825 24.0022C-1.37275 18.5112 -1.37275 9.60925 4.11825 4.11825C9.60925 -1.37275 18.5112 -1.37275 24.0012 4.11825C29.4912 9.60925 29.4912 18.5112 24.0012 24.0022Z" fill="#A792FC"/>
<path d="M26.901 14.8433L26.832 13.3443C27.042 13.3343 27.255 13.3293 27.465 13.3293L27.467 14.8293C27.28 14.8303 27.089 14.8353 26.901 14.8433Z" fill="white"/>
<path d="M14.9421 25.8013L13.4551 25.6033C13.5091 25.1983 13.5811 24.7903 13.6701 24.3913L15.1341 24.7183C15.0551 25.0753 14.9901 25.4393 14.9421 25.8013ZM15.4201 23.6553L13.9901 23.2033C14.1131 22.8133 14.2551 22.4243 14.4121 22.0463L15.7971 22.6223C15.6571 22.9593 15.5301 23.3073 15.4201 23.6553ZM16.2641 21.6263L14.9351 20.9313C15.1241 20.5693 15.3321 20.2103 15.5521 19.8663L16.8161 20.6743C16.6181 20.9823 16.4331 21.3033 16.2641 21.6263ZM17.4481 19.7753L16.2601 18.8603C16.5091 18.5373 16.7751 18.2203 17.0521 17.9193L18.1571 18.9333C17.9091 19.2033 17.6711 19.4863 17.4481 19.7753ZM18.9361 18.1543L17.9221 17.0493C18.2241 16.7723 18.5411 16.5063 18.8631 16.2573L19.7781 17.4464C19.4891 17.6684 19.2061 17.9063 18.9361 18.1543ZM20.6781 16.8133L19.8701 15.5493C20.2141 15.3293 20.5731 15.1213 20.9351 14.9323L21.6291 16.2623C21.3061 16.4313 20.9861 16.6173 20.6781 16.8133ZM22.6261 15.7963L22.0511 14.4113C22.4281 14.2543 22.8171 14.1123 23.2071 13.9893L23.6591 15.4193C23.3111 15.5303 22.9631 15.6563 22.6261 15.7963ZM24.7211 15.1343L24.3951 13.6703C24.7941 13.5813 25.2011 13.5093 25.6061 13.4553L25.8041 14.9423C25.4421 14.9893 25.0781 15.0543 24.7211 15.1343Z" fill="white"/>
<path d="M14.8301 27.4683L13.3301 27.4662C13.3301 27.2552 13.3351 27.0423 13.3451 26.8333L14.8431 26.9023C14.8341 27.0893 14.8301 27.2793 14.8301 27.4683Z" fill="white"/>
<path d="M1.26581 15.4811C1.05481 15.4801 0.841813 15.4741 0.632812 15.4641L0.705811 13.9661C0.892811 13.9751 1.08385 13.9801 1.27185 13.9811L1.26581 15.4811Z" fill="white"/>
<path d="M2.57928 15.4249L2.44727 13.931C2.83627 13.897 3.22827 13.8439 3.61127 13.7729L3.88129 15.249C3.45229 15.328 3.01428 15.3869 2.57928 15.4249ZM5.16125 14.9529L4.75629 13.509C5.13229 13.404 5.50728 13.279 5.87128 13.139L6.40924 14.5389C6.00224 14.6959 5.58225 14.8349 5.16125 14.9529ZM7.61328 14.0109L6.94727 12.6669C7.29627 12.4939 7.64224 12.3019 7.97424 12.0969L8.76324 13.3729C8.39124 13.6019 8.00428 13.8169 7.61328 14.0109ZM9.84729 12.6299L8.94324 11.433C9.25424 11.198 9.55829 10.9449 9.84729 10.6819L10.8583 11.79C10.5343 12.085 10.1943 12.3669 9.84729 12.6299ZM11.7863 10.8619L10.6783 9.85095C10.9413 9.56195 11.1942 9.25796 11.4302 8.94696L12.6263 9.85193C12.3633 10.1999 12.0803 10.5389 11.7863 10.8619ZM13.3693 8.76697L12.0942 7.97797C12.3002 7.64597 12.4923 7.30093 12.6653 6.95093L14.0093 7.61798C13.8143 8.00898 13.6003 8.39497 13.3693 8.76697ZM14.5373 6.41394L13.1373 5.87494C13.2773 5.50994 13.4023 5.13495 13.5073 4.75995L14.9513 5.16498C14.8333 5.58598 14.6943 6.00594 14.5373 6.41394ZM15.2483 3.88593L13.7733 3.61597C13.8433 3.23297 13.8963 2.84093 13.9313 2.45093L15.4253 2.58392C15.3863 3.01892 15.3263 3.45793 15.2483 3.88593Z" fill="white"/>
<path d="M13.9799 1.27209C13.9789 1.08509 13.9738 0.894055 13.9648 0.706055L15.4628 0.633057C15.4728 0.844057 15.4789 1.05605 15.4799 1.26605L13.9799 1.27209Z" fill="white"/>
<g opacity="0.15">
<path d="M24.0016 4.11921C21.2136 1.33121 17.5466 -0.039822 13.8926 0.00317796V28.1182C17.5466 28.1612 21.2136 26.7902 24.0016 24.0022C29.4916 18.5112 29.4916 9.60921 24.0016 4.11921Z" fill="#231F20"/>
</g>
</svg>
