<svg width="25" height="25" viewBox="0 0 25 25" fill="none" xmlns="http://www.w3.org/2000/svg">
<path d="M23.9886 0.841591C23.9426 0.509591 23.6816 0.249614 23.3496 0.202614C23.2276 0.185614 20.3146 -0.212414 16.5966 0.155586C11.6166 0.647586 7.58861 2.3046 4.94661 4.9466C2.30461 7.5886 0.647593 11.6176 0.155593 16.5966C-0.212407 20.3156 0.18559 23.2276 0.20259 23.3496C0.24959 23.6816 0.509628 23.9416 0.841628 23.9886C0.925628 24.0006 2.32158 24.1906 4.39058 24.1906C5.33758 24.1906 6.42662 24.1506 7.59462 24.0356C12.5746 23.5436 16.6026 21.8866 19.2446 19.2446C21.8866 16.6026 23.5436 12.5736 24.0356 7.59461C24.4036 3.87661 24.0056 0.963591 23.9886 0.841591Z" fill="#8471F4"/>
<path d="M0.754592 12.9924C0.481592 14.1274 0.281593 15.3314 0.155593 16.5974C-0.212407 20.3164 0.18559 23.2284 0.20259 23.3504C0.24959 23.6824 0.509567 23.9424 0.841567 23.9894C0.925567 24.0014 2.32158 24.1914 4.39058 24.1914C5.33758 24.1914 6.42656 24.1514 7.59456 24.0364C8.86056 23.9114 10.0636 23.7104 11.1996 23.4384L0.754592 12.9924Z" fill="#A792FC"/>
<path d="M23.3499 0.203567C23.2279 0.186567 20.3149 -0.21143 16.5969 0.15657C15.2589 0.28857 13.9908 0.505566 12.7988 0.802566L23.3898 11.3936C23.6868 10.2016 23.9038 8.93357 24.0358 7.59557C24.4038 3.87657 24.0058 0.964574 23.9888 0.842574C23.9418 0.510574 23.6819 0.249567 23.3499 0.203567Z" fill="#A792FC"/>
<path d="M20.7228 3.46853C20.4298 3.17553 19.9548 3.17553 19.6618 3.46853L16.1558 6.97451L15.1718 5.99053C14.8788 5.69753 14.4038 5.69753 14.1108 5.99053C13.8178 6.28353 13.8178 6.75854 14.1108 7.05154L15.0948 8.03552L13.4928 9.63851L12.5088 8.65453C12.2158 8.36153 11.7408 8.36153 11.4478 8.65453C11.1548 8.94753 11.1548 9.42251 11.4478 9.71551L12.4318 10.6995L10.8288 12.3015L9.84481 11.3175C9.55181 11.0245 9.07678 11.0245 8.78378 11.3175C8.49078 11.6105 8.49078 12.0855 8.78378 12.3785L9.76778 13.3625L8.16579 14.9645L7.18179 13.9805C6.88879 13.6875 6.41381 13.6875 6.12081 13.9805C5.82781 14.2735 5.82781 14.7485 6.12081 15.0415L7.10482 16.0255L3.4678 19.6625C3.1748 19.9555 3.1748 20.4305 3.4678 20.7235C3.6138 20.8695 3.80583 20.9435 3.99783 20.9435C4.18983 20.9435 4.38179 20.8705 4.52779 20.7235L8.16482 17.0865L9.14883 18.0705C9.29483 18.2165 9.4878 18.2905 9.6788 18.2905C9.8698 18.2905 10.0628 18.2175 10.2088 18.0705C10.5018 17.7775 10.5018 17.3025 10.2088 17.0095L9.22482 16.0255L10.8268 14.4235L11.8108 15.4075C11.9568 15.5535 12.1488 15.6275 12.3408 15.6275C12.5328 15.6275 12.7248 15.5545 12.8708 15.4075C13.1638 15.1145 13.1638 14.6395 12.8708 14.3465L11.8868 13.3625L13.4888 11.7595L14.4728 12.7435C14.6188 12.8895 14.8108 12.9635 15.0028 12.9635C15.1948 12.9635 15.3868 12.8905 15.5328 12.7435C15.8258 12.4505 15.8258 11.9755 15.5328 11.6825L14.5488 10.6985L16.1518 9.09551L17.1358 10.0795C17.2818 10.2255 17.4748 10.2995 17.6658 10.2995C17.8568 10.2995 18.0498 10.2265 18.1958 10.0795C18.4888 9.78652 18.4888 9.31152 18.1958 9.01852L17.2118 8.03451L20.7178 4.52752C21.0158 4.23652 21.0158 3.76153 20.7228 3.46853Z" fill="white"/>
</svg>
