<svg width="30" height="30" viewBox="0 0 30 30" fill="none" xmlns="http://www.w3.org/2000/svg">
<path d="M28.821 0H0.75C0.336 0 0 0.336 0 0.75V13.999C0 14.413 0.336 14.749 0.75 14.749H6.14099C6.55499 14.749 6.89099 14.413 6.89099 13.999H8.12097V13.995V11.257C8.12097 10.843 8.45697 10.507 8.87097 10.507H20.701C21.115 10.507 21.451 10.843 21.451 11.257V13.995V13.999H22.599C22.599 14.413 22.935 14.749 23.349 14.749H28.822C29.236 14.749 29.572 14.413 29.572 13.999V0.75C29.571 0.336 29.236 0 28.821 0Z" fill="#FFD550"/>
<path d="M5.20441 23.304C6.26841 23.304 7.13342 22.438 7.13342 21.375C7.13342 20.311 6.26841 19.446 5.20441 19.446C4.14041 19.446 3.27539 20.311 3.27539 21.375C3.27539 22.439 4.14041 23.304 5.20441 23.304Z" fill="#A792FC"/>
<path d="M6.48522 23.631C6.23622 23.561 5.96922 23.623 5.77722 23.797C5.62022 23.939 5.41622 24.018 5.20422 24.018C4.99222 24.018 4.78822 23.94 4.63122 23.797C4.43922 23.623 4.17221 23.561 3.92321 23.631C2.27821 24.097 1.27324 25.718 1.58624 27.402C1.82424 28.685 2.94524 29.617 4.25024 29.617H6.15924C7.46423 29.617 8.58424 28.686 8.82324 27.402C9.13524 25.718 8.13022 24.097 6.48522 23.631Z" fill="#A792FC"/>
<path d="M14.7864 23.304C15.8518 23.304 16.7154 22.4404 16.7154 21.375C16.7154 20.3097 15.8518 19.446 14.7864 19.446C13.7211 19.446 12.8574 20.3097 12.8574 21.375C12.8574 22.4404 13.7211 23.304 14.7864 23.304Z" fill="#A792FC"/>
<path d="M16.0673 23.631C15.8183 23.561 15.5513 23.623 15.3593 23.796C15.2023 23.939 14.9983 24.017 14.7863 24.017C14.5743 24.017 14.3703 23.939 14.2133 23.796C14.0213 23.623 13.7543 23.56 13.5053 23.631C11.8603 24.097 10.8553 25.718 11.1683 27.402C11.4063 28.685 12.5263 29.617 13.8323 29.617H15.7413C17.0463 29.617 18.1663 28.686 18.4053 27.402C18.7173 25.718 17.7123 24.097 16.0673 23.631Z" fill="#A792FC"/>
<path d="M24.3665 23.304C25.4319 23.304 26.2955 22.4404 26.2955 21.375C26.2955 20.3097 25.4319 19.446 24.3665 19.446C23.3012 19.446 22.4375 20.3097 22.4375 21.375C22.4375 22.4404 23.3012 23.304 24.3665 23.304Z" fill="#A792FC"/>
<path d="M25.6474 23.631C25.3984 23.561 25.1314 23.623 24.9394 23.797C24.7824 23.939 24.5784 24.018 24.3664 24.018C24.1544 24.018 23.9504 23.94 23.7934 23.797C23.6014 23.623 23.3344 23.561 23.0854 23.631C21.4404 24.097 20.4353 25.718 20.7483 27.402C20.9863 28.685 22.1073 29.617 23.4123 29.617H25.3213C26.6263 29.617 27.7463 28.686 27.9853 27.402C28.2973 25.718 27.2924 24.097 25.6474 23.631Z" fill="#A792FC"/>
<path d="M14.7865 3.21094C13.5835 3.21094 12.6055 4.18894 12.6055 5.39194C12.6055 6.59394 13.5835 7.57294 14.7865 7.57294C15.9885 7.57294 16.9675 6.59494 16.9675 5.39194C16.9675 4.18894 15.9885 3.21094 14.7865 3.21094Z" fill="#FFFBE2"/>
<path d="M20.7011 10.5071H8.87109C8.45709 10.5071 8.12109 10.8431 8.12109 11.2571V13.9951C8.12109 14.4091 8.45709 14.7451 8.87109 14.7451H9.32709V17.6491C9.32709 18.0631 9.66309 18.3991 10.0771 18.3991H19.4961C19.9101 18.3991 20.2461 18.0631 20.2461 17.6491V14.7451H20.7021C21.1161 14.7451 21.4521 14.4091 21.4521 13.9951V11.2571C21.4511 10.8431 21.1151 10.5071 20.7011 10.5071Z" fill="#8471F4"/>
<path d="M18.9542 10.507C18.6082 9.19804 17.6062 8.16902 16.2952 7.79702C16.0462 7.72702 15.7793 7.78904 15.5873 7.96304C15.3673 8.16204 15.0822 8.27203 14.7842 8.27203C14.4872 8.27203 14.2013 8.16204 13.9813 7.96304C13.7893 7.79004 13.5223 7.72702 13.2733 7.79702C11.9673 8.16702 10.9612 9.19904 10.6152 10.507H18.9542Z" fill="#FFFBE2"/>
</svg>
