<svg width="26" height="30" viewBox="0 0 26 30" fill="none" xmlns="http://www.w3.org/2000/svg">
<path d="M12.7988 2.51001C12.5228 2.51001 12.2988 2.28601 12.2988 2.01001V0.5C12.2988 0.224 12.5228 0 12.7988 0C13.0748 0 13.2988 0.224 13.2988 0.5V2.01001C13.2988 2.28601 13.0748 2.51001 12.7988 2.51001Z" fill="#8471F4"/>
<path d="M11.2988 29.2471C10.1958 29.2471 9.29883 28.3501 9.29883 27.2471V25.941C9.29883 25.665 9.52283 25.441 9.79883 25.441C10.0748 25.441 10.2988 25.665 10.2988 25.941V27.2471C10.2988 27.7981 10.7468 28.2471 11.2988 28.2471C11.8498 28.2471 12.2988 27.7981 12.2988 27.2471V13.4121C12.2988 13.1361 12.5228 12.9121 12.7988 12.9121C13.0748 12.9121 13.2988 13.1361 13.2988 13.4121V27.2471C13.2988 28.3501 12.4018 29.2471 11.2988 29.2471Z" fill="#8471F4"/>
<path d="M21.7811 5.19189C19.3711 2.81789 16.1811 1.51001 12.7981 1.51001C9.41506 1.51001 6.22406 2.81789 3.81506 5.19189C1.40806 7.56389 0.0530542 10.729 5.41744e-05 14.105C-0.00394583 14.38 0.214061 14.6059 0.488061 14.6129C0.760061 14.6229 0.991054 14.4029 1.00005 14.1289C1.04405 12.7309 2.17405 11.637 3.57305 11.637C4.99305 11.637 6.14806 12.7919 6.14806 14.2119C6.14806 14.4879 6.37206 14.7119 6.64806 14.7119C6.92406 14.7119 7.14806 14.4879 7.14806 14.2119C7.14806 12.7919 8.30305 11.637 9.72305 11.637C11.143 11.637 12.2981 12.7919 12.2981 14.2119C12.2981 14.4879 12.5221 14.7119 12.7981 14.7119C13.0741 14.7119 13.2981 14.4879 13.2981 14.2119C13.2981 12.7919 14.4531 11.637 15.8731 11.637C17.2931 11.637 18.4481 12.7919 18.4481 14.2119C18.4481 14.4879 18.6721 14.7119 18.9481 14.7119C19.2241 14.7119 19.4481 14.4879 19.4481 14.2119C19.4481 12.7919 20.6031 11.637 22.0231 11.637C23.4221 11.637 24.5521 12.7319 24.5961 14.1289C24.6041 14.3999 24.8261 14.6129 25.0951 14.6129C25.0991 14.6129 25.103 14.6129 25.107 14.6129C25.382 14.6059 25.6001 14.38 25.5951 14.105C25.5431 10.73 24.1881 7.56389 21.7811 5.19189Z" fill="#FFD550"/>
<path d="M21.7811 5.19189C19.3711 2.81789 16.1811 1.51001 12.7981 1.51001C9.41506 1.51001 6.22406 2.81789 3.81506 5.19189C1.40806 7.56389 0.0530542 10.729 5.41744e-05 14.105C-0.00394583 14.38 0.214061 14.6059 0.488061 14.6129C0.760061 14.6229 0.991054 14.4029 1.00005 14.1289C1.04405 12.7309 2.17405 11.637 3.57305 11.637C4.99305 11.637 6.14806 12.7919 6.14806 14.2119C6.14806 14.4879 6.37206 14.7119 6.64806 14.7119C6.92406 14.7119 7.14806 14.4879 7.14806 14.2119C7.14806 12.7919 8.30305 11.637 9.72305 11.637C11.143 11.637 12.2981 12.7919 12.2981 14.2119C12.2981 14.4879 12.5221 14.7119 12.7981 14.7119C13.0741 14.7119 13.2981 14.4879 13.2981 14.2119C13.2981 12.7919 14.4531 11.637 15.8731 11.637C17.2931 11.637 18.4481 12.7919 18.4481 14.2119C18.4481 14.4879 18.6721 14.7119 18.9481 14.7119C19.2241 14.7119 19.4481 14.4879 19.4481 14.2119C19.4481 12.7919 20.6031 11.637 22.0231 11.637C23.4221 11.637 24.5521 12.7319 24.5961 14.1289C24.6041 14.3999 24.8261 14.6129 25.0951 14.6129C25.0991 14.6129 25.103 14.6129 25.107 14.6129C25.382 14.6059 25.6001 14.38 25.5951 14.105C25.5431 10.73 24.1881 7.56389 21.7811 5.19189Z" fill="#FFD550"/>
<path d="M12.3481 14.2119C12.3481 12.7919 11.193 11.637 9.77304 11.637C9.76504 11.637 9.75705 11.637 9.74805 11.637C11.157 11.65 12.298 12.7999 12.298 14.2119C12.298 14.4879 12.522 14.7119 12.798 14.7119C12.806 14.7119 12.814 14.71 12.823 14.709C12.559 14.697 12.3481 14.4799 12.3481 14.2119Z" fill="#8471F4"/>
<path d="M0.0470911 14.212C0.0470911 14.063 0.0340967 13.9181 0.00909675 13.7761C0.00509675 13.8851 0.00109406 13.9951 9.40594e-05 14.1051C-0.00190594 14.2071 0.0281041 14.3021 0.0791041 14.3821C0.0591041 14.3291 0.0470911 14.273 0.0470911 14.212Z" fill="#8471F4"/>
<path d="M6.19763 14.2119C6.19763 12.7919 5.04265 11.637 3.62265 11.637C3.61465 11.637 3.60566 11.637 3.59766 11.637C5.00666 11.651 6.14764 12.7999 6.14764 14.2119C6.14764 14.4879 6.37164 14.7119 6.64764 14.7119C6.65564 14.7119 6.66364 14.71 6.67264 14.709C6.40864 14.697 6.19763 14.4799 6.19763 14.2119Z" fill="#8471F4"/>
<path d="M19.0074 14.6139C19.0034 14.6139 18.9994 14.6139 18.9954 14.6139C18.7264 14.6139 18.5044 14.4 18.4964 14.13C18.4524 12.732 17.3224 11.6379 15.9234 11.6379C15.9154 11.6379 15.9064 11.6379 15.8984 11.6379C17.3074 11.6519 18.4484 12.8009 18.4484 14.2129C18.4484 14.4889 18.6724 14.7129 18.9484 14.7129C19.1644 14.7129 19.3474 14.5749 19.4164 14.3829C19.3294 14.5179 19.1794 14.6089 19.0074 14.6139Z" fill="#8471F4"/>
<path d="M21.781 5.19189C19.371 2.81789 16.181 1.51001 12.798 1.51001C11.757 1.51001 10.735 1.634 9.74805 1.875C11.97 2.416 14.013 3.54799 15.681 5.19299C18.01 7.48799 19.353 10.525 19.486 13.778C19.693 12.565 20.752 11.6379 22.024 11.6379C23.423 11.6379 24.553 12.733 24.597 14.13C24.605 14.401 24.827 14.6139 25.096 14.6139C25.1 14.6139 25.104 14.6139 25.108 14.6139C25.383 14.6069 25.601 14.381 25.596 14.106C25.543 10.73 24.188 7.56389 21.781 5.19189Z" fill="#8471F4"/>
</svg>
