<svg width="27" height="27" viewBox="0 0 27 27" fill="none" xmlns="http://www.w3.org/2000/svg">
<path d="M1.43983 18.1399C-0.494172 20.1229 -0.480166 23.2978 1.48383 25.2618C3.44783 27.2258 6.62284 27.2398 8.60584 25.3058L1.43983 18.1399Z" fill="#FFD550"/>
<path d="M26.7483 12.276L26.2183 8.45001L22.4943 8.02301L22.2803 4.39099L18.3743 3.90198L17.9163 0.14801L14.4713 0L3.4043 16.157L10.5903 23.343L26.7483 12.276Z" fill="#FFD550"/>
<path d="M20.5058 11.4309L19.5168 10.304L12.3978 16.5479L10.2008 14.3499L16.4448 7.23193L15.3168 6.24292L9.13782 13.2869L7.09381 11.244L6.03284 12.304L8.14581 14.4169L5.2168 17.757L6.34381 18.7469L9.2088 15.4799L11.2678 17.5389L8.00183 20.4039L8.99084 21.5319L12.3308 18.6019L14.2218 20.4929L15.2828 19.4329L13.4608 17.6109L20.5058 11.4309Z" fill="#FFD550"/>
<g opacity="0.15">
<path d="M1.42578 25.2018C1.44578 25.2218 1.46376 25.2429 1.48376 25.2629C3.44776 27.2269 6.62277 27.2409 8.60577 25.3069L4.9408 21.6418L1.42578 25.2018Z" fill="#231F20"/>
<path d="M22.4943 8.02295L22.2803 4.39093L22.0153 4.35693L6.9043 19.6569L10.5903 23.343L26.7483 12.2759L26.2183 8.44995L22.4943 8.02295Z" fill="#231F20"/>
</g>
</svg>
