<svg width="30" height="30" viewBox="0 0 30 30" fill="none" xmlns="http://www.w3.org/2000/svg">
<path d="M25.4288 4.36275C31.2458 10.1797 31.2458 19.6117 25.4288 25.4287C19.6118 31.2457 10.1797 31.2457 4.36275 25.4287C-1.45425 19.6117 -1.45425 10.1797 4.36275 4.36275C10.1797 -1.45425 19.6118 -1.45425 25.4288 4.36275Z" fill="white"/>
<path d="M21.7855 28.1066C21.8255 28.0856 21.8645 28.0646 21.9035 28.0436C21.9665 28.0106 22.0285 27.9766 22.0915 27.9416C22.1325 27.9186 22.1735 27.8956 22.2145 27.8726C22.2755 27.8386 22.3355 27.8036 22.3965 27.7686C22.4375 27.7446 22.4775 27.7216 22.5175 27.6966C22.5785 27.6596 22.6395 27.6226 22.7005 27.5856C22.7385 27.5616 22.7775 27.5386 22.8155 27.5146C22.8815 27.4726 22.9475 27.4306 23.0135 27.3876C23.0455 27.3666 23.0775 27.3466 23.1085 27.3256C23.3025 27.1966 23.4955 27.0626 23.6845 26.9236C23.7155 26.9006 23.7455 26.8776 23.7765 26.8546C23.8405 26.8076 23.9035 26.7596 23.9675 26.7106C24.0035 26.6826 24.0395 26.6546 24.0755 26.6266C24.1325 26.5816 24.1905 26.5366 24.2475 26.4906C24.2845 26.4606 24.3225 26.4296 24.3595 26.3996C24.4145 26.3536 24.4705 26.3076 24.5245 26.2616C24.5615 26.2306 24.5985 26.1986 24.6345 26.1676C24.6905 26.1196 24.7455 26.0706 24.8005 26.0216C24.8355 25.9906 24.8695 25.9606 24.9035 25.9296C24.9635 25.8756 25.0225 25.8196 25.0815 25.7646C25.1105 25.7376 25.1395 25.7106 25.1675 25.6836C25.2545 25.6006 25.3415 25.5166 25.4265 25.4306C25.5115 25.3466 25.5945 25.2606 25.6765 25.1746C25.6915 25.1586 25.7065 25.1426 25.7215 25.1266C25.8185 25.0236 25.9145 24.9196 26.0085 24.8146C26.0585 24.7586 26.1085 24.7026 26.1575 24.6456C26.1875 24.6116 26.2165 24.5776 26.2455 24.5426C26.3215 24.4536 26.3965 24.3636 26.4705 24.2726C26.4705 24.2716 26.4715 24.2716 26.4725 24.2706C26.5385 24.1896 26.6035 24.1076 26.6675 24.0256C26.6755 24.0156 26.6835 24.0056 26.6905 23.9966C26.9775 23.6256 27.2435 23.2436 27.4915 22.8526C27.5145 22.8166 27.5375 22.7796 27.5605 22.7426C27.7415 22.4506 27.9115 22.1536 28.0705 21.8526C28.0785 21.8386 28.0855 21.8236 28.0935 21.8086C28.8145 20.4316 29.3055 18.9666 29.5665 17.4686C29.5705 17.4476 29.5735 17.4266 29.5775 17.4056C29.5935 17.3116 29.6085 17.2186 29.6225 17.1246C29.6285 17.0856 29.6345 17.0466 29.6405 17.0076C29.6545 16.9116 29.6665 16.8146 29.6785 16.7176C29.6785 16.7176 29.6785 16.7166 29.6785 16.7156C29.6795 16.7046 29.6815 16.6936 29.6825 16.6826C29.6825 16.6806 29.6825 16.6796 29.6835 16.6776C29.8245 15.4956 29.8255 14.2996 29.6835 13.1176C29.6825 13.1076 29.6805 13.0976 29.6795 13.0876C29.6675 12.9876 29.6545 12.8876 29.6405 12.7886C29.6375 12.7656 29.6335 12.7416 29.6295 12.7186C29.2015 9.80763 27.9095 6.99863 25.7555 4.70563C25.7295 4.67763 25.7035 4.64958 25.6765 4.62158C25.5945 4.53558 25.5115 4.4496 25.4275 4.3656C22.0645 1.0026 17.4935 -0.41638 13.1105 0.10962C12.9925 0.12362 12.8735 0.139618 12.7555 0.156618C12.4015 0.207618 12.0485 0.271634 11.6975 0.348634C11.4635 0.399634 11.2305 0.456617 10.9995 0.518617C10.7675 0.581617 10.5375 0.649634 10.3085 0.723634C9.9655 0.834634 9.62451 0.957606 9.28851 1.09461C8.95251 1.23061 8.6205 1.37963 8.2925 1.54163C8.1835 1.59563 8.07452 1.65058 7.96652 1.70758C6.66952 2.38958 5.4515 3.27564 4.3605 4.36664C4.2755 4.45164 4.1925 4.53662 4.1105 4.62262C4.1075 4.62562 4.10352 4.62961 4.10052 4.63361C3.93852 4.80361 3.78151 4.97659 3.62951 5.15259C3.59951 5.18659 3.5705 5.22064 3.5415 5.25464C3.4915 5.31364 3.44252 5.37258 3.39352 5.43158C3.36752 5.46358 3.34051 5.49461 3.31551 5.52661C2.86551 6.08061 2.46251 6.65961 2.10351 7.25861C2.08551 7.28861 2.06752 7.31861 2.04952 7.34961C1.99152 7.44761 1.93451 7.54663 1.87951 7.64563C1.82351 7.74463 1.77052 7.84562 1.71752 7.94562C1.69952 7.97962 1.68151 8.01462 1.66351 8.04962C1.39951 8.55962 1.1665 9.08161 0.964502 9.61261C0.952502 9.64561 0.940522 9.67863 0.928522 9.71063C0.901522 9.78363 0.874512 9.85559 0.849512 9.92859C0.846512 9.93559 0.844516 9.94362 0.841516 9.95062C0.806516 10.0496 0.772503 10.1486 0.740503 10.2486C0.726503 10.2906 0.713518 10.3326 0.699518 10.3756C0.678518 10.4426 0.657506 10.5096 0.637506 10.5766C0.625506 10.6176 0.612519 10.6586 0.600519 10.6986C0.578519 10.7736 0.557523 10.8486 0.536523 10.9236C0.527523 10.9556 0.518515 10.9886 0.509515 11.0206C0.480515 11.1276 0.453514 11.2336 0.427514 11.3406C0.421514 11.3666 0.415509 11.3916 0.409509 11.4176V11.4186C0.389509 11.5006 0.370502 11.5836 0.352502 11.6656C0.343502 11.7056 0.335501 11.7456 0.326501 11.7866C0.311501 11.8556 0.297502 11.9246 0.283502 11.9936C0.274502 12.0376 0.266508 12.0806 0.258508 12.1246C0.245508 12.1916 0.233497 12.2586 0.222497 12.3256C0.214497 12.3686 0.207525 12.4116 0.200525 12.4556C0.188525 12.5266 0.177505 12.5976 0.167505 12.6696C0.161505 12.7086 0.155506 12.7476 0.150506 12.7866C0.136506 12.8836 0.123505 12.9816 0.111505 13.0796V13.0806C0.110505 13.0926 0.1085 13.1046 0.1065 13.1166C-0.0355 14.2986 -0.0355 15.4946 0.1065 16.6766C0.1065 16.6786 0.106507 16.6796 0.107507 16.6816C0.108507 16.6926 0.110505 16.7036 0.111505 16.7146C0.111505 16.7156 0.111505 16.7156 0.111505 16.7166C0.123505 16.8136 0.136499 16.9096 0.149499 17.0066C0.154499 17.0386 0.159514 17.0716 0.164514 17.1036C0.176514 17.1816 0.188525 17.2586 0.200525 17.3366C0.202525 17.3466 0.203499 17.3556 0.205499 17.3656C0.224499 17.4796 0.245504 17.5936 0.266504 17.7076C0.272504 17.7386 0.278509 17.7696 0.284509 17.7996C0.325509 18.0056 0.370519 18.2106 0.419519 18.4146C0.422519 18.4276 0.425521 18.4396 0.428521 18.4526C0.486521 18.6916 0.551522 18.9286 0.622522 19.1646C0.627522 19.1826 0.633513 19.1996 0.638513 19.2176C0.658513 19.2846 0.679525 19.3506 0.700525 19.4176C0.704525 19.4316 0.709502 19.4456 0.714502 19.4606C0.827502 19.8126 0.9535 20.1616 1.0935 20.5066C1.1005 20.5226 1.10652 20.5376 1.11352 20.5536C1.24352 20.8696 1.38452 21.1826 1.53652 21.4916C1.54552 21.5096 1.5545 21.5276 1.5635 21.5456C1.5965 21.6116 1.63051 21.6786 1.66451 21.7446C1.68251 21.7796 1.70051 21.8146 1.71951 21.8496C1.87851 22.1506 2.04852 22.4476 2.22952 22.7396C2.25252 22.7766 2.27552 22.8126 2.29852 22.8496C2.54552 23.2406 2.81251 23.6226 3.09951 23.9936C3.10751 24.0036 3.11552 24.0136 3.12252 24.0226C3.18652 24.1046 3.2515 24.1866 3.3175 24.2676C3.3175 24.2686 3.31851 24.2686 3.31951 24.2696C3.39351 24.3606 3.46852 24.4506 3.54452 24.5396C3.57352 24.5736 3.6035 24.6086 3.6325 24.6426C3.6815 24.6996 3.73152 24.7556 3.78152 24.8116C3.87552 24.9166 3.97151 25.0206 4.06851 25.1236C4.08351 25.1396 4.09852 25.1556 4.11352 25.1716C4.19552 25.2576 4.27852 25.3436 4.36352 25.4276C4.46752 25.5316 4.57252 25.6336 4.67852 25.7336C4.71152 25.7646 4.7455 25.7956 4.7785 25.8266C4.8535 25.8956 4.92851 25.9646 5.00451 26.0316C5.04251 26.0656 5.08052 26.0986 5.11852 26.1326C5.19552 26.1996 5.27251 26.2646 5.34951 26.3296C5.38351 26.3586 5.41851 26.3876 5.45251 26.4156C5.67451 26.5986 5.90152 26.7736 6.13152 26.9416C6.16752 26.9676 6.2045 26.9936 6.2405 27.0196C6.3215 27.0776 6.40252 27.1346 6.48452 27.1906C6.52552 27.2186 6.56651 27.2466 6.60751 27.2746C6.68951 27.3296 6.77252 27.3836 6.85552 27.4366C6.89252 27.4606 6.92952 27.4846 6.96752 27.5086C7.29552 27.7156 7.6295 27.9086 7.9685 28.0866C8.0765 28.1436 8.18552 28.1986 8.29452 28.2526C8.40352 28.3066 8.5135 28.3596 8.6235 28.4106C8.8125 28.4976 9.00251 28.5806 9.19351 28.6596C9.33751 28.7196 9.4825 28.7776 9.6285 28.8326C10.0805 29.0036 10.5385 29.1506 11.0015 29.2756C11.1555 29.3176 11.3115 29.3556 11.4665 29.3926C11.5055 29.4016 11.5445 29.4106 11.5825 29.4196C11.7385 29.4546 11.8945 29.4886 12.0505 29.5186C12.1675 29.5416 12.2855 29.5626 12.4035 29.5826C12.5605 29.6086 12.7185 29.6326 12.8755 29.6536C12.9145 29.6586 12.9545 29.6646 12.9935 29.6696C13.3095 29.7096 13.6255 29.7406 13.9425 29.7606C13.9825 29.7636 14.0215 29.7656 14.0615 29.7676C14.3785 29.7856 14.6965 29.7926 15.0145 29.7906C15.0545 29.7906 15.0935 29.7896 15.1335 29.7886C15.4515 29.7836 15.7685 29.7686 16.0855 29.7436C16.1245 29.7406 16.1645 29.7376 16.2035 29.7336C16.3615 29.7196 16.5205 29.7046 16.6785 29.6856C16.7965 29.6716 16.9155 29.6556 17.0335 29.6386C17.1915 29.6156 17.3485 29.5896 17.5055 29.5616C17.5445 29.5546 17.5835 29.5476 17.6225 29.5406C17.7795 29.5116 17.9365 29.4806 18.0925 29.4466C18.3265 29.3956 18.5595 29.3386 18.7905 29.2756C19.1765 29.1716 19.5585 29.0506 19.9365 28.9146C19.9745 28.9006 20.0125 28.8876 20.0495 28.8736C20.4265 28.7346 20.8005 28.5806 21.1675 28.4106C21.2715 28.3626 21.3745 28.3126 21.4775 28.2626C21.5115 28.2456 21.5455 28.2286 21.5795 28.2116C21.6485 28.1776 21.7175 28.1426 21.7855 28.1066ZM1.79952 14.8956C1.79952 14.2946 1.84052 13.7006 1.91952 13.1156H27.8715C27.9505 13.7006 27.9915 14.2946 27.9915 14.8956C27.9915 15.4966 27.9505 16.0906 27.8715 16.6756H1.91952C1.84052 16.0906 1.79952 15.4966 1.79952 14.8956Z" fill="#68B8BC"/>
<g opacity="0.1">
<path d="M29.7853 14.4858C29.7843 14.4458 29.7823 14.4049 29.7813 14.3649C29.7773 14.2669 29.7733 14.1699 29.7683 14.0729C29.7653 14.0269 29.7633 13.9819 29.7603 13.9359C29.7543 13.8389 29.7473 13.7418 29.7383 13.6448C29.7353 13.6038 29.7323 13.5638 29.7283 13.5228C29.7153 13.3878 29.7023 13.2519 29.6853 13.1169C29.6723 13.0069 29.6573 12.8968 29.6423 12.7878C29.6143 12.5878 29.5803 12.3889 29.5443 12.1899C29.5423 12.1809 29.5413 12.1718 29.5393 12.1628C29.4733 11.8068 29.3943 11.4529 29.3023 11.1019C29.3013 11.0979 29.3003 11.0938 29.2993 11.0898C29.2533 10.9148 29.2043 10.7398 29.1513 10.5668C29.1493 10.5608 29.1483 10.5559 29.1463 10.5499C29.0413 10.2029 28.9223 9.85984 28.7913 9.51984C28.7873 9.51084 28.7843 9.50088 28.7803 9.49188C28.6493 9.15588 28.5063 8.82287 28.3503 8.49487C28.3453 8.48387 28.3403 8.47383 28.3353 8.46283C28.1783 8.13583 28.0093 7.81385 27.8273 7.49585C27.8213 7.48585 27.8153 7.47588 27.8103 7.46588C27.6273 7.14788 27.4313 6.83487 27.2223 6.52887C27.2163 6.52087 27.2113 6.51288 27.2063 6.50488C26.9953 6.19588 26.7713 5.89286 26.5343 5.59686C26.5303 5.59186 26.5273 5.58782 26.5233 5.58282C26.2823 5.28282 26.0283 4.98983 25.7603 4.70483L25.7593 4.70386C25.7333 4.67586 25.7073 4.64885 25.6813 4.62085C25.5993 4.53485 25.5163 4.44887 25.4323 4.36487C25.3333 4.26587 25.2343 4.16983 25.1333 4.07483C25.1003 4.04383 25.0673 4.01385 25.0343 3.98285C24.9663 3.91885 24.8973 3.85588 24.8273 3.79388C24.7883 3.75888 24.7483 3.72388 24.7093 3.68988C24.6443 3.63388 24.5803 3.57685 24.5143 3.52185C24.4723 3.48685 24.4313 3.45187 24.3893 3.41687C24.3243 3.36287 24.2593 3.30987 24.1933 3.25787C24.1513 3.22487 24.1093 3.19084 24.0673 3.15784C23.9983 3.10384 23.9283 3.05086 23.8583 2.99786C23.8193 2.96886 23.7813 2.93983 23.7423 2.91083C23.6573 2.84783 23.5713 2.78683 23.4853 2.72583C23.4613 2.70883 23.4373 2.69083 23.4133 2.67383C23.3033 2.59683 23.1923 2.52188 23.0803 2.44788C23.0503 2.42788 23.0193 2.40885 22.9893 2.38885C22.9073 2.33585 22.8243 2.28283 22.7413 2.23083C22.6993 2.20483 22.6573 2.17987 22.6153 2.15387C22.5423 2.10987 22.4703 2.06586 22.3973 2.02386C22.3513 1.99686 22.3063 1.97082 22.2603 1.94482C22.1893 1.90482 22.1183 1.86487 22.0463 1.82587C22.0003 1.80087 21.9533 1.77488 21.9073 1.74988C21.8343 1.71088 21.7603 1.67283 21.6863 1.63483C21.6423 1.61183 21.5973 1.58883 21.5533 1.56683C21.4713 1.52583 21.3873 1.48586 21.3043 1.44586C21.2683 1.42886 21.2323 1.41086 21.1963 1.39386C21.0773 1.33786 20.9573 1.28387 20.8363 1.23187C20.8193 1.22487 20.8023 1.21788 20.7853 1.21088C20.6813 1.16588 20.5773 1.12287 20.4733 1.08087C20.4313 1.06387 20.3883 1.04788 20.3463 1.03088C20.2663 0.999884 20.1863 0.967843 20.1053 0.938843C20.0573 0.920843 20.0093 0.903841 19.9613 0.886841C19.8853 0.859841 19.8093 0.832824 19.7323 0.806824C19.6833 0.789824 19.6333 0.772836 19.5843 0.756836C19.5073 0.731836 19.4303 0.706861 19.3533 0.682861C19.3053 0.667861 19.2563 0.652878 19.2083 0.637878C19.1263 0.612878 19.0433 0.589857 18.9613 0.565857C18.9183 0.553857 18.8753 0.54087 18.8323 0.52887C18.7243 0.49987 18.6163 0.471824 18.5073 0.444824C18.4893 0.440824 18.4723 0.435847 18.4543 0.430847C18.3283 0.399847 18.2013 0.370872 18.0743 0.343872C18.0363 0.335872 17.9983 0.327862 17.9603 0.320862C17.8713 0.301862 17.7823 0.283846 17.6923 0.266846C17.6443 0.257846 17.5963 0.249845 17.5483 0.240845C17.4683 0.226845 17.3873 0.211853 17.3073 0.198853C17.2563 0.190853 17.2053 0.182866 17.1553 0.174866C17.0763 0.162866 16.9973 0.151869 16.9183 0.140869C16.8673 0.133869 16.8173 0.12685 16.7663 0.12085C16.6843 0.11085 16.6023 0.101835 16.5203 0.0928345C16.4733 0.0878345 16.4263 0.0818809 16.3783 0.0778809C16.2833 0.0688809 16.1893 0.0608565 16.0943 0.0528565C16.0603 0.0498565 16.0253 0.0468843 15.9913 0.0438843C15.8623 0.0348843 15.7333 0.0268741 15.6043 0.0208741C15.5763 0.0198741 15.5473 0.0188833 15.5193 0.0178833C15.4183 0.0138833 15.3173 0.00987358 15.2163 0.00787358C15.1703 0.00687358 15.1243 0.00685942 15.0783 0.00585942C15.0193 0.00485942 14.9613 0.00488286 14.9023 0.00488286V29.7928C14.9653 29.7928 15.0283 29.7949 15.0903 29.7939C15.1073 29.7939 15.1233 29.7938 15.1403 29.7928C15.9483 29.7798 16.7553 29.7018 17.5523 29.5588C17.5783 29.5538 17.6033 29.5499 17.6293 29.5449C18.0223 29.4719 18.4133 29.3838 18.8003 29.2798C18.9033 29.2518 19.0053 29.2229 19.1073 29.1929C19.1643 29.1759 19.2223 29.1579 19.2793 29.1409C19.3203 29.1279 19.3613 29.1158 19.4023 29.1028C19.4783 29.0788 19.5533 29.0539 19.6293 29.0289C19.6473 29.0229 19.6653 29.0169 19.6823 29.0109C19.7693 28.9819 19.8553 28.9518 19.9423 28.9208C19.9753 28.9088 20.0073 28.8968 20.0403 28.8848C20.1313 28.8508 20.2223 28.8169 20.3133 28.7819C20.3313 28.7749 20.3493 28.7679 20.3673 28.7609C20.4413 28.7319 20.5153 28.7019 20.5883 28.6719C20.6293 28.6549 20.6693 28.6378 20.7093 28.6208C20.7643 28.5978 20.8203 28.5739 20.8753 28.5499C20.9743 28.5069 21.0723 28.4629 21.1703 28.4169C21.2473 28.3809 21.3233 28.3438 21.4003 28.3068C21.4283 28.2928 21.4563 28.2808 21.4833 28.2668C21.5173 28.2498 21.5513 28.2329 21.5853 28.2159C21.5933 28.2119 21.6013 28.2079 21.6093 28.2039C21.7383 28.1389 21.8663 28.0718 21.9943 28.0018C22.0283 27.9838 22.0633 27.9649 22.0973 27.9459C22.1383 27.9229 22.1793 27.9009 22.2193 27.8779C22.2803 27.8439 22.3403 27.8089 22.4013 27.7739C22.4823 27.7269 22.5623 27.6789 22.6423 27.6299C22.6633 27.6169 22.6853 27.6039 22.7063 27.5909C22.7443 27.5669 22.7833 27.5438 22.8213 27.5198C22.8593 27.4958 22.8973 27.4708 22.9353 27.4468C23.3273 27.1958 23.7093 26.9239 24.0813 26.6329H24.0823C24.1393 26.5879 24.1973 26.5428 24.2543 26.4968C24.2913 26.4668 24.3283 26.4359 24.3653 26.4059C24.4203 26.3599 24.4763 26.3139 24.5303 26.2679C24.5673 26.2369 24.6033 26.2048 24.6403 26.1738C24.6963 26.1258 24.7513 26.0768 24.8063 26.0278C24.9303 25.9168 25.0523 25.8049 25.1733 25.6899C25.2603 25.6069 25.3473 25.5228 25.4323 25.4368C25.5173 25.3528 25.6003 25.2668 25.6823 25.1808C25.8173 25.0388 25.9493 24.8948 26.0773 24.7488C26.1063 24.7168 26.1343 24.6839 26.1633 24.6509C26.1923 24.6169 26.2223 24.5828 26.2513 24.5488C26.3283 24.4588 26.4033 24.3679 26.4773 24.2769L26.4783 24.2748C26.5513 24.1848 26.6243 24.0938 26.6943 24.0018L26.6973 23.9979C27.0103 23.5929 27.2983 23.1758 27.5643 22.7488C27.6473 22.6148 27.7283 22.4799 27.8063 22.3439C27.8203 22.3199 27.8333 22.2968 27.8473 22.2728C28.0263 21.9588 28.1933 21.6399 28.3473 21.3159C28.3523 21.3049 28.3583 21.2929 28.3643 21.2819C28.4443 21.1129 28.5213 20.9429 28.5943 20.7719C28.5963 20.7679 28.5973 20.7638 28.5993 20.7598C28.7473 20.4138 28.8813 20.0618 29.0013 19.7078C29.0053 19.6958 29.0093 19.6839 29.0133 19.6719C29.1313 19.3219 29.2363 18.9679 29.3273 18.6119C29.3303 18.6009 29.3333 18.5899 29.3353 18.5789C29.4273 18.2139 29.5063 17.8469 29.5703 17.4769C29.6163 17.2139 29.6553 16.9509 29.6873 16.6859C29.7033 16.5509 29.7173 16.4149 29.7303 16.2789C29.7343 16.2389 29.7373 16.1978 29.7403 16.1578C29.7483 16.0608 29.7563 15.9628 29.7623 15.8658C29.7653 15.8208 29.7683 15.7749 29.7703 15.7289C29.7753 15.6309 29.7803 15.5329 29.7833 15.4359C29.7843 15.3959 29.7863 15.3559 29.7873 15.3159C29.7933 15.0329 29.7933 14.7598 29.7853 14.4858Z" fill="black"/>
</g>
</svg>
