<svg width="27" height="23" viewBox="0 0 27 23" fill="none" xmlns="http://www.w3.org/2000/svg">
<path d="M25.752 3.55298H0.751953C0.337953 3.55298 0.00195312 3.88898 0.00195312 4.30298V9.50299C0.00195312 9.83999 0.226964 10.135 0.550964 10.226L13.051 13.699C13.117 13.717 13.184 13.726 13.252 13.726C13.32 13.726 13.3869 13.717 13.4529 13.699L25.9529 10.226C26.2779 10.136 26.502 9.83999 26.502 9.50299V4.30298C26.502 3.88898 26.166 3.55298 25.752 3.55298Z" fill="#A792FC"/>
<path d="M9.32227 3.55298V1.5H17.1793V3.55298H18.6793V0.75C18.6793 0.336 18.3433 0 17.9293 0H8.57227C8.15827 0 7.82227 0.336 7.82227 0.75V3.55298H9.32227Z" fill="#FFD550"/>
<path d="M25.951 10.226L13.451 13.699C13.385 13.717 13.318 13.726 13.25 13.726C13.182 13.726 13.115 13.717 13.049 13.699L0.549011 10.226C0.224011 10.136 0 9.83993 0 9.50293V21.6489C0 22.0629 0.336 22.3989 0.75 22.3989H25.75C26.164 22.3989 26.5 22.0629 26.5 21.6489V9.50293C26.501 9.83993 26.276 10.136 25.951 10.226Z" fill="#8471F4"/>
</svg>
