<svg width="29" height="12" viewBox="0 0 29 12" fill="none" xmlns="http://www.w3.org/2000/svg">
<path d="M15.1762 0.59817C14.7452 1.39517 14.0092 1.39517 13.5792 0.59817C13.3692 0.21017 13.0732 -0.00675411 12.7632 0.00124589L4.73219 0.215235C4.11219 0.232235 3.6262 1.13016 3.6642 2.18716L3.80018 5.9822C3.82918 6.7762 4.15016 7.45116 4.59816 7.66116L11.8552 11.0532C12.3082 11.2652 12.7882 10.9562 13.0482 10.2882L13.4702 9.19924C13.9002 8.09124 14.8522 8.09124 15.2822 9.19924L15.7042 10.2882C15.9632 10.9562 16.4442 11.2652 16.8972 11.0532L24.1542 7.66116C24.6032 7.45116 24.9242 6.7762 24.9522 5.9822L25.0892 2.18716C25.1272 1.12916 24.6412 0.231235 24.0212 0.215235L15.9902 0.00124589C15.6822 -0.00775411 15.3852 0.20917 15.1762 0.59817Z" fill="#8471F4"/>
<path d="M28.3775 5.97131H25.2415C25.0975 5.97131 24.9815 5.76626 24.9865 5.52026L25.0535 2.35632C25.0585 2.12232 25.1705 1.93628 25.3085 1.93628H28.3775C28.5185 1.93628 28.6325 2.13131 28.6325 2.37231V5.53625C28.6315 5.77625 28.5175 5.97131 28.3775 5.97131Z" fill="#FFD550"/>
<path d="M24.017 0.214233L22.5859 0.178223L22.598 8.39319L24.1609 7.66016C24.6099 7.45016 24.93 6.77422 24.957 5.98022L25.088 2.18518C25.125 1.12718 24.637 0.230233 24.017 0.214233Z" fill="#A792FC"/>
<path d="M0.254035 5.97131H3.39002C3.53402 5.97131 3.65003 5.76626 3.64503 5.52026L3.57801 2.35632C3.57301 2.12232 3.461 1.93628 3.323 1.93628H0.255011C0.114011 1.93628 6.52738e-06 2.13131 6.52738e-06 2.37231V5.53625C-0.000993473 5.77625 0.113035 5.97131 0.254035 5.97131Z" fill="#FFD550"/>
<path d="M4.60719 0.214111L6.03822 0.176025V8.39111L4.47419 7.66003C4.02519 7.45003 3.70422 6.77508 3.67622 5.98108L3.5392 2.18604C3.5012 1.12904 3.98719 0.231111 4.60719 0.214111Z" fill="#A792FC"/>
<g opacity="0.15">
<path d="M28.3763 1.93613H25.3083C25.2163 1.93613 25.1364 2.02021 25.0914 2.14621C25.1154 1.10621 24.6343 0.231203 24.0233 0.214203H24.0184H24.0173L23.9484 0.212128L15.9924 0.000213709C15.6834 -0.00778629 15.3863 0.209137 15.1763 0.597138C14.9673 0.984138 14.6853 1.18111 14.4023 1.19211V8.36813C14.7393 8.38113 15.0733 8.65721 15.2833 9.19821L15.7053 10.2872C15.9643 10.9552 16.4453 11.2641 16.8983 11.0521L22.5974 8.38815V8.39316L24.1603 7.66013C24.6093 7.45013 24.9294 6.77419 24.9564 5.98019L25.0063 4.52512L24.9854 5.51913C24.9804 5.76613 25.0954 5.97018 25.2404 5.97018H28.3763C28.5173 5.97018 28.6313 5.77515 28.6313 5.53415V2.37021C28.6303 2.13121 28.5163 1.93613 28.3763 1.93613Z" fill="#FFD550"/>
</g>
</svg>
