<svg width="25" height="25" viewBox="0 0 25 25" fill="none" xmlns="http://www.w3.org/2000/svg">
<path d="M23.4622 1.22658C23.3572 1.12158 23.2102 1.06853 23.0612 1.08253L21.0722 1.27455C20.9572 1.28555 20.8492 1.33659 20.7672 1.41859L11.7472 10.4386L11.0102 9.70155C10.8152 9.50655 10.4982 9.50655 10.3032 9.70155L0.148203 19.8566C-0.0467969 20.0516 -0.0467969 20.3686 0.148203 20.5636L4.1262 24.5415C4.2242 24.6395 4.3522 24.6875 4.4802 24.6875C4.6082 24.6875 4.73618 24.6385 4.83418 24.5415L14.9892 14.3866C15.0832 14.2926 15.1362 14.1656 15.1362 14.0326C15.1362 13.8996 15.0832 13.7726 14.9892 13.6786L14.2522 12.9415L23.2722 3.92152C23.3542 3.83952 23.4052 3.73161 23.4162 3.61561L23.6082 1.6266C23.6202 1.4796 23.5682 1.33258 23.4622 1.22658Z" fill="#FFD550"/>
<path d="M1.46025 21.1726L11.6152 11.0176C11.8102 10.8226 12.1272 10.8226 12.3222 11.0176L13.0592 11.7545L22.0793 2.73451C22.1613 2.65251 22.2693 2.60159 22.3843 2.59059L23.5223 2.4806L23.6042 1.62953C23.6182 1.48053 23.5652 1.33355 23.4602 1.22755C23.3552 1.12255 23.2082 1.06951 23.0592 1.08351L21.0702 1.27553C20.9552 1.28653 20.8472 1.33757 20.7652 1.41957L11.7452 10.4396L11.0082 9.70253C10.8132 9.50753 10.4962 9.50753 10.3012 9.70253L0.14625 19.8576C-0.04875 20.0526 -0.04875 20.3696 0.14625 20.5646L1.46125 21.8795C1.26425 21.6845 1.26425 21.3676 1.46025 21.1726Z" fill="#8471F4"/>
<path d="M4.30885 20.8805C4.18085 20.8805 4.05284 20.8315 3.95484 20.7345C3.75984 20.5395 3.75984 20.2226 3.95484 20.0276L9.44383 14.5386C9.63883 14.3436 9.95583 14.3436 10.1508 14.5386C10.3458 14.7336 10.3458 15.0506 10.1508 15.2456L4.66184 20.7345C4.56484 20.8315 4.43685 20.8805 4.30885 20.8805Z" fill="white"/>
<path d="M23.511 16.0545C22.141 14.6835 20.097 14.2824 18.325 15.0054L9.90296 6.58246C10.625 4.81046 10.224 2.76655 8.85398 1.39655C7.46698 0.00954723 5.32898 -0.389495 3.53498 0.403505C3.38398 0.470505 3.27597 0.606495 3.24497 0.768495C3.21497 0.930495 3.26598 1.09744 3.38298 1.21344L5.58299 3.41352L4.10398 4.89252L1.90397 2.69245C1.78697 2.57545 1.62096 2.52451 1.45896 2.55451C1.29696 2.58451 1.15997 2.69345 1.09297 2.84345C0.299967 4.63845 0.698978 6.77554 2.08598 8.16254C3.45598 9.53254 5.49898 9.93449 7.27198 9.21149L15.695 17.6335C14.973 19.4055 15.374 21.4495 16.744 22.8195C17.656 23.7305 18.891 24.2155 20.141 24.2155C20.793 24.2155 21.448 24.0835 22.063 23.8115C22.214 23.7445 22.322 23.6085 22.352 23.4465C22.382 23.2845 22.331 23.1175 22.214 23.0015L20.014 20.8015L21.493 19.3225L23.693 21.5225C23.81 21.6395 23.976 21.6905 24.138 21.6605C24.3 21.6305 24.437 21.5215 24.503 21.3705C25.297 19.5785 24.898 17.4415 23.511 16.0545Z" fill="#67C7BF"/>
<path d="M2.78052 6.21657L4.10452 4.89259L1.90451 2.69252C1.78751 2.57552 1.6215 2.52458 1.4595 2.55458C1.2975 2.58458 1.16051 2.69352 1.09351 2.84352C0.905506 3.26952 0.785516 3.71459 0.728516 4.16359L2.78052 6.21657Z" fill="#61BCB1"/>
<path d="M23.5107 16.0545C22.1407 14.6835 20.0968 14.2824 18.3248 15.0054L9.90275 6.58246C10.6247 4.81046 10.2238 2.76655 8.85377 1.39655C7.46677 0.00954723 5.32877 -0.389495 3.53477 0.403505C3.38377 0.470505 3.27576 0.606495 3.24476 0.768495C3.21476 0.930495 3.26576 1.09744 3.38276 1.21344L3.53077 1.36151C4.97677 1.17951 6.47176 1.66155 7.52976 2.71955C8.89976 4.08955 9.30177 6.13346 8.57877 7.90546L17.0018 16.3284C18.7738 15.6064 20.8178 16.0075 22.1878 17.3775C23.2458 18.4355 23.7278 19.9305 23.5458 21.3765L23.6937 21.5245C23.8107 21.6415 23.9767 21.6925 24.1387 21.6625C24.3007 21.6325 24.4378 21.5235 24.5038 21.3725C25.2968 19.5785 24.8977 17.4415 23.5107 16.0545Z" fill="#61BCB1"/>
<path d="M20.0154 20.8037L18.6914 22.1277L20.7434 24.1797C21.1934 24.1227 21.6384 24.0037 22.0644 23.8157C22.2154 23.7487 22.3234 23.6127 22.3534 23.4507C22.3834 23.2887 22.3324 23.1216 22.2154 23.0056L20.0154 20.8037Z" fill="#61BCB1"/>
</svg>
