<svg width="31" height="21" viewBox="0 0 31 21" fill="none" xmlns="http://www.w3.org/2000/svg">
<path d="M27.4713 17.4871C27.4713 19.4041 25.9173 20.9581 24.0003 20.9581C22.0833 20.9581 20.5293 19.4041 20.5293 17.4871C20.5293 15.5701 22.0833 14.0161 24.0003 14.0161C25.9173 14.0161 27.4713 15.5701 27.4713 17.4871Z" fill="white"/>
<path d="M30.4202 0H12.4422C12.1932 0 11.9922 0.201012 11.9922 0.450012V18.075C11.9922 18.324 12.1932 18.525 12.4422 18.525H20.6692C20.6752 18.525 20.6802 18.524 20.6862 18.523C20.5842 18.196 20.5292 17.848 20.5292 17.487C20.5292 15.57 22.0832 14.016 24.0002 14.016C25.9172 14.016 27.4712 15.57 27.4712 17.487C27.4712 17.848 27.4162 18.197 27.3132 18.524H30.4212C30.6702 18.524 30.8712 18.323 30.8712 18.074V0.448975C30.8702 0.200975 30.6692 0 30.4202 0Z" fill="#8471F4"/>
<path d="M11.993 17.6569V2.93994H7.40198C7.26598 2.93994 7.133 2.95495 7.004 2.98395C6.95 2.99595 6.897 3.01195 6.845 3.02795C6.772 3.05095 6.701 3.07896 6.633 3.11096C6.594 3.12896 6.55497 3.14892 6.51797 3.16992C6.36697 3.25392 6.22998 3.35992 6.10898 3.48492C6.10598 3.48792 6.10298 3.49193 6.09998 3.49493C6.05998 3.53693 6.023 3.58095 5.987 3.62695C5.892 3.74895 5.811 3.88291 5.75 4.02991L3.72897 8.89996H3.45999C1.55199 8.89996 0 10.369 0 12.174V16.95C0 17.341 0.316977 17.658 0.707977 17.658H3.20898C3.20598 17.602 3.20499 17.546 3.20499 17.489C3.20499 15.572 4.75899 14.0179 6.67599 14.0179C8.59299 14.0179 10.147 15.572 10.147 17.489C10.147 17.546 10.145 17.602 10.143 17.658H11.993V17.6569Z" fill="#68B8BC"/>
<path d="M6.67609 15.8161C7.59709 15.8161 8.34708 16.5661 8.34708 17.4871C8.34708 18.4081 7.59709 19.1581 6.67609 19.1581C5.75509 19.1581 5.00507 18.4081 5.00507 17.4871C5.00507 16.5661 5.75409 15.8161 6.67609 15.8161ZM6.67609 14.0161C4.75909 14.0161 3.20508 15.5701 3.20508 17.4871C3.20508 19.4041 4.75909 20.9581 6.67609 20.9581C8.59309 20.9581 10.1471 19.4041 10.1471 17.4871C10.1471 15.5701 8.59309 14.0161 6.67609 14.0161Z" fill="#FFC853"/>
<path d="M24.0003 15.8161C24.9223 15.8161 25.6713 16.5661 25.6713 17.4871C25.6713 18.4081 24.9213 19.1581 24.0003 19.1581C23.0793 19.1581 22.3293 18.4081 22.3293 17.4871C22.3293 16.5661 23.0793 15.8161 24.0003 15.8161ZM24.0003 14.0161C22.0833 14.0161 20.5293 15.5701 20.5293 17.4871C20.5293 19.4041 22.0833 20.9581 24.0003 20.9581C25.9173 20.9581 27.4713 19.4041 27.4713 17.4871C27.4713 15.5701 25.9173 14.0161 24.0003 14.0161Z" fill="#FFC853"/>
<path d="M9.18265 0.783936H9.17267C8.51267 0.783936 7.97266 1.32395 7.97266 1.98395V2.95496H10.3827V1.98395C10.3827 1.32395 9.84265 0.783936 9.18265 0.783936Z" fill="#8471F4"/>
<path d="M23.5513 6.33606H21.8773V4.66309H20.0773V6.33606H18.4043V8.13605H20.0773V9.81006H21.8773V8.13605H23.5513V6.33606Z" fill="white"/>
</svg>
