<svg width="24" height="24" viewBox="0 0 24 24" fill="none" xmlns="http://www.w3.org/2000/svg">
<path d="M19.606 0H19.566C19.436 0 19.311 0.0499912 19.218 0.140991C18.035 1.28699 16.478 1.91699 14.834 1.91699C13.19 1.91699 11.633 1.28599 10.45 0.140991C10.357 0.0509912 10.232 0 10.102 0H10.004C9.874 0 9.74901 0.0499912 9.65601 0.140991C8.47301 1.28699 6.916 1.91699 5.272 1.91699C3.628 1.91699 2.071 1.28599 0.888 0.140991C0.795 0.0509912 0.670009 0 0.540009 0H0.5C0.224 0 0 0.224 0 0.5V13.8729C0 19.4089 9.44602 23.701 9.84802 23.882C9.91302 23.911 9.983 23.9259 10.052 23.9259C10.122 23.9259 10.191 23.911 10.256 23.882C10.658 23.702 20.104 19.4089 20.104 13.8729V0.5C20.106 0.224 19.882 0 19.606 0Z" fill="#8471F4"/>
<path d="M1.15594 1.91699C1.86594 1.91699 2.55997 1.799 3.21497 1.573C2.35397 1.276 1.56195 0.791991 0.889954 0.140991C0.796954 0.0509912 0.671962 0 0.541962 0H0.501953C0.225953 0 0.00195312 0.224 0.00195312 0.5V1.81091C0.379953 1.88091 0.764945 1.91699 1.15594 1.91699Z" fill="#8471F4"/>
<path d="M10.7161 1.91699C11.4261 1.91699 12.1201 1.799 12.7751 1.573C11.9141 1.276 11.1221 0.791991 10.4501 0.140991C10.3571 0.0509912 10.2321 0 10.1021 0H10.0041C9.87412 0 9.74913 0.0499912 9.65613 0.140991C9.16113 0.620991 8.59914 1.00895 7.99414 1.29895C8.83514 1.70295 9.76113 1.91699 10.7161 1.91699Z" fill="#8471F4"/>
<path d="M19.6071 0H19.5671C19.4371 0 19.3121 0.0499912 19.2191 0.140991C18.3181 1.01399 17.1981 1.58691 15.9891 1.81091V13.8729C15.9891 17.9549 10.8551 21.3599 7.99609 22.9399C9.01509 23.5029 9.7451 23.834 9.8511 23.882C9.9161 23.911 9.98611 23.9259 10.0551 23.9259C10.1251 23.9259 10.1941 23.911 10.2591 23.882C10.6611 23.702 20.1071 19.4089 20.1071 13.8729V0.5C20.1071 0.224 19.8831 0 19.6071 0Z" fill="#8471F4"/>
<path d="M19.4966 15.2079C21.7858 15.2079 23.6415 13.3522 23.6415 11.063C23.6415 8.77377 21.7858 6.91797 19.4966 6.91797C17.2073 6.91797 15.3516 8.77377 15.3516 11.063C15.3516 13.3522 17.2073 15.2079 19.4966 15.2079Z" fill="#67C7BF"/>
<path d="M19.4967 6.91895C19.1727 6.91895 18.8577 6.95795 18.5547 7.02795C20.3877 7.45595 21.7577 9.10199 21.7577 11.063C21.7577 13.024 20.3877 14.6709 18.5547 15.0979C18.8577 15.1689 19.1727 15.2069 19.4967 15.2069C21.7817 15.2069 23.6417 13.3479 23.6417 11.0619C23.6417 8.77789 21.7827 6.91895 19.4967 6.91895Z" fill="#61BCB1"/>
<path d="M19.4933 12.4459C19.3653 12.4459 19.2373 12.397 19.1403 12.299L18.2263 11.3849C18.0313 11.1899 18.0313 10.873 18.2263 10.678C18.4213 10.483 18.7383 10.483 18.9333 10.678L19.4933 11.2379L20.9053 9.82594C21.1003 9.63094 21.4173 9.63094 21.6123 9.82594C21.8073 10.0209 21.8073 10.338 21.6123 10.533L19.8463 12.299C19.7493 12.398 19.6213 12.4459 19.4933 12.4459Z" fill="white"/>
<path d="M10.0563 11.027C11.4733 11.027 12.6263 9.87391 12.6263 8.45691C12.6263 7.03991 11.4733 5.88696 10.0563 5.88696C8.63934 5.88696 7.48633 7.03991 7.48633 8.45691C7.48633 9.87391 8.63934 11.027 10.0563 11.027Z" fill="white"/>
<path d="M11.5234 11.4739C11.3574 11.4269 11.1794 11.4689 11.0514 11.5839C10.7784 11.8309 10.4244 11.9678 10.0554 11.9678C9.68639 11.9678 9.33239 11.8319 9.05939 11.5839C8.93139 11.4679 8.75337 11.4269 8.58737 11.4739C6.76637 11.9899 5.6544 13.7839 6.0004 15.6479C6.2574 17.0329 7.46639 18.0369 8.87439 18.0369H11.2364C12.6444 18.0369 13.8534 17.0319 14.1104 15.6479C14.4554 13.7839 13.3434 11.9899 11.5234 11.4739Z" fill="white"/>
</svg>
