<svg width="28" height="23" viewBox="0 0 28 23" fill="none" xmlns="http://www.w3.org/2000/svg">
<path d="M7.1076 0.5C5.9976 0.5 5.09766 1.40001 5.09766 2.51001V3.10101H9.11865V2.51001C9.11765 1.40001 8.2176 0.5 7.1076 0.5Z" fill="#BA52ED"/>
<path d="M9.1167 3.60101H5.0957C4.8197 3.60101 4.5957 3.37701 4.5957 3.10101V2.51001C4.5957 1.12601 5.72171 0 7.10571 0C8.48971 0 9.61572 1.12601 9.61572 2.51001V3.10101C9.61672 3.37701 9.3937 3.60101 9.1167 3.60101ZM5.59674 2.60101H8.61774V2.51001C8.61774 1.67701 7.94073 1 7.10773 1C6.27473 1 5.59772 1.67701 5.59772 2.51001L5.59674 2.60101Z" fill="#BA52ED"/>
<path d="M2.50598 5.06494H0.5V14.9839H2.50598V5.06494Z" fill="#BA52ED"/>
<path d="M2.50604 15.4839H0.5C0.224 15.4839 0 15.2599 0 14.9839V5.06494C0 4.78894 0.224 4.56494 0.5 4.56494H2.50604C2.78204 4.56494 3.00604 4.78894 3.00604 5.06494V14.9839C3.00604 15.2599 2.78204 15.4839 2.50604 15.4839ZM0.999023 14.4839H2.005V5.56494H0.999023V14.4839Z" fill="#BA52ED"/>
<path d="M2.50598 17.0291H0.5V19.944H2.50598V17.0291Z" fill="#BA52ED"/>
<path d="M2.50604 20.444H0.5C0.224 20.444 0 20.22 0 19.944V17.0291C0 16.7531 0.224 16.5291 0.5 16.5291H2.50604C2.78204 16.5291 3.00604 16.7531 3.00604 17.0291V19.944C3.00604 20.22 2.78204 20.444 2.50604 20.444ZM0.999023 19.444H2.005V17.5291H0.999023V19.444Z" fill="#BA52ED"/>
<path d="M13.0168 17.0291V3.10107H2.50586V21.9111H26.9509V17.0291H13.0168Z" fill="#95E1D3"/>
<path d="M26.9509 22.4111H2.50586C2.22986 22.4111 2.00586 22.1871 2.00586 21.9111V3.1001C2.00586 2.8241 2.22986 2.6001 2.50586 2.6001H13.0168C13.2928 2.6001 13.5168 2.8241 13.5168 3.1001V16.5281H26.9509C27.2269 16.5281 27.4509 16.7521 27.4509 17.0281V21.9101C27.4509 22.1871 27.2269 22.4111 26.9509 22.4111ZM3.00586 21.4111H26.4509V17.5291H13.0168C12.7408 17.5291 12.5168 17.3051 12.5168 17.0291V3.60107H3.00586V21.4111Z" fill="#95E1D3"/>
<path d="M27.4776 2.56885H13.0176V17.0289H27.4776V2.56885Z" fill="#3FBAC2"/>
<path d="M27.4766 17.5289H13.0176C12.7416 17.5289 12.5176 17.3049 12.5176 17.0289V2.56885C12.5176 2.29285 12.7416 2.06885 13.0176 2.06885H27.4766C27.7526 2.06885 27.9766 2.29285 27.9766 2.56885V17.0289C27.9766 17.3049 27.7526 17.5289 27.4766 17.5289ZM13.5176 16.5289H26.9766V3.06885H13.5176V16.5289Z" fill="#3FBAC2"/>
<path d="M20.2467 14.534C22.8618 14.534 24.9817 12.414 24.9817 9.79895C24.9817 7.18388 22.8618 5.06396 20.2467 5.06396C17.6316 5.06396 15.5117 7.18388 15.5117 9.79895C15.5117 12.414 17.6316 14.534 20.2467 14.534Z" fill="#D3D4D8"/>
<path d="M20.2467 15.034C17.3607 15.034 15.0117 12.686 15.0117 9.79895C15.0117 6.91195 17.3597 4.56396 20.2467 4.56396C23.1337 4.56396 25.4817 6.91195 25.4817 9.79895C25.4817 12.686 23.1327 15.034 20.2467 15.034ZM20.2467 5.56494C17.9117 5.56494 16.0117 7.46499 16.0117 9.79999C16.0117 12.135 17.9117 14.035 20.2467 14.035C22.5817 14.035 24.4817 12.135 24.4817 9.79999C24.4807 7.46399 22.5817 5.56494 20.2467 5.56494Z" fill="#D3D4D8"/>
<path d="M9.45923 11.34C9.45923 12.217 8.74822 12.928 7.87122 12.928C6.99422 12.928 6.2832 12.217 6.2832 11.34C6.2832 10.463 6.99422 9.75195 7.87122 9.75195C8.74822 9.75195 9.45923 10.463 9.45923 11.34Z" fill="#7098DA"/>
<path d="M7.87317 13.428C6.72217 13.428 5.78516 12.492 5.78516 11.34C5.78516 10.189 6.72217 9.25195 7.87317 9.25195C9.02417 9.25195 9.96112 10.188 9.96112 11.34C9.96012 12.491 9.02417 13.428 7.87317 13.428ZM7.87317 10.252C7.27317 10.252 6.78516 10.74 6.78516 11.34C6.78516 11.94 7.27317 12.428 7.87317 12.428C8.47317 12.428 8.96112 11.94 8.96112 11.34C8.96012 10.74 8.47217 10.252 7.87317 10.252Z" fill="#7098DA"/>
</svg>
