<svg width="28" height="22" viewBox="0 0 28 22" fill="none" xmlns="http://www.w3.org/2000/svg">
<path d="M10.6688 10.5459H4.2168V21.1349H10.6688V10.5459Z" fill="#A792FC"/>
<path d="M17.1785 7.79907H10.7266V21.136H17.1785V7.79907Z" fill="#8471F4"/>
<path d="M23.6864 13.79H17.2344V21.135H23.6864V13.79Z" fill="#FFD550"/>
<path d="M27.775 20.4331H0V21.9331H27.775V20.4331Z" fill="#FFD550"/>
<path d="M14.7014 5.78101H13.2014V1.5H11.9414V0H14.7014V5.78101Z" fill="#8471F4"/>
<path d="M8.7785 8.474H5.88348L5.31647 7.23303L7.35248 4.88403C7.51648 4.69503 7.44651 4.48603 7.42151 4.42603C7.38551 4.34103 7.29448 4.19706 7.08948 4.18506C7.07648 4.18406 7.06449 4.18408 7.05249 4.18408C6.71349 4.18408 6.4375 4.46007 6.4375 4.79907H4.9375C4.9375 3.63307 5.88649 2.68408 7.05249 2.68408C7.09449 2.68408 7.13551 2.68499 7.17651 2.68799C7.89551 2.72999 8.51949 3.17202 8.80249 3.84302C9.09249 4.53102 8.9715 5.30607 8.4845 5.86707L7.5235 6.9751H8.77649V8.474H8.7785Z" fill="#A792FC"/>
<path d="M20.7786 11.821C20.2746 11.821 19.8036 11.622 19.4526 11.26L20.5286 10.2151C20.5666 10.2551 20.6506 10.321 20.7786 10.321C20.9566 10.321 21.1036 10.187 21.1246 10.015C21.0496 9.88701 20.7656 9.65702 20.5616 9.54102L20.8156 8.14807C20.9826 8.12207 21.1086 7.97408 21.1086 7.80408C21.1086 7.61208 20.9526 7.45605 20.7606 7.45605C20.6326 7.45605 20.5486 7.52201 20.5106 7.56201L19.4336 6.51709C19.7846 6.15509 20.2556 5.95605 20.7606 5.95605C21.7796 5.95605 22.6086 6.78508 22.6086 7.80408C22.6086 8.24108 22.4586 8.64501 22.2046 8.96301C22.4416 9.24001 22.6266 9.58202 22.6266 9.97302C22.6276 10.992 21.7976 11.821 20.7786 11.821Z" fill="#FFD550"/>
<g opacity="0.15">
<path d="M23.6874 20.4331V13.79H17.2354V20.4331H17.1784V7.79907H13.6895V21.9331H27.7764V20.4331H23.6874Z" fill="#FFD550"/>
</g>
</svg>
