<svg width="28" height="30" viewBox="0 0 28 30" fill="none" xmlns="http://www.w3.org/2000/svg">
<path d="M27.5801 11.9232L14.2051 0.12525C14.0161 -0.04175 13.7331 -0.04175 13.5441 0.12525L6.7491 6.11915V5.46924C6.7491 5.19324 6.5251 4.96924 6.2491 4.96924H4.0721C3.7961 4.96924 3.5721 5.19324 3.5721 5.46924V8.92225L0.169085 11.9242C0.0130855 12.0622 -0.0409079 12.2812 0.0320921 12.4762C0.106092 12.6712 0.292079 12.7992 0.500079 12.7992H3.77208V28.7482C3.77208 29.0242 3.99608 29.2482 4.27208 29.2482H23.4781C23.7541 29.2482 23.9781 29.0242 23.9781 28.7482V12.7992H27.2501C27.4581 12.7992 27.6441 12.6702 27.7181 12.4762C27.7901 12.2802 27.7361 12.0602 27.5801 11.9232Z" fill="#67C7BF"/>
<path d="M17.0954 23.0332H10.6484C10.3724 23.0332 10.1484 22.8092 10.1484 22.5332V17.2603C10.1484 16.9843 10.3724 16.7603 10.6484 16.7603H17.0954C17.3714 16.7603 17.5954 16.9843 17.5954 17.2603V22.5332C17.5954 22.8092 17.3714 23.0332 17.0954 23.0332ZM11.1484 22.0332H16.5954V17.7603H11.1484V22.0332Z" fill="#8471F4"/>
<path d="M16.3024 17.7604H11.4414C11.1654 17.7604 10.9414 17.5364 10.9414 17.2604V14.4183C10.9414 12.8023 12.2564 11.4883 13.8714 11.4883C15.4874 11.4883 16.8014 12.8033 16.8014 14.4183V17.2604C16.8024 17.5364 16.5784 17.7604 16.3024 17.7604ZM11.9414 16.7604H15.8024V14.4183C15.8024 13.3543 14.9364 12.4883 13.8724 12.4883C12.8084 12.4883 11.9424 13.3543 11.9424 14.4183L11.9414 16.7604Z" fill="white"/>
<path d="M17.0954 16.7603H10.6484C10.3724 16.7603 10.1484 16.9843 10.1484 17.2603V22.5332C10.1484 22.8092 10.3724 23.0332 10.6484 23.0332H17.0954C17.3714 23.0332 17.5954 22.8092 17.5954 22.5332V17.2603C17.5954 16.9843 17.3714 16.7603 17.0954 16.7603Z" fill="#8471F4"/>
<path d="M17.0969 16.7603H15.3379C15.6139 16.7603 15.8379 16.9843 15.8379 17.2603V22.5332C15.8379 22.8092 15.6139 23.0332 15.3379 23.0332H17.0969C17.3729 23.0332 17.5969 22.8092 17.5969 22.5332V17.2603C17.5969 16.9843 17.3729 16.7603 17.0969 16.7603Z" fill="#8471F4"/>
<path d="M13.8726 20.3962C13.2646 20.3962 12.7695 19.9012 12.7695 19.2932C12.7695 18.6852 13.2646 18.1902 13.8726 18.1902C14.4806 18.1902 14.9756 18.6852 14.9756 19.2932C14.9756 19.9012 14.4806 20.3962 13.8726 20.3962ZM13.8726 19.1902C13.8156 19.1902 13.7695 19.2362 13.7695 19.2932C13.7695 19.3502 13.8156 19.3962 13.8726 19.3962C13.9296 19.3962 13.9756 19.3502 13.9756 19.2932C13.9756 19.2362 13.9296 19.1902 13.8726 19.1902Z" fill="white"/>
<path d="M13.873 21.5892C13.597 21.5892 13.373 21.3652 13.373 21.0892V19.8962C13.373 19.6202 13.597 19.3962 13.873 19.3962C14.149 19.3962 14.373 19.6202 14.373 19.8962V21.0892C14.373 21.3652 14.149 21.5892 13.873 21.5892Z" fill="white"/>
<path d="M27.5786 11.9232L14.2036 0.12525C14.0146 -0.04175 13.7316 -0.04175 13.5426 0.12525L13.0996 0.516241C16.2796 3.50824 20.3686 10.7492 20.8746 29.2482H23.4756C23.7516 29.2482 23.9756 29.0242 23.9756 28.7482V12.7992H27.2476C27.4556 12.7992 27.6416 12.6702 27.7156 12.4762C27.7886 12.2802 27.7346 12.0602 27.5786 11.9232Z" fill="#61BCB1"/>
</svg>
