<svg width="21" height="24" viewBox="0 0 21 24" fill="none" xmlns="http://www.w3.org/2000/svg">
<path d="M19.606 0H19.566C19.436 0 19.311 0.0509912 19.218 0.140991C18.035 1.28699 16.478 1.91699 14.834 1.91699C13.19 1.91699 11.633 1.28599 10.45 0.140991C10.357 0.0509912 10.232 0 10.102 0H10.004C9.874 0 9.74898 0.0509912 9.65598 0.140991C8.47298 1.28699 6.91597 1.91699 5.27197 1.91699C3.62797 1.91699 2.071 1.28599 0.888 0.140991C0.795 0.0509912 0.669978 0 0.539978 0H0.5C0.224 0 0 0.224 0 0.5V13.873C0 19.409 9.44599 23.701 9.84799 23.881C9.91299 23.91 9.98297 23.925 10.052 23.925C10.122 23.925 10.191 23.91 10.256 23.881C10.658 23.701 20.104 19.408 20.104 13.873V0.5C20.106 0.224 19.882 0 19.606 0Z" fill="#67C7BF"/>
<path d="M19.6053 0H19.5652C19.4352 0 19.3103 0.0509912 19.2173 0.140991C18.3343 0.995991 17.2433 1.564 16.0623 1.797V13.873C16.0623 17.973 10.8823 21.39 8.03125 22.96C9.03025 23.51 9.74427 23.834 9.84827 23.881C9.91327 23.91 9.98325 23.925 10.0522 23.925C10.1222 23.925 10.1913 23.91 10.2563 23.881C10.6583 23.701 20.1042 19.408 20.1042 13.873V0.5C20.1052 0.224 19.8813 0 19.6053 0Z" fill="#61BCB1"/>
<path d="M10.0537 6.5481C7.06768 6.5481 4.63867 8.97707 4.63867 11.9631C4.63867 14.9491 7.06768 17.3781 10.0537 17.3781C13.0397 17.3781 15.4687 14.9491 15.4687 11.9631C15.4677 8.97707 13.0387 6.5481 10.0537 6.5481Z" fill="#CED7E3"/>
<path d="M10.0533 6.5481C9.62931 6.5481 9.21631 6.5991 8.82031 6.6911C11.2133 7.2511 13.0013 9.4011 13.0013 11.9621C13.0013 14.5231 11.2133 16.6741 8.82031 17.2331C9.21631 17.3261 9.62931 17.3761 10.0533 17.3761C13.0393 17.3761 15.4683 14.9471 15.4683 11.9611C15.4673 8.97712 13.0383 6.5481 10.0533 6.5481Z" fill="#BFC8D1"/>
<path d="M10.0477 13.653C9.91971 13.653 9.7917 13.604 9.6937 13.507L8.4607 12.274C8.2657 12.079 8.2657 11.762 8.4607 11.567C8.6557 11.372 8.9727 11.372 9.1677 11.567L10.0467 12.446L12.0747 10.418C12.2697 10.223 12.5867 10.223 12.7817 10.418C12.9767 10.613 12.9767 10.93 12.7817 11.125L10.4007 13.506C10.3037 13.604 10.1757 13.653 10.0477 13.653Z" fill="#8471F4"/>
</svg>
