<svg width="29" height="23" viewBox="0 0 29 23" fill="none" xmlns="http://www.w3.org/2000/svg">
<path d="M25.896 19.2549H4.948C2.492 19.2549 0.5 17.2639 0.5 14.8069V13.5229C0.5 9.13995 4.05297 5.58691 8.43597 5.58691H26.127C27.348 5.58691 28.338 6.57691 28.338 7.79791V16.812C28.338 18.161 27.245 19.2549 25.896 19.2549Z" fill="#95E1D3"/>
<path d="M25.896 19.7549H4.948C2.22 19.7549 0 17.5359 0 14.8069V13.5229C0 8.87095 3.78397 5.08691 8.43597 5.08691H26.127C27.622 5.08691 28.838 6.30291 28.838 7.79791V16.812C28.838 18.435 27.518 19.7549 25.896 19.7549ZM8.43597 6.08691C4.33597 6.08691 1 9.42295 1 13.5229V14.8069C1 16.9839 2.771 18.7549 4.948 18.7549H25.896C26.967 18.7549 27.838 17.8839 27.838 16.8129V7.79895C27.838 6.85595 27.07 6.08795 26.127 6.08795H8.43597V6.08691Z" fill="#95E1D3"/>
<path d="M7.14111 21.5269C8.3959 21.5269 9.41315 20.5097 9.41315 19.2549C9.41315 18.0002 8.3959 16.9829 7.14111 16.9829C5.88632 16.9829 4.86914 18.0002 4.86914 19.2549C4.86914 20.5097 5.88632 21.5269 7.14111 21.5269Z" fill="#4D606E"/>
<path d="M7.14111 22.0269C5.61211 22.0269 4.36914 20.7829 4.36914 19.2549C4.36914 17.7269 5.61311 16.4829 7.14111 16.4829C8.66911 16.4829 9.91315 17.7269 9.91315 19.2549C9.91315 20.7829 8.66911 22.0269 7.14111 22.0269ZM7.14111 17.4819C6.16411 17.4819 5.36914 18.2769 5.36914 19.2539C5.36914 20.2309 6.16411 21.0259 7.14111 21.0259C8.11811 21.0259 8.91315 20.2309 8.91315 19.2539C8.91315 18.2769 8.11811 17.4819 7.14111 17.4819Z" fill="#4D606E"/>
<path d="M24.3585 19.2549C24.3585 20.5099 23.3415 21.5269 22.0865 21.5269C20.8315 21.5269 19.8145 20.5099 19.8145 19.2549C19.8145 17.9999 20.8315 16.9829 22.0865 16.9829C23.3415 16.9819 24.3585 17.9999 24.3585 19.2549Z" fill="#4D606E"/>
<path d="M22.0865 22.0269C20.5575 22.0269 19.3145 20.7829 19.3145 19.2549C19.3145 17.7269 20.5585 16.4829 22.0865 16.4829C23.6155 16.4829 24.8585 17.7269 24.8585 19.2549C24.8585 20.7829 23.6155 22.0269 22.0865 22.0269ZM22.0865 17.4819C21.1095 17.4819 20.3145 18.2769 20.3145 19.2539C20.3145 20.2309 21.1095 21.0259 22.0865 21.0259C23.0635 21.0259 23.8585 20.2309 23.8585 19.2539C23.8585 18.2769 23.0635 17.4819 22.0865 17.4819Z" fill="#4D606E"/>
<path d="M13.6136 7.5H10.3906V12.421H13.6136V7.5Z" fill="#3FBAC2"/>
<path d="M13.6146 12.921H10.3926C10.1166 12.921 9.89258 12.697 9.89258 12.421V7.5C9.89258 7.224 10.1166 7 10.3926 7H13.6146C13.8906 7 14.1146 7.224 14.1146 7.5V12.421C14.1146 12.697 13.8906 12.921 13.6146 12.921ZM10.8926 11.921H13.1146V8H10.8926V11.921Z" fill="#3FBAC2"/>
<path d="M19.6126 7.5H16.3906V12.421H19.6126V7.5Z" fill="#3FBAC2"/>
<path d="M19.6126 12.921H16.3906C16.1146 12.921 15.8906 12.697 15.8906 12.421V7.5C15.8906 7.224 16.1146 7 16.3906 7H19.6126C19.8886 7 20.1126 7.224 20.1126 7.5V12.421C20.1126 12.697 19.8896 12.921 19.6126 12.921ZM16.8906 11.921H19.1126V8H16.8906V11.921Z" fill="#3FBAC2"/>
<path d="M25.6117 7.5H22.3887V12.421H25.6117V7.5Z" fill="#3FBAC2"/>
<path d="M25.6117 12.921H22.3887C22.1127 12.921 21.8887 12.697 21.8887 12.421V7.5C21.8887 7.224 22.1127 7 22.3887 7H25.6117C25.8877 7 26.1117 7.224 26.1117 7.5V12.421C26.1117 12.697 25.8877 12.921 25.6117 12.921ZM22.8887 11.921H25.1117V8H22.8887V11.921Z" fill="#3FBAC2"/>
<path d="M8.25714 13.813H4.86914V14.813H8.25714V13.813Z" fill="#4D606E"/>
<path d="M10.8926 3.71606H9.89258V5.58704H10.8926V3.71606Z" fill="#4D606E"/>
<path d="M22.8887 3.71606H21.8887V5.58704H22.8887V3.71606Z" fill="#4D606E"/>
<path d="M25.3323 3.03003H8.06836V4.03003H25.3323V3.03003Z" fill="#4D606E"/>
<path d="M19.4988 3.95299L18.9629 3.10899L23.7328 0.0779891C23.8868 -0.0200109 24.0819 -0.0260021 24.2419 0.0619979C24.4019 0.149998 24.5009 0.317986 24.5009 0.499986V3.11699H23.5009V1.411L19.4988 3.95299Z" fill="#4D606E"/>
<path d="M0.578125 12.4209H8.07013V5.59595C4.22713 5.77095 1.09812 8.6779 0.578125 12.4209Z" fill="#3FBAC2"/>
<path d="M8.06993 12.921H0.577928C0.432928 12.921 0.295914 12.8581 0.200914 12.7491C0.105914 12.6401 0.0629332 12.4951 0.0829332 12.3521C0.641933 8.33208 3.9919 5.28107 8.0479 5.09707C8.1829 5.09007 8.31694 5.14107 8.41594 5.23507C8.51494 5.32907 8.57091 5.4601 8.57091 5.5961V12.421C8.56991 12.697 8.34593 12.921 8.06993 12.921ZM1.17491 11.921H7.56993V6.13809C4.42393 6.50309 1.85091 8.83205 1.17491 11.921Z" fill="#3FBAC2"/>
</svg>
