<svg width="29" height="26" viewBox="0 0 29 26" fill="none" xmlns="http://www.w3.org/2000/svg">
<path d="M16.834 5.52002H23.972L27.846 25.119H0.5L4.37396 5.52002H11.344" fill="#3FBAC2"/>
<path d="M27.8455 25.619H0.499515C0.349515 25.619 0.208468 25.552 0.113468 25.436C0.018468 25.32 -0.0194748 25.168 0.00952516 25.022L3.88349 5.42401C3.92949 5.19001 4.13548 5.021 4.37348 5.021H11.3445C11.6205 5.021 11.8445 5.245 11.8445 5.521C11.8445 5.797 11.6205 6.021 11.3445 6.021H4.78449L1.10852 24.619H27.2375L23.5615 6.021H16.8345C16.5585 6.021 16.3345 5.797 16.3345 5.521C16.3345 5.245 16.5585 5.021 16.8345 5.021H23.9725C24.2115 5.021 24.4165 5.19001 24.4635 5.42401L28.3375 25.022C28.3665 25.169 28.3285 25.321 28.2335 25.436C28.1365 25.552 27.9945 25.619 27.8455 25.619Z" fill="#3FBAC2"/>
<path d="M11.7715 11.081C11.4955 11.081 11.2715 10.857 11.2715 10.581V1.98199C11.2715 0.888995 12.1605 0 13.2535 0C14.1185 0 14.8985 0.57902 15.1505 1.40802C15.2305 1.67202 15.0814 1.95198 14.8174 2.03198C14.5534 2.11198 14.2735 1.96297 14.1935 1.69897C14.0685 1.28697 13.6815 1 13.2535 1C12.7115 1 12.2715 1.44099 12.2715 1.98199V10.581C12.2715 10.857 12.0475 11.081 11.7715 11.081Z" fill="#354251"/>
<path d="M16.5293 11.081C16.2533 11.081 16.0293 10.857 16.0293 10.581V1.98199C16.0293 0.888995 16.9183 0 18.0113 0C18.8763 0 19.6563 0.57902 19.9083 1.40802C19.9883 1.67202 19.8393 1.95198 19.5753 2.03198C19.3113 2.11198 19.0323 1.96297 18.9513 1.69897C18.8263 1.28697 18.4393 1 18.0113 1C17.4693 1 17.0293 1.44099 17.0293 1.98199V10.581C17.0293 10.857 16.8053 11.081 16.5293 11.081Z" fill="#354251"/>
<path d="M16.5295 4.97095H11.7715C11.4955 4.97095 11.2715 4.74695 11.2715 4.47095C11.2715 4.19495 11.4955 3.97095 11.7715 3.97095H16.5295C16.8055 3.97095 17.0295 4.19495 17.0295 4.47095C17.0295 4.74695 16.8055 4.97095 16.5295 4.97095Z" fill="#354251"/>
<path d="M16.5295 8.60205H11.7715C11.4955 8.60205 11.2715 8.37805 11.2715 8.10205C11.2715 7.82605 11.4955 7.60205 11.7715 7.60205H16.5295C16.8055 7.60205 17.0295 7.82605 17.0295 8.10205C17.0295 8.37805 16.8055 8.60205 16.5295 8.60205Z" fill="#354251"/>
<path d="M22.0724 15.2009C21.2164 15.2009 20.8074 14.476 20.5084 13.947C20.2224 13.44 20.0604 13.2009 19.8154 13.2009C19.5704 13.2009 19.4084 13.44 19.1224 13.947C18.8234 14.476 18.4144 15.2009 17.5584 15.2009C16.7024 15.2009 16.2934 14.476 15.9944 13.947C15.7084 13.44 15.5464 13.2009 15.3014 13.2009C15.0564 13.2009 14.8944 13.44 14.6084 13.947C14.3094 14.476 13.9004 15.2009 13.0444 15.2009C12.1884 15.2009 11.7794 14.476 11.4804 13.947C11.1944 13.44 11.0324 13.2009 10.7874 13.2009C10.5424 13.2009 10.3804 13.44 10.0944 13.947C9.79542 14.476 9.3864 15.2009 8.5304 15.2009C7.6744 15.2009 7.26543 14.476 6.96643 13.947C6.68043 13.44 6.51844 13.2009 6.27344 13.2009C5.99744 13.2009 5.77344 12.9769 5.77344 12.7009C5.77344 12.4249 5.99744 12.2009 6.27344 12.2009C7.12944 12.2009 7.5384 12.926 7.8374 13.455C8.1234 13.962 8.2854 14.2009 8.5304 14.2009C8.7754 14.2009 8.93739 13.962 9.22339 13.455C9.52239 12.926 9.93141 12.2009 10.7874 12.2009C11.6434 12.2009 12.0524 12.926 12.3514 13.455C12.6374 13.962 12.7994 14.2009 13.0444 14.2009C13.2894 14.2009 13.4514 13.962 13.7374 13.455C14.0364 12.926 14.4454 12.2009 15.3014 12.2009C16.1574 12.2009 16.5664 12.926 16.8654 13.455C17.1514 13.962 17.3134 14.2009 17.5584 14.2009C17.8034 14.2009 17.9654 13.962 18.2514 13.455C18.5504 12.926 18.9594 12.2009 19.8154 12.2009C20.6714 12.2009 21.0804 12.926 21.3794 13.455C21.6654 13.962 21.8274 14.2009 22.0724 14.2009C22.3484 14.2009 22.5724 14.4249 22.5724 14.7009C22.5724 14.9769 22.3494 15.2009 22.0724 15.2009Z" fill="#354251"/>
<path d="M22.0724 20.5349C21.2164 20.5349 20.8074 19.8099 20.5084 19.2809C20.2224 18.7739 20.0604 18.5349 19.8154 18.5349C19.5704 18.5349 19.4084 18.7739 19.1224 19.2809C18.8234 19.8099 18.4144 20.5349 17.5584 20.5349C16.7024 20.5349 16.2934 19.8099 15.9944 19.2809C15.7084 18.7739 15.5464 18.5349 15.3014 18.5349C15.0564 18.5349 14.8944 18.7739 14.6084 19.2809C14.3094 19.8099 13.9004 20.5349 13.0444 20.5349C12.1884 20.5349 11.7794 19.8099 11.4804 19.2809C11.1944 18.7739 11.0324 18.5349 10.7874 18.5349C10.5424 18.5349 10.3804 18.7739 10.0944 19.2809C9.79542 19.8099 9.3864 20.5349 8.5304 20.5349C7.6744 20.5349 7.26543 19.8099 6.96643 19.2809C6.68043 18.7739 6.51844 18.5349 6.27344 18.5349C5.99744 18.5349 5.77344 18.3109 5.77344 18.0349C5.77344 17.7589 5.99744 17.5349 6.27344 17.5349C7.12944 17.5349 7.5384 18.2599 7.8374 18.7889C8.1234 19.2959 8.2854 19.5349 8.5304 19.5349C8.7754 19.5349 8.93739 19.2959 9.22339 18.7889C9.52239 18.2599 9.93141 17.5349 10.7874 17.5349C11.6434 17.5349 12.0524 18.2599 12.3514 18.7889C12.6374 19.2959 12.7994 19.5349 13.0444 19.5349C13.2894 19.5349 13.4514 19.2959 13.7374 18.7889C14.0364 18.2599 14.4454 17.5349 15.3014 17.5349C16.1574 17.5349 16.5664 18.2599 16.8654 18.7889C17.1514 19.2959 17.3134 19.5349 17.5584 19.5349C17.8034 19.5349 17.9654 19.2959 18.2514 18.7889C18.5504 18.2599 18.9594 17.5349 19.8154 17.5349C20.6714 17.5349 21.0804 18.2599 21.3794 18.7889C21.6654 19.2959 21.8274 19.5349 22.0724 19.5349C22.3484 19.5349 22.5724 19.7589 22.5724 20.0349C22.5724 20.3109 22.3494 20.5349 22.0724 20.5349Z" fill="#354251"/>
</svg>
