<svg width="19" height="27" viewBox="0 0 19 27" fill="none" xmlns="http://www.w3.org/2000/svg">
<path d="M0.5 4.14648L14.772 0.500488V4.14648H0.5Z" fill="#8971D0"/>
<path d="M14.7719 4.64643H0.499885C0.247885 4.64643 0.0348523 4.45845 0.00385226 4.20845C-0.0271477 3.95845 0.131862 3.72445 0.375862 3.66145L14.6478 0.0154528C14.7968 -0.0225472 14.9558 0.010442 15.0778 0.104442C15.1998 0.199442 15.2709 0.344462 15.2709 0.499462V4.14546C15.2719 4.42246 15.0479 4.64643 14.7719 4.64643ZM4.47687 3.64643H14.2719V1.14442L4.47687 3.64643Z" fill="#8971D0"/>
<path d="M17.5699 4.14648H0.5V26.2245H17.5699V4.14648Z" fill="#F0EEE6"/>
<path d="M17.5699 26.7235H0.5C0.224 26.7235 0 26.4995 0 26.2235V4.14551C0 3.86951 0.224 3.64551 0.5 3.64551H17.5699C17.8459 3.64551 18.0699 3.86951 18.0699 4.14551V26.2235C18.0699 26.4995 17.8459 26.7235 17.5699 26.7235ZM1 25.7235H17.0699V4.64551H1V25.7235Z" fill="#F0EEE6"/>
<path d="M15.1678 12.9092H3.00781V13.9092H15.1678V12.9092Z" fill="#1FAB89"/>
<path d="M9.58789 7.33032H8.58789V19.4903H9.58789V7.33032Z" fill="#1FAB89"/>
<path d="M8.93402 20.1432C7.25902 20.1432 5.654 19.5243 4.414 18.4003C4.309 18.3053 4.25 18.1713 4.25 18.0303C4.25 17.8893 4.31 17.7542 4.414 17.6592C5.654 16.5352 7.26002 15.9172 8.93402 15.9172C10.608 15.9172 12.214 16.5362 13.454 17.6592C13.559 17.7542 13.618 17.8883 13.618 18.0303C13.618 18.1713 13.558 18.3063 13.454 18.4003C12.214 19.5243 10.609 20.1432 8.93402 20.1432ZM5.539 18.0303C6.519 18.7513 7.70502 19.1432 8.93402 19.1432C10.163 19.1432 11.349 18.7513 12.329 18.0303C11.349 17.3093 10.163 16.9172 8.93402 16.9172C7.70502 16.9172 6.519 17.3093 5.539 18.0303Z" fill="#1FAB89"/>
<path d="M8.93402 10.9013C7.26002 10.9013 5.654 10.2823 4.414 9.15833C4.309 9.06333 4.25 8.92929 4.25 8.78729C4.25 8.64629 4.31 8.5113 4.414 8.4173C5.654 7.2933 7.26002 6.67529 8.93402 6.67529C10.608 6.67529 12.214 7.2943 13.454 8.4173C13.559 8.5123 13.618 8.64629 13.618 8.78729C13.618 8.92829 13.558 9.06333 13.454 9.15833C12.214 10.2833 10.608 10.9013 8.93402 10.9013ZM5.539 8.78833C6.519 9.50933 7.70502 9.90131 8.93402 9.90131C10.163 9.90131 11.349 9.50933 12.329 8.78833C11.349 8.06733 10.163 7.67529 8.93402 7.67529C7.70502 7.67529 6.519 8.06733 5.539 8.78833Z" fill="#1FAB89"/>
<path d="M10.5105 19.9425C10.4685 19.9425 10.4255 19.9375 10.3845 19.9265C7.42252 19.1545 5.35352 16.4745 5.35352 13.4105C5.35352 10.3465 7.42252 7.66643 10.3845 6.89443C10.4675 6.87243 10.5535 6.87243 10.6365 6.89443C13.5985 7.66643 15.6675 10.3465 15.6675 13.4105C15.6675 16.4745 13.5985 19.1545 10.6365 19.9265C10.5955 19.9365 10.5535 19.9425 10.5105 19.9425ZM10.5105 7.89547C8.0565 8.59547 6.35352 10.8434 6.35352 13.4094C6.35352 15.9754 8.0565 18.2235 10.5105 18.9235C12.9645 18.2235 14.6675 15.9744 14.6675 13.4094C14.6675 10.8444 12.9645 8.59547 10.5105 7.89547Z" fill="#1FAB89"/>
<path d="M7.6394 19.9425C7.5974 19.9425 7.55443 19.9375 7.51343 19.9265C4.55143 19.1545 2.48242 16.4745 2.48242 13.4105C2.48242 10.3465 4.55143 7.66643 7.51343 6.89443C7.59643 6.87243 7.68344 6.87243 7.76544 6.89443C10.7274 7.66643 12.7954 10.3465 12.7954 13.4105C12.7954 16.4745 10.7264 19.1545 7.76544 19.9265C7.72444 19.9365 7.6824 19.9425 7.6394 19.9425ZM7.6394 7.89547C5.1854 8.59547 3.48242 10.8444 3.48242 13.4094C3.48242 15.9744 5.1854 18.2235 7.6394 18.9235C10.0934 18.2235 11.7964 15.9744 11.7964 13.4094C11.7964 10.8444 10.0934 8.59547 7.6394 7.89547Z" fill="#1FAB89"/>
<path d="M13.2206 22.4504H4.85156V23.4504H13.2206V22.4504Z" fill="#1FAB89"/>
</svg>
