<svg width="15" height="29" viewBox="0 0 15 29" fill="none" xmlns="http://www.w3.org/2000/svg">
<path d="M8.89838 10.8262L7.92242 4.53418H6.71039L5.73438 10.8262" fill="#3FBAC2"/>
<path d="M8.89829 11.3262C8.65629 11.3262 8.44327 11.1502 8.40427 10.9032L7.4943 5.03418H7.13931L6.22928 10.9032C6.18728 11.1762 5.9303 11.3632 5.6583 11.3212C5.3853 11.2792 5.19827 11.0232 5.24027 10.7502L6.21628 4.45819C6.25428 4.21419 6.4643 4.03516 6.7103 4.03516H7.92227C8.16927 4.03516 8.37829 4.21519 8.41629 4.45819L9.39231 10.7502C9.43431 11.0232 9.24728 11.2782 8.97428 11.3212C8.94928 11.3242 8.92429 11.3262 8.89829 11.3262Z" fill="#3FBAC2"/>
<path d="M11.2241 18.616L9.61108 13.0081H5.02509L3.41211 18.616" fill="#3FBAC2"/>
<path d="M11.2239 19.116C11.0069 19.116 10.807 18.973 10.744 18.754L9.23493 13.5081H5.40193L3.89295 18.754C3.81695 19.019 3.53994 19.1731 3.27394 19.0961C3.00894 19.0201 2.85496 18.7431 2.93196 18.4771L4.54493 12.8691C4.60693 12.6551 4.80191 12.5071 5.02491 12.5071H9.61091C9.83391 12.5071 10.0299 12.6541 10.0919 12.8691L11.705 18.4771C11.781 18.7421 11.6279 19.0191 11.3629 19.0961C11.3159 19.1101 11.2689 19.116 11.2239 19.116Z" fill="#3FBAC2"/>
<path d="M7.31641 12.7581L6.10938 18.824H8.52338L7.31641 12.7581Z" fill="white"/>
<path d="M8.52386 19.324H6.10986C5.95986 19.324 5.8179 19.2571 5.7229 19.1411C5.6279 19.0251 5.58989 18.8731 5.61889 18.7261L6.82586 12.66C6.87286 12.426 7.07791 12.2571 7.31591 12.2571C7.55491 12.2571 7.75988 12.426 7.80688 12.66L9.01391 18.7261C9.04291 18.8731 9.00491 19.0251 8.90991 19.1411C8.81491 19.2571 8.67386 19.324 8.52386 19.324ZM6.71887 18.324H7.91388L7.31591 15.3201L6.71887 18.324Z" fill="white"/>
<path d="M2.93304 20.8162L0.498047 28.3862H3.80408C3.94808 26.0942 5.4651 24.2902 7.3161 24.2902C9.1671 24.2902 10.6841 26.0942 10.8281 28.3862H14.1341L11.6861 20.7532" fill="#3FBAC2"/>
<path d="M14.137 28.8872H10.83C10.566 28.8872 10.348 28.6821 10.331 28.4181C10.203 26.3841 8.87901 24.7912 7.31801 24.7912C5.75701 24.7912 4.43301 26.3841 4.30501 28.4181C4.28801 28.6811 4.06998 28.8872 3.80598 28.8872H0.500012C0.340012 28.8872 0.190021 28.8111 0.0960206 28.6811C0.00202061 28.5521 -0.0250009 28.3851 0.0239991 28.2331L2.459 20.6631C2.543 20.4001 2.82503 20.2551 3.08803 20.3401C3.35103 20.4241 3.49502 20.7061 3.41102 20.9691L1.18599 27.8861H3.35499C3.68799 25.5551 5.36001 23.7901 7.31801 23.7901C9.27701 23.7901 10.949 25.5541 11.281 27.8861H13.451L11.212 20.9051C11.128 20.6421 11.272 20.3611 11.535 20.2761C11.798 20.1921 12.079 20.3361 12.164 20.5991L14.613 28.2321C14.662 28.3841 14.635 28.5502 14.541 28.6792C14.446 28.8102 14.296 28.8872 14.137 28.8872Z" fill="#3FBAC2"/>
<path d="M12.9341 18.824H2.03516V20.605H12.9341V18.824Z" fill="#FFD550"/>
<path d="M12.9341 21.106H2.03516C1.75916 21.106 1.53516 20.882 1.53516 20.606V18.824C1.53516 18.548 1.75916 18.324 2.03516 18.324H12.9341C13.2101 18.324 13.4341 18.548 13.4341 18.824V20.606C13.4341 20.882 13.2101 21.106 12.9341 21.106ZM2.53516 20.106H12.4341V19.324H2.53516V20.106Z" fill="#FFD550"/>
<path d="M11.2927 10.9771H3.3457V12.7581H11.2927V10.9771Z" fill="#FFD550"/>
<path d="M11.2927 13.2581H3.3457C3.0697 13.2581 2.8457 13.0341 2.8457 12.7581V10.9771C2.8457 10.7011 3.0697 10.4771 3.3457 10.4771H11.2927C11.5687 10.4771 11.7927 10.7011 11.7927 10.9771V12.7581C11.7927 13.0341 11.5687 13.2581 11.2927 13.2581ZM3.84473 12.2581H10.7917V11.4771H3.84473V12.2581Z" fill="#FFD550"/>
<path d="M8.15759 4.89508H6.47656C6.20056 4.89508 5.97656 4.67108 5.97656 4.39508V2.61304C5.97656 2.33704 6.20056 2.11304 6.47656 2.11304H8.15759C8.43359 2.11304 8.65759 2.33704 8.65759 2.61304V4.39508C8.65759 4.67108 8.43459 4.89508 8.15759 4.89508ZM6.97656 3.89508H7.65759V3.11304H6.97656V3.89508Z" fill="#FFD550"/>
<path d="M7.81836 0H6.81836V2.61298H7.81836V0Z" fill="#FFD550"/>
</svg>
