<svg width="25" height="23" viewBox="0 0 25 23" fill="none" xmlns="http://www.w3.org/2000/svg">
<path d="M13.9018 14.9491C13.6858 14.9491 13.4878 14.8092 13.4228 14.5922L11.5308 8.25017C11.4518 7.98517 11.6018 7.70716 11.8668 7.62816C12.1318 7.54916 12.4098 7.70016 12.4888 7.96416L14.3808 14.3061C14.4598 14.5711 14.3088 14.8492 14.0448 14.9282C13.9978 14.9422 13.9498 14.9491 13.9018 14.9491Z" fill="#67C7BF"/>
<path d="M14.4782 7.35323L14.1052 6.06026C14.0292 5.79526 13.7512 5.64222 13.4862 5.71822L9.22516 6.94624C8.96016 7.02224 8.80612 7.30026 8.88312 7.56526L9.25617 8.85823C9.29317 8.98523 9.37812 9.09324 9.49512 9.15724C9.57012 9.19824 9.65313 9.21925 9.73713 9.21925C9.78413 9.21925 9.83013 9.21323 9.87513 9.19923L14.1361 7.97127C14.2641 7.93427 14.3711 7.84825 14.4351 7.73225C14.5001 7.61725 14.5152 7.48023 14.4782 7.35323Z" fill="#8471F4"/>
<path d="M16.9254 5.24712L15.5164 0.361137C15.4794 0.234137 15.3933 0.126125 15.2773 0.0621255C15.1613 -0.00187453 15.0243 -0.0168433 14.8973 0.0191567L1.75837 3.80718C1.49337 3.88318 1.33933 4.16114 1.41633 4.42614L1.91034 6.13915C1.93734 6.23415 1.99236 6.31913 2.06836 6.38213L5.10334 8.94518C5.19434 9.02218 5.30934 9.06316 5.42634 9.06316C5.47234 9.06316 5.51934 9.05614 5.56434 9.04314L16.5844 5.86614C16.8484 5.79014 17.0014 5.51312 16.9254 5.24712Z" fill="#8471F4"/>
<path d="M2.06855 6.3811C1.99255 6.3171 1.93859 6.23312 1.91059 6.13812L1.61158 5.1001L0.36158 5.46008C0.23358 5.49708 0.126568 5.5831 0.0625685 5.6991C-0.00143151 5.8151 -0.0174003 5.9521 0.0195997 6.0791L0.872566 9.03711C0.935566 9.25611 1.13555 9.39911 1.35255 9.39911C1.39855 9.39911 1.44458 9.39309 1.49158 9.37909L4.56757 8.49213L2.06855 6.3811Z" fill="#FFD550"/>
<path d="M2.06897 6.3811C1.99297 6.3171 1.93901 6.23312 1.91101 6.13812L1.612 5.1001L0.917969 5.30011L1.21698 6.33807C1.24398 6.43307 1.299 6.51809 1.375 6.58209L3.87299 8.69208L1.48901 9.37909H1.49097L4.56702 8.49213L2.06897 6.3811Z" fill="#80D1ED"/>
<path d="M16.9263 5.24712L15.5173 0.361137C15.4803 0.234137 15.3943 0.126125 15.2783 0.0621255C15.1623 -0.00187453 15.0253 -0.0168433 14.8983 0.0191567L1.75928 3.80718C1.66828 3.83318 1.59125 3.88513 1.53125 3.95013L12.4982 0.789176C12.6252 0.752176 12.7622 0.768145 12.8782 0.832145C12.9942 0.896145 13.0802 1.00416 13.1172 1.13116L14.5262 6.01714C14.5762 6.19114 14.5262 6.36916 14.4122 6.49316L16.5842 5.86718C16.8492 5.79018 17.0023 5.51312 16.9263 5.24712Z" fill="#8471F4"/>
<path d="M12.6167 4.01703C12.3997 4.01703 12.1997 3.87403 12.1367 3.65503C12.0607 3.39003 12.2137 3.11302 12.4787 3.03602L13.7917 2.65803C14.0577 2.58103 14.3337 2.73507 14.4107 3.00007C14.4867 3.26507 14.3337 3.54202 14.0687 3.61902L12.7557 3.99701C12.7087 4.01001 12.6627 4.01703 12.6167 4.01703Z" fill="white"/>
<path d="M4.94679 6.22817C4.72979 6.22817 4.52975 6.08517 4.46675 5.86617C4.39075 5.60117 4.54379 5.32415 4.80879 5.24715L9.85774 3.7922C10.1227 3.7162 10.4008 3.86918 10.4768 4.13418C10.5538 4.39918 10.3998 4.67619 10.1348 4.75319L5.08577 6.20821C5.03877 6.22221 4.99279 6.22817 4.94679 6.22817Z" fill="white"/>
<path d="M14.5281 14.374C13.5691 14.374 12.7891 15.154 12.7891 16.113C12.7891 17.072 13.5691 17.8521 14.5281 17.8521C15.4871 17.8521 16.2671 17.072 16.2671 16.113C16.2671 15.154 15.4871 14.374 14.5281 14.374Z" fill="#8471F4"/>
<path d="M22.2476 16.6123H15.7676C15.4916 16.6123 15.2676 16.3883 15.2676 16.1123C15.2676 15.8363 15.4916 15.6123 15.7676 15.6123H22.2476C22.5236 15.6123 22.7476 15.8363 22.7476 16.1123C22.7476 16.3883 22.5236 16.6123 22.2476 16.6123Z" fill="#67C7BF"/>
<path d="M24.4641 10.3191H22.2461C21.9701 10.3191 21.7461 10.5431 21.7461 10.8191V21.9111C21.7461 22.1871 21.9701 22.4111 22.2461 22.4111H24.4641C24.7401 22.4111 24.9641 22.1871 24.9641 21.9111V10.8191C24.9641 10.5431 24.7401 10.3191 24.4641 10.3191Z" fill="#8471F4"/>
<path d="M24.4648 10.3191H23.1328C23.4088 10.3191 23.6328 10.5431 23.6328 10.8191V21.9111C23.6328 22.1871 23.4088 22.4111 23.1328 22.4111H24.4648C24.7408 22.4111 24.9648 22.1871 24.9648 21.9111V10.8191C24.9648 10.5431 24.7408 10.3191 24.4648 10.3191Z" fill="#3D525E"/>
</svg>
