<svg width="29" height="29" viewBox="0 0 29 29" fill="none" xmlns="http://www.w3.org/2000/svg">
<path d="M14.3949 21.2029C18.1543 21.2029 21.2019 18.1553 21.2019 14.3959C21.2019 10.6365 18.1543 7.58887 14.3949 7.58887C10.6355 7.58887 7.58789 10.6365 7.58789 14.3959C7.58789 18.1553 10.6355 21.2029 14.3949 21.2029Z" fill="#FFD550"/>
<path d="M14.3949 21.7038C10.3659 21.7038 7.08789 18.4259 7.08789 14.3969C7.08789 10.3679 10.3659 7.08984 14.3949 7.08984C18.4239 7.08984 21.7019 10.3679 21.7019 14.3969C21.7019 18.4259 18.4239 21.7038 14.3949 21.7038ZM14.3949 8.08881C10.9169 8.08881 8.08789 10.9188 8.08789 14.3958C8.08789 17.8728 10.9179 20.7028 14.3949 20.7028C17.8729 20.7028 20.7019 17.8738 20.7019 14.3958C20.7019 10.9178 17.8729 8.08881 14.3949 8.08881Z" fill="#FFD550"/>
<path d="M18.8398 13.6719C18.6198 13.6719 18.4188 13.5259 18.3578 13.3039C17.9418 11.7899 16.6758 10.6319 15.1318 10.3529C14.8598 10.3039 14.6797 10.0439 14.7287 9.77189C14.7777 9.49989 15.0377 9.31988 15.3097 9.36888C17.2297 9.71588 18.8048 11.1559 19.3218 13.0389C19.3948 13.3049 19.2387 13.5799 18.9717 13.6539C18.9277 13.6659 18.8838 13.6719 18.8398 13.6719Z" fill="#8471F4"/>
<path d="M4.05298 14.896H0.5C0.224 14.896 0 14.672 0 14.396C0 14.12 0.224 13.896 0.5 13.896H4.05298C4.32898 13.896 4.55298 14.12 4.55298 14.396C4.55298 14.672 4.32898 14.896 4.05298 14.896Z" fill="#8471F4"/>
<path d="M28.2913 14.896H24.7383C24.4623 14.896 24.2383 14.672 24.2383 14.396C24.2383 14.12 24.4623 13.896 24.7383 13.896H28.2913C28.5673 13.896 28.7913 14.12 28.7913 14.396C28.7913 14.672 28.5673 14.896 28.2913 14.896Z" fill="#8471F4"/>
<path d="M4.56861 24.7232C4.44061 24.7232 4.31261 24.6742 4.21461 24.5772C4.01961 24.3822 4.01961 24.0651 4.21461 23.8701L6.72761 21.3582C6.92261 21.1632 7.23964 21.1632 7.43464 21.3582C7.62964 21.5532 7.62964 21.8701 7.43464 22.0651L4.92262 24.5781C4.82462 24.6741 4.69661 24.7232 4.56861 24.7232Z" fill="#8471F4"/>
<path d="M21.7092 7.58302C21.5812 7.58302 21.4532 7.53402 21.3552 7.43702C21.1602 7.24202 21.1602 6.92499 21.3552 6.72999L23.8682 4.21803C24.0632 4.02303 24.3802 4.02303 24.5752 4.21803C24.7702 4.41303 24.7702 4.73 24.5752 4.925L22.0622 7.43702C21.9652 7.53402 21.8372 7.58302 21.7092 7.58302Z" fill="#8471F4"/>
<path d="M14.3945 28.793C14.1185 28.793 13.8945 28.569 13.8945 28.293V24.74C13.8945 24.464 14.1185 24.24 14.3945 24.24C14.6705 24.24 14.8945 24.464 14.8945 24.74V28.293C14.8945 28.569 14.6705 28.793 14.3945 28.793Z" fill="#8471F4"/>
<path d="M14.3945 4.55298C14.1185 4.55298 13.8945 4.32898 13.8945 4.05298V0.5C13.8945 0.224 14.1185 0 14.3945 0C14.6705 0 14.8945 0.224 14.8945 0.5V4.05298C14.8945 4.32898 14.6705 4.55298 14.3945 4.55298Z" fill="#8471F4"/>
<path d="M24.2222 24.723C24.0942 24.723 23.9662 24.674 23.8682 24.577L21.3552 22.064C21.1602 21.869 21.1602 21.5519 21.3552 21.3569C21.5502 21.1619 21.8673 21.1619 22.0623 21.3569L24.5753 23.869C24.7703 24.064 24.7703 24.3809 24.5753 24.5759C24.4783 24.6739 24.3502 24.723 24.2222 24.723Z" fill="#8471F4"/>
<path d="M7.08161 7.58302C6.95361 7.58302 6.82561 7.53402 6.72761 7.43702L4.21461 4.925C4.01961 4.73 4.01961 4.41303 4.21461 4.21803C4.40961 4.02303 4.72658 4.02303 4.92158 4.21803L7.4336 6.72999C7.6286 6.92499 7.6286 7.24202 7.4336 7.43702C7.3376 7.53402 7.20961 7.58302 7.08161 7.58302Z" fill="#8471F4"/>
</svg>
