<svg width="17" height="26" viewBox="0 0 17 26" fill="none" xmlns="http://www.w3.org/2000/svg">
<path d="M13.07 24.958H3.224C1.72 24.958 0.5 23.739 0.5 22.234V2.75598C0.5 1.50998 1.51001 0.5 2.75601 0.5H13.537C14.783 0.5 15.793 1.50998 15.793 2.75598V22.234C15.794 23.739 14.575 24.958 13.07 24.958Z" fill="#FFD550"/>
<path d="M13.5378 0.500977H9.93677C11.1828 0.500977 12.1927 1.51096 12.1927 2.75696V22.235C12.1927 23.739 10.9737 24.959 9.46875 24.959H13.0698C14.5738 24.959 15.7938 23.74 15.7938 22.235V2.75696C15.7938 1.51096 14.7838 0.500977 13.5378 0.500977Z" fill="#80D1ED"/>
<path d="M13.072 25.458H3.22595C1.44795 25.458 0.00195312 24.012 0.00195312 22.234V2.75598C0.00195312 1.23598 1.23797 0 2.75797 0H13.5389C15.0589 0 16.295 1.23598 16.295 2.75598V22.234C16.295 24.012 14.849 25.458 13.072 25.458ZM2.75797 1.00098C1.78997 1.00098 1.00195 1.78896 1.00195 2.75696V22.235C1.00195 23.461 1.99895 24.459 3.22595 24.459H13.072C14.298 24.459 15.296 23.462 15.296 22.235V2.75696C15.296 1.78896 14.5079 1.00098 13.5399 1.00098H2.75797Z" fill="#8471F4"/>
<path d="M15.794 20.188H0.5C0.224 20.188 0 20.412 0 20.688V22.235C0 24.013 1.446 25.459 3.224 25.459H13.07C14.847 25.459 16.294 24.013 16.294 22.235V20.688C16.294 20.411 16.07 20.188 15.794 20.188Z" fill="#8471F4"/>
<path d="M13.5389 0.000976562H2.75797C1.23797 0.000976562 0.00195312 1.23696 0.00195312 2.75696V3.67896C0.00195312 3.95496 0.225953 4.17896 0.501953 4.17896H15.796C16.072 4.17896 16.296 3.95496 16.296 3.67896V2.75696C16.295 1.23696 15.0589 0.000976562 13.5389 0.000976562Z" fill="#8471F4"/>
<path d="M10.1628 23.2109H6.13281C5.85681 23.2109 5.63281 22.9869 5.63281 22.7109C5.63281 22.4349 5.85681 22.2109 6.13281 22.2109H10.1628C10.4388 22.2109 10.6628 22.4349 10.6628 22.7109C10.6628 22.9869 10.4388 23.2109 10.1628 23.2109Z" fill="#8471F4"/>
<path d="M12.7466 15.4149C12.6806 15.3099 12.5786 15.2329 12.4596 15.1989L11.7146 14.9868C11.7336 14.8428 11.7446 14.6959 11.7446 14.5459V13.8839L12.2216 13.9699L13.4506 14.8219C13.5376 14.8819 13.6366 14.9109 13.7346 14.9109C13.8926 14.9109 14.0486 14.8358 14.1456 14.6958C14.3026 14.4688 14.2466 14.1579 14.0196 13.9999L12.7016 13.0858C12.6426 13.0448 12.5756 13.0179 12.5056 13.0049L11.7436 12.8668V12.4479C11.7436 12.2719 11.7286 12.0979 11.7016 11.9279L13.0496 11.2619C13.1366 11.2189 13.2096 11.1519 13.2586 11.0679L13.9446 9.90591C14.0846 9.66791 14.0056 9.36185 13.7686 9.22085C13.5306 9.08085 13.2246 9.15987 13.0836 9.39687L12.4726 10.4309L11.3896 10.9658C11.1966 10.5838 10.9276 10.2409 10.5926 9.95388C10.3306 9.48488 9.94762 9.11089 9.49262 8.86489L9.62461 8.45583L10.3906 7.93093C10.6186 7.77493 10.6766 7.46386 10.5206 7.23586C10.3646 7.00786 10.0536 6.94986 9.82563 7.10586L8.91861 7.72683C8.82761 7.78983 8.75962 7.88086 8.72562 7.98586L8.5416 8.55483C8.4186 8.53883 8.29361 8.52993 8.16761 8.52993C8.04161 8.52993 7.91661 8.53883 7.79361 8.55483L7.60962 7.98586C7.57562 7.88086 7.5076 7.78983 7.4166 7.72683L6.50962 7.10586C6.28162 6.94986 5.97061 7.00786 5.81461 7.23586C5.65861 7.46386 5.71661 7.77493 5.94461 7.93093L6.71061 8.45583L6.84262 8.86489C6.38762 9.11089 6.00562 9.48488 5.74262 9.95388C5.40462 10.2429 5.13361 10.5908 4.93961 10.9768L3.83362 10.4298L3.2226 9.3959C3.0816 9.1579 2.7756 9.07887 2.5376 9.21987C2.2996 9.36087 2.22061 9.66693 2.36161 9.90493L3.04761 11.0669C3.09661 11.1509 3.16963 11.2179 3.25663 11.2609L4.63163 11.9409C4.60563 12.1069 4.59162 12.2759 4.59162 12.4469V12.8609L3.79963 13.0039C3.72963 13.0169 3.66261 13.0439 3.60361 13.0849L2.28562 13.9989C2.05862 14.1559 2.00261 14.4678 2.15961 14.6948C2.25661 14.8348 2.41262 14.9099 2.57062 14.9099C2.66862 14.9099 2.76863 14.8808 2.85563 14.8208L4.0846 13.9689L4.59162 13.8769V14.5448C4.59162 14.6898 4.60161 14.8329 4.62061 14.9729L3.82862 15.1979C3.70962 15.2319 3.6076 15.3088 3.5416 15.4138L2.12861 17.6729C1.98261 17.9069 2.0536 18.2158 2.2876 18.3618C2.3696 18.4138 2.46162 18.4379 2.55262 18.4379C2.71962 18.4379 2.8816 18.3549 2.9766 18.2029L4.2876 16.1068L4.8996 15.9329C5.4236 17.0519 6.55961 17.8289 7.87461 17.8289H8.4556C9.7656 17.8289 10.8986 17.0578 11.4246 15.9448L11.9946 16.1068L13.3056 18.2029C13.4006 18.3549 13.5636 18.4379 13.7296 18.4379C13.8206 18.4379 13.9116 18.4128 13.9946 18.3618C14.2286 18.2158 14.2996 17.9069 14.1536 17.6729L12.7466 15.4149ZM9.06961 9.77285H7.27262C7.53962 9.61685 7.8476 9.52993 8.1706 9.52993C8.4946 9.53093 8.80261 9.61685 9.06961 9.77285ZM5.5976 14.5469V12.4489C5.5976 11.8079 5.8626 11.2059 6.3306 10.7729H7.6716V16.8198C6.5096 16.7138 5.5976 15.7349 5.5976 14.5469ZM8.6716 16.8198V10.7729H10.0126C10.4806 11.2049 10.7456 11.8069 10.7456 12.4489V14.5469C10.7446 15.7349 9.8326 16.7138 8.6716 16.8198Z" fill="white"/>
</svg>
