<svg width="25" height="28" viewBox="0 0 25 28" fill="none" xmlns="http://www.w3.org/2000/svg">
<path d="M23.2088 18.9028C22.4328 18.9028 21.8008 19.9448 21.8008 21.2258C21.8008 22.2028 22.5698 24.7069 22.8058 25.4509C22.8838 25.6979 23.0398 25.8539 23.2088 25.8539C23.3778 25.8539 23.5328 25.6989 23.6118 25.4509C23.8478 24.7069 24.6168 22.2028 24.6168 21.2258C24.6168 19.9448 23.9848 18.9028 23.2088 18.9028Z" fill="#FFD550"/>
<path d="M23.9158 2.98486H22.5029C22.2519 2.98486 22.0488 3.32086 22.0488 3.73486V19.0428C22.0488 19.4568 22.2519 19.7928 22.5029 19.7928H23.9158C24.1668 19.7928 24.3699 19.4568 24.3699 19.0428V3.73486C24.3699 3.32086 24.1668 2.98486 23.9158 2.98486Z" fill="#FFD550"/>
<path d="M23.9158 2.98486H22.5029C22.2519 2.98486 22.0488 3.32086 22.0488 3.73486V7.26086H24.3708V3.73486C24.3698 3.32086 24.1668 2.98486 23.9158 2.98486Z" fill="#FFD550"/>
<path d="M17.0773 21.271C15.4573 19.119 14.6013 16.554 14.6013 13.852C14.6013 11.151 15.4573 8.58598 17.0773 6.43298C18.0013 5.20598 18.1513 3.59201 17.4693 2.22101C16.7903 0.855008 15.4183 0.00500005 13.8893 4.69902e-08C13.8233 4.69902e-08 13.7573 -2.33905e-05 13.6913 0.00097661C10.0543 0.0419766 6.62933 1.49397 4.04533 4.08997C1.46233 6.68497 0.0253487 10.117 0.000348654 13.754C-0.0256513 17.473 1.4033 20.974 4.0233 23.612C6.6433 26.25 10.1333 27.703 13.8513 27.703H13.9274C15.4404 27.695 16.7983 26.847 17.4703 25.49C18.1523 24.115 18.0013 22.498 17.0773 21.271Z" fill="#8471F4"/>
<path d="M10.1111 8.82184C11.4636 8.82184 12.5601 7.72541 12.5601 6.37286C12.5601 5.02032 11.4636 3.92383 10.1111 3.92383C8.75854 3.92383 7.66211 5.02032 7.66211 6.37286C7.66211 7.72541 8.75854 8.82184 10.1111 8.82184Z" fill="#A792FC"/>
<path d="M10.1111 17.8438C8.76108 17.8438 7.66211 18.9427 7.66211 20.2927C7.66211 21.6427 8.76108 22.7418 10.1111 22.7418C11.4621 22.7418 12.5601 21.6427 12.5601 20.2927C12.5601 18.9427 11.4611 17.8438 10.1111 17.8438Z" fill="#A792FC"/>
<path d="M6.03186 16.9841C8.04825 16.9841 9.68286 15.3495 9.68286 13.3331C9.68286 11.3167 8.04825 9.68213 6.03186 9.68213C4.01547 9.68213 2.38086 11.3167 2.38086 13.3331C2.38086 15.3495 4.01547 16.9841 6.03186 16.9841Z" fill="#FFD550"/>
</svg>
