<svg width="27" height="29" viewBox="0 0 27 29" fill="none" xmlns="http://www.w3.org/2000/svg">
<path d="M11.3386 6.315H15.0626C15.4496 6.315 15.7627 6.00199 15.7627 5.61499V0.700012C15.7627 0.313012 15.4496 0 15.0626 0H11.3386C10.9516 0 10.6387 0.313012 10.6387 0.700012V5.61499C10.6387 6.00099 10.9526 6.315 11.3386 6.315Z" fill="#A792FC"/>
<path d="M11.3386 13.911H15.0626C15.4496 13.911 15.7627 13.598 15.7627 13.211V10.483C15.7627 10.096 15.4496 9.78296 15.0626 9.78296H11.3386C10.9516 9.78296 10.6387 10.096 10.6387 10.483V13.211C10.6387 13.597 10.9526 13.911 11.3386 13.911Z" fill="#A792FC"/>
<path d="M19.3373 27.1809H15.7633V18.0779C15.7633 17.6909 15.4502 17.3779 15.0632 17.3779H11.3392C10.9522 17.3779 10.6393 17.6909 10.6393 18.0779V27.1809H7.06531C6.67831 27.1809 6.36523 27.4939 6.36523 27.8809C6.36523 28.2679 6.67831 28.5809 7.06531 28.5809H11.3392H15.0632H19.3373C19.7243 28.5809 20.0372 28.2679 20.0372 27.8809C20.0372 27.4939 19.7233 27.1809 19.3373 27.1809Z" fill="#A792FC"/>
<path d="M25.7832 7.47906L22.3662 5.04504C22.2472 4.96004 22.1062 4.91504 21.9602 4.91504H4.44019C4.05319 4.91504 3.74023 5.22805 3.74023 5.61505V10.483C3.74023 10.87 4.05319 11.183 4.44019 11.183H21.9602C22.1062 11.183 22.2482 11.138 22.3662 11.053L25.7832 8.61902C25.9672 8.48802 26.0771 8.27507 26.0771 8.04907C26.0771 7.82307 25.9672 7.61006 25.7832 7.47906Z" fill="#FFD550"/>
<path d="M21.637 12.5107H4.11694C3.97094 12.5107 3.82994 12.5557 3.71094 12.6407L0.293945 15.0748C0.109945 15.2058 0 15.4187 0 15.6447C0 15.8707 0.108945 16.0837 0.293945 16.2147L3.71094 18.6487C3.82994 18.7327 3.97094 18.7787 4.11694 18.7787H21.637C22.024 18.7787 22.3369 18.4657 22.3369 18.0787V13.2108C22.3369 12.8238 22.023 12.5107 21.637 12.5107Z" fill="#8471F4"/>
</svg>
