<svg width="25" height="30" viewBox="0 0 25 30" fill="none" xmlns="http://www.w3.org/2000/svg">
<path d="M24.1937 3.64697H6.13965C5.86365 3.64697 5.63965 3.87097 5.63965 4.14697V13.655C5.63965 13.849 5.75065 14.0179 5.91165 14.0999C6.74665 14.8659 7.82466 15.2859 8.96066 15.2859C9.78766 15.2859 10.5836 15.0629 11.2776 14.6469V21.5479C11.2776 23.8329 7.42066 26.0639 5.93466 26.7299C5.75466 26.8109 5.63867 26.989 5.63867 27.186V28.804C5.63867 29.08 5.86267 29.304 6.13867 29.304H24.1927C24.4687 29.304 24.6927 29.08 24.6927 28.804V4.14496C24.6937 3.86996 24.4697 3.64697 24.1937 3.64697Z" fill="#FFD550"/>
<path d="M8.39062 15.2499V14.6479C8.11362 14.8139 7.82063 14.9479 7.51562 15.0499C7.79862 15.1449 8.09163 15.2119 8.39062 15.2499Z" fill="#80D1ED"/>
<path d="M24.1946 3.64697H21.3066C21.5826 3.64697 21.8066 3.87097 21.8066 4.14697V28.806C21.8066 29.082 21.5826 29.306 21.3066 29.306H24.1946C24.4706 29.306 24.6946 29.082 24.6946 28.806V4.14697C24.6946 3.86997 24.4706 3.64697 24.1946 3.64697Z" fill="#80D1ED"/>
<path d="M15.1676 4.54803C13.9136 4.54803 12.8926 3.52805 12.8926 2.27405C12.8926 1.02005 13.9126 0 15.1676 0C16.4226 0 17.4416 1.02005 17.4416 2.27405C17.4416 3.52805 16.4216 4.54803 15.1676 4.54803ZM15.1676 0.999023C14.4646 0.999023 13.8926 1.57101 13.8926 2.27301C13.8926 2.97601 14.4646 3.547 15.1676 3.547C15.8706 3.547 16.4416 2.97501 16.4416 2.27301C16.4416 1.57101 15.8696 0.999023 15.1676 0.999023Z" fill="#8471F4"/>
<path d="M20.3969 3.54785H10.127C9.85095 3.54785 9.62695 3.77185 9.62695 4.04785V7.49982C9.62695 7.77582 9.85095 7.99982 10.127 7.99982H20.3969C20.6729 7.99982 20.8969 7.77582 20.8969 7.49982V4.04785C20.8969 3.77185 20.6729 3.54785 20.3969 3.54785Z" fill="#CED7E3"/>
<path d="M20.3961 3.54785H18.2852C18.5612 3.54785 18.7852 3.77185 18.7852 4.04785V7.49982C18.7852 7.77582 18.5612 7.99982 18.2852 7.99982H20.3961C20.6721 7.99982 20.8961 7.77582 20.8961 7.49982V4.04785C20.8961 3.77185 20.6721 3.54785 20.3961 3.54785Z" fill="#BFC8D1"/>
<path d="M11.778 13.155H11.754C11.624 13.155 11.5 13.205 11.406 13.296C10.746 13.935 9.878 14.287 8.961 14.287C8.044 14.287 7.17599 13.935 6.51599 13.296C6.42299 13.206 6.298 13.155 6.168 13.155H6.10999C5.97999 13.155 5.85499 13.205 5.76199 13.296C5.10199 13.935 4.23399 14.287 3.31699 14.287C2.39999 14.287 1.53201 13.935 0.872009 13.296C0.779009 13.206 0.653987 13.155 0.523987 13.155H0.5C0.224 13.155 0 13.379 0 13.655V21.5491C0 24.9481 5.692 27.536 5.935 27.644C6 27.673 6.07001 27.688 6.13901 27.688C6.20901 27.688 6.27799 27.673 6.34299 27.644C6.58499 27.535 12.277 24.9481 12.277 21.5491V13.655C12.278 13.379 12.054 13.155 11.778 13.155Z" fill="#8471F4"/>
<path d="M7.16223 14.287C7.47023 14.287 7.77126 14.246 8.06226 14.17C7.48626 14.018 6.95524 13.721 6.51724 13.296C6.42424 13.206 6.29925 13.155 6.16925 13.155H6.11124C5.98124 13.155 5.85624 13.205 5.76324 13.296C5.60024 13.453 5.42523 13.593 5.24023 13.715C5.80723 14.087 6.47023 14.287 7.16223 14.287Z" fill="#8471F4"/>
<path d="M1.517 14.287C1.825 14.287 2.12599 14.246 2.41699 14.17C1.84099 14.018 1.31001 13.721 0.872009 13.296C0.779009 13.206 0.653987 13.155 0.523987 13.155H0.5C0.224 13.155 0 13.379 0 13.655V13.943C0.469 14.167 0.984998 14.287 1.517 14.287Z" fill="#8471F4"/>
<path d="M11.7773 13.155H11.7533C11.6233 13.155 11.4993 13.205 11.4053 13.296C11.1283 13.564 10.8153 13.781 10.4773 13.943V21.55C10.4773 24.278 6.81128 26.483 5.23828 27.303C5.62528 27.505 5.8863 27.623 5.9343 27.645C5.9993 27.674 6.06931 27.6891 6.13831 27.6891C6.20831 27.6891 6.27729 27.674 6.34229 27.645C6.58429 27.536 12.2763 24.949 12.2763 21.55V13.656C12.2773 13.379 12.0533 13.155 11.7773 13.155Z" fill="#8471F4"/>
<path d="M8.94812 19.5491H6.63812V17.239C6.63812 16.963 6.41412 16.739 6.13812 16.739C5.86212 16.739 5.63812 16.963 5.63812 17.239V19.5491H3.32812C3.05213 19.5491 2.82812 19.7731 2.82812 20.0491C2.82812 20.3251 3.05213 20.5491 3.32812 20.5491H5.63812V22.858C5.63812 23.134 5.86212 23.358 6.13812 23.358C6.41412 23.358 6.63812 23.134 6.63812 22.858V20.5491H8.94812C9.22412 20.5491 9.44812 20.3251 9.44812 20.0491C9.44812 19.7731 9.22412 19.5491 8.94812 19.5491Z" fill="#8471F4"/>
</svg>
