<svg width="29" height="14" viewBox="0 0 29 14" fill="none" xmlns="http://www.w3.org/2000/svg">
<path d="M18.3325 0.583594L16.0065 1.03354C14.8315 1.26054 13.6234 1.26054 12.4474 1.03354L10.1215 0.583594C7.34746 0.0475936 4.77148 2.17257 4.77148 4.99857V12.8266H23.6824V4.99857C23.6824 2.17257 21.1065 0.0465936 18.3325 0.583594Z" fill="#7098DA"/>
<path d="M23.6824 13.3257H4.77148C4.49548 13.3257 4.27148 13.1017 4.27148 12.8257V4.99766C4.27148 3.50066 4.93346 2.09665 6.08746 1.14365C7.24146 0.190653 8.74649 -0.192349 10.2165 0.0916508L12.5425 0.541663C13.6605 0.757663 14.7934 0.757663 15.9114 0.541663L18.2375 0.0916508C19.7065 -0.192349 21.2115 0.190653 22.3665 1.14365C23.5205 2.09665 24.1824 3.50066 24.1824 4.99766V12.8257C24.1824 13.1017 23.9584 13.3257 23.6824 13.3257ZM5.27045 12.3257H23.1815V4.99766C23.1815 3.80066 22.6515 2.67665 21.7285 1.91465C20.8055 1.15265 19.6015 0.845645 18.4265 1.07365L16.1005 1.52366C14.8565 1.76366 13.5955 1.76366 12.3525 1.52366L10.0265 1.07365C8.85149 0.846645 7.64749 1.15265 6.72449 1.91465C5.80149 2.67665 5.27148 3.79966 5.27148 4.99766V12.3257H5.27045Z" fill="#7098DA"/>
<path d="M28.452 12.3257H0V13.3257H28.452V12.3257Z" fill="#FFD550"/>
<path d="M23.6824 9.24765V4.99765C23.6824 2.17165 21.1065 0.0466073 18.3325 0.582607L16.0065 1.03262C14.8315 1.25962 13.6234 1.25962 12.4474 1.03262L10.1215 0.582607C7.34746 0.0466073 4.77148 2.17165 4.77148 4.99765V9.24765H23.6824Z" fill="#FFD550"/>
<path d="M23.6824 9.74766H4.77148C4.49548 9.74766 4.27148 9.52366 4.27148 9.24766V4.99766C4.27148 3.50066 4.93346 2.09665 6.08746 1.14365C7.24146 0.190653 8.74649 -0.192349 10.2165 0.0916508L12.5425 0.541663C13.6605 0.757663 14.7934 0.757663 15.9114 0.541663L18.2375 0.0916508C19.7075 -0.192349 21.2115 0.190653 22.3665 1.14365C23.5205 2.09565 24.1824 3.50066 24.1824 4.99766V9.24766C24.1824 9.52366 23.9584 9.74766 23.6824 9.74766ZM5.27045 8.74766H23.1815V4.99766C23.1815 3.80066 22.6515 2.67665 21.7285 1.91465C20.8055 1.15265 19.6015 0.845645 18.4265 1.07365L16.1005 1.52366C14.8565 1.76366 13.5955 1.76366 12.3525 1.52366L10.0265 1.07365C8.85149 0.846645 7.64749 1.15265 6.72449 1.91465C5.80149 2.67665 5.27148 3.79966 5.27148 4.99766V8.74766H5.27045Z" fill="#FFD550"/>
</svg>
