<svg width="21" height="24" viewBox="0 0 21 24" fill="none" xmlns="http://www.w3.org/2000/svg">
<path d="M19.606 0.0012207H19.566C19.436 0.0012207 19.311 0.0512119 19.218 0.142212C18.035 1.28821 16.478 1.91821 14.834 1.91821C13.19 1.91821 11.633 1.28721 10.45 0.142212C10.357 0.0522119 10.232 0.0012207 10.102 0.0012207H10.004C9.874 0.0012207 9.74901 0.0512119 9.65601 0.142212C8.47301 1.28821 6.916 1.91821 5.272 1.91821C3.628 1.91821 2.071 1.28721 0.888 0.142212C0.795 0.0522119 0.670009 0.0012207 0.540009 0.0012207H0.5C0.224 0.0012207 0 0.225221 0 0.501221V13.8741C0 19.4101 9.44599 23.7022 9.84799 23.8832C9.91299 23.9122 9.983 23.9271 10.052 23.9271C10.122 23.9271 10.191 23.9122 10.256 23.8832C10.658 23.7032 20.104 19.4101 20.104 13.8741V0.501221C20.106 0.225221 19.882 0.0012207 19.606 0.0012207Z" fill="#FFD550"/>
<path d="M11.1104 1.91809C11.7504 1.91809 12.3764 1.82108 12.9724 1.63708C12.0364 1.34808 11.1734 0.840991 10.4504 0.140991C10.3574 0.0509912 10.2324 0 10.1024 0H10.0044C9.87443 0 9.74943 0.0499912 9.65643 0.140991C9.21543 0.567991 8.72141 0.924026 8.19141 1.20203C9.08241 1.67003 10.0794 1.91809 11.1104 1.91809Z" fill="#80D1ED"/>
<path d="M1.54996 1.91809C2.18896 1.91809 2.81596 1.82108 3.41196 1.63708C2.47596 1.34808 1.61295 0.840991 0.889954 0.140991C0.796954 0.0509912 0.671962 0 0.541962 0H0.501953C0.225953 0 0.00195312 0.224 0.00195312 0.5V1.7251C0.501953 1.8521 1.02096 1.91809 1.54996 1.91809Z" fill="#80D1ED"/>
<path d="M19.6054 0.000976562H19.5654C19.4354 0.000976562 19.3104 0.0509678 19.2174 0.141968C18.4144 0.918968 17.4394 1.45895 16.3814 1.72595V13.8739C16.3814 18.0509 11.0034 21.52 8.19141 23.049C9.10641 23.546 9.75043 23.8379 9.84943 23.8829C9.91443 23.9119 9.98441 23.9269 10.0534 23.9269C10.1234 23.9269 10.1924 23.9119 10.2574 23.8829C10.6594 23.7029 20.1054 19.4099 20.1054 13.8739V0.500977C20.1054 0.224977 19.8814 0.000976562 19.6054 0.000976562Z" fill="#80D1ED"/>
<path d="M13.2771 17.7362H6.83008C6.55408 17.7362 6.33008 17.5122 6.33008 17.2362V11.9631C6.33008 11.6871 6.55408 11.4631 6.83008 11.4631H13.2771C13.5531 11.4631 13.7771 11.6871 13.7771 11.9631V17.2362C13.7771 17.5132 13.5531 17.7362 13.2771 17.7362ZM7.33008 16.7362H12.7771V12.4631H7.33008V16.7362Z" fill="#8471F4"/>
<path d="M12.4841 12.4641H7.62305C7.34705 12.4641 7.12305 12.2401 7.12305 11.9641V9.12219C7.12305 7.50619 8.43807 6.19214 10.0531 6.19214C11.6691 6.19214 12.9831 7.50719 12.9831 9.12219V11.9641C12.9841 12.2401 12.7601 12.4641 12.4841 12.4641ZM8.12305 11.4641H11.9841V9.12219C11.9841 8.05819 11.118 7.19214 10.054 7.19214C8.99005 7.19214 8.12405 8.05819 8.12405 9.12219V11.4641H8.12305Z" fill="#8471F4"/>
<path d="M13.2771 11.4641H6.83008C6.55408 11.4641 6.33008 11.6881 6.33008 11.9641V17.2372C6.33008 17.5132 6.55408 17.7372 6.83008 17.7372H13.2771C13.5531 17.7372 13.7771 17.5132 13.7771 17.2372V11.9641C13.7771 11.6871 13.5531 11.4641 13.2771 11.4641Z" fill="#FFD550"/>
<path d="M13.2761 11.4641H11.4141C11.6901 11.4641 11.9141 11.6881 11.9141 11.9641V17.2372C11.9141 17.5132 11.6901 17.7372 11.4141 17.7372H13.2761C13.5521 17.7372 13.7761 17.5132 13.7761 17.2372V11.9641C13.7761 11.6871 13.5521 11.4641 13.2761 11.4641Z" fill="#8471F4"/>
<path d="M11.1572 13.9971C11.1572 13.3891 10.6622 12.894 10.0542 12.894C9.44617 12.894 8.95117 13.3891 8.95117 13.9971C8.95117 14.4251 9.19717 14.796 9.55417 14.979V15.7931C9.55417 16.0691 9.77817 16.2931 10.0542 16.2931C10.3302 16.2931 10.5542 16.0691 10.5542 15.7931V14.979C10.9112 14.796 11.1572 14.4251 11.1572 13.9971ZM10.0542 13.894C10.1112 13.894 10.1572 13.9401 10.1572 13.9971C10.1572 14.0541 10.1112 14.1001 10.0542 14.1001C9.99717 14.1001 9.95117 14.0541 9.95117 13.9971C9.95017 13.9401 9.99717 13.894 10.0542 13.894Z" fill="white"/>
</svg>
