<svg width="29" height="30" viewBox="0 0 29 30" fill="none" xmlns="http://www.w3.org/2000/svg">
<path d="M27.0269 14.2961C25.9629 13.2711 24.5618 12.738 23.0828 12.794C20.3188 12.899 18.0468 15.144 17.9108 17.906C17.8488 19.171 18.2338 20.4211 18.9948 21.4261C19.4058 21.9681 19.8108 22.5911 20.2688 23.3841L22.6848 27.5691C22.8098 27.7861 23.0408 27.919 23.2908 27.919C23.5408 27.919 23.7719 27.7861 23.8969 27.5691L26.5198 23.0271C26.8028 22.5361 27.1448 22.0271 27.6268 21.3741C28.3148 20.4431 28.6779 19.337 28.6779 18.177C28.6779 16.7 28.0909 15.3211 27.0269 14.2961Z" fill="#A792FC"/>
<path d="M7.96266 1.31448C7.03366 0.42048 5.81167 -0.0454938 4.51967 0.0035062C2.10667 0.0945062 0.123628 2.05552 0.00562781 4.46652C-0.0483722 5.57052 0.287673 6.66148 0.951673 7.53848C1.30067 7.99848 1.64373 8.52649 2.03273 9.19949L4.09572 12.7735C4.22072 12.9905 4.45167 13.1235 4.70167 13.1235C4.95167 13.1235 5.18263 12.9905 5.30763 12.7735L7.54664 8.89547C7.78664 8.47947 8.07661 8.0475 8.48561 7.4935C9.08561 6.6805 9.4037 5.71548 9.4037 4.70248C9.4037 3.41248 8.89166 2.20948 7.96266 1.31448Z" fill="#A792FC"/>
<path d="M23.4907 29.6141H23.0907C22.7037 29.6141 22.3906 29.3011 22.3906 28.9141C22.3906 28.5271 22.7037 28.2141 23.0907 28.2141H23.4907C23.8777 28.2141 24.1907 28.5271 24.1907 28.9141C24.1907 29.3001 23.8777 29.6141 23.4907 29.6141Z" fill="#8471F4"/>
<path d="M21.0208 29.6141H20.1927C19.8057 29.6141 19.4928 29.3011 19.4928 28.9141C19.4928 28.5271 19.8057 28.2141 20.1927 28.2141H21.0208C21.4078 28.2141 21.7208 28.5271 21.7208 28.9141C21.7218 29.3001 21.4078 29.6141 21.0208 29.6141ZM18.1238 29.6141H17.2958C16.9088 29.6141 16.5958 29.3011 16.5958 28.9141C16.5958 28.5271 16.9088 28.2141 17.2958 28.2141H18.1238C18.5108 28.2141 18.8239 28.5271 18.8239 28.9141C18.8239 29.3001 18.5108 29.6141 18.1238 29.6141ZM15.2268 29.6141H14.3988C14.0118 29.6141 13.6989 29.3011 13.6989 28.9141C13.6989 28.5271 14.0118 28.2141 14.3988 28.2141H15.2268C15.6138 28.2141 15.9268 28.5271 15.9268 28.9141C15.9268 29.3001 15.6138 29.6141 15.2268 29.6141ZM12.3298 29.6141H11.6519C11.5879 29.6141 11.5248 29.6122 11.4608 29.6082C11.0748 29.5852 10.7808 29.2542 10.8038 28.8682C10.8268 28.4822 11.1588 28.1881 11.5438 28.2101C11.5798 28.2121 11.6159 28.2131 11.6519 28.2131H12.3298C12.7168 28.2131 13.0298 28.5261 13.0298 28.9131C13.0298 29.3001 12.7158 29.6141 12.3298 29.6141ZM9.67883 28.7382C9.49683 28.7382 9.31486 28.6682 9.17786 28.5272C8.95086 28.2952 8.74883 28.0312 8.57483 27.7432C8.37583 27.4122 8.48282 26.9822 8.81482 26.7822C9.14582 26.5832 9.57576 26.6902 9.77576 27.0222C9.89276 27.2172 10.0288 27.3942 10.1798 27.5482C10.4498 27.8242 10.4448 28.2681 10.1688 28.5381C10.0308 28.6711 9.85483 28.7382 9.67883 28.7382ZM8.59875 26.1171C8.22575 26.1171 7.91578 25.8231 7.89978 25.4461C7.89678 25.3761 7.89575 25.3052 7.89575 25.2332C7.89575 24.9842 7.91383 24.7341 7.94983 24.4891C8.00683 24.1071 8.36175 23.8421 8.74475 23.8991C9.12675 23.9551 9.39184 24.3112 9.33484 24.6942C9.30884 24.8712 9.29578 25.0531 9.29578 25.2341C9.29578 25.2861 9.29683 25.3371 9.29883 25.3881C9.31483 25.7741 9.01478 26.1011 8.62878 26.1171C8.61878 26.1171 8.60875 26.1171 8.59875 26.1171ZM9.43579 23.4061C9.28379 23.4061 9.13181 23.3572 9.00281 23.2562C8.69881 23.0172 8.64674 22.5771 8.88574 22.2731C9.09674 22.0051 9.3358 21.7682 9.5968 21.5692C9.9038 21.3352 10.3428 21.3931 10.5778 21.7001C10.8128 22.0071 10.7538 22.4472 10.4468 22.6812C10.2798 22.8092 10.1238 22.9632 9.98584 23.1392C9.84784 23.3142 9.64279 23.4061 9.43579 23.4061ZM11.9618 22.2512C11.5908 22.2512 11.2818 21.9601 11.2628 21.5851C11.2438 21.1991 11.5419 20.8701 11.9279 20.8521C12.1269 20.8421 12.3238 20.8001 12.5148 20.7271C12.8748 20.5871 13.2808 20.7661 13.4208 21.1271C13.5608 21.4871 13.3818 21.8931 13.0208 22.0331C12.6908 22.1611 12.3458 22.2351 11.9968 22.2521C11.9848 22.2501 11.9728 22.2512 11.9618 22.2512ZM14.3008 20.7451C14.1768 20.7451 14.0508 20.7122 13.9368 20.6422C13.6068 20.4412 13.5029 20.0101 13.7039 19.6801C13.8199 19.4901 13.9178 19.2831 13.9938 19.0651C14.1218 18.7001 14.5218 18.5091 14.8868 18.6371C15.2518 18.7651 15.4428 19.1652 15.3148 19.5302C15.2058 19.8402 15.0658 20.1361 14.8988 20.4091C14.7668 20.6261 14.5368 20.7451 14.3008 20.7451ZM14.8499 17.9581C14.5069 17.9581 14.2068 17.7061 14.1578 17.3561C14.1248 17.1261 14.0708 16.9012 13.9958 16.6862C13.8678 16.3212 14.0598 15.9221 14.4248 15.7941C14.7898 15.6661 15.1888 15.8581 15.3168 16.2231C15.4218 16.5241 15.4988 16.8392 15.5438 17.1602C15.5978 17.5432 15.3319 17.8971 14.9489 17.9511C14.9159 17.9551 14.8829 17.9581 14.8499 17.9581ZM13.4878 15.4811C13.3378 15.4811 13.1858 15.4331 13.0588 15.3331C12.8888 15.2011 12.7078 15.0971 12.5188 15.0231C12.1588 14.8831 11.9798 14.4771 12.1208 14.1171C12.2608 13.7571 12.6659 13.5781 13.0269 13.7191C13.3419 13.8421 13.6418 14.0131 13.9188 14.2281C14.2238 14.4651 14.2787 14.9051 14.0417 15.2101C13.9027 15.3881 13.6958 15.4811 13.4878 15.4811ZM10.7258 14.8942H9.89783C9.51083 14.8942 9.19775 14.5812 9.19775 14.1942C9.19775 13.8072 9.51083 13.4941 9.89783 13.4941H10.7258C11.1128 13.4941 11.4258 13.8072 11.4258 14.1942C11.4258 14.5812 11.1128 14.8942 10.7258 14.8942ZM7.82886 14.8942H7.00085C6.61385 14.8942 6.30078 14.5812 6.30078 14.1942C6.30078 13.8072 6.61385 13.4941 7.00085 13.4941H7.82886C8.21586 13.4941 8.52881 13.8072 8.52881 14.1942C8.52881 14.5812 8.21486 14.8942 7.82886 14.8942Z" fill="#8471F4"/>
<path d="M4.91846 14.8942H4.51843C4.13143 14.8942 3.81836 14.5812 3.81836 14.1942C3.81836 13.8072 4.13143 13.4941 4.51843 13.4941H4.91846C5.30546 13.4941 5.61841 13.8072 5.61841 14.1942C5.61841 14.5812 5.30446 14.8942 4.91846 14.8942Z" fill="#8471F4"/>
<path d="M23.292 20.7618C21.867 20.7618 20.707 19.6028 20.707 18.1768C20.707 16.7518 21.867 15.5918 23.292 15.5918C24.717 15.5918 25.8771 16.7508 25.8771 18.1768C25.8771 19.6018 24.717 20.7618 23.292 20.7618ZM23.292 16.9918C22.639 16.9918 22.1071 17.5228 22.1071 18.1768C22.1071 18.8298 22.638 19.3618 23.292 19.3618C23.945 19.3618 24.4771 18.8308 24.4771 18.1768C24.4771 17.5238 23.945 16.9918 23.292 16.9918Z" fill="white"/>
<path d="M4.70154 7.01154C3.42854 7.01154 2.39258 5.97551 2.39258 4.70251C2.39258 3.42951 3.42854 2.39355 4.70154 2.39355C5.97454 2.39355 7.0105 3.42951 7.0105 4.70251C7.0105 5.97551 5.97454 7.01154 4.70154 7.01154ZM4.70154 3.79254C4.20054 3.79254 3.79248 4.20054 3.79248 4.70154C3.79248 5.20254 4.20054 5.61053 4.70154 5.61053C5.20254 5.61053 5.61047 5.20254 5.61047 4.70154C5.61047 4.20054 5.20254 3.79254 4.70154 3.79254Z" fill="white"/>
</svg>
