<svg width="21" height="27" viewBox="0 0 21 27" fill="none" xmlns="http://www.w3.org/2000/svg">
<path d="M19.909 0H0.75C0.336 0 0 0.336 0 0.75V23.741C0 24.155 0.336 24.491 0.75 24.491H9.06299C9.47699 24.491 9.81299 24.155 9.81299 23.741H17.715C17.715 24.155 18.051 24.491 18.465 24.491H19.908C20.322 24.491 20.658 24.155 20.658 23.741V0.75C20.659 0.336 20.323 0 19.909 0Z" fill="#FFD550"/>
<path d="M16.1519 19.981C15.7379 19.981 15.4019 20.317 15.4019 20.731V20.79L12.3369 21.032C12.3069 20.646 11.9838 20.3409 11.5898 20.3409C11.1758 20.3409 10.8398 20.6769 10.8398 21.0909V26.194C10.8398 26.497 11.0229 26.771 11.3029 26.887C11.3959 26.925 11.4928 26.944 11.5898 26.944C11.7848 26.944 11.9768 26.8679 12.1208 26.7239L13.8778 24.9659L15.6218 26.71C15.8368 26.924 16.1588 26.989 16.4388 26.873C16.7188 26.757 16.9019 26.4829 16.9019 26.1799V20.73C16.9019 20.316 16.5669 19.981 16.1519 19.981Z" fill="#A792FC"/>
<path d="M17.2719 17.8071C17.2149 17.7381 17.1289 17.6331 17.1109 17.5921C17.0919 17.5461 17.0759 17.4001 17.0659 17.3031C17.0309 16.9731 16.9829 16.5211 16.6329 16.1711C16.2829 15.8211 15.8309 15.7731 15.5019 15.7381C15.4049 15.7281 15.2589 15.7121 15.2139 15.6941C15.1719 15.6751 15.0669 15.5891 14.9979 15.5321C14.7369 15.3191 14.3799 15.0271 13.8699 15.0271C13.3599 15.0271 13.0029 15.3191 12.7419 15.5321C12.6729 15.5891 12.5679 15.6751 12.5269 15.6931C12.4809 15.7121 12.3349 15.7281 12.2379 15.7381C11.9079 15.7731 11.4569 15.8211 11.1069 16.1711C10.7569 16.5211 10.7089 16.9731 10.6739 17.3021C10.6639 17.3991 10.6479 17.5451 10.6299 17.5901C10.6109 17.6321 10.5249 17.7371 10.4679 17.8061C10.2549 18.0671 9.96289 18.4241 9.96289 18.9341C9.96289 19.4441 10.2549 19.8011 10.4679 20.0621C10.5249 20.1321 10.6109 20.2361 10.6289 20.2771C10.6479 20.3231 10.6639 20.4691 10.6739 20.5661C10.7089 20.8961 10.7569 21.3481 11.1069 21.6971C11.4569 22.0471 11.9089 22.0951 12.2389 22.1301C12.3359 22.1401 12.4819 22.1561 12.5269 22.1741C12.5689 22.1931 12.6729 22.2791 12.7429 22.3361C13.0039 22.5491 13.3609 22.8411 13.8709 22.8411C14.3809 22.8411 14.7379 22.5491 14.9989 22.3361C15.0679 22.2791 15.1729 22.1931 15.2139 22.1751C15.2599 22.1561 15.4059 22.1401 15.5029 22.1301C15.8329 22.0951 16.2839 22.0471 16.6339 21.6971C16.9839 21.3471 17.0319 20.8951 17.0669 20.5651C17.0769 20.4681 17.0929 20.3221 17.1109 20.2771C17.1299 20.2351 17.2159 20.1311 17.2729 20.0611C17.4859 19.8001 17.7779 19.4431 17.7779 18.9331C17.7779 18.4231 17.4859 18.0671 17.2719 17.8071Z" fill="#8471F4"/>
<path d="M15.5515 5.35889H4.14453C3.73053 5.35889 3.39453 5.02289 3.39453 4.60889C3.39453 4.19489 3.73053 3.85889 4.14453 3.85889H15.5515C15.9655 3.85889 16.3015 4.19489 16.3015 4.60889C16.3015 5.02289 15.9665 5.35889 15.5515 5.35889Z" fill="#FFD550"/>
<path d="M15.5515 8.95703H4.14453C3.73053 8.95703 3.39453 8.62103 3.39453 8.20703C3.39453 7.79303 3.73053 7.45703 4.14453 7.45703H15.5515C15.9655 7.45703 16.3015 7.79303 16.3015 8.20703C16.3015 8.62203 15.9665 8.95703 15.5515 8.95703Z" fill="#FFD550"/>
<path d="M15.5515 12.5562H4.14453C3.73053 12.5562 3.39453 12.2202 3.39453 11.8062C3.39453 11.3922 3.73053 11.0562 4.14453 11.0562H15.5515C15.9655 11.0562 16.3015 11.3922 16.3015 11.8062C16.3015 12.2202 15.9665 12.5562 15.5515 12.5562Z" fill="#FFD550"/>
</svg>
