<svg width="29" height="29" viewBox="0 0 29 29" fill="none" xmlns="http://www.w3.org/2000/svg">
<path d="M9.53943 28.0569H3.90942C3.00542 28.0569 2.27344 27.3239 2.27344 26.4209V24.3279H11.1764V26.4209C11.1754 27.3239 10.4434 28.0569 9.53943 28.0569Z" fill="#FFD550"/>
<path d="M12.6516 15.329H11.4266L11.0976 17.0231L10.9736 18.87L11.0926 17.0431L10.6786 19.176L10.4826 19.1381L11.1966 15.4601L11.2966 13.925C11.4146 12.121 9.98262 10.592 8.17462 10.592H3.1286C1.3216 10.592 -0.109413 12.118 0.00658662 13.921L1.03961 22.2891C1.20061 23.5891 2.30462 24.5651 3.61462 24.5651H9.97863C11.2506 24.5651 12.3346 23.6431 12.5396 22.3871L13.5216 16.3511C13.6096 15.8161 13.1956 15.329 12.6516 15.329Z" fill="#FFD550"/>
<path d="M11.2231 15.3289H11.2111L11.2051 15.4219L11.2231 15.3289Z" fill="#FFD550"/>
<path d="M19.0266 17.4631H24.6566C25.5606 17.4631 26.2936 16.7301 26.2936 15.8271V13.7341H17.3906V15.8271C17.3906 16.7311 18.1236 17.4631 19.0266 17.4631Z" fill="#FFD550"/>
<path d="M25.4361 0H20.39C18.582 0 17.1501 1.52801 17.2681 3.33301L17.3361 4.37402L18.1261 8.44202L17.9301 8.47998L17.4401 5.95703L17.5921 8.27808L17.4351 5.93103L17.2031 4.73706H15.9141C15.3701 4.73706 14.9551 5.22399 15.0431 5.76099L16.0251 11.797C16.2291 13.052 17.3141 13.975 18.5861 13.975H24.9501C26.2601 13.975 27.3641 12.998 27.5251 11.699L28.5581 3.33105C28.6741 1.52605 27.2431 0 25.4361 0Z" fill="#FFD550"/>
<g opacity="0.15">
<path d="M25.4361 0H20.39C18.582 0 17.1501 1.52801 17.2681 3.33301L17.3361 4.37402L18.1261 8.44202L17.9301 8.47998L17.4401 5.95703L17.5921 8.27808L17.4351 5.93103L17.2031 4.73706H15.9141C15.3701 4.73706 14.9551 5.22399 15.0431 5.76099L16.0251 11.797C16.1671 12.671 16.7361 13.382 17.4981 13.735H17.3911V15.828C17.3911 16.732 18.124 17.464 19.028 17.464H24.658C25.562 17.464 26.2951 16.731 26.2951 15.828V13.735H26.0401C26.8311 13.368 27.4121 12.614 27.5261 11.699L28.5591 3.33105C28.6741 1.52605 27.2431 0 25.4361 0Z" fill="#FFD550"/>
</g>
</svg>
