<svg width="32" height="32" viewBox="0 0 32 32" fill="none" xmlns="http://www.w3.org/2000/svg">
<path d="M24.9685 2.61328C24.4915 2.61328 24.0335 2.80332 23.6955 3.14032L21.6425 5.1933C20.9395 5.8963 20.9395 7.03632 21.6425 7.73932L23.4255 9.52228C23.7635 9.86028 24.2205 10.0493 24.6985 10.0493C25.1755 10.0493 25.6335 9.85928 25.9715 9.52228L28.0245 7.4693C28.7275 6.7663 28.7275 5.62628 28.0245 4.92328L26.2415 3.14032C25.9035 2.80332 25.4455 2.61328 24.9685 2.61328Z" fill="#68B8BC"/>
<path d="M0.899986 31.1622C0.669986 31.1622 0.439 31.0742 0.264 30.8982C-0.088 30.5462 -0.088 29.9772 0.264 29.6252L7.05999 22.8282C7.41199 22.4772 7.981 22.4772 8.333 22.8282C8.685 23.1802 8.685 23.7492 8.333 24.1012L1.536 30.8982C1.361 31.0752 1.12999 31.1622 0.899986 31.1622Z" fill="#8471F4"/>
<path d="M12.0798 21.4809L9.67773 19.0789L6.4979 22.2587L8.89992 24.6607L12.0798 21.4809Z" fill="#68B8BC"/>
<path d="M27.4988 11.0427L20.1152 3.65918L6.49156 17.2829L13.8751 24.6664L27.4988 11.0427Z" fill="#8471F4"/>
<path d="M30.2625 9.18427C30.0325 9.18427 29.8015 9.09623 29.6265 8.92023L22.2425 1.53626C21.8905 1.18426 21.8905 0.61525 22.2425 0.26325C22.5935 -0.08775 23.1635 -0.08775 23.5155 0.26325L30.8995 7.64722C31.2515 7.99822 31.2515 8.56823 30.8995 8.92023C30.7235 9.09623 30.4925 9.18427 30.2625 9.18427Z" fill="#8471F4"/>
<g opacity="0.1">
<path d="M8.89835 24.6674L11.3834 22.1824L13.8744 24.6733L27.4984 11.0494L25.9703 9.52136L28.0233 7.46838C28.0493 7.44238 28.0713 7.41537 28.0953 7.38837L29.6273 8.92035C29.8033 9.09635 30.0333 9.18439 30.2633 9.18439C30.4933 9.18439 30.7244 9.09635 30.8994 8.92035C31.2514 8.56935 31.2514 7.99934 30.8994 7.64734L27.2584 4.00635L0.318359 30.9464C0.486359 31.0894 0.693337 31.1614 0.901337 31.1614C1.13134 31.1614 1.36235 31.0733 1.53735 30.8973L8.33435 24.1003L8.89835 24.6674Z" fill="black"/>
</g>
<path d="M20.4544 11.1462C20.6844 11.1462 20.9154 11.0582 21.0904 10.8822C21.4424 10.5312 21.4424 9.96119 21.0904 9.60919L17.6304 6.14917L16.3574 7.42218L19.8174 10.8822C19.9944 11.0582 20.2244 11.1462 20.4544 11.1462Z" fill="#FFC853"/>
<path d="M13.7076 16.9922L10.2476 13.5322L8.97461 14.8052L12.4346 18.2653C12.6106 18.4413 12.8406 18.5292 13.0706 18.5292C13.3006 18.5292 13.5316 18.4413 13.7066 18.2653C14.0596 17.9133 14.0596 17.3442 13.7076 16.9922Z" fill="#FFC853"/>
<path d="M16.763 14.8373C16.993 14.8373 17.224 14.7493 17.399 14.5733C17.751 14.2213 17.751 13.6523 17.399 13.3003L13.939 9.84033L12.666 11.1133L16.126 14.5733C16.302 14.7493 16.533 14.8373 16.763 14.8373Z" fill="#FFC853"/>
</svg>
