<svg width="26" height="27" viewBox="0 0 26 27" fill="none" xmlns="http://www.w3.org/2000/svg">
<path d="M9.64871 25H4.88672C4.61072 25 4.38672 25.224 4.38672 25.5V26.275C4.38672 26.551 4.61072 26.775 4.88672 26.775H9.64871C9.92471 26.775 10.1487 26.551 10.1487 26.275V25.5C10.1487 25.223 9.92571 25 9.64871 25Z" fill="#8471F4"/>
<path d="M21.1136 25H16.3516C16.0756 25 15.8516 25.224 15.8516 25.5V26.275C15.8516 26.551 16.0756 26.775 16.3516 26.775H21.1136C21.3896 26.775 21.6136 26.551 21.6136 26.275V25.5C21.6136 25.223 21.3896 25 21.1136 25Z" fill="#8471F4"/>
<path d="M21.903 0H4.09799C1.83899 0 0 1.83796 0 4.09796V21.903C0 24.162 1.83799 26.001 4.09799 26.001H21.903C24.162 26.001 26.001 24.163 26.001 21.903V4.09796C26.001 1.83796 24.162 0 21.903 0Z" fill="#FFD550"/>
<path d="M21.9019 0H16.1699C18.4299 0 20.2679 1.83796 20.2679 4.09796V21.903C20.2679 24.162 18.4299 26.001 16.1699 26.001H21.9019C24.1609 26.001 25.9999 24.163 25.9999 21.903V4.09796C25.9999 1.83796 24.1609 0 21.9019 0Z" fill="#80D1ED"/>
<path d="M13.0013 7.23706C9.82328 7.23706 7.23828 9.82206 7.23828 13.0001C7.23828 16.1781 9.82328 18.7631 13.0013 18.7631C16.1793 18.7631 18.7643 16.1781 18.7643 13.0001C18.7643 9.82206 16.1783 7.23706 13.0013 7.23706Z" fill="#67C7BF"/>
<path d="M12.9998 7.23706C12.5138 7.23706 12.0428 7.29805 11.5918 7.41205C14.0908 8.04205 15.9468 10.3081 15.9468 13.0001C15.9468 15.6921 14.0908 17.9591 11.5918 18.5891C12.0428 18.7031 12.5138 18.764 12.9998 18.764C16.1778 18.764 18.7628 16.179 18.7628 13.001C18.7628 9.82204 16.1768 7.23706 12.9998 7.23706Z" fill="#61BCB1"/>
<path d="M13 5.25513C12.724 5.25513 12.5 5.03113 12.5 4.75513V0.50708C12.5 0.23108 12.724 0.00708008 13 0.00708008C13.276 0.00708008 13.5 0.23108 13.5 0.50708V4.75513C13.5 5.03113 13.276 5.25513 13 5.25513Z" fill="#67C7BF"/>
<path d="M13 25.9931C12.724 25.9931 12.5 25.7691 12.5 25.4931V21.2451C12.5 20.9691 12.724 20.7451 13 20.7451C13.276 20.7451 13.5 20.9691 13.5 21.2451V25.4931C13.5 25.7691 13.276 25.9931 13 25.9931Z" fill="#67C7BF"/>
<path d="M4.25473 11.4641C3.40773 11.4641 2.71875 12.1531 2.71875 13.0001C2.71875 13.8471 3.40773 14.5361 4.25473 14.5361C5.10173 14.5361 5.79074 13.8471 5.79074 13.0001C5.79074 12.1531 5.10173 11.4641 4.25473 11.4641Z" fill="#8471F4"/>
<path d="M21.745 11.4641C20.898 11.4641 20.209 12.1531 20.209 13.0001C20.209 13.8471 20.898 14.5361 21.745 14.5361C22.592 14.5361 23.281 13.8471 23.281 13.0001C23.281 12.1531 22.592 11.4641 21.745 11.4641Z" fill="#8471F4"/>
<path d="M13 10.184C12.724 10.184 12.5 9.95996 12.5 9.68396V9.66895C12.5 9.39295 12.724 9.16895 13 9.16895C13.276 9.16895 13.5 9.39295 13.5 9.66895V9.68396C13.5 9.95996 13.276 10.184 13 10.184Z" fill="#8471F4"/>
<path d="M13 16.83C12.724 16.83 12.5 16.606 12.5 16.33V16.314C12.5 16.038 12.724 15.814 13 15.814C13.276 15.814 13.5 16.038 13.5 16.314V16.33C13.5 16.606 13.276 16.83 13 16.83Z" fill="#8471F4"/>
<path d="M15.344 11.155C15.216 11.155 15.088 11.106 14.99 11.009C14.795 10.814 14.795 10.4971 14.99 10.3021L15.001 10.291C15.196 10.096 15.513 10.096 15.708 10.291C15.903 10.486 15.903 10.8031 15.708 10.9981L15.697 11.009C15.6 11.107 15.472 11.155 15.344 11.155Z" fill="#8471F4"/>
<path d="M10.6448 15.855C10.5168 15.855 10.3888 15.806 10.2908 15.709C10.0958 15.514 10.0958 15.197 10.2908 15.002L10.3018 14.991C10.4968 14.796 10.8138 14.796 11.0088 14.991C11.2038 15.186 11.2038 15.503 11.0088 15.698L10.9978 15.709C10.9008 15.806 10.7728 15.855 10.6448 15.855Z" fill="#8471F4"/>
<path d="M16.3304 13.5H16.3145C16.0385 13.5 15.8145 13.276 15.8145 13C15.8145 12.724 16.0385 12.5 16.3145 12.5H16.3304C16.6064 12.5 16.8304 12.724 16.8304 13C16.8304 13.276 16.6064 13.5 16.3304 13.5Z" fill="#8471F4"/>
<path d="M9.68399 13.5H9.66797C9.39197 13.5 9.16797 13.276 9.16797 13C9.16797 12.724 9.39197 12.5 9.66797 12.5H9.68399C9.95999 12.5 10.184 12.724 10.184 13C10.184 13.276 9.95999 13.5 9.68399 13.5Z" fill="#8471F4"/>
<path d="M15.355 15.855C15.227 15.855 15.099 15.806 15.001 15.709L14.99 15.698C14.795 15.503 14.795 15.186 14.99 14.991C15.185 14.796 15.502 14.796 15.697 14.991L15.708 15.002C15.903 15.197 15.903 15.514 15.708 15.709C15.611 15.806 15.483 15.855 15.355 15.855Z" fill="#8471F4"/>
<path d="M10.6548 11.155C10.5268 11.155 10.3988 11.106 10.3018 11.009L10.2908 10.9981C10.0958 10.8031 10.0958 10.486 10.2908 10.291C10.4858 10.096 10.8028 10.096 10.9978 10.291L11.0088 10.3021C11.2038 10.4971 11.2038 10.814 11.0088 11.009C10.9108 11.107 10.7828 11.155 10.6548 11.155Z" fill="#8471F4"/>
</svg>
