<svg width="30" height="17" viewBox="0 0 30 17" fill="none" xmlns="http://www.w3.org/2000/svg">
<path d="M7.71112 17.007H4.16711C3.84211 17.007 3.57812 16.743 3.57812 16.418V0.589966C3.57812 0.264966 3.84211 0.000976562 4.16711 0.000976562H7.71112C8.03612 0.000976562 8.30011 0.264966 8.30011 0.589966V16.418C8.30011 16.743 8.03612 17.007 7.71112 17.007Z" fill="#8471F4"/>
<path d="M2.96198 13.258H0.588989C0.263989 13.258 0 12.994 0 12.669V4.33899C0 4.01399 0.263989 3.75 0.588989 3.75H2.96198C3.28698 3.75 3.55096 4.01399 3.55096 4.33899V12.669C3.55096 12.994 3.28698 13.258 2.96198 13.258Z" fill="#A792FC"/>
<path d="M21.3136 0H24.8576C25.1826 0 25.4466 0.263989 25.4466 0.588989V16.417C25.4466 16.742 25.1826 17.006 24.8576 17.006H21.3136C20.9886 17.006 20.7246 16.742 20.7246 16.417V0.588989C20.7246 0.263989 20.9886 0 21.3136 0Z" fill="#8471F4"/>
<path d="M26.0636 3.74902H28.4366C28.7616 3.74902 29.0256 4.01301 29.0256 4.33801V12.668C29.0256 12.993 28.7616 13.257 28.4366 13.257H26.0636C25.7386 13.257 25.4746 12.993 25.4746 12.668V4.33801C25.4746 4.01301 25.7386 3.74902 26.0636 3.74902Z" fill="#A792FC"/>
<path d="M20.7368 7.44507H8.30078V9.56207H20.7368V7.44507Z" fill="#FFD550"/>
<g opacity="0.15">
<path d="M28.3368 3.74902H25.9638C25.7408 3.74902 25.5478 3.87299 25.4478 4.05499V0.588989C25.4478 0.263989 25.1838 0 24.8588 0H21.3148C20.9898 0 20.7258 0.263989 20.7258 0.588989V7.44501H14.2168V9.56201H20.7258V16.418C20.7258 16.743 20.9898 17.007 21.3148 17.007H24.8588C25.1838 17.007 25.4478 16.743 25.4478 16.418V12.952C25.5478 13.134 25.7418 13.258 25.9638 13.258H28.3368C28.6618 13.258 28.9258 12.994 28.9258 12.669V4.33899C28.9258 4.01299 28.6618 3.74902 28.3368 3.74902Z" fill="#231F20"/>
</g>
</svg>
