<svg width="30" height="20" viewBox="0 0 30 20" fill="none" xmlns="http://www.w3.org/2000/svg">
<path d="M29.021 0H0V19.725H29.021V0Z" fill="#A792FC"/>
<path d="M29.0224 5.35303H25.0664V14.371H29.0224V5.35303Z" fill="#FFD550"/>
<path d="M25.1133 12.8719V6.85303C23.5123 6.92403 22.2363 8.24392 22.2363 9.86292C22.2363 11.4809 23.5123 12.8009 25.1133 12.8719Z" fill="white"/>
<path d="M0.0479126 14.3716H4.00391L4.00391 5.35364H0.0479126L0.0479126 14.3716Z" fill="#FFD550"/>
<path d="M3.95703 6.85303V12.8719C5.55803 12.8009 6.83398 11.4809 6.83398 9.86292C6.83398 8.24392 5.55803 6.92403 3.95703 6.85303Z" fill="white"/>
<path d="M15.2617 0.153809H13.7617V19.5708H15.2617V0.153809Z" fill="#FFD550"/>
<path d="M14.5108 14.8628C17.2728 14.8628 19.5118 12.6238 19.5118 9.86182C19.5118 7.09984 17.2728 4.86084 14.5108 4.86084C11.7488 4.86084 9.50977 7.09984 9.50977 9.86182C9.50977 12.6238 11.7488 14.8628 14.5108 14.8628Z" fill="white"/>
<g opacity="0.15">
<path d="M29.0225 5.35303V0H14.2734V19.725H29.0225V14.371V5.35303Z" fill="#231F20"/>
</g>
</svg>
