<svg width="20" height="30" viewBox="0 0 20 30" fill="none" xmlns="http://www.w3.org/2000/svg">
<path d="M19.805 19.298C19.778 18.953 19.733 18.614 19.672 18.28C19.657 18.197 19.64 18.113 19.623 18.031C19.223 16.128 18.277 14.427 16.957 13.097C16.9 13.039 16.841 12.982 16.783 12.926C16.518 12.671 16.263 12.407 16.02 12.133C15.858 11.95 15.7 11.763 15.547 11.573C15.394 11.382 15.247 11.188 15.104 10.99C14.818 10.594 14.552 10.183 14.306 9.76099C14.244 9.65499 14.184 9.54896 14.125 9.44196C14.046 9.29896 13.97 9.154 13.895 9.008C13.747 8.718 13.606 8.42296 13.475 8.12396L9.91802 0L6.42303 7.98297C6.27003 8.33197 6.10602 8.67496 5.93102 9.01196C5.87302 9.12396 5.81301 9.23598 5.75201 9.34698C5.60601 9.61198 5.45302 9.87199 5.29302 10.128C5.16502 10.334 5.03201 10.536 4.89401 10.735C4.77201 10.912 4.64703 11.086 4.51803 11.258C4.35503 11.474 4.18601 11.686 4.01101 11.893C3.86701 12.063 3.72002 12.231 3.56902 12.394C3.55702 12.407 3.54401 12.421 3.53201 12.434C3.36401 12.615 3.19102 12.792 3.01302 12.964C2.83802 13.133 2.67002 13.309 2.50802 13.491C2.07702 13.976 1.69202 14.503 1.36102 15.066C0.493016 16.543 -0.00397604 18.265 2.39607e-05 20.103C2.39607e-05 20.188 0.00102176 20.274 0.00402176 20.358C0.00502176 20.388 0.00701957 20.418 0.00801957 20.448C0.0100196 20.503 0.0120081 20.557 0.0150081 20.612C0.0170081 20.65 0.0200271 20.687 0.0220271 20.725C0.0250271 20.771 0.0280298 20.818 0.0310298 20.864C0.0340298 20.904 0.0380161 20.944 0.0420161 20.984C0.0460161 21.028 0.0490096 21.071 0.0540096 21.114C0.0580096 21.156 0.0640242 21.199 0.0690242 21.241C0.0740242 21.281 0.0780318 21.322 0.0830318 21.362C0.0890318 21.406 0.0960137 21.45 0.102014 21.494C0.107014 21.532 0.112012 21.571 0.119012 21.609C0.126012 21.654 0.134022 21.699 0.142022 21.744C0.148022 21.78 0.154004 21.817 0.161004 21.853C0.169004 21.899 0.179012 21.945 0.188012 21.991C0.195012 22.026 0.201032 22.061 0.208032 22.096C0.218032 22.143 0.229007 22.19 0.239007 22.236C0.247007 22.269 0.25301 22.303 0.26101 22.336C0.27201 22.384 0.285021 22.432 0.297021 22.48C0.305021 22.511 0.312031 22.543 0.320031 22.574C0.333031 22.622 0.346009 22.67 0.360009 22.718C0.369009 22.749 0.377034 22.779 0.385034 22.81C0.399034 22.859 0.41401 22.907 0.42901 22.955C0.43801 22.984 0.447018 23.014 0.456018 23.043C0.472018 23.092 0.488022 23.141 0.504022 23.189C0.513022 23.217 0.522006 23.246 0.532006 23.274C0.549006 23.323 0.567008 23.372 0.584008 23.42C0.594008 23.447 0.603007 23.475 0.614007 23.502C0.632007 23.551 0.651007 23.5999 0.670007 23.6479C0.680007 23.6749 0.690013 23.701 0.701013 23.728C0.721013 23.778 0.742017 23.827 0.762017 23.876C0.772017 23.901 0.782023 23.926 0.793023 23.951C0.814023 24.001 0.836033 24.05 0.859033 24.099C0.870033 24.123 0.880015 24.148 0.891015 24.172C0.914015 24.221 0.937015 24.27 0.960015 24.318C0.971015 24.342 0.982012 24.366 0.994012 24.39C1.01801 24.439 1.04201 24.4869 1.06701 24.5359C1.07901 24.5589 1.09001 24.582 1.10201 24.605C1.12701 24.654 1.15301 24.702 1.17901 24.75C1.19101 24.772 1.20302 24.795 1.21502 24.817C1.24202 24.865 1.26901 24.913 1.29601 24.961C1.30801 24.983 1.32103 25.005 1.33303 25.026C1.36003 25.073 1.38902 25.12 1.41702 25.167C1.43002 25.189 1.44302 25.21 1.45602 25.232C1.48502 25.279 1.51403 25.325 1.54403 25.372C1.55703 25.393 1.57001 25.414 1.58401 25.435C1.61401 25.481 1.64501 25.527 1.67501 25.573C1.68901 25.593 1.70203 25.614 1.71603 25.634C1.74703 25.68 1.77903 25.725 1.81103 25.77C1.82503 25.79 1.83902 25.81 1.85302 25.83C1.88502 25.875 1.91801 25.92 1.95101 25.964C1.96501 25.984 1.98001 26.0029 1.99401 26.0229C2.02701 26.0669 2.06103 26.111 2.09503 26.154C2.11003 26.173 2.12501 26.193 2.14001 26.212C2.17401 26.255 2.20901 26.298 2.24401 26.341C2.26001 26.36 2.27503 26.3789 2.29003 26.3979C2.32503 26.4399 2.36103 26.4819 2.39703 26.5229C2.41303 26.5419 2.42901 26.561 2.44601 26.58C2.48201 26.621 2.51802 26.662 2.55502 26.702C2.57202 26.721 2.588 26.739 2.605 26.758C2.642 26.798 2.67903 26.838 2.71603 26.877C2.73303 26.895 2.75103 26.914 2.76803 26.932C2.80503 26.971 2.84301 27.009 2.88101 27.047C2.89901 27.065 2.91702 27.084 2.93502 27.102C2.97302 27.14 3.01201 27.177 3.05001 27.214C3.06901 27.232 3.08701 27.25 3.10601 27.268C3.14501 27.305 3.18402 27.341 3.22302 27.377C3.24202 27.395 3.26103 27.413 3.28103 27.43C3.32003 27.465 3.36002 27.5 3.40002 27.535C3.42002 27.552 3.44002 27.57 3.46002 27.588C3.50002 27.622 3.54002 27.656 3.58102 27.69C3.60202 27.707 3.62303 27.725 3.64303 27.742C3.68303 27.775 3.72401 27.808 3.76501 27.84C3.78701 27.857 3.80801 27.874 3.83001 27.891C3.87101 27.923 3.91203 27.954 3.95303 27.985C3.97603 28.002 3.99802 28.0189 4.02102 28.0359C4.06202 28.0669 4.10301 28.096 4.14501 28.126C4.16801 28.143 4.19102 28.16 4.21502 28.176C4.25602 28.205 4.29801 28.234 4.33901 28.262C4.36401 28.279 4.38801 28.296 4.41201 28.312C4.45301 28.34 4.495 28.367 4.536 28.394C4.561 28.41 4.58702 28.427 4.61202 28.443C4.65302 28.469 4.69502 28.495 4.73702 28.521C4.76402 28.537 4.79003 28.554 4.81603 28.57C4.85703 28.595 4.89903 28.619 4.94103 28.644C4.96803 28.66 4.99603 28.676 5.02303 28.692C5.06503 28.716 5.10603 28.739 5.14803 28.762C5.17603 28.778 5.20403 28.793 5.23303 28.809C5.27503 28.832 5.31703 28.853 5.35903 28.875C5.38803 28.89 5.41701 28.906 5.44701 28.921C5.48901 28.942 5.53102 28.963 5.57302 28.984C5.60302 28.999 5.63302 29.014 5.66302 29.028C5.70502 29.048 5.74703 29.067 5.78903 29.087C5.82003 29.101 5.85102 29.116 5.88302 29.13C5.92502 29.149 5.96602 29.167 6.00802 29.185C6.04002 29.199 6.072 29.213 6.105 29.227C6.147 29.245 6.188 29.262 6.23 29.278C6.263 29.291 6.29603 29.305 6.32903 29.318C6.37103 29.334 6.41301 29.35 6.45501 29.366C6.48901 29.379 6.52303 29.392 6.55703 29.404C6.59903 29.419 6.64003 29.434 6.68203 29.448C6.71703 29.46 6.75201 29.472 6.78701 29.484C6.82901 29.498 6.87001 29.511 6.91201 29.525C6.94801 29.537 6.98301 29.548 7.01901 29.559C7.06001 29.572 7.10203 29.584 7.14303 29.596C7.18003 29.607 7.21702 29.618 7.25402 29.628C7.29502 29.64 7.33701 29.651 7.37801 29.662C7.41601 29.672 7.45302 29.682 7.49102 29.692C7.53202 29.702 7.57401 29.712 7.61501 29.722C7.65401 29.731 7.69201 29.74 7.73101 29.749C7.77201 29.758 7.81303 29.767 7.85403 29.776C7.89303 29.784 7.93301 29.793 7.97201 29.801C8.01301 29.809 8.05403 29.817 8.09503 29.825C8.13503 29.833 8.17502 29.84 8.21502 29.847C8.25602 29.854 8.29701 29.861 8.33801 29.868C8.37901 29.875 8.42002 29.881 8.46102 29.887C8.50202 29.893 8.54203 29.899 8.58303 29.904C8.62503 29.91 8.66603 29.915 8.70803 29.92C8.74903 29.925 8.79001 29.93 8.83001 29.934C8.87201 29.939 8.91402 29.943 8.95602 29.947C8.99702 29.951 9.03803 29.954 9.07903 29.958C9.12103 29.962 9.16402 29.965 9.20702 29.968C9.24802 29.971 9.28901 29.973 9.33001 29.976C9.37301 29.979 9.41602 29.981 9.46002 29.983C9.50102 29.985 9.54203 29.986 9.58303 29.988C9.62603 29.989 9.67001 29.991 9.71301 29.992C9.75401 29.993 9.79603 29.993 9.83703 29.994C9.86403 29.994 9.89002 29.995 9.91702 29.995C9.95102 29.995 9.98402 29.995 10.017 29.995C10.865 29.986 11.688 29.871 12.473 29.662C13.101 29.495 13.704 29.268 14.276 28.987C14.419 28.917 14.56 28.843 14.699 28.767C15.047 28.575 15.382 28.363 15.702 28.132C15.894 27.994 16.082 27.848 16.263 27.697C16.324 27.646 16.384 27.595 16.443 27.543C16.918 27.127 17.352 26.667 17.741 26.169C17.838 26.044 17.932 25.918 18.023 25.789C18.251 25.466 18.46 25.129 18.649 24.779C18.687 24.709 18.724 24.639 18.76 24.568C18.94 24.213 19.1 23.846 19.238 23.469C19.265 23.393 19.292 23.317 19.318 23.241C19.369 23.088 19.417 22.934 19.461 22.778C19.483 22.7 19.504 22.622 19.524 22.543C19.564 22.385 19.601 22.226 19.633 22.066C19.764 21.424 19.832 20.76 19.832 20.079C19.836 19.818 19.825 19.557 19.805 19.298Z" fill="#8471F4"/>
<path d="M12.9302 20.123H10.8182V18.011H9.01825V20.123H6.90625V21.923H9.01825V24.035H10.8182V21.923H12.9302V20.123Z" fill="white"/>
<g opacity="0.1">
<path d="M19.8046 19.298C19.7776 18.953 19.7326 18.614 19.6716 18.28C19.6566 18.197 19.6396 18.113 19.6226 18.031C19.2226 16.128 18.2766 14.427 16.9566 13.097C16.8996 13.039 16.8406 12.982 16.7826 12.926C16.5176 12.671 16.2626 12.407 16.0196 12.133C15.8576 11.95 15.6996 11.763 15.5466 11.573C15.3936 11.382 15.2466 11.188 15.1036 10.99C14.8176 10.594 14.5516 10.183 14.3056 9.76099C14.2436 9.65499 14.1836 9.54896 14.1246 9.44196C14.0456 9.29896 13.9696 9.154 13.8946 9.008C13.7466 8.718 13.6056 8.42296 13.4746 8.12396L9.91757 0L9.51758 0.914001V18.012H10.8176V20.124H12.9296V21.924H10.8176V24.0359H9.51758V29.992C9.53958 29.993 9.56256 29.994 9.58456 29.995C9.62756 29.996 9.67157 29.998 9.71457 29.999C9.75557 30 9.79756 30 9.83856 30.001C9.86556 30.001 9.89158 30.002 9.91858 30.002C9.95258 30.002 9.98555 30.002 10.0186 30.002C10.8666 29.993 11.6896 29.878 12.4746 29.669C13.1026 29.502 13.7056 29.275 14.2776 28.994C14.4206 28.924 14.5616 28.85 14.7006 28.774C15.0486 28.582 15.3836 28.37 15.7036 28.139C15.8956 28.001 16.0836 27.855 16.2646 27.704C16.3256 27.653 16.3856 27.602 16.4446 27.55C16.9196 27.134 17.3536 26.674 17.7426 26.176C17.8396 26.051 17.9336 25.925 18.0246 25.796C18.2526 25.473 18.4616 25.1359 18.6506 24.7859C18.6886 24.7159 18.7256 24.646 18.7616 24.575C18.9416 24.22 19.1016 23.853 19.2396 23.476C19.2666 23.4 19.2936 23.324 19.3196 23.248C19.3706 23.095 19.4186 22.941 19.4626 22.785C19.4846 22.707 19.5056 22.629 19.5256 22.55C19.5656 22.392 19.6026 22.233 19.6346 22.073C19.7656 21.431 19.8336 20.767 19.8336 20.086C19.8356 19.818 19.8246 19.557 19.8046 19.298Z" fill="black"/>
</g>
</svg>
