<svg width="22" height="27" viewBox="0 0 22 27" fill="none" xmlns="http://www.w3.org/2000/svg">
<path d="M21.173 6.57602C21.587 6.57602 21.923 6.24002 21.923 5.82602V0.75C21.923 0.336 21.587 0 21.173 0H0.75C0.336 0 0 0.336 0 0.75V5.832C0 6.041 0.0870513 6.24002 0.240051 6.38202C0.393051 6.52402 0.598007 6.59502 0.807007 6.58002L0.827026 6.578C0.838026 6.577 0.850032 6.57602 0.858032 6.57602C1.86203 6.57602 3.26202 8.98202 3.26202 12.899C3.26202 16.816 1.86202 19.222 0.861023 19.222C0.850023 19.222 0.838026 19.221 0.827026 19.22L0.807007 19.218C0.600007 19.202 0.393051 19.274 0.240051 19.416C0.0870513 19.558 0 19.757 0 19.966V25.75C0 26.164 0.336 26.5 0.75 26.5H21.173C21.587 26.5 21.923 26.164 21.923 25.75V19.972C21.923 19.558 21.587 19.222 21.173 19.222C20.169 19.222 18.769 16.816 18.769 12.899C18.769 8.98102 20.169 6.57602 21.173 6.57602Z" fill="#A792FC"/>
<path d="M10.293 0V23.805C10.481 23.831 10.673 23.847 10.867 23.851C13.637 23.904 15.906 21.666 15.906 18.908V0H10.293Z" fill="#FFD550"/>
<path d="M6.01758 0V18.908C6.01758 20.98 7.33058 22.849 9.28558 23.558C9.36858 23.588 10.1706 23.852 10.2916 23.807V0H6.01758Z" fill="#FFFBE2"/>
<path d="M12.1954 12.1631C11.5964 12.1631 11.1094 12.6501 11.1094 13.2491C11.1094 13.8481 11.5964 14.3351 12.1954 14.3351C12.7944 14.3351 13.2814 13.8481 13.2814 13.2491C13.2824 12.6511 12.7944 12.1631 12.1954 12.1631Z" fill="#8471F4"/>
</svg>
