<svg width="23" height="25" viewBox="0 0 23 25" fill="none" xmlns="http://www.w3.org/2000/svg">
<path d="M19.4244 7.92603H3.10742C2.69342 7.92603 2.35742 8.26203 2.35742 8.67603V24.66C2.35742 24.72 2.40643 24.769 2.46643 24.769H20.1744V8.67603C20.1744 8.26203 19.8394 7.92603 19.4244 7.92603Z" fill="#A792FC"/>
<path d="M2.35699 24.02V14.063C1.00499 14.399 0 15.623 0 17.078V24.02C0 24.434 0.336 24.77 0.75 24.77H3.10699C2.69299 24.77 2.35699 24.434 2.35699 24.02Z" fill="#8471F4"/>
<path d="M20.1738 14.063V24.02C20.1738 24.434 19.8378 24.77 19.4238 24.77H21.7809C22.1949 24.77 22.5309 24.434 22.5309 24.02V17.078C22.5309 15.623 21.5258 14.399 20.1738 14.063Z" fill="#8471F4"/>
<path d="M16.2303 2.40894H6.29932C3.66932 2.40894 1.5293 4.54895 1.5293 7.17896V8.67694C1.5293 8.96194 1.69031 9.22194 1.94531 9.34894L10.9303 13.822C11.0353 13.874 11.1503 13.9009 11.2643 13.9009C11.3783 13.9009 11.4933 13.875 11.5983 13.822L20.5833 9.34894C20.8383 9.22194 20.9993 8.96194 20.9993 8.67694V7.17896C21.0003 4.54796 18.8603 2.40894 16.2303 2.40894Z" fill="#8471F4"/>
<path d="M6.30084 2.409H8.73083V0.75C8.73083 0.336 8.39483 0 7.98083 0H5.54883C5.13483 0 4.79883 0.336 4.79883 0.75V2.65201C5.27183 2.49501 5.77684 2.409 6.30084 2.409Z" fill="#FFD550"/>
<path d="M16.2308 2.40897C16.7558 2.40897 17.2608 2.49498 17.7328 2.65298V0.750977C17.7328 0.336977 17.3968 0.000976562 16.9828 0.000976562H14.5508C14.1368 0.000976562 13.8008 0.336977 13.8008 0.750977V2.40997H16.2308V2.40897Z" fill="#FFD550"/>
<path d="M12.2933 10.9299H10.2363V14.016H12.2933V10.9299Z" fill="white"/>
<path d="M12.2933 14.766H10.2363C9.82233 14.766 9.48633 14.43 9.48633 14.016V10.9299C9.48633 10.5159 9.82233 10.1799 10.2363 10.1799H12.2933C12.7073 10.1799 13.0433 10.5159 13.0433 10.9299V14.016C13.0433 14.43 12.7083 14.766 12.2933 14.766ZM10.9863 13.266H11.5433V11.6799H10.9863V13.266Z" fill="#FFD550"/>
</svg>
