<svg width="30" height="25" viewBox="0 0 30 25" fill="none" xmlns="http://www.w3.org/2000/svg">
<path d="M29.28 0H0.5C0.224 0 0 0.224 0 0.5V24.483C0 24.759 0.224 24.983 0.5 24.983H29.28C29.556 24.983 29.78 24.759 29.78 24.483V0.5C29.78 0.224 29.557 0 29.28 0Z" fill="#67C7BF"/>
<path d="M29.28 0H0.5C0.224 0 0 0.224 0 0.5V5.89502C0 6.17102 0.224 6.39502 0.5 6.39502H29.28C29.556 6.39502 29.78 6.17102 29.78 5.89502V0.5C29.78 0.224 29.557 0 29.28 0Z" fill="#CED7E3"/>
<path d="M29.2797 0H24.8867C25.1627 0 25.3867 0.224 25.3867 0.5V24.483C25.3867 24.759 25.1627 24.983 24.8867 24.983H29.2797C29.5557 24.983 29.7797 24.759 29.7797 24.483V0.5C29.7797 0.224 29.5567 0 29.2797 0Z" fill="#61BCB1"/>
<path d="M29.2797 0H24.8867C25.1627 0 25.3867 0.224 25.3867 0.5V5.89502C25.3867 6.17102 25.1627 6.39502 24.8867 6.39502H29.2797C29.5557 6.39502 29.7797 6.17102 29.7797 5.89502V0.5C29.7797 0.224 29.5567 0 29.2797 0Z" fill="#BFC8D1"/>
<path d="M25.7408 14.6849C25.5428 14.4869 20.8268 9.83203 14.8908 9.83203C8.95476 9.83203 4.23878 14.4869 4.04078 14.6849C3.84578 14.8799 3.84578 15.196 4.04078 15.392C4.23878 15.59 8.95476 20.245 14.8908 20.245C20.8268 20.245 25.5428 15.59 25.7408 15.392C25.9358 15.196 25.9358 14.8799 25.7408 14.6849Z" fill="#8471F4"/>
<path d="M25.7413 14.6849C25.5433 14.4869 20.8273 9.83203 14.8913 9.83203C14.2553 9.83203 13.6333 9.88596 13.0293 9.98096C18.0623 10.778 21.8413 14.507 22.0183 14.684C22.2133 14.879 22.2133 15.195 22.0183 15.391C21.8413 15.568 18.0623 19.297 13.0293 20.094C13.6333 20.19 14.2553 20.243 14.8913 20.243C20.8273 20.243 25.5433 15.588 25.7413 15.39C25.9363 15.196 25.9363 14.8799 25.7413 14.6849Z" fill="#8471F4"/>
<path d="M14.8915 9.83203C12.0205 9.83203 9.68555 12.167 9.68555 15.038C9.68555 17.909 12.0205 20.244 14.8915 20.244C17.7625 20.244 20.0976 17.909 20.0976 15.038C20.0976 12.167 17.7615 9.83203 14.8915 9.83203Z" fill="white"/>
<path d="M14.8919 9.83203C14.5739 9.83203 14.2629 9.86199 13.9609 9.91699C16.3889 10.357 18.236 12.485 18.236 15.038C18.236 17.591 16.3889 19.7189 13.9609 20.1589C14.2629 20.2139 14.5739 20.244 14.8919 20.244C17.7629 20.244 20.098 17.909 20.098 15.038C20.098 12.167 17.7619 9.83203 14.8919 9.83203Z" fill="#EFEFEF"/>
<path d="M14.8915 12.373C13.4215 12.373 12.2266 13.569 12.2266 15.038C12.2266 16.508 13.4225 17.703 14.8915 17.703C16.3615 17.703 17.5565 16.507 17.5565 15.038C17.5565 13.568 16.3605 12.373 14.8915 12.373Z" fill="#8471F4"/>
<path d="M14.8919 12.373C14.5649 12.373 14.2509 12.433 13.9609 12.541C14.9729 12.92 15.6949 13.896 15.6949 15.038C15.6949 16.18 14.9729 17.157 13.9609 17.535C14.2509 17.644 14.5639 17.703 14.8919 17.703C16.3619 17.703 17.5569 16.507 17.5569 15.038C17.5569 13.568 16.3609 12.373 14.8919 12.373Z" fill="#8471F4"/>
<path d="M21.9661 3.19788C21.9661 3.51188 21.7121 3.76587 21.3981 3.76587C21.0851 3.76587 20.8301 3.51188 20.8301 3.19788C20.8301 2.88488 21.0841 2.62988 21.3981 2.62988C21.7111 2.62988 21.9661 2.88388 21.9661 3.19788Z" fill="#8471F4"/>
<path d="M21.3981 4.26489C20.8091 4.26489 20.3301 3.7859 20.3301 3.1969C20.3301 2.6079 20.8091 2.12891 21.3981 2.12891C21.9871 2.12891 22.4661 2.6079 22.4661 3.1969C22.4661 3.7859 21.9871 4.26489 21.3981 4.26489ZM21.3981 3.12988C21.3611 3.12988 21.3301 3.15988 21.3301 3.19788C21.3301 3.23488 21.3601 3.26587 21.3981 3.26587C21.4351 3.26587 21.4661 3.23588 21.4661 3.19788C21.4661 3.15988 21.4351 3.12988 21.3981 3.12988Z" fill="#8471F4"/>
<path d="M25.9544 3.19788C25.9544 3.51188 25.7004 3.76587 25.3864 3.76587C25.0724 3.76587 24.8184 3.51188 24.8184 3.19788C24.8184 2.88488 25.0724 2.62988 25.3864 2.62988C25.7004 2.62988 25.9544 2.88388 25.9544 3.19788Z" fill="#8471F4"/>
<path d="M25.3864 4.26489C24.7974 4.26489 24.3184 3.7859 24.3184 3.1969C24.3184 2.6079 24.7974 2.12891 25.3864 2.12891C25.9754 2.12891 26.4544 2.6079 26.4544 3.1969C26.4544 3.7859 25.9754 4.26489 25.3864 4.26489ZM25.3864 3.12988C25.3494 3.12988 25.3184 3.15988 25.3184 3.19788C25.3184 3.23488 25.3484 3.26587 25.3864 3.26587C25.4234 3.26587 25.4544 3.23588 25.4544 3.19788C25.4544 3.15988 25.4234 3.12988 25.3864 3.12988Z" fill="#8471F4"/>
</svg>
