<svg width="31" height="24" viewBox="0 0 31 24" fill="none" xmlns="http://www.w3.org/2000/svg">
<path d="M29.595 22.114H28.128V8.65601C28.128 8.24201 27.792 7.90601 27.378 7.90601H21.386C20.972 7.90601 20.636 8.24201 20.636 8.65601V22.114H18.817V8.65601C18.817 8.24201 18.481 7.90601 18.067 7.90601H12.075C11.661 7.90601 11.325 8.24201 11.325 8.65601V22.114H9.50598V8.65601C9.50598 8.24201 9.16998 7.90601 8.75598 7.90601H2.76398C2.34998 7.90601 2.01398 8.24201 2.01398 8.65601V22.114H0.75C0.336 22.114 0 22.45 0 22.864C0 23.278 0.336 23.614 0.75 23.614H2.76398H8.75598H12.075H18.067H21.386H27.378H29.595C30.009 23.614 30.345 23.278 30.345 22.864C30.345 22.449 30.009 22.114 29.595 22.114Z" fill="#F0EEE6"/>
<path d="M2.76367 7.90601H8.75568C9.16968 7.90601 9.50568 8.24201 9.50568 8.65601V0.75C9.50568 0.336 9.16968 0 8.75568 0H2.76367C2.34967 0 2.01367 0.336 2.01367 0.75V8.65601C2.01367 8.24101 2.34967 7.90601 2.76367 7.90601Z" fill="#FFD550"/>
<path d="M12.0742 7.90601H18.0662C18.4802 7.90601 18.8162 8.24201 18.8162 8.65601V0.75C18.8162 0.336 18.4802 0 18.0662 0H12.0742C11.6602 0 11.3242 0.336 11.3242 0.75V8.65601C11.3242 8.24101 11.6602 7.90601 12.0742 7.90601Z" fill="#68B7BB"/>
<path d="M21.3867 7.90601H27.3787C27.7927 7.90601 28.1287 8.24201 28.1287 8.65601V0.75C28.1287 0.336 27.7927 0 27.3787 0H21.3867C20.9727 0 20.6367 0.336 20.6367 0.75V8.65601C20.6367 8.24101 20.9727 7.90601 21.3867 7.90601Z" fill="#8471F4"/>
<path d="M5.75977 18.5689C5.34577 18.5689 5.00977 18.2329 5.00977 17.8189V13.6169C5.00977 13.2029 5.34577 12.8669 5.75977 12.8669C6.17377 12.8669 6.50977 13.2029 6.50977 13.6169V17.8189C6.50977 18.2329 6.17477 18.5689 5.75977 18.5689Z" fill="#8471F4"/>
<path d="M15.0703 18.5689C14.6563 18.5689 14.3203 18.2329 14.3203 17.8189V13.6169C14.3203 13.2029 14.6563 12.8669 15.0703 12.8669C15.4843 12.8669 15.8203 13.2029 15.8203 13.6169V17.8189C15.8203 18.2329 15.4843 18.5689 15.0703 18.5689Z" fill="#8471F4"/>
<path d="M24.3809 18.5689C23.9669 18.5689 23.6309 18.2329 23.6309 17.8189V13.6169C23.6309 13.2029 23.9669 12.8669 24.3809 12.8669C24.7949 12.8669 25.1309 13.2029 25.1309 13.6169V17.8189C25.1309 18.2329 24.7949 18.5689 24.3809 18.5689Z" fill="#8471F4"/>
</svg>
