<svg width="27" height="31" viewBox="0 0 27 31" fill="none" xmlns="http://www.w3.org/2000/svg">
<path d="M6.01099 18.6445H0V20.4446H6.01099V18.6445Z" fill="#8471F4"/>
<path d="M17.7634 9.39746C18.9794 10.9225 19.6484 12.8235 19.6484 14.7825C19.6484 19.5475 15.7724 23.4235 11.0074 23.4235C8.48239 23.4235 6.10538 22.3135 4.48038 20.4455H2.23438C4.15038 23.4075 7.45638 25.2245 11.0064 25.2245C16.7634 25.2245 21.4474 20.5405 21.4474 14.7835C21.4474 12.5025 20.6974 10.2865 19.3264 8.47852L17.7634 9.39746Z" fill="#FFC853"/>
<path d="M15.5751 22.1475L14.9901 22.4525C13.7521 23.0965 12.4121 23.4235 11.0071 23.4235C10.7851 23.4235 10.5601 23.4145 10.3391 23.3985L9.37109 23.3245V30.0315H23.4591L15.5751 22.1475Z" fill="#68B8BC"/>
<path d="M23.9738 5.909e-05L20.5918 1.9895L23.3707 6.71359L26.7527 4.72415L23.9738 5.909e-05Z" fill="#68B8BC"/>
<path d="M20.8693 2.48651L7.67969 10.2451L9.89073 14.0039L23.0804 6.24527L20.8693 2.48651Z" fill="#8471F4"/>
<path d="M7.92777 10.5925C7.09077 11.0935 6.81277 12.1756 7.30777 13.0176C7.63877 13.5806 8.23179 13.8936 8.84079 13.8936C9.14279 13.8936 9.44879 13.8165 9.72879 13.6545L7.92777 10.5925Z" fill="#68B8BC"/>
<path d="M23.2901 28.2305H7.28711V30.0305H23.2901V28.2305Z" fill="#FFC853"/>
<g opacity="0.1">
<path d="M23.2924 28.2307H21.6595L16.8565 23.4277C19.6255 21.5477 21.4485 18.3747 21.4485 14.7827C21.4485 12.5017 20.6985 10.2857 19.3275 8.47772L23.1255 6.24371L23.4095 6.72571L26.7915 4.73572L24.0125 0.0117188L22.3215 1.00671L20.6305 2.00171L20.9145 2.4837L13.3965 6.90674V11.9667L17.7645 9.39673C18.9805 10.9217 19.6495 12.8227 19.6495 14.7817C19.6495 18.7177 17.0035 22.0468 13.3965 23.0858V30.0308H23.2935H23.4605L23.2935 29.8637V28.2307H23.2924Z" fill="black"/>
</g>
</svg>
