<svg width="18" height="30" viewBox="0 0 18 30" fill="none" xmlns="http://www.w3.org/2000/svg">
<path d="M17.233 5.76001H14.336V7.67505C14.336 7.95105 14.112 8.17505 13.836 8.17505H3.89697C3.62097 8.17505 3.39697 7.95105 3.39697 7.67505V5.76001H0.5C0.224 5.76001 0 5.98401 0 6.26001V28.906C0 29.182 0.224 29.406 0.5 29.406H17.232C17.508 29.406 17.732 29.182 17.732 28.906V6.26001C17.733 5.98401 17.509 5.76001 17.233 5.76001Z" fill="#FFD550"/>
<path d="M17.2329 5.76001H14.3359V5.85498C14.4619 5.94598 14.5449 6.09301 14.5449 6.26001V28.906C14.5449 29.182 14.3209 29.406 14.0449 29.406H17.2329C17.5089 29.406 17.7329 29.182 17.7329 28.906V6.26001C17.7329 5.98401 17.5089 5.76001 17.2329 5.76001Z" fill="#80D1ED"/>
<path d="M0.208984 7.67505C0.208984 7.95105 0.432984 8.17505 0.708984 8.17505H3.89697C3.62097 8.17505 3.39697 7.95105 3.39697 7.67505V5.76001H0.5C0.391 5.76001 0.290984 5.79598 0.208984 5.85498V7.67505Z" fill="#80D1ED"/>
<path d="M8.86688 16.182C10.2839 16.182 11.4368 15.0291 11.4368 13.6121C11.4368 12.1951 10.2839 11.042 8.86688 11.042C7.44988 11.042 6.29688 12.1951 6.29688 13.6121C6.29688 15.0291 7.44988 16.182 8.86688 16.182Z" fill="#8471F4"/>
<path d="M10.334 16.628C10.168 16.581 9.98997 16.623 9.86197 16.738C9.58897 16.985 9.23493 17.1219 8.86593 17.1219C8.49693 17.1219 8.14296 16.986 7.86996 16.738C7.74196 16.622 7.56398 16.581 7.39798 16.628C5.57698 17.144 4.46494 18.9379 4.81094 20.8019C5.06794 22.1869 6.27696 23.191 7.68496 23.191H10.047C11.455 23.191 12.6639 22.1859 12.9209 20.8019C13.2669 18.9379 12.155 17.144 10.334 16.628Z" fill="#8471F4"/>
<path d="M8.86639 11.042C8.50939 11.042 8.16938 11.115 7.85938 11.248C8.77737 11.64 9.42236 12.5521 9.42236 13.6121C9.42236 14.6721 8.77737 15.584 7.85938 15.976C8.16837 16.108 8.50939 16.182 8.86639 16.182C10.2834 16.182 11.4363 15.0291 11.4363 13.6121C11.4353 12.1951 10.2824 11.042 8.86639 11.042Z" fill="#8471F4"/>
<path d="M6.85364 17.1219C7.22264 17.1219 7.57667 16.986 7.84967 16.738C7.85267 16.735 7.85666 16.733 7.86066 16.729C7.73366 16.62 7.56066 16.5819 7.39966 16.6269C7.04866 16.7259 6.72464 16.8739 6.43164 17.0589C6.56764 17.0999 6.70964 17.1219 6.85364 17.1219Z" fill="#8471F4"/>
<path d="M10.3342 16.6281C10.1682 16.5811 9.99024 16.623 9.86224 16.738C9.69624 16.889 9.49921 16.9971 9.28821 17.0601C10.5152 17.8381 11.1862 19.297 10.9072 20.802C10.6502 22.187 9.4412 23.191 8.0332 23.191H10.0462C11.4542 23.191 12.6632 22.186 12.9202 20.802C13.2672 18.938 12.1552 17.1441 10.3342 16.6281Z" fill="#8471F4"/>
<path d="M13.8355 4.45996H3.89648C3.62048 4.45996 3.39648 4.68396 3.39648 4.95996V7.67505C3.39648 7.95105 3.62048 8.17505 3.89648 8.17505H13.8355C14.1115 8.17505 14.3355 7.95105 14.3355 7.67505V4.95996C14.3355 4.68396 14.1115 4.45996 13.8355 4.45996Z" fill="#FFD550"/>
<path d="M11.1746 4.45996V2.30798C11.1746 1.03598 10.1396 0 8.86658 0C7.59358 0 6.55859 1.03498 6.55859 2.30798V4.45996H11.1746Z" fill="#FFD550"/>
<path d="M8.86749 0C8.61549 0 8.37348 0.0409668 8.14648 0.115967C9.06748 0.418967 9.73346 1.28698 9.73346 2.30798V4.45996H11.1744V2.30798C11.1744 1.03598 10.1395 0 8.86749 0Z" fill="#80D1ED"/>
<path d="M13.8354 4.45996H11.5273C11.8033 4.45996 12.0273 4.68396 12.0273 4.95996V7.67505C12.0273 7.95105 11.8033 8.17505 11.5273 8.17505H13.8354C14.1114 8.17505 14.3354 7.95105 14.3354 7.67505V4.95996C14.3354 4.68396 14.1114 4.45996 13.8354 4.45996Z" fill="#8471F4"/>
<path d="M8.86694 2.89783C8.52894 2.89783 8.25391 2.62291 8.25391 2.28491C8.25391 1.94691 8.52894 1.67188 8.86694 1.67188C9.20494 1.67188 9.47992 1.94691 9.47992 2.28491C9.47892 2.62291 9.20394 2.89783 8.86694 2.89783ZM8.86694 1.89783C8.65294 1.89783 8.47992 2.07191 8.47992 2.28491C8.47992 2.49791 8.65394 2.67188 8.86694 2.67188C9.07994 2.67188 9.25391 2.49791 9.25391 2.28491C9.25391 2.07191 9.07994 1.89783 8.86694 1.89783Z" fill="white"/>
<path d="M12.8057 26.2759H4.92773C4.65173 26.2759 4.42773 26.0519 4.42773 25.7759C4.42773 25.4999 4.65173 25.2759 4.92773 25.2759H12.8057C13.0817 25.2759 13.3057 25.4999 13.3057 25.7759C13.3057 26.0519 13.0817 26.2759 12.8057 26.2759Z" fill="white"/>
</svg>
