<svg width="28" height="32" viewBox="0 0 28 32" fill="none" xmlns="http://www.w3.org/2000/svg">
<path d="M24.0605 0C23.7845 0 23.5605 0.224 23.5605 0.5V0.872986C23.5605 1.14899 23.7845 1.37299 24.0605 1.37299C24.3365 1.37299 24.5605 1.14899 24.5605 0.872986V0.5C24.5605 0.224 24.3365 0 24.0605 0Z" fill="#8471F4"/>
<path d="M24.0605 5.09497C23.7845 5.09497 23.5605 5.31897 23.5605 5.59497V5.96893C23.5605 6.24493 23.7845 6.46893 24.0605 6.46893C24.3365 6.46893 24.5605 6.24493 24.5605 5.96893V5.59497C24.5605 5.31897 24.3365 5.09497 24.0605 5.09497Z" fill="#8471F4"/>
<path d="M25.7307 2.06501C25.8587 2.06501 25.9867 2.01602 26.0837 1.91902L26.3477 1.65504C26.5427 1.46004 26.5427 1.14301 26.3477 0.948008C26.1527 0.753008 25.8357 0.753008 25.6407 0.948008L25.3767 1.21198C25.1817 1.40698 25.1817 1.72402 25.3767 1.91902C25.4747 2.01602 25.6027 2.06501 25.7307 2.06501Z" fill="#8471F4"/>
<path d="M22.0392 4.55006L21.7752 4.8141C21.5802 5.0091 21.5802 5.32607 21.7752 5.52107C21.8732 5.61907 22.0012 5.66706 22.1282 5.66706C22.2552 5.66706 22.3842 5.61807 22.4822 5.52107L22.7462 5.25709C22.9412 5.06209 22.9412 4.74506 22.7462 4.55006C22.5512 4.35506 22.2342 4.35506 22.0392 4.55006Z" fill="#8471F4"/>
<path d="M26.7959 2.73389H26.4219C26.1459 2.73389 25.9219 2.95789 25.9219 3.23389C25.9219 3.50989 26.1459 3.73389 26.4219 3.73389H26.7959C27.0719 3.73389 27.2959 3.50989 27.2959 3.23389C27.2959 2.95789 27.0719 2.73389 26.7959 2.73389Z" fill="#8471F4"/>
<path d="M22.2002 3.23389C22.2002 2.95789 21.9762 2.73389 21.7002 2.73389H21.3262C21.0502 2.73389 20.8262 2.95789 20.8262 3.23389C20.8262 3.50989 21.0502 3.73389 21.3262 3.73389H21.7002C21.9762 3.73389 22.2002 3.50989 22.2002 3.23389Z" fill="#8471F4"/>
<path d="M26.0837 4.55006C25.8887 4.35506 25.5717 4.35506 25.3767 4.55006C25.1817 4.74506 25.1817 5.06209 25.3767 5.25709L25.6407 5.52107C25.7377 5.61907 25.8667 5.66706 25.9937 5.66706C26.1207 5.66706 26.2497 5.61807 26.3477 5.52107C26.5427 5.32607 26.5427 5.0091 26.3477 4.8141L26.0837 4.55006Z" fill="#8471F4"/>
<path d="M22.4822 0.947031C22.2872 0.752031 21.9702 0.752031 21.7752 0.947031C21.5802 1.14203 21.5802 1.459 21.7752 1.654L22.0392 1.91804C22.1372 2.01604 22.2652 2.06404 22.3932 2.06404C22.5212 2.06404 22.6492 2.01504 22.7472 1.91804C22.9422 1.72304 22.9422 1.40601 22.7472 1.21101L22.4822 0.947031Z" fill="#8471F4"/>
<path d="M24.0613 4.19598C23.7853 4.19598 23.5613 4.41998 23.5613 4.69598V5.53699C23.5613 6.91499 22.4403 8.03699 21.0623 8.03699C19.6843 8.03699 18.5623 6.91599 18.5623 5.53699V4.28101C18.5623 2.35101 16.9923 0.781982 15.0633 0.781982H14.8613C12.9313 0.781982 11.3613 2.35201 11.3613 4.28101V7.98499C11.3613 8.26099 11.5853 8.48499 11.8613 8.48499C12.1373 8.48499 12.3613 8.26099 12.3613 7.98499V4.28101C12.3613 2.90301 13.4823 1.78198 14.8613 1.78198H15.0633C16.4413 1.78198 17.5623 2.90301 17.5623 4.28101V5.53699C17.5623 7.46699 19.1323 9.03699 21.0623 9.03699C22.9923 9.03699 24.5613 7.46699 24.5613 5.53699V4.69598C24.5613 4.41998 24.3373 4.19598 24.0613 4.19598Z" fill="#CED7E3"/>
<path d="M13.5418 29.8559C19.188 28.9396 23.0223 23.6196 22.106 17.9734C21.1896 12.3271 15.8696 8.49282 10.2234 9.40917C4.57716 10.3255 0.742844 15.6455 1.65919 21.2917C2.57554 26.938 7.89555 30.7723 13.5418 29.8559Z" fill="#8471F4"/>
<path d="M11.8617 9.27197C11.0397 9.27197 10.2397 9.36896 9.47266 9.55096C14.0357 10.633 17.4397 14.741 17.4397 19.629C17.4397 24.518 14.0347 28.626 9.47266 29.707C10.2397 29.889 11.0397 29.986 11.8617 29.986C17.5727 29.986 22.2187 25.34 22.2187 19.629C22.2187 13.918 17.5727 9.27197 11.8617 9.27197Z" fill="#3D525E"/>
<path d="M11.8614 9.27209C13.1534 9.27209 14.3904 9.51109 15.5324 9.94409V7.98608C15.5324 7.71008 15.3084 7.48608 15.0324 7.48608H8.69141C8.41541 7.48608 8.19141 7.71008 8.19141 7.98608V9.94409C9.33241 9.51009 10.5694 9.27209 11.8614 9.27209Z" fill="#8471F4"/>
<path d="M15.0316 7.48608H12.6426C12.9186 7.48608 13.1426 7.71008 13.1426 7.98608V9.35309C13.9736 9.45609 14.7736 9.65609 15.5316 9.94409V7.98608C15.5316 7.71008 15.3076 7.48608 15.0316 7.48608Z" fill="#8471F4"/>
<path d="M6.58154 25.408C6.45354 25.408 6.32554 25.359 6.22754 25.262C4.72354 23.757 3.89453 21.757 3.89453 19.629C3.89453 17.524 4.70754 15.539 6.18454 14.04C6.37854 13.843 6.69454 13.841 6.89154 14.035C7.08854 14.229 7.09055 14.545 6.89655 14.742C5.60455 16.053 4.89352 17.789 4.89352 19.63C4.89352 21.491 5.61853 23.24 6.93353 24.555C7.12853 24.75 7.12853 25.067 6.93353 25.262C6.83753 25.359 6.70954 25.408 6.58154 25.408Z" fill="#CED7E3"/>
</svg>
