<svg width="19" height="29" viewBox="0 0 19 29" fill="none" xmlns="http://www.w3.org/2000/svg">
<path d="M3.78302 3.784H7.06604C7.06604 1.971 5.59602 0.500977 3.78302 0.500977C1.97002 0.500977 0.5 1.971 0.5 3.784C0.5 5.299 1.526 6.57397 2.922 6.95197C2.977 5.81197 3.28302 4.739 3.78302 3.784Z" fill="#FFD550"/>
<path d="M2.922 7.45197C2.878 7.45197 2.83402 7.44602 2.79102 7.43402C1.14802 6.98802 0 5.48702 0 3.78302C0 1.69702 1.69702 0 3.78302 0C5.86902 0 7.56604 1.69702 7.56604 3.78302C7.56604 4.05902 7.34204 4.28302 7.06604 4.28302H4.09204C3.69204 5.12902 3.46602 6.03298 3.42102 6.97498C3.41402 7.12598 3.338 7.26598 3.216 7.35498C3.13 7.41898 3.026 7.45197 2.922 7.45197ZM3.78302 1C2.24902 1 1 2.24802 1 3.78302C1 4.82902 1.58701 5.77002 2.48401 6.24402C2.60901 5.30202 2.896 4.39899 3.341 3.54999C3.427 3.38499 3.598 3.28198 3.784 3.28198H6.52203C6.28503 1.98698 5.14702 1 3.78302 1Z" fill="#FFD550"/>
<path d="M3.78308 3.78394C3.22708 4.84294 2.91211 6.0479 2.91211 7.3269C2.91211 11.5469 6.3331 14.968 10.5531 14.968C14.7731 14.968 18.1941 11.5469 18.1941 7.3269C18.1941 6.0479 17.8781 4.84394 17.3231 3.78394H3.78308Z" fill="#8971D0"/>
<path d="M10.5531 15.4669C6.0641 15.4669 2.41211 11.8149 2.41211 7.32593C2.41211 6.01493 2.73306 4.7089 3.34106 3.5509C3.42706 3.3859 3.59806 3.28296 3.78406 3.28296H17.3231C17.5091 3.28296 17.6801 3.3859 17.7661 3.5509C18.3731 4.7089 18.6951 6.01493 18.6951 7.32593C18.6941 11.8149 15.0421 15.4669 10.5531 15.4669ZM4.09308 4.28394C3.64108 5.23794 3.41309 6.2599 3.41309 7.3269C3.41309 11.2639 6.61608 14.468 10.5541 14.468C14.4911 14.468 17.6951 11.2649 17.6951 7.3269C17.6951 6.2609 17.4661 5.23894 17.0141 4.28394H4.09308Z" fill="#8971D0"/>
<path d="M11.0527 14.9668H10.0527V28.1298H11.0527V14.9668Z" fill="#8971D0"/>
<path d="M13.6706 27.6299H7.43555V28.6299H13.6706V27.6299Z" fill="#8971D0"/>
<path d="M2.94922 8.05493C3.31622 11.9329 6.58026 14.9659 10.5543 14.9659C14.5283 14.9659 17.7922 11.9319 18.1592 8.05493H2.94922Z" fill="#F0EEE6"/>
<path d="M10.5534 15.4669C8.51443 15.4669 6.56343 14.7099 5.06143 13.3339C3.56843 11.9679 2.64138 10.1099 2.45138 8.10193C2.43838 7.96193 2.48443 7.82296 2.57943 7.71796C2.67443 7.61396 2.80843 7.55396 2.94943 7.55396H18.1594C18.3004 7.55396 18.4344 7.61296 18.5294 7.71796C18.6244 7.82196 18.6704 7.96093 18.6574 8.10193C18.4674 10.1089 17.5404 11.9669 16.0474 13.3339C14.5424 14.7089 12.5924 15.4669 10.5534 15.4669ZM3.51943 8.55493C3.78843 10.1039 4.56341 11.5229 5.73641 12.5959C7.05441 13.8019 8.76541 14.4669 10.5544 14.4669C12.3424 14.4669 14.0534 13.8029 15.3724 12.5959C16.5454 11.5229 17.3204 10.1039 17.5894 8.55493H3.51943Z" fill="#F0EEE6"/>
</svg>
