<svg width="29" height="29" viewBox="0 0 29 29" fill="none" xmlns="http://www.w3.org/2000/svg">
<path d="M28.2758 7.04401L21.4518 0.220001C21.3108 0.0790012 21.1208 0 20.9218 0C20.7228 0 20.5317 0.0790012 20.3917 0.220001L0.21975 20.392C-0.07325 20.685 -0.07325 21.16 0.21975 21.453L7.04379 28.277C7.19079 28.423 7.38175 28.497 7.57375 28.497C7.76575 28.497 7.95778 28.424 8.10378 28.277L28.2758 8.10501C28.5688 7.81201 28.5688 7.33701 28.2758 7.04401Z" fill="#8471F4"/>
<path d="M21.4192 10.4621C21.1042 10.1471 20.5942 10.1471 20.2792 10.4621C19.9642 10.7771 19.9642 11.2871 20.2792 11.6021L22.5292 13.8521L23.6692 12.7121L21.4192 10.4621Z" fill="#FFD550"/>
<path d="M19.7102 14.0661C19.3952 13.7511 18.8842 13.7511 18.5702 14.0661C18.2552 14.3811 18.2552 14.8911 18.5702 15.2061L19.8722 16.5081L21.0123 15.3681L19.7102 14.0661Z" fill="#FFD550"/>
<path d="M25.0224 8.75505C24.7074 8.44005 24.1964 8.44005 23.8824 8.75505C23.5684 9.07005 23.5674 9.58106 23.8824 9.89506L25.1844 11.1971L26.3244 10.0571L25.0224 8.75505Z" fill="#FFD550"/>
<path d="M16.1086 15.7731C15.7936 15.4581 15.2837 15.4581 14.9687 15.7731C14.6537 16.0881 14.6537 16.5991 14.9687 16.9131L17.2187 19.1641L18.3586 18.0241L16.1086 15.7731Z" fill="#FFD550"/>
<path d="M14.4017 19.3771C14.0867 19.0621 13.5766 19.0621 13.2616 19.3771C12.9466 19.6921 12.9466 20.2021 13.2616 20.5171L14.5636 21.8191L15.7037 20.6791L14.4017 19.3771Z" fill="#FFD550"/>
<path d="M10.7972 21.0839C10.4822 20.7689 9.97117 20.7689 9.65617 21.0839C9.34117 21.3989 9.34117 21.9089 9.65617 22.2239L11.9062 24.4739L13.0472 23.3329L10.7972 21.0839Z" fill="#FFD550"/>
<path d="M10.3912 25.9899L9.08916 24.6879C8.77416 24.3729 8.26414 24.3729 7.94914 24.6879C7.63414 25.0029 7.63414 25.5139 7.94914 25.8279L9.25114 27.1299L10.3912 25.9899Z" fill="#FFD550"/>
</svg>
