<svg width="30" height="25" viewBox="0 0 30 25" fill="none" xmlns="http://www.w3.org/2000/svg">
<path d="M30 0H0V25H30V0Z" fill="#FFC853"/>
<path d="M25.7101 3.57495H4.28906V16.7549H25.7101V3.57495Z" fill="#68B8BC"/>
<path d="M12.9579 13.748C12.6479 13.748 12.3559 13.5789 12.1979 13.2979L10.4979 10.2829L9.54492 11.498C9.38592 11.701 9.14894 11.823 8.89594 11.834C8.64094 11.847 8.39692 11.7419 8.22192 11.5529L7.41693 10.6819H6.09192C5.60692 10.6819 5.21289 10.2789 5.21289 9.78195C5.21289 9.28495 5.60592 8.88192 6.09192 8.88192H7.79492C8.03692 8.88192 8.26692 8.98393 8.43292 9.16293L8.80493 9.56595L9.93091 8.13095C10.1129 7.89895 10.3929 7.7749 10.6829 7.7969C10.9719 7.8199 11.2319 7.98692 11.3769 8.24392L12.6299 10.4649L13.4899 6.91189C13.5729 6.57089 13.8409 6.30992 14.1779 6.24392C14.5139 6.17692 14.8579 6.31895 15.0579 6.60495L17.1969 9.67093L17.6299 8.91293C17.7879 8.63693 18.0759 8.46792 18.3879 8.46792H24.0839C24.5689 8.46792 24.9629 8.87095 24.9629 9.36795C24.9629 9.86495 24.5699 10.2679 24.0839 10.2679H18.8919L18.0289 11.7799C17.8789 12.0429 17.6079 12.2109 17.3109 12.2249C17.0129 12.2399 16.7289 12.0969 16.5559 11.8489L14.7369 9.24191L13.8119 13.0649C13.7259 13.4209 13.4369 13.6879 13.0819 13.7399C13.0409 13.7449 12.9989 13.748 12.9579 13.748Z" fill="white"/>
<path d="M22.485 18.6541C22.447 18.6441 22.409 18.6361 22.371 18.6281C22.218 18.5971 22.059 18.5801 21.896 18.5801C21.855 18.5801 21.815 18.5811 21.775 18.5831C21.373 18.6031 20.998 18.7241 20.675 18.9211C20.61 18.9601 20.547 19.0031 20.487 19.0481C20.185 19.2741 19.938 19.5711 19.773 19.9151C19.624 20.2241 19.541 20.5711 19.541 20.9371C19.541 21.3031 19.624 21.6491 19.773 21.9581C19.806 22.0271 19.842 22.0931 19.882 22.1581C19.98 22.3201 20.098 22.4691 20.231 22.6021C20.657 23.0281 21.246 23.2921 21.897 23.2921C22.548 23.2921 23.137 23.0281 23.563 22.6021C23.989 22.1761 24.253 21.5871 24.253 20.9361C24.253 19.8381 23.502 18.9161 22.485 18.6541Z" fill="#8471F4"/>
<path d="M16.4245 20.0361H12.7285V21.8361H16.4245V20.0361Z" fill="#8471F4"/>
<path d="M9.10419 20.0361H5.4082V21.8361H9.10419V20.0361Z" fill="#8471F4"/>
<g opacity="0.1">
<path d="M30.0006 0H15.3926V25H30.0006V0Z" fill="black"/>
</g>
</svg>
