<svg width="31" height="28" viewBox="0 0 31 28" fill="none" xmlns="http://www.w3.org/2000/svg">
<path d="M27.9867 0H2.09766C1.68366 0 1.34766 0.336 1.34766 0.75V17.073C1.34766 17.487 1.68366 17.823 2.09766 17.823H27.9867C28.4007 17.823 28.7367 17.487 28.7367 17.073V0.75C28.7367 0.336 28.4007 0 27.9867 0Z" fill="#A792FC"/>
<path d="M29.335 16.322H0.75C0.336 16.322 0 16.659 0 17.073C0 17.487 0.336 17.823 0.75 17.823H5.297V25.965H3.97998C3.56598 25.965 3.22998 26.301 3.22998 26.715C3.22998 27.129 3.56598 27.465 3.97998 27.465H8.20801C8.62201 27.465 8.95801 27.129 8.95801 26.715C8.95801 26.301 8.62201 25.965 8.20801 25.965H6.797V17.823H23.194V25.965H21.877C21.463 25.965 21.127 26.301 21.127 26.715C21.127 27.129 21.463 27.465 21.877 27.465H26.105C26.519 27.465 26.855 27.129 26.855 26.715C26.855 26.301 26.519 25.965 26.105 25.965H24.694V17.823H29.335C29.749 17.823 30.085 17.486 30.085 17.072C30.085 16.658 29.75 16.322 29.335 16.322Z" fill="#FFD550"/>
<path d="M8.1181 7.2851L9.69006 5.7131C9.90406 5.4981 9.96909 5.17609 9.85309 4.89609C9.73709 4.61609 9.4631 4.43311 9.1601 4.43311H6.7511C6.3371 4.43311 6.0011 4.76911 6.0011 5.18311C6.0011 5.59711 6.3371 5.93311 6.7511 5.93311H7.34906L6.20306 7.0791C6.09306 7.1891 6.02407 7.32611 5.99707 7.46811C5.97007 7.54511 5.95508 7.62809 5.95508 7.71509C5.95508 8.12909 6.29108 8.46509 6.70508 8.46509C7.68808 8.46509 8.48706 9.2641 8.48706 10.2471C8.48706 11.2301 7.68808 12.0291 6.70508 12.0291C6.29108 12.0291 5.95508 12.3651 5.95508 12.7791C5.95508 13.1931 6.29108 13.5291 6.70508 13.5291C8.51508 13.5291 9.98706 12.0571 9.98706 10.2471C9.98606 8.9421 9.2221 7.8141 8.1181 7.2851Z" fill="#FFFBE2"/>
<path d="M22.2617 7.2851L23.8337 5.7131C24.0477 5.4981 24.1127 5.17609 23.9957 4.89609C23.8797 4.61609 23.6067 4.43311 23.3027 4.43311H20.8937C20.4797 4.43311 20.1437 4.76911 20.1437 5.18311C20.1437 5.59711 20.4797 5.93311 20.8937 5.93311H21.4917L20.3457 7.0791C20.2357 7.1891 20.1667 7.32611 20.1397 7.46811C20.1127 7.54511 20.0977 7.62809 20.0977 7.71509C20.0977 8.12909 20.4337 8.46509 20.8477 8.46509C21.8307 8.46509 22.6297 9.2641 22.6297 10.2471C22.6297 11.2301 21.8307 12.0291 20.8477 12.0291C20.4337 12.0291 20.0977 12.3651 20.0977 12.7791C20.0977 13.1931 20.4337 13.5291 20.8477 13.5291C22.6577 13.5291 24.1297 12.0571 24.1297 10.2471C24.1297 8.9421 23.3657 7.8141 22.2617 7.2851Z" fill="#FFFBE2"/>
<path d="M17.4027 6.62307C17.1097 6.33007 16.6347 6.33007 16.3417 6.62307L15.0417 7.92306L13.7417 6.62307C13.4487 6.33007 12.9737 6.33007 12.6807 6.62307C12.3877 6.91607 12.3877 7.39104 12.6807 7.68404L13.9807 8.98406L12.6807 10.2841C12.3877 10.5771 12.3877 11.0521 12.6807 11.3451C12.8267 11.4911 13.0187 11.5651 13.2107 11.5651C13.4027 11.5651 13.5947 11.4921 13.7407 11.3451L15.0407 10.0451L16.3407 11.3451C16.4867 11.4911 16.6797 11.5651 16.8707 11.5651C17.0617 11.5651 17.2547 11.4921 17.4007 11.3451C17.6937 11.0521 17.6937 10.5771 17.4007 10.2841L16.1007 8.98406L17.4007 7.68404C17.6957 7.39104 17.6957 6.91607 17.4027 6.62307Z" fill="#FFFBE2"/>
</svg>
