<svg width="27" height="26" viewBox="0 0 27 26" fill="none" xmlns="http://www.w3.org/2000/svg">
<path d="M23.4141 20.732C23.0001 20.732 22.6641 20.396 22.6641 19.982V0.75C22.6641 0.336 23.0001 0 23.4141 0C23.8281 0 24.1641 0.336 24.1641 0.75V19.982C24.1641 20.397 23.8291 20.732 23.4141 20.732Z" fill="#FFD550"/>
<path d="M16.6836 20.732C16.2696 20.732 15.9336 20.396 15.9336 19.982V0.75C15.9336 0.336 16.2696 0 16.6836 0C17.0976 0 17.4336 0.336 17.4336 0.75V19.982C17.4336 20.397 17.0976 20.732 16.6836 20.732Z" fill="#FFD550"/>
<path d="M9.94922 20.732C9.53522 20.732 9.19922 20.396 9.19922 19.982V0.75C9.19922 0.336 9.53522 0 9.94922 0C10.3632 0 10.6992 0.336 10.6992 0.75V19.982C10.6992 20.397 10.3632 20.732 9.94922 20.732Z" fill="#FFD550"/>
<path d="M3.2168 20.732C2.8028 20.732 2.4668 20.396 2.4668 19.982V0.75C2.4668 0.336 2.8028 0 3.2168 0C3.6308 0 3.9668 0.336 3.9668 0.75V19.982C3.9668 20.397 3.6308 20.732 3.2168 20.732Z" fill="#FFD550"/>
<path d="M24.1139 2.89795H22.9109C21.8359 2.89795 20.9609 3.77296 20.9609 4.84796V4.99896C20.9609 6.07396 21.8359 6.94894 22.9109 6.94894H24.1139C25.1889 6.94894 26.0639 6.07396 26.0639 4.99896V4.84796C26.0639 3.77296 25.1889 2.89795 24.1139 2.89795Z" fill="#A792FC"/>
<path d="M17.2849 2.89795H16.0809C15.0059 2.89795 14.1309 3.77296 14.1309 4.84796V4.99896C14.1309 6.07396 15.0059 6.94894 16.0809 6.94894H17.2839C18.3589 6.94894 19.2339 6.07396 19.2339 4.99896V4.84796C19.2349 3.77296 18.3599 2.89795 17.2849 2.89795Z" fill="#FFD550"/>
<path d="M17.2849 8.33301H16.0809C15.0059 8.33301 14.1309 9.20802 14.1309 10.283V10.434C14.1309 11.509 15.0059 12.384 16.0809 12.384H17.2839C18.3589 12.384 19.2339 11.509 19.2339 10.434V10.283C19.2349 9.20802 18.3599 8.33301 17.2849 8.33301Z" fill="#FFD550"/>
<path d="M10.4537 8.33301H9.25073C8.17573 8.33301 7.30078 9.20802 7.30078 10.283V10.434C7.30078 11.509 8.17573 12.384 9.25073 12.384H10.4537C11.5287 12.384 12.4037 11.509 12.4037 10.434V10.283C12.4037 9.20802 11.5287 8.33301 10.4537 8.33301Z" fill="#A792FC"/>
<path d="M10.4537 13.7671H9.25073C8.17573 13.7671 7.30078 14.6421 7.30078 15.7171V15.8681C7.30078 16.9431 8.17573 17.8181 9.25073 17.8181H10.4537C11.5287 17.8181 12.4037 16.9431 12.4037 15.8681V15.7171C12.4037 14.6421 11.5287 13.7671 10.4537 13.7671Z" fill="#FFD550"/>
<path d="M3.62372 2.89795H2.42072C1.34572 2.89795 0.470703 3.77296 0.470703 4.84796V4.99896C0.470703 6.07396 1.34572 6.94894 2.42072 6.94894H3.62372C4.69872 6.94894 5.57367 6.07396 5.57367 4.99896V4.84796C5.57367 3.77296 4.69872 2.89795 3.62372 2.89795Z" fill="#A792FC"/>
<path d="M3.62372 8.33301H2.42072C1.34572 8.33301 0.470703 9.20802 0.470703 10.283V10.434C0.470703 11.509 1.34572 12.384 2.42072 12.384H3.62372C4.69872 12.384 5.57367 11.509 5.57367 10.434V10.283C5.57367 9.20802 4.69872 8.33301 3.62372 8.33301Z" fill="#FFD550"/>
<path d="M3.62372 13.7671H2.42072C1.34572 13.7671 0.470703 14.6421 0.470703 15.7171V15.8681C0.470703 16.9431 1.34572 17.8181 2.42072 17.8181H3.62372C4.69872 17.8181 5.57367 16.9431 5.57367 15.8681V15.7171C5.57367 14.6421 4.69872 13.7671 3.62372 13.7671Z" fill="#FFD550"/>
<path d="M0 20.6799V24.6109C0 24.9959 0.311998 25.3089 0.697998 25.3089H25.865C26.25 25.3089 26.563 24.9969 26.563 24.6109V20.6799C26.563 20.2949 26.251 19.9819 25.865 19.9819H0.697998C0.312998 19.9819 0 20.2949 0 20.6799Z" fill="#8471F4"/>
</svg>
