<svg width="29" height="29" viewBox="0 0 29 29" fill="none" xmlns="http://www.w3.org/2000/svg">
<path d="M3.68898 17.5649L0.144978 26.8849C0.0819779 26.9709 0.036973 27.072 0.014973 27.18C-0.035027 27.426 0.041929 27.6809 0.219929 27.8589L0.236958 27.8759C0.378958 28.0179 0.569926 28.0959 0.766926 28.0959C0.815926 28.0959 0.865936 28.091 0.914936 28.081C1.02294 28.059 1.12398 28.014 1.20998 27.951L10.5299 24.407L3.68898 17.5649Z" fill="#FFD550"/>
<path d="M27.8551 5.918L22.1781 0.241028C22.0231 0.0850278 21.8161 0 21.5961 0C21.3761 0 21.1691 0.0860278 21.0141 0.241028L17.4941 3.76102L24.3361 10.603L27.8561 7.08301C28.0111 6.92801 28.0971 6.72101 28.0971 6.50101C28.0971 6.28101 28.0101 6.074 27.8551 5.918Z" fill="#FFD550"/>
<path d="M17.4934 3.76111L20.9774 0.2771L3.68945 17.5651L10.5314 24.4071L24.3344 10.6021L17.4934 3.76111Z" fill="#8471F4"/>
<path d="M0.997944 24.6421L0.144978 26.8851C0.0819779 26.9711 0.036973 27.0721 0.014973 27.1801C-0.035027 27.4261 0.041929 27.6811 0.219929 27.8591L0.236958 27.8761C0.378958 28.0181 0.569926 28.0961 0.766926 28.0961C0.815926 28.0961 0.865936 28.0911 0.914936 28.0811C1.02294 28.0591 1.12398 28.0141 1.20998 27.9511L3.45296 27.0981L0.997944 24.6421Z" fill="#FFD550"/>
</svg>
