<svg width="30" height="25" viewBox="0 0 30 25" fill="none" xmlns="http://www.w3.org/2000/svg">
<path d="M30 3.40405H0V25.0001H30V3.40405Z" fill="#8471F4"/>
<path d="M19.955 3.40399V0H10.045V3.40399H0V8.15198H30V3.40399H19.955ZM11.845 1.79999H18.155V3.40399H11.845V1.79999Z" fill="#68B8BC"/>
<path d="M20.2833 13.2751C20.2313 13.1901 20.1783 13.106 20.1223 13.024C19.6783 12.367 19.1113 11.799 18.4533 11.355C18.2073 11.188 17.9473 11.0391 17.6773 10.9091C17.3173 10.7361 16.9373 10.5961 16.5433 10.4941C16.0503 10.3671 15.5323 10.2991 14.9993 10.2991C13.4003 10.2991 11.9423 10.9071 10.8453 11.9041C10.4793 12.2361 10.1543 12.6121 9.87631 13.0231C9.71031 13.2701 9.5603 13.5291 9.4303 13.7991C9.2573 14.1591 9.11732 14.539 9.01532 14.933C8.99032 15.032 8.96732 15.1311 8.94632 15.2321C8.88432 15.5341 8.84431 15.8431 8.82831 16.1591C8.82331 16.2641 8.82031 16.3701 8.82031 16.4771C8.82031 16.5841 8.82331 16.69 8.82831 16.795C8.84431 17.111 8.88432 17.42 8.94632 17.722C8.96632 17.823 8.99032 17.9221 9.01532 18.0211C9.11732 18.4161 9.2563 18.7951 9.4303 19.1551C9.5603 19.4251 9.70931 19.6841 9.87631 19.9311C10.0433 20.1781 10.2263 20.411 10.4263 20.631C11.5563 21.874 13.1863 22.6551 14.9993 22.6551C15.5323 22.6551 16.0503 22.5871 16.5433 22.4601C16.9383 22.3581 17.3173 22.219 17.6773 22.045C17.9473 21.915 18.2063 21.7661 18.4533 21.5991C19.1103 21.1551 19.6783 20.5881 20.1223 19.9301C20.1783 19.8481 20.2313 19.7641 20.2833 19.6791C20.8513 18.7451 21.1773 17.6481 21.1773 16.4761C21.1773 15.3051 20.8503 14.2091 20.2833 13.2751Z" fill="#FFC853"/>
<path d="M17.6035 15.347H15.8995V13.644H14.0995V15.347H12.3965V17.1471H14.0995V18.8511H15.8995V17.1471H17.6035V15.347Z" fill="white"/>
<g opacity="0.1">
<path d="M19.955 3.40399V0H15V1.79999H18.155V3.40399H15V25H30V8.15198V3.40399H19.955Z" fill="black"/>
</g>
</svg>
