<svg width="30" height="30" viewBox="0 0 30 30" fill="none" xmlns="http://www.w3.org/2000/svg">
<path d="M5.37799 15H0V30H5.37799V15Z" fill="#FFC853"/>
<path d="M29.9991 15H24.6211V30H29.9991V15Z" fill="#FFC853"/>
<path d="M18.9523 5.0249C18.8573 4.8979 18.7573 4.77691 18.6513 4.65991C18.5983 4.60191 18.5433 4.54489 18.4883 4.48889C17.5963 3.59689 16.3633 3.04492 15.0013 3.04492C13.6393 3.04492 12.4073 3.59689 11.5143 4.48889C11.4583 4.54489 11.4043 4.60191 11.3513 4.65991C11.2453 4.77691 11.1443 4.8989 11.0503 5.0249C10.4353 5.8479 10.0703 6.86891 10.0703 7.97491C10.0703 10.6979 12.2783 12.9059 15.0013 12.9059C17.7243 12.9059 19.9323 10.6979 19.9323 7.97491C19.9313 6.86891 19.5673 5.8469 18.9523 5.0249Z" fill="white"/>
<path d="M24.623 7.48907V7.08911H19.851C19.903 7.37611 19.9309 7.6721 19.9309 7.9751C19.9309 10.6981 17.7229 12.9061 14.9999 12.9061C12.2769 12.9061 10.0689 10.6981 10.0689 7.9751C10.0689 7.6721 10.097 7.37611 10.149 7.08911H5.37695V7.48907V30.0011H24.6209V7.48907H24.623Z" fill="#68B8BC"/>
<path d="M5.37891 0V7.08899H10.1509C10.2899 6.32499 10.6029 5.62196 11.0499 5.02496C11.1449 4.89796 11.2449 4.77697 11.3509 4.65997C11.4039 4.60197 11.4589 4.54495 11.5139 4.48895C12.4059 3.59695 13.6389 3.04498 15.0009 3.04498C16.3629 3.04498 17.5959 3.59695 18.4879 4.48895C18.5439 4.54495 18.5979 4.60197 18.6509 4.65997C18.7569 4.77697 18.8579 4.89896 18.9519 5.02496C19.3989 5.62296 19.7129 6.32599 19.8509 7.08899H24.6229V0H5.37891Z" fill="#FFC853"/>
<path d="M17.0676 7.1521H15.8996V5.98413H14.0996V7.1521H12.9316V8.95209H14.0996V10.1201H15.8996V8.95209H17.0676V7.1521Z" fill="#8471F4"/>
<path d="M10.7331 14.7009H8.12305V17.3109H10.7331V14.7009Z" fill="white"/>
<path d="M16.3053 14.7009H13.6953V17.3109H16.3053V14.7009Z" fill="white"/>
<path d="M10.7324 21.093V30.0001H12.4764V22.913H12.5324V22.8931H17.4664V22.913H17.5234V30.0001H19.2664V21.093H10.7324Z" fill="white"/>
<path d="M21.8776 14.7009H19.2676V17.3109H21.8776V14.7009Z" fill="white"/>
<g opacity="0.1">
<path d="M24.622 15V8.495V7.48895V0H15V30H17.524H22.796H24.622H30V15H24.622Z" fill="black"/>
</g>
</svg>
