<svg width="25" height="30" viewBox="0 0 25 30" fill="none" xmlns="http://www.w3.org/2000/svg">
<path d="M25 30H0V0H18.903L21.936 3.065L25 6.09802V30Z" fill="#8471F4"/>
<path d="M25 30H0V0H18.903L18.847 6.15405L25 6.09802V30Z" fill="#FFC853"/>
<path d="M5.99774 17.0081L4.46875 15.4791L5.74173 14.2071L5.99774 14.4631L7.20474 13.2571L8.47675 14.5291L5.99774 17.0081Z" fill="#8471F4"/>
<path d="M5.99774 21.9361L4.46875 20.4071L5.74173 19.1341L5.99774 19.3901L7.20474 18.1841L8.47675 19.4571L5.99774 21.9361Z" fill="#8471F4"/>
<path d="M5.99774 26.8631L4.46875 25.3341L5.74173 24.0611L5.99774 24.3181L7.20474 23.1111L8.47675 24.3841L5.99774 26.8631Z" fill="#8471F4"/>
<path d="M20.5307 14.124H9.2207V15.924H20.5307V14.124Z" fill="#8471F4"/>
<path d="M20.5307 19.051H9.2207V20.851H20.5307V19.051Z" fill="#8471F4"/>
<path d="M20.5307 23.979H9.2207V25.7791H20.5307V23.979Z" fill="#8471F4"/>
<path d="M9.54883 5.75696H7.76083V3.96997H5.96085V5.75696H4.17383V7.55695H5.96085V9.34497H7.76083V7.55695H9.54883V5.75696Z" fill="white"/>
<g opacity="0.1">
<path d="M21.936 3.065L18.903 0H13V30H25V6.09802L21.936 3.065Z" fill="black"/>
</g>
</svg>
