<svg width="14" height="30" viewBox="0 0 14 30" fill="none" xmlns="http://www.w3.org/2000/svg">
<path d="M7.5824 20.7899V11.9109H5.90939V20.7899C4.83939 21.1409 4.06641 22.1479 4.06641 23.3349C4.06641 24.7729 5.1994 25.9459 6.6214 26.0109C6.6624 26.0169 6.70339 26.0209 6.74539 26.0209C6.78739 26.0209 6.82938 26.0169 6.86938 26.0109C8.29138 25.9459 9.42441 24.7729 9.42441 23.3349C9.42541 22.1479 8.6524 21.1409 7.5824 20.7899Z" fill="#68B8BC"/>
<path d="M12.85 20.384C12.791 20.259 12.729 20.137 12.663 20.017C12.63 19.957 12.596 19.897 12.561 19.839C12.492 19.721 12.419 19.605 12.342 19.492C12.228 19.322 12.106 19.158 11.977 19C11.547 18.472 11.039 18.011 10.471 17.634V3.72601C10.471 1.67701 8.794 0 6.745 0C4.696 0 3.01901 1.67701 3.01901 3.72601V17.634C2.45101 18.011 1.943 18.473 1.513 19C1.384 19.158 1.26201 19.322 1.14801 19.492C1.07201 19.605 0.998986 19.721 0.928986 19.839C0.893986 19.898 0.859996 19.957 0.826996 20.017C0.760996 20.137 0.698984 20.259 0.639984 20.384C0.228984 21.255 0 22.228 0 23.255C0 24.885 0.578009 26.379 1.54001 27.545C1.67801 27.712 1.82301 27.871 1.97501 28.024C2.28001 28.329 2.61399 28.605 2.97299 28.848C3.51099 29.212 4.10501 29.5 4.73801 29.697C4.84401 29.73 4.94998 29.76 5.05798 29.788C5.27298 29.844 5.493 29.889 5.716 29.923C6.051 29.974 6.39401 30.001 6.74301 30.001C7.09201 30.001 7.43499 29.974 7.76999 29.923C7.99299 29.889 8.21299 29.844 8.42899 29.788C8.53699 29.76 8.64299 29.73 8.74899 29.697C9.38299 29.5 9.97601 29.212 10.514 28.848C10.783 28.666 11.038 28.465 11.278 28.248C11.518 28.03 11.741 27.796 11.947 27.546C12.291 27.13 12.585 26.671 12.822 26.18C12.917 25.983 13.002 25.782 13.078 25.575C13.343 24.852 13.487 24.071 13.487 23.256C13.491 22.228 13.261 21.255 12.85 20.384Z" fill="#68B8BC"/>
<path d="M6.74542 22.4099L7.02042 22.4999C7.32142 22.5989 7.62442 22.8949 7.62442 23.3349C7.62442 23.8059 7.25641 24.1909 6.78741 24.2129L6.74542 24.2149L6.70343 24.2129C6.23443 24.1919 5.86642 23.8059 5.86642 23.3349C5.86642 22.8949 6.17043 22.5989 6.47043 22.4999L6.74542 22.4099ZM7.58243 11.9109H5.90942V20.7899C4.83942 21.1409 4.06641 22.1479 4.06641 23.3349C4.06641 24.7729 5.19943 25.9459 6.62143 26.0109C6.66243 26.0169 6.70342 26.0209 6.74542 26.0209C6.78742 26.0209 6.82942 26.0169 6.86942 26.0109C8.29142 25.9459 9.42441 24.7729 9.42441 23.3349C9.42441 22.1469 8.65142 21.1409 7.58142 20.7899V11.9109H7.58243Z" fill="#FFC853"/>
<path d="M6.74561 2.55591C6.04661 2.55591 5.47461 3.12797 5.47461 3.82697V3.96692C5.47461 4.66892 6.04361 5.23792 6.74561 5.23792C7.44761 5.23792 8.0166 4.66892 8.0166 3.96692V3.86493C8.0166 3.21393 7.5426 2.63896 6.8956 2.56396C6.8456 2.55896 6.79561 2.55591 6.74561 2.55591Z" fill="#FFC853"/>
<path d="M13.8276 2.396H11.1426V4.19598H13.8276V2.396Z" fill="#8471F4"/>
<path d="M12.4856 5.7561H11.1426V7.55609H12.4856V5.7561Z" fill="#8471F4"/>
<path d="M13.8276 9.11694H11.1426V10.9169H13.8276V9.11694Z" fill="#8471F4"/>
<path d="M12.4856 12.478H11.1426V14.278H12.4856V12.478Z" fill="#8471F4"/>
<path d="M13.8276 15.8391H11.1426V17.6391H13.8276V15.8391Z" fill="#8471F4"/>
<g opacity="0.1">
<path d="M13.8295 2.396H11.1445V4.19598H13.8295V2.396Z" fill="black"/>
<path d="M12.4875 5.7561H11.1445V7.55609H12.4875V5.7561Z" fill="black"/>
<path d="M13.8295 9.11694H11.1445V10.9169H13.8295V9.11694Z" fill="black"/>
<path d="M12.4875 12.478H11.1445V14.278H12.4875V12.478Z" fill="black"/>
<path d="M13.8295 15.8391H11.1445V17.6391H13.8295V15.8391Z" fill="black"/>
<path d="M12.6641 20.017C12.6311 19.957 12.5971 19.897 12.5621 19.839C12.4931 19.721 12.4201 19.605 12.3431 19.492C12.2291 19.322 12.1071 19.158 11.9781 19C11.5481 18.472 11.0401 18.011 10.4721 17.634V3.72601C10.4721 1.67701 8.79509 0 6.74609 0V30C7.09509 30 7.4381 29.973 7.7731 29.922C7.9961 29.888 8.2161 29.843 8.4321 29.787C8.5401 29.759 8.64611 29.729 8.75211 29.696C9.38611 29.499 9.97909 29.211 10.5171 28.847C10.7861 28.665 11.0411 28.464 11.2811 28.247C11.5211 28.029 11.7441 27.795 11.9501 27.545C12.2941 27.129 12.5881 26.67 12.8251 26.179C12.9201 25.982 13.0051 25.781 13.0811 25.574C13.3461 24.851 13.4901 24.07 13.4901 23.255C13.4901 22.228 13.2601 21.255 12.8501 20.384C12.7931 20.26 12.7301 20.137 12.6641 20.017Z" fill="black"/>
</g>
</svg>
