<svg width="22" height="28" viewBox="0 0 22 28" fill="none" xmlns="http://www.w3.org/2000/svg">
<path d="M11.9122 18.258C16.954 18.258 21.0412 14.1708 21.0412 9.129C21.0412 4.08719 16.954 0 11.9122 0C6.87036 0 2.7832 4.08719 2.7832 9.129C2.7832 14.1708 6.87036 18.258 11.9122 18.258Z" fill="#8471F4"/>
<path d="M21.0102 9.879C21.0302 9.632 21.0412 9.382 21.0412 9.129C21.0412 8.876 21.0302 8.626 21.0102 8.379H16.0632C16.0272 7.408 15.9222 6.43697 15.7502 5.51797C16.8412 5.01297 17.8332 4.29298 18.6582 3.38898C18.7242 3.31698 18.7722 3.23499 18.8052 3.14899C18.5052 2.80399 18.1802 2.482 17.8322 2.185C17.7282 2.225 17.6312 2.28899 17.5502 2.37799C16.9312 3.05699 16.1982 3.60997 15.3952 4.02197C14.7162 1.70197 13.5392 0 11.9122 0C10.2852 0 9.1092 1.70197 8.4292 4.02197C7.6262 3.60997 6.89317 3.05599 6.27417 2.37799C6.19417 2.28999 6.09719 2.226 5.99219 2.185C5.64419 2.482 5.31917 2.80399 5.01917 3.14899C5.05217 3.23499 5.1002 3.316 5.1662 3.388C5.9912 4.292 6.98416 5.012 8.07416 5.517C7.90216 6.436 7.79717 7.40699 7.76117 8.37799H2.81421C2.79421 8.62499 2.7832 8.87499 2.7832 9.12799C2.7832 9.38099 2.79421 9.63099 2.81421 9.87799H7.76117C7.80117 10.952 7.92516 12.027 8.13116 13.03C7.01816 13.537 6.0052 14.265 5.1662 15.185C5.1532 15.2 5.14115 15.215 5.12915 15.23C5.46215 15.6 5.82517 15.943 6.21417 16.254C6.23517 16.236 6.25517 16.216 6.27417 16.195C6.91517 15.493 7.67621 14.924 8.51221 14.508C9.20221 16.686 10.3492 18.255 11.9112 18.255C13.4732 18.255 14.6202 16.686 15.3102 14.508C16.1462 14.924 16.9072 15.492 17.5482 16.195C17.5672 16.216 17.5872 16.235 17.6082 16.254C17.9972 15.942 18.3602 15.6 18.6942 15.23C18.6822 15.215 18.6702 15.199 18.6572 15.185C17.8182 14.265 16.8052 13.536 15.6922 13.03C15.8982 12.026 16.0222 10.952 16.0622 9.87698H21.0102V9.879ZM11.9122 1.5C12.5992 1.5 13.4542 2.609 14.0072 4.569C13.3312 4.763 12.6272 4.866 11.9122 4.866C11.1972 4.866 10.4932 4.763 9.8172 4.569C10.3712 2.609 11.2252 1.5 11.9122 1.5ZM9.49219 6.03799C10.2742 6.25399 11.0882 6.36697 11.9122 6.36697C12.7362 6.36697 13.5502 6.25399 14.3322 6.03799C14.4512 6.74699 14.5322 7.53 14.5622 8.379H9.26117C9.29217 7.53 9.37319 6.74699 9.49219 6.03799ZM11.9122 16.758C11.2602 16.758 10.4562 15.759 9.9032 13.98C10.5522 13.802 11.2272 13.709 11.9112 13.709C12.5952 13.709 13.2702 13.803 13.9202 13.981C13.3682 15.758 12.5652 16.758 11.9122 16.758ZM14.2792 12.522C13.5132 12.316 12.7182 12.208 11.9122 12.208C11.1072 12.208 10.3122 12.316 9.5462 12.522C9.3982 11.735 9.29621 10.85 9.26221 9.879H14.5632C14.5282 10.85 14.4272 11.735 14.2792 12.522Z" fill="#FFD550"/>
<path d="M21.297 15.2209C20.966 14.9719 20.496 15.0389 20.247 15.3709C18.259 18.0209 15.221 19.5409 11.912 19.5409C6.17099 19.5409 1.5 14.8699 1.5 9.12891C1.5 8.71491 1.164 8.37891 0.75 8.37891C0.336 8.37891 0 8.71491 0 9.12891C0 15.4449 4.94199 20.6279 11.162 21.0169V26.3329H7.15302C6.73902 26.3329 6.40302 26.6689 6.40302 27.0829C6.40302 27.4969 6.73902 27.8329 7.15302 27.8329H16.672C17.086 27.8329 17.422 27.4969 17.422 27.0829C17.422 26.6689 17.086 26.3329 16.672 26.3329H12.662V21.0169C16.154 20.8029 19.323 19.0999 21.447 16.2699C21.696 15.9389 21.628 15.4689 21.297 15.2209Z" fill="#A792FC"/>
</svg>
