<svg width="26" height="24" viewBox="0 0 26 24" fill="none" xmlns="http://www.w3.org/2000/svg">
<path d="M25.701 19.71L14.98 1.13995C14.568 0.425954 13.829 0 13.005 0C12.181 0 11.442 0.425954 11.03 1.13995L0.309 19.71C-0.103 20.424 -0.103 21.276 0.309 21.991C0.721 22.705 1.46001 23.131 2.28401 23.131H23.726C24.55 23.131 25.289 22.705 25.701 21.991C26.113 21.276 26.113 20.424 25.701 19.71Z" fill="#FFD550"/>
<path d="M25.7004 19.71L14.9794 1.13995C14.5674 0.425954 13.8284 0 13.0044 0C12.2554 0 11.5774 0.353003 11.1504 0.953003C11.1934 1.013 11.2344 1.07495 11.2714 1.13995L21.9924 19.71C22.4044 20.424 22.4044 21.276 21.9924 21.991C21.5804 22.705 20.8414 23.131 20.0174 23.131H23.7244C24.5484 23.131 25.2874 22.705 25.6994 21.991C26.1124 21.276 26.1124 20.424 25.7004 19.71Z" fill="#8471F4"/>
<path d="M14.4658 5.72705C14.1898 5.43605 13.8018 5.26904 13.4008 5.26904H12.6078C12.2068 5.26904 11.8188 5.43605 11.5428 5.72705C11.2668 6.01805 11.1208 6.41506 11.1428 6.81506L11.5398 14.2581C11.5818 15.0371 12.2248 15.648 13.0058 15.648C13.7858 15.648 14.4298 15.0381 14.4718 14.2581L14.8688 6.81506C14.8878 6.41506 14.7418 6.01805 14.4658 5.72705Z" fill="#8471F4"/>
<path d="M13.0043 16.8369C12.0073 16.8369 11.1953 17.6479 11.1953 18.6459C11.1953 19.6429 12.0063 20.4549 13.0043 20.4549C14.0013 20.4549 14.8133 19.6439 14.8133 18.6459C14.8123 17.6489 14.0013 16.8369 13.0043 16.8369Z" fill="#8471F4"/>
<path d="M14.4663 5.72705C14.1903 5.43605 13.8023 5.26904 13.4013 5.26904H12.6083C12.5533 5.26904 12.4984 5.27305 12.4434 5.27905C12.7844 5.31805 13.1054 5.47605 13.3434 5.72705C13.6194 6.01805 13.7654 6.41506 13.7444 6.81506L13.3474 14.2581C13.3164 14.8391 12.9504 15.326 12.4434 15.536C12.6164 15.608 12.8063 15.648 13.0053 15.648C13.7853 15.648 14.4293 15.0381 14.4713 14.2581L14.8683 6.81506C14.8883 6.41506 14.7423 6.01805 14.4663 5.72705Z" fill="#80D1ED"/>
<path d="M13.0053 16.8369C12.8093 16.8369 12.6204 16.8689 12.4434 16.9269C13.1664 17.1639 13.6903 17.8439 13.6903 18.6449C13.6903 19.4459 13.1664 20.1259 12.4434 20.3629C12.6204 20.4209 12.8083 20.4529 13.0053 20.4529C14.0023 20.4529 14.8144 19.6419 14.8144 18.6439C14.8134 17.6489 14.0023 16.8369 13.0053 16.8369Z" fill="#80D1ED"/>
</svg>
