<svg width="22" height="28" viewBox="0 0 22 28" fill="none" xmlns="http://www.w3.org/2000/svg">
<path d="M13.282 0.000976562H8.41602V4.53101H10.099V6.46204H11.599V4.53101H13.282V0.000976562Z" fill="#FFD550"/>
<path d="M10.849 27.9971C16.8407 27.9971 21.698 23.1398 21.698 17.1481C21.698 11.1563 16.8407 6.29907 10.849 6.29907C4.85726 6.29907 0 11.1563 0 17.1481C0 23.1398 4.85726 27.9971 10.849 27.9971Z" fill="#A792FC"/>
<path d="M10.8495 25.3511C15.3799 25.3511 19.0525 21.6785 19.0525 17.1481C19.0525 12.6177 15.3799 8.94507 10.8495 8.94507C6.3191 8.94507 2.64648 12.6177 2.64648 17.1481C2.64648 21.6785 6.3191 25.3511 10.8495 25.3511Z" fill="#FFD550"/>
<path d="M11.5996 10.769H10.0996V12.0671H11.5996V10.769Z" fill="#FFD550"/>
<path d="M11.5996 22.2302H10.0996V23.5272H11.5996V22.2302Z" fill="#FFD550"/>
<path d="M17.2296 16.3979H15.9316V17.8979H17.2296V16.3979Z" fill="#FFD550"/>
<path d="M5.76868 16.3979H4.4707V17.8979H5.76868V16.3979Z" fill="#FFD550"/>
<path d="M18.049 6.59947L17.2715 7.62012L18.4647 8.52912L19.2422 7.50847L18.049 6.59947Z" fill="#FFD550"/>
<path d="M10.8485 18.3521C10.1845 18.3521 9.64453 17.8121 9.64453 17.1481C9.64453 16.4841 10.1845 15.9441 10.8485 15.9441C11.5125 15.9441 12.0526 16.4841 12.0526 17.1481C12.0526 17.8121 11.5125 18.3521 10.8485 18.3521ZM10.8485 16.8521C10.6855 16.8521 10.5526 16.9851 10.5526 17.1481C10.5526 17.3111 10.6855 17.4441 10.8485 17.4441C11.0115 17.4441 11.1445 17.3111 11.1445 17.1481C11.1445 16.9851 11.0115 16.8521 10.8485 16.8521Z" fill="#FFD550"/>
<g opacity="0.15">
<path d="M17.9707 6.61925L17.1934 7.63989L18.3866 8.54874L19.164 7.5281L17.9707 6.61925Z" fill="#231F20"/>
<path d="M11.5989 6.32501V4.53101H13.2819V0H10.7539V27.996C10.7849 27.996 10.8169 27.997 10.8479 27.997C16.8399 27.997 21.6969 23.139 21.6969 17.148C21.6979 11.408 17.2409 6.71001 11.5989 6.32501Z" fill="#231F20"/>
</g>
</svg>
