<svg width="24" height="27" viewBox="0 0 24 27" fill="none" xmlns="http://www.w3.org/2000/svg">
<path d="M2.20935 25.751L0.28931 23.8311C-0.11069 23.4311 -0.0936413 22.7781 0.326359 22.3991L8.59632 14.948C8.98632 14.596 9.58433 14.6121 9.95533 14.9831L11.0573 16.085C11.4293 16.456 11.4444 17.054 11.0924 17.444L3.64136 25.714C3.26236 26.134 2.60935 26.151 2.20935 25.751Z" fill="#FFD550"/>
<path d="M21.5669 4.47286C18.6819 1.58786 13.5409 2.05285 10.0839 5.50985C7.15595 8.43785 6.37493 12.5739 7.95693 15.5239L8.59591 14.9478C8.98591 14.5958 9.58392 14.6119 9.95492 14.9829L11.0569 16.0848C11.4289 16.4558 11.4439 17.0538 11.0919 17.4438L10.516 18.0828C13.466 19.6648 17.6019 18.8839 20.5299 15.9559C23.9879 12.4989 24.4519 7.35786 21.5669 4.47286Z" fill="#A792FC"/>
<path d="M16.3761 4.42502C15.3641 5.43702 13.7232 5.43702 12.7102 4.42502C11.6982 3.41302 11.6982 1.771 12.7102 0.759C13.7222 -0.253 15.3631 -0.253 16.3761 0.759C17.3881 1.771 17.3881 3.41302 16.3761 4.42502Z" fill="#8471F4"/>
<path d="M8.22761 8.02515C6.91161 10.5301 6.79156 13.3492 7.95856 15.5242L8.5976 14.9481C8.9876 14.5961 9.58561 14.6122 9.95661 14.9832L11.0586 16.0851C11.4306 16.4561 11.4456 17.0541 11.0936 17.4441L10.5176 18.0831C12.6926 19.2491 15.5116 19.1301 18.0166 17.8141L8.22761 8.02515Z" fill="#8471F4"/>
<g opacity="0.15">
<path d="M21.45 4.36206L1.375 24.918L2.20905 25.752C2.60905 26.152 3.26205 26.135 3.64105 25.715L10.517 18.084C10.6 18.128 10.684 18.1701 10.768 18.2111C10.793 18.2231 10.818 18.235 10.843 18.246C10.907 18.276 10.971 18.304 11.036 18.332C11.061 18.342 11.085 18.353 11.11 18.363C11.196 18.398 11.282 18.432 11.369 18.464C11.383 18.469 11.398 18.474 11.412 18.479C11.486 18.505 11.56 18.53 11.635 18.554C11.665 18.564 11.695 18.573 11.725 18.582C11.789 18.601 11.854 18.62 11.918 18.637C11.946 18.645 11.974 18.653 12.002 18.66C12.089 18.682 12.177 18.703 12.265 18.722C12.294 18.728 12.323 18.733 12.351 18.739C12.414 18.752 12.477 18.764 12.541 18.775C12.579 18.782 12.617 18.7879 12.655 18.7939C12.714 18.8029 12.773 18.8119 12.833 18.8199C12.869 18.8249 12.904 18.83 12.94 18.834C13.025 18.844 13.111 18.853 13.197 18.86C13.24 18.864 13.283 18.866 13.327 18.869C13.377 18.872 13.427 18.8751 13.478 18.8781C13.526 18.8801 13.574 18.8821 13.623 18.8831C13.67 18.8841 13.717 18.885 13.763 18.885C13.851 18.886 13.9401 18.8851 14.0291 18.8831C14.0701 18.8821 14.111 18.882 14.153 18.88C14.21 18.878 14.268 18.874 14.325 18.871C14.361 18.869 14.396 18.866 14.432 18.864C14.492 18.86 14.552 18.855 14.612 18.849C14.637 18.847 14.663 18.8439 14.688 18.8409C14.819 18.8269 14.951 18.811 15.083 18.791C15.096 18.789 15.108 18.787 15.121 18.786C15.19 18.775 15.259 18.763 15.329 18.751C15.35 18.747 15.371 18.743 15.393 18.739C15.626 18.695 15.859 18.641 16.091 18.578C16.092 18.578 16.0931 18.578 16.0941 18.577C16.1721 18.556 16.249 18.533 16.326 18.51C16.335 18.507 16.3431 18.505 16.3521 18.502C16.9151 18.33 17.4731 18.101 18.0161 17.816C18.9081 17.347 19.761 16.728 20.53 15.959C23.988 12.501 24.452 7.35995 21.567 4.47595C21.529 4.43495 21.489 4.39906 21.45 4.36206Z" fill="#231F20"/>
</g>
</svg>
