<svg width="20" height="29" viewBox="0 0 20 29" fill="none" xmlns="http://www.w3.org/2000/svg">
<path d="M14.5206 11.218L13.5696 16.332C13.4576 16.936 12.8396 17.381 12.1136 17.381H1.60758C0.620577 17.381 -0.132436 18.122 0.0195639 18.943L0.664583 22.422C1.11458 24.85 3.59656 26.639 6.51456 26.639H9.82157C12.7276 26.639 15.2046 24.862 15.6666 22.446L17.8145 11.217L14.5206 11.218Z" fill="#A792FC"/>
<path d="M16.6461 0L14.9121 11.218H17.4421L19.2171 0H16.6461Z" fill="#FFD550"/>
<path d="M10.2183 24.8611C10.2183 26.7881 8.65625 28.3491 6.72925 28.3491C4.80225 28.3491 3.24023 26.7871 3.24023 24.8611C3.24023 22.9341 4.80225 21.3721 6.72925 21.3721C8.65625 21.3721 10.2183 22.9341 10.2183 24.8611Z" fill="#FFD550"/>
<path d="M8.44049 24.86H6.94049C6.94049 24.502 6.82352 24.165 6.60352 23.886L7.78253 22.958C8.20653 23.497 8.44049 24.173 8.44049 24.86Z" fill="white"/>
<g opacity="0.15">
<path d="M19.2172 0H16.6462L14.9122 11.218H14.5212L13.5702 16.332C13.4582 16.936 12.8402 17.381 12.1142 17.381H9.48621L7.57422 28.244C8.48922 28.016 9.26122 27.429 9.73022 26.64H9.82019C12.7262 26.64 15.2032 24.863 15.6652 22.447L17.8132 11.218H17.4402L19.2172 0Z" fill="#FFD550"/>
</g>
</svg>
