<svg width="30" height="22" viewBox="0 0 30 22" fill="none" xmlns="http://www.w3.org/2000/svg">
<path d="M22.589 4.94202C21.167 1.92902 18.142 0 14.791 0C10.205 0 6.44399 3.59897 6.18399 8.12097H5.14099C2.30599 8.12097 0 10.427 0 13.262C0 16.097 2.30599 18.403 5.14099 18.403H10.348C10.624 18.403 10.848 18.179 10.848 17.903V14.458H17.886V17.903C17.886 18.179 18.11 18.403 18.386 18.403H22.454C26.166 18.403 29.185 15.383 29.185 11.672C29.185 8.006 26.238 5.01402 22.589 4.94202Z" fill="#FFD550"/>
<path d="M6.10352 17.903C6.10352 18.179 5.87952 18.403 5.60352 18.403H10.3475C10.6235 18.403 10.8475 18.179 10.8475 17.903V14.458H6.10352V17.903Z" fill="#80D1ED"/>
<path d="M22.5889 4.94202C21.1669 1.92902 18.1419 0 14.7909 0C13.9689 0 13.1749 0.117008 12.4219 0.333008C14.7779 1.00601 16.7699 2.66402 17.8449 4.94202C21.4949 5.01402 24.4409 8.005 24.4409 11.672C24.4409 15.204 21.7069 18.107 18.2439 18.38C18.2899 18.394 18.3369 18.403 18.3869 18.403H22.4549C26.1669 18.403 29.1859 15.383 29.1859 11.672C29.1849 8.006 26.2379 5.01402 22.5889 4.94202Z" fill="#80D1ED"/>
<path d="M17.3969 14.459H11.3359C11.0599 14.459 10.8359 14.235 10.8359 13.959V9.98694C10.8359 8.27594 12.2279 6.88501 13.9379 6.88501H14.7939C16.5039 6.88501 17.8959 8.27694 17.8959 9.98694V13.959C17.8969 14.235 17.6739 14.459 17.3969 14.459ZM11.8369 13.459H16.8979V9.98694C16.8979 8.82794 15.9549 7.88501 14.7959 7.88501H13.9399C12.7809 7.88501 11.8379 8.82794 11.8379 9.98694V13.459H11.8369Z" fill="#8471F4"/>
<path d="M18.3857 13.459H10.3477C10.0717 13.459 9.84766 13.683 9.84766 13.959V20.533C9.84766 20.809 10.0717 21.033 10.3477 21.033H18.3857C18.6617 21.033 18.8857 20.809 18.8857 20.533V13.959C18.8857 13.683 18.6617 13.459 18.3857 13.459Z" fill="#8471F4"/>
<path d="M18.3855 13.459H16.4395C16.7155 13.459 16.9395 13.683 16.9395 13.959V20.533C16.9395 20.809 16.7155 21.033 16.4395 21.033H18.3855C18.6615 21.033 18.8855 20.809 18.8855 20.533V13.959C18.8855 13.683 18.6615 13.459 18.3855 13.459Z" fill="#8471F4"/>
<path d="M15.6192 16.494C15.6192 15.804 15.0572 15.2419 14.3672 15.2419C13.6772 15.2419 13.1152 15.804 13.1152 16.494C13.1152 17.007 13.4252 17.448 13.8672 17.641V18.7329C13.8672 19.0089 14.0912 19.2329 14.3672 19.2329C14.6432 19.2329 14.8672 19.0089 14.8672 18.7329V17.641C15.3092 17.447 15.6192 17.006 15.6192 16.494ZM14.3672 16.2419C14.5062 16.2419 14.6192 16.355 14.6192 16.494C14.6192 16.633 14.5062 16.746 14.3672 16.746C14.2282 16.746 14.1152 16.633 14.1152 16.494C14.1152 16.355 14.2282 16.2419 14.3672 16.2419Z" fill="#8471F4"/>
</svg>
