<svg width="29" height="30" viewBox="0 0 29 30" fill="none" xmlns="http://www.w3.org/2000/svg">
<path d="M3.0871 14.2511H1.28711V2.55511C1.28711 1.45411 2.21111 0.558105 3.34811 0.558105V2.35809C3.19911 2.35809 3.0871 2.46211 3.0871 2.55511V14.2511Z" fill="#68B8BC"/>
<path d="M11.4087 14.2511H9.60864V2.55511C9.60864 2.46211 9.49766 2.35809 9.34766 2.35809V0.558105C10.4837 0.558105 11.4087 1.45411 11.4087 2.55511V14.2511Z" fill="#68B8BC"/>
<path d="M11.1208 29.8679C7.98076 29.8679 5.42578 27.3519 5.42578 24.2599V22.5248H7.22577V24.2599C7.22577 26.3599 8.97276 28.0679 11.1208 28.0679C13.2688 28.0679 15.0158 26.3599 15.0158 24.2599V11.0099C15.0158 7.91789 17.5708 5.40186 20.7108 5.40186C23.8508 5.40186 26.4058 7.91689 26.4058 11.0099V17.3729H24.6058V11.0099C24.6058 8.91089 22.8588 7.20184 20.7108 7.20184C18.5628 7.20184 16.8158 8.90989 16.8158 11.0099V24.2599C16.8158 27.3529 14.2618 29.8679 11.1208 29.8679Z" fill="#FFC853"/>
<path d="M25.5079 16.0449C23.7839 16.0449 22.3809 17.4369 22.3809 19.1469C22.3809 20.8579 23.7839 22.2499 25.5079 22.2499C27.2319 22.2499 28.6349 20.8579 28.6349 19.1469C28.6339 17.4369 27.2319 16.0449 25.5079 16.0449Z" fill="#8471F4"/>
<path d="M12.695 12.803H10.895H10.121H8.32098V14.603V16.434H4.37399V14.603V12.803H2.57397H1.79999H0V14.603V17.46C0 19.306 1.50198 20.808 3.34698 20.808H4.13898V22.526V24.326H5.939H6.71298H8.513V22.526V20.808H9.34799C11.194 20.808 12.695 19.306 12.695 17.46V14.603V12.803Z" fill="#8471F4"/>
<path d="M4.39941 0C3.59441 0 2.94141 0.653008 2.94141 1.45801C2.94141 2.26301 3.59441 2.91602 4.39941 2.91602C5.20441 2.91602 5.85742 2.26301 5.85742 1.45801C5.85742 0.653008 5.20441 0 4.39941 0Z" fill="#8471F4"/>
<path d="M8.37012 0C7.56512 0 6.91211 0.653008 6.91211 1.45801C6.91211 2.26301 7.56512 2.91602 8.37012 2.91602C9.17512 2.91602 9.82809 2.26301 9.82809 1.45801C9.82809 0.653008 9.17512 0 8.37012 0Z" fill="#8471F4"/>
<g opacity="0.1">
<path d="M10.122 12.803H8.32205V14.603V16.434H6.20703V24.326H6.71405H8.51404V22.526V20.808H9.34906C11.1951 20.808 12.696 19.306 12.696 17.46V14.603V12.803H10.8961H10.122Z" fill="black"/>
</g>
</svg>
