<svg width="24" height="24" viewBox="0 0 24 24" fill="none" xmlns="http://www.w3.org/2000/svg">
<path d="M8.39606 11.654H6.21405C2.78805 11.654 0 8.867 0 5.44V0.665039H5.32605V5.46405C5.32605 7.28905 6.00905 9.04101 7.24805 10.398L8.39606 11.654ZM1.50104 2.16504V5.44C1.50104 7.656 3.03801 9.519 5.10101 10.021C4.27101 8.653 3.82703 7.08305 3.82703 5.46405V2.16504H1.50104Z" fill="#FFD550"/>
<path d="M17.7191 11.654H15.5371L16.6841 10.398C17.9241 9.04101 18.6061 7.28905 18.6061 5.46405V0.665039H23.9321V5.44C23.9331 8.867 21.1451 11.654 17.7191 11.654ZM20.1071 2.16504V5.46405C20.1071 7.08305 19.6621 8.653 18.8331 10.021C20.8971 9.519 22.4331 7.656 22.4331 5.44V2.16504H20.1071Z" fill="#FFD550"/>
<path d="M3.87695 0.000976562V5.46497C3.87695 9.90897 7.51297 13.5449 11.957 13.5449C16.401 13.5449 20.0369 9.90897 20.0369 5.46497V0.000976562H3.87695Z" fill="#8471F4"/>
<path d="M12.707 13.5449H11.207V21.3059H12.707V13.5449Z" fill="#FFD550"/>
<path d="M17.4899 21.177H6.42383V24.0079H17.4899V21.177Z" fill="#A792FC"/>
<g opacity="0.15">
<path d="M20.0375 0.665039V0H11.7734V23.907H17.4905V21.076H12.7075V13.508C14.3815 13.352 15.9114 12.679 17.1354 11.653H17.7214C21.1474 11.653 23.9355 8.86603 23.9355 5.43903V0.664001H20.0375V0.665039ZM22.4344 5.44C22.4344 7.656 20.8975 9.519 18.8345 10.021C19.6635 8.653 20.1085 7.08305 20.1085 5.46405V2.16504H22.4344V5.44Z" fill="#231F20"/>
</g>
</svg>
