<svg width="12" height="29" viewBox="0 0 12 29" fill="none" xmlns="http://www.w3.org/2000/svg">
<path d="M7.21283 18.366H4.08984V28.158H7.21283V18.366Z" fill="#8971D0"/>
<path d="M7.21283 28.658H4.08984C3.81384 28.658 3.58984 28.434 3.58984 28.158V18.366C3.58984 18.09 3.81384 17.866 4.08984 17.866H7.21283C7.48883 17.866 7.71283 18.09 7.71283 18.366V28.158C7.71283 28.434 7.48983 28.658 7.21283 28.658ZM4.58984 27.658H6.71283V18.866H4.58984V27.658Z" fill="#8971D0"/>
<path d="M10.804 18.366H0.5V5.65198C0.5 2.80698 2.80698 0.5 5.65198 0.5C8.49698 0.5 10.804 2.80698 10.804 5.65198V18.366Z" fill="#F0EEE6"/>
<path d="M10.804 18.866H0.5C0.224 18.866 0 18.642 0 18.366V5.65198C0 2.53598 2.53498 0 5.65198 0C8.76898 0 11.304 2.53498 11.304 5.65198V18.366C11.304 18.642 11.08 18.866 10.804 18.866ZM1 17.866H10.304V5.65198C10.304 3.08698 8.21698 1 5.65198 1C3.08698 1 1 3.08698 1 5.65198V17.866Z" fill="#F0EEE6"/>
<path d="M6.93896 14.6249C5.95096 14.6249 5.14795 13.8209 5.14795 12.8339V8.2749C5.14795 8.2439 5.15094 8.21292 5.15594 8.18292V6.03296C5.15594 5.59696 4.80099 5.24194 4.36499 5.24194C3.92899 5.24194 3.57397 5.59696 3.57397 6.03296V6.89191C3.57897 6.92191 3.58197 6.95195 3.58197 6.98395V11.5429C3.58197 12.5309 2.77795 13.3339 1.79095 13.3339C0.802955 13.3339 0 12.5309 0 11.5429V6.98395C0 6.70795 0.224 6.48395 0.5 6.48395C0.776 6.48395 1 6.70795 1 6.98395V11.5429C1 11.9789 1.35495 12.3339 1.79095 12.3339C2.22695 12.3339 2.58197 11.9789 2.58197 11.5429V10.684C2.57697 10.654 2.57397 10.6239 2.57397 10.5919V6.03296C2.57397 5.04496 3.37799 4.24194 4.36499 4.24194C5.35199 4.24194 6.15594 5.04496 6.15594 6.03296V10.5919C6.15594 10.6229 6.15295 10.654 6.14795 10.684V12.8339C6.14795 13.2699 6.50296 13.6249 6.93896 13.6249C7.35096 13.6249 7.68999 13.3079 7.72699 12.9059C7.72399 12.8819 7.72198 12.8579 7.72198 12.8339V8.2749C7.72198 7.2869 8.526 6.48395 9.513 6.48395C10.501 6.48395 11.304 7.2869 11.304 8.2749V12.8339C11.304 13.1099 11.08 13.3339 10.804 13.3339C10.528 13.3339 10.304 13.1099 10.304 12.8339V8.2749C10.304 7.8389 9.949 7.48395 9.513 7.48395C9.101 7.48395 8.76198 7.80094 8.72498 8.20294C8.72798 8.22594 8.72998 8.2499 8.72998 8.2749V12.8339C8.72998 13.8209 7.92596 14.6249 6.93896 14.6249Z" fill="#BA52ED"/>
</svg>
