<svg width="26" height="28" viewBox="0 0 26 28" fill="none" xmlns="http://www.w3.org/2000/svg">
<path d="M16.905 20.5459H17.949V16.804C17.949 15.037 19.382 13.604 21.149 13.604C21.212 13.604 21.275 13.606 21.337 13.61V0.500977H5.61301L0.5 5.61395V25.506H16.905V20.5459Z" fill="#CED7E3"/>
<path d="M16.905 26.006H0.5C0.224 26.006 0 25.782 0 25.506V5.61401C0 5.48101 0.0530032 5.35401 0.147003 5.26001L5.26001 0.147034C5.35401 0.0530337 5.48101 0 5.61401 0H21.338C21.614 0 21.838 0.224 21.838 0.5V13.6089C21.838 13.7469 21.781 13.878 21.681 13.973C21.581 14.068 21.447 14.117 21.309 14.108C21.256 14.105 21.203 14.103 21.15 14.103C19.661 14.103 18.45 15.314 18.45 16.803V20.545C18.45 20.821 18.226 21.045 17.95 21.045H17.406V25.5051C17.405 25.7821 17.181 26.006 16.905 26.006ZM1 25.006H16.405V20.546C16.405 20.27 16.629 20.046 16.905 20.046H17.449V16.804C17.449 14.869 18.942 13.276 20.837 13.117V1.00104H5.82001L1 5.82098V25.006Z" fill="#CED7E3"/>
<path d="M21.337 0.000976562H5.61301C5.33701 0.000976562 5.11301 0.224977 5.11301 0.500977V5.11395H0.5C0.224 5.11395 0 5.33795 0 5.61395V25.505C0 25.781 0.224 26.005 0.5 26.005H16.905C17.181 26.005 17.405 25.781 17.405 25.505V23.516H21.837V13.6089V10.8389V0.500977C21.837 0.224977 21.613 0.000976562 21.337 0.000976562Z" fill="#67C7BF"/>
<path d="M21.3378 0.000976562H18.0508C18.3268 0.000976562 18.5508 0.224977 18.5508 0.500977V10.8389V13.6089V23.516H21.8378V13.6089V10.8389V0.500977C21.8378 0.224977 21.6138 0.000976562 21.3378 0.000976562Z" fill="#61BCB1"/>
<path d="M15.5638 8.80396H4.92773C4.65173 8.80396 4.42773 8.57996 4.42773 8.30396C4.42773 8.02796 4.65173 7.80396 4.92773 7.80396H15.5638C15.8398 7.80396 16.0638 8.02796 16.0638 8.30396C16.0638 8.57996 15.8398 8.80396 15.5638 8.80396Z" fill="white"/>
<path d="M15.5638 13.0229H4.92773C4.65173 13.0229 4.42773 12.7989 4.42773 12.5229C4.42773 12.2469 4.65173 12.0229 4.92773 12.0229H15.5638C15.8398 12.0229 16.0638 12.2469 16.0638 12.5229C16.0638 12.7989 15.8398 13.0229 15.5638 13.0229Z" fill="white"/>
<path d="M12.2737 17.2419H4.92773C4.65173 17.2419 4.42773 17.0179 4.42773 16.7419C4.42773 16.4659 4.65173 16.2419 4.92773 16.2419H12.2737C12.5497 16.2419 12.7737 16.4659 12.7737 16.7419C12.7737 17.0189 12.5497 17.2419 12.2737 17.2419Z" fill="white"/>
<path d="M12.2737 21.4619H4.92773C4.65173 21.4619 4.42773 21.2379 4.42773 20.9619C4.42773 20.6859 4.65173 20.4619 4.92773 20.4619H12.2737C12.5497 20.4619 12.7737 20.6859 12.7737 20.9619C12.7737 21.2379 12.5497 21.4619 12.2737 21.4619Z" fill="white"/>
<path d="M24.3492 21.046H17.9492C17.6732 21.046 17.4492 20.822 17.4492 20.546V16.804C17.4492 14.764 19.1092 13.104 21.1492 13.104C23.1892 13.104 24.8492 14.764 24.8492 16.804V20.546C24.8492 20.822 24.6252 21.046 24.3492 21.046ZM18.4492 20.046H23.8492V16.804C23.8492 15.315 22.6382 14.1041 21.1492 14.1041C19.6602 14.1041 18.4492 15.315 18.4492 16.804V20.046Z" fill="#8471F4"/>
<path d="M25.3943 20.0459H16.9062C16.6303 20.0459 16.4062 20.2699 16.4062 20.5459V27.4879C16.4062 27.7639 16.6303 27.9879 16.9062 27.9879H25.3943C25.6703 27.9879 25.8943 27.7639 25.8943 27.4879V20.5459C25.8943 20.2699 25.6703 20.0459 25.3943 20.0459Z" fill="#8471F4"/>
<path d="M25.3945 20.0459H23.0215C23.2975 20.0459 23.5215 20.2699 23.5215 20.5459V27.4879C23.5215 27.7639 23.2975 27.9879 23.0215 27.9879H25.3945C25.6705 27.9879 25.8945 27.7639 25.8945 27.4879V20.5459C25.8945 20.2699 25.6705 20.0459 25.3945 20.0459Z" fill="#8471F4"/>
<path d="M22.4435 23.2229C22.4435 22.5089 21.8625 21.929 21.1495 21.929C20.4355 21.929 19.8555 22.5099 19.8555 23.2229C19.8555 23.7589 20.1835 24.2209 20.6495 24.4159V25.5869C20.6495 25.8629 20.8735 26.0869 21.1495 26.0869C21.4255 26.0869 21.6495 25.8629 21.6495 25.5869V24.4159C22.1155 24.2199 22.4435 23.7589 22.4435 23.2229ZM21.1495 22.929C21.3115 22.929 21.4435 23.0609 21.4435 23.2229C21.4435 23.3849 21.3115 23.517 21.1495 23.517C20.9875 23.517 20.8555 23.3849 20.8555 23.2229C20.8555 23.0609 20.9875 22.929 21.1495 22.929Z" fill="#8471F4"/>
</svg>
