<svg width="30" height="31" viewBox="0 0 30 31" fill="none" xmlns="http://www.w3.org/2000/svg">
<path d="M9.75295 15.281L3.03395 22C2.78295 22.251 2.78295 22.658 3.03395 22.909L7.2499 27.125C7.5009 27.376 7.90795 27.376 8.15895 27.125L14.8779 20.406L9.75295 15.281Z" fill="#A792FC"/>
<path d="M6.10073 27.993L7.1097 26.984L3.17574 23.05L2.16671 24.0591C1.64071 24.5841 1.35171 25.283 1.35171 26.026C1.35171 26.512 1.4767 26.978 1.7087 27.39L0.21975 28.8791C-0.07325 29.1721 -0.07325 29.647 0.21975 29.94C0.36575 30.086 0.557718 30.16 0.749718 30.16C0.941718 30.16 1.13375 30.087 1.27975 29.94L2.7687 28.451C3.1807 28.684 3.64671 28.808 4.13271 28.808C4.87671 28.808 5.57573 28.518 6.10073 27.993Z" fill="#FFD550"/>
<path d="M21.8218 3.21801L9.74805 15.2917L14.8731 20.4168L26.9469 8.34308L21.8218 3.21801Z" fill="#8471F4"/>
<path d="M21.8275 3.20699L26.9525 8.33199L26.1375 9.14699L29.5265 5.75802C29.7395 5.54502 29.7395 5.19901 29.5265 4.98601L25.1735 0.633015C24.9605 0.420015 24.6145 0.420015 24.4015 0.633015L22.9185 2.11602L20.9075 0.105C20.7675 -0.035 20.5405 -0.035 20.4005 0.105L12.9405 7.56499C12.6475 7.85799 12.6475 8.333 12.9405 8.626C13.2335 8.919 13.7085 8.919 14.0015 8.626L20.4015 2.226C20.5415 2.086 20.7685 2.086 20.9085 2.226L21.8585 3.17601L21.8275 3.20699Z" fill="#FFD550"/>
<path d="M20.9936 4.04102L20.7676 4.26703L20.9936 4.04102Z" fill="#231F20"/>
</svg>
