<svg width="25" height="25" viewBox="0 0 25 25" fill="none" xmlns="http://www.w3.org/2000/svg">
<path d="M12.3748 12.4616C12.1018 12.1886 11.6578 12.1886 11.3848 12.4616L9.55979 14.2866L8.8798 13.6066C8.7488 13.4756 8.5708 13.4016 8.3848 13.4016C8.1988 13.4016 8.02081 13.4756 7.88981 13.6066L0.20475 21.2906C-0.06825 21.5636 -0.06825 22.0076 0.20475 22.2806L2.55479 24.6306C2.68579 24.7616 2.86378 24.8356 3.04978 24.8356C3.23578 24.8356 3.41378 24.7616 3.54478 24.6306L11.2298 16.9456C11.5028 16.6726 11.5028 16.2286 11.2298 15.9556L10.5498 15.2756L12.3748 13.4506C12.6478 13.1786 12.6478 12.7356 12.3748 12.4616Z" fill="#8471F4"/>
<path d="M22.5262 2.30798C21.0382 0.819983 19.0592 0 16.9542 0C14.8492 0 12.8712 0.819983 11.3822 2.30798C9.8942 3.79598 9.07422 5.775 9.07422 7.88C9.07422 9.985 9.8942 11.963 11.3822 13.452C12.9182 14.988 14.9362 15.756 16.9542 15.756C18.9722 15.756 20.9902 14.988 22.5262 13.452C24.0142 11.964 24.8342 9.985 24.8342 7.88C24.8342 5.775 24.0142 3.79598 22.5262 2.30798Z" fill="#A792FC"/>
<path d="M12.5369 10.6511C12.2739 10.6511 12.0219 10.5021 11.9029 10.2481C10.9099 8.12808 11.3549 5.59109 13.0119 3.93509C13.5919 3.35509 14.2739 2.91911 15.0389 2.64011C15.4019 2.50811 15.8039 2.6941 15.9369 3.0571C16.0699 3.4201 15.8828 3.82211 15.5198 3.95511C14.9478 4.16411 14.4369 4.49108 14.0019 4.92508C12.7609 6.16608 12.4268 8.06609 13.1708 9.65409C13.3348 10.0041 13.1839 10.4211 12.8339 10.5851C12.7369 10.6291 12.6359 10.6511 12.5369 10.6511Z" fill="white"/>
</svg>
