<svg width="30" height="29" viewBox="0 0 30 29" fill="none" xmlns="http://www.w3.org/2000/svg">
<path d="M15.044 16.7561C14.488 16.3561 13.623 16.5861 13.112 17.2681L10.932 19.4591L10.875 19.4181V11.1211C10.875 10.3851 10.266 9.78906 9.51602 9.78906C8.95502 9.78906 8.47302 10.1221 8.26602 10.5981V19.2001H8.047V19.0501V9.31506C7.84 8.84006 7.358 8.5061 6.797 8.5061C6.236 8.5061 5.754 8.83906 5.547 9.31506V19.0501V19.2001H5.328V19.0501V11.4361C5.12 10.9611 4.639 10.6271 4.078 10.6271C3.517 10.6271 3.035 10.9601 2.828 11.4361V19.0501V19.2361H2.61002V14.9811C2.40402 14.5091 1.928 14.1771 1.371 14.1721C0.616002 14.1651 0 14.7641 0 15.5041V20.5691V21.8921C0 23.1821 0.52301 24.4191 1.45401 25.3321L1.49301 25.3701L1.53 28.4881H9.91501V25.2701C10.584 25.0211 11.156 24.5741 11.553 23.9911C12.721 22.2771 15.125 18.7151 15.125 18.7151C15.637 18.0331 15.6 17.1551 15.044 16.7561Z" fill="#68B8BC"/>
<path d="M27.6597 5.66602C27.1028 5.67102 26.6267 6.00304 26.4217 6.47504V10.73H26.2027V10.544V2.92999C25.9947 2.45499 25.5137 2.12103 24.9527 2.12103C24.3917 2.12103 23.9097 2.45399 23.7027 2.92999V10.544V10.694H23.4838V10.544V0.809021C23.2758 0.334021 22.7948 0 22.2338 0C21.6728 0 21.1908 0.333021 20.9838 0.809021V10.544V10.694H20.7658V2.09204C20.5578 1.61704 20.0768 1.284 19.5158 1.284C18.7648 1.284 18.1568 1.88003 18.1568 2.61603V10.914L18.0998 10.955L15.9198 8.76404C15.4088 8.08104 14.5437 7.85201 13.9867 8.25201C13.4307 8.65201 13.3948 9.52904 13.9058 10.212C13.9058 10.212 16.3097 13.774 17.4777 15.488C17.8747 16.071 18.4477 16.518 19.1157 16.767V19.985H27.5008L27.5378 16.866L27.5767 16.828C28.5077 15.916 29.0308 14.678 29.0308 13.388V12.065V7C29.0308 6.258 28.4147 5.66002 27.6597 5.66602Z" fill="#8471F4"/>
</svg>
