<svg width="28" height="30" viewBox="0 0 28 30" fill="none" xmlns="http://www.w3.org/2000/svg">
<path d="M5.388 15.719H0.75C0.336 15.719 0 16.055 0 16.469V29.623H5.388C5.802 29.623 6.138 29.287 6.138 28.873V16.469C6.138 16.055 5.802 15.719 5.388 15.719Z" fill="#8471F4"/>
<path d="M27.1199 15.719H22.5859C22.1719 15.719 21.8359 16.055 21.8359 16.469V28.873C21.8359 29.287 22.1719 29.623 22.5859 29.623H27.8699V16.469C27.8699 16.055 27.5339 15.719 27.1199 15.719Z" fill="#8471F4"/>
<path d="M18.7183 0H13.9863C13.5723 0 13.2363 0.336 13.2363 0.75V7.09302C13.2363 7.50702 13.5723 7.84302 13.9863 7.84302C14.4003 7.84302 14.7363 7.50702 14.7363 7.09302V4.67102H18.7183C19.1323 4.67102 19.4683 4.33502 19.4683 3.92102V0.75C19.4683 0.336 19.1323 0 18.7183 0Z" fill="#FFD550"/>
<path d="M23.0146 12.456L14.4156 6.478C14.1586 6.299 13.8166 6.299 13.5596 6.478L4.96063 12.456C4.75863 12.596 4.63867 12.826 4.63867 13.072V29.623H23.3367V13.072C23.3367 12.826 23.2166 12.596 23.0146 12.456Z" fill="#A792FC"/>
<path d="M13.8962 19.2239C11.8752 19.2719 10.2832 20.9729 10.2832 22.9949V29.6239H17.6872V22.9259C17.6882 20.8539 15.9792 19.1749 13.8962 19.2239Z" fill="#FFFBE2"/>
<path d="M13.9868 10.325C12.2988 10.325 10.9258 11.698 10.9258 13.386C10.9258 15.074 12.2988 16.447 13.9868 16.447C15.6748 16.447 17.0478 15.074 17.0478 13.386C17.0478 11.698 15.6738 10.325 13.9868 10.325Z" fill="#FFD550"/>
</svg>
