<svg width="31" height="27" viewBox="0 0 31 27" fill="none" xmlns="http://www.w3.org/2000/svg">
<path d="M30.1457 8.17297C30.1327 7.89797 30.1067 7.62298 30.0677 7.34998C30.0287 7.07698 29.9768 6.80501 29.9108 6.53601C29.8538 6.30001 29.7838 6.06596 29.7068 5.83496C29.6798 5.75396 29.6508 5.67298 29.6208 5.59198C29.2058 4.46498 28.5497 3.409 27.6487 2.508C27.1667 2.026 26.6387 1.61497 26.0807 1.27197C25.9907 1.21697 25.9007 1.163 25.8097 1.112C24.5007 0.372 23.0357 0 21.5707 0C21.4327 0 21.2958 0.00300977 21.1578 0.0100098C20.8828 0.0230098 20.6078 0.0490127 20.3348 0.0880127C19.9618 0.141013 19.5918 0.220998 19.2278 0.322998C19.1488 0.344998 19.0707 0.369005 18.9927 0.393005C18.3227 0.602005 17.6747 0.893982 17.0627 1.26898C16.8137 1.42198 16.5717 1.58896 16.3357 1.76996C16.0427 1.99496 15.7597 2.23896 15.4917 2.50696L15.0777 2.92096L14.6637 2.50696C12.9937 0.836958 10.7918 0.001 8.58977 0H8.58574H8.58275C6.48475 0.001 4.38972 0.760001 2.75072 2.276C2.66872 2.352 2.58674 2.42796 2.50774 2.50696C2.40374 2.61096 2.30172 2.71797 2.20372 2.82697C1.41972 3.69497 0.845725 4.68798 0.479725 5.73798C-0.571275 8.75898 0.104763 12.261 2.50676 14.663L2.92076 15.077L14.0168 26.173C14.6028 26.759 15.5527 26.759 16.1377 26.173L27.2338 15.077L27.6478 14.663C27.9158 14.395 28.1598 14.112 28.3848 13.819C28.5108 13.655 28.6327 13.489 28.7447 13.318C28.8227 13.199 28.8978 13.078 28.9698 12.956C29.1138 12.712 29.2437 12.462 29.3617 12.208C29.4207 12.081 29.4757 11.952 29.5287 11.823C29.6327 11.564 29.7247 11.301 29.8027 11.035C30.0767 10.105 30.1907 9.13597 30.1457 8.17297Z" fill="#8471F4"/>
<g opacity="0.1">
<path d="M30.0674 7.34998C30.0284 7.07698 29.9764 6.80501 29.9104 6.53601C29.8534 6.30001 29.7834 6.06596 29.7064 5.83496C29.6794 5.75396 29.6504 5.67298 29.6204 5.59198C29.2054 4.46498 28.5494 3.409 27.6484 2.508C27.1664 2.026 26.6384 1.61497 26.0804 1.27197C25.9904 1.21697 25.9004 1.163 25.8094 1.112C24.5004 0.372 23.0354 0 21.5704 0C21.4324 0 21.2953 0.00300977 21.1573 0.0100098C20.8823 0.0230098 20.6074 0.0490127 20.3344 0.0880127C19.9614 0.141013 19.5914 0.220998 19.2274 0.322998C19.1484 0.344998 19.0704 0.369005 18.9924 0.393005C18.3224 0.602005 17.6734 0.893982 17.0624 1.26898C16.8134 1.42198 16.5714 1.58896 16.3354 1.76996C16.0424 1.99496 15.7594 2.23896 15.4914 2.50696L15.1094 2.88898V26.611C15.4824 26.603 15.8534 26.458 16.1384 26.173L27.2344 15.077L27.6484 14.663C27.9164 14.395 28.1604 14.112 28.3854 13.819C28.5114 13.655 28.6334 13.489 28.7454 13.318C28.8234 13.199 28.8984 13.078 28.9704 12.956C29.1144 12.712 29.2444 12.462 29.3624 12.208C29.4214 12.081 29.4764 11.952 29.5294 11.823C29.6334 11.564 29.7253 11.301 29.8033 11.035C30.0773 10.104 30.1914 9.13396 30.1464 8.17096C30.1334 7.89796 30.1064 7.62298 30.0674 7.34998Z" fill="black"/>
</g>
<path d="M29.8964 10.694C30.0444 10.103 30.1294 9.49999 30.1504 8.89399H27.2654C26.9264 8.89399 26.6164 9.084 26.4634 9.386L26.1204 10.061L24.1084 5.51198C23.9734 5.20698 23.6804 5.00098 23.3474 4.97798C23.0134 4.95498 22.6954 5.11799 22.5204 5.40199L20.3344 8.92897L19.8774 8.21797C19.7324 7.99197 19.4944 7.84299 19.2284 7.81099C18.9624 7.77899 18.6953 7.86701 18.5013 8.05201L17.6154 8.89302H15.9274C15.4304 8.89302 15.0273 9.29598 15.0273 9.79298C15.0273 10.29 15.4304 10.693 15.9274 10.693H17.9744C18.2054 10.693 18.4274 10.604 18.5944 10.446L18.9524 10.106L19.5923 11.102C19.7583 11.36 20.0434 11.515 20.3494 11.515C20.3514 11.515 20.3544 11.515 20.3574 11.515C20.6664 11.512 20.9524 11.352 21.1154 11.089L23.1534 7.8L25.2414 12.523C25.3824 12.841 25.6933 13.049 26.0403 13.059C26.0483 13.059 26.0564 13.059 26.0644 13.059C26.4024 13.059 26.7124 12.869 26.8664 12.567L27.8184 10.694H29.8964Z" fill="#FFC853"/>
</svg>
