<svg width="31" height="30" viewBox="0 0 31 30" fill="none" xmlns="http://www.w3.org/2000/svg">
<path d="M20.4362 26.7249H9.62817L8.36719 29.9799H21.6912L20.4362 26.7249Z" fill="#68B8BC"/>
<path d="M27.704 11.7397H2.354C1.056 11.7397 0 12.7957 0 14.0927V14.2327C0 15.5307 1.056 16.5858 2.354 16.5858H27.704C29.002 16.5858 30.057 15.5297 30.057 14.2327V14.0927C30.057 12.7947 29.002 11.7397 27.704 11.7397Z" fill="#68B8BC"/>
<path d="M20.5171 6.86885L17.7051 11.7399H24.5751L25.6701 9.84389C25.8961 9.81589 26.1221 9.77284 26.3451 9.71284C27.6201 9.37184 28.6851 8.5539 29.3451 7.4109C30.7071 5.0519 29.8961 2.0229 27.5361 0.660903C25.1771 -0.701097 22.1481 0.109863 20.7861 2.46986C20.1261 3.61286 19.9511 4.94486 20.2921 6.21986C20.3531 6.44186 20.4291 6.65885 20.5171 6.86885Z" fill="#8471F4"/>
<path d="M27.7047 16.5859H2.35464C2.29664 16.5859 2.23864 16.5829 2.18164 16.5789C2.35264 17.9409 2.73363 19.2369 3.29263 20.4329C3.35763 20.5719 3.42463 20.7088 3.49463 20.8448C3.63363 21.1168 3.78264 21.3829 3.93964 21.6439C4.01864 21.7739 4.09965 21.9028 4.18265 22.0298C4.34865 22.2838 4.52364 22.5319 4.70764 22.7739C4.79964 22.8949 4.89265 23.0139 4.98865 23.1309C5.09365 23.2589 5.20064 23.3849 5.31064 23.5089C5.45064 23.6679 5.59565 23.8219 5.74365 23.9739C5.95265 24.1889 6.16863 24.3959 6.39163 24.5959C7.12763 25.2549 7.93764 25.8329 8.81064 26.3119C9.07864 26.4589 9.35164 26.5959 9.62964 26.7239H20.4316C20.7096 26.5959 20.9836 26.4579 21.2506 26.3119C22.1866 25.7989 23.0527 25.1729 23.8297 24.4529C23.9407 24.3499 24.0497 24.2449 24.1577 24.1389C25.5537 22.7529 26.6347 21.0509 27.2867 19.1489C27.5687 18.3259 27.7696 17.4669 27.8806 16.5789C27.8216 16.5829 27.7637 16.5859 27.7047 16.5859Z" fill="#FFC853"/>
<g opacity="0.1">
<path d="M27.7034 11.7399H24.5744L25.6694 9.84389C25.8954 9.81589 26.1214 9.77284 26.3444 9.71284C27.6194 9.37184 28.6844 8.5539 29.3444 7.4109C30.7064 5.0519 29.8954 2.0229 27.5354 0.660903C25.1764 -0.701097 22.1474 0.109863 20.7854 2.46986C20.1254 3.61286 19.9504 4.94486 20.2914 6.21986C20.3514 6.44386 20.4264 6.66086 20.5154 6.87086L17.7034 11.7419H15.0273V29.9819H21.6894L20.4333 26.7269H20.4283C20.7063 26.5989 20.9803 26.4609 21.2473 26.3149C22.1833 25.8019 23.0494 25.1759 23.8264 24.4559C23.9374 24.3529 24.0464 24.2479 24.1544 24.1419C25.5504 22.7559 26.6314 21.0539 27.2834 19.1519C27.5654 18.3289 27.7663 17.4699 27.8773 16.5819C29.0933 16.4919 30.0564 15.4749 30.0564 14.2359V14.0959C30.0564 12.7949 29.0014 11.7399 27.7034 11.7399Z" fill="black"/>
</g>
</svg>
