<svg width="17" height="26" viewBox="0 0 17 26" fill="none" xmlns="http://www.w3.org/2000/svg">
<path d="M13.07 24.9579H3.224C1.72 24.9579 0.5 23.7389 0.5 22.2339V2.75598C0.5 1.50998 1.51001 0.5 2.75601 0.5H13.537C14.783 0.5 15.793 1.50998 15.793 2.75598V22.2339C15.794 23.7389 14.575 24.9579 13.07 24.9579Z" fill="#FFD550"/>
<path d="M13.5389 0.500977H9.80588C11.0519 0.500977 12.0619 1.51102 12.0619 2.75702V22.235C12.0619 23.739 10.8419 24.959 9.33789 24.959H13.0709C14.5749 24.959 15.7949 23.74 15.7949 22.235V2.75702C15.7949 1.51102 14.7849 0.500977 13.5389 0.500977Z" fill="#80D1ED"/>
<path d="M13.07 25.4579H3.224C1.446 25.4579 0 24.0119 0 22.2339V2.75598C0 1.23598 1.23601 0 2.75601 0H13.538C15.058 0 16.294 1.23598 16.294 2.75598V22.2339C16.294 24.0119 14.848 25.4579 13.07 25.4579ZM2.75699 1.00098C1.78899 1.00098 1.00101 1.78902 1.00101 2.75702V22.235C1.00101 23.461 1.99801 24.459 3.22501 24.459H13.071C14.297 24.459 15.295 23.461 15.295 22.235V2.75702C15.295 1.78902 14.507 1.00098 13.539 1.00098H2.75699Z" fill="#8471F4"/>
<path d="M15.794 20.187H0.5C0.224 20.187 0 20.411 0 20.687V22.234C0 24.012 1.446 25.458 3.224 25.458H13.07C14.848 25.458 16.294 24.012 16.294 22.234V20.687C16.294 20.411 16.07 20.187 15.794 20.187Z" fill="#8471F4"/>
<path d="M13.538 0.000976562H2.75601C1.23601 0.000976562 0 1.23702 0 2.75702V3.67999C0 3.95599 0.224 4.17999 0.5 4.17999H15.794C16.07 4.17999 16.294 3.95599 16.294 3.67999V2.75702C16.294 1.23702 15.058 0.000976562 13.538 0.000976562Z" fill="#8471F4"/>
<path d="M10.1628 23.2112H6.13281C5.85681 23.2112 5.63281 22.9872 5.63281 22.7112C5.63281 22.4352 5.85681 22.2112 6.13281 22.2112H10.1628C10.4388 22.2112 10.6628 22.4352 10.6628 22.7112C10.6628 22.9872 10.4388 23.2112 10.1628 23.2112Z" fill="white"/>
<path d="M8.69714 11.0361H7.38217C6.66217 11.0361 6.07617 10.4501 6.07617 9.73108C6.07617 9.01208 6.66217 8.42603 7.38217 8.42603H9.76715C10.0432 8.42603 10.2672 8.20203 10.2672 7.92603C10.2672 7.65003 10.0432 7.42603 9.76715 7.42603H8.64917V5.88306C8.64917 5.60706 8.42517 5.38306 8.14917 5.38306C7.87317 5.38306 7.64917 5.60706 7.64917 5.88306V7.42603H7.38217C6.11117 7.42603 5.07617 8.46008 5.07617 9.73108C5.07617 11.0021 6.11017 12.036 7.38217 12.036H8.69714C9.41714 12.036 10.0022 12.6221 10.0022 13.3411V13.6591C10.0022 14.3791 9.41614 14.9641 8.69714 14.9641H6.13315C5.85715 14.9641 5.63315 15.1881 5.63315 15.4641C5.63315 15.7401 5.85715 15.9641 6.13315 15.9641H7.64816V17.5071C7.64816 17.7831 7.87216 18.0071 8.14816 18.0071C8.42416 18.0071 8.64816 17.7831 8.64816 17.5071V15.9641H8.69617C9.96717 15.9641 11.0012 14.9301 11.0012 13.6591V13.3411C11.0022 12.0701 9.96814 11.0361 8.69714 11.0361Z" fill="white"/>
</svg>
