<svg width="39" height="39" viewBox="0 0 39 39" fill="none" xmlns="http://www.w3.org/2000/svg">
<path d="M29.0745 29.0746C34.427 23.7221 34.427 15.044 29.0745 9.69155C23.722 4.33907 15.044 4.33907 9.69151 9.69155C4.33903 15.044 4.33903 23.7221 9.69151 29.0746C15.044 34.427 23.722 34.427 29.0745 29.0746Z" fill="#8471F4"/>
<path d="M25.8146 19.3834C25.8146 22.9294 22.9406 25.8034 19.3946 25.8034C15.8486 25.8034 12.9746 22.9294 12.9746 19.3834C12.9746 15.8374 15.8486 12.9634 19.3946 12.9634C22.9406 12.9634 25.8146 15.8384 25.8146 19.3834Z" fill="white"/>
<path d="M20.162 22.3422H18.628V17.1922H17.334V15.6582H20.162V22.3422Z" fill="#8471F4"/>
<path d="M9.96289 29.3281C12.4199 31.6591 15.7399 33.0901 19.3949 33.0901C23.0499 33.0901 26.3699 31.6601 28.8269 29.3281H9.96289Z" fill="#FFD550"/>
<path d="M28.8269 9.43927C26.3699 7.10827 23.0499 5.67725 19.3949 5.67725C15.7409 5.67725 12.4199 7.10727 9.96289 9.43927H28.8269Z" fill="#FFD550"/>
<g opacity="0.15">
<path d="M27.3738 8.23828C27.3678 8.23428 27.3618 8.22928 27.3558 8.22528C27.2848 8.17428 27.2128 8.12426 27.1398 8.07526C27.1228 8.06326 27.1058 8.05228 27.0888 8.04028C27.0228 7.99528 26.9559 7.95123 26.8889 7.90723C26.8649 7.89123 26.8418 7.87623 26.8178 7.86023C26.7548 7.81923 26.6908 7.78023 26.6278 7.74023C26.5998 7.72223 26.5718 7.70426 26.5428 7.68726C26.4818 7.65026 26.4208 7.61327 26.3588 7.57727C26.3268 7.55827 26.2958 7.53926 26.2628 7.52026C26.2028 7.48526 26.1428 7.45227 26.0828 7.41827C26.0478 7.39927 26.0138 7.37923 25.9788 7.36023C25.9198 7.32823 25.8608 7.29726 25.8018 7.26526C25.7648 7.24526 25.7278 7.22624 25.6908 7.20624C25.6328 7.17624 25.5748 7.14729 25.5168 7.11829C25.4778 7.09829 25.4388 7.07927 25.3988 7.05927C25.3418 7.03127 25.2838 7.00423 25.2258 6.97723C25.1848 6.95823 25.1438 6.93825 25.1018 6.91925C25.0448 6.89325 24.9878 6.86729 24.9308 6.84229C24.8878 6.82329 24.8448 6.80425 24.8018 6.78625C24.7448 6.76225 24.6888 6.73823 24.6318 6.71423C24.5868 6.69623 24.5428 6.67724 24.4978 6.65924C24.4418 6.63624 24.3858 6.61526 24.3288 6.59326C24.2828 6.57526 24.2358 6.55728 24.1898 6.54028C24.1338 6.51928 24.0779 6.49927 24.0219 6.47827C23.9739 6.46127 23.9268 6.44428 23.8788 6.42828C23.8228 6.40928 23.7679 6.39028 23.7119 6.37128C23.6629 6.35528 23.6138 6.33924 23.5648 6.32324C23.5098 6.30524 23.4538 6.28824 23.3978 6.27124C23.3478 6.25624 23.2968 6.24126 23.2468 6.22626C23.1908 6.21026 23.1358 6.19428 23.0798 6.17828C23.0278 6.16428 22.9768 6.15023 22.9248 6.13623C22.8698 6.12123 22.8149 6.10726 22.7589 6.09326C22.7059 6.08026 22.6528 6.06726 22.5988 6.05426C22.5438 6.04126 22.4898 6.02826 22.4348 6.01526C22.3798 6.00326 22.3258 5.99125 22.2708 5.97925C22.2168 5.96725 22.1618 5.95625 22.1078 5.94525C22.0518 5.93425 21.9958 5.92327 21.9398 5.91327C21.8858 5.90327 21.8318 5.89324 21.7778 5.88324C21.7208 5.87324 21.6628 5.86425 21.6058 5.85425C21.5518 5.84525 21.4988 5.83625 21.4448 5.82825C21.3858 5.81925 21.3268 5.81128 21.2678 5.80328C21.2148 5.79628 21.1618 5.78823 21.1088 5.78223C21.0478 5.77423 20.9868 5.76823 20.9258 5.76123C20.8738 5.75523 20.8218 5.74926 20.7708 5.74426C20.7078 5.73826 20.6438 5.73223 20.5798 5.72723C20.5298 5.72323 20.4798 5.71823 20.4298 5.71423C20.3618 5.70923 20.2938 5.70523 20.2258 5.70123C20.1798 5.69823 20.1339 5.69524 20.0869 5.69324C20.0109 5.68924 19.9348 5.68727 19.8588 5.68427C19.8198 5.68327 19.7808 5.68124 19.7408 5.68024C19.6248 5.67724 19.5098 5.67627 19.3928 5.67627C19.2768 5.67627 19.1608 5.67724 19.0448 5.68024C19.0058 5.68124 18.9668 5.68327 18.9268 5.68427C18.8508 5.68727 18.7749 5.68924 18.6989 5.69324C18.6519 5.69524 18.6058 5.69923 18.5598 5.70123C18.5428 5.70223 18.5248 5.70328 18.5078 5.70428V33.0582C18.5248 33.0592 18.5428 33.0603 18.5598 33.0613C18.6058 33.0643 18.6529 33.0673 18.6989 33.0693C18.7749 33.0733 18.8508 33.0752 18.9268 33.0782C18.9658 33.0792 19.0048 33.0813 19.0448 33.0823C19.1598 33.0853 19.2758 33.0862 19.3928 33.0862C19.5088 33.0862 19.6248 33.0853 19.7408 33.0823C19.7798 33.0813 19.8188 33.0792 19.8588 33.0782C19.9348 33.0752 20.0109 33.0733 20.0869 33.0693C20.1339 33.0673 20.1798 33.0633 20.2258 33.0613C20.2938 33.0573 20.3618 33.0533 20.4298 33.0483C20.4798 33.0443 20.5298 33.0393 20.5798 33.0353C20.6438 33.0303 20.7078 33.0242 20.7708 33.0182C20.8228 33.0132 20.8748 33.0073 20.9258 33.0013C20.9868 32.9943 21.0478 32.9883 21.1088 32.9803C21.1618 32.9733 21.2148 32.9662 21.2678 32.9592C21.3268 32.9512 21.3858 32.9433 21.4448 32.9343C21.4988 32.9263 21.5518 32.9173 21.6058 32.9083C21.6628 32.8993 21.7208 32.8893 21.7778 32.8793C21.8318 32.8693 21.8858 32.8592 21.9398 32.8492C21.9958 32.8392 22.0518 32.8283 22.1078 32.8173C22.1628 32.8063 22.2168 32.7943 22.2708 32.7833C22.3258 32.7713 22.3798 32.7603 22.4348 32.7473C22.4898 32.7353 22.5438 32.7213 22.5988 32.7083C22.6528 32.6953 22.7059 32.6823 22.7589 32.6693C22.8139 32.6553 22.8688 32.6413 22.9238 32.6263C22.9758 32.6123 23.0278 32.5982 23.0798 32.5842C23.1348 32.5692 23.1908 32.5533 23.2458 32.5363C23.2968 32.5213 23.3469 32.5063 23.3969 32.4913C23.4529 32.4743 23.5088 32.4573 23.5638 32.4393C23.6128 32.4233 23.6618 32.4072 23.7108 32.3912C23.7668 32.3732 23.8228 32.3542 23.8778 32.3342C23.9258 32.3172 23.9739 32.3003 24.0219 32.2833C24.0779 32.2633 24.1338 32.2422 24.1888 32.2222C24.2358 32.2052 24.2818 32.1873 24.3288 32.1693C24.3848 32.1473 24.4408 32.1253 24.4968 32.1033C24.5418 32.0853 24.5868 32.0673 24.6308 32.0483C24.6878 32.0253 24.7438 32.0013 24.8008 31.9763C24.8438 31.9583 24.8868 31.9392 24.9298 31.9202C24.9868 31.8952 25.0438 31.8693 25.1008 31.8433C25.1418 31.8243 25.1839 31.8053 25.2249 31.7853C25.2829 31.7583 25.3398 31.7302 25.3978 31.7032C25.4368 31.6842 25.4758 31.6643 25.5158 31.6443C25.5738 31.6153 25.6328 31.5862 25.6898 31.5552C25.7268 31.5362 25.7638 31.5163 25.8008 31.4963C25.8598 31.4653 25.9188 31.4332 25.9778 31.4012C26.0128 31.3822 26.0468 31.3623 26.0818 31.3433C26.1418 31.3093 26.2018 31.2763 26.2618 31.2413C26.2938 31.2223 26.3258 31.2033 26.3578 31.1843C26.4198 31.1483 26.4808 31.1113 26.5418 31.0743C26.5698 31.0573 26.5988 31.0392 26.6268 31.0212C26.6908 30.9812 26.7538 30.9422 26.8168 30.9012C26.8408 30.8862 26.8638 30.8703 26.8878 30.8553C26.9548 30.8113 27.0218 30.7672 27.0878 30.7222C27.1048 30.7102 27.1219 30.6983 27.1389 30.6873C27.2109 30.6383 27.2828 30.5882 27.3538 30.5372C27.3608 30.5322 27.3668 30.5283 27.3728 30.5233C30.8398 28.0363 33.0999 23.9713 33.0999 19.3793C33.1019 14.7903 30.8418 10.7253 27.3738 8.23828Z" fill="#231F20"/>
</g>
</svg>
