<svg width="31" height="20" viewBox="0 0 31 20" fill="none" xmlns="http://www.w3.org/2000/svg">
<path d="M11.266 13.4419C11.266 16.5529 8.744 19.0748 5.633 19.0748C2.522 19.0748 0 16.5529 0 13.4419C0 10.3309 2.522 7.80786 5.633 7.80786C8.744 7.80886 11.266 10.3309 11.266 13.4419Z" fill="#A792FC"/>
<path d="M24.9711 18.9149C27.9937 18.9149 30.4441 16.4647 30.4441 13.442C30.4441 10.4194 27.9937 7.96899 24.9711 7.96899C21.9484 7.96899 19.498 10.4194 19.498 13.442C19.498 16.4647 21.9484 18.9149 24.9711 18.9149Z" fill="#A792FC"/>
<path d="M9.70613 0.555942L4.44531 13.3538L5.83266 13.9241L11.0935 1.12624L9.70613 0.555942Z" fill="#FFD550"/>
<path d="M24.9624 14.4049H17.2794V14.126L17.0024 14.1799L8.44141 5.44202L8.97742 4.16699H20.6284L22.1064 0.572998L23.4934 1.14294L22.0604 4.62891L22.0645 4.63196L25.6564 13.37L24.9624 14.4049ZM18.6574 12.9049H23.8434L21.2504 6.5979L18.6574 12.9049ZM10.7625 5.66602L17.2774 12.3159L20.0114 5.66602H10.7625Z" fill="#FFD550"/>
<path d="M24.8938 0H19.9668V1.5H24.8938V0Z" fill="#FFD550"/>
<path d="M7.16992 2.60193H5.66992V0.75L6.41992 0H11.3469V1.5H7.16992V2.60193Z" fill="#FFD550"/>
<path d="M17.2784 14.843C16.4254 14.843 15.7324 14.149 15.7324 13.297C15.7324 12.444 16.4264 11.75 17.2784 11.75C18.1314 11.75 18.8245 12.444 18.8245 13.297C18.8255 14.15 18.1314 14.843 17.2784 14.843ZM17.2784 13.251C17.2524 13.251 17.2324 13.272 17.2324 13.298C17.2324 13.324 17.2534 13.344 17.2784 13.344C17.3044 13.344 17.3245 13.323 17.3245 13.298C17.3255 13.271 17.3044 13.251 17.2784 13.251Z" fill="#FFD550"/>
</svg>
