<svg width="28" height="20" viewBox="0 0 28 20" fill="none" xmlns="http://www.w3.org/2000/svg">
<path d="M20.3043 15.0752C20.4423 14.5342 20.5164 13.9682 20.5164 13.3842C20.5164 9.62416 17.4684 6.57715 13.7094 6.57715C9.94935 6.57715 6.90234 9.62516 6.90234 13.3842C6.90234 13.9682 6.97632 14.5342 7.11432 15.0752H20.3043Z" fill="#FFD550"/>
<path d="M20.3043 15.5752H7.11334C6.88534 15.5752 6.68533 15.4202 6.62933 15.1992C6.47833 14.6082 6.40234 13.9982 6.40234 13.3842C6.40234 9.35516 9.68035 6.07715 13.7094 6.07715C17.7384 6.07715 21.0164 9.35516 21.0164 13.3842C21.0164 13.9982 20.9393 14.6082 20.7893 15.1992C20.7323 15.4202 20.5333 15.5752 20.3043 15.5752ZM7.51434 14.5752H19.9044C19.9794 14.1842 20.0173 13.7852 20.0173 13.3842C20.0173 9.90616 17.1883 7.07715 13.7103 7.07715C10.2323 7.07715 7.40332 9.90616 7.40332 13.3842C7.40232 13.7852 7.43934 14.1842 7.51434 14.5752Z" fill="#FFD550"/>
<path d="M18.1542 12.6604C17.9342 12.6604 17.7332 12.5144 17.6722 12.2934C17.2562 10.7804 15.9902 9.62141 14.4462 9.34241C14.1742 9.29341 13.9942 9.03342 14.0432 8.76142C14.0922 8.48942 14.3522 8.3084 14.6242 8.3584C16.5442 8.7054 18.1192 10.1464 18.6362 12.0284C18.7092 12.2944 18.5532 12.5694 18.2862 12.6434C18.2422 12.6544 18.1982 12.6604 18.1542 12.6604Z" fill="#EAFFD0"/>
<path d="M17.7498 4.36441C17.6848 4.36441 17.6189 4.35137 17.5549 4.32437C17.3009 4.21637 17.1819 3.92336 17.2899 3.66836L18.6779 0.397365C18.7859 0.143365 19.0799 0.0244118 19.3339 0.132412C19.5879 0.240412 19.7069 0.534418 19.5989 0.788418L18.2109 4.05941C18.1299 4.24941 17.9448 4.36441 17.7498 4.36441Z" fill="#8471F4"/>
<path d="M9.83528 4.29439C9.63728 4.29439 9.45029 4.1764 9.37129 3.9814L8.0403 0.687394C7.9373 0.431394 8.0603 0.139393 8.3163 0.0363927C8.5723 -0.0666073 8.8633 0.0563937 8.9673 0.312394L10.2983 3.6064C10.4013 3.8624 10.2783 4.1534 10.0223 4.2574C9.96029 4.2834 9.89728 4.29439 9.83528 4.29439Z" fill="#8471F4"/>
<path d="M4.18886 9.84329C4.12386 9.84329 4.05785 9.83025 3.99385 9.80325L0.722856 8.41525C0.468856 8.30725 0.349842 8.01425 0.457842 7.75925C0.565842 7.50525 0.859848 7.38729 1.11385 7.49429L4.38484 8.88229C4.63884 8.99029 4.75786 9.2833 4.64986 9.5383C4.56786 9.7293 4.38286 9.84329 4.18886 9.84329Z" fill="#8471F4"/>
<path d="M23.2992 10.0103C23.1012 10.0103 22.9142 9.89233 22.8352 9.69733C22.7322 9.44133 22.8552 9.15033 23.1112 9.04633L26.4052 7.71528C26.6622 7.61128 26.9532 7.73528 27.0562 7.99128C27.1592 8.24728 27.0362 8.53828 26.7802 8.64228L23.4862 9.97333C23.4252 9.99833 23.3612 10.0103 23.2992 10.0103Z" fill="#8471F4"/>
<path d="M26.919 15.5752H0.5C0.224 15.5752 0 15.3512 0 15.0752C0 14.7992 0.224 14.5752 0.5 14.5752H26.919C27.195 14.5752 27.419 14.7992 27.419 15.0752C27.419 15.3522 27.196 15.5752 26.919 15.5752Z" fill="#8471F4"/>
<path d="M22.335 19.2913H5.08398C4.80798 19.2913 4.58398 19.0673 4.58398 18.7913C4.58398 18.5153 4.80798 18.2913 5.08398 18.2913H22.335C22.611 18.2913 22.835 18.5153 22.835 18.7913C22.835 19.0673 22.612 19.2913 22.335 19.2913Z" fill="#8471F4"/>
</svg>
