<svg width="27" height="30" viewBox="0 0 27 30" fill="none" xmlns="http://www.w3.org/2000/svg">
<path d="M11.5947 20.0631C11.2847 19.8941 10.9757 19.7191 10.6737 19.5451C7.31273 17.6051 4.38572 15.3591 2.42972 13.2231C0.253716 10.8461 -0.479302 8.86613 0.310698 7.49913C0.821698 6.61313 2.1747 5.69315 5.7117 6.34715C8.1877 6.80415 11.2567 7.95314 14.3517 9.58314L13.6527 10.9101C6.85674 7.33314 2.29173 7.06613 1.60873 8.24913C1.12373 9.08913 2.28573 10.8461 3.53573 12.2111C5.39073 14.2381 8.19273 16.3821 11.4237 18.2471C11.7157 18.4161 12.0157 18.5841 12.3157 18.7481L11.5947 20.0631Z" fill="#FFD550"/>
<path d="M3.54471 23.871C1.93671 23.871 0.835745 23.409 0.308745 22.497C-0.481256 21.129 0.251763 19.15 2.42776 16.773C4.38376 14.636 7.31176 12.391 10.6728 10.45C11.2568 10.113 11.8507 9.78696 12.4387 9.48096L13.1307 10.812C12.5627 11.108 11.9878 11.423 11.4228 11.749C8.19176 13.615 5.38976 15.758 3.53476 17.785C2.28576 19.15 1.12376 20.907 1.60776 21.747C2.09276 22.586 4.19574 22.459 6.00174 22.06C8.68474 21.467 11.9417 20.112 15.1737 18.247L15.9237 19.546C12.5627 21.486 9.15471 22.899 6.32571 23.525C5.27771 23.756 4.34871 23.871 3.54471 23.871Z" fill="#A792FC"/>
<path d="M18.5489 14.998H17.0489C17.0489 11.267 16.5929 7.76899 15.7649 5.14899C15.2079 3.38499 14.2669 1.5 13.2969 1.5C12.3269 1.5 11.3869 3.38499 10.8289 5.14899C10.0009 7.76899 9.54492 11.267 9.54492 14.998H8.04492C8.04492 11.117 8.52589 7.45899 9.39789 4.69699C10.3689 1.62399 11.7169 0 13.2959 0C14.8749 0 16.2229 1.62399 17.1939 4.69699C18.0679 7.45899 18.5489 11.117 18.5489 14.998Z" fill="#8471F4"/>
<path d="M13.2979 29.9961C11.7189 29.9961 10.3708 28.3721 9.39984 25.2981C8.52684 22.5361 8.04688 18.8771 8.04688 14.9971H9.54688C9.54688 18.7281 10.0029 22.2261 10.8309 24.8461C11.3879 26.6101 12.3288 28.4951 13.2988 28.4951C14.2688 28.4951 15.2088 26.6101 15.7668 24.8461C16.5948 22.2261 17.0508 18.7281 17.0508 14.9971H18.5508C18.5508 18.8781 18.0699 22.5361 17.1979 25.2981C16.2249 28.3721 14.8769 29.9961 13.2979 29.9961Z" fill="#8471F4"/>
<path d="M23.0468 23.871C22.3758 23.871 21.5798 23.79 20.6328 23.601C18.0128 23.076 14.8028 21.82 11.5938 20.064L12.3138 18.748C17.0868 21.361 20.8847 22.371 23.0577 22.372C24.0937 22.372 24.7598 22.143 24.9878 21.748C25.4728 20.908 24.3108 19.151 23.0608 17.786C21.2058 15.759 18.4038 13.615 15.1728 11.75C14.6688 11.459 14.1568 11.177 13.6508 10.91L14.3498 9.58301C14.8728 9.85901 15.4028 10.151 15.9228 10.451C19.2838 12.391 22.2118 14.637 24.1678 16.774C26.3438 19.151 27.0767 21.131 26.2867 22.498C25.8947 23.178 25.0108 23.871 23.0468 23.871Z" fill="#FFD550"/>
<path d="M13.2987 16.45C12.4977 16.45 11.8457 15.7979 11.8457 14.9969C11.8457 14.1959 12.4977 13.5439 13.2987 13.5439C14.0997 13.5439 14.7517 14.1959 14.7517 14.9969C14.7517 15.7979 14.0997 16.45 13.2987 16.45ZM13.2987 14.95C13.2727 14.95 13.2517 14.9709 13.2517 14.9969C13.2517 15.0229 13.2727 15.0439 13.2987 15.0439C13.3247 15.0439 13.3457 15.0229 13.3457 14.9969C13.3457 14.9709 13.3247 14.95 13.2987 14.95Z" fill="#FFD550"/>
<path d="M15.9244 19.5451L15.1744 18.2461C18.4054 16.3801 21.2074 14.2371 23.0624 12.2101C24.3114 10.8451 25.4734 9.08811 24.9894 8.24811C24.3184 7.08611 19.8244 7.33014 13.1314 10.8121L12.4395 9.48112C15.5005 7.88912 18.5274 6.77013 20.9614 6.33213C24.4454 5.70513 25.7815 6.62011 26.2885 7.49811C27.0785 8.86611 26.3454 10.8451 24.1694 13.2221C22.2134 15.3601 19.2854 17.6051 15.9244 19.5451Z" fill="#A792FC"/>
</svg>
