<svg width="22" height="30" viewBox="0 0 22 30" fill="none" xmlns="http://www.w3.org/2000/svg">
<path d="M10.6024 12.904C14.1657 12.904 17.0544 10.0153 17.0544 6.45197C17.0544 2.88862 14.1657 0 10.6024 0C7.03905 0 4.15039 2.88862 4.15039 6.45197C4.15039 10.0153 7.03905 12.904 10.6024 12.904Z" fill="#68B8BC"/>
<path d="M19.7587 16.8189C18.5217 14.8659 16.6257 13.4459 14.4187 12.8209C14.1207 12.7369 13.7997 12.8119 13.5697 13.0199C12.7547 13.7569 11.7007 14.1639 10.6017 14.1639C9.50268 14.1639 8.44769 13.7579 7.63369 13.0199C7.40369 12.8119 7.08269 12.7369 6.78469 12.8209C4.57869 13.4459 2.68169 14.8659 1.44469 16.8189C0.183694 18.8109 -0.273316 21.1879 0.158684 23.5139C0.809684 27.0189 3.86968 29.5629 7.43468 29.5629H13.7697C17.3347 29.5629 20.3947 27.0189 21.0457 23.5139C21.4777 21.1879 21.0207 18.8109 19.7587 16.8189Z" fill="#8471F4"/>
<path d="M8.09763 17.3019V13.3859C7.93663 13.2749 7.78064 13.1529 7.63364 13.0199C7.40364 12.8119 7.08264 12.7369 6.78464 12.8209C6.62064 12.8679 6.45864 12.9199 6.29764 12.9749V17.3019C5.33064 17.6669 4.64062 18.6019 4.64062 19.6949C4.64062 21.1049 5.78763 22.2519 7.19763 22.2519C8.60763 22.2519 9.75464 21.1049 9.75464 19.6949C9.75364 18.6009 9.06463 17.6669 8.09763 17.3019ZM7.19763 20.4509C6.78063 20.4509 6.44064 20.1119 6.44064 19.6939C6.44064 19.2769 6.78063 18.9369 7.19763 18.9369C7.61463 18.9369 7.95465 19.2759 7.95465 19.6939C7.95365 20.1119 7.61463 20.4509 7.19763 20.4509Z" fill="#FFC853"/>
<path d="M14.5256 17.1209V12.8529C14.4896 12.8419 14.4556 12.8299 14.4196 12.8199C14.1216 12.7359 13.8006 12.8109 13.5706 13.0189C13.3776 13.1929 13.1716 13.3489 12.9546 13.4849V17.1449C11.8566 17.4949 11.0586 18.5249 11.0586 19.7379V24.5749C11.0586 25.0719 11.4616 25.4749 11.9586 25.4749C12.4556 25.4749 12.8586 25.0719 12.8586 24.5749V19.7379C12.8586 19.2599 13.2256 18.8649 13.6926 18.8209C13.7086 18.8219 13.7246 18.8229 13.7406 18.8229C13.7686 18.8229 13.7966 18.8209 13.8246 18.8179C14.3116 18.8409 14.7016 19.2439 14.7016 19.7369V24.5739C14.7016 25.0709 15.1046 25.4739 15.6016 25.4739C16.0986 25.4739 16.5016 25.0709 16.5016 24.5739V19.7369C16.5016 18.4959 15.6646 17.4459 14.5256 17.1209Z" fill="#FFC853"/>
<g opacity="0.1">
<path d="M11.0586 0.0170898V12.8861C14.4036 12.6511 17.0546 9.85609 17.0546 6.45209C17.0536 3.04709 14.4036 0.25209 11.0586 0.0170898Z" fill="black"/>
</g>
<g opacity="0.1">
<path d="M11.0586 14.1389V29.5629H13.7696C17.3346 29.5629 20.3946 27.0189 21.0456 23.5139C21.4776 21.1889 21.0206 18.8109 19.7596 16.8189C18.5226 14.8659 16.6266 13.4459 14.4196 12.8209C14.1216 12.7369 13.8006 12.8119 13.5706 13.0199C12.8686 13.6539 11.9906 14.0429 11.0586 14.1389Z" fill="black"/>
</g>
</svg>
