<svg width="30" height="30" viewBox="0 0 30 30" fill="none" xmlns="http://www.w3.org/2000/svg">
<path d="M24.8998 0H5.00977C4.59577 0 4.25977 0.336 4.25977 0.75V10.479C4.25977 15.573 8.40478 19.718 13.4988 19.718H16.4108C21.5048 19.718 25.6498 15.573 25.6498 10.479V0.75C25.6498 0.336 25.3138 0 24.8998 0Z" fill="#FFD550"/>
<path d="M4.25897 10.4789V1.56787H0.75C0.336 1.56787 0 1.90387 0 2.31787V5.51788C0 8.19788 1.77496 10.5449 4.29596 11.3069C4.27196 11.0349 4.25897 10.7589 4.25897 10.4789Z" fill="#A792FC"/>
<path d="M29.2464 1.56909H25.6494V10.48C25.6494 10.768 25.6354 11.0531 25.6094 11.3351C28.1784 10.6031 29.9964 8.23108 29.9964 5.52008V2.32007C29.9964 1.90507 29.6604 1.56909 29.2464 1.56909Z" fill="#A792FC"/>
<path d="M21.1785 25.865H15.7025V19.718H14.2025V25.865H8.72656C8.31256 25.865 7.97656 26.201 7.97656 26.615V28.927C7.97656 29.341 8.31256 29.677 8.72656 29.677H21.1776C21.5916 29.677 21.9276 29.341 21.9276 28.927V26.615C21.9286 26.201 21.5935 25.865 21.1785 25.865Z" fill="#8471F4"/>
<path d="M13.0674 16.3259C13.0174 16.3259 12.9674 16.3209 12.9164 16.3109C10.4614 15.8089 8.45634 14.0139 7.68334 11.6279C7.55534 11.2339 7.77138 10.8109 8.16638 10.6829C8.56038 10.5549 8.98338 10.7709 9.11138 11.1649C9.71838 13.0379 11.2913 14.4469 13.2173 14.8409C13.6233 14.9239 13.8843 15.3199 13.8013 15.7259C13.7283 16.0809 13.4164 16.3259 13.0674 16.3259Z" fill="#FFFBE2"/>
</svg>
