<svg width="24" height="26" viewBox="0 0 24 26" fill="none" xmlns="http://www.w3.org/2000/svg">
<path d="M16.9483 1.5H6.53827C6.16527 1.5 5.86328 1.164 5.86328 0.75C5.86328 0.336 6.16527 0 6.53827 0H16.9483C17.3213 0 17.6233 0.336 17.6233 0.75C17.6233 1.164 17.3213 1.5 16.9483 1.5Z" fill="#8471F4"/>
<path d="M23.162 22.418L15.787 9.64401V1.5H7.699V9.64401L0.324 22.418C-0.108 23.166 -0.108 24.06 0.324 24.808C0.756 25.556 1.53001 26.003 2.39401 26.003H21.093C21.957 26.003 22.731 25.556 23.163 24.808C23.594 24.06 23.594 23.167 23.162 22.418Z" fill="#A792FC"/>
<path d="M17.3975 12.4331H12.8585C12.3735 12.4331 11.9805 12.7691 11.9805 13.1831C11.9805 13.5971 12.3735 13.9331 12.8585 13.9331H17.6705C17.8615 13.9331 18.0375 13.8801 18.1815 13.7921L17.3975 12.4331Z" fill="#FFD550"/>
<path d="M20.0563 17.04H15.9932C15.5082 17.04 15.1152 17.376 15.1152 17.79C15.1152 18.204 15.5082 18.54 15.9932 18.54H20.8052C20.8432 18.54 20.8813 18.5371 20.9183 18.5331L20.0563 17.04Z" fill="#FFD550"/>
<path d="M18.2246 22.397C18.2246 22.811 18.6176 23.147 19.1026 23.147H23.4386C23.3876 22.896 23.2956 22.65 23.1616 22.418L22.7166 21.647H19.1026C18.6176 21.647 18.2246 21.983 18.2246 22.397Z" fill="#FFD550"/>
</svg>
