<svg width="17" height="26" viewBox="0 0 17 26" fill="none" xmlns="http://www.w3.org/2000/svg">
<path d="M15.6318 18.178C15.6318 22.147 12.4138 25.365 8.44482 25.365C4.47582 25.365 1.25781 22.147 1.25781 18.178C1.25781 14.209 4.47582 10.991 8.44482 10.991C12.4138 10.991 15.6318 14.209 15.6318 18.178Z" fill="#FFD550"/>
<path d="M5.14221 22.675C3.71621 21.627 2.86523 19.945 2.86523 18.177H4.36523C4.36523 19.47 4.98821 20.6991 6.03021 21.4661L5.14221 22.675Z" fill="white"/>
<path d="M9.19568 22.4209H7.69568V15.4619H6.55664V13.9619H9.19568V22.4209Z" fill="white"/>
<path d="M8.33496 10.994L5.89197 0H0L2.65997 13.914C3.94897 12.169 6.00796 11.029 8.33496 10.994Z" fill="#8471F4"/>
<path d="M14.2307 13.914L16.8917 0H10.9996L8.55664 10.994C10.8836 11.029 12.9417 12.169 14.2307 13.914Z" fill="#8471F4"/>
<path d="M16.3511 2.81702L16.889 0H10.9971L10.3711 2.81702H16.3511Z" fill="#A792FC"/>
<path d="M6.51801 2.81702L5.89197 0H0L0.539001 2.81702H6.51801Z" fill="#A792FC"/>
<g opacity="0.15">
<path d="M16.8898 0H10.9978L10.3718 2.81702L8.55481 10.994C8.52581 10.994 8.4958 10.992 8.4668 10.992V25.3651C12.4258 25.3531 15.6318 22.141 15.6318 18.179C15.6318 16.582 15.1108 15.108 14.2298 13.915L16.8898 0Z" fill="#231F20"/>
</g>
</svg>
