<svg width="30" height="30" viewBox="0 0 30 30" fill="none" xmlns="http://www.w3.org/2000/svg">
<path d="M22.4958 12.3171H17.6868V7.50708H12.3178V12.3171H7.50781V17.6861H12.3178V22.4951H17.6868V17.6861H22.4958V12.3171Z" fill="white"/>
<path d="M29.697 11.978C29.597 11.49 29.473 11.01 29.327 10.54C29.29 10.423 29.252 10.306 29.213 10.19C29.134 9.958 29.05 9.72804 28.961 9.50104C28.916 9.38704 28.87 9.27499 28.823 9.16199C28.443 8.26499 27.979 7.41201 27.44 6.61401C27.373 6.51401 27.304 6.41502 27.234 6.31702C26.885 5.82702 26.508 5.35904 26.105 4.91504C25.782 4.56004 25.443 4.22003 25.087 3.89703C24.643 3.49303 24.175 3.11601 23.685 2.76801C23.587 2.69801 23.488 2.63001 23.388 2.56201C22.59 2.02301 21.737 1.55902 20.84 1.17902C20.728 1.13202 20.615 1.08502 20.501 1.04102C20.274 0.951016 20.044 0.867001 19.812 0.789001C19.696 0.750001 19.579 0.711988 19.462 0.674988C18.992 0.528988 18.513 0.404993 18.024 0.304993C17.047 0.104993 16.036 0 15.001 0C13.965 0 12.954 0.104993 11.978 0.304993C11.49 0.404993 11.01 0.528988 10.54 0.674988C10.423 0.710988 10.306 0.749001 10.19 0.789001C9.95797 0.868001 9.72798 0.952016 9.50098 1.04102C9.38798 1.08602 9.27499 1.13202 9.16199 1.17902C8.26499 1.55902 7.41198 2.02301 6.61398 2.56201C6.51398 2.62901 6.41499 2.69801 6.31699 2.76801C5.82699 3.11601 5.35898 3.49403 4.91498 3.89703C4.55998 4.22003 4.21997 4.55904 3.89697 4.91504C3.49297 5.35904 3.11597 5.82702 2.76797 6.31702C2.69797 6.41502 2.62998 6.51401 2.56198 6.61401C2.02298 7.41201 1.55799 8.26499 1.17899 9.16199C1.13199 9.27399 1.08499 9.38704 1.04099 9.50104C0.950985 9.72804 0.866971 9.958 0.788971 10.19C0.749971 10.306 0.711988 10.423 0.674988 10.54C0.528988 11.01 0.404993 11.489 0.304993 11.978C0.104993 12.954 0 13.965 0 15.001C0 16.036 0.104993 17.047 0.304993 18.024C0.404993 18.512 0.528988 18.992 0.674988 19.462C0.710988 19.579 0.748971 19.696 0.788971 19.812C0.867971 20.044 0.951985 20.274 1.04099 20.501C1.08599 20.615 1.13199 20.727 1.17899 20.84C1.55799 21.737 2.02298 22.59 2.56198 23.388C2.62898 23.488 2.69797 23.587 2.76797 23.685C3.11697 24.175 3.49397 24.643 3.89697 25.087C4.21997 25.442 4.55898 25.782 4.91498 26.105C5.35898 26.509 5.82699 26.886 6.31699 27.234C6.41499 27.304 6.51398 27.372 6.61398 27.44C7.41198 27.979 8.26499 28.443 9.16199 28.823C9.27399 28.87 9.38698 28.917 9.50098 28.961C9.72798 29.051 9.95797 29.135 10.19 29.213C10.306 29.252 10.423 29.29 10.54 29.327C11.01 29.473 11.489 29.597 11.978 29.697C12.955 29.897 13.965 30.002 15.001 30.002C16.037 30.002 17.048 29.897 18.024 29.697C18.512 29.597 18.992 29.473 19.462 29.327C19.579 29.291 19.696 29.253 19.812 29.213C20.044 29.134 20.274 29.05 20.501 28.961C20.614 28.916 20.727 28.87 20.84 28.823C21.737 28.443 22.59 27.979 23.388 27.44C23.488 27.373 23.587 27.304 23.685 27.234C24.175 26.885 24.643 26.508 25.087 26.105C25.442 25.782 25.782 25.443 26.105 25.087C26.509 24.643 26.886 24.175 27.234 23.685C27.304 23.587 27.372 23.488 27.44 23.388C27.979 22.59 28.443 21.737 28.823 20.84C28.87 20.728 28.917 20.615 28.961 20.501C29.051 20.274 29.135 20.044 29.213 19.812C29.252 19.696 29.29 19.579 29.327 19.462C29.473 18.992 29.597 18.513 29.697 18.024C29.897 17.047 30.002 16.037 30.002 15.001C30.002 13.966 29.897 12.955 29.697 11.978Z" fill="#8471F4"/>
<path d="M17.6868 12.3171V7.50708H12.3178V12.3171H7.50781V17.6861H12.3178V22.4951H17.6868V17.6861H22.4958V12.3171H17.6868Z" fill="#F9F6EF"/>
<g opacity="0.1">
<path d="M29.698 11.978C29.598 11.49 29.474 11.01 29.328 10.54C29.291 10.423 29.253 10.306 29.214 10.19C29.135 9.958 29.0509 9.72804 28.9619 9.50104C28.9169 9.38704 28.8709 9.27499 28.8239 9.16199C28.4439 8.26499 27.9799 7.41201 27.4409 6.61401C27.3739 6.51401 27.305 6.41502 27.235 6.31702C26.886 5.82702 26.509 5.35904 26.106 4.91504C25.783 4.56004 25.444 4.22003 25.088 3.89703C24.644 3.49303 24.1759 3.11601 23.6859 2.76801C23.5879 2.69801 23.4889 2.63001 23.3889 2.56201C22.5909 2.02301 21.738 1.55902 20.841 1.17902C20.729 1.13202 20.616 1.08502 20.502 1.04102C20.275 0.951016 20.045 0.867001 19.813 0.789001C19.697 0.750001 19.58 0.711988 19.463 0.674988C18.993 0.528988 18.514 0.404993 18.025 0.304993C17.048 0.104993 16.037 0 15.002 0V30C16.038 30 17.049 29.895 18.025 29.695C18.513 29.595 18.993 29.471 19.463 29.325C19.58 29.289 19.697 29.251 19.813 29.211C20.045 29.132 20.275 29.048 20.502 28.959C20.615 28.914 20.728 28.868 20.841 28.821C21.738 28.441 22.5909 27.977 23.3889 27.438C23.4889 27.371 23.5879 27.302 23.6859 27.232C24.1759 26.883 24.644 26.506 25.088 26.103C25.443 25.78 25.783 25.441 26.106 25.085C26.51 24.641 26.887 24.173 27.235 23.683C27.305 23.585 27.3729 23.486 27.4409 23.386C27.9799 22.588 28.4439 21.735 28.8239 20.838C28.8709 20.726 28.9179 20.613 28.9619 20.499C29.0519 20.272 29.136 20.042 29.214 19.81C29.253 19.694 29.291 19.577 29.328 19.46C29.474 18.99 29.598 18.511 29.698 18.022C29.898 17.045 30.003 16.035 30.003 14.999C30.003 13.966 29.898 12.955 29.698 11.978Z" fill="black"/>
</g>
</svg>
