<svg width="34" height="34" viewBox="0 0 34 34" fill="none" xmlns="http://www.w3.org/2000/svg">
<path d="M30.5669 20.1253C32.3495 12.5758 27.6746 5.01065 20.1251 3.228C12.5756 1.44535 5.01042 6.12027 3.22778 13.6698C1.44513 21.2193 6.12003 28.7845 13.6695 30.5671C21.219 32.3498 28.7842 27.6748 30.5669 20.1253Z" fill="#FFD550"/>
<path d="M27.4023 7.48108C27.0693 7.10708 26.7163 6.7511 26.3463 6.4151C23.8443 9.0581 22.3973 12.4501 22.2223 16.0731H17.9723V2.8161C17.6233 2.7901 17.2703 2.7771 16.9143 2.7771C16.7663 2.7771 16.6193 2.7801 16.4723 2.7851V16.0741H12.7453C12.5533 12.2221 10.8883 8.5661 8.0993 5.8891C7.7083 6.2041 7.33429 6.5401 6.98029 6.8941C9.52429 9.2951 11.0513 12.5931 11.2433 16.0731H2.9043V17.5731H11.2433C11.0503 21.0531 9.52329 24.3511 6.98029 26.7521C7.33529 27.1071 7.70934 27.4421 8.10034 27.7581C10.8893 25.0811 12.5543 21.4251 12.7463 17.5731H16.4733V30.8621C16.6203 30.8671 16.7673 30.8701 16.9153 30.8701C17.2713 30.8701 17.6233 30.8571 17.9733 30.8311V17.5731H22.2233C22.3993 21.1941 23.8463 24.5891 26.3473 27.2311C26.7183 26.8951 27.0703 26.5391 27.4033 26.1651C25.1873 23.8071 23.8993 20.7911 23.7263 17.5731H30.9423C30.9553 17.3251 30.9623 17.0751 30.9623 16.8231C30.9623 16.5711 30.9553 16.3211 30.9423 16.0731H23.7263C23.8973 12.8531 25.1853 9.83908 27.4023 7.48108Z" fill="#FFD550"/>
<g opacity="0.15">
<path d="M30.955 16.4471V16.4431C30.952 16.3191 30.9469 16.1961 30.9399 16.0731C30.7669 12.7811 29.4589 9.78908 27.4019 7.48108C27.2359 7.29508 27.065 7.11306 26.89 6.93506L26.8879 6.93311C24.5749 4.60011 21.4499 3.0751 17.9719 2.8161C17.8159 2.8041 17.659 2.7961 17.502 2.7901C17.466 2.7891 17.4299 2.78707 17.3939 2.78607C17.2349 2.78107 17.0749 2.7771 16.9149 2.7771C16.8329 2.7771 16.7519 2.78007 16.6699 2.78107V30.8651C16.7519 30.8671 16.8329 30.8691 16.9149 30.8691C17.0749 30.8691 17.2349 30.865 17.3939 30.86C17.4299 30.859 17.466 30.8571 17.502 30.8561C17.659 30.8491 17.816 30.8411 17.973 30.8301C21.186 30.5911 24.0989 29.2701 26.3469 27.2311C26.5319 27.0631 26.713 26.8901 26.889 26.7121L26.8909 26.7101C29.2429 24.3371 30.755 21.1301 30.942 17.5721C30.948 17.4491 30.953 17.3261 30.957 17.2021V17.1981C30.96 17.0731 30.962 16.9481 30.962 16.8221C30.96 16.6981 30.958 16.5721 30.955 16.4471Z" fill="#FFD550"/>
</g>
</svg>
