<svg width="23" height="30" viewBox="0 0 23 30" fill="none" xmlns="http://www.w3.org/2000/svg">
<path d="M18.1751 23.4849H17.3691L14.3101 12.6909H3.54712C1.52212 14.5079 0.246094 17.1419 0.246094 20.0699C0.246094 25.5369 4.69413 29.9849 10.1611 29.9849C14.4271 29.9849 18.0731 27.276 19.4691 23.488H18.1761V23.4849H18.1751Z" fill="#68B8BC"/>
<path d="M19.359 20.737L16.371 10.191H6.40198L5.83197 6.30603H11.312V4.50598H5.56799L4.90698 0H0V1.79999H3.35199L4.84698 11.991H15.01L17.998 22.537H22.442V20.737H19.359Z" fill="#8471F4"/>
<g opacity="0.1">
<path d="M18.1754 23.488V23.4849H17.3694L14.3104 12.6909H9.85742V29.9799C9.95842 29.9829 10.0594 29.9849 10.1614 29.9849C14.4274 29.9849 18.0734 27.276 19.4694 23.488H18.1754Z" fill="black"/>
<path d="M11.3114 4.50586H9.85742V6.30591H11.3114V4.50586Z" fill="black"/>
<path d="M19.3594 20.7369L16.3714 10.1909H9.85742V11.991H15.0104L17.9984 22.5369H22.4424V20.7369H19.3594Z" fill="black"/>
</g>
</svg>
