<svg width="19" height="30" viewBox="0 0 19 30" fill="none" xmlns="http://www.w3.org/2000/svg">
<path d="M16.459 0H2.203C0.988003 0 0 0.988003 0 2.203V2.828C0 4.043 0.988003 5.03101 2.203 5.03101H16.459C17.674 5.03101 18.662 4.043 18.662 2.828V2.203C18.662 0.988003 17.674 0 16.459 0Z" fill="#8471F4"/>
<path d="M16.459 5.03003H2.20297C2.19097 5.03003 2.17997 5.02905 2.16797 5.02905V22.673C2.16797 26.623 5.38096 29.8361 9.33096 29.8361C13.281 29.8361 16.494 26.623 16.494 22.673V5.02905C16.483 5.03005 16.471 5.03003 16.459 5.03003Z" fill="#68B8BC"/>
<path d="M15.0189 6.66211H12.0879V8.4621H15.0189V6.66211Z" fill="#FFC853"/>
<path d="M15.0198 9.5H13.0918V11.3H15.0198V9.5Z" fill="#FFC853"/>
<path d="M15.0189 12.7393H12.0879V14.5392H15.0189V12.7393Z" fill="#FFC853"/>
<path d="M15.0198 15.979H13.0918V17.779H15.0198V15.979Z" fill="#FFC853"/>
<path d="M15.0189 19.218H12.0879V21.0181H15.0189V19.218Z" fill="#FFC853"/>
<path d="M15.0198 22.458H13.0918V24.258H15.0198V22.458Z" fill="#FFC853"/>
<g opacity="0.1">
<path d="M16.4581 0H9.33008V29.836C13.2801 29.836 16.4931 26.623 16.4931 22.673V5.02899C17.6921 5.00999 18.6611 4.02997 18.6611 2.82697V2.20197C18.6611 0.987965 17.6731 0 16.4581 0Z" fill="black"/>
</g>
</svg>
