<svg width="23" height="31" viewBox="0 0 23 31" fill="none" xmlns="http://www.w3.org/2000/svg">
<path d="M4.46698 0H0.5C0.224 0 0 0.224 0 0.5V4.46698C0 4.74298 0.224 4.96698 0.5 4.96698H4.46698C4.74298 4.96698 4.96698 4.74298 4.96698 4.46698V0.5C4.96698 0.224 4.74298 0 4.46698 0Z" fill="#FFD550"/>
<path d="M13.2229 0H9.25586C8.97986 0 8.75586 0.224 8.75586 0.5V4.46698C8.75586 4.74298 8.97986 4.96698 9.25586 4.96698H13.2229C13.4989 4.96698 13.7229 4.74298 13.7229 4.46698V0.5C13.7229 0.224 13.4989 0 13.2229 0Z" fill="#FFD550"/>
<path d="M21.9807 0H18.0137C17.7377 0 17.5137 0.224 17.5137 0.5V4.46698C17.5137 4.74298 17.7377 4.96698 18.0137 4.96698H21.9807C22.2567 4.96698 22.4807 4.74298 22.4807 4.46698V0.5C22.4807 0.224 22.2567 0 21.9807 0Z" fill="#FFD550"/>
<path d="M4.46698 7.76294H0.5C0.224 7.76294 0 7.98694 0 8.26294V12.2299C0 12.5059 0.224 12.7299 0.5 12.7299H4.46698C4.74298 12.7299 4.96698 12.5059 4.96698 12.2299V8.26294C4.96698 7.98694 4.74298 7.76294 4.46698 7.76294Z" fill="#FFD550"/>
<path d="M13.2229 7.76294H9.25586C8.97986 7.76294 8.75586 7.98694 8.75586 8.26294V12.2299C8.75586 12.5059 8.97986 12.7299 9.25586 12.7299H13.2229C13.4989 12.7299 13.7229 12.5059 13.7229 12.2299V8.26294C13.7229 7.98694 13.4989 7.76294 13.2229 7.76294Z" fill="#FFD550"/>
<path d="M21.9807 7.76294H18.0137C17.7377 7.76294 17.5137 7.98694 17.5137 8.26294V12.2299C17.5137 12.5059 17.7377 12.7299 18.0137 12.7299H21.9807C22.2567 12.7299 22.4807 12.5059 22.4807 12.2299V8.26294C22.4807 7.98694 22.2567 7.76294 21.9807 7.76294Z" fill="#FFD550"/>
<path d="M4.46625 0H2.90625C3.18225 0 3.40625 0.224 3.40625 0.5V4.46698C3.40625 4.74298 3.18225 4.96698 2.90625 4.96698H4.46625C4.74225 4.96698 4.96625 4.74298 4.96625 4.46698V0.5C4.96625 0.224 4.74225 0 4.46625 0Z" fill="#80D1ED"/>
<path d="M13.2221 0H11.6621C11.9381 0 12.1621 0.224 12.1621 0.5V4.46698C12.1621 4.74298 11.9381 4.96698 11.6621 4.96698H13.2221C13.4981 4.96698 13.7221 4.74298 13.7221 4.46698V0.5C13.7221 0.224 13.4981 0 13.2221 0Z" fill="#80D1ED"/>
<path d="M21.9799 0H20.4199C20.6959 0 20.9199 0.224 20.9199 0.5V4.46698C20.9199 4.74298 20.6959 4.96698 20.4199 4.96698H21.9799C22.2559 4.96698 22.4799 4.74298 22.4799 4.46698V0.5C22.4799 0.224 22.2559 0 21.9799 0Z" fill="#80D1ED"/>
<path d="M4.46625 7.76294H2.90625C3.18225 7.76294 3.40625 7.98694 3.40625 8.26294V12.2299C3.40625 12.5059 3.18225 12.7299 2.90625 12.7299H4.46625C4.74225 12.7299 4.96625 12.5059 4.96625 12.2299V8.26294C4.96625 7.98694 4.74225 7.76294 4.46625 7.76294Z" fill="#8471F4"/>
<path d="M13.2221 7.76294H11.6621C11.9381 7.76294 12.1621 7.98694 12.1621 8.26294V12.2299C12.1621 12.5059 11.9381 12.7299 11.6621 12.7299H13.2221C13.4981 12.7299 13.7221 12.5059 13.7221 12.2299V8.26294C13.7221 7.98694 13.4981 7.76294 13.2221 7.76294Z" fill="#8471F4"/>
<path d="M21.9799 7.76294H20.4199C20.6959 7.76294 20.9199 7.98694 20.9199 8.26294V12.2299C20.9199 12.5059 20.6959 12.7299 20.4199 12.7299H21.9799C22.2559 12.7299 22.4799 12.5059 22.4799 12.2299V8.26294C22.4799 7.98694 22.2559 7.76294 21.9799 7.76294Z" fill="#8471F4"/>
<path d="M17.8889 19.6829C17.5699 19.3779 17.1499 19.2219 16.7089 19.2429C16.4399 19.2559 16.1899 19.3359 15.9729 19.4659V22.2499C15.9729 22.2779 15.9509 22.2999 15.9229 22.2999C15.8949 22.2999 15.8729 22.2779 15.8729 22.2499V19.4709C15.6039 19.0319 15.1369 18.7329 14.5929 18.7069C14.2519 18.6909 13.9249 18.7819 13.6459 18.9639V22.2499C13.6459 22.2779 13.6239 22.2999 13.5959 22.2999C13.5679 22.2999 13.5459 22.2779 13.5459 22.2499V18.9739C13.2709 18.5839 12.8299 18.3219 12.3239 18.2989C12.0949 18.2879 11.8719 18.3249 11.6659 18.4049V22.2499C11.6659 22.2779 11.6439 22.2999 11.6159 22.2999C11.5879 22.2999 11.5659 22.2779 11.5659 22.2499V15.3259C11.4779 14.5409 10.8469 13.9229 10.0549 13.8859C9.61192 13.8649 9.19393 14.0209 8.87493 14.3259C8.55993 14.6259 8.37993 15.0479 8.37993 15.4829V21.8839L6.85091 21.0009C6.42091 20.7529 5.89892 20.6869 5.41692 20.8209C4.94392 20.9529 4.55492 21.2569 4.32192 21.6789C3.87992 22.4779 4.10292 23.4869 4.83992 24.0239C4.92092 24.0829 5.06693 24.2119 5.15593 24.2979L6.45092 25.5469C6.64992 25.7389 6.82291 25.9579 6.96291 26.1969L7.66292 27.3919C8.62792 29.0389 10.3949 30.0489 12.2979 30.0489C12.3389 30.0489 12.3799 30.0489 12.4209 30.0479L13.2929 30.0279C15.6759 29.9729 17.7619 28.3249 18.3659 26.0199C18.3769 25.9789 18.3819 25.9359 18.3819 25.8929V20.8389C18.3839 20.4039 18.2029 19.9829 17.8889 19.6829Z" fill="#8471F4"/>
<path d="M18.2463 20.1948C17.8463 24.0658 14.5744 27.0858 10.5974 27.0858C9.27435 27.0858 8.03036 26.7518 6.94336 26.1638C6.95036 26.1748 6.95836 26.1858 6.96536 26.1978L7.66534 27.3928C8.63034 29.0398 10.3974 30.0498 12.3004 30.0498C12.3414 30.0498 12.3823 30.0498 12.4233 30.0488L13.2953 30.0288C15.6783 29.9738 17.7643 28.3258 18.3683 26.0208C18.3793 25.9798 18.3843 25.9368 18.3843 25.8938V20.8398C18.3833 20.6158 18.3353 20.3968 18.2463 20.1948Z" fill="#3D525E"/>
</svg>
