<svg width="30" height="29" viewBox="0 0 30 29" fill="none" xmlns="http://www.w3.org/2000/svg">
<path d="M15.8393 1.24503L18.7193 10.1081H28.0383C29.0853 10.1081 29.5203 11.4471 28.6733 12.0631L21.1343 17.5401L24.0143 26.403C24.3373 27.398 23.1983 28.2261 22.3513 27.6111L14.8123 22.133L7.27333 27.6111C6.42633 28.2261 5.28731 27.398 5.61031 26.403L8.49031 17.5401L0.951311 12.0631C0.104311 11.4481 0.540321 10.1081 1.58632 10.1081H10.9053L13.7853 1.24503C14.1073 0.250029 15.5153 0.250029 15.8393 1.24503Z" fill="#8471F4"/>
<path d="M6.63776 28.323C6.31476 28.323 5.99074 28.2211 5.70874 28.0161C5.14474 27.6061 4.9187 26.912 5.1347 26.249L7.90173 17.732L0.656737 12.468C0.0927372 12.058 -0.133298 11.364 0.0827015 10.701C0.298702 10.038 0.888753 9.60901 1.58575 9.60901H10.5417L13.3098 1.09204C13.5258 0.429041 14.1157 0 14.8127 0C15.5107 0 16.1007 0.429041 16.3157 1.09204L19.0837 9.60901H28.0397C28.7377 9.60901 29.3277 10.038 29.5427 10.701C29.7577 11.364 29.5327 12.058 28.9687 12.468L21.7238 17.732L24.4907 26.249C24.7067 26.912 24.4807 27.6061 23.9167 28.0161C23.3527 28.4261 22.6227 28.4261 22.0587 28.0161L14.8137 22.752L7.56872 28.0161C7.28472 28.2201 6.96076 28.323 6.63776 28.323ZM1.58575 10.608C1.19475 10.608 1.06475 10.915 1.03375 11.009C1.00275 11.103 0.92775 11.428 1.24475 11.658L8.78375 17.136C8.95875 17.263 9.0327 17.489 8.9657 17.695L6.08575 26.558C5.96475 26.93 6.21675 27.149 6.29675 27.207C6.37675 27.265 6.6617 27.437 6.9787 27.207L14.5177 21.73C14.6927 21.603 14.9297 21.603 15.1057 21.73L22.6447 27.207C22.9617 27.437 23.2467 27.265 23.3267 27.207C23.4067 27.149 23.6587 26.93 23.5377 26.558L20.6577 17.695C20.5907 17.489 20.6637 17.263 20.8397 17.136L28.3787 11.659C28.6957 11.429 28.6197 11.104 28.5897 11.01C28.5587 10.916 28.4287 10.609 28.0377 10.609H18.7187C18.5017 10.609 18.3097 10.469 18.2437 10.263L15.3637 1.40002C15.2427 1.02802 14.9107 0.999023 14.8117 0.999023C14.7127 0.999023 14.3807 1.02802 14.2597 1.40002L11.3797 10.263C11.3127 10.469 11.1207 10.609 10.9047 10.609L1.58575 10.608Z" fill="#8471F4"/>
<path d="M17.4661 15.495C17.4661 16.959 16.2791 18.146 14.8141 18.146C13.3501 18.146 12.1621 16.959 12.1621 15.495C12.1621 14.031 13.3491 12.843 14.8141 12.843C16.2781 12.843 17.4661 14.031 17.4661 15.495Z" fill="#FFD550"/>
<path d="M14.8131 18.647C13.0751 18.647 11.6621 17.233 11.6621 15.496C11.6621 13.758 13.0761 12.344 14.8131 12.344C16.5501 12.344 17.9651 13.758 17.9651 15.496C17.9651 17.233 16.5511 18.647 14.8131 18.647ZM14.8131 13.343C13.6271 13.343 12.6621 14.308 12.6621 15.495C12.6621 16.681 13.6271 17.646 14.8131 17.646C15.9991 17.646 16.9651 16.681 16.9651 15.495C16.9651 14.309 15.9991 13.343 14.8131 13.343Z" fill="#FFD550"/>
<path d="M14.8125 6.41895C14.5365 6.41895 14.3125 6.19495 14.3125 5.91895V0.856934C14.3125 0.580934 14.5365 0.356934 14.8125 0.356934C15.0885 0.356934 15.3125 0.580934 15.3125 0.856934V5.91895C15.3125 6.19495 15.0885 6.41895 14.8125 6.41895Z" fill="#FFD550"/>
<path d="M14.8125 11.1008C14.5365 11.1008 14.3125 10.8768 14.3125 10.6008V8.90283C14.3125 8.62683 14.5365 8.40283 14.8125 8.40283C15.0885 8.40283 15.3125 8.62683 15.3125 8.90283V10.6008C15.3125 10.8768 15.0885 11.1008 14.8125 11.1008Z" fill="#FFD550"/>
<path d="M5.3858 12.6921C5.3428 12.6921 5.29784 12.6861 5.25384 12.6741L0.368833 11.3471C0.102833 11.2751 -0.0551803 11.0001 0.0178197 10.7331C0.0898197 10.4671 0.364833 10.3091 0.631833 10.3821L5.51684 11.7091C5.78284 11.7811 5.9408 12.0561 5.8678 12.3231C5.8078 12.5461 5.6058 12.6921 5.3858 12.6921Z" fill="#FFD550"/>
<path d="M9.90344 13.92C9.86044 13.92 9.81546 13.914 9.77246 13.902L8.13446 13.457C7.86846 13.385 7.71044 13.11 7.78344 12.843C7.85644 12.577 8.13046 12.4189 8.39746 12.4919L10.0355 12.9369C10.3015 13.0099 10.4595 13.284 10.3865 13.551C10.3255 13.774 10.1234 13.92 9.90344 13.92Z" fill="#FFD550"/>
<path d="M23.9741 12.799C23.7541 12.799 23.5521 12.653 23.4921 12.43C23.4201 12.164 23.5771 11.889 23.8431 11.816L28.728 10.489C28.995 10.416 29.2691 10.574 29.3421 10.84C29.4141 11.106 29.257 11.381 28.991 11.454L24.1061 12.782C24.0621 12.793 24.0181 12.799 23.9741 12.799Z" fill="#FFD550"/>
<path d="M19.4565 14.0271C19.2365 14.0271 19.0345 13.881 18.9745 13.658C18.9025 13.392 19.0595 13.117 19.3255 13.044L20.9635 12.599C21.2305 12.527 21.5045 12.684 21.5775 12.95C21.6495 13.217 21.4925 13.491 21.2265 13.564L19.5885 14.0091C19.5445 14.0211 19.5005 14.0271 19.4565 14.0271Z" fill="#FFD550"/>
<path d="M23.461 27.967C23.309 27.967 23.158 27.897 23.06 27.766L20.0329 23.709C19.8679 23.488 19.9129 23.174 20.1349 23.009C20.3559 22.844 20.6699 22.889 20.8349 23.111L23.862 27.168C24.027 27.389 23.9819 27.703 23.7599 27.868C23.6699 27.935 23.565 27.967 23.461 27.967Z" fill="#FFD550"/>
<path d="M18.6501 21.518C18.4981 21.518 18.3471 21.448 18.2491 21.317L17.2341 19.956C17.0691 19.735 17.1141 19.4211 17.3361 19.2561C17.5571 19.0911 17.8711 19.1361 18.0361 19.3581L19.0511 20.719C19.2161 20.94 19.1711 21.254 18.9491 21.419C18.8591 21.485 18.7541 21.518 18.6501 21.518Z" fill="#FFD550"/>
<path d="M6.09084 27.967C5.98684 27.967 5.88187 27.935 5.79287 27.868C5.57187 27.703 5.52582 27.39 5.69082 27.168L8.71786 23.1109C8.88286 22.8899 9.19687 22.844 9.41787 23.009C9.63887 23.174 9.68486 23.487 9.51986 23.709L6.49282 27.766C6.39382 27.897 6.24384 27.967 6.09084 27.967Z" fill="#FFD550"/>
<path d="M10.9024 21.518C10.7984 21.518 10.6934 21.486 10.6034 21.419C10.3824 21.254 10.3364 20.941 10.5014 20.719L11.5163 19.358C11.6813 19.137 11.9944 19.091 12.2164 19.256C12.4374 19.421 12.4833 19.734 12.3183 19.956L11.3034 21.317C11.2054 21.448 11.0544 21.518 10.9024 21.518Z" fill="#FFD550"/>
</svg>
