<svg width="24" height="28" viewBox="0 0 24 28" fill="none" xmlns="http://www.w3.org/2000/svg">
<path d="M22.8722 5.45599L20.2452 2.85599L17.6402 0.222992C17.4992 0.0809919 17.3072 0 17.1072 0H3.66016C3.24616 0 2.91016 0.336 2.91016 0.75V23.672C2.91016 24.086 3.24616 24.422 3.66016 24.422H22.3452C22.7592 24.422 23.0952 24.086 23.0952 23.672V5.98801C23.0942 5.78801 23.0142 5.59599 22.8722 5.45599Z" fill="#8471F4"/>
<path d="M19.962 8.36612L17.335 5.76712L14.73 3.13412C14.589 2.99212 14.397 2.91113 14.197 2.91113H0.75C0.336 2.91113 0 3.24713 0 3.66113V26.5831C0 26.9971 0.336 27.3331 0.75 27.3331H19.435C19.849 27.3331 20.185 26.9971 20.185 26.5831V8.89911C20.184 8.69811 20.104 8.50712 19.962 8.36612Z" fill="#A792FC"/>
<path d="M22.3462 5.23898L17.8692 5.22598L17.8552 0.748962C17.8542 0.335962 17.5182 0.000976562 17.1052 0.000976562H3.6582C3.2442 0.000976562 2.9082 0.336977 2.9082 0.750977V23.673C2.9082 24.087 3.2442 24.423 3.6582 24.423H22.3432C22.7572 24.423 23.0932 24.087 23.0932 23.673V5.98898C23.0932 5.57498 22.7592 5.23998 22.3462 5.23898Z" fill="#FFD550"/>
<path d="M18.3842 10.991H7.61719C7.20319 10.991 6.86719 10.655 6.86719 10.241C6.86719 9.82697 7.20319 9.49097 7.61719 9.49097H18.3842C18.7982 9.49097 19.1342 9.82697 19.1342 10.241C19.1342 10.655 18.7992 10.991 18.3842 10.991Z" fill="#8471F4"/>
<path d="M18.3842 15.593H7.61719C7.20319 15.593 6.86719 15.257 6.86719 14.843C6.86719 14.429 7.20319 14.093 7.61719 14.093H18.3842C18.7982 14.093 19.1342 14.429 19.1342 14.843C19.1342 15.257 18.7992 15.593 18.3842 15.593Z" fill="#8471F4"/>
<path d="M18.3842 20.196H7.61719C7.20319 20.196 6.86719 19.86 6.86719 19.446C6.86719 19.032 7.20319 18.696 7.61719 18.696H18.3842C18.7982 18.696 19.1342 19.032 19.1342 19.446C19.1342 19.86 18.7992 20.196 18.3842 20.196Z" fill="#8471F4"/>
</svg>
