<svg width="16" height="29" viewBox="0 0 16 29" fill="none" xmlns="http://www.w3.org/2000/svg">
<path d="M3.92124 28.426C3.43924 28.426 3.00819 28.1769 2.76719 27.7599L2.08823 26.585C1.99923 26.43 1.99923 26.24 2.08823 26.085C2.17723 25.93 2.34222 25.835 2.52122 25.835H5.31919C5.49819 25.835 5.66324 25.93 5.75224 26.085C5.84124 26.24 5.84124 26.43 5.75224 26.585L5.07322 27.7599C4.83322 28.1769 4.40224 28.426 3.92124 28.426ZM3.38725 26.835L3.63322 27.2599C3.72022 27.4099 3.86324 27.426 3.92124 27.426C3.97924 27.426 4.12221 27.4099 4.20921 27.2599L4.45524 26.835H3.38725Z" fill="#4D606E"/>
<path d="M10.3763 28.426C9.89432 28.426 9.46333 28.1769 9.22233 27.7599L8.54331 26.585C8.45431 26.43 8.45431 26.24 8.54331 26.085C8.63231 25.93 8.79736 25.835 8.97636 25.835H11.7743C11.9533 25.835 12.1183 25.93 12.2073 26.085C12.2963 26.24 12.2963 26.43 12.2073 26.585L11.5284 27.7599C11.2894 28.1769 10.8573 28.426 10.3763 28.426ZM9.84336 26.835L10.0893 27.2599C10.1753 27.4099 10.3194 27.426 10.3774 27.426C10.4354 27.426 10.5783 27.4099 10.6643 27.2599L10.9103 26.835H9.84336Z" fill="#4D606E"/>
<path d="M12.607 26.335H2.53998C1.41298 26.335 0.5 25.421 0.5 24.295V9.05005C0.5 7.92305 1.41298 7.01001 2.53998 7.01001H12.607C13.734 7.01001 14.647 7.92305 14.647 9.05005V24.295C14.648 25.421 13.734 26.335 12.607 26.335Z" fill="#7098DA"/>
<path d="M12.607 26.835H2.53998C1.13898 26.835 0 25.695 0 24.295V9.05005C0 7.64905 1.13898 6.51001 2.53998 6.51001H12.607C14.008 6.51001 15.147 7.65005 15.147 9.05005V24.295C15.148 25.695 14.008 26.835 12.607 26.835ZM2.53998 7.50903C1.69098 7.50903 1 8.20001 1 9.04901V24.294C1 25.143 1.69098 25.834 2.53998 25.834H12.607C13.456 25.834 14.147 25.143 14.147 24.294V9.04901C14.147 8.20001 13.456 7.50903 12.607 7.50903H2.53998Z" fill="#7098DA"/>
<path d="M9.88159 7.50903H5.26758C4.99158 7.50903 4.76758 7.28503 4.76758 7.00903V0.5C4.76758 0.224 4.99158 0 5.26758 0H9.88159C10.1576 0 10.3816 0.224 10.3816 0.5V7.00903C10.3816 7.28503 10.1576 7.50903 9.88159 7.50903ZM5.76758 6.50903H9.38159V1H5.76758V6.50903Z" fill="#4D606E"/>
<path d="M11.652 1.00098H3.49805C3.22205 1.00098 2.99805 0.776977 2.99805 0.500977C2.99805 0.224977 3.22205 0.000976562 3.49805 0.000976562H11.652C11.928 0.000976562 12.152 0.224977 12.152 0.500977C12.152 0.776977 11.928 1.00098 11.652 1.00098Z" fill="#4D606E"/>
<path d="M3.91992 21.2042C3.64392 21.2042 3.41992 20.9802 3.41992 20.7042V9.37817C3.41992 9.10217 3.64392 8.87817 3.91992 8.87817C4.19592 8.87817 4.41992 9.10217 4.41992 9.37817V20.7042C4.41992 20.9802 4.19692 21.2042 3.91992 21.2042Z" fill="#D3D4D8"/>
<path d="M7.57422 23.6232C7.29822 23.6232 7.07422 23.3992 7.07422 23.1232V11.7971C7.07422 11.5211 7.29822 11.2971 7.57422 11.2971C7.85022 11.2971 8.07422 11.5211 8.07422 11.7971V23.1232C8.07422 23.3992 7.85022 23.6232 7.57422 23.6232Z" fill="#D3D4D8"/>
<path d="M11.2266 21.2042C10.9506 21.2042 10.7266 20.9802 10.7266 20.7042V9.37817C10.7266 9.10217 10.9506 8.87817 11.2266 8.87817C11.5026 8.87817 11.7266 9.10217 11.7266 9.37817V20.7042C11.7266 20.9802 11.5026 21.2042 11.2266 21.2042Z" fill="#D3D4D8"/>
</svg>
