<svg width="28" height="23" viewBox="0 0 28 23" fill="none" xmlns="http://www.w3.org/2000/svg">
<path d="M5.56598 6.04596H22.201L21.133 0.501953L0.5 4.47595L3.59998 20.571L5.56598 20.192V6.04596Z" fill="#3FBAC2"/>
<path d="M3.60007 21.0711C3.50107 21.0711 3.4031 21.0421 3.3201 20.9851C3.2101 20.9111 3.1341 20.7961 3.1091 20.6651L0.00906427 4.57004C-0.0429357 4.29904 0.13406 4.03704 0.40506 3.98404L21.0381 0.00906427C21.3081 -0.0429357 21.5711 0.13406 21.6241 0.40506L22.6921 5.95004C22.7201 6.09604 22.6821 6.24807 22.5871 6.36307C22.4921 6.47807 22.3511 6.54507 22.2011 6.54507H6.06607V20.1911C6.06607 20.4311 5.8961 20.637 5.6611 20.682L3.6951 21.0611C3.6631 21.0681 3.63207 21.0711 3.60007 21.0711ZM1.08511 4.87308L3.99606 19.9861L5.06509 19.7801V6.04709C5.06509 5.77109 5.28909 5.54709 5.56509 5.54709H21.5951L20.7361 1.08804L1.08511 4.87308Z" fill="#3FBAC2"/>
<path d="M26.5784 6.0459H5.56641V22.4369H26.5784V6.0459Z" fill="#95E1D3"/>
<path d="M26.5784 22.9369H5.56641C5.29041 22.9369 5.06641 22.7129 5.06641 22.4369V6.0459C5.06641 5.7699 5.29041 5.5459 5.56641 5.5459H26.5784C26.8544 5.5459 27.0784 5.7699 27.0784 6.0459V22.4369C27.0784 22.7129 26.8544 22.9369 26.5784 22.9369ZM6.06641 21.9369H26.0784V6.5459H6.06641V21.9369Z" fill="#95E1D3"/>
<path d="M5.56641 22.437L12.8904 11.314L17.6744 18.252L20.5204 14.736L26.5784 22.437H5.56641Z" fill="#8971D0"/>
<path d="M26.5783 22.9371H5.56626C5.38226 22.9371 5.21325 22.8361 5.12625 22.6741C5.03925 22.5121 5.04726 22.3151 5.14926 22.1621L12.4733 11.0391C12.5643 10.9001 12.7193 10.8161 12.8853 10.8141C13.0513 10.8101 13.2083 10.8931 13.3023 11.0301L17.7072 17.4181L20.1323 14.4211C20.2273 14.3041 20.3703 14.2361 20.5213 14.2361H20.5243C20.6763 14.2371 20.8193 14.3071 20.9143 14.4271L26.9723 22.1291C27.0903 22.2801 27.1123 22.4841 27.0293 22.6571C26.9443 22.8281 26.7693 22.9371 26.5783 22.9371ZM6.4943 21.9371H25.5493L20.5153 15.5371L18.0633 18.5671C17.9643 18.6891 17.8162 18.7601 17.6552 18.7521C17.4972 18.7461 17.3523 18.6661 17.2633 18.5361L12.8993 12.2091L6.4943 21.9371Z" fill="#8971D0"/>
<path d="M22.1138 9.91895C22.1138 10.7999 21.3999 11.514 20.5189 11.514C19.6379 11.514 18.9238 10.7999 18.9238 9.91895C18.9238 9.03795 19.6379 8.32397 20.5189 8.32397C21.3999 8.32397 22.1138 9.03795 22.1138 9.91895Z" fill="#8471F4"/>
<path d="M20.5189 12.015C19.3639 12.015 18.4238 11.075 18.4238 9.91998C18.4238 8.76498 19.3639 7.82495 20.5189 7.82495C21.6739 7.82495 22.6138 8.76498 22.6138 9.91998C22.6138 11.075 21.6739 12.015 20.5189 12.015ZM20.5189 8.82397C19.9149 8.82397 19.4238 9.31495 19.4238 9.91895C19.4238 10.5229 19.9149 11.014 20.5189 11.014C21.1229 11.014 21.6138 10.5229 21.6138 9.91895C21.6138 9.31495 21.1229 8.82397 20.5189 8.82397Z" fill="#8471F4"/>
</svg>
