<svg width="27" height="30" viewBox="0 0 27 30" fill="none" xmlns="http://www.w3.org/2000/svg">
<path d="M23.804 8.16602C21.962 6.34002 19.397 5.33398 16.581 5.33398C15.52 5.33398 14.538 5.681 13.671 5.987C13.58 6.019 13.49 6.05097 13.4 6.08197C13.31 6.05097 13.22 6.019 13.129 5.987C12.262 5.681 11.279 5.33398 10.219 5.33398C7.40299 5.33398 4.838 6.34002 2.996 8.16602C1.036 10.109 0 12.822 0 16.012C0 22.701 5.15699 29.516 10.218 29.516C11.268 29.516 12.335 29.232 13.396 28.671C14.459 29.232 15.528 29.516 16.581 29.516C21.642 29.516 26.799 22.701 26.799 16.012C26.799 12.822 25.763 10.109 23.804 8.16602Z" fill="#8471F4"/>
<path d="M3.61281 16.3129H3.58382C3.06482 16.3129 2.65479 15.8689 2.70079 15.3519C3.07279 11.1389 5.9008 8.17286 9.9268 7.76386C10.4458 7.71086 10.8948 8.12488 10.8948 8.64588V8.67487C10.8948 9.13287 10.5448 9.50889 10.0898 9.55689C6.9348 9.88689 4.78779 12.1699 4.49379 15.5119C4.45379 15.9659 4.06881 16.3129 3.61281 16.3129Z" fill="white"/>
<path d="M16.6465 0C16.5355 0.068 14.7866 1.15802 13.5956 3.25702C12.7696 1.65002 11.4486 0.858018 10.3716 0.468018C8.93055 -0.0539824 7.63053 0.035978 7.57553 0.039978L6.43555 0.125977L6.78754 1.21399C7.70854 4.06599 9.45454 5.18602 10.7575 5.62402C11.4805 5.86702 12.1406 5.92899 12.6266 5.92999C12.5446 6.39099 12.4985 6.87898 12.4985 7.39398H14.2986C14.2986 3.61298 17.4515 1.61901 17.5865 1.53601L16.6465 0Z" fill="#68B8BC"/>
<g opacity="0.1">
<path d="M23.8044 8.16602C21.9624 6.34002 19.3974 5.33398 16.5814 5.33398C15.8544 5.33398 15.1644 5.497 14.5224 5.698C15.2434 3.018 17.4744 1.60501 17.5874 1.53601L16.6484 0.000976562C16.5374 0.0689766 14.7884 1.159 13.5974 3.258C13.5344 3.136 13.4684 3.02102 13.4004 2.90802V28.675C14.4614 29.235 15.5294 29.518 16.5824 29.518C21.6434 29.518 26.8004 22.703 26.8004 16.014C26.7994 12.822 25.7634 10.109 23.8044 8.16602Z" fill="black"/>
</g>
</svg>
