<svg width="30" height="30" viewBox="0 0 30 30" fill="none" xmlns="http://www.w3.org/2000/svg">
<path d="M14.7969 27.812C7.62887 27.812 1.79688 21.98 1.79688 14.812C1.79688 7.64401 7.62887 1.81201 14.7969 1.81201C21.9649 1.81201 27.7969 7.64401 27.7969 14.812C27.7969 21.981 21.9649 27.812 14.7969 27.812ZM14.7969 2.81201C8.17987 2.81201 2.79688 8.19501 2.79688 14.812C2.79688 21.429 8.17987 26.812 14.7969 26.812C21.4139 26.812 26.7969 21.429 26.7969 14.812C26.7969 8.19501 21.4139 2.81201 14.7969 2.81201Z" fill="#8471F4"/>
<path d="M14.7961 22.3651C10.6321 22.3651 7.24414 18.9771 7.24414 14.8121C7.24414 10.6481 10.6321 7.25903 14.7961 7.25903C18.9601 7.25903 22.3492 10.6471 22.3492 14.8121C22.3482 18.9771 18.9601 22.3651 14.7961 22.3651ZM14.7961 8.26007C11.1831 8.26007 8.24414 11.199 8.24414 14.813C8.24414 18.427 11.1841 21.3661 14.7961 21.3661C18.4091 21.3661 21.3492 18.427 21.3492 14.813C21.3492 11.199 18.4091 8.26007 14.7961 8.26007Z" fill="#8471F4"/>
<path d="M11.6094 21.4124L9.73633 26.3179L10.6705 26.6746L12.5436 21.7691L11.6094 21.4124Z" fill="#8471F4"/>
<path d="M18.6348 3.08149L16.8203 7.83374L17.7545 8.19044L19.569 3.43819L18.6348 3.08149Z" fill="#8471F4"/>
<path d="M17.9537 21.3414L17.0195 21.6982L18.9013 26.6252L19.8355 26.2684L17.9537 21.3414Z" fill="#8471F4"/>
<path d="M10.9694 3.06117L10.0352 3.41797L11.8506 8.17119L12.7848 7.81439L10.9694 3.06117Z" fill="#8471F4"/>
<path d="M3.51696 9.7284L3.16016 10.6626L7.84233 12.4509L8.19913 11.5167L3.51696 9.7284Z" fill="#8471F4"/>
<path d="M21.7923 16.702L21.4355 17.6362L26.1373 19.432L26.4941 18.4978L21.7923 16.702Z" fill="#8471F4"/>
<path d="M7.80392 16.6916L2.96289 18.54L3.31959 19.4742L8.16062 17.6258L7.80392 16.6916Z" fill="#8471F4"/>
<path d="M26.2 9.66602L21.3066 11.5344L21.6633 12.4686L26.5567 10.6002L26.2 9.66602Z" fill="#8471F4"/>
<path d="M16.7589 2.31201H15.7589V1.70001C15.7589 1.31401 15.4448 1 15.0588 1H14.6648C14.2788 1 13.9648 1.31401 13.9648 1.70001V2.31201H12.9648V1.70001C12.9648 0.763012 13.7278 0 14.6648 0H15.0588C15.9958 0 16.7589 0.763012 16.7589 1.70001V2.31201Z" fill="#8971D0"/>
<path d="M15.0588 29.7241H14.6648C13.7278 29.7241 12.9648 28.9611 12.9648 28.0241V27.4121H13.9648V28.0241C13.9648 28.4101 14.2788 28.7241 14.6648 28.7241H15.0588C15.4448 28.7241 15.7589 28.4101 15.7589 28.0241V27.4121H16.7589V28.0241C16.7589 28.9621 15.9968 29.7241 15.0588 29.7241Z" fill="#8971D0"/>
<path d="M28.0241 16.7601H27.4121V15.7601H28.0241C28.4101 15.7601 28.7241 15.4461 28.7241 15.0601V14.6661C28.7241 14.2801 28.4101 13.9661 28.0241 13.9661H27.4121V12.9661H28.0241C28.9611 12.9661 29.7241 13.7291 29.7241 14.6661V15.0601C29.7241 15.9971 28.9611 16.7601 28.0241 16.7601Z" fill="#8971D0"/>
<path d="M2.31201 16.7601H1.70001C0.763012 16.7601 0 15.9971 0 15.0601V14.6661C0 13.7291 0.763012 12.9661 1.70001 12.9661H2.31201V13.9661H1.70001C1.31401 13.9661 1 14.2801 1 14.6661V15.0601C1 15.4461 1.31401 15.7601 1.70001 15.7601H2.31201V16.7601Z" fill="#8971D0"/>
</svg>
