<svg width="20" height="26" viewBox="0 0 20 26" fill="none" xmlns="http://www.w3.org/2000/svg">
<path d="M19.21 22.401H17.19V18.222H15.69V22.401H3.59003C2.43803 22.401 1.5 21.464 1.5 20.311C1.5 20.112 1.53003 19.92 1.58203 19.738C1.58803 19.715 1.59499 19.692 1.60199 19.669C1.61899 19.616 1.638 19.564 1.659 19.513C1.662 19.507 1.66402 19.501 1.66602 19.495C1.87802 18.997 2.278 18.598 2.776 18.386C2.778 18.385 2.77998 18.385 2.78198 18.384C2.83698 18.361 2.89403 18.34 2.95203 18.322C2.96603 18.318 2.98002 18.313 2.99402 18.309C3.04102 18.295 3.08799 18.283 3.13599 18.272C3.15499 18.268 3.17399 18.264 3.19299 18.26C3.23899 18.251 3.28598 18.244 3.33398 18.239C3.35298 18.237 3.37199 18.234 3.39099 18.232C3.45699 18.226 3.52303 18.222 3.59003 18.222H6.08502C6.49902 18.222 6.83502 17.886 6.83502 17.472V16.722V0.750977C6.83502 0.336977 6.49902 0.000976562 6.08502 0.000976562H4.73602C2.17002 0.000976562 0.0820312 2.08897 0.0820312 4.65497V19.549C0.0290313 19.795 0 20.05 0 20.312C0 22.291 1.61003 23.902 3.59003 23.902H19.209C19.623 23.902 19.959 23.566 19.959 23.152C19.96 22.737 19.624 22.401 19.21 22.401Z" fill="#FFD550"/>
<path d="M19.21 0H6.08594C6.49994 0 6.83594 0.336 6.83594 0.75V17.471C6.83594 17.885 6.49994 18.221 6.08594 18.221H19.21C19.624 18.221 19.96 17.885 19.96 17.471V0.75C19.96 0.336 19.624 0 19.21 0Z" fill="#8471F4"/>
<path d="M3.59003 18.2219C3.52303 18.2219 3.45705 18.2259 3.39105 18.2319C3.37205 18.2339 3.35305 18.2369 3.33405 18.2389C3.28705 18.2449 3.24005 18.2509 3.19305 18.2599C3.17405 18.2639 3.15505 18.2679 3.13605 18.2719C3.08805 18.2829 3.04002 18.2949 2.99402 18.3089C2.98002 18.3129 2.96603 18.3169 2.95203 18.3219C2.89403 18.3409 2.83704 18.3609 2.78204 18.3839C2.78004 18.3849 2.778 18.3849 2.776 18.3859C2.278 18.5969 1.87802 18.9969 1.66602 19.4949C1.66302 19.5009 1.66106 19.5069 1.65906 19.5129C1.63806 19.5639 1.61905 19.6159 1.60205 19.6689C1.59505 19.6919 1.58803 19.7149 1.58203 19.7379C1.53003 19.9199 1.5 20.1119 1.5 20.3109C1.5 21.4629 2.43703 22.4009 3.59003 22.4009H15.69V18.2219H6.086H3.59003Z" fill="#FFFBE2"/>
<path d="M8.77106 19.9629H4.80408C4.49708 19.9629 4.24805 20.2119 4.24805 20.5189V24.9719C4.24805 25.1969 4.38306 25.3999 4.59106 25.4859C4.79906 25.5719 5.03808 25.5249 5.19708 25.3649L6.77209 23.7909L8.37805 25.3969C8.48405 25.5029 8.62706 25.5599 8.77106 25.5599C8.84306 25.5599 8.91507 25.5459 8.98407 25.5179C9.19207 25.4319 9.32709 25.2289 9.32709 25.0039V20.5199C9.32809 20.2119 9.07806 19.9629 8.77106 19.9629Z" fill="#8471F4"/>
</svg>
