<svg width="29" height="20" viewBox="0 0 29 20" fill="none" xmlns="http://www.w3.org/2000/svg">
<path d="M25.501 0H2.68799C1.20599 0 0 1.20599 0 2.68799V14.712C0 16.194 1.20599 17.4 2.68799 17.4H16.321C16.597 17.4 16.821 17.176 16.821 16.9V13.275H23.859V16.9C23.859 17.176 24.083 17.4 24.359 17.4H25.502C26.984 17.4 28.19 16.194 28.19 14.712V2.68799C28.189 1.20499 26.983 0 25.501 0Z" fill="#FFD550"/>
<path d="M24.3583 19.8479H16.3203C16.0443 19.8479 15.8203 19.6239 15.8203 19.3479V12.7739C15.8203 12.4979 16.0443 12.2739 16.3203 12.2739H24.3583C24.6343 12.2739 24.8583 12.4979 24.8583 12.7739V19.3479C24.8583 19.6239 24.6343 19.8479 24.3583 19.8479ZM16.8203 18.8479H23.8583V13.2739H16.8203V18.8479Z" fill="#2D2D2D"/>
<path d="M25.5014 0H21.3984C22.8804 0 24.0864 1.20599 24.0864 2.68799V14.712C24.0864 15.096 24.0044 15.462 23.8584 15.793V16.9C23.8584 17.176 24.0824 17.4 24.3584 17.4H25.5014C26.9834 17.4 28.1894 16.194 28.1894 14.712V2.68799C28.1894 1.20499 26.9834 0 25.5014 0Z" fill="#80D1ED"/>
<path d="M27.689 4.1311H0.5C0.224 4.1311 0 4.3551 0 4.6311V7.7691C0 8.0451 0.224 8.2691 0.5 8.2691H17.471C17.678 8.2691 17.864 8.14118 17.938 7.94818C18.224 7.20218 18.953 6.70013 19.752 6.70013H20.927C21.726 6.70013 22.455 7.20218 22.741 7.94818C22.815 8.14118 23.001 8.2691 23.208 8.2691H27.689C27.965 8.2691 28.189 8.0451 28.189 7.7691V4.6311C28.189 4.3551 27.965 4.1311 27.689 4.1311Z" fill="#8471F4"/>
<path d="M27.6889 4.1311H23.5859C23.8619 4.1311 24.0859 4.3551 24.0859 4.6311V7.7691C24.0859 8.0451 23.8619 8.2691 23.5859 8.2691H27.6889C27.9649 8.2691 28.1889 8.0451 28.1889 7.7691V4.6311C28.1889 4.3551 27.9649 4.1311 27.6889 4.1311Z" fill="#8471F4"/>
<path d="M23.3705 13.2739H17.3105C17.0345 13.2739 16.8105 13.0499 16.8105 12.7739V8.80298C16.8105 7.09198 18.2025 5.70093 19.9125 5.70093H20.7686C22.4786 5.70093 23.8705 7.09298 23.8705 8.80298V12.7739C23.8705 13.0499 23.6465 13.2739 23.3705 13.2739ZM17.8105 12.2739H22.8705V8.80298C22.8705 7.64398 21.9276 6.70093 20.7686 6.70093H19.9125C18.7535 6.70093 17.8105 7.64398 17.8105 8.80298V12.2739Z" fill="#8471F4"/>
<path d="M24.3583 12.2739H16.3203C16.0443 12.2739 15.8203 12.4979 15.8203 12.7739V19.3479C15.8203 19.6239 16.0443 19.8479 16.3203 19.8479H24.3583C24.6343 19.8479 24.8583 19.6239 24.8583 19.3479V12.7739C24.8583 12.4979 24.6343 12.2739 24.3583 12.2739Z" fill="#8471F4"/>
<path d="M24.3591 12.2739H22.1211C22.3971 12.2739 22.6211 12.4979 22.6211 12.7739V19.3479C22.6211 19.6239 22.3971 19.8479 22.1211 19.8479H24.3591C24.6351 19.8479 24.8591 19.6239 24.8591 19.3479V12.7739C24.8591 12.4979 24.6351 12.2739 24.3591 12.2739Z" fill="#8471F4"/>
<path d="M21.5919 15.3091C21.5919 14.6191 21.0299 14.0571 20.3399 14.0571C19.6489 14.0571 19.0879 14.6191 19.0879 15.3091C19.0879 15.8221 19.3979 16.2631 19.8399 16.4561V17.5481C19.8399 17.8241 20.0639 18.0481 20.3399 18.0481C20.6159 18.0481 20.8399 17.8241 20.8399 17.5481V16.4561C21.2819 16.2631 21.5919 15.8211 21.5919 15.3091ZM20.3399 15.0571C20.4789 15.0571 20.5919 15.1701 20.5919 15.3091C20.5919 15.4481 20.4789 15.561 20.3399 15.561C20.2009 15.561 20.0879 15.4481 20.0879 15.3091C20.0879 15.1701 20.2009 15.0571 20.3399 15.0571Z" fill="white"/>
<path d="M7.36716 10.4021C6.91716 10.4021 6.48017 10.542 6.11417 10.796C5.74817 10.542 5.31115 10.4021 4.86115 10.4021C3.64715 10.4021 2.66016 11.389 2.66016 12.603C2.66016 13.817 3.64814 14.8041 4.86115 14.8041C5.31115 14.8041 5.74817 14.664 6.11417 14.41C6.48017 14.664 6.91716 14.8041 7.36716 14.8041C8.58116 14.8041 9.56815 13.817 9.56815 12.603C9.56815 11.389 8.58116 10.4021 7.36716 10.4021Z" fill="#67C7BF"/>
<path d="M4.62234 10.796C4.84834 10.639 5.10135 10.526 5.36835 10.463C5.20335 10.424 5.03333 10.4031 4.86133 10.4031C4.59833 10.4031 4.34533 10.45 4.11133 10.535C4.29233 10.599 4.46434 10.686 4.62234 10.796Z" fill="#61BCB1"/>
<path d="M4.62234 14.4109C4.46434 14.5209 4.29133 14.608 4.11133 14.673C4.34533 14.758 4.59833 14.8049 4.86133 14.8049C5.03333 14.8049 5.20335 14.784 5.36835 14.745C5.10235 14.68 4.84834 14.5669 4.62234 14.4109Z" fill="#61BCB1"/>
<path d="M7.367 10.4021C7.112 10.4021 6.862 10.4491 6.625 10.5341C7.471 10.8411 8.07599 11.653 8.07599 12.603C8.07599 13.553 7.47 14.3651 6.625 14.6721C6.861 14.7571 7.112 14.8041 7.367 14.8041C8.581 14.8041 9.56799 13.817 9.56799 12.603C9.56799 11.389 8.581 10.4021 7.367 10.4021Z" fill="#61BCB1"/>
</svg>
