<svg width="27" height="27" viewBox="0 0 27 27" fill="none" xmlns="http://www.w3.org/2000/svg">
<path d="M2.42625 23.6393C-0.80875 20.4043 -0.80875 15.1103 2.42625 11.8753L11.8752 2.42625C15.1102 -0.80875 20.4042 -0.80875 23.6392 2.42625C26.8742 5.66125 26.8742 10.9553 23.6392 14.1903L14.1902 23.6393C10.9552 26.8743 5.66125 26.8743 2.42625 23.6393Z" fill="#8471F4"/>
<path d="M18.9144 18.9152L23.6384 14.1912C26.8734 10.9562 26.8734 5.66223 23.6384 2.42723C20.4034 -0.807773 15.1094 -0.807773 11.8744 2.42723L7.15039 7.15123L18.9144 18.9152Z" fill="#FFC853"/>
<path d="M8.34285 22.1504C7.91985 22.1504 7.49484 22.1024 7.07784 22.0054C6.52484 21.8764 6.22684 21.2734 6.46184 20.7564C6.63884 20.3664 7.06684 20.1543 7.48384 20.2523C8.73284 20.5463 10.0778 20.1854 11.0018 19.2614L12.2539 18.0094C12.6059 17.6574 13.1748 17.6574 13.5268 18.0094C13.8788 18.3614 13.8788 18.9304 13.5268 19.2824L12.2749 20.5344C11.2169 21.5894 9.78885 22.1504 8.34285 22.1504Z" fill="white"/>
<g opacity="0.1">
<path d="M26.0498 7.8103C26.0448 7.7253 26.0388 7.6403 26.0318 7.5553C26.0308 7.5403 26.0297 7.52525 26.0287 7.51025C26.0257 7.47725 26.0208 7.44425 26.0168 7.41125C26.0088 7.33325 25.9997 7.25628 25.9887 7.17828C25.9817 7.12828 25.9748 7.07826 25.9668 7.02826C25.9548 6.95226 25.9427 6.87727 25.9287 6.80127C25.9197 6.75127 25.9107 6.70128 25.9007 6.65228C25.8857 6.57528 25.8687 6.49928 25.8507 6.42328C25.8397 6.37628 25.8297 6.32825 25.8177 6.28125C25.7967 6.19825 25.7747 6.11626 25.7517 6.03326C25.7407 5.99326 25.7307 5.95431 25.7187 5.91431C25.6827 5.79331 25.6438 5.67231 25.6028 5.55231C25.5638 5.43831 25.5207 5.32629 25.4757 5.21429C25.4657 5.19029 25.4567 5.16625 25.4467 5.14325C25.4017 5.03425 25.3557 4.9263 25.3067 4.8183C25.2987 4.8003 25.2898 4.78226 25.2818 4.76526C25.2358 4.66726 25.1877 4.56929 25.1377 4.47229C25.1287 4.45429 25.1197 4.43725 25.1107 4.41925C25.0557 4.31425 24.9978 4.2103 24.9378 4.1073C24.9248 4.0843 24.9117 4.06228 24.8977 4.04028C24.8347 3.93528 24.7707 3.83029 24.7027 3.72729C24.3997 3.26629 24.0458 2.83029 23.6408 2.42529L2.42773 23.6383C2.83173 24.0423 3.26874 24.3963 3.72974 24.7003C4.65074 25.3073 5.66875 25.7113 6.71875 25.9133C7.24375 26.0143 7.77675 26.0653 8.30975 26.0653C8.44275 26.0653 8.57575 26.0623 8.70975 26.0563C8.84275 26.0503 8.97573 26.0403 9.10873 26.0283C9.50673 25.9903 9.90276 25.9243 10.2938 25.8293C10.6838 25.7343 11.0687 25.6113 11.4447 25.4593C12.0327 25.2223 12.5977 24.9133 13.1277 24.5363C13.1877 24.4933 13.2477 24.4502 13.3067 24.4062C13.4877 24.2702 13.6657 24.1253 13.8377 23.9723C13.9587 23.8653 14.0767 23.7553 14.1927 23.6393L18.9167 18.9153L23.6408 14.1913C23.7308 14.1013 23.8177 14.0083 23.9027 13.9153C23.9207 13.8953 23.9388 13.8753 23.9568 13.8553C24.0388 13.7633 24.1188 13.6703 24.1958 13.5763C24.2088 13.5603 24.2217 13.5443 24.2337 13.5283C24.3037 13.4413 24.3718 13.3533 24.4378 13.2643C24.4498 13.2483 24.4628 13.2313 24.4748 13.2153C24.5458 13.1173 24.6148 13.0183 24.6808 12.9183C24.6958 12.8963 24.7097 12.8743 24.7237 12.8523C24.7907 12.7493 24.8558 12.6463 24.9178 12.5403C24.9818 12.4313 25.0417 12.3213 25.1007 12.2113C25.1087 12.1963 25.1167 12.1823 25.1247 12.1673C25.1797 12.0613 25.2318 11.9553 25.2818 11.8473C25.2908 11.8283 25.2997 11.8083 25.3087 11.7893C25.3577 11.6823 25.4038 11.5753 25.4488 11.4663C25.4568 11.4483 25.4637 11.4293 25.4707 11.4113C25.5157 11.2993 25.5577 11.1873 25.5977 11.0743C25.6017 11.0643 25.6048 11.0543 25.6078 11.0443C25.6468 10.9313 25.6838 10.8173 25.7168 10.7033C25.7198 10.6933 25.7227 10.6833 25.7257 10.6733C25.7597 10.5583 25.7898 10.4433 25.8188 10.3273C25.8218 10.3163 25.8247 10.3053 25.8277 10.2933C25.8297 10.2853 25.8307 10.2773 25.8327 10.2703C25.8597 10.1573 25.8848 10.0443 25.9068 9.9303C25.9108 9.9093 25.9147 9.88929 25.9187 9.86829C25.9407 9.75329 25.9598 9.63828 25.9768 9.52228C25.9788 9.50628 25.9807 9.4903 25.9837 9.4743C26.0007 9.3523 26.0157 9.23028 26.0277 9.10828C26.0527 8.84328 26.0658 8.57627 26.0658 8.30927C26.0658 8.18327 26.0627 8.05825 26.0567 7.93225C26.0557 7.89125 26.0518 7.8503 26.0498 7.8103Z" fill="black"/>
</g>
</svg>
