<svg width="26" height="26" viewBox="0 0 26 26" fill="none" xmlns="http://www.w3.org/2000/svg">
<path d="M3.3005 25.1604L0.5715 22.4314C-0.1905 21.6694 -0.1905 20.4233 0.5715 19.6613C1.3335 18.8993 2.57952 18.8993 3.34152 19.6613L6.07052 22.3903C6.83252 23.1523 6.83252 24.3994 6.07052 25.1604C5.30852 25.9224 4.0625 25.9224 3.3005 25.1604Z" fill="#8471F4"/>
<path d="M3.92169 18.7493C3.66369 19.0433 3.50169 19.3893 3.42969 19.7483L5.9837 22.3022C6.3427 22.2302 6.68867 22.0683 6.98267 21.8103L19.0197 11.2733C19.0557 11.2413 19.0907 11.2093 19.1247 11.1753L25.0967 5.20324C25.9437 4.35624 25.9437 2.98225 25.0967 2.13525L23.5967 0.63525C22.7497 -0.21175 21.3757 -0.21175 20.5287 0.63525L14.6097 6.55432C14.5757 6.58832 14.5437 6.6233 14.5117 6.6593L3.92169 18.7493Z" fill="#8471F4"/>
<path d="M8.80774 13.1694L3.91974 18.7494C3.66174 19.0434 3.49973 19.3894 3.42773 19.7484L5.98169 22.3024C6.34069 22.2304 6.68671 22.0684 6.98071 21.8104L12.5627 16.9233L8.80774 13.1694Z" fill="#A792FC"/>
<path d="M19.3975 4.92322C19.3975 6.90222 17.7934 8.50623 15.8154 8.50623C13.8364 8.50623 12.2324 6.90222 12.2324 4.92322C12.2324 2.94422 13.8364 1.34131 15.8154 1.34131C17.7934 1.34131 19.3975 2.94522 19.3975 4.92322Z" fill="#FFD550"/>
<g opacity="0.15">
<path d="M24.4565 1.49512L1.89453 23.7551L3.2995 25.1602C4.0615 25.9222 5.30752 25.9222 6.06952 25.1602C6.83152 24.3982 6.83152 23.1521 6.06952 22.3901L5.98248 22.3021C6.34148 22.2301 6.68751 22.0682 6.98151 21.8102L12.5635 16.9231L19.0185 11.2721C19.0545 11.2411 19.0895 11.2082 19.1235 11.1742L25.0955 5.20215C25.9425 4.35515 25.9425 2.98116 25.0955 2.13416L24.4565 1.49512Z" fill="#FFD550"/>
</g>
</svg>
