<svg width="28" height="28" viewBox="0 0 28 28" fill="none" xmlns="http://www.w3.org/2000/svg">
<path d="M24.0482 13.0068C20.5602 16.4958 15.5072 17.0978 12.7622 14.3538C10.0172 11.6088 10.6203 6.55682 14.1093 3.06782C17.5983 -0.42118 22.6502 -1.02323 25.3952 1.72077C28.1392 4.46577 27.5362 9.51879 24.0482 13.0068Z" fill="#A792FC"/>
<path d="M12.7633 14.3539C11.8123 13.4029 11.2634 12.1739 11.0974 10.8289L7.44531 17.1829L9.81531 19.5529L16.2143 16.0109C14.8993 15.8339 13.6973 15.2879 12.7633 14.3539Z" fill="#FFD550"/>
<path d="M9.81577 19.5527L7.51474 17.2517L0.42075 24.3457C-0.14025 24.9067 -0.14025 25.8257 0.42075 26.3867L0.730748 26.6968C1.29175 27.2578 2.21076 27.2578 2.77176 26.6968L10.0398 19.4287L9.81577 19.5527Z" fill="#A792FC"/>
<g opacity="0.15">
<path d="M24.983 1.35083L0.542969 26.4799L0.746948 26.6848C1.32095 27.2618 2.25998 27.2618 2.83398 26.6848L10.0549 19.4209L16.215 16.0109C18.766 16.3539 21.748 15.3088 24.049 13.0078C27.537 9.51981 28.1399 4.46692 25.3959 1.72192C25.2639 1.58892 25.125 1.46783 24.983 1.35083Z" fill="#231F20"/>
</g>
</svg>
