<svg width="41" height="41" viewBox="0 0 41 41" fill="none" xmlns="http://www.w3.org/2000/svg">
<path d="M30.0079 30.0078C35.5322 24.4835 35.5322 15.5268 30.0079 10.0025C24.4836 4.47819 15.5269 4.47819 10.0026 10.0025C4.47833 15.5268 4.47833 24.4835 10.0026 30.0078C15.5269 35.5321 24.4836 35.5321 30.0079 30.0078Z" fill="#8471F4"/>
<path d="M19.6746 30.9392C14.9476 30.9392 11.1016 27.0932 11.1016 22.3662H12.6335C12.6335 26.2492 15.7925 29.4082 19.6755 29.4082C20.9685 29.4082 22.2315 29.0552 23.3295 28.3872L24.1255 29.6962C22.7865 30.5082 21.2486 30.9392 19.6746 30.9392Z" fill="white"/>
<path d="M22.9618 17.5971C23.4938 18.2741 23.3758 19.2531 22.6988 19.7851C22.0218 20.3171 21.0428 20.1991 20.5108 19.5221C19.9788 18.8451 20.0968 17.8661 20.7738 17.3341C21.4508 16.8031 22.4298 16.9201 22.9618 17.5971Z" fill="#FFD550"/>
<path d="M27.5067 13.0531C28.0387 13.7301 27.9207 14.7092 27.2437 15.2412C26.5667 15.7732 25.5877 15.6552 25.0557 14.9782C24.5237 14.3012 24.6417 13.3221 25.3187 12.7901C25.9957 12.2581 26.9747 12.3761 27.5067 13.0531Z" fill="#FFD550"/>
<path d="M21.5067 11.9062C22.0387 12.5832 21.9207 13.5622 21.2437 14.0942C20.5667 14.6262 19.5877 14.5082 19.0557 13.8312C18.5237 13.1542 18.6417 12.1752 19.3187 11.6432C19.9957 11.1122 20.9747 11.2292 21.5067 11.9062Z" fill="#FFD550"/>
<g opacity="0.15">
<path d="M20.017 5.86035C19.998 5.86035 19.978 5.86139 19.959 5.86139V34.1523C19.978 34.1523 19.997 34.1534 20.017 34.1534C27.83 34.1534 34.163 27.8204 34.163 20.0074C34.163 12.1944 27.83 5.86035 20.017 5.86035Z" fill="#FFD550"/>
</g>
</svg>
