<svg width="22" height="30" viewBox="0 0 22 30" fill="none" xmlns="http://www.w3.org/2000/svg">
<path d="M10.5988 13.2011C7.35485 13.2011 4.71484 10.5621 4.71484 7.31812C4.71484 4.07412 7.35385 1.43506 10.5988 1.43506C13.8428 1.43506 16.4818 4.07412 16.4818 7.31812C16.4818 10.5621 13.8428 13.2011 10.5988 13.2011Z" fill="#FFC853"/>
<g opacity="0.1">
<path d="M10.6133 1.43408V13.2001C13.8513 13.1931 16.4833 10.5571 16.4833 7.31708C16.4833 4.07708 13.8513 1.44208 10.6133 1.43408Z" fill="black"/>
</g>
<path d="M6.65304 8.01404L5.88205 3.54303C5.73505 2.69203 5.97603 1.81802 6.54303 1.14502C7.15603 0.41802 8.07002 0 9.05102 0H12.15C13.131 0 14.045 0.41702 14.658 1.14502C15.225 1.81802 15.465 2.69203 15.319 3.54303L14.551 7.99701L13.642 7.81201C12.743 7.62901 11.702 7.53204 10.631 7.53204C9.53804 7.53204 8.47804 7.63304 7.56604 7.82404L6.65304 8.01404Z" fill="#8471F4"/>
<path d="M12.2205 2.96198H11.5005V2.24194H9.70047V2.96198H8.98047V4.76196H9.70047V5.48199H11.5005V4.76196H12.2205V2.96198Z" fill="white"/>
<path d="M19.7587 17.085C18.5217 15.132 16.6257 13.712 14.4187 13.087C14.1207 13.003 13.7987 13.078 13.5697 13.286C13.1857 13.633 12.8097 14.159 12.4127 14.716C11.9737 15.331 11.0597 16.609 10.6017 16.609C10.1437 16.609 9.22968 15.33 8.79068 14.716C8.39268 14.159 8.01666 13.633 7.63366 13.286C7.40366 13.078 7.08266 13.003 6.78466 13.087C4.57866 13.712 2.68167 15.132 1.44467 17.085C0.183668 19.077 -0.273312 21.454 0.158688 23.78C0.809688 27.285 3.86969 29.829 7.43469 29.829H13.7707C17.3357 29.829 20.3957 27.285 21.0467 23.78C21.4767 21.455 21.0197 19.077 19.7587 17.085Z" fill="#68B8BC"/>
<g opacity="0.1">
<path d="M14.4182 13.087C14.1202 13.003 13.7982 13.078 13.5692 13.286C13.1852 13.633 12.8092 14.159 12.4122 14.716C11.9772 15.325 11.0772 16.584 10.6152 16.608V29.829H13.7692C17.3342 29.829 20.3942 27.285 21.0452 23.78C21.4772 21.455 21.0202 19.077 19.7592 17.086C18.5202 15.132 16.6242 13.712 14.4182 13.087Z" fill="black"/>
</g>
</svg>
