<svg width="30" height="23" viewBox="0 0 30 23" fill="none" xmlns="http://www.w3.org/2000/svg">
<path d="M27.6311 9.073L26.6801 8.56897C25.3201 7.84797 23.6371 8.51499 23.1401 9.97199L20.6191 17.362H22.4501C23.2781 17.362 24.0081 17.774 24.4501 18.404L28.4961 12.737C29.3751 11.506 28.9691 9.781 27.6311 9.073Z" fill="#F0EEE6"/>
<path d="M24.4498 18.9041H24.4478C24.2858 18.9031 24.1338 18.8241 24.0408 18.6911C23.6768 18.1721 23.0828 17.8621 22.4508 17.8621H20.6198C20.4588 17.8621 20.3068 17.7841 20.2128 17.6531C20.1188 17.5221 20.0938 17.3531 20.1458 17.2011L22.6668 9.81111C22.9508 8.97811 23.5838 8.31409 24.4018 7.98909C25.2208 7.66509 26.1358 7.71509 26.9138 8.12709L27.8648 8.63112C28.6298 9.03612 29.1818 9.75213 29.3808 10.5941C29.5798 11.4361 29.4048 12.3231 28.9018 13.0281L24.8558 18.6951C24.7628 18.8261 24.6118 18.9041 24.4498 18.9041ZM21.3178 16.8621H22.4498C23.1768 16.8621 23.8708 17.1321 24.4038 17.6061L28.0878 12.4461C28.4238 11.9761 28.5398 11.3851 28.4068 10.8231C28.2738 10.2611 27.9058 9.78411 27.3958 9.51411L26.4448 9.01008C25.9258 8.73508 25.3158 8.7011 24.7698 8.9181C24.2238 9.1341 23.8018 9.57713 23.6128 10.1331L21.3178 16.8621Z" fill="#F0EEE6"/>
<path d="M24.0903 7.18693C24.5153 5.93993 23.7553 4.60194 22.4663 4.32994L20.7393 3.96495C19.4643 3.69595 18.2373 4.58893 18.1013 5.88493L16.9023 17.362H20.6193L24.0903 7.18693Z" fill="#F993DF"/>
<path d="M20.6202 17.862H16.9032C16.7612 17.862 16.6262 17.802 16.5312 17.697C16.4362 17.592 16.3901 17.451 16.4051 17.31L17.6042 5.83296C17.6832 5.07496 18.0822 4.38197 18.6982 3.93397C19.3142 3.48497 20.0962 3.31797 20.8412 3.47597L22.5691 3.84096C23.3231 3.99996 23.9741 4.47601 24.3551 5.14601C24.7361 5.81601 24.8122 6.61901 24.5632 7.34901L21.0921 17.524C21.0241 17.726 20.8342 17.862 20.6202 17.862ZM17.4582 16.862H20.2621L23.6181 7.02601C23.7751 6.56701 23.7272 6.06197 23.4872 5.63997C23.2472 5.21797 22.8381 4.91898 22.3631 4.81898L20.6352 4.45399C20.1592 4.35299 19.6802 4.45596 19.2872 4.74196C18.8942 5.02796 18.6491 5.45296 18.5981 5.93696L17.4582 16.862Z" fill="#F993DF"/>
<path d="M7.00999 17.362H8.84098L6.31998 9.97199C5.82298 8.51499 4.14 7.84797 2.78 8.56897L1.82902 9.073C0.492016 9.782 0.0849649 11.506 0.963965 12.738L5.00999 18.405C5.45199 17.774 6.18299 17.362 7.00999 17.362Z" fill="#F0EEE6"/>
<path d="M5.01183 18.9041C4.85083 18.9041 4.69884 18.826 4.60484 18.695L0.558823 13.028C0.0558232 12.324 -0.11812 11.4371 0.0798804 10.5941C0.27888 9.75206 0.830872 9.03604 1.59587 8.63104L2.54588 8.12701C3.32388 7.71501 4.23885 7.66401 5.05785 7.98901C5.87585 8.31301 6.50883 8.97704 6.79283 9.81104L9.31487 17.2011C9.36687 17.3541 9.34185 17.522 9.24785 17.653C9.15385 17.784 9.00287 17.8621 8.84087 17.8621H7.00987C6.37787 17.8621 5.78385 18.172 5.41985 18.691C5.32685 18.824 5.17486 18.9031 5.01286 18.9041H5.01183ZM3.95183 8.77704C3.62883 8.77704 3.30688 8.85501 3.01488 9.01001L2.06383 9.51404C1.55383 9.78404 1.18584 10.2621 1.05284 10.8231C0.919842 11.3851 1.03687 11.976 1.37187 12.446L5.05583 17.606C5.58883 17.132 6.28287 16.8621 7.00987 16.8621H8.14183L5.84587 10.1331C5.65587 9.57706 5.23483 9.13503 4.68883 8.91803C4.45183 8.82403 4.20183 8.77704 3.95183 8.77704Z" fill="#F0EEE6"/>
<path d="M8.84272 17.3622H12.5498L11.3507 5.88716C11.2157 4.59116 9.98772 3.69718 8.71272 3.96718L6.99476 4.33016C5.70576 4.60216 4.94474 5.94015 5.37074 7.18715L8.84272 17.3622Z" fill="#F993DF"/>
<path d="M12.5491 17.8621H8.8421C8.6281 17.8621 8.43814 17.7261 8.36914 17.5231L4.89813 7.34809C4.64913 6.61809 4.72514 5.81609 5.10614 5.14509C5.48714 4.47509 6.13809 3.99909 6.89209 3.84009L8.6101 3.47712C9.3561 3.32012 10.1371 3.48712 10.7541 3.93512C11.3701 4.38412 11.7691 5.07611 11.8491 5.83411L13.0481 17.3091C13.0631 17.4501 13.0171 17.5901 12.9221 17.6961C12.8261 17.8021 12.6911 17.8621 12.5491 17.8621ZM9.20013 16.8621H11.9941L10.8531 5.93909C10.8021 5.45509 10.5581 5.03108 10.1641 4.74408C9.77112 4.45808 9.2921 4.35512 8.8161 4.45612L7.09808 4.8191C6.62408 4.9191 6.21412 5.21808 5.97412 5.64008C5.73412 6.06208 5.68713 6.56713 5.84313 7.02613L9.20013 16.8621Z" fill="#F993DF"/>
<path d="M12.5494 17.3621H16.9034L18.3733 3.29102C18.5293 1.79902 17.3583 0.499023 15.8583 0.499023H13.5953C12.0943 0.499023 10.9244 1.79802 11.0804 3.29102L12.5494 17.3621Z" fill="#F0EEE6"/>
<path d="M16.9038 17.862H12.5498C12.2938 17.862 12.0788 17.669 12.0528 17.414L10.5827 3.34296C10.4937 2.49096 10.7717 1.63698 11.3447 1.00098C11.9177 0.364977 12.7387 0 13.5947 0H15.8577C16.7147 0 17.5347 0.364977 18.1077 1.00098C18.6807 1.63698 18.9588 2.49096 18.8698 3.34296L17.3997 17.414C17.3747 17.669 17.1598 17.862 16.9038 17.862ZM13.0008 16.862H16.4538L17.8767 3.23895C17.9367 2.66795 17.7507 2.09598 17.3657 1.66998C16.9817 1.24398 16.4317 0.998962 15.8587 0.998962H13.5957C13.0217 0.998962 12.4728 1.24398 12.0888 1.66998C11.7048 2.09598 11.5187 2.66795 11.5777 3.23895L13.0008 16.862Z" fill="#F0EEE6"/>
<path d="M22.4523 22.2431H7.01324C5.66524 22.2431 4.57227 21.1501 4.57227 19.8021C4.57227 18.4541 5.66524 17.3611 7.01324 17.3611H22.4523C23.8003 17.3611 24.8932 18.4541 24.8932 19.8021C24.8922 21.1501 23.7993 22.2431 22.4523 22.2431Z" fill="#8971D0"/>
<path d="M22.4523 22.7431H7.01324C5.39124 22.7431 4.07227 21.4241 4.07227 19.8021C4.07227 18.1811 5.39124 16.8611 7.01324 16.8611H22.4523C24.0733 16.8611 25.3932 18.1801 25.3932 19.8021C25.3922 21.4241 24.0733 22.7431 22.4523 22.7431ZM7.01227 17.8621C5.94227 17.8621 5.07129 18.7321 5.07129 19.8031C5.07129 20.8731 5.94227 21.7441 7.01227 21.7441H22.4513C23.5213 21.7441 24.3923 20.8741 24.3923 19.8031C24.3923 18.7331 23.5213 17.8621 22.4513 17.8621H7.01227Z" fill="#8971D0"/>
</svg>
