<svg width="22" height="30" viewBox="0 0 22 30" fill="none" xmlns="http://www.w3.org/2000/svg">
<path d="M11.504 0H2.216C0.994003 0 0 0.994003 0 2.216V15.545C0 16.456 0.545991 17.263 1.39099 17.602L4.224 18.737C4.219 18.301 4.37401 17.875 4.66501 17.544C5.00101 17.162 5.487 16.942 5.996 16.942H7.72299C8.23199 16.942 8.71799 17.161 9.05399 17.544C9.34499 17.875 9.5 18.301 9.495 18.737L12.328 17.602C13.173 17.263 13.719 16.456 13.719 15.545V2.216C13.719 0.994003 12.725 0 11.504 0Z" fill="#8471F4"/>
<path d="M9.93515 8.72308H7.76016V6.54907H5.96014V8.72308H3.78516V10.5231H5.96014V12.6981H7.76016V10.5231H9.93515V8.72308Z" fill="white"/>
<path d="M7.62708 21.2399H6.09409C5.20509 21.2399 4.4491 20.5749 4.3361 19.6929L4.23908 18.939C4.17408 18.434 4.33008 17.9249 4.66608 17.5419C5.00208 17.1599 5.48811 16.9399 5.99711 16.9399H7.7241C8.2331 16.9399 8.71909 17.1589 9.05509 17.5419C9.39109 17.9249 9.54709 18.434 9.48209 18.939L9.38511 19.6929C9.27111 20.5749 8.51608 21.2399 7.62708 21.2399Z" fill="#68B8BC"/>
<path d="M17.1769 17.594C14.7839 17.594 12.838 19.54 12.838 21.933V25.334C12.838 26.734 11.699 27.873 10.299 27.873C8.89895 27.873 7.75995 26.734 7.75995 25.334V21.235C7.71595 21.238 7.67192 21.241 7.62692 21.241H6.09393C6.04893 21.241 6.00494 21.238 5.96094 21.235V25.334C5.96094 27.727 7.90793 29.673 10.2999 29.673C12.6929 29.673 14.6389 27.727 14.6389 25.334V21.933C14.6389 20.533 15.7779 19.394 17.1779 19.394C18.5779 19.394 19.7169 20.533 19.7169 21.933V23.634H21.5169V21.933C21.5159 19.54 19.5699 17.594 17.1769 17.594Z" fill="#FFC853"/>
<g opacity="0.1">
<path d="M17.1764 17.594C14.7834 17.594 12.8374 19.54 12.8374 21.933V25.334C12.8374 26.734 11.6984 27.873 10.2984 27.873C8.8984 27.873 7.7594 26.734 7.7594 25.334V21.235C8.5894 21.172 9.2764 20.532 9.3844 19.695L9.48138 18.941C9.49038 18.873 9.49439 18.805 9.49539 18.737L12.3284 17.602C13.1734 17.263 13.7194 16.456 13.7194 15.545V2.216C13.7194 0.994003 12.7254 0 11.5034 0H6.85938V27.975C7.65338 29.006 8.8994 29.673 10.2984 29.673C12.6914 29.673 14.6374 27.727 14.6374 25.334V21.933C14.6374 20.533 15.7764 19.394 17.1764 19.394C18.5764 19.394 19.7154 20.533 19.7154 21.933V23.634H21.5154V21.933C21.5154 19.54 19.5694 17.594 17.1764 17.594Z" fill="black"/>
</g>
</svg>
