<svg width="22" height="31" viewBox="0 0 22 31" fill="none" xmlns="http://www.w3.org/2000/svg">
<path d="M3.2533 30.354C2.2343 30.354 1.4043 29.525 1.4043 28.505C1.4043 27.485 2.2333 26.656 3.2533 26.656C4.2723 26.656 5.10126 27.485 5.10126 28.505C5.10126 29.525 4.2723 30.354 3.2533 30.354ZM3.2533 27.657C2.7853 27.657 2.4043 28.038 2.4043 28.506C2.4043 28.974 2.7853 29.355 3.2533 29.355C3.7213 29.355 4.10126 28.974 4.10126 28.506C4.10126 28.038 3.7213 27.657 3.2533 27.657Z" fill="#4D606E"/>
<path d="M18.4252 30.354C17.4062 30.354 16.5762 29.525 16.5762 28.505C16.5762 27.485 17.4052 26.656 18.4252 26.656C19.4442 26.656 20.2742 27.485 20.2742 28.505C20.2742 29.525 19.4442 30.354 18.4252 30.354ZM18.4252 27.657C17.9572 27.657 17.5762 28.038 17.5762 28.506C17.5762 28.974 17.9572 29.355 18.4252 29.355C18.8932 29.355 19.2742 28.974 19.2742 28.506C19.2742 28.038 18.8932 27.657 18.4252 27.657Z" fill="#4D606E"/>
<path d="M21.177 23.704H0.5C0.224 23.704 0 23.48 0 23.204V13.3671C0 7.39007 4.86199 2.52808 10.839 2.52808C16.816 2.52808 21.678 7.39007 21.678 13.3671V23.204C21.677 23.48 21.453 23.704 21.177 23.704ZM0.998962 22.704H20.676V13.3671C20.676 7.94207 16.262 3.52808 10.837 3.52808C5.41197 3.52808 0.997986 7.94207 0.997986 13.3671L0.998962 22.704Z" fill="#D3D4D8"/>
<path d="M10.8384 3.46198C9.88344 3.46198 9.10742 2.68502 9.10742 1.73102C9.10742 0.776018 9.88344 0 10.8384 0C11.7934 0 12.5694 0.777018 12.5694 1.73102C12.5694 2.68602 11.7924 3.46198 10.8384 3.46198ZM10.8384 1C10.4354 1 10.1074 1.32802 10.1074 1.73102C10.1074 2.13402 10.4354 2.46198 10.8384 2.46198C11.2414 2.46198 11.5694 2.13402 11.5694 1.73102C11.5694 1.32802 11.2414 1 10.8384 1Z" fill="#8971D0"/>
<path d="M21.175 23.2041H0.498047V26.6791H21.175V23.2041Z" fill="#8971D0"/>
<path d="M21.177 27.1791H0.5C0.224 27.1791 0 26.9551 0 26.6791V23.2041C0 22.9281 0.224 22.7041 0.5 22.7041H21.177C21.453 22.7041 21.677 22.9281 21.677 23.2041V26.6791C21.677 26.9551 21.453 27.1791 21.177 27.1791ZM0.998962 26.1791H20.676V23.7041H0.998962V26.1791Z" fill="#8971D0"/>
<path d="M17.7385 12.4341H3.72852V22.1871H17.7385V12.4341Z" fill="#FFD550"/>
<path d="M17.7385 22.6871H3.72852C3.45252 22.6871 3.22852 22.4631 3.22852 22.1871V12.4341C3.22852 12.1581 3.45252 11.9341 3.72852 11.9341H17.7385C18.0145 11.9341 18.2385 12.1581 18.2385 12.4341V22.1871C18.2385 22.4641 18.0145 22.6871 17.7385 22.6871ZM4.22852 21.6871H17.2385V12.9341H4.22852V21.6871Z" fill="#FFD550"/>
<path d="M15.7159 12.4341H5.96289V22.1871H15.7159V12.4341Z" fill="#3FBAC2"/>
<path d="M15.7159 22.6871H5.96289C5.68689 22.6871 5.46289 22.4631 5.46289 22.1871V12.4341C5.46289 12.1581 5.68689 11.9341 5.96289 11.9341H15.7159C15.9919 11.9341 16.2159 12.1581 16.2159 12.4341V22.1871C16.2159 22.4641 15.9929 22.6871 15.7159 22.6871ZM6.46387 21.6871H15.2169V12.9341H6.46387V21.6871Z" fill="#3FBAC2"/>
<path d="M13.2271 12.9341H8.45312C8.17713 12.9341 7.95312 12.7101 7.95312 12.4341V10.1721C7.95312 9.89612 8.17713 9.67212 8.45312 9.67212H13.2271C13.5031 9.67212 13.7271 9.89612 13.7271 10.1721V12.4341C13.7271 12.7101 13.5031 12.9341 13.2271 12.9341ZM8.95312 11.9341H12.7271V10.6721H8.95312V11.9341Z" fill="#FFD550"/>
</svg>
