<svg width="27" height="19" viewBox="0 0 27 19" fill="none" xmlns="http://www.w3.org/2000/svg">
<path d="M24.1749 4.94775C23.5139 4.94775 22.8929 4.69077 22.4249 4.22277C21.4599 3.25777 21.4599 1.68775 22.4249 0.72375C23.3899 -0.24125 24.9589 -0.24125 25.9239 0.72375C26.3909 1.19075 26.6489 1.81275 26.6489 2.47375C26.6489 3.13475 26.3909 3.75575 25.9239 4.22375C25.4569 4.69075 24.8359 4.94775 24.1749 4.94775ZM24.1749 1.49975C23.9249 1.49975 23.676 1.59479 23.486 1.78479C23.106 2.16479 23.106 2.78284 23.486 3.16284C23.67 3.34684 23.9149 3.44775 24.1749 3.44775C24.4349 3.44775 24.6799 3.34684 24.8639 3.16284C25.0479 2.97884 25.15 2.73375 25.15 2.47375C25.15 2.21375 25.0489 1.96879 24.8639 1.78479C24.6739 1.59479 24.4239 1.49975 24.1749 1.49975Z" fill="#FFD550"/>
<path d="M11.686 3.158C11.603 3.241 10.875 3.97891 9.80701 5.06291L11.031 6.28691L9.90802 7.40996L7.99103 6.9069C4.24403 10.7119 0 15.539 0 15.539L1.98901 18.2699L10.414 13.038C10.758 13.625 11.182 14.1789 11.685 14.6819C14.867 17.8639 20.026 17.8639 23.209 14.6819C26.391 11.4999 26.391 6.34 23.209 3.158C20.027 -0.0249982 14.868 -0.0249982 11.686 3.158Z" fill="#8471F4"/>
<path d="M17.4343 14.3599C16.8223 14.3599 16.2063 14.2569 15.6133 14.0459L16.1173 12.6329C17.5473 13.1439 19.1633 12.7799 20.2353 11.7079C21.2013 10.7419 21.5953 9.36987 21.2913 8.03687L22.7533 7.70288C23.1733 9.54188 22.6283 11.4359 21.2963 12.7689C20.2613 13.8039 18.8583 14.3599 17.4343 14.3599Z" fill="white"/>
<g opacity="0.15">
<path d="M25.7951 0.607666L24.5801 1.58862C24.6821 1.63562 24.7781 1.69969 24.8621 1.78369C25.0461 1.96769 25.1481 2.21266 25.1481 2.47266C25.1481 2.73266 25.0471 2.97762 24.8621 3.16162C24.6781 3.34562 24.4331 3.44666 24.1731 3.44666C23.9131 3.44666 23.6681 3.34562 23.4841 3.16162C23.3481 3.02562 23.2621 2.85969 23.2231 2.68469L10.4141 13.0356C10.7581 13.6226 11.1821 14.1767 11.6851 14.6797C14.8671 17.8617 20.0261 17.8617 23.2091 14.6797C25.8541 12.0347 26.2981 8.0247 24.5461 4.9187C25.0651 4.8407 25.5441 4.59968 25.9221 4.22168C26.3891 3.75468 26.6471 3.13268 26.6471 2.47168C26.6471 1.81068 26.3891 1.18968 25.9221 0.72168C25.8821 0.68268 25.8381 0.645666 25.7951 0.607666Z" fill="#231F20"/>
</g>
</svg>
