<svg width="8" height="16" viewBox="0 0 8 16" fill="none" xmlns="http://www.w3.org/2000/svg">
<path d="M7.47699 5.22607C7.41899 5.02507 7.24202 4.88011 7.03302 4.86511C6.82402 4.85011 6.62802 4.96607 6.54102 5.15607C6.17602 5.95607 5.71402 6.72908 5.32202 7.33008C4.93702 3.98108 3.13299 1.60211 1.58099 0.136107C1.48599 0.0461074 1.35503 -0.00193999 1.22803 6.0008e-05H1.20001C0.978012 0.00306001 0.790004 0.152055 0.729004 0.357055C2.163 2.31205 3.01001 4.72411 3.01001 7.33411C3.01001 10.3601 1.872 13.1201 0 15.2091C0.417 15.3081 0.848001 15.3601 1.289 15.3601C4.888 15.3601 7.81604 11.9151 7.81604 7.67908C7.81704 6.84108 7.70199 6.01507 7.47699 5.22607Z" fill="#8471F4"/>
</svg>
