<svg width="18" height="27" viewBox="0 0 18 27" fill="none" xmlns="http://www.w3.org/2000/svg">
<path d="M17.444 22.4651H0V26.8601H17.444V22.4651Z" fill="#FFD550"/>
<path d="M8.7226 8.16101C10.9759 8.16101 12.8026 6.33432 12.8026 4.08099C12.8026 1.82767 10.9759 0.000976562 8.7226 0.000976562C6.46927 0.000976562 4.64258 1.82767 4.64258 4.08099C4.64258 6.33432 6.46927 8.16101 8.7226 8.16101Z" fill="#FFD550"/>
<path d="M11.139 7.36694C10.462 7.86494 9.62705 8.15991 8.72205 8.15991C7.81705 8.15991 6.98205 7.86494 6.30505 7.36694C5.96305 11.0849 4.71902 17.6319 0.291016 22.4649H4.79004H12.6541H17.153C12.725 17.6319 11.481 11.0849 11.139 7.36694Z" fill="#A792FC"/>
<path d="M14.6274 9.82007H2.81641V11.3201H14.6274V9.82007Z" fill="#FFD550"/>
<g opacity="0.15">
<path d="M17.1544 22.465C14.0434 19.07 12.5053 14.831 11.7463 11.32H14.6284V9.82001H11.4584C11.3074 8.91801 11.2064 8.089 11.1404 7.367C12.1484 6.624 12.8033 5.42896 12.8033 4.07996C12.8033 1.82696 10.9763 0 8.72333 0C8.55733 0 8.39437 0.0109683 8.23438 0.0299683V26.86H17.4454V22.465H17.1544Z" fill="#231F20"/>
</g>
</svg>
