<svg width="25" height="26" viewBox="0 0 25 26" fill="none" xmlns="http://www.w3.org/2000/svg">
<path d="M23.9465 13.259C23.6705 13.259 23.4465 13.035 23.4465 12.759V6.151C23.4465 3.311 21.1355 1 18.2955 1C15.4555 1 13.1445 3.311 13.1445 6.151V12.759C13.1445 13.035 12.9205 13.259 12.6445 13.259C12.3685 13.259 12.1445 13.035 12.1445 12.759V6.151C12.1445 2.759 14.9035 0 18.2955 0C21.6875 0 24.4465 2.759 24.4465 6.151V12.759C24.4465 13.035 24.2225 13.259 23.9465 13.259Z" fill="#8471F4"/>
<path d="M15.49 12.259H0.5C0.224 12.259 0 12.483 0 12.759V25.019C0 25.295 0.224 25.519 0.5 25.519H15.49C15.766 25.519 15.99 25.295 15.99 25.019V12.759C15.99 12.483 15.766 12.259 15.49 12.259Z" fill="#8471F4"/>
<path d="M15.4892 12.259H11.4512C11.7272 12.259 11.9512 12.483 11.9512 12.759V25.019C11.9512 25.295 11.7272 25.519 11.4512 25.519H15.4892C15.7652 25.519 15.9892 25.295 15.9892 25.019V12.759C15.9892 12.483 15.7652 12.259 15.4892 12.259Z" fill="#8471F4"/>
<path d="M9.89777 17.4861C9.89777 16.4371 9.04381 15.583 7.99481 15.583C6.94581 15.583 6.0918 16.4371 6.0918 17.4861C6.0918 18.3621 6.68781 19.0991 7.49481 19.3201V21.6631C7.49481 21.9391 7.71881 22.1631 7.99481 22.1631C8.27081 22.1631 8.49481 21.9391 8.49481 21.6631V19.3201C9.30181 19.0991 9.89777 18.3621 9.89777 17.4861ZM7.99481 18.3881C7.49681 18.3881 7.0918 17.9831 7.0918 17.4861C7.0918 16.9881 7.49681 16.583 7.99481 16.583C8.49281 16.583 8.89777 16.9881 8.89777 17.4861C8.89777 17.9831 8.49281 18.3881 7.99481 18.3881Z" fill="white"/>
</svg>
