<svg width="14" height="16" viewBox="0 0 14 16" fill="none" xmlns="http://www.w3.org/2000/svg">
<path d="M12.7159 5.22607C12.6579 5.02507 12.481 4.88011 12.272 4.86511C12.063 4.85011 11.867 4.96607 11.78 5.15607C11.415 5.95607 10.953 6.72908 10.561 7.33008C10.176 3.98108 8.37195 1.60211 6.81995 0.136107C6.72495 0.0461074 6.59398 -0.00193999 6.46698 6.0008e-05H6.43896C6.18296 0.00406001 5.971 0.200077 5.948 0.455077C5.832 1.75008 5.56999 3.35406 4.98499 4.59906C4.93699 3.63306 4.80397 2.39206 4.45697 1.31506C4.40197 1.14406 4.25996 1.01606 4.08496 0.979064C3.90896 0.941064 3.72795 1.00109 3.60895 1.13409C2.80295 2.03409 1.92599 3.5161 1.76599 5.7901C1.62299 5.5111 1.47896 5.21811 1.34296 4.92511C1.25596 4.73811 1.06597 4.62408 0.857971 4.63708C0.651971 4.65008 0.475964 4.78807 0.412964 4.98407C0.138964 5.84507 0 6.75208 0 7.67908C0 11.9141 2.92798 15.3601 6.52698 15.3601C10.126 15.3601 13.054 11.9151 13.054 7.67908C13.056 6.84108 12.9409 6.01507 12.7159 5.22607Z" fill="#8471F4"/>
</svg>
