<svg width="29" height="28" viewBox="0 0 29 28" fill="none" xmlns="http://www.w3.org/2000/svg">
<path d="M3.39648 11.2981V17.5791C3.39648 21.1761 6.32353 24.1031 9.92053 24.1031H18.2785C21.8755 24.1031 24.8025 21.1761 24.8025 17.5791V11.2981H3.39648Z" fill="#A792FC"/>
<path d="M13.3713 0.204L0.308275 8.14098C-0.0927245 8.38498 -0.104735 8.96198 0.285265 9.22298L13.3213 17.918C13.7933 18.233 14.4073 18.233 14.8793 17.918L27.9153 9.22298C28.3053 8.96298 28.2933 8.38498 27.8923 8.14098L14.8293 0.204C14.3813 -0.068 13.8193 -0.068 13.3713 0.204Z" fill="#FFD550"/>
<path d="M22.9081 25.386L21.9991 21.997C22.6861 21.657 23.1611 20.95 23.1611 20.132C23.1611 19.265 22.6271 18.52 21.8721 18.208V13.238L16.4492 9.625C16.1042 9.395 15.6392 9.48901 15.4092 9.83301C15.1792 10.178 15.2732 10.643 15.6172 10.873L20.3712 14.041V18.177C19.5712 18.468 18.9971 19.233 18.9971 20.132C18.9971 20.95 19.4722 21.656 20.1592 21.997L19.2502 25.386C19.0072 26.29 19.6892 27.178 20.6252 27.178H21.5322C22.4702 27.178 23.1511 26.29 22.9081 25.386Z" fill="#FFD550"/>
</svg>
