<svg width="16" height="26" viewBox="0 0 16 26" fill="none" xmlns="http://www.w3.org/2000/svg">
<path d="M13.6477 13.259H2.3457C2.0697 13.259 1.8457 13.035 1.8457 12.759V6.151C1.8457 2.759 4.6047 0 7.9967 0C11.3887 0 14.1477 2.759 14.1477 6.151V12.759C14.1477 13.035 13.9237 13.259 13.6477 13.259ZM2.8447 12.259H13.1467V6.151C13.1467 3.311 10.8357 1 7.9957 1C5.1557 1 2.8447 3.311 2.8447 6.151V12.259Z" fill="#8471F4"/>
<path d="M15.49 12.259H0.5C0.224 12.259 0 12.483 0 12.759V25.0181C0 25.2941 0.224 25.5181 0.5 25.5181H15.49C15.766 25.5181 15.99 25.2941 15.99 25.0181V12.759C15.99 12.482 15.766 12.259 15.49 12.259Z" fill="#8471F4"/>
<path d="M15.4904 12.259H11.1934C11.4694 12.259 11.6934 12.483 11.6934 12.759V25.0181C11.6934 25.2941 11.4694 25.5181 11.1934 25.5181H15.4904C15.7664 25.5181 15.9904 25.2941 15.9904 25.0181V12.759C15.9904 12.482 15.7664 12.259 15.4904 12.259Z" fill="#8471F4"/>
<path d="M9.89877 17.486C9.89877 16.437 9.04477 15.584 7.99677 15.584C6.94777 15.584 6.09375 16.437 6.09375 17.486C6.09375 18.362 6.68977 19.099 7.49677 19.32V21.663C7.49677 21.939 7.72077 22.163 7.99677 22.163C8.27277 22.163 8.49677 21.939 8.49677 21.663V19.32C9.30277 19.099 9.89877 18.362 9.89877 17.486ZM7.99677 18.388C7.49877 18.388 7.09375 17.983 7.09375 17.485C7.09375 16.987 7.49877 16.583 7.99677 16.583C8.49477 16.583 8.89877 16.988 8.89877 17.485C8.89877 17.984 8.49377 18.388 7.99677 18.388Z" fill="white"/>
</svg>
