<svg width="29" height="16" viewBox="0 0 29 16" fill="none" xmlns="http://www.w3.org/2000/svg">
<path d="M15.4147 5.37V4.77802L11.1367 0.500977H13.4887L22.4977 5.18298L15.4147 5.37Z" fill="#D86C6C"/>
<path d="M15.4142 5.87C15.2842 5.87 15.1592 5.81897 15.0652 5.72797C14.9682 5.63397 14.9142 5.505 14.9142 5.37V4.98499L10.7832 0.854004C10.6402 0.711004 10.5972 0.49596 10.6752 0.30896C10.7522 0.12196 10.9352 0 11.1372 0H13.4881C13.5681 0 13.6472 0.0189692 13.7192 0.0559692L22.7292 4.73798C22.9312 4.84298 23.0372 5.07201 22.9862 5.29401C22.9352 5.51601 22.7402 5.67601 22.5122 5.68201L15.4292 5.86896C15.4232 5.86996 15.4192 5.87 15.4142 5.87ZM12.3442 1.00098L15.7682 4.42499C15.8622 4.51899 15.9151 4.64599 15.9151 4.77899V4.85699L20.5502 4.73499L13.3662 1.00098H12.3442Z" fill="#D86C6C"/>
<path d="M27.4311 7.13708H27.3071C27.1681 5.98408 26.1751 5.0961 24.9841 5.1181L4.99908 5.74811L2.42706 1.87012H0.498047L2.41003 7.91309L1.33105 9.15808H14.4441V10.0091L9.91907 14.9031H12.8221L21.7891 9.15808H24.5851H27.3231C27.3231 9.15808 27.3831 9.15713 27.4771 9.15613C28.0201 9.14913 28.4571 8.7081 28.4571 8.1651C28.4581 7.5971 27.9981 7.13708 27.4311 7.13708Z" fill="#8471F4"/>
<path d="M12.8243 15.4021H9.92132C9.72232 15.4021 9.54331 15.2841 9.46331 15.1021C9.38331 14.9201 9.41932 14.7081 9.55432 14.5621L13.9463 9.81213V9.6571H1.33331C1.13731 9.6571 0.95929 9.54311 0.87829 9.36511C0.79729 9.18711 0.827316 8.97808 0.955316 8.83008L1.85131 7.79712L0.0233096 2.02112C-0.0246904 1.86912 0.00230763 1.70313 0.0963076 1.57513C0.190308 1.44713 0.340323 1.37012 0.499323 1.37012H2.42828C2.59628 1.37012 2.75233 1.45412 2.84533 1.59412L5.2633 5.24011L24.9693 4.61908C24.9873 4.61908 25.0053 4.61908 25.0233 4.61908C26.3043 4.61908 27.3943 5.46814 27.7243 6.66614C28.4273 6.80314 28.9593 7.4231 28.9593 8.1651C28.9593 8.9771 28.2983 9.64613 27.4853 9.65613L27.3303 9.65808H21.9373L13.0933 15.3241C13.0133 15.3741 12.9193 15.4021 12.8243 15.4021ZM11.0643 14.4021H12.6783L21.5223 8.73608C21.6033 8.68408 21.6963 8.6571 21.7923 8.6571L27.4743 8.65509C27.7423 8.65209 27.9603 8.43112 27.9603 8.16412C27.9603 7.87312 27.7233 7.63708 27.4333 7.63708H27.3093C27.0563 7.63708 26.8433 7.44808 26.8133 7.19708C26.7023 6.28008 25.9163 5.6031 24.9953 5.6181L5.01733 6.24713C4.84433 6.25213 4.68032 6.16811 4.58532 6.02411L2.16229 2.37012H1.18432L2.89031 7.76208C2.94231 7.92808 2.90531 8.10911 2.79131 8.24011L2.42932 8.6571H14.4473C14.7233 8.6571 14.9473 8.8811 14.9473 9.1571V10.0081C14.9473 10.1341 14.9003 10.2551 14.8143 10.3471L11.0643 14.4021Z" fill="#8471F4"/>
</svg>
