<svg width="29" height="29" viewBox="0 0 29 29" fill="none" xmlns="http://www.w3.org/2000/svg">
<path d="M28.466 27.937L28.272 24.719C28.265 24.597 28.213 24.482 28.126 24.396L27.354 23.624V20.853C27.354 20.577 27.13 20.353 26.854 20.353H24.721V18.22C24.721 17.944 24.497 17.72 24.221 17.72H22.088V15.587C22.088 15.311 21.864 15.087 21.588 15.087H19.456V12.954C19.456 12.678 19.232 12.454 18.956 12.454H16.185L14.758 11.027L15.341 10.444C15.536 10.249 15.536 9.932 15.341 9.737L14.912 9.30798C15.515 6.76298 14.759 4.06899 12.904 2.21399C11.476 0.785989 9.57799 0 7.55899 0C5.53999 0 3.64199 0.785989 2.21399 2.21399C0.785989 3.64199 0 5.54002 0 7.55902C0 9.57802 0.785989 11.476 2.21399 12.904C4.06899 14.759 6.76401 15.515 9.30801 14.912L9.737 15.341C9.831 15.435 9.958 15.487 10.091 15.487C10.224 15.487 10.351 15.434 10.445 15.341L11.028 14.758L24.396 28.126C24.482 28.212 24.597 28.264 24.719 28.272L27.938 28.466C27.948 28.467 27.958 28.467 27.968 28.467C28.1 28.467 28.227 28.415 28.321 28.321C28.422 28.219 28.475 28.08 28.466 27.937Z" fill="#FFD550"/>
<path d="M28.4664 27.937L28.2725 24.719C28.2655 24.597 28.2134 24.482 28.1264 24.396L27.3544 23.624V20.853C27.3544 20.577 27.1304 20.353 26.8544 20.353H24.7214V18.22C24.7214 17.944 24.4974 17.72 24.2214 17.72H22.0884V15.587C22.0884 15.311 21.8644 15.087 21.5884 15.087H19.4564V12.954C19.4564 12.678 19.2324 12.454 18.9564 12.454H16.1854L14.7584 11.027L15.3414 10.444C15.5364 10.249 15.5364 9.932 15.3414 9.737L14.9124 9.30798C15.5154 6.76298 14.7594 4.06899 12.9044 2.21399C11.4764 0.785989 9.57842 0 7.55942 0C5.54042 0 3.64242 0.785989 2.21442 2.21399C1.91242 2.51599 1.64144 2.83899 1.39844 3.17999C2.66944 2.27299 4.18544 1.78198 5.77844 1.78198C7.79744 1.78198 9.69544 2.56797 11.1234 3.99597C12.9784 5.85097 13.7344 8.54497 13.1314 11.09L13.5604 11.519C13.7554 11.714 13.7554 12.031 13.5604 12.226L12.9774 12.809L14.4044 14.236H17.1754C17.4514 14.236 17.6754 14.46 17.6754 14.736V16.869H19.8074C20.0834 16.869 20.3074 17.093 20.3074 17.369V19.502H22.4404C22.7164 19.502 22.9404 19.726 22.9404 20.002V22.135H25.0734C25.3494 22.135 25.5734 22.359 25.5734 22.635V25.406L26.3455 26.178C26.4315 26.264 26.4835 26.379 26.4915 26.501L26.6054 28.387L27.9374 28.467C27.9474 28.468 27.9574 28.468 27.9674 28.468C28.0994 28.468 28.2264 28.416 28.3204 28.322C28.4224 28.219 28.4754 28.08 28.4664 27.937Z" fill="#8471F4"/>
<path d="M6.85072 6.85097C6.12072 7.58097 4.9367 7.58097 4.2057 6.85097C3.4757 6.12097 3.4757 4.93695 4.2057 4.20595C4.9357 3.47595 6.11972 3.47595 6.85072 4.20595C7.58172 4.93695 7.58172 6.12097 6.85072 6.85097Z" fill="white"/>
<path d="M5.52915 7.89796C4.92215 7.89796 4.31516 7.66696 3.85316 7.20496C2.92916 6.28096 2.92916 4.77691 3.85316 3.85291C4.77716 2.92891 6.28118 2.92891 7.20518 3.85291C8.12918 4.77691 8.12918 6.28096 7.20518 7.20496C6.74318 7.66696 6.13615 7.89796 5.52915 7.89796ZM5.52915 4.15992C5.17815 4.15992 4.82716 4.29292 4.56016 4.56092C4.02616 5.09492 4.02616 5.96391 4.56016 6.49891C5.09416 7.03291 5.96318 7.03291 6.49818 6.49891C7.03218 5.96491 7.03218 5.09592 6.49818 4.56092C6.23118 4.29292 5.88015 4.15992 5.52915 4.15992Z" fill="white"/>
<path d="M25.4052 25.9049C25.2772 25.9049 25.1492 25.8559 25.0512 25.7589L13.3162 14.0239C13.1212 13.8289 13.1212 13.5119 13.3162 13.3169C13.5112 13.1219 13.8282 13.1219 14.0232 13.3169L25.7582 25.0519C25.9532 25.2469 25.9532 25.5639 25.7582 25.7589C25.6612 25.8559 25.5332 25.9049 25.4052 25.9049Z" fill="white"/>
</svg>
