<svg width="29" height="21" viewBox="0 0 29 21" fill="none" xmlns="http://www.w3.org/2000/svg">
<path d="M26.972 4.71503H25.976C25.328 4.71503 24.803 5.24 24.803 5.888V9.88605H3.03302V1.17303C3.03302 0.525035 2.50802 0 1.86002 0H1.173C0.525004 0 0 0.525035 0 1.17303V20.625H3.03201V14.834H24.802V20.625H28.143V5.888C28.145 5.24 27.62 4.71503 26.972 4.71503Z" fill="#FFC853"/>
<path d="M22.1071 7.22394H11.6071C10.2701 7.22394 9.16115 8.19696 8.94815 9.47296C8.73415 8.07996 7.53116 7.01294 6.07816 7.01294H5.93817C4.33517 7.01294 3.03516 8.31295 3.03516 9.91595V9.98596H8.91116H8.98315H24.8062V9.92096C24.8042 8.43196 23.5961 7.22394 22.1071 7.22394Z" fill="#8471F4"/>
<g opacity="0.1">
<path d="M26.9713 4.71509H25.9753C25.3273 4.71509 24.8023 5.24006 24.8023 5.88806V9.88611H24.8013C24.7813 8.41311 23.5823 7.2251 22.1053 7.2251H14.0723V14.8351H24.8033V20.6261H28.1443V5.8891C28.1443 5.2401 27.6193 4.71509 26.9713 4.71509Z" fill="black"/>
</g>
</svg>
