<svg width="15" height="30" viewBox="0 0 15 30" fill="none" xmlns="http://www.w3.org/2000/svg">
<path d="M7.22699 15.2629C3.24199 15.2629 0 18.5049 0 22.4899C0 26.4749 3.24199 29.7169 7.22699 29.7169C11.212 29.7169 14.454 26.4749 14.454 22.4899C14.454 18.5049 11.212 15.2629 7.22699 15.2629Z" fill="#FFD550"/>
<path d="M3.74805 23.24C3.33405 23.24 2.99805 22.904 2.99805 22.49C2.99805 20.159 4.89507 18.262 7.22607 18.262C7.64007 18.262 7.97607 18.598 7.97607 19.012C7.97607 19.426 7.64007 19.762 7.22607 19.762C5.72207 19.762 4.49805 20.986 4.49805 22.49C4.49805 22.904 4.16205 23.24 3.74805 23.24Z" fill="white"/>
<path d="M7.22638 11.3179C6.05938 11.3179 5.10938 12.2679 5.10938 13.4349C5.10938 14.6029 6.05938 15.5519 7.22638 15.5519C8.39338 15.5519 9.34338 14.6019 9.34338 13.4349C9.34338 12.2679 8.39338 11.3179 7.22638 11.3179Z" fill="#FFD550"/>
<path d="M1.09766 0V5.659C1.09766 9.039 3.84766 11.789 7.22766 11.789C10.6077 11.789 13.3577 9.039 13.3577 5.659V0H1.09766Z" fill="#8471F4"/>
</svg>
