<svg width="30" height="31" viewBox="0 0 30 31" fill="none" xmlns="http://www.w3.org/2000/svg">
<path d="M4.14062 0.47702V25.927C4.14062 26.191 4.35461 26.404 4.61761 26.404H25.2877C25.5517 26.404 25.7646 26.19 25.7646 25.927V0.47702C25.7646 0.21302 25.5507 0 25.2877 0H4.61761C4.35461 0 4.14062 0.21302 4.14062 0.47702Z" fill="#A792FC"/>
<path d="M6.37305 26.405V27.7C6.37305 29.001 7.43203 30.0601 8.73303 30.0601C10.035 30.0601 11.093 29.001 11.093 27.7V26.405H6.37305Z" fill="#FFD550"/>
<path d="M18.8125 26.405V27.7C18.8125 29.001 19.8715 30.0601 21.1725 30.0601C22.4735 30.0601 23.5325 29.001 23.5325 27.7V26.405H18.8125Z" fill="#FFD550"/>
<path d="M25.7646 4.18506H4.14062V20.1631H25.7646V4.18506Z" fill="#FFD550"/>
<path d="M5.62891 5.97598V17.646C5.62891 18.064 5.95088 18.403 6.34888 18.403H13.6469C14.0449 18.403 14.3669 18.064 14.3669 17.646V5.97598C14.3669 5.55798 14.0449 5.21899 13.6469 5.21899H6.34888C5.95088 5.21899 5.62891 5.55798 5.62891 5.97598Z" fill="#FFD550"/>
<path d="M15.5391 5.97598V17.646C15.5391 18.064 15.8611 18.403 16.2591 18.403H23.5571C23.9551 18.403 24.2771 18.064 24.2771 17.646V5.97598C24.2771 5.55798 23.9551 5.21899 23.5571 5.21899H16.2591C15.8621 5.21899 15.5391 5.55798 15.5391 5.97598Z" fill="#FFD550"/>
<path d="M8.73346 25.2731C8.11146 25.2731 7.60547 24.7671 7.60547 24.1451C7.60547 23.5231 8.11146 23.0171 8.73346 23.0171C9.35546 23.0171 9.86145 23.5231 9.86145 24.1451C9.86145 24.7671 9.35546 25.2731 8.73346 25.2731ZM8.73346 23.7731C8.52846 23.7731 8.36145 23.9401 8.36145 24.1451C8.36145 24.3501 8.52846 24.5171 8.73346 24.5171C8.93846 24.5171 9.10547 24.3501 9.10547 24.1451C9.10547 23.9401 8.93946 23.7731 8.73346 23.7731Z" fill="#FFFBE2"/>
<path d="M21.1729 25.2731C20.5509 25.2731 20.0449 24.7671 20.0449 24.1451C20.0449 23.5231 20.5509 23.0171 21.1729 23.0171C21.7949 23.0171 22.301 23.5231 22.301 24.1451C22.301 24.7671 21.7949 25.2731 21.1729 25.2731ZM21.1729 23.7731C20.9679 23.7731 20.801 23.9401 20.801 24.1451C20.801 24.3501 20.9679 24.5171 21.1729 24.5171C21.3779 24.5171 21.5449 24.3501 21.5449 24.1451C21.5449 23.9401 21.3779 23.7731 21.1729 23.7731Z" fill="#FFFBE2"/>
<path d="M1.47198 7.10303C0.659985 7.10303 0 7.76301 0 8.57501V11.474C0 12.286 0.659985 12.946 1.47198 12.946H2.30298C3.11498 12.946 3.77502 12.286 3.77502 11.474V8.60303H4.89203V7.10303H2.30298H1.47198Z" fill="#8471F4"/>
<path d="M28.4327 7.10303H27.5837H25.0137V8.60303H26.1127V11.474C26.1127 12.286 26.7727 12.946 27.5847 12.946H28.4337C29.2457 12.946 29.9057 12.286 29.9057 11.474V8.57501C29.9047 7.76301 29.2437 7.10303 28.4327 7.10303Z" fill="#8471F4"/>
<path d="M18.1365 2.83008H11.7715C11.3575 2.83008 11.0215 2.49408 11.0215 2.08008C11.0215 1.66608 11.3575 1.33008 11.7715 1.33008H18.1365C18.5505 1.33008 18.8865 1.66608 18.8865 2.08008C18.8865 2.49408 18.5505 2.83008 18.1365 2.83008Z" fill="#FFFBE2"/>
</svg>
