<svg width="32" height="32" viewBox="0 0 32.08 32" fill="none" xmlns="http://www.w3.org/2000/svg">
  <!-- Heart (purple) at top -->
  <g transform="translate(7.53,0)">
    <path d="M11.0899 0C10.1077 0 9.16651 0.24935 8.33755 0.718874C7.5086 0.24935 6.56626 0 5.58512 0C4.0902 0 2.68708 0.579645 1.63362 1.63203C-0.54454 3.81018 -0.54454 7.3548 1.63362 9.53404L1.80952 9.71L6.96351 14.864L8.33755 16.238L9.71153 14.864L14.8655 9.71L15.0415 9.53404C16.0939 8.48166 16.6734 7.07851 16.6734 5.58359C16.6734 4.08867 16.0939 2.68546 15.0415 1.63308C13.9891 0.57962 12.5859 0 11.0899 0Z" fill="#8471F4"/>
  </g>
  <!-- Hand/palm (teal) at bottom -->
  <g transform="translate(0,14.66)">
    <path d="M23.5652 3.49795L23.5102 3.45368C23.0256 3.09317 22.4254 2.89351 21.822 2.89351H13.2962C11.8714 2.89351 10.6711 4.01715 10.6452 5.44191C10.6193 6.90014 11.7937 7.7971 13.24 7.7971H18.775C18.8581 7.7971 18.925 7.86399 18.925 7.9471C18.925 8.03021 18.8581 8.09711 18.775 8.09711H12.7705C12.2265 8.09711 11.7084 7.89202 11.3123 7.51856L4.06108 0.686225C3.12958 -0.232314 1.62498 -0.229091 0.697809 0.698084C-0.232603 1.6285 -0.232603 3.14174 0.697809 4.07215L10.0883 13.4626C10.8514 14.2258 11.8865 14.6543 12.9658 14.6543H24.5064L27.193 17.3408L32.076 10.8538L23.5652 3.49795Z" fill="#68B8BC"/>
  </g>
</svg>
