<svg width="30" height="30" viewBox="0 0 29.57 29.62" fill="none" xmlns="http://www.w3.org/2000/svg">
  <!-- Top bar (yellow) -->
  <g transform="translate(0,0)">
    <path d="M28.821 0H0.75C0.336 0 0 0.336 0 0.75V13.999C0 14.413 0.336 14.749 0.75 14.749H6.14099C6.55499 14.749 6.89099 14.413 6.89099 13.999H8.12097V13.995V11.257C8.12097 10.843 8.45697 10.507 8.87097 10.507H20.701C21.115 10.507 21.451 10.843 21.451 11.257V13.995V13.999H22.599C22.599 14.413 22.935 14.749 23.349 14.749H28.822C29.236 14.749 29.572 14.413 29.572 13.999V0.75C29.571 0.336 29.236 0 28.821 0Z" fill="#FFD550"/>
  </g>
  <!-- Center dot (cream) -->
  <g transform="translate(12.6,3.21)">
    <path d="M2.18103 0C0.97803 0 0 0.978 0 2.181C0 3.383 0.97803 4.362 2.18103 4.362C3.38303 4.362 4.362 3.384 4.362 2.181C4.362 0.978 3.38303 0 2.18103 0Z" fill="#FFFBE2"/>
  </g>
  <!-- Top connector piece (cream) -->
  <g transform="translate(10.62,7.77)">
    <path d="M8.33899 2.73824C7.99299 1.42924 6.99099 0.400223 5.67999 0.0282226C5.43099 -0.0417774 5.16405 0.0202383 4.97205 0.194238C4.75205 0.393238 4.46701 0.503229 4.16901 0.503229C3.87201 0.503229 3.58603 0.393238 3.36603 0.194238C3.17403 0.0212383 2.90702 -0.0417774 2.65802 0.0282226C1.35202 0.398223 0.346 1.43024 0 2.73824H8.33899Z" fill="#FFFBE2"/>
  </g>
  <!-- Middle connector bar (purple) -->
  <g transform="translate(8.12,10.51)">
    <path d="M12.58 0H0.75C0.336 0 0 0.336 0 0.75V3.48798C0 3.90198 0.336 4.23798 0.75 4.23798H1.20599V7.142C1.20599 7.556 1.54199 7.892 1.95599 7.892H11.375C11.789 7.892 12.125 7.556 12.125 7.142V4.23798H12.581C12.995 4.23798 13.331 3.90198 13.331 3.48798V0.75C13.33 0.336 12.994 0 12.58 0Z" fill="#8471F4"/>
  </g>
  <!-- Head 1 (light purple) -->
  <g transform="translate(3.28,19.45)">
    <path d="M1.92902 3.858C2.99302 3.858 3.85803 2.99199 3.85803 1.92899C3.85803 0.864986 2.99302 0 1.92902 0C0.865016 0 0 0.864986 0 1.92899C0 2.99299 0.865016 3.858 1.92902 3.858Z" fill="#A792FC"/>
  </g>
  <!-- Body 1 (light purple) -->
  <g transform="translate(1.53,23.61)">
    <path d="M4.95593 0.0282281C4.70693 -0.0417719 4.43992 0.0202132 4.24792 0.194213C4.09092 0.336213 3.88692 0.415222 3.67492 0.415222C3.46292 0.415222 3.25892 0.337213 3.10192 0.194213C2.90992 0.0202132 2.64292 -0.0417719 2.39392 0.0282281C0.748915 0.494228 -0.25606 2.11522 0.0569402 3.79922C0.29494 5.08222 1.41594 6.01422 2.72094 6.01422H4.62994C5.93494 6.01422 7.05494 5.08322 7.29394 3.79922C7.60594 2.11522 6.60093 0.494228 4.95593 0.0282281Z" fill="#A792FC"/>
  </g>
  <!-- Head 2 (light purple) -->
  <g transform="translate(12.86,19.45)">
    <path d="M1.92902 3.858C2.99437 3.858 3.85797 2.99434 3.85797 1.92899C3.85797 0.863628 2.99437 0 1.92902 0C0.863659 0 0 0.863628 0 1.92899C0 2.99434 0.863659 3.858 1.92902 3.858Z" fill="#A792FC"/>
  </g>
  <!-- Body 2 (light purple) -->
  <g transform="translate(11.11,23.61)">
    <path d="M4.95592 0.0286815C4.70692 -0.0413185 4.43998 0.0206595 4.24798 0.193659C4.09098 0.33666 3.88698 0.414668 3.67498 0.414668C3.46298 0.414668 3.25898 0.33666 3.10198 0.193659C2.90998 0.0206595 2.64297 -0.0423185 2.39397 0.0286815C0.748974 0.494681 -0.256062 2.11568 0.0569377 3.79968C0.294938 5.08268 1.41494 6.01467 2.72094 6.01467H4.62994C5.93494 6.01467 7.05494 5.08368 7.29394 3.79968C7.60594 2.11568 6.60092 0.494681 4.95592 0.0286815Z" fill="#A792FC"/>
  </g>
  <!-- Head 3 (light purple) -->
  <g transform="translate(22.44,19.45)">
    <path d="M1.92902 3.858C2.99437 3.858 3.85797 2.99434 3.85797 1.92899C3.85797 0.863628 2.99437 0 1.92902 0C0.863659 0 0 0.863628 0 1.92899C0 2.99434 0.863659 3.858 1.92902 3.858Z" fill="#A792FC"/>
  </g>
  <!-- Body 3 (light purple) -->
  <g transform="translate(20.69,23.61)">
    <path d="M4.95599 0.0282281C4.70699 -0.0417719 4.43998 0.0202132 4.24798 0.194213C4.09098 0.336213 3.88698 0.415222 3.67498 0.415222C3.46298 0.415222 3.25898 0.337213 3.10198 0.194213C2.90998 0.0202132 2.64297 -0.0417719 2.39397 0.0282281C0.748974 0.494228 -0.256062 2.11522 0.0569377 3.79922C0.294938 5.08222 1.41594 6.01422 2.72094 6.01422H4.62994C5.93494 6.01422 7.05494 5.08322 7.29394 3.79922C7.60594 2.11522 6.60099 0.494228 4.95599 0.0282281Z" fill="#A792FC"/>
  </g>
</svg>
