<svg width="26" height="32" viewBox="0 0 26.1 32" fill="none" xmlns="http://www.w3.org/2000/svg">
  <!-- Main bulb (yellow) -->
  <g transform="translate(5.82,6.08)">
    <path d="M12.2784 2.1791C10.8744 0.726871 9.01941 -0.048493 7.05441 0.00235104C3.12441 0.0998021 -0.0406061 3.56991 0.000393886 7.73701C0.0163939 9.38944 0.522369 10.9582 1.46237 12.2738C2.13237 13.2101 2.50137 14.3711 2.50137 15.5416C2.50137 15.9801 2.83737 16.336 3.25137 16.336H11.2044C11.6184 16.336 11.9544 15.9801 11.9544 15.5416C11.9544 14.3648 12.3194 13.2102 12.9804 12.2907C13.9454 10.9487 14.4554 9.34708 14.4554 7.65651C14.4564 5.5772 13.6824 3.63134 12.2784 2.1791Z" fill="#FFD550"/>
  </g>
  <!-- Right glow highlight (cream) -->
  <g transform="translate(14.36,8.99)">
    <path d="M3.08862 5.70363C2.67462 5.70363 2.33862 5.34772 2.33862 4.90919C2.33862 3.47603 1.59561 2.16784 0.398614 1.49627C0.0326141 1.29078 -0.106421 0.809868 0.087579 0.422182C0.281579 0.0344964 0.735617 -0.112712 1.10162 0.0927826C2.78962 1.04081 3.83862 2.88708 3.83862 4.90919C3.83862 5.34772 3.50262 5.70363 3.08862 5.70363Z" fill="#FFFBE2"/>
  </g>
  <!-- Top filament line (purple) -->
  <g transform="translate(8.33,23.24)">
    <path d="M8.69501 1.58994H0.75C0.336 1.58994 0 1.23404 0 0.795505C0 0.356975 0.336 0 0.75 0H8.69501C9.10901 0 9.44501 0.355908 9.44501 0.794438V0.795505C9.44501 1.23509 9.11001 1.58994 8.69501 1.58994Z" fill="#8471F4"/>
  </g>
  <!-- Bottom filament line (purple) -->
  <g transform="translate(8.33,25.43)">
    <path d="M8.69501 1.58994H0.75C0.336 1.58994 0 1.23404 0 0.795505C0 0.356975 0.336 0 0.75 0H8.69501C9.10901 0 9.44501 0.355908 9.44501 0.794438C9.44501 1.23297 9.11001 1.58994 8.69501 1.58994Z" fill="#8471F4"/>
  </g>
  <!-- Bulb base/screw (purple) -->
  <g transform="translate(8.64,27.57)">
    <path d="M8.73178 0.326264C8.59078 0.120769 8.36482 0 8.12582 0H0.749781C0.509781 0 0.284763 0.121829 0.143763 0.326264C0.00276314 0.531759 -0.037208 0.795509 0.035792 1.03808C0.653792 3.06866 2.42277 4.433 4.43777 4.433C6.45277 4.433 8.22181 3.06866 8.83981 1.03808C8.91281 0.795509 8.87278 0.531759 8.73178 0.326264Z" fill="#8471F4"/>
  </g>
</svg>
