<svg width="32" height="32" viewBox="0 0 32 32" fill="none" xmlns="http://www.w3.org/2000/svg">
  <!-- Purple main body (diagonal parallelogram) -->
  <g transform="translate(4.2,0.32)">
    <path d="M15.722 3.96812L19.6902 0L0 19.6902L7.79269 27.4829L23.5136 11.7597L15.722 3.96812Z" fill="#8471F4"/>
  </g>
  <!-- Yellow angled tip bottom-left -->
  <g transform="translate(0,20.01)">
    <path d="M4.20158 0L0.165123 10.615C0.0933688 10.713 0.0421104 10.828 0.0170535 10.951C-0.0398941 11.2312 0.0477551 11.5216 0.250489 11.7244L0.269884 11.7437C0.431615 11.9055 0.649118 11.9943 0.873492 11.9943C0.929301 11.9943 0.98626 11.9886 1.04207 11.9772C1.16508 11.9522 1.28016 11.9009 1.37811 11.8292L11.9931 7.79272L4.20158 0Z" fill="#FFD550"/>
  </g>
  <!-- Yellow diamond cap top-right -->
  <g transform="translate(19.92,0)">
    <path d="M11.8006 6.74032L5.33481 0.274519C5.15827 0.0968426 4.92254 0 4.67197 0C4.4214 0 4.1856 0.0979816 4.00906 0.274519L0 4.28362L7.79269 12.0763L11.8018 8.06721C11.9784 7.89067 12.0763 7.6549 12.0763 7.40433C12.0763 7.15376 11.9772 6.91799 11.8006 6.74032Z" fill="#FFD550"/>
  </g>
  <!-- Yellow tiny graphite tip -->
  <g transform="translate(0,28.07)">
    <path d="M1.13661 0L0.165123 2.55468C0.0933688 2.65263 0.0421104 2.76768 0.0170535 2.89069C-0.0398941 3.17087 0.0477551 3.46129 0.250489 3.66402L0.269884 3.68338C0.431615 3.84511 0.649118 3.93395 0.873492 3.93395C0.9293 3.93395 0.98626 3.92827 1.04207 3.91688C1.16508 3.89183 1.28016 3.84057 1.37811 3.76882L3.93276 2.79729L1.13661 0Z" fill="#FFD550"/>
  </g>
</svg>
