<svg width="25" height="30" viewBox="0 0 24.7 29.32" fill="none" xmlns="http://www.w3.org/2000/svg">
  <!-- Main bag body (yellow) -->
  <g transform="translate(5.64,3.65)">
    <path d="M18.555 0H0.500977C0.224977 0 0.000976562 0.224 0.000976562 0.5V10.008C0.000976562 10.202 0.11198 10.3709 0.27298 10.4529C1.10798 11.2189 2.18599 11.639 3.32199 11.639C4.14899 11.639 4.94498 11.4159 5.63898 10.9999V17.9009C5.63898 20.1859 1.78199 22.4169 0.29599 23.0829C0.11599 23.1639 0 23.342 0 23.539V25.157C0 25.433 0.224 25.657 0.5 25.657H18.554C18.83 25.657 19.054 25.433 19.054 25.157V0.497986C19.055 0.222986 18.831 0 18.555 0Z" fill="#FFD550"/>
  </g>
  <!-- Right stripe (teal) -->
  <g transform="translate(21.31,3.65)">
    <path d="M2.888 0H0C0.276 0 0.5 0.224 0.5 0.5V25.159C0.5 25.435 0.276 25.659 0 25.659H2.888C3.164 25.659 3.388 25.435 3.388 25.159V0.5C3.388 0.223 3.164 0 2.888 0Z" fill="#80D1ED"/>
  </g>
  <!-- Top clasp ring (purple) -->
  <g transform="translate(12.89,0)">
    <path d="M2.27499 4.54803C1.02099 4.54803 0 3.52805 0 2.27405C0 1.02005 1.01999 0 2.27499 0C3.52999 0 4.54901 1.02005 4.54901 2.27405C4.54901 3.52805 3.52899 4.54803 2.27499 4.54803ZM2.27499 0.999023C1.57199 0.999023 1 1.57101 1 2.27301C1 2.97601 1.57199 3.547 2.27499 3.547C2.97799 3.547 3.54901 2.97501 3.54901 2.27301C3.54901 1.57101 2.97699 0.999023 2.27499 0.999023Z" fill="#8471F4"/>
  </g>
  <!-- Handle (light grey) -->
  <g transform="translate(9.63,3.55)">
    <path d="M10.77 0H0.5C0.224 0 0 0.224 0 0.5V3.95197C0 4.22797 0.224 4.45197 0.5 4.45197H10.77C11.046 4.45197 11.27 4.22797 11.27 3.95197V0.5C11.27 0.224 11.046 0 10.77 0Z" fill="#CED7E3"/>
  </g>
  <!-- Price tag (purple) -->
  <g transform="translate(0,13.16)">
    <path d="M11.778 0H11.754C11.624 0 11.5 0.0499912 11.406 0.140991C10.746 0.779991 9.878 1.13196 8.961 1.13196C8.044 1.13196 7.17599 0.779991 6.51599 0.140991C6.42299 0.0509912 6.298 0 6.168 0H6.10999C5.97999 0 5.85499 0.0499912 5.76199 0.140991C5.10199 0.779991 4.23399 1.13196 3.31699 1.13196C2.39999 1.13196 1.53201 0.779991 0.872009 0.140991C0.779009 0.0509912 0.653987 0 0.523987 0H0.5C0.224 0 0 0.224 0 0.5V8.39404C0 11.793 5.692 14.381 5.935 14.489C6 14.518 6.07001 14.533 6.13901 14.533C6.20901 14.533 6.27799 14.518 6.34299 14.489C6.58499 14.38 12.277 11.793 12.277 8.39404V0.5C12.278 0.224 12.054 0 11.778 0Z" fill="#8471F4"/>
  </g>
</svg>
