<svg width="38" height="32" viewBox="0 0 37.74 32" fill="none" xmlns="http://www.w3.org/2000/svg">
  <!-- Main open pages (purple) -->
  <path d="M37.0814 2.44729C36.3871 2.19687 30.2232 0 27.8064 0C25.6188 0 20.3613 1.80069 18.8693 2.32671C17.3774 1.79936 12.1198 0 9.93222 0C7.51543 0 1.35287 2.19687 0.657242 2.44729C0.263718 2.58906 0 2.9627 0 3.38273V25.0623C0 25.3856 0.157715 25.689 0.422715 25.8759C0.592314 25.9951 0.792348 26.0561 0.993748 26.0561C1.1077 26.0561 1.22168 26.0362 1.33033 25.9978C3.12703 25.3498 8.17663 23.6684 9.93093 23.6684C11.6839 23.6684 16.7334 25.3498 18.5314 25.9978C18.546 26.0031 18.5606 26.0057 18.5752 26.011C18.5951 26.0163 18.6136 26.023 18.6335 26.0283C18.652 26.0322 18.6719 26.0362 18.6904 26.0388C18.7103 26.0428 18.7302 26.0468 18.75 26.0481C18.7699 26.0508 18.7885 26.0508 18.8083 26.0521C18.8282 26.0534 18.8481 26.0547 18.868 26.0547C18.8879 26.0547 18.9078 26.0534 18.9276 26.0521C18.9475 26.0508 18.9674 26.0508 18.9859 26.0481C19.0058 26.0455 19.0257 26.0415 19.0455 26.0388C19.0641 26.0349 19.084 26.0322 19.1025 26.0283C19.1224 26.023 19.1409 26.0163 19.1608 26.011C19.1754 26.0071 19.19 26.0031 19.2045 25.9978C21.0025 25.3498 26.0508 23.6684 27.8051 23.6684C29.5594 23.6684 34.6076 25.3498 36.4056 25.9978C36.5156 26.0375 36.6296 26.0561 36.7422 26.0561C36.9436 26.0561 37.1437 25.9951 37.3132 25.8759C37.5782 25.689 37.736 25.387 37.736 25.0623V3.38139C37.7373 2.9627 37.4749 2.58906 37.0814 2.44729Z" fill="#8471F4"/>
  <!-- Spine ridge (light purple) -->
  <g transform="translate(0,23.67)">
    <path d="M37.312 2.20747C37.1424 2.32672 36.9422 2.38765 36.7408 2.38765C36.6269 2.38765 36.513 2.3678 36.4043 2.32938C34.7799 1.74373 30.5027 0.315385 28.3986 0.0450858L27.5361 0.0119285C25.5843 0.156353 20.9177 1.71193 19.2045 2.32938C19.19 2.33468 19.1754 2.3373 19.1608 2.3426C19.1409 2.3479 19.1223 2.35453 19.1025 2.35983C19.0839 2.3638 19.0641 2.36777 19.0455 2.37042C19.0257 2.3744 19.0058 2.3784 18.9859 2.37972C18.9661 2.38237 18.9475 2.38236 18.9276 2.38368C18.9078 2.38501 18.8878 2.38635 18.8679 2.38635C18.8481 2.38635 18.8282 2.38501 18.8083 2.38368C18.7885 2.38236 18.7686 2.38237 18.75 2.37972C18.7302 2.37707 18.7103 2.37307 18.6904 2.37042C18.6706 2.36645 18.652 2.3638 18.6334 2.35983C18.6135 2.35453 18.5937 2.3479 18.5751 2.3426C18.5605 2.33863 18.546 2.33468 18.5314 2.32938C16.7334 1.68146 11.6851 0 9.93084 0C8.17655 0 3.12703 1.68146 1.33033 2.32938C1.22036 2.36913 1.10637 2.38765 0.993748 2.38765C0.792348 2.38765 0.592314 2.32672 0.422715 2.20747C0.157715 2.02064 0 1.71852 0 1.3939V5.90021C0 6.22351 0.157715 6.52696 0.422715 6.71378C0.592314 6.83303 0.792348 6.89396 0.993748 6.89396C1.1077 6.89396 1.22168 6.87412 1.33033 6.83569C3.12703 6.18777 8.17655 4.50632 9.93084 4.50632C11.6838 4.50632 16.7334 6.18777 18.5314 6.83569C18.7487 6.91387 18.9872 6.91387 19.2058 6.83569C21.0038 6.18777 26.0521 4.50632 27.8064 4.50632C29.5607 4.50632 34.6089 6.18777 36.4069 6.83569C36.7117 6.94567 37.0509 6.90061 37.3159 6.71378C37.5809 6.52828 37.7386 6.22484 37.7386 5.90021V1.3939C37.7346 1.71852 37.577 2.02197 37.312 2.20747Z" fill="#A792FC"/>
  </g>
  <!-- Yellow bookmark tab -->
  <g transform="translate(5.39,26.11)">
    <path d="M4.5381 0C3.61723 0 1.78875 0.463727 0 0.996376V4.86138C0 5.26286 0.24241 5.62594 0.613409 5.77964C0.984409 5.93334 1.4124 5.8485 1.69595 5.56363L3.19458 4.06508L4.72887 5.59941C4.91967 5.78889 5.17276 5.89091 5.43245 5.89091C5.56098 5.89091 5.68949 5.86573 5.81271 5.81538C6.18371 5.66168 6.4262 5.29864 6.4262 4.89717V0.286204C5.65373 0.109979 4.98727 0 4.5381 0Z" fill="#FFD550"/>
  </g>
  <!-- Shadow overlay -->
  <g transform="translate(18.81,0)" opacity="0.1">
    <path d="M18.2704 2.44729C17.5761 2.19687 11.4122 0 8.99541 0C6.80784 0 1.55025 1.80069 0.0583083 2.32671C0.0397583 2.32009 0.019875 2.31344 0 2.30682V30.5558C0.133825 30.5637 0.267695 30.5478 0.394895 30.5015C2.19292 29.8535 7.24111 28.1721 8.99541 28.1721C10.7497 28.1721 15.798 29.8535 17.596 30.5015C17.9007 30.6114 18.2399 30.5664 18.5049 30.3795C18.7699 30.194 18.9276 29.8906 18.9276 29.566V25.0597V3.38139C18.9263 2.9627 18.6639 2.58906 18.2704 2.44729Z" fill="#231F20"/>
  </g>
</svg>
