<svg width="32" height="32" viewBox="0 0 30.52 30.52" fill="none" xmlns="http://www.w3.org/2000/svg">
  <path d="M28.9709 13.0541C28.5042 12.6654 27.9738 12.2251 27.8816 11.8781C27.7817 11.5025 28.0254 10.8359 28.2406 10.2473C28.5744 9.33593 28.9193 8.39382 28.4767 7.62845C28.0276 6.8521 27.0294 6.67965 26.0642 6.51274C25.4537 6.40732 24.7619 6.28765 24.4972 6.02301C24.2315 5.75727 24.1129 5.06657 24.0075 4.45603C23.8406 3.49081 23.6682 2.49269 22.8919 2.04357C22.1265 1.60104 21.1843 1.9458 20.2729 2.27962C19.6843 2.49485 19.0167 2.73975 18.6423 2.63873C18.2953 2.54539 17.8549 2.0161 17.4662 1.54942C16.8326 0.787342 16.177 0 15.2601 0C14.3432 0 13.6877 0.787342 13.0541 1.54942C12.6654 2.0161 12.225 2.54539 11.878 2.63873C11.5024 2.73865 10.8359 2.49485 10.2473 2.27962C9.33593 1.9458 8.39376 1.60104 7.62839 2.04357C6.85204 2.49269 6.67965 3.49081 6.51274 4.45603C6.40732 5.06657 6.28765 5.75727 6.02301 6.02301C5.75727 6.28874 5.06547 6.40732 4.45603 6.51274C3.49081 6.67965 2.49262 6.8521 2.0435 7.62845C1.60097 8.39382 1.9458 9.33593 2.27962 10.2473C2.49485 10.8359 2.73968 11.5025 2.63866 11.8781C2.54642 12.2251 2.0161 12.6654 1.54942 13.0541C0.78844 13.6877 0 14.3433 0 15.2613C0 16.1782 0.787342 16.8337 1.54942 17.4673C2.0161 17.856 2.54532 18.2963 2.63866 18.6433C2.73859 19.0189 2.49485 19.6855 2.27962 20.274C1.9458 21.1855 1.60097 22.1276 2.0435 22.893C2.49262 23.6694 3.49081 23.8417 4.45603 24.0087C5.06657 24.1141 5.75837 24.2337 6.02301 24.4984C6.28874 24.7641 6.40732 25.4559 6.51274 26.0654C6.67965 27.0306 6.85204 28.0288 7.62839 28.4779C8.39376 28.9204 9.33593 28.5756 10.2473 28.2418C10.8359 28.0265 11.5035 27.7827 11.878 27.8827C12.225 27.9749 12.6654 28.5053 13.0541 28.972C13.6877 29.733 14.3432 30.5214 15.2601 30.5214C16.177 30.5214 16.8326 29.734 17.4673 28.972C17.856 28.5053 18.2963 27.976 18.6433 27.8827C19.0189 27.7827 19.6855 28.0265 20.274 28.2418C21.1855 28.5756 22.1276 28.9204 22.8929 28.4779C23.6693 28.0288 23.8417 27.0306 24.0087 26.0654C24.1141 25.4548 24.2337 24.763 24.4984 24.4984C24.7641 24.2326 25.4559 24.1141 26.0654 24.0087C27.0306 23.8417 28.0287 23.6694 28.4778 22.893C28.9204 22.1276 28.5756 21.1855 28.2418 20.274C28.0265 19.6855 27.7816 19.0189 27.8827 18.6433C27.9749 18.2963 28.5053 17.856 28.972 17.4673C29.733 16.8337 30.5214 16.1782 30.5214 15.2613C30.5203 14.3433 29.733 13.6877 28.9709 13.0541ZM23.8494 16.7821C23.5518 16.9315 23.061 17.1774 22.9435 17.3245C22.9665 17.5178 23.2795 17.9955 23.4705 18.2865C23.9306 18.9871 24.4061 19.7118 24.0448 20.3355C23.6803 20.9658 22.8073 20.9142 21.9629 20.8659C21.6214 20.8462 21.0591 20.8132 20.8823 20.8857C20.8088 21.0625 20.8417 21.6246 20.8615 21.9662C20.9109 22.8106 20.9614 23.6836 20.3311 24.0482C19.7074 24.4084 18.9827 23.934 18.2821 23.4739C17.9911 23.2828 17.5123 22.9687 17.3202 22.9468C17.173 23.0643 16.927 23.554 16.7777 23.8527C16.3945 24.617 15.997 25.4076 15.2568 25.4076C14.5167 25.4076 14.1192 24.617 13.736 23.8527C13.5866 23.5551 13.3406 23.0653 13.1935 22.9468C13.0002 22.9698 12.5226 23.2828 12.2316 23.4739C11.531 23.934 10.8063 24.4095 10.1826 24.0482C9.5523 23.6836 9.60387 22.8106 9.65219 21.9662C9.67195 21.6246 9.70491 21.0625 9.63134 20.8857C9.45455 20.8121 8.89232 20.8451 8.55081 20.8659C7.70638 20.9153 6.8334 20.9658 6.46884 20.3355C6.10866 19.7118 6.58305 18.9871 7.04315 18.2865C7.23422 17.9955 7.54825 17.5167 7.57021 17.3245C7.45272 17.1774 6.96296 16.9315 6.66427 16.7821C5.9 16.3989 5.10936 16.0014 5.10936 15.2613C5.10936 14.5212 5.9 14.1236 6.66427 13.7404C6.96186 13.5911 7.45162 13.3451 7.57021 13.1979C7.54715 13.0047 7.23422 12.527 7.04315 12.236C6.58305 11.5354 6.10757 10.8107 6.46884 10.187C6.8334 9.55665 7.70638 9.60829 8.55081 9.65661C8.89232 9.67638 9.45455 9.70934 9.63134 9.63577C9.70491 9.45897 9.67195 8.89784 9.65219 8.55524C9.60277 7.7108 9.5523 6.83783 10.1826 6.47326C10.8063 6.11309 11.531 6.58851 12.2316 7.04751C12.5226 7.23857 13.0013 7.55267 13.1935 7.57464C13.3406 7.45714 13.5866 6.96738 13.736 6.6687C14.1192 5.90443 14.5167 5.11379 15.2568 5.11379C15.997 5.11379 16.3945 5.90443 16.7777 6.6687C16.927 6.96628 17.173 7.45714 17.3202 7.57464C17.5123 7.55158 17.9911 7.23857 18.2821 7.04751C18.9827 6.58741 19.7074 6.11199 20.3311 6.47326C20.9614 6.83783 20.9098 7.7108 20.8615 8.55524C20.8417 8.89674 20.8088 9.45788 20.8813 9.63577C21.0581 9.70934 21.6203 9.67638 21.9618 9.65661C22.8051 9.6072 23.6792 9.55665 24.0438 10.187C24.4039 10.8107 23.9296 11.5354 23.4695 12.236C23.2784 12.527 22.9644 13.0058 22.9424 13.1979C23.0599 13.3451 23.5496 13.5911 23.8483 13.7404C24.6125 14.1236 25.4032 14.5212 25.4032 15.2613C25.4043 16.0014 24.6137 16.3978 23.8494 16.7821Z" fill="#8471F4"/>
  <!-- Inner circle hole -->
  <circle cx="15.26" cy="15.26" r="3.8" fill="white"/>
</svg>
