<svg width="38" height="32" viewBox="0 0 37.86 32" fill="none" xmlns="http://www.w3.org/2000/svg">
  <!-- Yellow handle -->
  <g transform="translate(11.18,0)">
    <path d="M2.14296 5.07593V2.14296H13.3679V5.07593H15.5108V1.07148C15.5108 0.480023 15.0308 0 14.4393 0H1.07148C0.480023 0 0 0.480023 0 1.07148V5.07593H2.14296Z" fill="#FFD550"/>
  </g>
  <!-- Light purple top body -->
  <g transform="translate(0,5.08)">
    <path d="M36.7875 0H1.07148C0.480023 0 0 0.480023 0 1.07148V8.50042C0 8.98188 0.32146 9.40336 0.784339 9.53336L18.6423 14.4951C18.7366 14.5208 18.8323 14.5336 18.9295 14.5336C19.0266 14.5336 19.1223 14.5208 19.2166 14.4951L37.0746 9.53336C37.5389 9.40479 37.859 8.98188 37.859 8.50042V1.07148C37.859 0.480023 37.3789 0 36.7875 0Z" fill="#A792FC"/>
  </g>
  <!-- Purple bottom body -->
  <g transform="translate(0,13.58)">
    <path d="M37.0746 1.03294L19.2166 5.99464C19.1223 6.02035 19.0266 6.03318 18.9295 6.03318C18.8323 6.03318 18.7366 6.02035 18.6423 5.99464L0.784339 1.03294C0.320031 0.904361 0 0.481452 0 0V17.3523C0 17.9437 0.480023 18.4237 1.07148 18.4237H36.7875C37.3789 18.4237 37.859 17.9437 37.859 17.3523V0C37.8604 0.481452 37.5389 0.904361 37.0746 1.03294Z" fill="#8471F4"/>
  </g>
</svg>
