<svg width="29" height="41" viewBox="0 0 29 41" fill="none" xmlns="http://www.w3.org/2000/svg">
<path d="M14.6725 40.2074C-3.11983 40.2074 -3.3355 20.1036 6.58509 11.9404C6.58509 11.9404 5.50674 19.2508 9.17312 21.5659C9.17312 21.5659 7.77127 6.5794 21.2504 0C21.2504 0 19.7407 12.1841 21.7896 14.8646C21.7896 14.8646 23.5149 11.5748 27.0735 10.3566C27.0735 10.3566 25.0246 18.0324 27.5048 21.6879C29.9848 25.3429 29.877 40.2074 14.6725 40.2074Z" fill="#775DF9"/>
<path d="M14.0412 37.8813C3.69435 37.8813 -0.0960882 25.5865 4.30892 18.3868C4.30892 18.3868 5.23099 24.4789 10.6604 24.5896C10.6604 24.5896 9.73836 11.8516 16.7047 7.42114C16.7047 7.42114 16.7047 15.1747 20.905 19.0513C20.905 19.0513 21.7245 16.2821 23.9782 15.2853C23.9782 15.2853 23.1587 17.9437 24.593 21.045C26.0273 24.1465 29.4079 37.8813 14.0412 37.8813Z" fill="#8471F4"/>
<path d="M14.8579 36.2197C5.59353 36.2197 5.78077 27.8219 6.43578 25.3935C6.43578 25.3935 9.71106 28.5299 12.9863 27.8219C12.9863 27.8219 12.1441 20.5369 15.6066 15.1744C15.6066 15.1744 17.6653 22.257 21.0341 23.8758C21.0341 23.8758 21.3149 22.257 22.1571 21.5487C22.1571 21.5487 22.3444 23.7747 23.1864 25.4946C24.0287 27.2149 26.4617 36.2197 14.8579 36.2197Z" fill="#FECC00"/>
<path d="M16.7124 34.7714C11.6901 34.7714 11.7916 30.219 12.1467 28.9024C12.1467 28.9024 13.9222 30.6027 15.6979 30.2188C15.6979 30.2188 15.2413 26.2695 17.1183 23.3626C17.1183 23.3626 18.2343 27.2021 20.0606 28.0798C20.0606 28.0798 20.2128 27.2021 20.6692 26.8182C20.6692 26.8182 20.7707 28.0248 21.2274 28.9574C21.684 29.8898 23.0031 34.7714 16.7124 34.7714Z" fill="white"/>
</svg>
