<svg width="162" height="162" viewBox="0 0 162 162" fill="none" xmlns="http://www.w3.org/2000/svg">
<path d="M51.0784 131.647C79.2882 147.934 115.36 138.269 131.647 110.059C147.934 81.8489 138.269 45.7771 110.059 29.4901C81.8489 13.2032 45.7771 22.8686 29.4901 51.0784C13.2032 79.2882 22.8686 115.36 51.0784 131.647Z" fill="#D36933"/>
<mask id="mask0_2191_3353" style="mask-type:luminance" maskUnits="userSpaceOnUse" x="21" y="21" width="119" height="119">
<path d="M51.0784 131.647C79.2882 147.934 115.36 138.269 131.647 110.059C147.934 81.8489 138.269 45.7771 110.059 29.4901C81.8489 13.2032 45.7771 22.8686 29.4901 51.0784C13.2032 79.2882 22.8686 115.36 51.0784 131.647Z" fill="white"/>
</mask>
<g mask="url(#mask0_2191_3353)">
<g opacity="0.4">
<path d="M72.9178 -0.138329L7.73777 112.757" stroke="#D36933" stroke-width="4" stroke-miterlimit="10"/>
<path d="M92.7137 11.2909L27.5337 124.186" stroke="#D36933" stroke-width="4" stroke-miterlimit="10"/>
<path d="M112.512 22.7206L47.3315 135.616" stroke="#D36933" stroke-width="4" stroke-miterlimit="10"/>
<path d="M132.308 34.1503L67.1284 147.045" stroke="#D36933" stroke-width="4" stroke-miterlimit="10"/>
<path d="M152.104 45.58L86.9243 158.475" stroke="#D36933" stroke-width="4" stroke-miterlimit="10"/>
<path d="M171.901 57.0097L106.721 169.905" stroke="#D36933" stroke-width="4" stroke-miterlimit="10"/>
<path d="M39.491 3.3913L181.812 85.5606" stroke="#D36933" stroke-width="4" stroke-miterlimit="10"/>
<path d="M28.2625 22.8406L170.584 105.01" stroke="#D36933" stroke-width="4" stroke-miterlimit="10"/>
<path d="M17.033 42.2891L159.354 124.458" stroke="#D36933" stroke-width="4" stroke-miterlimit="10"/>
<path d="M5.80449 61.7384L148.126 143.908" stroke="#D36933" stroke-width="4" stroke-miterlimit="10"/>
<path d="M-5.42402 81.187L136.897 163.356" stroke="#D36933" stroke-width="4" stroke-miterlimit="10"/>
</g>
</g>
<mask id="mask1_2191_3353" style="mask-type:luminance" maskUnits="userSpaceOnUse" x="21" y="21" width="119" height="119">
<path d="M51.0784 131.647C79.2882 147.934 115.36 138.269 131.647 110.059C147.934 81.8489 138.269 45.7771 110.059 29.4901C81.8489 13.2032 45.7771 22.8686 29.4901 51.0784C13.2032 79.2882 22.8686 115.36 51.0784 131.647Z" fill="white"/>
</mask>
<g mask="url(#mask1_2191_3353)">
<path d="M82.0765 11.1454L76.3539 94.2137L142.043 102.364L149.978 32.0456L82.0765 11.1454Z" fill="#EED4E2"/>
<path d="M83.4476 52.1289C105.385 56.3055 127.23 60.9665 148.961 66.1073" stroke="#2A0873" stroke-width="1.5" stroke-miterlimit="10" stroke-linecap="round"/>
<path d="M86.5773 64.693C108.717 69.4626 130.901 74.0291 153.124 78.3947" stroke="#2A0873" stroke-width="1.5" stroke-miterlimit="10" stroke-linecap="round"/>
<path d="M87.4962 75.1614C107.045 78.8024 126.626 82.264 146.238 85.5474" stroke="#2A0873" stroke-width="1.5" stroke-miterlimit="10" stroke-linecap="round"/>
<path d="M91.1518 84.8434C105.645 87.3288 120.138 89.8146 134.631 92.3" stroke="#2A0873" stroke-width="1.5" stroke-miterlimit="10" stroke-linecap="round"/>
<path d="M85.1462 41.7813C104.827 45.312 124.507 48.8429 144.187 52.3731" stroke="#2A0873" stroke-width="1.5" stroke-miterlimit="10" stroke-linecap="round"/>
<path d="M86.105 30.9924C94.4346 33.0812 102.815 34.9681 111.237 36.6518" stroke="#2A0873" stroke-width="1.5" stroke-miterlimit="10" stroke-linecap="round"/>
</g>
<mask id="mask2_2191_3353" style="mask-type:luminance" maskUnits="userSpaceOnUse" x="21" y="21" width="119" height="119">
<path d="M51.0784 131.647C79.2882 147.934 115.36 138.269 131.647 110.059C147.934 81.8489 138.269 45.7771 110.059 29.4901C81.8489 13.2032 45.7771 22.8686 29.4901 51.0784C13.2032 79.2882 22.8686 115.36 51.0784 131.647Z" fill="white"/>
</mask>
<g mask="url(#mask2_2191_3353)">
<path d="M19.3152 92.9843L92.6031 59.7219C92.6031 59.7219 120.59 62.0698 121.476 63.8421C122.362 65.6152 106.985 88.9414 106.985 88.9414L34.7127 126.694L19.3152 92.9843Z" fill="#6526BD"/>
<mask id="mask3_2191_3353" style="mask-type:luminance" maskUnits="userSpaceOnUse" x="19" y="59" width="103" height="68">
<path d="M19.3152 92.9843L92.6031 59.7219C92.6031 59.7219 120.59 62.0698 121.476 63.8421C122.362 65.6152 106.985 88.9414 106.985 88.9414L34.7127 126.694L19.3152 92.9843Z" fill="white"/>
</mask>
<g mask="url(#mask3_2191_3353)">
<path d="M101.157 66.8795C70.3086 79.1013 10.2023 108.769 10.2023 108.769" stroke="#EED4E2" stroke-width="1.5" stroke-miterlimit="10"/>
</g>
<mask id="mask4_2191_3353" style="mask-type:luminance" maskUnits="userSpaceOnUse" x="19" y="59" width="103" height="68">
<path d="M19.3152 92.9843L92.6031 59.7219C92.6031 59.7219 120.59 62.0698 121.476 63.8421C122.362 65.6152 106.985 88.9414 106.985 88.9414L34.7127 126.694L19.3152 92.9843Z" fill="white"/>
</mask>
<g mask="url(#mask4_2191_3353)">
<path d="M103.56 77.7283C75.2368 91.62 46.9137 105.512 18.5906 119.403" stroke="#EED4E2" stroke-width="1.5" stroke-miterlimit="10"/>
</g>
<mask id="mask5_2191_3353" style="mask-type:luminance" maskUnits="userSpaceOnUse" x="19" y="59" width="103" height="68">
<path d="M19.3152 92.9843L92.6031 59.7219C92.6031 59.7219 120.59 62.0698 121.476 63.8421C122.362 65.6152 106.985 88.9414 106.985 88.9414L34.7127 126.694L19.3152 92.9843Z" fill="white"/>
</mask>
<g mask="url(#mask5_2191_3353)">
<path d="M92.6049 59.7216C92.6049 59.7216 88.2261 62.4749 89.4728 65.1466C90.7194 67.8182 95.3762 66.2435 95.3762 66.2435C95.3762 66.2435 90.9373 70.4373 92.6352 72.7705C94.3323 75.1033 99.6864 74.3955 99.6864 74.3955C99.6864 74.3955 95.6256 78.0197 96.8258 80.6296C98.0252 83.239 103.374 81.9127 103.374 81.9127C103.374 81.9127 100.132 85.3768 101.322 87.4168C102.512 89.4569 106.987 88.9411 106.987 88.9411L131.948 77.7119L123.398 58.3429L95.4019 56.8379L92.6049 59.7216Z" fill="#CB7EC2"/>
</g>
<mask id="mask6_2191_3353" style="mask-type:luminance" maskUnits="userSpaceOnUse" x="19" y="59" width="103" height="68">
<path d="M19.3152 92.9843L92.6031 59.7219C92.6031 59.7219 120.59 62.0698 121.476 63.8421C122.362 65.6152 106.985 88.9414 106.985 88.9414L34.7127 126.694L19.3152 92.9843Z" fill="white"/>
</mask>
<g mask="url(#mask6_2191_3353)">
<path d="M119.82 77.4387C114.341 73.171 110.892 66.4035 110.659 59.462C112.562 59.0804 114.309 59.363 116.215 59.7341C119.077 60.2921 122.099 61.5442 123.401 64.1522C124.574 66.4998 124.034 69.3663 122.912 71.7379C121.791 74.1108 120.978 75.084 119.82 77.4387Z" fill="#6526BD"/>
</g>
<mask id="mask7_2191_3353" style="mask-type:luminance" maskUnits="userSpaceOnUse" x="19" y="59" width="103" height="68">
<path d="M19.3152 92.9843L92.6031 59.7219C92.6031 59.7219 120.59 62.0698 121.476 63.8421C122.362 65.6152 106.985 88.9414 106.985 88.9414L34.7127 126.694L19.3152 92.9843Z" fill="white"/>
</mask>
<g mask="url(#mask7_2191_3353)">
<path d="M78.6675 68.5618C74.5421 70.394 71.4314 71.7765 67.3061 73.6088" stroke="#CB7EC2" stroke-width="1.5" stroke-miterlimit="10" stroke-linecap="round"/>
<path d="M64.788 74.7785L58.2341 77.7245" stroke="#CB7EC2" stroke-width="1.5" stroke-miterlimit="10" stroke-linecap="round"/>
<path d="M72.2469 104.373C65.7502 107.62 59.2544 110.868 52.7573 114.116" stroke="#CB7EC2" stroke-width="1.5" stroke-miterlimit="10" stroke-linecap="round"/>
</g>
</g>
</svg>
