<svg width="162" height="162" viewBox="0 0 162 162" fill="none" xmlns="http://www.w3.org/2000/svg">
<path d="M51.0784 131.647C79.2882 147.934 115.36 138.269 131.647 110.059C147.934 81.8489 138.269 45.7771 110.059 29.4901C81.8489 13.2032 45.7771 22.8686 29.4901 51.0784C13.2032 79.2883 22.8686 115.36 51.0784 131.647Z" fill="#365AD8"/>
<mask id="mask0_2191_3411" style="mask-type:luminance" maskUnits="userSpaceOnUse" x="21" y="21" width="119" height="119">
<path d="M51.0784 131.647C79.2882 147.934 115.36 138.269 131.647 110.059C147.934 81.8489 138.269 45.7771 110.059 29.4901C81.8489 13.2032 45.7771 22.8686 29.4901 51.0784C13.2032 79.2883 22.8686 115.36 51.0784 131.647Z" fill="white"/>
</mask>
<g mask="url(#mask0_2191_3411)">
<g opacity="0.3">
<path d="M71.3299 -0.0284424L6.15035 112.866" stroke="#CB7EC2" stroke-width="4" stroke-miterlimit="10"/>
<path d="M91.1258 11.4012L25.9462 124.296" stroke="#CB7EC2" stroke-width="4" stroke-miterlimit="10"/>
<path d="M110.923 22.8309L45.7431 135.725" stroke="#CB7EC2" stroke-width="4" stroke-miterlimit="10"/>
<path d="M130.721 34.2606L65.541 147.155" stroke="#CB7EC2" stroke-width="4" stroke-miterlimit="10"/>
<path d="M150.516 45.6903L85.3369 158.585" stroke="#CB7EC2" stroke-width="4" stroke-miterlimit="10"/>
<path d="M170.312 57.1196L105.133 170.014" stroke="#CB7EC2" stroke-width="4" stroke-miterlimit="10"/>
<path d="M37.9031 3.50087L180.224 85.6701" stroke="#CB7EC2" stroke-width="4" stroke-miterlimit="10"/>
<path d="M26.6736 22.9502L168.995 105.119" stroke="#CB7EC2" stroke-width="4" stroke-miterlimit="10"/>
<path d="M15.4461 42.3987L157.767 124.568" stroke="#CB7EC2" stroke-width="4" stroke-miterlimit="10"/>
<path d="M4.21661 61.848L146.538 144.017" stroke="#CB7EC2" stroke-width="4" stroke-miterlimit="10"/>
<path d="M-7.01191 81.2966L135.309 163.466" stroke="#CB7EC2" stroke-width="4" stroke-miterlimit="10"/>
</g>
</g>
<path d="M62.496 81.7662L51.2828 69.7078L44.0318 73.0321L34.7936 63.0971L80.3253 43.8708L90.4617 54.7713L67.9384 98.7401L58.6546 88.7561L62.496 81.7662ZM67.5351 72.6735L75.1223 58.7811L60.7621 65.3904L67.5351 72.6735Z" fill="#EED4E2"/>
<path d="M83.4396 84.7436C85.4792 82.3143 87.8463 80.6483 90.5457 79.7433C93.2395 78.8392 96.016 78.7471 98.8669 79.4675C101.338 80.0918 103.343 81.1169 104.883 82.5486C106.424 83.9796 107.473 85.6485 108.036 87.5576L109.294 82.5762L121.809 85.7365L112.763 121.563L100.248 118.403L101.506 113.421C100.104 114.833 98.3788 115.802 96.3222 116.325C94.264 116.847 92.0223 116.801 89.5954 116.188C86.7453 115.468 84.3443 114.072 82.403 111.994C80.4557 109.919 79.1675 107.316 78.5309 104.189C77.8943 101.062 78.0435 97.647 78.979 93.9412C79.9119 90.2381 81.3993 87.1725 83.4396 84.7436ZM104.265 94.5522C103.34 92.9171 101.964 91.8647 100.134 91.4029C98.2603 90.9293 96.5428 91.1869 94.98 92.1749C93.4149 93.1615 92.3401 94.8257 91.7488 97.1666C91.1679 99.4663 91.3244 101.441 92.2233 103.094C93.1194 104.746 94.5035 105.812 96.3764 106.285C98.2053 106.747 99.916 106.476 101.507 105.473C103.095 104.47 104.187 102.798 104.778 100.455C105.359 98.1562 105.187 96.1887 104.265 94.5522Z" fill="#CB7EC2"/>
<path d="M57.7282 56.108L69.37 51.2392" stroke="#2A0873" stroke-width="1.5962" stroke-miterlimit="10" stroke-linecap="round"/>
<path d="M71.6407 50.0204L79.1024 46.5393" stroke="#2A0873" stroke-width="1.5962" stroke-miterlimit="10" stroke-linecap="round"/>
<path d="M84.7902 86.6283C87.1064 83.282 91.1618 81.2152 95.2306 81.3083" stroke="#2A0873" stroke-width="1.5962" stroke-miterlimit="10" stroke-linecap="round"/>
<path d="M97.5446 81.4859C98.836 81.5854 100.103 81.9982 101.204 82.6806" stroke="#2A0873" stroke-width="1.5962" stroke-miterlimit="10" stroke-linecap="round"/>
<path d="M103.92 70.1615C103.652 69.9612 103.804 69.5415 104.138 69.5568C104.981 69.5954 105.993 69.4727 106.82 68.8759C107.488 68.3942 108.148 67.4768 108.645 66.6708C108.829 66.3733 109.286 66.5204 109.269 66.8697C109.216 67.9049 109.311 69.1633 109.929 69.9263C110.551 70.6942 111.378 71.2341 112.063 71.5846C112.355 71.7348 112.276 72.1757 111.95 72.2167C111.183 72.3134 110.258 72.5046 109.592 72.8836C108.69 73.397 107.991 74.4647 107.517 75.4136C107.363 75.7228 106.903 75.6211 106.88 75.2757C106.82 74.404 106.607 73.3632 106.034 72.4224C105.432 71.4317 104.621 70.6818 103.92 70.1615Z" fill="#EED4E2"/>
<path d="M45.19 92.7405C44.9209 92.541 45.0733 92.1205 45.4076 92.1358C46.2503 92.1744 47.2621 92.0518 48.0896 91.4549C48.757 90.9732 49.4172 90.0558 49.9143 89.2498C50.0984 88.9524 50.5559 89.0994 50.5382 89.4487C50.486 90.4839 50.5803 91.7423 51.1989 92.5053C51.8209 93.2732 52.6474 93.8131 53.3327 94.1636C53.625 94.3139 53.5459 94.7551 53.2194 94.7957C52.4527 94.8924 51.5276 95.0836 50.8624 95.4618C49.9599 95.9752 49.2612 97.043 48.7873 97.9919C48.6325 98.301 48.1734 98.1994 48.1499 97.854C48.0902 96.9822 47.8765 95.9414 47.304 95.0007C46.7013 94.0107 45.8889 93.2612 45.19 92.7405Z" fill="#EED4E2"/>
<path d="M94.9867 43.895C94.7663 43.476 95.2166 43.0323 95.6341 43.2559C96.6848 43.8204 98.0501 44.283 99.47 44.0282C100.615 43.8223 102.018 43.0556 103.145 42.3316C103.561 42.0644 104.055 42.5313 103.819 42.9664C103.12 44.2545 102.471 45.9171 102.793 47.2677C103.116 48.6276 103.84 49.8202 104.499 50.6876C104.78 51.0572 104.409 51.5715 103.969 51.4251C102.932 51.0795 101.635 50.7581 100.555 50.8339C99.0897 50.9361 97.5468 51.8718 96.3616 52.7912C95.9749 53.0909 95.4519 52.68 95.633 52.2257C96.0901 51.0781 96.4542 49.62 96.2994 48.0698C96.137 46.4381 95.5602 44.9853 94.9867 43.895Z" fill="#EED4E2"/>
<path d="M60.8636 111.402C60.6432 110.983 61.0936 110.539 61.5106 110.763C62.5613 111.328 63.9266 111.79 65.347 111.535C66.4921 111.329 67.8954 110.562 69.0222 109.838C69.4384 109.571 69.9321 110.038 69.6964 110.473C68.9969 111.761 68.3482 113.424 68.6697 114.774C68.993 116.134 69.7171 117.327 70.3761 118.194C70.6568 118.564 70.2859 119.078 69.8455 118.932C68.8092 118.586 67.5123 118.265 66.432 118.34C64.9666 118.443 63.4237 119.378 62.2385 120.298C61.8518 120.597 61.3288 120.187 61.5099 119.732C61.9671 118.585 62.3312 117.127 62.1763 115.576C62.0135 113.945 61.4367 112.493 60.8636 111.402Z" fill="#EED4E2"/>
</svg>
