<svg width="56" height="55" viewBox="0 0 56 55" fill="none" xmlns="http://www.w3.org/2000/svg">
<path fill-rule="evenodd" clip-rule="evenodd" d="M27.7022 2.14743C41.7141 2.14743 53.09 13.3533 53.09 27.1558C53.09 40.9583 41.7141 52.1642 27.7022 52.1642C13.6903 52.1642 2.31445 40.9583 2.31445 27.1558C2.31445 13.3533 13.6903 2.14743 27.7022 2.14743Z" fill="white"/>
<path fill-rule="evenodd" clip-rule="evenodd" d="M16.4983 40.6295L12.0176 33.7985C8.66853 28.6928 9.32918 22.1185 13.2293 17.7827C12.4948 16.6265 13.0536 14.9362 14.4873 13.9957C15.8805 13.0819 17.5942 13.2079 18.3946 14.2565C19.6191 13.7954 20.8867 13.5279 22.1563 13.4453C22.3077 12.4598 22.6194 11.4969 23.0899 10.5956C25.478 6.02055 31.215 4.28879 35.8932 6.73078C40.5715 9.17278 42.4308 14.8697 40.0426 19.4448C39.2091 21.0417 37.9674 22.2922 36.5052 23.1397L38.3173 25.9023C41.7238 25.4441 44.4282 26.088 45.6493 27.9496C48.1478 31.7586 43.4971 39.2321 35.2703 44.6284C27.0435 50.0247 18.336 51.3134 15.8375 47.5044C14.7091 45.784 15.0391 43.316 16.4983 40.6295Z" fill="#B2C8DE"/>
<path fill-rule="evenodd" clip-rule="evenodd" d="M27.7021 0C42.9913 0 55.4042 12.2274 55.4042 27.2881C55.4042 42.3488 42.9913 54.5762 27.7021 54.5762C12.4129 54.5762 0 42.3488 0 27.2881C0 12.2274 12.4129 0 27.7021 0ZM27.7021 0.213357C12.5324 0.213357 0.216597 12.3452 0.216597 27.2881C0.216597 42.231 12.5324 54.3628 27.7021 54.3628C42.8718 54.3628 55.1876 42.231 55.1876 27.2881C55.1876 12.3452 42.8718 0.213357 27.7021 0.213357Z" fill="white"/>
<path fill-rule="evenodd" clip-rule="evenodd" d="M14.4874 13.6253C15.9316 12.678 17.72 12.8481 18.4788 14.0048C19.2375 15.1615 18.681 16.8696 17.2369 17.8169C15.7928 18.7642 14.0043 18.5941 13.2456 17.4374C12.4869 16.2807 13.0433 14.5725 14.4874 13.6253Z" fill="#775DF9"/>
<path fill-rule="evenodd" clip-rule="evenodd" d="M15.8038 15.2049C21.8815 11.2183 30.0403 12.9134 34.0269 18.9912C36.7668 23.1681 39.2396 26.938 39.2396 26.938L17.2302 41.3749C17.2302 41.3749 14.7574 37.605 12.0176 33.4281C8.03092 27.3503 9.72608 19.1916 15.8038 15.2049Z" fill="#8471F4"/>
<mask id="mask0_2202_7663" style="mask-type:luminance" maskUnits="userSpaceOnUse" x="9" y="13" width="31" height="29">
<path d="M15.8038 15.2048C21.8815 11.2182 30.0403 12.9133 34.0269 18.9911C36.7668 23.1681 39.2396 26.9379 39.2396 26.9379L17.2302 41.3748C17.2302 41.3748 14.7574 37.605 12.0176 33.428C8.03092 27.3503 9.72608 19.1915 15.8038 15.2048Z" fill="white"/>
</mask>
<g mask="url(#mask0_2202_7663)">
<path fill-rule="evenodd" clip-rule="evenodd" d="M16.1521 13.7165C14.3807 16.0643 7.08193 26.3778 14.9965 33.8413C20.2564 38.8015 24.6724 26.1579 33.9601 27.1288C18.4617 37.5087 21.2239 44.2485 16.3876 41.8514C12.2401 39.7958 6.43749 28.9623 11.262 16.6717" fill="#775DF9"/>
</g>
<mask id="mask1_2202_7663" style="mask-type:luminance" maskUnits="userSpaceOnUse" x="9" y="13" width="31" height="29">
<path d="M15.8038 15.2048C21.8815 11.2182 30.0403 12.9133 34.0269 18.9911C36.7668 23.1681 39.2396 26.9379 39.2396 26.9379L17.2302 41.3748C17.2302 41.3748 14.7574 37.605 12.0176 33.428C8.03092 27.3503 9.72608 19.1915 15.8038 15.2048Z" fill="white"/>
</mask>
<g mask="url(#mask1_2202_7663)">
<path fill-rule="evenodd" clip-rule="evenodd" d="M40.0428 21.4463C37.6547 26.0213 31.9177 27.7531 27.2395 25.3111C26.2256 24.7819 25.3129 24.0791 24.5446 23.2362L20.4917 23.7738L22.771 20.4509C21.7077 17.8919 21.8243 15.0219 23.09 12.5971C25.4782 8.02206 31.2152 6.2903 35.8934 8.73229C40.5716 11.1743 42.4309 16.8712 40.0428 21.4463Z" fill="#775DF9"/>
</g>
<path fill-rule="evenodd" clip-rule="evenodd" d="M26.2169 30.4553C34.4436 25.059 43.1512 23.7703 45.6496 27.5793C48.1481 31.3882 43.4974 38.8617 35.2707 44.258C27.0439 49.6543 18.3364 50.943 15.8379 47.1341C13.3394 43.3251 17.9901 35.8516 26.2169 30.4553Z" fill="#8D7DEB"/>
<path fill-rule="evenodd" clip-rule="evenodd" d="M34.569 43.813C28.4953 47.797 22.3962 49.2507 20.9575 47.0573C20.0034 45.6028 21.3368 42.9073 24.1146 40.0946C25.5256 38.6658 27.3094 37.2067 29.3553 35.8647C31.4013 34.5226 33.4502 33.4677 35.3228 32.7426C39.0092 31.3152 42.0128 31.1658 42.9669 32.6204C44.4056 34.8138 40.6427 39.829 34.569 43.813Z" fill="#6456B6"/>
<mask id="mask2_2202_7663" style="mask-type:luminance" maskUnits="userSpaceOnUse" x="20" y="31" width="24" height="18">
<path d="M34.569 43.8129C28.4953 47.7969 22.3962 49.2506 20.9575 47.0572C20.0034 45.6026 21.3368 42.9072 24.1146 40.0944C25.5256 38.6656 27.3094 37.2066 29.3553 35.8645C31.4013 34.5225 33.4502 33.4676 35.3228 32.7425C39.0092 31.315 42.0128 31.1657 42.9669 32.6203C44.4056 34.8137 40.6427 39.8289 34.569 43.8129Z" fill="white"/>
</mask>
<g mask="url(#mask2_2202_7663)">
<path fill-rule="evenodd" clip-rule="evenodd" d="M24.4741 40.0175C29.5095 46.447 33.9239 43.3466 36.3124 41.099C38.7464 38.8087 39.9953 37.6335 43.3546 34.4724C38.9895 46.085 27.0766 49.1649 24.3874 49.2844C20.6495 49.4505 19.6268 48.0843 19.3755 47.7485C16.5119 43.9229 25.3597 34.6924 25.607 34.3867" fill="#775DF9"/>
</g>
<path fill-rule="evenodd" clip-rule="evenodd" d="M34.5687 43.813C31.4251 45.8751 27.0303 44.7403 24.761 41.2806C24.5089 40.8963 24.2936 40.4994 24.1143 40.0946C25.5253 38.6658 27.3091 37.2067 29.355 35.8647C31.401 34.5226 33.4499 33.4677 35.3225 32.7426C35.6224 33.0684 35.9007 33.424 36.1527 33.8083C38.4221 37.268 37.7123 41.751 34.5687 43.813Z" fill="#8471F4"/>
<mask id="mask3_2202_7663" style="mask-type:luminance" maskUnits="userSpaceOnUse" x="24" y="32" width="14" height="13">
<path d="M34.5692 43.8129C31.4255 45.875 27.0308 44.7403 24.7614 41.2805C24.5094 40.8962 24.2941 40.4993 24.1147 40.0945C25.5258 38.6657 27.3096 37.2066 29.3555 35.8646C31.4015 34.5225 33.4503 33.4676 35.323 32.7425C35.6229 33.0683 35.9012 33.4239 36.1532 33.8082C38.4226 37.2679 37.7128 41.7509 34.5692 43.8129Z" fill="white"/>
</mask>
<g mask="url(#mask3_2202_7663)">
<path fill-rule="evenodd" clip-rule="evenodd" d="M26.3378 34.4677C26.6191 42.2368 31.9237 42.5083 33.1312 42.1234C36.1782 41.1524 37.571 38.2136 37.5953 38.1781C38.7328 41.7737 36.0004 46.6105 30.7709 45.7176C22.569 44.3172 23.9928 38.7361 24.0444 37.3865" fill="#5C47C7"/>
</g>
<path fill-rule="evenodd" clip-rule="evenodd" d="M40.0428 19.0744C37.6547 23.6494 31.9177 25.3812 27.2395 22.9392C26.2256 22.41 25.3129 21.7072 24.5446 20.8643L20.4917 21.402L22.771 18.079C21.7077 15.52 21.8243 12.65 23.09 10.2252C25.4782 5.65019 31.2152 3.91843 35.8934 6.36042C40.5716 8.80242 42.4309 14.4994 40.0428 19.0744Z" fill="#5ACD7A"/>
<mask id="mask4_2202_7663" style="mask-type:luminance" maskUnits="userSpaceOnUse" x="20" y="5" width="22" height="20">
<path d="M40.0428 19.0743C37.6547 23.6494 31.9177 25.3811 27.2395 22.9391C26.2256 22.4099 25.3129 21.7071 24.5446 20.8642L20.4917 21.4019L22.771 18.0789C21.7077 15.5199 21.8243 12.65 23.09 10.2251C25.4782 5.6501 31.2152 3.91833 35.8934 6.36033C40.5716 8.80233 42.4309 14.4993 40.0428 19.0743Z" fill="white"/>
</mask>
<g mask="url(#mask4_2202_7663)">
<path fill-rule="evenodd" clip-rule="evenodd" d="M39.3087 9.35518C39.3364 9.42056 40.935 11.8828 39.5301 16.5599C37.6714 22.748 28.7843 24.4823 26.0023 19.717C19.8738 21.5599 20.4578 21.3843 20.4578 21.3843C22.3997 23.1653 21.9086 22.9166 24.4326 23.7368C33.2017 26.5863 42.6759 23.0395 42.4904 14.4449C42.4381 12.0171 42.3025 12.0291 41.2395 9.84157" fill="#41AC5F"/>
</g>
<mask id="mask5_2202_7663" style="mask-type:luminance" maskUnits="userSpaceOnUse" x="20" y="5" width="22" height="20">
<path d="M40.0428 19.0743C37.6547 23.6494 31.9177 25.3811 27.2395 22.9391C26.2256 22.4099 25.3129 21.7071 24.5446 20.8642L20.4917 21.4019L22.771 18.0789C21.7077 15.5199 21.8243 12.65 23.09 10.2251C25.4782 5.6501 31.2152 3.91833 35.8934 6.36033C40.5716 8.80233 42.4309 14.4993 40.0428 19.0743Z" fill="white"/>
</mask>
<g mask="url(#mask5_2202_7663)">
<path fill-rule="evenodd" clip-rule="evenodd" d="M38.6304 8.47992C38.5797 8.43023 36.6601 6.66767 31.7933 6.26422C25.3541 5.73041 21.4164 13.0982 23.9274 17.7188C19.9703 22.7484 20.1923 21.8478 20.1923 21.8478C19.2451 19.3891 19.2969 19.9371 19.4569 17.288C20.0127 8.08436 26.7795 0.564248 34.7105 3.88086C36.9509 4.81776 36.8902 4.93956 38.5372 6.72908" fill="#89DBA0"/>
</g>
<path fill-rule="evenodd" clip-rule="evenodd" d="M30.737 17.1018C30.5437 17.252 30.2652 17.2171 30.115 17.0238C29.6884 16.4748 28.854 15.401 28.3043 14.6936C28.1626 14.5113 28.0991 14.2802 28.1279 14.0511C28.1566 13.8219 28.2752 13.6136 28.4575 13.472C28.8371 13.177 29.3841 13.2456 29.6791 13.6253C30.0277 14.0739 30.4484 14.6153 30.6176 14.8331C30.6377 14.859 30.6673 14.8758 30.6999 14.8799C30.7324 14.884 30.7653 14.875 30.7912 14.8548C31.227 14.5161 33.0167 13.1253 34.0185 12.3468C34.2009 12.2051 34.432 12.1416 34.6611 12.1704C34.8902 12.1991 35.0985 12.3177 35.2401 12.5C35.3818 12.6823 35.4453 12.9134 35.4165 13.1425C35.3878 13.3716 35.2692 13.5799 35.0869 13.7216C33.9254 14.6242 31.6154 16.4192 30.737 17.1018Z" fill="white"/>
</svg>
