<svg width="43" height="42" viewBox="0 0 43 42" fill="none" xmlns="http://www.w3.org/2000/svg">
<path d="M0.0050669 6.33733C0.0262937 5.22769 0.377155 4.22129 0.9565 3.28734C1.00896 3.20291 0.996749 3.15375 0.930141 3.08847C0.426188 2.59399 0.196859 1.99347 0.28384 1.29048C0.357402 0.696074 0.773394 0.163278 1.41117 0.0381006C2.20035 -0.116845 2.80117 0.212816 3.2828 0.808688C3.46432 1.0333 3.41282 1.00523 3.63814 0.890183C4.52125 0.439375 5.46549 0.262475 6.44595 0.295782C7.10288 0.318109 7.73431 0.493062 8.34208 0.745124C9.25325 1.12297 10.0688 1.65065 10.775 2.33924C10.9174 2.47796 11.0309 2.65865 11.1173 2.83934C11.2177 3.04943 11.1826 3.2661 11.009 3.43837C10.7829 3.66274 10.5542 3.88443 10.3225 4.10294C9.64828 4.73882 8.97546 5.3763 8.29559 6.00609C7.66403 6.59122 7.01686 7.15964 6.38933 7.74905C5.30957 8.76328 4.24103 9.78946 3.16408 10.8067C3.02525 10.9379 2.86874 11.052 2.71271 11.163C2.51411 11.3044 2.24487 11.2928 2.062 11.1009C1.81509 10.8418 1.5833 10.5653 1.36933 10.278C0.772416 9.4764 0.338372 8.59479 0.119882 7.614C0.0263135 7.19357 -0.0153059 6.76788 0.0050669 6.33733ZM0.80657 1.6399C0.839386 1.77021 0.876591 1.9753 0.943931 2.16989C1.03128 2.4222 1.1579 2.65487 1.3903 2.81067C1.8102 3.09201 2.39553 2.96951 2.74187 2.66865C3.416 2.08303 3.06064 0.998643 2.50521 0.741579C2.38053 0.683871 2.24939 0.634832 2.1163 0.602134C1.88036 0.54406 1.64002 0.519908 1.40653 0.616536C0.98614 0.790637 0.838288 1.13749 0.80657 1.6399Z" fill="black"/>
<path d="M11.4259 34.4344C11.5676 34.3886 11.7078 34.337 11.8513 34.2978C12.3108 34.1723 12.7739 34.1433 13.2416 34.2544C13.8701 34.4036 14.2983 35.0347 14.2183 35.6761C14.1458 36.2568 13.8728 36.7531 13.5762 37.237C12.8441 38.4311 11.8931 39.4394 10.8731 40.3869C10.4627 40.7681 10.035 41.1281 9.53741 41.3929C9.09555 41.628 8.63076 41.7611 8.12448 41.6724C7.6098 41.5822 7.25918 41.2876 7.08132 40.7986C6.91163 40.332 6.97652 39.8645 7.11206 39.4026C7.29224 38.7887 7.62259 38.2501 7.9549 37.7108C8.41786 36.9595 8.91305 36.2323 9.47653 35.5524C9.96963 34.9573 10.4836 34.3828 11.0728 33.8803C11.1467 33.8172 11.2274 33.7593 11.3121 33.712C11.4254 33.649 11.5505 33.6739 11.6376 33.7618C11.7229 33.8481 11.7465 33.978 11.6812 34.0886C11.6362 34.1647 11.5738 34.2312 11.5153 34.2986C11.4817 34.3373 11.4405 34.3694 11.4028 34.4046C11.4105 34.4146 11.4182 34.4244 11.4259 34.4344Z" fill="black"/>
<path d="M9.91118 9.25343C9.89117 9.59541 9.72927 9.88418 9.39586 10.0545C9.06673 10.2226 8.73356 10.1995 8.43663 9.98106C8.27108 9.8593 8.13019 9.70106 7.98916 9.54916C7.66442 9.19925 7.34785 8.84189 7.02445 8.49076C6.95576 8.41622 6.94551 8.36583 7.02602 8.28933C7.42275 7.91307 7.81519 7.53229 8.20667 7.15054C8.2673 7.09149 8.30866 7.07356 8.37441 7.14676C8.78028 7.5994 9.18969 8.04887 9.598 8.49919C9.78465 8.70489 9.90593 8.93878 9.91118 9.25343Z" fill="black"/>
<path d="M36.9135 0.595239C37.6653 0.612807 38.3867 0.77104 39.0794 1.06007C39.2033 1.1118 39.3236 1.17428 39.4398 1.24199C39.5299 1.29445 39.5858 1.27809 39.6423 1.19354C39.8756 0.844486 40.1887 0.589385 40.576 0.429925C41.4894 0.0536619 42.4918 0.482502 42.6881 1.51491C42.8209 2.21363 42.5966 2.82975 42.1042 3.34437C41.9692 3.48553 41.969 3.48467 42.0674 3.64706C42.432 4.24866 42.7162 4.88664 42.8578 5.57645C43.0477 6.50234 43.0347 7.42359 42.757 8.33851C42.433 9.40617 41.8684 10.3316 41.1484 11.171C41.0822 11.2482 41.0155 11.3267 40.94 11.3942C40.7067 11.6027 40.4334 11.615 40.1992 11.4088C39.6937 10.9642 39.1936 10.5136 38.6978 10.0584C38.1326 9.53928 37.5708 9.01613 37.0144 8.4876C36.4644 7.96506 35.9279 7.42799 35.3754 6.908C35.019 6.57249 34.637 6.26419 34.2792 5.93001C33.5363 5.23605 32.8005 4.53428 32.0643 3.833C31.7706 3.55324 31.7464 3.30423 31.96 2.9459C32.1251 2.66907 32.3754 2.47594 32.6156 2.27464C33.3103 1.69231 34.083 1.24124 34.9368 0.935622C35.5748 0.707107 36.2312 0.570594 36.9135 0.595239ZM42.1749 1.89324C42.154 1.50014 42.0431 1.17939 41.705 0.980152C41.3537 0.773232 40.9946 0.85461 40.6407 0.968685C40.282 1.08422 40.0745 1.35374 39.9552 1.69718C39.8708 1.94034 39.8365 2.19143 39.9151 2.44312C40.0644 2.92163 40.4026 3.18028 40.8882 3.25641C41.2295 3.30997 41.5324 3.22517 41.763 2.96115C42.0335 2.65114 42.135 2.27157 42.1749 1.89324Z" fill="black"/>
<path d="M31.593 34.6911C31.5521 34.6598 31.5058 34.6334 31.4716 34.5959C31.4116 34.5301 31.3502 34.4626 31.3052 34.3865C31.2395 34.2753 31.2624 34.1467 31.3479 34.0597C31.4339 33.9721 31.5658 33.9404 31.6726 34.0107C31.8184 34.1065 31.9581 34.2144 32.0876 34.3314C32.8659 35.0357 33.55 35.8272 34.1482 36.6858C34.6345 37.3839 35.0786 38.113 35.5147 38.8444C35.7924 39.3101 35.9605 39.8247 35.9991 40.3723C36.022 40.6955 35.9768 41.0096 35.8163 41.2961C35.522 41.8211 35.0509 42.0186 34.4732 41.9942C33.9594 41.9725 33.5099 41.7628 33.0941 41.4769C32.2985 40.9298 31.6259 40.2455 30.9695 39.5446C30.4835 39.0256 30.0277 38.4809 29.6343 37.8871C29.307 37.3931 28.9957 36.8887 28.8329 36.3121C28.6505 35.6656 28.8038 35.0864 29.3538 34.7259C29.5655 34.5872 29.8012 34.513 30.0543 34.4952C30.55 34.4604 31.031 34.519 31.4911 34.7156C31.5137 34.7253 31.5414 34.723 31.5666 34.7261C31.5754 34.7145 31.5842 34.7028 31.593 34.6911Z" fill="black"/>
<path d="M33.0757 9.46031C33.0832 9.25949 33.175 9.0367 33.3439 8.84808C33.7113 8.43754 34.082 8.02979 34.4514 7.62108C34.4705 7.59985 34.491 7.57984 34.5103 7.55885C34.6904 7.36279 34.69 7.36316 34.8775 7.54433C35.2358 7.89022 35.5931 8.23708 35.9543 8.5798C36.0278 8.64946 36.0435 8.69704 35.9672 8.77951C35.5654 9.21397 35.173 9.6571 34.7699 10.0902C34.4848 10.3966 34.142 10.5376 33.7214 10.4039C33.3389 10.2821 33.0759 9.92015 33.0757 9.46031Z" fill="black"/>
<path d="M3.73992 20.6393C3.72882 11.0535 11.5123 3.05282 21.3778 3.08527C31.2255 3.1176 38.9933 11.127 38.9153 20.7464C38.8336 30.7896 30.7106 38.2945 21.269 38.2568C11.4511 38.2176 3.69759 30.2288 3.73992 20.6393Z" fill="#8471F4"/>
<path d="M35.4134 21.8916C35.3852 22.0011 35.3402 22.1092 35.3313 22.2202C35.1972 23.8928 34.6732 25.4514 33.9202 26.9347C31.8911 30.9322 28.1026 33.7087 23.6754 34.4723C16.2351 35.7554 8.97571 30.9718 7.37626 23.3509C7.16082 22.3241 7.05052 21.2815 7.08334 20.232C7.19594 16.6238 8.43968 13.4645 10.9011 10.811C12.8566 8.70317 15.248 7.32683 18.0479 6.66763C23.4447 5.39695 29.1293 7.40283 32.5503 11.8536C33.9544 13.6803 34.8398 15.7266 35.2441 17.9879C35.2785 18.1804 35.288 18.3773 35.3181 18.5708C35.343 18.7302 35.3813 18.8876 35.4137 19.0459C35.4134 19.9946 35.4134 20.9432 35.4134 21.8916Z" fill="white"/>
<path d="M20.1487 23.2029C19.9306 22.911 19.7613 22.7125 19.6231 22.4944C19.1768 21.7904 19.1878 20.637 19.7818 19.9141C19.9707 19.6841 20.1863 19.4876 20.4464 19.343C20.5888 19.2638 20.7422 19.2035 20.8798 19.1173C20.9965 19.0444 21.0477 18.9281 21.0239 18.783C20.9657 18.4286 20.9132 18.0732 20.8561 17.7185C20.7618 17.134 20.7548 16.5486 20.8195 15.9603C20.9372 14.889 21.046 13.8167 21.1639 12.7454C21.2102 12.3244 21.3495 12.125 21.5498 12.1712C21.837 12.2375 21.8553 12.4846 21.878 12.7073C22.0804 14.6912 22.2717 16.6758 21.9847 18.6687C21.9756 18.7319 21.9759 18.8016 21.993 18.8622C22.0095 18.9209 22.0401 18.9958 22.0876 19.0221C22.2575 19.1165 22.4409 19.1865 22.6128 19.278C23.4517 19.7244 23.9428 20.6372 23.8416 21.5529C23.7341 22.5251 23.0312 23.315 22.0672 23.5389C21.9087 23.5757 21.7447 23.5879 21.5835 23.614C21.4381 23.6376 21.3529 23.737 21.3183 23.8677C21.2513 24.12 21.1956 24.3755 21.1421 24.6311C21.102 24.8227 21.0764 25.0173 21.0381 25.2094C20.9351 25.7269 20.7508 26.2124 20.4656 26.6587C19.8483 27.6246 19.1255 28.5102 18.3856 29.3822C18.305 29.4772 18.1789 29.5361 18.0684 29.6024C17.9829 29.6538 17.774 29.5525 17.7477 29.4494C17.724 29.3566 17.6859 29.2577 17.6974 29.167C17.8288 28.1293 18.0279 27.1045 18.2837 26.09C18.48 25.3115 18.8683 24.6412 19.3981 24.0463C19.636 23.7795 19.8735 23.5123 20.1487 23.2029Z" fill="black"/>
<path d="M4.51367 22.7533C4.54868 22.5709 4.57869 22.3442 4.63724 22.1251C4.72703 21.7888 5.18451 21.6715 5.42618 21.9255C5.55903 22.0652 5.69652 22.2204 5.76776 22.3947C5.92745 22.786 6.06226 23.1892 6.17913 23.5957C6.33236 24.1282 6.44726 24.6716 6.59914 25.2044C6.77786 25.8311 6.96537 26.456 7.17191 27.0741C8.05782 29.7256 9.69032 31.8406 11.8702 33.5535C12.3059 33.8959 12.7715 34.1997 13.2168 34.53C13.4255 34.6849 13.6259 34.8529 13.8169 35.0294C13.9818 35.1819 14.0155 35.4168 13.9207 35.5612C13.7935 35.7552 13.5984 35.7659 13.4008 35.7415C13.273 35.7258 13.1405 35.6964 13.0255 35.6413C12.732 35.5005 12.4309 35.3661 12.1614 35.1865C9.44426 33.3762 7.27768 31.0805 5.93282 28.0683C5.439 26.9623 5.09315 25.8072 4.82476 24.629C4.71643 24.1529 4.64298 23.6688 4.55844 23.1875C4.53599 23.0595 4.53112 22.9284 4.51367 22.7533Z" fill="black"/>
<path d="M19.056 37.8216C18.1629 37.7337 17.1939 37.5901 16.282 37.2025C16.0146 37.0888 15.7648 36.9248 15.5253 36.7577C15.3956 36.6672 15.2918 36.5301 15.2001 36.3976C15.1061 36.262 15.062 36.1036 15.1337 35.9361C15.2058 35.7679 15.4091 35.6455 15.6152 35.6684C15.8092 35.69 16.0064 35.7126 16.1927 35.767C17.1643 36.0508 18.1305 36.3526 19.127 36.5437C19.3493 36.5863 19.5656 36.674 19.7754 36.7627C19.8925 36.8122 19.9982 36.898 20.0958 36.9825C20.2905 37.1514 20.2252 37.5439 19.9978 37.6536C19.7259 37.785 19.4397 37.8301 19.056 37.8216Z" fill="black"/>
<path d="M22.1273 32.0773C22.1273 32.5012 22.1311 32.9251 22.1251 33.3489C22.1233 33.4775 22.096 33.6059 22.078 33.7342C22.0675 33.8091 21.9409 33.9112 21.8637 33.8966C21.7683 33.8784 21.6786 33.8392 21.6405 33.7373C21.6179 33.6773 21.5846 33.6152 21.5845 33.554C21.5832 32.5439 21.5836 31.5338 21.5947 30.524C21.5957 30.4402 21.6646 30.3468 21.7249 30.278C21.7582 30.2401 21.8423 30.2249 21.8977 30.2342C21.952 30.2434 22.0273 30.2866 22.0434 30.3323C22.0854 30.4524 22.1198 30.5817 22.1222 30.708C22.1311 31.1643 22.1257 31.6208 22.1257 32.0772C22.1264 32.0773 22.1268 32.0773 22.1273 32.0773Z" fill="black"/>
<path d="M21.688 9.02959C21.688 9.48235 21.6907 9.93522 21.6858 10.388C21.6848 10.4825 21.6791 10.5913 21.6325 10.6671C21.5874 10.7407 21.4868 10.8232 21.4108 10.8229C21.3345 10.8227 21.2342 10.7402 21.1891 10.6664C21.1426 10.5904 21.1367 10.4814 21.1363 10.3868C21.1329 9.48112 21.1329 8.57561 21.1365 7.66996C21.1368 7.57541 21.1429 7.46646 21.1895 7.39057C21.2348 7.31688 21.3357 7.23465 21.4119 7.23477C21.4878 7.23489 21.5877 7.3181 21.6327 7.39191C21.6791 7.46792 21.6847 7.57651 21.6858 7.67107C21.6908 8.12395 21.688 8.57671 21.688 9.02959Z" fill="black"/>
<path d="M9.71489 21.2041C9.26218 21.2041 8.80948 21.2096 8.35689 21.2006C8.23197 21.1981 8.10741 21.1541 7.98346 21.1259C7.92307 21.1122 7.81206 20.9485 7.84122 20.8993C7.88806 20.8204 7.95528 20.7526 8.02018 20.6862C8.03934 20.6667 8.07983 20.6609 8.11058 20.6608C9.11226 20.66 10.114 20.6578 11.1155 20.6663C11.202 20.667 11.2974 20.728 11.3706 20.7845C11.4122 20.8167 11.4377 20.8984 11.4327 20.9542C11.4277 21.0101 11.3882 21.0833 11.3414 21.1108C11.261 21.1579 11.1637 21.1992 11.0727 21.2009C10.6202 21.2098 10.1675 21.205 9.71477 21.205C9.71477 21.205 9.71489 21.2045 9.71489 21.2041Z" fill="black"/>
<path d="M32.8203 20.5694C32.3643 20.5694 31.9082 20.5752 31.4524 20.5644C31.3631 20.5623 31.2655 20.5098 31.1905 20.4549C31.1487 20.4244 31.1254 20.3392 31.1306 20.282C31.1359 20.2253 31.1769 20.1606 31.2216 20.1219C31.2679 20.082 31.3373 20.0479 31.3967 20.0475C32.4062 20.0413 33.4158 20.0405 34.4253 20.0397C34.4573 20.0397 34.5007 20.0405 34.5192 20.0598C34.5839 20.1272 34.6792 20.1983 34.6882 20.2765C34.6966 20.3501 34.6281 20.4588 34.561 20.5073C34.4894 20.5593 34.3803 20.5771 34.2871 20.5783C33.7982 20.5848 33.3094 20.5814 32.8205 20.5814C32.8203 20.5775 32.8203 20.5734 32.8203 20.5694Z" fill="black"/>
<path d="M16.6504 32.6547C16.5798 32.5853 16.5011 32.5312 16.4576 32.4567C16.4296 32.4089 16.4322 32.3209 16.4572 32.2679C16.7356 31.6774 17.0189 31.0893 17.3076 30.5038C17.3336 30.4511 17.3999 30.4073 17.4575 30.3847C17.5124 30.3631 17.5905 30.3538 17.6395 30.3777C17.6888 30.4018 17.7194 30.4711 17.7492 30.5255C17.7635 30.5515 17.7696 30.5945 17.758 30.6203C17.4774 31.2449 17.1985 31.8703 16.9049 32.4888C16.871 32.5602 16.7517 32.5913 16.6504 32.6547Z" fill="black"/>
<path d="M11.5271 15.9266C11.5104 16.0066 11.3692 16.0952 11.3043 16.0601C10.7627 15.7665 10.2179 15.4785 9.68524 15.1693C9.58533 15.1113 9.52407 14.9721 9.46991 14.8586C9.45173 14.8204 9.49773 14.7325 9.53835 14.6906C9.57836 14.6491 9.66997 14.5992 9.70254 14.6175C10.2681 14.9365 10.8725 15.1886 11.3925 15.5857C11.4417 15.6233 11.4817 15.6836 11.5046 15.7417C11.5266 15.7976 11.5207 15.8645 11.5271 15.9266Z" fill="black"/>
<path d="M15.6233 11.3921C15.5883 11.4426 15.5634 11.5165 15.5155 11.5373C15.4649 11.5594 15.3689 11.5554 15.3327 11.521C14.8339 11.044 14.4717 10.4718 14.1956 9.84352C14.1728 9.79167 14.1966 9.71713 14.2057 9.65405C14.216 9.58219 14.385 9.50447 14.4462 9.54095C14.5014 9.57377 14.5747 9.59598 14.6067 9.64479C14.9445 10.1612 15.2776 10.6807 15.6053 11.2036C15.6353 11.2515 15.6185 11.3286 15.6233 11.3921Z" fill="black"/>
<path d="M28.3121 9.66747C28.3057 9.73384 28.3113 9.76924 28.2985 9.79547C28.0284 10.3463 27.7065 10.8661 27.3314 11.3505C27.2909 11.4029 27.1557 11.4031 27.0687 11.3924C26.9871 11.3823 26.9333 11.2333 26.9618 11.1559C27.1312 10.6982 27.4147 10.3037 27.6676 9.89294C27.7508 9.75776 27.8553 9.63344 27.9652 9.51851C27.9982 9.48411 28.098 9.47202 28.1394 9.49655C28.2134 9.54035 28.2663 9.61965 28.3121 9.66747Z" fill="black"/>
<path d="M26.8903 29.4873C26.9518 29.4983 27.0325 29.4888 27.0709 29.5245C27.1645 29.6115 27.2509 29.7119 27.3181 29.8205C27.5393 30.1782 27.7561 30.5391 27.9614 30.906C28.0042 30.9825 28.0049 31.0915 27.9977 31.1835C27.9935 31.2385 27.9475 31.3136 27.8999 31.3357C27.8515 31.3581 27.7724 31.3391 27.7169 31.315C27.6604 31.2905 27.6003 31.2472 27.569 31.1956C27.2846 30.7256 27.0041 30.2534 26.7274 29.7788C26.6647 29.6709 26.7678 29.498 26.8903 29.4873Z" fill="black"/>
<path d="M11.1379 28.4274C11.0924 28.3775 11.0161 28.3193 10.9785 28.2423C10.9577 28.1996 10.981 28.0958 11.0188 28.0699C11.5018 27.7388 11.9907 27.4163 12.4793 27.0934C12.505 27.0764 12.5479 27.0593 12.571 27.0693C12.6552 27.1058 12.7472 27.1411 12.8095 27.2035C12.8356 27.2297 12.7985 27.3238 12.7824 27.385C12.7746 27.4147 12.7538 27.4455 12.7303 27.4661C12.3131 27.8349 11.8654 28.1607 11.364 28.4064C11.3104 28.4326 11.2374 28.4194 11.1379 28.4274Z" fill="black"/>
<path d="M30.5696 14.407C30.5392 14.3103 30.4953 14.2265 30.4927 14.1414C30.4911 14.0878 30.5381 14.0114 30.5859 13.9809C31.0464 13.6882 31.5089 13.3979 31.9789 13.1209C32.0536 13.0769 32.1681 13.1076 32.2345 13.1969C32.2889 13.2702 32.2867 13.4043 32.2299 13.4625C32.1632 13.531 32.1056 13.6145 32.0267 13.6636C31.6442 13.9011 31.2588 14.134 30.8675 14.3566C30.7916 14.4 30.685 14.3893 30.5696 14.407Z" fill="black"/>
<path d="M32.7008 26.3168C32.647 26.3856 32.6193 26.4505 32.5712 26.4744C32.5191 26.5004 32.4372 26.5119 32.387 26.4888C31.9517 26.2888 31.5194 26.082 31.0899 25.8699C31.0392 25.8449 30.9959 25.7802 30.9763 25.7243C30.9571 25.6699 30.954 25.5941 30.9781 25.5445C31.002 25.4954 31.0661 25.4626 31.118 25.4321C31.143 25.4175 31.1848 25.4131 31.212 25.4232C31.6916 25.6005 32.1736 25.7765 32.5867 26.0879C32.6505 26.136 32.6673 26.2463 32.7008 26.3168Z" fill="black"/>
</svg>
